%TF.GenerationSoftware,KiCad,Pcbnew,7.0.10*%
%TF.CreationDate,2024-01-26T02:29:38-06:00*%
%TF.ProjectId,USBC-Injector,55534243-2d49-46e6-9a65-63746f722e6b,rev?*%
%TF.SameCoordinates,Original*%
%TF.FileFunction,Copper,L2,Bot*%
%TF.FilePolarity,Positive*%
%FSLAX46Y46*%
G04 Gerber Fmt 4.6, Leading zero omitted, Abs format (unit mm)*
G04 Created by KiCad (PCBNEW 7.0.10) date 2024-01-26 02:29:38*
%MOMM*%
%LPD*%
G01*
G04 APERTURE LIST*
%TA.AperFunction,ComponentPad*%
%ADD10O,2.100000X1.000000*%
%TD*%
%TA.AperFunction,ComponentPad*%
%ADD11O,1.800000X1.000000*%
%TD*%
%TA.AperFunction,SMDPad,CuDef*%
%ADD12R,3.800000X2.000000*%
%TD*%
%TA.AperFunction,ViaPad*%
%ADD13C,0.600000*%
%TD*%
%TA.AperFunction,Conductor*%
%ADD14C,0.250000*%
%TD*%
%TA.AperFunction,Conductor*%
%ADD15C,0.800000*%
%TD*%
G04 APERTURE END LIST*
D10*
%TO.P,J1,S1,SHIELD*%
%TO.N,GND*%
X114865000Y-72134000D03*
D11*
X110685000Y-72134000D03*
D10*
X114865000Y-80774000D03*
D11*
X110685000Y-80774000D03*
%TD*%
D10*
%TO.P,J2,S1,SHIELD*%
%TO.N,GND*%
X120836236Y-80774000D03*
D11*
X125016236Y-80774000D03*
D10*
X120836236Y-72134000D03*
D11*
X125016236Y-72134000D03*
%TD*%
D12*
%TO.P,J4,1,Pin_1*%
%TO.N,GND*%
X124206000Y-74676000D03*
%TD*%
%TO.P,J3,1,Pin_1*%
%TO.N,/VBUS*%
X124206000Y-78232000D03*
%TD*%
D13*
%TO.N,Net-(J1-D+-PadA6)*%
X121412000Y-76708000D03*
X121412000Y-75458000D03*
%TO.N,Net-(J1-D--PadA7)*%
X114300000Y-75458000D03*
X114300000Y-76708000D03*
%TO.N,/VBUS*%
X118872000Y-74676000D03*
X125730000Y-78740000D03*
X118872000Y-73914000D03*
X122682000Y-77724000D03*
X122682000Y-78740000D03*
X118872000Y-78994000D03*
X118872000Y-78232000D03*
X125730000Y-77724000D03*
%TD*%
D14*
%TO.N,Net-(J1-D+-PadA6)*%
X121412000Y-75458000D02*
X121412000Y-76708000D01*
%TO.N,Net-(J1-D--PadA7)*%
X114300000Y-75458000D02*
X114300000Y-76708000D01*
D15*
%TO.N,/VBUS*%
X118872000Y-78232000D02*
X118872000Y-74676000D01*
X118872000Y-74676000D02*
X118872000Y-73914000D01*
X120650000Y-78232000D02*
X124206000Y-78232000D01*
X118872000Y-78994000D02*
X118872000Y-78232000D01*
X119888000Y-78994000D02*
X120650000Y-78232000D01*
X118872000Y-78994000D02*
X119888000Y-78994000D01*
%TD*%
%TA.AperFunction,Conductor*%
%TO.N,GND*%
G36*
X109750018Y-71394185D02*
G01*
X109795773Y-71446989D01*
X109805717Y-71516147D01*
X109776692Y-71579703D01*
X109773173Y-71583594D01*
X109679314Y-71683078D01*
X109635480Y-71758999D01*
X109635481Y-71759000D01*
X111740042Y-71759000D01*
X111740041Y-71758999D01*
X111738940Y-71756445D01*
X111738939Y-71756443D01*
X111634243Y-71615814D01*
X111607637Y-71593489D01*
X111568935Y-71535318D01*
X111567827Y-71465457D01*
X111604664Y-71406087D01*
X111667751Y-71376058D01*
X111687343Y-71374500D01*
X113712979Y-71374500D01*
X113780018Y-71394185D01*
X113825773Y-71446989D01*
X113835717Y-71516147D01*
X113806692Y-71579703D01*
X113803173Y-71583594D01*
X113709314Y-71683078D01*
X113665480Y-71758999D01*
X113665481Y-71759000D01*
X116070042Y-71759000D01*
X116070041Y-71758999D01*
X116068940Y-71756445D01*
X116068939Y-71756443D01*
X115964243Y-71615814D01*
X115937637Y-71593489D01*
X115898935Y-71535318D01*
X115897827Y-71465457D01*
X115934664Y-71406087D01*
X115997751Y-71376058D01*
X116017343Y-71374500D01*
X119684215Y-71374500D01*
X119751254Y-71394185D01*
X119797009Y-71446989D01*
X119806953Y-71516147D01*
X119777928Y-71579703D01*
X119774409Y-71583594D01*
X119680550Y-71683078D01*
X119636716Y-71758999D01*
X119636717Y-71759000D01*
X122041278Y-71759000D01*
X122041277Y-71758999D01*
X122040176Y-71756445D01*
X122040175Y-71756443D01*
X121935479Y-71615814D01*
X121908873Y-71593489D01*
X121870171Y-71535318D01*
X121869063Y-71465457D01*
X121905900Y-71406087D01*
X121968987Y-71376058D01*
X121988579Y-71374500D01*
X124014215Y-71374500D01*
X124081254Y-71394185D01*
X124127009Y-71446989D01*
X124136953Y-71516147D01*
X124107928Y-71579703D01*
X124104409Y-71583594D01*
X124010550Y-71683078D01*
X123966716Y-71758999D01*
X123966717Y-71759000D01*
X126071278Y-71759000D01*
X126071277Y-71758999D01*
X126070176Y-71756445D01*
X126070175Y-71756443D01*
X125965479Y-71615814D01*
X125938873Y-71593489D01*
X125900171Y-71535318D01*
X125899063Y-71465457D01*
X125935900Y-71406087D01*
X125998987Y-71376058D01*
X126018579Y-71374500D01*
X126486590Y-71374500D01*
X126497394Y-71374971D01*
X126536914Y-71378429D01*
X126537953Y-71378525D01*
X126666724Y-71391208D01*
X126686649Y-71394834D01*
X126752302Y-71412425D01*
X126756179Y-71413532D01*
X126849384Y-71441806D01*
X126865778Y-71448079D01*
X126932720Y-71479294D01*
X126938710Y-71482288D01*
X127019535Y-71525490D01*
X127032173Y-71533254D01*
X127094366Y-71576802D01*
X127101886Y-71582508D01*
X127171299Y-71639474D01*
X127180315Y-71647646D01*
X127234352Y-71701683D01*
X127242524Y-71710699D01*
X127299490Y-71780112D01*
X127305203Y-71787641D01*
X127348739Y-71849817D01*
X127356514Y-71862474D01*
X127399696Y-71943261D01*
X127402712Y-71949295D01*
X127433917Y-72016215D01*
X127440196Y-72032625D01*
X127468462Y-72125808D01*
X127469576Y-72129708D01*
X127487163Y-72195343D01*
X127490791Y-72215282D01*
X127503458Y-72343888D01*
X127503583Y-72345234D01*
X127507028Y-72384604D01*
X127507500Y-72395413D01*
X127507500Y-80512585D01*
X127507028Y-80523395D01*
X127503582Y-80562773D01*
X127503457Y-80564117D01*
X127490791Y-80692715D01*
X127487163Y-80712655D01*
X127469576Y-80778290D01*
X127468462Y-80782190D01*
X127440196Y-80875373D01*
X127433917Y-80891783D01*
X127402712Y-80958703D01*
X127399688Y-80964753D01*
X127356516Y-81045521D01*
X127348733Y-81058191D01*
X127305212Y-81120345D01*
X127299490Y-81127886D01*
X127242524Y-81197299D01*
X127234352Y-81206315D01*
X127180315Y-81260352D01*
X127171299Y-81268524D01*
X127101886Y-81325490D01*
X127094345Y-81331212D01*
X127032191Y-81374733D01*
X127019521Y-81382516D01*
X126938753Y-81425688D01*
X126932703Y-81428712D01*
X126865783Y-81459917D01*
X126849373Y-81466196D01*
X126756190Y-81494462D01*
X126752290Y-81495576D01*
X126686655Y-81513163D01*
X126666715Y-81516791D01*
X126538117Y-81529457D01*
X126536773Y-81529582D01*
X126497395Y-81533028D01*
X126486585Y-81533500D01*
X126018257Y-81533500D01*
X125951218Y-81513815D01*
X125905463Y-81461011D01*
X125895519Y-81391853D01*
X125924544Y-81328297D01*
X125928063Y-81324406D01*
X126021921Y-81224921D01*
X126065755Y-81149000D01*
X123961194Y-81149000D01*
X123962295Y-81151554D01*
X123962296Y-81151556D01*
X124066992Y-81292185D01*
X124093599Y-81314511D01*
X124132301Y-81372682D01*
X124133409Y-81442543D01*
X124096572Y-81501913D01*
X124033485Y-81531942D01*
X124013893Y-81533500D01*
X121988257Y-81533500D01*
X121921218Y-81513815D01*
X121875463Y-81461011D01*
X121865519Y-81391853D01*
X121894544Y-81328297D01*
X121898063Y-81324406D01*
X121991921Y-81224921D01*
X122035755Y-81149000D01*
X119631194Y-81149000D01*
X119632295Y-81151554D01*
X119632296Y-81151556D01*
X119736992Y-81292185D01*
X119763599Y-81314511D01*
X119802301Y-81372682D01*
X119803409Y-81442543D01*
X119766572Y-81501913D01*
X119703485Y-81531942D01*
X119683893Y-81533500D01*
X116017021Y-81533500D01*
X115949982Y-81513815D01*
X115904227Y-81461011D01*
X115894283Y-81391853D01*
X115923308Y-81328297D01*
X115926827Y-81324406D01*
X116020685Y-81224921D01*
X116064519Y-81149000D01*
X113659958Y-81149000D01*
X113661059Y-81151554D01*
X113661060Y-81151556D01*
X113765756Y-81292185D01*
X113792363Y-81314511D01*
X113831065Y-81372682D01*
X113832173Y-81442543D01*
X113795336Y-81501913D01*
X113732249Y-81531942D01*
X113712657Y-81533500D01*
X111687021Y-81533500D01*
X111619982Y-81513815D01*
X111574227Y-81461011D01*
X111564283Y-81391853D01*
X111593308Y-81328297D01*
X111596827Y-81324406D01*
X111690685Y-81224921D01*
X111734519Y-81149000D01*
X109629958Y-81149000D01*
X109631059Y-81151554D01*
X109631060Y-81151556D01*
X109735756Y-81292185D01*
X109762363Y-81314511D01*
X109801065Y-81372682D01*
X109802173Y-81442543D01*
X109765336Y-81501913D01*
X109702249Y-81531942D01*
X109682657Y-81533500D01*
X109225414Y-81533500D01*
X109214605Y-81533028D01*
X109175234Y-81529583D01*
X109173888Y-81529458D01*
X109045282Y-81516791D01*
X109025343Y-81513163D01*
X108959708Y-81495576D01*
X108955808Y-81494462D01*
X108862625Y-81466196D01*
X108846215Y-81459917D01*
X108779295Y-81428712D01*
X108773261Y-81425696D01*
X108692474Y-81382514D01*
X108679817Y-81374739D01*
X108617641Y-81331203D01*
X108610112Y-81325490D01*
X108540699Y-81268524D01*
X108531683Y-81260352D01*
X108477646Y-81206315D01*
X108469474Y-81197299D01*
X108412508Y-81127886D01*
X108406802Y-81120366D01*
X108363254Y-81058173D01*
X108355490Y-81045535D01*
X108312288Y-80964710D01*
X108309294Y-80958720D01*
X108278079Y-80891778D01*
X108271806Y-80875384D01*
X108243532Y-80782179D01*
X108242422Y-80778290D01*
X108233727Y-80745840D01*
X109981105Y-80745840D01*
X109991454Y-80857521D01*
X110041448Y-80957922D01*
X110124334Y-81033484D01*
X110228920Y-81074000D01*
X111112802Y-81074000D01*
X111195250Y-81058588D01*
X111290610Y-80999543D01*
X111358201Y-80910038D01*
X111388895Y-80802160D01*
X111383676Y-80745840D01*
X114011105Y-80745840D01*
X114021454Y-80857521D01*
X114071448Y-80957922D01*
X114154334Y-81033484D01*
X114258920Y-81074000D01*
X115442802Y-81074000D01*
X115525250Y-81058588D01*
X115620610Y-80999543D01*
X115688201Y-80910038D01*
X115718895Y-80802160D01*
X115713676Y-80745840D01*
X119982341Y-80745840D01*
X119992690Y-80857521D01*
X120042684Y-80957922D01*
X120125570Y-81033484D01*
X120230156Y-81074000D01*
X121414038Y-81074000D01*
X121496486Y-81058588D01*
X121591846Y-80999543D01*
X121659437Y-80910038D01*
X121690131Y-80802160D01*
X121684912Y-80745840D01*
X124312341Y-80745840D01*
X124322690Y-80857521D01*
X124372684Y-80957922D01*
X124455570Y-81033484D01*
X124560156Y-81074000D01*
X125444038Y-81074000D01*
X125526486Y-81058588D01*
X125621846Y-80999543D01*
X125689437Y-80910038D01*
X125720131Y-80802160D01*
X125709782Y-80690479D01*
X125659788Y-80590078D01*
X125576902Y-80514516D01*
X125472316Y-80474000D01*
X124588434Y-80474000D01*
X124505986Y-80489412D01*
X124410626Y-80548457D01*
X124343035Y-80637962D01*
X124312341Y-80745840D01*
X121684912Y-80745840D01*
X121679782Y-80690479D01*
X121629788Y-80590078D01*
X121546902Y-80514516D01*
X121442316Y-80474000D01*
X120258434Y-80474000D01*
X120175986Y-80489412D01*
X120080626Y-80548457D01*
X120013035Y-80637962D01*
X119982341Y-80745840D01*
X115713676Y-80745840D01*
X115708546Y-80690479D01*
X115658552Y-80590078D01*
X115575666Y-80514516D01*
X115471080Y-80474000D01*
X114287198Y-80474000D01*
X114204750Y-80489412D01*
X114109390Y-80548457D01*
X114041799Y-80637962D01*
X114011105Y-80745840D01*
X111383676Y-80745840D01*
X111378546Y-80690479D01*
X111328552Y-80590078D01*
X111245666Y-80514516D01*
X111141080Y-80474000D01*
X110257198Y-80474000D01*
X110174750Y-80489412D01*
X110079390Y-80548457D01*
X110011799Y-80637962D01*
X109981105Y-80745840D01*
X108233727Y-80745840D01*
X108224835Y-80712655D01*
X108221208Y-80692724D01*
X108208525Y-80563953D01*
X108208417Y-80562773D01*
X108204972Y-80523394D01*
X108204500Y-80512589D01*
X108204500Y-80398999D01*
X109635480Y-80398999D01*
X109635481Y-80399000D01*
X110310000Y-80399000D01*
X110310000Y-80024000D01*
X111060000Y-80024000D01*
X111060000Y-80399000D01*
X111740042Y-80399000D01*
X111740041Y-80398999D01*
X113665480Y-80398999D01*
X113665481Y-80399000D01*
X114490000Y-80399000D01*
X114490000Y-80024000D01*
X115240000Y-80024000D01*
X115240000Y-80399000D01*
X116070042Y-80399000D01*
X116070041Y-80398999D01*
X119636716Y-80398999D01*
X119636717Y-80399000D01*
X120461236Y-80399000D01*
X120461236Y-80024000D01*
X120242559Y-80024000D01*
X120112096Y-80039248D01*
X119947346Y-80099212D01*
X119800862Y-80195556D01*
X119680550Y-80323078D01*
X119636716Y-80398999D01*
X116070041Y-80398999D01*
X116068940Y-80396445D01*
X116068939Y-80396443D01*
X115964243Y-80255814D01*
X115829938Y-80143118D01*
X115829936Y-80143117D01*
X115673264Y-80064433D01*
X115502660Y-80024000D01*
X115240000Y-80024000D01*
X114490000Y-80024000D01*
X114490000Y-79997994D01*
X114509685Y-79930955D01*
X114562489Y-79885200D01*
X114566548Y-79883433D01*
X114655228Y-79846700D01*
X114655229Y-79846700D01*
X114655229Y-79846699D01*
X114655233Y-79846698D01*
X114775451Y-79754451D01*
X114867698Y-79634233D01*
X114925687Y-79494236D01*
X114945466Y-79344000D01*
X114943588Y-79329739D01*
X114925687Y-79193765D01*
X114925687Y-79193764D01*
X114867698Y-79053767D01*
X114790246Y-78952830D01*
X118217624Y-78952830D01*
X118221255Y-79010542D01*
X118221500Y-79018328D01*
X118221500Y-79034930D01*
X118223579Y-79051398D01*
X118224311Y-79059140D01*
X118227943Y-79116859D01*
X118230714Y-79125384D01*
X118235805Y-79148159D01*
X118236928Y-79157053D01*
X118236930Y-79157060D01*
X118258221Y-79210839D01*
X118260857Y-79218162D01*
X118278731Y-79273169D01*
X118278733Y-79273174D01*
X118283534Y-79280738D01*
X118294129Y-79301530D01*
X118297432Y-79309871D01*
X118297436Y-79309878D01*
X118331434Y-79356672D01*
X118335802Y-79363098D01*
X118356429Y-79395602D01*
X118366797Y-79411939D01*
X118373332Y-79418076D01*
X118388761Y-79435577D01*
X118394033Y-79442833D01*
X118394035Y-79442836D01*
X118438600Y-79479703D01*
X118444439Y-79484850D01*
X118486607Y-79524448D01*
X118486609Y-79524449D01*
X118486612Y-79524451D01*
X118494459Y-79528765D01*
X118513763Y-79541883D01*
X118520674Y-79547600D01*
X118520675Y-79547601D01*
X118546364Y-79559689D01*
X118573007Y-79572226D01*
X118579934Y-79575755D01*
X118630632Y-79603627D01*
X118639321Y-79605858D01*
X118661271Y-79613760D01*
X118669387Y-79617579D01*
X118726207Y-79628417D01*
X118733777Y-79630109D01*
X118789823Y-79644500D01*
X118798790Y-79644500D01*
X118822022Y-79646696D01*
X118823706Y-79647017D01*
X118830830Y-79648376D01*
X118830831Y-79648375D01*
X118830832Y-79648376D01*
X118888543Y-79644745D01*
X118896329Y-79644500D01*
X119802495Y-79644500D01*
X119818505Y-79646267D01*
X119818528Y-79646026D01*
X119826289Y-79646758D01*
X119826296Y-79646760D01*
X119896262Y-79644560D01*
X119900157Y-79644500D01*
X119928925Y-79644500D01*
X119933287Y-79643948D01*
X119944939Y-79643030D01*
X119990569Y-79641597D01*
X120010956Y-79635673D01*
X120029996Y-79631731D01*
X120051058Y-79629071D01*
X120093520Y-79612258D01*
X120104557Y-79608480D01*
X120148398Y-79595744D01*
X120166665Y-79584939D01*
X120184136Y-79576380D01*
X120203871Y-79568568D01*
X120240816Y-79541725D01*
X120250548Y-79535332D01*
X120289865Y-79512081D01*
X120304872Y-79497072D01*
X120319661Y-79484440D01*
X120336837Y-79471963D01*
X120365947Y-79436772D01*
X120373790Y-79428154D01*
X120544089Y-79257856D01*
X120605412Y-79224371D01*
X120675104Y-79229355D01*
X120731037Y-79271227D01*
X120755454Y-79336691D01*
X120755694Y-79343428D01*
X120775548Y-79494234D01*
X120775549Y-79494236D01*
X120832500Y-79631729D01*
X120833538Y-79634233D01*
X120925785Y-79754451D01*
X121046003Y-79846698D01*
X121046006Y-79846699D01*
X121046007Y-79846700D01*
X121134688Y-79883433D01*
X121189092Y-79927274D01*
X121211157Y-79993568D01*
X121211236Y-79997994D01*
X121211236Y-80399000D01*
X122041278Y-80399000D01*
X122041277Y-80398999D01*
X123966716Y-80398999D01*
X123966717Y-80399000D01*
X124641236Y-80399000D01*
X124641236Y-80024000D01*
X125391236Y-80024000D01*
X125391236Y-80399000D01*
X126071278Y-80399000D01*
X126071277Y-80398999D01*
X126070176Y-80396445D01*
X126070175Y-80396443D01*
X125965479Y-80255814D01*
X125831174Y-80143118D01*
X125831172Y-80143117D01*
X125674500Y-80064433D01*
X125503896Y-80024000D01*
X125391236Y-80024000D01*
X124641236Y-80024000D01*
X124572559Y-80024000D01*
X124442096Y-80039248D01*
X124277346Y-80099212D01*
X124130862Y-80195556D01*
X124010550Y-80323078D01*
X123966716Y-80398999D01*
X122041277Y-80398999D01*
X122040176Y-80396445D01*
X122040175Y-80396443D01*
X121935479Y-80255814D01*
X121801174Y-80143118D01*
X121801172Y-80143117D01*
X121638680Y-80061510D01*
X121587606Y-80013832D01*
X121570416Y-79946110D01*
X121592568Y-79879845D01*
X121621365Y-79853396D01*
X121620021Y-79851645D01*
X121626466Y-79846698D01*
X121626469Y-79846698D01*
X121746687Y-79754451D01*
X121838934Y-79634233D01*
X121896923Y-79494236D01*
X121900505Y-79467023D01*
X121928770Y-79403128D01*
X121987094Y-79364656D01*
X122056959Y-79363823D01*
X122116183Y-79400895D01*
X122124619Y-79411821D01*
X122125396Y-79412598D01*
X122125397Y-79412599D01*
X122125399Y-79412601D01*
X122206852Y-79467025D01*
X122208260Y-79467966D01*
X122208264Y-79467967D01*
X122281321Y-79482499D01*
X122281324Y-79482500D01*
X122281326Y-79482500D01*
X126130676Y-79482500D01*
X126130677Y-79482499D01*
X126203740Y-79467966D01*
X126286601Y-79412601D01*
X126341966Y-79329740D01*
X126356500Y-79256674D01*
X126356500Y-77207326D01*
X126356500Y-77207323D01*
X126356499Y-77207321D01*
X126341967Y-77134264D01*
X126341966Y-77134260D01*
X126286601Y-77051399D01*
X126203740Y-76996034D01*
X126203739Y-76996033D01*
X126203735Y-76996032D01*
X126130677Y-76981500D01*
X126130674Y-76981500D01*
X122281326Y-76981500D01*
X122281323Y-76981500D01*
X122208264Y-76996032D01*
X122208260Y-76996033D01*
X122125394Y-77051402D01*
X122122720Y-77054077D01*
X122115458Y-77058041D01*
X122115244Y-77058185D01*
X122115231Y-77058165D01*
X122063740Y-77086279D01*
X122068048Y-77094396D01*
X122068195Y-77143501D01*
X122055500Y-77207326D01*
X122055500Y-77457500D01*
X122035815Y-77524539D01*
X121983011Y-77570294D01*
X121931500Y-77581500D01*
X120735506Y-77581500D01*
X120719495Y-77579732D01*
X120719473Y-77579974D01*
X120711706Y-77579239D01*
X120641724Y-77581439D01*
X120637829Y-77581500D01*
X120609075Y-77581500D01*
X120609069Y-77581500D01*
X120609063Y-77581501D01*
X120604699Y-77582052D01*
X120593069Y-77582967D01*
X120547433Y-77584401D01*
X120532873Y-77588630D01*
X120527040Y-77590325D01*
X120507996Y-77594269D01*
X120486942Y-77596929D01*
X120486940Y-77596929D01*
X120444496Y-77613733D01*
X120433450Y-77617515D01*
X120389601Y-77630254D01*
X120371325Y-77641063D01*
X120353860Y-77649619D01*
X120334124Y-77657433D01*
X120297187Y-77684269D01*
X120287428Y-77690680D01*
X120248136Y-77713917D01*
X120233124Y-77728929D01*
X120218336Y-77741558D01*
X120201167Y-77754032D01*
X120201165Y-77754034D01*
X120172056Y-77789219D01*
X120164196Y-77797856D01*
X119734181Y-78227872D01*
X119672858Y-78261357D01*
X119603167Y-78256373D01*
X119547233Y-78214502D01*
X119522816Y-78149037D01*
X119522500Y-78140191D01*
X119522500Y-76708000D01*
X120856750Y-76708000D01*
X120875670Y-76851708D01*
X120875671Y-76851712D01*
X120931137Y-76985622D01*
X120931138Y-76985624D01*
X120931139Y-76985625D01*
X121019379Y-77100621D01*
X121134375Y-77188861D01*
X121268291Y-77244330D01*
X121395280Y-77261048D01*
X121411999Y-77263250D01*
X121412000Y-77263250D01*
X121412001Y-77263250D01*
X121426977Y-77261278D01*
X121555709Y-77244330D01*
X121689625Y-77188861D01*
X121804621Y-77100621D01*
X121848204Y-77043822D01*
X121904628Y-77002622D01*
X121921204Y-77001634D01*
X121911359Y-76975233D01*
X121920481Y-76918942D01*
X121948330Y-76851709D01*
X121967250Y-76708000D01*
X121948330Y-76564291D01*
X121892861Y-76430375D01*
X121813123Y-76326459D01*
X121787930Y-76261291D01*
X121787500Y-76250974D01*
X121787500Y-75915026D01*
X121807185Y-75847987D01*
X121813123Y-75839541D01*
X121813125Y-75839539D01*
X121868934Y-75766806D01*
X121925359Y-75725605D01*
X121995105Y-75721450D01*
X122056025Y-75755661D01*
X122070410Y-75773403D01*
X122125760Y-75856239D01*
X122208455Y-75911494D01*
X122208459Y-75911496D01*
X122281371Y-75925999D01*
X122281374Y-75926000D01*
X123831000Y-75926000D01*
X123831000Y-75051000D01*
X124581000Y-75051000D01*
X124581000Y-75926000D01*
X126130626Y-75926000D01*
X126130628Y-75925999D01*
X126203540Y-75911496D01*
X126203544Y-75911494D01*
X126286239Y-75856239D01*
X126341494Y-75773544D01*
X126341496Y-75773540D01*
X126355999Y-75700628D01*
X126356000Y-75700626D01*
X126356000Y-75051000D01*
X124581000Y-75051000D01*
X123831000Y-75051000D01*
X122056000Y-75051000D01*
X122046310Y-75060689D01*
X122036315Y-75094729D01*
X121983511Y-75140484D01*
X121914353Y-75150428D01*
X121850797Y-75121403D01*
X121833625Y-75103177D01*
X121820840Y-75086516D01*
X121804621Y-75065379D01*
X121689625Y-74977139D01*
X121689624Y-74977138D01*
X121689622Y-74977137D01*
X121555712Y-74921671D01*
X121555710Y-74921670D01*
X121555709Y-74921670D01*
X121483854Y-74912210D01*
X121412001Y-74902750D01*
X121411999Y-74902750D01*
X121268291Y-74921670D01*
X121268287Y-74921671D01*
X121134377Y-74977137D01*
X121019379Y-75065379D01*
X120931137Y-75180377D01*
X120875671Y-75314287D01*
X120875670Y-75314291D01*
X120856750Y-75457999D01*
X120856750Y-75458000D01*
X120875670Y-75601708D01*
X120875671Y-75601712D01*
X120931137Y-75735622D01*
X120931138Y-75735624D01*
X120931139Y-75735625D01*
X121010876Y-75839540D01*
X121036070Y-75904709D01*
X121036500Y-75915026D01*
X121036500Y-76250974D01*
X121016815Y-76318013D01*
X121010882Y-76326452D01*
X120967235Y-76383333D01*
X120931137Y-76430377D01*
X120875671Y-76564287D01*
X120875670Y-76564291D01*
X120856750Y-76707999D01*
X120856750Y-76708000D01*
X119522500Y-76708000D01*
X119522500Y-73873076D01*
X119522499Y-73873065D01*
X119519283Y-73847612D01*
X119507071Y-73750942D01*
X119446568Y-73598129D01*
X119446565Y-73598125D01*
X119446563Y-73598121D01*
X119421773Y-73564000D01*
X120755770Y-73564000D01*
X120775548Y-73714234D01*
X120775549Y-73714236D01*
X120824253Y-73831819D01*
X120833538Y-73854233D01*
X120925785Y-73974451D01*
X121046003Y-74066698D01*
X121186000Y-74124687D01*
X121298516Y-74139500D01*
X121298523Y-74139500D01*
X121373949Y-74139500D01*
X121373956Y-74139500D01*
X121486472Y-74124687D01*
X121626469Y-74066698D01*
X121746687Y-73974451D01*
X121833625Y-73861150D01*
X121890052Y-73819950D01*
X121959798Y-73815795D01*
X122020719Y-73850008D01*
X122053471Y-73911725D01*
X122056000Y-73936639D01*
X122056000Y-74301000D01*
X123831000Y-74301000D01*
X123831000Y-73426000D01*
X124581000Y-73426000D01*
X124581000Y-74301000D01*
X126356000Y-74301000D01*
X126356000Y-73651373D01*
X126355999Y-73651371D01*
X126341496Y-73578459D01*
X126341494Y-73578455D01*
X126286239Y-73495760D01*
X126203544Y-73440505D01*
X126203540Y-73440503D01*
X126130627Y-73426000D01*
X124581000Y-73426000D01*
X123831000Y-73426000D01*
X122281373Y-73426000D01*
X122208459Y-73440503D01*
X122208455Y-73440505D01*
X122125759Y-73495760D01*
X122117124Y-73504396D01*
X122116033Y-73503305D01*
X122073027Y-73539242D01*
X122003702Y-73547946D01*
X121940676Y-73517788D01*
X121903960Y-73458344D01*
X121900605Y-73441735D01*
X121896923Y-73413764D01*
X121838934Y-73273767D01*
X121746687Y-73153549D01*
X121626469Y-73061302D01*
X121626466Y-73061301D01*
X121620021Y-73056355D01*
X121620828Y-73055302D01*
X121578432Y-73010832D01*
X121565214Y-72942224D01*
X121591187Y-72877361D01*
X121646243Y-72837498D01*
X121725123Y-72808789D01*
X121725123Y-72808788D01*
X121871609Y-72712443D01*
X121991921Y-72584921D01*
X122035755Y-72509000D01*
X123961194Y-72509000D01*
X123962295Y-72511554D01*
X123962296Y-72511556D01*
X124066992Y-72652185D01*
X124201297Y-72764881D01*
X124201299Y-72764882D01*
X124357971Y-72843566D01*
X124528576Y-72884000D01*
X124641236Y-72884000D01*
X124641236Y-72509000D01*
X125391236Y-72509000D01*
X125391236Y-72884000D01*
X125459913Y-72884000D01*
X125459913Y-72883999D01*
X125590375Y-72868751D01*
X125755125Y-72808787D01*
X125901609Y-72712443D01*
X126021921Y-72584921D01*
X126065755Y-72509000D01*
X125391236Y-72509000D01*
X124641236Y-72509000D01*
X123961194Y-72509000D01*
X122035755Y-72509000D01*
X121211236Y-72509000D01*
X121211236Y-72910005D01*
X121191551Y-72977044D01*
X121138747Y-73022799D01*
X121134689Y-73024566D01*
X121046006Y-73061300D01*
X121046003Y-73061301D01*
X121046003Y-73061302D01*
X120925785Y-73153549D01*
X120844391Y-73259624D01*
X120833536Y-73273770D01*
X120775549Y-73413763D01*
X120775548Y-73413765D01*
X120755770Y-73563999D01*
X120755770Y-73564000D01*
X119421773Y-73564000D01*
X119349965Y-73465164D01*
X119349962Y-73465162D01*
X119223326Y-73360400D01*
X119074612Y-73290420D01*
X118991517Y-73274569D01*
X118913170Y-73259624D01*
X118913166Y-73259624D01*
X118749139Y-73269944D01*
X118592828Y-73320732D01*
X118592824Y-73320734D01*
X118454059Y-73408798D01*
X118341554Y-73528603D01*
X118341548Y-73528611D01*
X118262374Y-73672628D01*
X118262371Y-73672638D01*
X118221500Y-73831819D01*
X118221500Y-78920789D01*
X118219304Y-78944020D01*
X118217624Y-78952826D01*
X118217624Y-78952830D01*
X114790246Y-78952830D01*
X114775451Y-78933549D01*
X114655233Y-78841302D01*
X114655229Y-78841300D01*
X114591801Y-78815027D01*
X114515236Y-78783313D01*
X114501171Y-78781461D01*
X114402727Y-78768500D01*
X114402720Y-78768500D01*
X114327280Y-78768500D01*
X114327272Y-78768500D01*
X114214764Y-78783313D01*
X114214763Y-78783313D01*
X114074770Y-78841300D01*
X114074767Y-78841301D01*
X114074767Y-78841302D01*
X113954549Y-78933549D01*
X113889496Y-79018328D01*
X113862300Y-79053770D01*
X113804313Y-79193763D01*
X113804312Y-79193765D01*
X113784534Y-79343999D01*
X113784534Y-79344000D01*
X113804312Y-79494234D01*
X113804313Y-79494236D01*
X113861264Y-79631729D01*
X113862302Y-79634233D01*
X113954549Y-79754451D01*
X114074767Y-79846698D01*
X114074769Y-79846698D01*
X114081215Y-79851645D01*
X114080406Y-79852698D01*
X114122800Y-79897162D01*
X114136021Y-79965770D01*
X114110051Y-80030634D01*
X114054994Y-80070501D01*
X113976110Y-80099212D01*
X113829626Y-80195556D01*
X113709314Y-80323078D01*
X113665480Y-80398999D01*
X111740041Y-80398999D01*
X111738940Y-80396445D01*
X111738939Y-80396443D01*
X111634243Y-80255814D01*
X111499938Y-80143118D01*
X111499936Y-80143117D01*
X111343264Y-80064433D01*
X111172660Y-80024000D01*
X111060000Y-80024000D01*
X110310000Y-80024000D01*
X110241323Y-80024000D01*
X110110860Y-80039248D01*
X109946110Y-80099212D01*
X109799626Y-80195556D01*
X109679314Y-80323078D01*
X109635480Y-80398999D01*
X108204500Y-80398999D01*
X108204500Y-76708000D01*
X113744750Y-76708000D01*
X113763670Y-76851708D01*
X113763671Y-76851712D01*
X113819137Y-76985622D01*
X113819138Y-76985624D01*
X113819139Y-76985625D01*
X113907379Y-77100621D01*
X114022375Y-77188861D01*
X114156291Y-77244330D01*
X114283280Y-77261048D01*
X114299999Y-77263250D01*
X114300000Y-77263250D01*
X114300001Y-77263250D01*
X114314977Y-77261278D01*
X114443709Y-77244330D01*
X114577625Y-77188861D01*
X114692621Y-77100621D01*
X114780861Y-76985625D01*
X114836330Y-76851709D01*
X114855250Y-76708000D01*
X114836330Y-76564291D01*
X114780861Y-76430375D01*
X114701123Y-76326459D01*
X114675930Y-76261291D01*
X114675500Y-76250974D01*
X114675500Y-75915026D01*
X114695185Y-75847987D01*
X114701123Y-75839541D01*
X114780861Y-75735625D01*
X114836330Y-75601709D01*
X114855250Y-75458000D01*
X114836330Y-75314291D01*
X114780861Y-75180375D01*
X114692621Y-75065379D01*
X114577625Y-74977139D01*
X114577624Y-74977138D01*
X114577622Y-74977137D01*
X114443712Y-74921671D01*
X114443710Y-74921670D01*
X114443709Y-74921670D01*
X114371854Y-74912210D01*
X114300001Y-74902750D01*
X114299999Y-74902750D01*
X114156291Y-74921670D01*
X114156287Y-74921671D01*
X114022377Y-74977137D01*
X113907379Y-75065379D01*
X113819137Y-75180377D01*
X113763671Y-75314287D01*
X113763670Y-75314291D01*
X113744750Y-75457999D01*
X113744750Y-75458000D01*
X113763670Y-75601708D01*
X113763671Y-75601712D01*
X113819137Y-75735622D01*
X113819138Y-75735624D01*
X113819139Y-75735625D01*
X113898876Y-75839540D01*
X113924070Y-75904709D01*
X113924500Y-75915026D01*
X113924500Y-76250974D01*
X113904815Y-76318013D01*
X113898882Y-76326452D01*
X113855235Y-76383333D01*
X113819137Y-76430377D01*
X113763671Y-76564287D01*
X113763670Y-76564291D01*
X113744750Y-76707999D01*
X113744750Y-76708000D01*
X108204500Y-76708000D01*
X108204500Y-72509000D01*
X109629958Y-72509000D01*
X109631059Y-72511554D01*
X109631060Y-72511556D01*
X109735756Y-72652185D01*
X109870061Y-72764881D01*
X109870063Y-72764882D01*
X110026735Y-72843566D01*
X110197340Y-72884000D01*
X110310000Y-72884000D01*
X110310000Y-72509000D01*
X111060000Y-72509000D01*
X111060000Y-72884000D01*
X111128677Y-72884000D01*
X111128677Y-72883999D01*
X111259139Y-72868751D01*
X111423889Y-72808787D01*
X111570373Y-72712443D01*
X111690685Y-72584921D01*
X111734519Y-72509000D01*
X113659958Y-72509000D01*
X113661059Y-72511554D01*
X113661060Y-72511556D01*
X113765756Y-72652185D01*
X113900059Y-72764879D01*
X114062555Y-72846488D01*
X114113629Y-72894166D01*
X114130819Y-72961888D01*
X114108667Y-73028153D01*
X114079881Y-73054617D01*
X114081215Y-73056355D01*
X114074769Y-73061301D01*
X114074767Y-73061302D01*
X113954549Y-73153549D01*
X113873155Y-73259624D01*
X113862300Y-73273770D01*
X113804313Y-73413763D01*
X113804312Y-73413765D01*
X113784534Y-73563999D01*
X113784534Y-73564000D01*
X113804312Y-73714234D01*
X113804313Y-73714236D01*
X113853017Y-73831819D01*
X113862302Y-73854233D01*
X113954549Y-73974451D01*
X114074767Y-74066698D01*
X114214764Y-74124687D01*
X114327280Y-74139500D01*
X114327287Y-74139500D01*
X114402713Y-74139500D01*
X114402720Y-74139500D01*
X114515236Y-74124687D01*
X114655233Y-74066698D01*
X114775451Y-73974451D01*
X114867698Y-73854233D01*
X114925687Y-73714236D01*
X114945466Y-73564000D01*
X114943352Y-73547946D01*
X114931556Y-73458344D01*
X114925687Y-73413764D01*
X114867698Y-73273767D01*
X114775451Y-73153549D01*
X114655233Y-73061302D01*
X114655229Y-73061300D01*
X114566547Y-73024566D01*
X114512143Y-72980724D01*
X114490079Y-72914430D01*
X114490000Y-72910005D01*
X114490000Y-72509000D01*
X115240000Y-72509000D01*
X115240000Y-72884000D01*
X115458677Y-72884000D01*
X115458677Y-72883999D01*
X115589139Y-72868751D01*
X115753889Y-72808787D01*
X115900373Y-72712443D01*
X116020685Y-72584921D01*
X116064519Y-72509000D01*
X119631194Y-72509000D01*
X119632295Y-72511554D01*
X119632296Y-72511556D01*
X119736992Y-72652185D01*
X119871297Y-72764881D01*
X119871299Y-72764882D01*
X120027971Y-72843566D01*
X120198576Y-72884000D01*
X120461236Y-72884000D01*
X120461236Y-72509000D01*
X119631194Y-72509000D01*
X116064519Y-72509000D01*
X115240000Y-72509000D01*
X114490000Y-72509000D01*
X113659958Y-72509000D01*
X111734519Y-72509000D01*
X111060000Y-72509000D01*
X110310000Y-72509000D01*
X109629958Y-72509000D01*
X108204500Y-72509000D01*
X108204500Y-72395410D01*
X108204972Y-72384606D01*
X108205243Y-72381506D01*
X108208432Y-72345056D01*
X108208521Y-72344092D01*
X108221209Y-72215271D01*
X108224832Y-72195354D01*
X108242434Y-72129664D01*
X108243523Y-72125852D01*
X108249594Y-72105840D01*
X109981105Y-72105840D01*
X109991454Y-72217521D01*
X110041448Y-72317922D01*
X110124334Y-72393484D01*
X110228920Y-72434000D01*
X111112802Y-72434000D01*
X111195250Y-72418588D01*
X111290610Y-72359543D01*
X111358201Y-72270038D01*
X111388895Y-72162160D01*
X111383676Y-72105840D01*
X114011105Y-72105840D01*
X114021454Y-72217521D01*
X114071448Y-72317922D01*
X114154334Y-72393484D01*
X114258920Y-72434000D01*
X115442802Y-72434000D01*
X115525250Y-72418588D01*
X115620610Y-72359543D01*
X115688201Y-72270038D01*
X115718895Y-72162160D01*
X115713676Y-72105840D01*
X119982341Y-72105840D01*
X119992690Y-72217521D01*
X120042684Y-72317922D01*
X120125570Y-72393484D01*
X120230156Y-72434000D01*
X121414038Y-72434000D01*
X121496486Y-72418588D01*
X121591846Y-72359543D01*
X121659437Y-72270038D01*
X121690131Y-72162160D01*
X121684912Y-72105840D01*
X124312341Y-72105840D01*
X124322690Y-72217521D01*
X124372684Y-72317922D01*
X124455570Y-72393484D01*
X124560156Y-72434000D01*
X125444038Y-72434000D01*
X125526486Y-72418588D01*
X125621846Y-72359543D01*
X125689437Y-72270038D01*
X125720131Y-72162160D01*
X125709782Y-72050479D01*
X125659788Y-71950078D01*
X125576902Y-71874516D01*
X125472316Y-71834000D01*
X124588434Y-71834000D01*
X124505986Y-71849412D01*
X124410626Y-71908457D01*
X124343035Y-71997962D01*
X124312341Y-72105840D01*
X121684912Y-72105840D01*
X121679782Y-72050479D01*
X121629788Y-71950078D01*
X121546902Y-71874516D01*
X121442316Y-71834000D01*
X120258434Y-71834000D01*
X120175986Y-71849412D01*
X120080626Y-71908457D01*
X120013035Y-71997962D01*
X119982341Y-72105840D01*
X115713676Y-72105840D01*
X115708546Y-72050479D01*
X115658552Y-71950078D01*
X115575666Y-71874516D01*
X115471080Y-71834000D01*
X114287198Y-71834000D01*
X114204750Y-71849412D01*
X114109390Y-71908457D01*
X114041799Y-71997962D01*
X114011105Y-72105840D01*
X111383676Y-72105840D01*
X111378546Y-72050479D01*
X111328552Y-71950078D01*
X111245666Y-71874516D01*
X111141080Y-71834000D01*
X110257198Y-71834000D01*
X110174750Y-71849412D01*
X110079390Y-71908457D01*
X110011799Y-71997962D01*
X109981105Y-72105840D01*
X108249594Y-72105840D01*
X108271809Y-72032605D01*
X108278074Y-72016230D01*
X108309308Y-71949249D01*
X108312273Y-71943318D01*
X108355498Y-71862449D01*
X108363244Y-71849840D01*
X108406820Y-71787607D01*
X108412486Y-71780140D01*
X108469492Y-71710678D01*
X108477626Y-71701704D01*
X108531704Y-71647626D01*
X108540678Y-71639492D01*
X108610140Y-71582486D01*
X108617607Y-71576820D01*
X108679840Y-71533244D01*
X108692449Y-71525498D01*
X108773318Y-71482273D01*
X108779249Y-71479308D01*
X108846230Y-71448074D01*
X108862605Y-71441809D01*
X108955852Y-71413523D01*
X108959664Y-71412434D01*
X109025354Y-71394832D01*
X109045271Y-71391209D01*
X109174092Y-71378521D01*
X109175056Y-71378432D01*
X109211506Y-71375243D01*
X109214606Y-71374972D01*
X109225410Y-71374500D01*
X109682979Y-71374500D01*
X109750018Y-71394185D01*
G37*
%TD.AperFunction*%
%TD*%
M02*
