%TF.GenerationSoftware,KiCad,Pcbnew,7.0.10*%
%TF.CreationDate,2024-01-26T02:29:38-06:00*%
%TF.ProjectId,USBC-Injector,55534243-2d49-46e6-9a65-63746f722e6b,rev?*%
%TF.SameCoordinates,Original*%
%TF.FileFunction,Paste,Top*%
%TF.FilePolarity,Positive*%
%FSLAX46Y46*%
G04 Gerber Fmt 4.6, Leading zero omitted, Abs format (unit mm)*
G04 Created by KiCad (PCBNEW 7.0.10) date 2024-01-26 02:29:38*
%MOMM*%
%LPD*%
G01*
G04 APERTURE LIST*
G04 Aperture macros list*
%AMRoundRect*
0 Rectangle with rounded corners*
0 $1 Rounding radius*
0 $2 $3 $4 $5 $6 $7 $8 $9 X,Y pos of 4 corners*
0 Add a 4 corners polygon primitive as box body*
4,1,4,$2,$3,$4,$5,$6,$7,$8,$9,$2,$3,0*
0 Add four circle primitives for the rounded corners*
1,1,$1+$1,$2,$3*
1,1,$1+$1,$4,$5*
1,1,$1+$1,$6,$7*
1,1,$1+$1,$8,$9*
0 Add four rect primitives between the rounded corners*
20,1,$1+$1,$2,$3,$4,$5,0*
20,1,$1+$1,$4,$5,$6,$7,0*
20,1,$1+$1,$6,$7,$8,$9,0*
20,1,$1+$1,$8,$9,$2,$3,0*%
G04 Aperture macros list end*
%ADD10RoundRect,0.200000X-0.275000X0.200000X-0.275000X-0.200000X0.275000X-0.200000X0.275000X0.200000X0*%
%ADD11RoundRect,0.200000X0.275000X-0.200000X0.275000X0.200000X-0.275000X0.200000X-0.275000X-0.200000X0*%
%ADD12RoundRect,0.150000X-0.425000X0.150000X-0.425000X-0.150000X0.425000X-0.150000X0.425000X0.150000X0*%
%ADD13RoundRect,0.075000X-0.500000X0.075000X-0.500000X-0.075000X0.500000X-0.075000X0.500000X0.075000X0*%
%ADD14O,2.100000X1.000000*%
%ADD15O,1.800000X1.000000*%
%ADD16RoundRect,0.150000X0.425000X-0.150000X0.425000X0.150000X-0.425000X0.150000X-0.425000X-0.150000X0*%
%ADD17RoundRect,0.075000X0.500000X-0.075000X0.500000X0.075000X-0.500000X0.075000X-0.500000X-0.075000X0*%
G04 APERTURE END LIST*
D10*
%TO.C,R1*%
X117348000Y-79185000D03*
X117348000Y-80835000D03*
%TD*%
D11*
%TO.C,R2*%
X117348000Y-73723000D03*
X117348000Y-72073000D03*
%TD*%
D12*
%TO.C,J1*%
X115440000Y-73254000D03*
X115440000Y-74054000D03*
D13*
X115440000Y-75204000D03*
X115440000Y-76204000D03*
X115440000Y-76704000D03*
X115440000Y-77704000D03*
D12*
X115440000Y-78854000D03*
X115440000Y-79654000D03*
X115440000Y-79654000D03*
X115440000Y-78854000D03*
D13*
X115440000Y-78204000D03*
X115440000Y-77204000D03*
X115440000Y-75704000D03*
X115440000Y-74704000D03*
D12*
X115440000Y-74054000D03*
X115440000Y-73254000D03*
D14*
X114865000Y-72134000D03*
D15*
X110685000Y-72134000D03*
D14*
X114865000Y-80774000D03*
D15*
X110685000Y-80774000D03*
%TD*%
D16*
%TO.C,J2*%
X120261236Y-79654000D03*
X120261236Y-78854000D03*
D17*
X120261236Y-77704000D03*
X120261236Y-76704000D03*
X120261236Y-76204000D03*
X120261236Y-75204000D03*
D16*
X120261236Y-74054000D03*
X120261236Y-73254000D03*
X120261236Y-73254000D03*
X120261236Y-74054000D03*
D17*
X120261236Y-74704000D03*
X120261236Y-75704000D03*
X120261236Y-77204000D03*
X120261236Y-78204000D03*
D16*
X120261236Y-78854000D03*
X120261236Y-79654000D03*
D14*
X120836236Y-80774000D03*
D15*
X125016236Y-80774000D03*
D14*
X120836236Y-72134000D03*
D15*
X125016236Y-72134000D03*
%TD*%
M02*
