M48
; DRILL file {KiCad 7.0.10} date Fri Jan 26 02:29:56 2024
; FORMAT={-:-/ absolute / metric / decimal}
; #@! TF.CreationDate,2024-01-26T02:29:56-06:00
; #@! TF.GenerationSoftware,Kicad,Pcbnew,7.0.10
; #@! TF.FileFunction,MixedPlating,1,2
FMAT,2
METRIC
; #@! TA.AperFunction,Plated,PTH,ViaDrill
T1C0.300
; #@! TA.AperFunction,Plated,PTH,ComponentDrill
T2C0.600
; #@! TA.AperFunction,NonPlated,NPTH,ComponentDrill
T3C0.650
%
G90
G05
T1
X114.3Y-75.458
X114.3Y-76.708
X118.872Y-73.914
X118.872Y-74.676
X118.872Y-78.232
X118.872Y-78.994
X121.412Y-75.458
X121.412Y-76.708
X122.682Y-77.724
X122.682Y-78.74
X125.73Y-77.724
X125.73Y-78.74
T3
X114.365Y-73.564
X114.365Y-79.344
X121.336Y-73.564
X121.336Y-79.344
T2
X111.085Y-72.134G85X110.285Y-72.134
G05
X111.085Y-80.774G85X110.285Y-80.774
G05
X115.415Y-72.134G85X114.315Y-72.134
G05
X115.415Y-80.774G85X114.315Y-80.774
G05
X120.286Y-72.134G85X121.386Y-72.134
G05
X120.286Y-80.774G85X121.386Y-80.774
G05
X124.616Y-72.134G85X125.416Y-72.134
G05
X124.616Y-80.774G85X125.416Y-80.774
G05
M30
