%TF.GenerationSoftware,KiCad,Pcbnew,7.0.10*%
%TF.CreationDate,2024-01-26T02:29:38-06:00*%
%TF.ProjectId,USBC-Injector,55534243-2d49-46e6-9a65-63746f722e6b,rev?*%
%TF.SameCoordinates,Original*%
%TF.FileFunction,Legend,Bot*%
%TF.FilePolarity,Positive*%
%FSLAX46Y46*%
G04 Gerber Fmt 4.6, Leading zero omitted, Abs format (unit mm)*
G04 Created by KiCad (PCBNEW 7.0.10) date 2024-01-26 02:29:38*
%MOMM*%
%LPD*%
G01*
G04 APERTURE LIST*
%ADD10C,0.200000*%
%ADD11C,0.150000*%
G04 APERTURE END LIST*
D10*
X121158000Y-74168000D02*
X121158000Y-75184000D01*
X121158000Y-77724000D02*
X121158000Y-78740000D01*
X121666000Y-78232000D02*
X120650000Y-78232000D01*
X120650000Y-76454000D02*
X119380000Y-77724000D01*
X119380000Y-76708000D01*
X117856000Y-76708000D01*
X117856000Y-76200000D01*
X119380000Y-76200000D01*
X119380000Y-75184000D01*
X120650000Y-76454000D01*
G36*
X120650000Y-76454000D02*
G01*
X119380000Y-77724000D01*
X119380000Y-76708000D01*
X117856000Y-76708000D01*
X117856000Y-76200000D01*
X119380000Y-76200000D01*
X119380000Y-75184000D01*
X120650000Y-76454000D01*
G37*
X114808000Y-72898000D02*
X115062000Y-72898000D01*
X115062000Y-80010000D01*
X114808000Y-80010000D01*
X114808000Y-72898000D01*
G36*
X114808000Y-72898000D02*
G01*
X115062000Y-72898000D01*
X115062000Y-80010000D01*
X114808000Y-80010000D01*
X114808000Y-72898000D01*
G37*
X110236000Y-76200000D02*
X111760000Y-76200000D01*
X111760000Y-76708000D01*
X110236000Y-76708000D01*
X110236000Y-77724000D01*
X108966000Y-76454000D01*
X110236000Y-75184000D01*
X110236000Y-76200000D01*
G36*
X110236000Y-76200000D02*
G01*
X111760000Y-76200000D01*
X111760000Y-76708000D01*
X110236000Y-76708000D01*
X110236000Y-77724000D01*
X108966000Y-76454000D01*
X110236000Y-75184000D01*
X110236000Y-76200000D01*
G37*
G36*
X116519385Y-78200690D02*
G01*
X116536173Y-78201019D01*
X116552633Y-78201568D01*
X116568764Y-78202336D01*
X116584567Y-78203323D01*
X116600042Y-78204530D01*
X116615189Y-78205956D01*
X116630008Y-78207602D01*
X116644498Y-78209467D01*
X116658661Y-78211552D01*
X116672495Y-78213856D01*
X116686001Y-78216380D01*
X116699178Y-78219123D01*
X116712028Y-78222085D01*
X116724549Y-78225267D01*
X116736742Y-78228668D01*
X116748653Y-78232251D01*
X116760266Y-78236037D01*
X116771581Y-78240028D01*
X116782599Y-78244223D01*
X116793319Y-78248622D01*
X116803741Y-78253226D01*
X116813865Y-78258033D01*
X116823692Y-78263045D01*
X116833222Y-78268261D01*
X116842453Y-78273681D01*
X116851387Y-78279305D01*
X116860024Y-78285134D01*
X116868362Y-78291167D01*
X116876403Y-78297403D01*
X116884146Y-78303844D01*
X116891592Y-78310489D01*
X116898880Y-78317466D01*
X116905936Y-78324719D01*
X116912762Y-78332249D01*
X116919356Y-78340054D01*
X116925718Y-78348136D01*
X116931849Y-78356494D01*
X116937749Y-78365128D01*
X116943417Y-78374038D01*
X116948854Y-78383225D01*
X116954060Y-78392688D01*
X116959034Y-78402427D01*
X116963777Y-78412442D01*
X116968289Y-78422733D01*
X116972569Y-78433301D01*
X116976618Y-78444144D01*
X116980435Y-78455264D01*
X116984021Y-78466660D01*
X116987376Y-78478333D01*
X116990500Y-78490281D01*
X116993392Y-78502506D01*
X116996052Y-78515007D01*
X116998482Y-78527784D01*
X117000680Y-78540838D01*
X117002646Y-78554167D01*
X117004381Y-78567773D01*
X117005885Y-78581655D01*
X117007158Y-78595813D01*
X117008199Y-78610248D01*
X117009009Y-78624958D01*
X117009587Y-78639945D01*
X117009934Y-78655208D01*
X117010050Y-78670748D01*
X117010050Y-78886902D01*
X115994000Y-78886902D01*
X115994000Y-78685158D01*
X116181578Y-78685158D01*
X116822471Y-78685158D01*
X116822471Y-78630448D01*
X116822187Y-78615760D01*
X116821334Y-78601619D01*
X116819912Y-78588024D01*
X116817922Y-78574974D01*
X116815363Y-78562470D01*
X116812236Y-78550511D01*
X116808540Y-78539099D01*
X116804275Y-78528232D01*
X116799442Y-78517911D01*
X116794040Y-78508135D01*
X116788069Y-78498906D01*
X116781530Y-78490222D01*
X116774422Y-78482083D01*
X116766746Y-78474491D01*
X116758501Y-78467444D01*
X116749687Y-78460943D01*
X116740137Y-78454821D01*
X116729804Y-78449093D01*
X116718689Y-78443761D01*
X116706792Y-78438824D01*
X116694112Y-78434281D01*
X116680650Y-78430134D01*
X116666406Y-78426382D01*
X116651379Y-78423024D01*
X116635570Y-78420062D01*
X116618979Y-78417494D01*
X116601605Y-78415322D01*
X116583449Y-78413545D01*
X116564511Y-78412162D01*
X116554748Y-78411619D01*
X116544790Y-78411175D01*
X116534636Y-78410829D01*
X116524287Y-78410582D01*
X116513742Y-78410434D01*
X116503002Y-78410385D01*
X116492186Y-78410434D01*
X116481567Y-78410582D01*
X116471147Y-78410829D01*
X116460923Y-78411175D01*
X116450897Y-78411619D01*
X116441069Y-78412162D01*
X116422005Y-78413545D01*
X116403730Y-78415322D01*
X116386246Y-78417494D01*
X116369551Y-78420062D01*
X116353647Y-78423024D01*
X116338533Y-78426382D01*
X116324208Y-78430134D01*
X116310674Y-78434281D01*
X116297929Y-78438824D01*
X116285975Y-78443761D01*
X116274810Y-78449093D01*
X116264435Y-78454821D01*
X116254851Y-78460943D01*
X116245978Y-78467530D01*
X116237678Y-78474651D01*
X116229950Y-78482307D01*
X116222794Y-78490496D01*
X116216211Y-78499220D01*
X116210200Y-78508479D01*
X116204762Y-78518271D01*
X116199896Y-78528598D01*
X116195603Y-78539459D01*
X116191882Y-78550855D01*
X116188734Y-78562785D01*
X116186158Y-78575249D01*
X116184154Y-78588247D01*
X116182723Y-78601779D01*
X116181864Y-78615846D01*
X116181578Y-78630448D01*
X116181578Y-78685158D01*
X115994000Y-78685158D01*
X115994000Y-78670748D01*
X115994116Y-78655253D01*
X115994467Y-78640031D01*
X115995051Y-78625083D01*
X115995869Y-78610408D01*
X115996921Y-78596007D01*
X115998207Y-78581878D01*
X115999726Y-78568024D01*
X116001479Y-78554442D01*
X116003466Y-78541134D01*
X116005687Y-78528099D01*
X116008141Y-78515338D01*
X116010829Y-78502850D01*
X116013751Y-78490635D01*
X116016907Y-78478694D01*
X116020296Y-78467025D01*
X116023919Y-78455631D01*
X116027776Y-78444509D01*
X116031867Y-78433661D01*
X116036191Y-78423087D01*
X116040749Y-78412785D01*
X116045541Y-78402757D01*
X116050567Y-78393002D01*
X116055826Y-78383521D01*
X116061319Y-78374313D01*
X116067046Y-78365378D01*
X116073006Y-78356717D01*
X116079201Y-78348329D01*
X116085629Y-78340214D01*
X116092291Y-78332373D01*
X116099186Y-78324805D01*
X116106315Y-78317511D01*
X116113678Y-78310489D01*
X116121319Y-78303727D01*
X116129250Y-78297180D01*
X116137471Y-78290847D01*
X116145983Y-78284729D01*
X116154786Y-78278826D01*
X116163879Y-78273137D01*
X116173263Y-78267663D01*
X116182937Y-78262404D01*
X116192901Y-78257359D01*
X116203156Y-78252529D01*
X116213702Y-78247914D01*
X116224538Y-78243513D01*
X116235665Y-78239327D01*
X116247082Y-78235356D01*
X116258790Y-78231599D01*
X116270788Y-78228057D01*
X116283076Y-78224730D01*
X116295656Y-78221617D01*
X116308525Y-78218719D01*
X116321686Y-78216036D01*
X116335136Y-78213567D01*
X116348878Y-78211313D01*
X116362909Y-78209274D01*
X116377232Y-78207449D01*
X116391845Y-78205839D01*
X116406748Y-78204444D01*
X116421942Y-78203263D01*
X116437426Y-78202297D01*
X116453201Y-78201546D01*
X116469267Y-78201009D01*
X116485622Y-78200687D01*
X116502269Y-78200580D01*
X116519385Y-78200690D01*
G37*
G36*
X116402781Y-77359816D02*
G01*
X116416887Y-77360308D01*
X116430770Y-77361129D01*
X116444429Y-77362278D01*
X116457865Y-77363754D01*
X116471078Y-77365560D01*
X116484068Y-77367693D01*
X116496834Y-77370154D01*
X116509378Y-77372944D01*
X116521698Y-77376062D01*
X116533794Y-77379508D01*
X116545668Y-77383282D01*
X116557318Y-77387385D01*
X116568745Y-77391816D01*
X116579949Y-77396575D01*
X116590929Y-77401662D01*
X116601649Y-77407048D01*
X116612071Y-77412706D01*
X116622196Y-77418635D01*
X116632023Y-77424834D01*
X116641552Y-77431305D01*
X116650784Y-77438046D01*
X116659718Y-77445059D01*
X116668354Y-77452342D01*
X116676693Y-77459896D01*
X116684734Y-77467722D01*
X116692477Y-77475818D01*
X116699922Y-77484185D01*
X116707070Y-77492823D01*
X116713921Y-77501733D01*
X116720473Y-77510913D01*
X116726728Y-77520364D01*
X116732643Y-77530030D01*
X116738177Y-77539918D01*
X116743329Y-77550028D01*
X116748099Y-77560359D01*
X116752488Y-77570911D01*
X116756495Y-77581684D01*
X116760121Y-77592679D01*
X116763364Y-77603895D01*
X116766227Y-77615332D01*
X116768707Y-77626991D01*
X116770806Y-77638871D01*
X116772524Y-77650973D01*
X116773859Y-77663295D01*
X116774813Y-77675840D01*
X116775386Y-77688605D01*
X116775577Y-77701592D01*
X116775380Y-77717302D01*
X116774790Y-77732679D01*
X116773808Y-77747725D01*
X116772432Y-77762439D01*
X116770663Y-77776821D01*
X116768501Y-77790870D01*
X116765946Y-77804588D01*
X116762998Y-77817974D01*
X116759657Y-77831027D01*
X116755923Y-77843749D01*
X116751795Y-77856139D01*
X116747275Y-77868196D01*
X116742361Y-77879922D01*
X116737055Y-77891315D01*
X116731355Y-77902377D01*
X116725263Y-77913106D01*
X116718845Y-77923476D01*
X116712112Y-77933520D01*
X116705061Y-77943237D01*
X116697694Y-77952628D01*
X116690010Y-77961692D01*
X116682009Y-77970431D01*
X116673691Y-77978843D01*
X116665057Y-77986929D01*
X116656106Y-77994688D01*
X116646838Y-78002121D01*
X116637253Y-78009228D01*
X116627352Y-78016009D01*
X116617134Y-78022463D01*
X116606599Y-78028591D01*
X116595747Y-78034393D01*
X116584579Y-78039868D01*
X116573161Y-78044985D01*
X116561502Y-78049772D01*
X116549600Y-78054228D01*
X116537455Y-78058354D01*
X116525068Y-78062151D01*
X116512439Y-78065617D01*
X116499568Y-78068753D01*
X116486454Y-78071559D01*
X116473098Y-78074035D01*
X116459500Y-78076180D01*
X116445659Y-78077996D01*
X116431576Y-78079481D01*
X116417250Y-78080637D01*
X116402683Y-78081462D01*
X116387873Y-78081957D01*
X116372820Y-78082122D01*
X116360925Y-78082022D01*
X116349207Y-78081721D01*
X116337665Y-78081219D01*
X116326300Y-78080516D01*
X116315111Y-78079612D01*
X116304098Y-78078507D01*
X116293262Y-78077202D01*
X116282603Y-78075696D01*
X116272120Y-78073989D01*
X116261814Y-78072081D01*
X116251684Y-78069972D01*
X116241730Y-78067662D01*
X116231954Y-78065152D01*
X116222353Y-78062441D01*
X116203682Y-78056416D01*
X116185717Y-78049587D01*
X116168458Y-78041956D01*
X116151904Y-78033521D01*
X116136057Y-78024283D01*
X116120916Y-78014241D01*
X116106481Y-78003396D01*
X116092752Y-77991748D01*
X116079729Y-77979296D01*
X116073493Y-77972777D01*
X116061614Y-77959183D01*
X116050528Y-77944849D01*
X116040234Y-77929775D01*
X116030731Y-77913960D01*
X116022020Y-77897405D01*
X116014102Y-77880110D01*
X116006975Y-77862074D01*
X116003708Y-77852778D01*
X116000640Y-77843298D01*
X115997769Y-77833632D01*
X115995096Y-77823781D01*
X115992622Y-77813745D01*
X115990345Y-77803524D01*
X115988266Y-77793118D01*
X115986386Y-77782527D01*
X115984703Y-77771751D01*
X115983218Y-77760789D01*
X115981931Y-77749643D01*
X115980843Y-77738311D01*
X115979952Y-77726795D01*
X115979259Y-77715093D01*
X115978764Y-77703206D01*
X115978467Y-77691134D01*
X115978368Y-77678877D01*
X115978595Y-77660469D01*
X115979276Y-77642123D01*
X115980412Y-77623840D01*
X115982001Y-77605620D01*
X115984045Y-77587463D01*
X115986542Y-77569369D01*
X115989494Y-77551338D01*
X115992900Y-77533370D01*
X115996761Y-77515465D01*
X116001075Y-77497622D01*
X116005843Y-77479843D01*
X116011066Y-77462127D01*
X116016743Y-77444474D01*
X116022874Y-77426884D01*
X116029459Y-77409356D01*
X116036498Y-77391892D01*
X116216749Y-77391892D01*
X116212061Y-77400637D01*
X116207521Y-77409376D01*
X116198889Y-77426842D01*
X116190852Y-77444288D01*
X116183410Y-77461715D01*
X116176563Y-77479123D01*
X116170312Y-77496512D01*
X116164657Y-77513882D01*
X116159596Y-77531233D01*
X116155131Y-77548564D01*
X116151261Y-77565877D01*
X116147987Y-77583170D01*
X116145308Y-77600445D01*
X116143224Y-77617700D01*
X116141736Y-77634937D01*
X116140843Y-77652154D01*
X116140545Y-77669352D01*
X116140707Y-77682215D01*
X116141194Y-77694669D01*
X116142005Y-77706715D01*
X116143140Y-77718353D01*
X116144600Y-77729583D01*
X116146384Y-77740404D01*
X116148493Y-77750816D01*
X116150926Y-77760821D01*
X116156764Y-77779605D01*
X116163901Y-77796755D01*
X116172335Y-77812272D01*
X116182066Y-77826156D01*
X116193096Y-77838406D01*
X116205422Y-77849023D01*
X116219046Y-77858007D01*
X116233968Y-77865357D01*
X116250187Y-77871074D01*
X116267704Y-77875157D01*
X116286518Y-77877607D01*
X116296412Y-77878220D01*
X116306630Y-77878424D01*
X116306630Y-77561397D01*
X116462946Y-77561397D01*
X116462946Y-77876470D01*
X116471853Y-77875391D01*
X116484727Y-77873275D01*
X116497018Y-77870562D01*
X116508724Y-77867253D01*
X116519847Y-77863347D01*
X116530385Y-77858844D01*
X116540340Y-77853744D01*
X116549711Y-77848047D01*
X116558498Y-77841754D01*
X116566701Y-77834864D01*
X116574321Y-77827377D01*
X116579053Y-77822031D01*
X116585579Y-77813544D01*
X116591418Y-77804495D01*
X116596570Y-77794882D01*
X116601035Y-77784708D01*
X116604813Y-77773971D01*
X116607904Y-77762672D01*
X116610308Y-77750810D01*
X116612025Y-77738386D01*
X116613056Y-77725399D01*
X116613399Y-77711850D01*
X116613251Y-77702914D01*
X116612469Y-77690004D01*
X116611018Y-77677687D01*
X116608897Y-77665962D01*
X116606106Y-77654829D01*
X116602646Y-77644289D01*
X116598516Y-77634341D01*
X116593716Y-77624986D01*
X116588246Y-77616223D01*
X116582107Y-77608053D01*
X116575297Y-77600475D01*
X116570394Y-77595743D01*
X116562508Y-77589217D01*
X116553987Y-77583378D01*
X116544831Y-77578226D01*
X116535039Y-77573761D01*
X116524612Y-77569983D01*
X116513550Y-77566892D01*
X116501852Y-77564488D01*
X116489519Y-77562770D01*
X116476550Y-77561740D01*
X116462946Y-77561397D01*
X116306630Y-77561397D01*
X116306630Y-77359652D01*
X116388452Y-77359652D01*
X116402781Y-77359816D01*
G37*
G36*
X116759945Y-77241438D02*
G01*
X116759945Y-77038473D01*
X116161794Y-76875074D01*
X116759945Y-76710943D01*
X116759945Y-76507977D01*
X115994000Y-76751243D01*
X115994000Y-76998173D01*
X116759945Y-77241438D01*
G37*
G36*
X116853734Y-76145765D02*
G01*
X116855357Y-76155683D01*
X116861749Y-76163396D01*
X116871766Y-76166201D01*
X116874251Y-76166281D01*
X117067691Y-76166281D01*
X117077609Y-76164659D01*
X117085322Y-76158267D01*
X117088127Y-76148249D01*
X117088207Y-76145765D01*
X117088207Y-75986519D01*
X117086585Y-75976601D01*
X117080193Y-75968887D01*
X117070175Y-75966082D01*
X117067691Y-75966002D01*
X116874251Y-75966002D01*
X116864333Y-75967625D01*
X116856619Y-75974016D01*
X116853814Y-75984034D01*
X116853734Y-75986519D01*
X116853734Y-76145765D01*
G37*
G36*
X115994000Y-75898835D02*
G01*
X115994284Y-75916323D01*
X115995137Y-75933186D01*
X115996558Y-75949425D01*
X115998549Y-75965041D01*
X116001107Y-75980032D01*
X116004235Y-75994399D01*
X116007931Y-76008143D01*
X116012196Y-76021262D01*
X116017029Y-76033758D01*
X116022431Y-76045629D01*
X116028401Y-76056877D01*
X116034941Y-76067500D01*
X116042049Y-76077500D01*
X116049725Y-76086876D01*
X116057970Y-76095627D01*
X116066784Y-76103755D01*
X116076272Y-76111327D01*
X116086480Y-76118410D01*
X116097407Y-76125004D01*
X116109053Y-76131110D01*
X116121419Y-76136728D01*
X116134504Y-76141857D01*
X116148309Y-76146498D01*
X116162832Y-76150650D01*
X116178076Y-76154314D01*
X116194038Y-76157489D01*
X116210720Y-76160175D01*
X116228122Y-76162374D01*
X116246242Y-76164083D01*
X116265082Y-76165304D01*
X116284642Y-76166037D01*
X116294691Y-76166220D01*
X116304921Y-76166281D01*
X116597768Y-76166281D01*
X116597768Y-76328214D01*
X116759945Y-76328214D01*
X116759945Y-75966002D01*
X116317377Y-75966002D01*
X116306731Y-75965892D01*
X116296471Y-75965560D01*
X116286597Y-75965006D01*
X116272507Y-75963761D01*
X116259285Y-75962018D01*
X116246931Y-75959777D01*
X116235443Y-75957038D01*
X116224823Y-75953801D01*
X116215070Y-75950065D01*
X116206184Y-75945832D01*
X116195685Y-75939413D01*
X116193302Y-75937670D01*
X116184601Y-75929938D01*
X116177060Y-75921031D01*
X116170679Y-75910948D01*
X116165458Y-75899690D01*
X116161397Y-75887257D01*
X116159113Y-75877160D01*
X116157482Y-75866403D01*
X116156503Y-75854984D01*
X116156177Y-75842904D01*
X116156177Y-75682925D01*
X115994000Y-75682925D01*
X115994000Y-75898835D01*
G37*
G36*
X115978368Y-75127272D02*
G01*
X115978470Y-75138551D01*
X115978777Y-75149671D01*
X115979289Y-75160634D01*
X115980005Y-75171438D01*
X115980926Y-75182085D01*
X115982052Y-75192574D01*
X115983382Y-75202905D01*
X115984917Y-75213078D01*
X115986656Y-75223093D01*
X115988600Y-75232950D01*
X115990749Y-75242650D01*
X115993103Y-75252191D01*
X115998424Y-75270800D01*
X116004563Y-75288778D01*
X116011521Y-75306124D01*
X116019298Y-75322838D01*
X116027893Y-75338921D01*
X116037307Y-75354372D01*
X116047539Y-75369192D01*
X116058590Y-75383380D01*
X116070460Y-75396936D01*
X116083148Y-75409861D01*
X116096598Y-75422076D01*
X116110690Y-75433503D01*
X116125426Y-75444142D01*
X116140805Y-75453993D01*
X116156826Y-75463056D01*
X116173491Y-75471330D01*
X116190799Y-75478817D01*
X116208750Y-75485516D01*
X116227344Y-75491426D01*
X116236882Y-75494086D01*
X116246581Y-75496548D01*
X116256441Y-75498814D01*
X116266461Y-75500883D01*
X116276642Y-75502754D01*
X116286984Y-75504429D01*
X116297487Y-75505907D01*
X116308150Y-75507187D01*
X116318974Y-75508271D01*
X116329959Y-75509157D01*
X116341105Y-75509847D01*
X116352412Y-75510340D01*
X116363879Y-75510635D01*
X116375507Y-75510734D01*
X116387196Y-75510636D01*
X116398723Y-75510344D01*
X116410090Y-75509858D01*
X116421295Y-75509177D01*
X116432339Y-75508301D01*
X116443221Y-75507230D01*
X116453943Y-75505965D01*
X116464503Y-75504505D01*
X116474902Y-75502851D01*
X116485139Y-75501002D01*
X116495216Y-75498958D01*
X116505131Y-75496720D01*
X116514885Y-75494287D01*
X116524478Y-75491660D01*
X116533909Y-75488838D01*
X116552289Y-75482609D01*
X116570023Y-75475603D01*
X116587112Y-75467817D01*
X116603557Y-75459254D01*
X116619356Y-75449911D01*
X116634511Y-75439791D01*
X116649020Y-75428891D01*
X116662885Y-75417213D01*
X116669575Y-75411083D01*
X116682411Y-75398291D01*
X116694419Y-75384891D01*
X116705599Y-75370883D01*
X116715951Y-75356265D01*
X116725474Y-75341039D01*
X116734170Y-75325204D01*
X116742037Y-75308761D01*
X116749076Y-75291709D01*
X116755287Y-75274048D01*
X116760670Y-75255778D01*
X116765225Y-75236900D01*
X116767192Y-75227233D01*
X116768952Y-75217413D01*
X116770504Y-75207441D01*
X116771850Y-75197318D01*
X116772989Y-75187041D01*
X116773920Y-75176613D01*
X116774645Y-75166033D01*
X116775163Y-75155300D01*
X116775473Y-75144415D01*
X116775577Y-75133378D01*
X116775346Y-75118213D01*
X116774653Y-75103127D01*
X116773499Y-75088118D01*
X116771882Y-75073188D01*
X116769804Y-75058336D01*
X116767265Y-75043562D01*
X116764263Y-75028866D01*
X116760800Y-75014249D01*
X116756875Y-74999710D01*
X116752488Y-74985249D01*
X116747639Y-74970866D01*
X116742329Y-74956562D01*
X116736557Y-74942336D01*
X116730323Y-74928188D01*
X116723627Y-74914118D01*
X116716470Y-74900126D01*
X116532311Y-74900126D01*
X116542130Y-74911327D01*
X116551316Y-74922704D01*
X116559868Y-74934256D01*
X116567787Y-74945983D01*
X116575072Y-74957886D01*
X116581724Y-74969965D01*
X116587742Y-74982219D01*
X116593127Y-74994648D01*
X116597878Y-75007254D01*
X116601996Y-75020034D01*
X116605481Y-75032991D01*
X116608331Y-75046123D01*
X116610549Y-75059430D01*
X116612132Y-75072913D01*
X116613083Y-75086572D01*
X116613399Y-75100406D01*
X116613158Y-75112800D01*
X116612434Y-75124826D01*
X116611227Y-75136484D01*
X116609537Y-75147773D01*
X116607365Y-75158695D01*
X116604710Y-75169248D01*
X116601572Y-75179433D01*
X116597951Y-75189249D01*
X116593848Y-75198697D01*
X116589261Y-75207777D01*
X116584192Y-75216489D01*
X116578641Y-75224832D01*
X116572606Y-75232807D01*
X116566089Y-75240414D01*
X116559089Y-75247653D01*
X116551606Y-75254523D01*
X116543708Y-75260970D01*
X116535402Y-75267002D01*
X116526687Y-75272618D01*
X116517565Y-75277818D01*
X116508033Y-75282601D01*
X116498094Y-75286969D01*
X116487746Y-75290921D01*
X116476990Y-75294457D01*
X116465825Y-75297576D01*
X116454252Y-75300280D01*
X116442271Y-75302568D01*
X116429881Y-75304440D01*
X116417083Y-75305896D01*
X116403877Y-75306936D01*
X116390263Y-75307560D01*
X116376240Y-75307768D01*
X116362306Y-75307561D01*
X116348778Y-75306940D01*
X116335653Y-75305905D01*
X116322934Y-75304455D01*
X116310618Y-75302592D01*
X116298708Y-75300315D01*
X116287202Y-75297623D01*
X116276100Y-75294518D01*
X116265403Y-75290998D01*
X116255110Y-75287064D01*
X116245222Y-75282717D01*
X116235739Y-75277955D01*
X116226660Y-75272779D01*
X116217985Y-75267189D01*
X116209716Y-75261185D01*
X116201850Y-75254767D01*
X116194427Y-75247965D01*
X116187482Y-75240807D01*
X116181016Y-75233295D01*
X116175029Y-75225427D01*
X116169521Y-75217205D01*
X116164492Y-75208628D01*
X116159942Y-75199696D01*
X116155871Y-75190409D01*
X116152279Y-75180767D01*
X116149166Y-75170770D01*
X116146532Y-75160419D01*
X116144377Y-75149712D01*
X116142700Y-75138651D01*
X116141503Y-75127234D01*
X116140785Y-75115463D01*
X116140545Y-75103337D01*
X116140846Y-75088833D01*
X116141747Y-75074569D01*
X116143250Y-75060546D01*
X116145354Y-75046764D01*
X116148059Y-75033222D01*
X116151364Y-75019920D01*
X116155271Y-75006859D01*
X116159779Y-74994038D01*
X116164888Y-74981457D01*
X116170599Y-74969117D01*
X116176910Y-74957018D01*
X116183822Y-74945159D01*
X116191335Y-74933540D01*
X116199450Y-74922162D01*
X116208165Y-74911024D01*
X116217482Y-74900126D01*
X116036009Y-74900126D01*
X116029029Y-74912949D01*
X116022500Y-74925955D01*
X116016420Y-74939144D01*
X116010791Y-74952517D01*
X116005612Y-74966072D01*
X116000884Y-74979811D01*
X115996606Y-74993733D01*
X115992778Y-75007838D01*
X115989401Y-75022126D01*
X115986474Y-75036597D01*
X115983997Y-75051252D01*
X115981971Y-75066090D01*
X115980394Y-75081110D01*
X115979269Y-75096315D01*
X115978593Y-75111702D01*
X115978368Y-75127272D01*
G37*
G36*
X116402781Y-73991219D02*
G01*
X116416887Y-73991711D01*
X116430770Y-73992532D01*
X116444429Y-73993680D01*
X116457865Y-73995157D01*
X116471078Y-73996962D01*
X116484068Y-73999096D01*
X116496834Y-74001557D01*
X116509378Y-74004347D01*
X116521698Y-74007465D01*
X116533794Y-74010911D01*
X116545668Y-74014685D01*
X116557318Y-74018788D01*
X116568745Y-74023218D01*
X116579949Y-74027977D01*
X116590929Y-74033064D01*
X116601649Y-74038451D01*
X116612071Y-74044109D01*
X116622196Y-74050037D01*
X116632023Y-74056237D01*
X116641552Y-74062707D01*
X116650784Y-74069449D01*
X116659718Y-74076461D01*
X116668354Y-74083745D01*
X116676693Y-74091299D01*
X116684734Y-74099124D01*
X116692477Y-74107221D01*
X116699922Y-74115588D01*
X116707070Y-74124226D01*
X116713921Y-74133135D01*
X116720473Y-74142315D01*
X116726728Y-74151766D01*
X116732643Y-74161433D01*
X116738177Y-74171321D01*
X116743329Y-74181430D01*
X116748099Y-74191761D01*
X116752488Y-74202313D01*
X116756495Y-74213087D01*
X116760121Y-74224081D01*
X116763364Y-74235297D01*
X116766227Y-74246735D01*
X116768707Y-74258394D01*
X116770806Y-74270274D01*
X116772524Y-74282375D01*
X116773859Y-74294698D01*
X116774813Y-74307242D01*
X116775386Y-74320008D01*
X116775577Y-74332995D01*
X116775380Y-74348704D01*
X116774790Y-74364082D01*
X116773808Y-74379128D01*
X116772432Y-74393842D01*
X116770663Y-74408223D01*
X116768501Y-74422273D01*
X116765946Y-74435991D01*
X116762998Y-74449376D01*
X116759657Y-74462430D01*
X116755923Y-74475152D01*
X116751795Y-74487541D01*
X116747275Y-74499599D01*
X116742361Y-74511324D01*
X116737055Y-74522718D01*
X116731355Y-74533779D01*
X116725263Y-74544509D01*
X116718845Y-74554879D01*
X116712112Y-74564922D01*
X116705061Y-74574640D01*
X116697694Y-74584030D01*
X116690010Y-74593095D01*
X116682009Y-74601833D01*
X116673691Y-74610246D01*
X116665057Y-74618331D01*
X116656106Y-74626091D01*
X116646838Y-74633524D01*
X116637253Y-74640631D01*
X116627352Y-74647411D01*
X116617134Y-74653866D01*
X116606599Y-74659994D01*
X116595747Y-74665796D01*
X116584579Y-74671271D01*
X116573161Y-74676388D01*
X116561502Y-74681174D01*
X116549600Y-74685631D01*
X116537455Y-74689757D01*
X116525068Y-74693553D01*
X116512439Y-74697019D01*
X116499568Y-74700156D01*
X116486454Y-74702961D01*
X116473098Y-74705437D01*
X116459500Y-74707583D01*
X116445659Y-74709399D01*
X116431576Y-74710884D01*
X116417250Y-74712039D01*
X116402683Y-74712865D01*
X116387873Y-74713360D01*
X116372820Y-74713525D01*
X116360925Y-74713425D01*
X116349207Y-74713123D01*
X116337665Y-74712621D01*
X116326300Y-74711918D01*
X116315111Y-74711015D01*
X116304098Y-74709910D01*
X116293262Y-74708605D01*
X116282603Y-74707098D01*
X116272120Y-74705391D01*
X116261814Y-74703483D01*
X116251684Y-74701375D01*
X116241730Y-74699065D01*
X116231954Y-74696555D01*
X116222353Y-74693843D01*
X116203682Y-74687818D01*
X116185717Y-74680990D01*
X116168458Y-74673358D01*
X116151904Y-74664923D01*
X116136057Y-74655685D01*
X116120916Y-74645644D01*
X116106481Y-74634799D01*
X116092752Y-74623150D01*
X116079729Y-74610699D01*
X116073493Y-74604180D01*
X116061614Y-74590586D01*
X116050528Y-74576252D01*
X116040234Y-74561178D01*
X116030731Y-74545363D01*
X116022020Y-74528808D01*
X116014102Y-74511512D01*
X116006975Y-74493476D01*
X116003708Y-74484181D01*
X116000640Y-74474700D01*
X115997769Y-74465035D01*
X115995096Y-74455184D01*
X115992622Y-74445148D01*
X115990345Y-74434927D01*
X115988266Y-74424521D01*
X115986386Y-74413930D01*
X115984703Y-74403153D01*
X115983218Y-74392192D01*
X115981931Y-74381046D01*
X115980843Y-74369714D01*
X115979952Y-74358197D01*
X115979259Y-74346496D01*
X115978764Y-74334609D01*
X115978467Y-74322537D01*
X115978368Y-74310280D01*
X115978595Y-74291871D01*
X115979276Y-74273525D01*
X115980412Y-74255242D01*
X115982001Y-74237022D01*
X115984045Y-74218865D01*
X115986542Y-74200771D01*
X115989494Y-74182740D01*
X115992900Y-74164772D01*
X115996761Y-74146867D01*
X116001075Y-74129025D01*
X116005843Y-74111246D01*
X116011066Y-74093530D01*
X116016743Y-74075877D01*
X116022874Y-74058286D01*
X116029459Y-74040759D01*
X116036498Y-74023295D01*
X116216749Y-74023295D01*
X116212061Y-74032039D01*
X116207521Y-74040779D01*
X116198889Y-74058244D01*
X116190852Y-74075690D01*
X116183410Y-74093118D01*
X116176563Y-74110526D01*
X116170312Y-74127915D01*
X116164657Y-74145284D01*
X116159596Y-74162635D01*
X116155131Y-74179967D01*
X116151261Y-74197280D01*
X116147987Y-74214573D01*
X116145308Y-74231848D01*
X116143224Y-74249103D01*
X116141736Y-74266339D01*
X116140843Y-74283556D01*
X116140545Y-74300755D01*
X116140707Y-74313617D01*
X116141194Y-74326072D01*
X116142005Y-74338118D01*
X116143140Y-74349756D01*
X116144600Y-74360985D01*
X116146384Y-74371806D01*
X116148493Y-74382219D01*
X116150926Y-74392223D01*
X116156764Y-74411007D01*
X116163901Y-74428158D01*
X116172335Y-74443675D01*
X116182066Y-74457558D01*
X116193096Y-74469809D01*
X116205422Y-74480426D01*
X116219046Y-74489409D01*
X116233968Y-74496759D01*
X116250187Y-74502476D01*
X116267704Y-74506560D01*
X116286518Y-74509010D01*
X116296412Y-74509622D01*
X116306630Y-74509826D01*
X116306630Y-74192799D01*
X116462946Y-74192799D01*
X116462946Y-74507872D01*
X116471853Y-74506793D01*
X116484727Y-74504678D01*
X116497018Y-74501965D01*
X116508724Y-74498655D01*
X116519847Y-74494749D01*
X116530385Y-74490246D01*
X116540340Y-74485146D01*
X116549711Y-74479450D01*
X116558498Y-74473157D01*
X116566701Y-74466267D01*
X116574321Y-74458780D01*
X116579053Y-74453434D01*
X116585579Y-74444947D01*
X116591418Y-74435897D01*
X116596570Y-74426285D01*
X116601035Y-74416111D01*
X116604813Y-74405374D01*
X116607904Y-74394074D01*
X116610308Y-74382213D01*
X116612025Y-74369788D01*
X116613056Y-74356802D01*
X116613399Y-74343253D01*
X116613251Y-74334317D01*
X116612469Y-74321407D01*
X116611018Y-74309089D01*
X116608897Y-74297364D01*
X116606106Y-74286232D01*
X116602646Y-74275692D01*
X116598516Y-74265744D01*
X116593716Y-74256389D01*
X116588246Y-74247626D01*
X116582107Y-74239456D01*
X116575297Y-74231878D01*
X116570394Y-74227146D01*
X116562508Y-74220620D01*
X116553987Y-74214781D01*
X116544831Y-74209629D01*
X116535039Y-74205164D01*
X116524612Y-74201386D01*
X116513550Y-74198295D01*
X116501852Y-74195890D01*
X116489519Y-74194173D01*
X116476550Y-74193143D01*
X116462946Y-74192799D01*
X116306630Y-74192799D01*
X116306630Y-73991055D01*
X116388452Y-73991055D01*
X116402781Y-73991219D01*
G37*
G36*
X113708050Y-78044752D02*
G01*
X113708050Y-77843008D01*
X113317261Y-77843008D01*
X113317261Y-77590705D01*
X113708050Y-77590705D01*
X113708050Y-77388960D01*
X112692000Y-77388960D01*
X112692000Y-77590705D01*
X113145314Y-77590705D01*
X113145314Y-77843008D01*
X112692000Y-77843008D01*
X112692000Y-78044752D01*
X113708050Y-78044752D01*
G37*
G36*
X113093498Y-76520356D02*
G01*
X113108346Y-76520856D01*
X113122936Y-76521691D01*
X113137269Y-76522860D01*
X113151345Y-76524363D01*
X113165163Y-76526199D01*
X113178723Y-76528370D01*
X113192026Y-76530874D01*
X113205071Y-76533713D01*
X113217858Y-76536885D01*
X113230388Y-76540391D01*
X113242660Y-76544231D01*
X113254675Y-76548405D01*
X113266432Y-76552913D01*
X113277931Y-76557755D01*
X113289173Y-76562931D01*
X113300125Y-76568414D01*
X113310754Y-76574178D01*
X113321061Y-76580222D01*
X113331046Y-76586546D01*
X113340708Y-76593151D01*
X113350047Y-76600037D01*
X113359064Y-76607203D01*
X113367758Y-76614650D01*
X113376130Y-76622377D01*
X113384180Y-76630384D01*
X113391907Y-76638672D01*
X113399312Y-76647241D01*
X113406394Y-76656090D01*
X113413153Y-76665219D01*
X113419590Y-76674629D01*
X113425705Y-76684320D01*
X113431502Y-76694268D01*
X113436925Y-76704451D01*
X113441974Y-76714868D01*
X113446649Y-76725521D01*
X113450950Y-76736407D01*
X113454877Y-76747529D01*
X113458430Y-76758885D01*
X113461609Y-76770476D01*
X113464414Y-76782302D01*
X113466845Y-76794363D01*
X113468902Y-76806658D01*
X113470585Y-76819188D01*
X113471894Y-76831952D01*
X113472829Y-76844951D01*
X113473390Y-76858185D01*
X113473577Y-76871654D01*
X113473386Y-76885307D01*
X113472813Y-76898727D01*
X113471859Y-76911914D01*
X113470524Y-76924869D01*
X113468806Y-76937590D01*
X113466707Y-76950079D01*
X113464227Y-76962335D01*
X113461364Y-76974358D01*
X113458121Y-76986149D01*
X113454495Y-76997706D01*
X113450488Y-77009031D01*
X113446099Y-77020123D01*
X113441329Y-77030982D01*
X113436177Y-77041609D01*
X113430643Y-77052003D01*
X113424728Y-77062164D01*
X113418462Y-77072034D01*
X113411875Y-77081619D01*
X113404967Y-77090917D01*
X113397739Y-77099930D01*
X113390191Y-77108656D01*
X113382321Y-77117095D01*
X113374132Y-77125249D01*
X113365621Y-77133116D01*
X113356790Y-77140697D01*
X113347639Y-77147992D01*
X113338167Y-77155001D01*
X113328374Y-77161723D01*
X113318261Y-77168159D01*
X113307827Y-77174309D01*
X113297073Y-77180173D01*
X113285998Y-77185750D01*
X113274667Y-77191015D01*
X113263081Y-77195940D01*
X113251242Y-77200525D01*
X113239149Y-77204771D01*
X113226803Y-77208677D01*
X113214202Y-77212243D01*
X113201348Y-77215470D01*
X113188240Y-77218357D01*
X113174878Y-77220904D01*
X113161263Y-77223112D01*
X113147393Y-77224980D01*
X113133270Y-77226508D01*
X113118893Y-77227697D01*
X113104262Y-77228546D01*
X113089378Y-77229056D01*
X113074240Y-77229226D01*
X113059131Y-77229058D01*
X113044274Y-77228554D01*
X113029669Y-77227714D01*
X113015316Y-77226539D01*
X113001215Y-77225028D01*
X112987365Y-77223181D01*
X112973768Y-77220998D01*
X112960422Y-77218479D01*
X112947329Y-77215624D01*
X112934487Y-77212434D01*
X112921897Y-77208908D01*
X112909559Y-77205046D01*
X112897473Y-77200848D01*
X112885638Y-77196314D01*
X112874056Y-77191444D01*
X112862725Y-77186239D01*
X112851710Y-77180693D01*
X112841014Y-77174863D01*
X112830637Y-77168748D01*
X112820578Y-77162349D01*
X112810838Y-77155666D01*
X112801416Y-77148698D01*
X112792314Y-77141446D01*
X112783530Y-77133910D01*
X112775064Y-77126089D01*
X112766917Y-77117984D01*
X112759089Y-77109595D01*
X112751579Y-77100922D01*
X112744389Y-77091964D01*
X112737516Y-77082722D01*
X112730963Y-77073195D01*
X112724728Y-77063385D01*
X112718872Y-77053318D01*
X112713394Y-77043025D01*
X112708293Y-77032504D01*
X112703571Y-77021757D01*
X112699226Y-77010782D01*
X112695259Y-76999580D01*
X112691669Y-76988151D01*
X112688458Y-76976495D01*
X112685624Y-76964612D01*
X112683169Y-76952502D01*
X112681091Y-76940165D01*
X112679390Y-76927601D01*
X112678068Y-76914810D01*
X112677124Y-76901791D01*
X112676557Y-76888546D01*
X112676368Y-76875073D01*
X112676378Y-76874341D01*
X112838545Y-76874341D01*
X112838794Y-76883111D01*
X112840102Y-76895836D01*
X112842529Y-76908046D01*
X112846078Y-76919741D01*
X112850747Y-76930921D01*
X112856536Y-76941586D01*
X112863447Y-76951735D01*
X112871477Y-76961369D01*
X112880628Y-76970488D01*
X112890900Y-76979092D01*
X112902293Y-76987181D01*
X112906336Y-76989751D01*
X112918989Y-76996970D01*
X112927861Y-77001375D01*
X112937082Y-77005453D01*
X112946652Y-77009206D01*
X112956572Y-77012632D01*
X112966840Y-77015732D01*
X112977458Y-77018505D01*
X112988425Y-77020952D01*
X112999742Y-77023073D01*
X113011407Y-77024868D01*
X113023422Y-77026336D01*
X113035786Y-77027478D01*
X113048499Y-77028294D01*
X113061561Y-77028783D01*
X113074972Y-77028946D01*
X113081721Y-77028906D01*
X113094956Y-77028579D01*
X113107840Y-77027927D01*
X113120373Y-77026948D01*
X113132554Y-77025643D01*
X113144385Y-77024011D01*
X113155864Y-77022054D01*
X113166993Y-77019769D01*
X113177770Y-77017159D01*
X113188196Y-77014223D01*
X113198271Y-77010960D01*
X113207995Y-77007370D01*
X113217368Y-77003455D01*
X113226389Y-76999213D01*
X113235060Y-76994645D01*
X113247408Y-76987181D01*
X113255157Y-76981846D01*
X113265843Y-76973414D01*
X113275404Y-76964466D01*
X113283840Y-76955004D01*
X113291152Y-76945026D01*
X113297339Y-76934533D01*
X113302401Y-76923525D01*
X113306338Y-76912002D01*
X113309150Y-76899963D01*
X113310837Y-76887410D01*
X113311399Y-76874341D01*
X113311151Y-76865660D01*
X113309849Y-76853057D01*
X113307430Y-76840956D01*
X113303896Y-76829357D01*
X113299244Y-76818261D01*
X113293477Y-76807667D01*
X113286593Y-76797576D01*
X113278594Y-76787987D01*
X113269477Y-76778900D01*
X113259245Y-76770315D01*
X113247896Y-76762233D01*
X113243882Y-76759664D01*
X113231303Y-76752445D01*
X113222468Y-76748040D01*
X113213275Y-76743961D01*
X113203723Y-76740209D01*
X113193812Y-76736782D01*
X113183542Y-76733683D01*
X113172914Y-76730909D01*
X113161927Y-76728462D01*
X113150581Y-76726341D01*
X113138876Y-76724546D01*
X113126813Y-76723078D01*
X113114391Y-76721936D01*
X113101610Y-76721120D01*
X113088471Y-76720631D01*
X113074972Y-76720468D01*
X113068223Y-76720509D01*
X113054986Y-76720835D01*
X113042098Y-76721487D01*
X113029560Y-76722466D01*
X113017371Y-76723771D01*
X113005531Y-76725403D01*
X112994040Y-76727361D01*
X112982898Y-76729645D01*
X112972106Y-76732255D01*
X112961662Y-76735192D01*
X112951568Y-76738455D01*
X112941823Y-76742044D01*
X112932428Y-76745959D01*
X112923381Y-76750201D01*
X112914684Y-76754769D01*
X112902293Y-76762233D01*
X112894573Y-76767566D01*
X112883928Y-76775983D01*
X112874403Y-76784902D01*
X112865999Y-76794324D01*
X112858715Y-76804248D01*
X112852552Y-76814674D01*
X112847510Y-76825603D01*
X112843588Y-76837034D01*
X112840786Y-76848967D01*
X112839105Y-76861403D01*
X112838545Y-76874341D01*
X112676378Y-76874341D01*
X112676559Y-76861514D01*
X112677131Y-76848192D01*
X112678085Y-76835105D01*
X112679421Y-76822256D01*
X112681138Y-76809643D01*
X112683237Y-76797267D01*
X112685718Y-76785127D01*
X112688580Y-76773224D01*
X112691824Y-76761558D01*
X112695449Y-76750128D01*
X112699457Y-76738935D01*
X112703845Y-76727978D01*
X112708616Y-76717258D01*
X112713768Y-76706775D01*
X112719301Y-76696528D01*
X112725217Y-76686518D01*
X112731484Y-76676736D01*
X112738074Y-76667234D01*
X112744986Y-76658013D01*
X112752221Y-76649073D01*
X112759778Y-76640412D01*
X112767658Y-76632033D01*
X112775860Y-76623934D01*
X112784384Y-76616115D01*
X112793231Y-76608577D01*
X112802401Y-76601319D01*
X112811893Y-76594342D01*
X112821708Y-76587645D01*
X112831845Y-76581229D01*
X112842304Y-76575094D01*
X112853086Y-76569239D01*
X112864191Y-76563664D01*
X112875589Y-76558399D01*
X112887253Y-76553474D01*
X112899181Y-76548889D01*
X112911375Y-76544643D01*
X112923835Y-76540737D01*
X112936559Y-76537171D01*
X112949549Y-76533944D01*
X112962804Y-76531057D01*
X112976324Y-76528510D01*
X112990109Y-76526302D01*
X113004160Y-76524434D01*
X113018476Y-76522906D01*
X113033057Y-76521717D01*
X113047903Y-76520868D01*
X113063015Y-76520358D01*
X113078392Y-76520189D01*
X113093498Y-76520356D01*
G37*
G36*
X112676368Y-76037809D02*
G01*
X112676548Y-76054040D01*
X112677089Y-76070492D01*
X112677991Y-76087165D01*
X112679253Y-76104060D01*
X112680876Y-76121176D01*
X112682859Y-76138513D01*
X112685204Y-76156072D01*
X112687908Y-76173852D01*
X112690974Y-76191854D01*
X112694400Y-76210077D01*
X112698187Y-76228521D01*
X112702334Y-76247186D01*
X112706842Y-76266073D01*
X112709231Y-76275599D01*
X112711711Y-76285181D01*
X112714280Y-76294818D01*
X112716940Y-76304511D01*
X112719690Y-76314259D01*
X112722530Y-76324062D01*
X112893988Y-76324062D01*
X112884672Y-76307237D01*
X112875956Y-76290406D01*
X112867842Y-76273569D01*
X112860329Y-76256727D01*
X112853416Y-76239879D01*
X112847105Y-76223025D01*
X112841395Y-76206166D01*
X112836286Y-76189301D01*
X112831778Y-76172430D01*
X112827871Y-76155553D01*
X112824565Y-76138671D01*
X112821860Y-76121783D01*
X112819757Y-76104889D01*
X112818254Y-76087989D01*
X112817352Y-76071084D01*
X112817052Y-76054173D01*
X112817377Y-76037108D01*
X112818353Y-76021143D01*
X112819980Y-76006280D01*
X112822257Y-75992517D01*
X112825185Y-75979856D01*
X112828764Y-75968295D01*
X112832993Y-75957836D01*
X112837874Y-75948477D01*
X112843404Y-75940220D01*
X112852920Y-75929898D01*
X112863901Y-75922053D01*
X112876345Y-75916686D01*
X112890253Y-75913796D01*
X112900339Y-75913245D01*
X112911442Y-75914062D01*
X112921853Y-75916513D01*
X112931573Y-75920597D01*
X112940601Y-75926316D01*
X112948937Y-75933668D01*
X112956581Y-75942654D01*
X112959445Y-75946706D01*
X112964979Y-75955812D01*
X112970345Y-75966399D01*
X112975543Y-75978466D01*
X112979331Y-75988488D01*
X112983024Y-75999343D01*
X112986624Y-76011031D01*
X112990128Y-76023551D01*
X112993539Y-76036905D01*
X112996855Y-76051092D01*
X112999013Y-76061012D01*
X113011469Y-76116211D01*
X113014647Y-76129765D01*
X113018074Y-76142889D01*
X113021751Y-76155582D01*
X113025677Y-76167845D01*
X113029853Y-76179678D01*
X113034278Y-76191081D01*
X113038953Y-76202053D01*
X113043877Y-76212595D01*
X113049051Y-76222707D01*
X113054474Y-76232389D01*
X113060147Y-76241640D01*
X113066069Y-76250461D01*
X113072241Y-76258851D01*
X113078662Y-76266811D01*
X113085332Y-76274342D01*
X113092252Y-76281441D01*
X113099422Y-76288111D01*
X113114510Y-76300159D01*
X113130595Y-76310486D01*
X113147679Y-76319091D01*
X113165761Y-76325976D01*
X113175176Y-76328773D01*
X113184840Y-76331139D01*
X113194754Y-76333076D01*
X113204918Y-76334582D01*
X113215331Y-76335657D01*
X113225993Y-76336303D01*
X113236905Y-76336518D01*
X113250869Y-76336199D01*
X113264428Y-76335243D01*
X113277583Y-76333650D01*
X113290333Y-76331419D01*
X113302679Y-76328552D01*
X113314620Y-76325046D01*
X113326157Y-76320904D01*
X113337289Y-76316124D01*
X113348017Y-76310707D01*
X113358340Y-76304652D01*
X113368258Y-76297960D01*
X113377772Y-76290631D01*
X113386882Y-76282664D01*
X113395587Y-76274061D01*
X113403887Y-76264819D01*
X113411783Y-76254941D01*
X113419266Y-76244426D01*
X113426266Y-76233337D01*
X113432783Y-76221673D01*
X113438818Y-76209435D01*
X113444370Y-76196623D01*
X113449439Y-76183237D01*
X113454025Y-76169276D01*
X113458128Y-76154740D01*
X113461749Y-76139631D01*
X113464887Y-76123947D01*
X113467542Y-76107688D01*
X113469715Y-76090856D01*
X113471404Y-76073448D01*
X113472611Y-76055467D01*
X113473335Y-76036911D01*
X113473577Y-76017781D01*
X113473486Y-76006524D01*
X113473216Y-75995284D01*
X113472765Y-75984061D01*
X113472134Y-75972856D01*
X113471323Y-75961667D01*
X113470331Y-75950496D01*
X113469159Y-75939342D01*
X113467806Y-75928205D01*
X113466274Y-75917085D01*
X113464561Y-75905983D01*
X113463318Y-75898591D01*
X113461292Y-75887474D01*
X113459059Y-75876288D01*
X113456621Y-75865034D01*
X113453976Y-75853711D01*
X113451125Y-75842319D01*
X113448068Y-75830859D01*
X113444806Y-75819330D01*
X113441337Y-75807732D01*
X113437661Y-75796066D01*
X113433780Y-75784331D01*
X113431078Y-75776469D01*
X113256445Y-75776469D01*
X113263762Y-75787733D01*
X113270693Y-75798903D01*
X113277237Y-75809979D01*
X113283395Y-75820960D01*
X113289167Y-75831846D01*
X113294552Y-75842638D01*
X113299551Y-75853336D01*
X113304164Y-75863939D01*
X113308390Y-75874447D01*
X113312229Y-75884861D01*
X113314575Y-75891752D01*
X113317848Y-75902084D01*
X113320800Y-75912471D01*
X113323430Y-75922915D01*
X113325737Y-75933414D01*
X113327723Y-75943969D01*
X113329387Y-75954580D01*
X113330728Y-75965247D01*
X113331748Y-75975970D01*
X113332446Y-75986748D01*
X113332821Y-75997582D01*
X113332893Y-76004836D01*
X113332719Y-76017382D01*
X113332197Y-76029374D01*
X113331328Y-76040812D01*
X113330111Y-76051697D01*
X113328546Y-76062027D01*
X113326633Y-76071804D01*
X113323542Y-76083978D01*
X113319832Y-76095167D01*
X113315505Y-76105372D01*
X113313109Y-76110105D01*
X113307949Y-76118749D01*
X113300899Y-76127933D01*
X113293180Y-76135316D01*
X113284794Y-76140899D01*
X113275740Y-76144681D01*
X113266018Y-76146661D01*
X113259864Y-76146986D01*
X113248707Y-76145775D01*
X113238134Y-76142143D01*
X113228145Y-76136089D01*
X113220267Y-76129195D01*
X113212794Y-76120619D01*
X113207108Y-76112547D01*
X113201624Y-76103266D01*
X113196285Y-76092642D01*
X113191091Y-76080674D01*
X113187290Y-76070816D01*
X113183572Y-76060203D01*
X113179934Y-76048834D01*
X113176379Y-76036710D01*
X113172905Y-76023830D01*
X113169512Y-76010194D01*
X113167296Y-76000684D01*
X113151665Y-75935716D01*
X113148277Y-75922296D01*
X113144646Y-75909333D01*
X113140774Y-75896827D01*
X113136659Y-75884776D01*
X113132302Y-75873181D01*
X113127702Y-75862042D01*
X113122860Y-75851359D01*
X113117776Y-75841132D01*
X113112449Y-75831362D01*
X113106880Y-75822047D01*
X113101069Y-75813189D01*
X113095015Y-75804786D01*
X113088720Y-75796840D01*
X113082181Y-75789349D01*
X113075401Y-75782315D01*
X113068378Y-75775736D01*
X113057335Y-75766614D01*
X113045640Y-75758389D01*
X113033293Y-75751061D01*
X113020292Y-75744630D01*
X113011263Y-75740841D01*
X113001944Y-75737451D01*
X112992334Y-75734460D01*
X112982435Y-75731868D01*
X112972245Y-75729675D01*
X112961766Y-75727880D01*
X112950996Y-75726484D01*
X112939937Y-75725487D01*
X112928587Y-75724889D01*
X112916947Y-75724690D01*
X112902146Y-75724995D01*
X112887815Y-75725913D01*
X112873953Y-75727442D01*
X112860561Y-75729582D01*
X112847640Y-75732334D01*
X112835188Y-75735698D01*
X112823206Y-75739673D01*
X112811694Y-75744260D01*
X112800652Y-75749458D01*
X112790079Y-75755268D01*
X112779977Y-75761689D01*
X112770344Y-75768722D01*
X112761182Y-75776367D01*
X112752489Y-75784623D01*
X112744266Y-75793490D01*
X112736513Y-75802970D01*
X112729230Y-75813060D01*
X112722416Y-75823763D01*
X112716073Y-75835076D01*
X112710199Y-75847002D01*
X112704796Y-75859539D01*
X112699862Y-75872687D01*
X112695398Y-75886448D01*
X112691404Y-75900819D01*
X112687880Y-75915803D01*
X112684826Y-75931397D01*
X112682241Y-75947604D01*
X112680127Y-75964422D01*
X112678482Y-75981851D01*
X112677308Y-75999892D01*
X112676603Y-76018545D01*
X112676368Y-76037809D01*
G37*
G36*
X112692000Y-75046427D02*
G01*
X112692088Y-75060342D01*
X112692354Y-75073878D01*
X112692798Y-75087034D01*
X112693419Y-75099810D01*
X112694218Y-75112206D01*
X112695194Y-75124222D01*
X112696347Y-75135859D01*
X112697678Y-75147116D01*
X112699187Y-75157994D01*
X112700872Y-75168491D01*
X112702736Y-75178609D01*
X112704776Y-75188348D01*
X112708170Y-75202243D01*
X112711963Y-75215284D01*
X112714714Y-75223503D01*
X112719307Y-75235215D01*
X112724474Y-75246261D01*
X112730217Y-75256641D01*
X112736536Y-75266357D01*
X112743429Y-75275406D01*
X112750898Y-75283790D01*
X112758943Y-75291509D01*
X112767562Y-75298562D01*
X112776757Y-75304950D01*
X112786527Y-75310672D01*
X112793360Y-75314117D01*
X112804169Y-75318832D01*
X112815711Y-75323082D01*
X112827988Y-75326869D01*
X112840999Y-75330192D01*
X112854744Y-75333051D01*
X112869223Y-75335447D01*
X112879284Y-75336786D01*
X112889671Y-75337920D01*
X112900384Y-75338847D01*
X112911424Y-75339568D01*
X112922790Y-75340084D01*
X112934482Y-75340393D01*
X112946501Y-75340496D01*
X113295768Y-75340496D01*
X113295768Y-75535890D01*
X113457945Y-75535890D01*
X113457945Y-75340496D01*
X113666284Y-75340496D01*
X113754944Y-75140217D01*
X113457945Y-75140217D01*
X113457945Y-74878388D01*
X113295768Y-74878388D01*
X113295768Y-75140217D01*
X112946012Y-75140217D01*
X112934281Y-75139816D01*
X112923389Y-75138614D01*
X112913337Y-75136610D01*
X112901952Y-75132979D01*
X112891880Y-75128095D01*
X112883119Y-75121959D01*
X112875670Y-75114571D01*
X112869478Y-75105800D01*
X112864336Y-75095513D01*
X112860977Y-75086194D01*
X112858291Y-75075905D01*
X112856276Y-75064647D01*
X112854932Y-75052420D01*
X112854366Y-75042613D01*
X112854177Y-75032261D01*
X112854177Y-74878388D01*
X112692000Y-74878388D01*
X112692000Y-75046427D01*
G37*
D11*
%TO.C,J4*%
X126306000Y-75876000D02*
X126306000Y-73476000D01*
X126306000Y-73476000D02*
X122106000Y-73476000D01*
X122106000Y-75876000D02*
X126306000Y-75876000D01*
X122106000Y-73476000D02*
X122106000Y-75876000D01*
%TO.C,J3*%
X126306000Y-79432000D02*
X126306000Y-77032000D01*
X126306000Y-77032000D02*
X122106000Y-77032000D01*
X122106000Y-79432000D02*
X126306000Y-79432000D01*
X122106000Y-77032000D02*
X122106000Y-79432000D01*
%TD*%
M02*
