M48
; DRILL file {KiCad 7.0.10} date Mon Feb 12 03:45:48 2024
; FORMAT={-:-/ absolute / inch / decimal}
; #@! TF.CreationDate,2024-02-12T03:45:48-06:00
; #@! TF.GenerationSoftware,Kicad,Pcbnew,7.0.10
; #@! TF.FileFunction,Plated,1,4,PTH
FMAT,2
INCH
; #@! TA.AperFunction,Plated,PTH,ViaDrill
T1C0.0118
; #@! TA.AperFunction,Plated,PTH,ViaDrill
T2C0.0157
; #@! TA.AperFunction,Plated,PTH,ComponentDrill
T3C0.0236
; #@! TA.AperFunction,Plated,PTH,ComponentDrill
T4C0.0362
; #@! TA.AperFunction,Plated,PTH,ComponentDrill
T5C0.0394
; #@! TA.AperFunction,Plated,PTH,ComponentDrill
T6C0.0906
; #@! TA.AperFunction,Plated,PTH,ComponentDrill
T7C0.0984
%
G90
G05
T1
X4.675Y-3.905
X4.7084Y-3.8798
X4.915Y-4.13
X5.185Y-3.985
X5.1914Y-3.915
X5.275Y-3.745
X5.3252Y-3.755
X5.3252Y-3.905
X5.3552Y-3.755
X5.3552Y-3.905
X5.3852Y-3.755
X5.3852Y-3.905
X5.3952Y-3.805
X5.4102Y-3.775
X5.4102Y-3.885
X5.4202Y-3.855
X5.4352Y-3.755
X5.4352Y-3.905
X5.4652Y-3.755
X5.4652Y-3.905
X5.4952Y-3.755
X5.4952Y-3.905
X5.52Y-3.8
T2
X3.565Y-4.52
X3.565Y-4.835
X3.58Y-3.61
X3.645Y-4.565
X3.645Y-4.88
X3.65Y-4.67
X3.7036Y-3.7779
X3.705Y-4.615
X3.705Y-4.93
X3.73Y-3.92
X3.805Y-4.88
X3.81Y-2.73
X3.835Y-3.7084
X3.835Y-3.83
X3.84Y-4.1
X3.85Y-4.58
X3.86Y-4.21
X3.865Y-3.395
X3.875Y-3.805
X3.88Y-2.5
X3.8806Y-2.4506
X3.9Y-3.0
X3.9Y-3.62
X3.91Y-3.775
X3.9325Y-3.8224
X3.94Y-3.09
X3.94Y-4.465
X3.99Y-3.83
X4.005Y-4.275
X4.005Y-4.58
X4.01Y-3.21
X4.04Y-3.64
X4.06Y-3.05
X4.08Y-3.54
X4.0813Y-2.8435
X4.0903Y-3.4702
X4.095Y-4.465
X4.1Y-3.05
X4.1Y-4.055
X4.115Y-4.635
X4.135Y-3.955
X4.135Y-4.6
X4.1426Y-4.71
X4.147Y-4.6645
X4.16Y-4.275
X4.17Y-4.485
X4.17Y-4.54
X4.17Y-4.58
X4.1757Y-4.7313
X4.1983Y-2.9583
X4.2056Y-4.6956
X4.21Y-3.67
X4.21Y-4.7656
X4.21Y-4.805
X4.25Y-2.69
X4.26Y-2.485
X4.26Y-3.09
X4.2696Y-3.4072
X4.27Y-2.78
X4.2721Y-3.3658
X4.2747Y-4.5429
X4.2775Y-3.1466
X4.28Y-2.45
X4.28Y-3.965
X4.2804Y-2.8199
X4.285Y-4.8981
X4.29Y-3.3051
X4.2924Y-3.1852
X4.3Y-4.005
X4.31Y-3.2676
X4.32Y-2.99
X4.3269Y-3.47
X4.3351Y-3.7121
X4.3416Y-4.085
X4.35Y-3.04
X4.3724Y-3.2124
X4.38Y-3.45
X4.38Y-4.635
X4.38Y-4.715
X4.3969Y-3.33
X4.3976Y-2.765
X4.4Y-4.855
X4.41Y-2.4
X4.415Y-2.515
X4.435Y-4.875
X4.4362Y-3.7062
X4.45Y-2.535
X4.45Y-3.03
X4.45Y-3.23
X4.46Y-4.635
X4.46Y-4.715
X4.47Y-3.45
X4.4853Y-2.555
X4.495Y-4.295
X4.51Y-4.3776
X4.515Y-2.985
X4.52Y-2.575
X4.5261Y-3.4761
X4.53Y-3.29
X4.55Y-3.73
X4.555Y-2.595
X4.56Y-4.97
X4.57Y-4.38
X4.57Y-4.5076
X4.58Y-3.29
X4.5867Y-2.821
X4.59Y-2.615
X4.605Y-4.685
X4.625Y-2.635
X4.63Y-2.975
X4.64Y-3.46
X4.64Y-4.155
X4.645Y-4.655
X4.645Y-4.71
X4.65Y-2.701
X4.6595Y-2.4712
X4.665Y-2.79
X4.665Y-4.05
X4.67Y-2.98
X4.67Y-3.21
X4.675Y-2.435
X4.68Y-3.0755
X4.68Y-3.125
X4.6937Y-3.27
X4.7019Y-3.1675
X4.704Y-4.4494
X4.74Y-3.0
X4.74Y-3.0755
X4.7477Y-3.34
X4.7491Y-3.2901
X4.75Y-2.845
X4.775Y-4.565
X4.785Y-4.485
X4.8Y-4.05
X4.8084Y-2.4
X4.825Y-4.175
X4.825Y-4.65
X4.84Y-3.84
X4.86Y-3.43
X4.8602Y-3.3114
X4.885Y-4.43
X4.9368Y-2.7508
X4.94Y-3.71
X4.9401Y-4.1551
X4.96Y-3.58
X4.965Y-2.97
X4.965Y-3.08
X4.9652Y-2.785
X4.9658Y-3.025
X4.975Y-4.69
X4.99Y-3.9
X4.99Y-4.16
X4.9929Y-2.8154
X4.995Y-4.435
X5.0Y-3.14
X5.02Y-2.85
X5.045Y-3.42
X5.05Y-3.58
X5.065Y-4.68
X5.07Y-3.67
X5.08Y-4.89
X5.1Y-3.13
X5.105Y-2.62
X5.105Y-4.68
X5.1289Y-4.7555
X5.165Y-3.265
X5.175Y-3.33
X5.175Y-3.39
X5.19Y-4.6483
X5.2019Y-3.74
X5.225Y-4.455
X5.33Y-4.14
T4
X5.3467Y-4.3872
X5.3467Y-4.4856
X5.3467Y-4.5644
X5.3467Y-4.6628
T5
X3.5398Y-3.9304
X3.5398Y-4.0304
X3.5398Y-4.1304
X3.5398Y-4.2304
X3.625Y-2.45
X3.625Y-2.55
X3.625Y-2.65
X3.625Y-2.75
X3.625Y-2.85
X3.625Y-2.95
X3.625Y-3.05
X3.625Y-3.15
X3.6398Y-3.9304
X3.6398Y-4.0304
X3.6398Y-4.1304
X3.6398Y-4.2304
X3.725Y-2.45
X3.725Y-2.55
X3.725Y-2.65
X3.725Y-2.75
X3.725Y-2.85
X3.725Y-2.95
X3.725Y-3.05
X3.725Y-3.15
X3.905Y-4.7052
X3.905Y-4.8052
X4.06Y-4.7069
X4.06Y-4.8069
X4.125Y-2.0
X4.125Y-2.1
X4.125Y-2.2
X4.27Y-5.04
X4.27Y-5.14
X4.37Y-5.04
X4.37Y-5.14
X4.375Y-2.0006
X4.375Y-2.1006
X4.375Y-2.2006
X4.47Y-5.04
X4.47Y-5.14
X4.57Y-5.04
X4.57Y-5.14
X4.625Y-2.0006
X4.625Y-2.1006
X4.625Y-2.2006
X4.67Y-5.04
X4.67Y-5.14
X4.77Y-5.04
X4.77Y-5.14
X4.875Y-2.0
X4.875Y-2.1
X4.875Y-2.2
X5.19Y-4.1648
X5.19Y-4.2648
X5.275Y-2.45
X5.275Y-2.55
X5.275Y-2.65
X5.275Y-2.75
X5.275Y-2.85
X5.275Y-2.95
X5.275Y-3.05
X5.275Y-3.15
X5.375Y-2.45
X5.375Y-2.55
X5.375Y-2.65
X5.375Y-2.75
X5.375Y-2.85
X5.375Y-2.95
X5.375Y-3.05
X5.375Y-3.15
T6
X5.4533Y-4.2663
X5.4533Y-4.7837
T7
X3.875Y-2.025
X5.125Y-2.025
T3
G00X5.3539Y-3.6824
M15
G01X5.3539Y-3.6627
M16
G05
G00X5.3539Y-3.9973
M15
G01X5.3539Y-3.9776
M16
G05
G00X5.4665Y-3.6824
M15
G01X5.4665Y-3.6627
M16
G05
G00X5.4665Y-3.9973
M15
G01X5.4665Y-3.9776
M16
G05
M30
