%TF.GenerationSoftware,KiCad,Pcbnew,7.0.10*%
%TF.CreationDate,2024-02-11T20:06:44-06:00*%
%TF.ProjectId,HUB75-FPGA-Card,48554237-352d-4465-9047-412d43617264,rev?*%
%TF.SameCoordinates,Original*%
%TF.FileFunction,Paste,Top*%
%TF.FilePolarity,Positive*%
%FSLAX46Y46*%
G04 Gerber Fmt 4.6, Leading zero omitted, Abs format (unit mm)*
G04 Created by KiCad (PCBNEW 7.0.10) date 2024-02-11 20:06:44*
%MOMM*%
%LPD*%
G01*
G04 APERTURE LIST*
G04 Aperture macros list*
%AMRoundRect*
0 Rectangle with rounded corners*
0 $1 Rounding radius*
0 $2 $3 $4 $5 $6 $7 $8 $9 X,Y pos of 4 corners*
0 Add a 4 corners polygon primitive as box body*
4,1,4,$2,$3,$4,$5,$6,$7,$8,$9,$2,$3,0*
0 Add four circle primitives for the rounded corners*
1,1,$1+$1,$2,$3*
1,1,$1+$1,$4,$5*
1,1,$1+$1,$6,$7*
1,1,$1+$1,$8,$9*
0 Add four rect primitives between the rounded corners*
20,1,$1+$1,$2,$3,$4,$5,0*
20,1,$1+$1,$4,$5,$6,$7,0*
20,1,$1+$1,$6,$7,$8,$9,0*
20,1,$1+$1,$8,$9,$2,$3,0*%
G04 Aperture macros list end*
%ADD10RoundRect,0.225000X-0.250000X0.225000X-0.250000X-0.225000X0.250000X-0.225000X0.250000X0.225000X0*%
%ADD11RoundRect,0.200000X0.275000X-0.200000X0.275000X0.200000X-0.275000X0.200000X-0.275000X-0.200000X0*%
%ADD12RoundRect,0.200000X-0.200000X-0.275000X0.200000X-0.275000X0.200000X0.275000X-0.200000X0.275000X0*%
%ADD13RoundRect,0.150000X-0.150000X0.587500X-0.150000X-0.587500X0.150000X-0.587500X0.150000X0.587500X0*%
%ADD14RoundRect,0.200000X-0.275000X0.200000X-0.275000X-0.200000X0.275000X-0.200000X0.275000X0.200000X0*%
%ADD15RoundRect,0.225000X0.250000X-0.225000X0.250000X0.225000X-0.250000X0.225000X-0.250000X-0.225000X0*%
%ADD16RoundRect,0.150000X-0.512500X-0.150000X0.512500X-0.150000X0.512500X0.150000X-0.512500X0.150000X0*%
%ADD17C,0.800000*%
%ADD18RoundRect,0.225000X-0.225000X-0.250000X0.225000X-0.250000X0.225000X0.250000X-0.225000X0.250000X0*%
%ADD19RoundRect,0.225000X0.225000X0.250000X-0.225000X0.250000X-0.225000X-0.250000X0.225000X-0.250000X0*%
%ADD20R,2.000000X1.500000*%
%ADD21R,2.000000X3.800000*%
%ADD22RoundRect,0.200000X0.200000X0.275000X-0.200000X0.275000X-0.200000X-0.275000X0.200000X-0.275000X0*%
%ADD23RoundRect,0.100000X0.100000X-0.637500X0.100000X0.637500X-0.100000X0.637500X-0.100000X-0.637500X0*%
%ADD24RoundRect,0.150000X0.625000X-0.150000X0.625000X0.150000X-0.625000X0.150000X-0.625000X-0.150000X0*%
%ADD25RoundRect,0.250000X0.650000X-0.350000X0.650000X0.350000X-0.650000X0.350000X-0.650000X-0.350000X0*%
%ADD26R,1.000000X0.750000*%
%ADD27R,1.200000X1.400000*%
%ADD28RoundRect,0.249999X-0.395001X-0.395001X0.395001X-0.395001X0.395001X0.395001X-0.395001X0.395001X0*%
%ADD29RoundRect,0.050000X-0.387500X-0.050000X0.387500X-0.050000X0.387500X0.050000X-0.387500X0.050000X0*%
%ADD30RoundRect,0.050000X-0.050000X-0.387500X0.050000X-0.387500X0.050000X0.387500X-0.050000X0.387500X0*%
%ADD31RoundRect,0.218750X0.218750X0.256250X-0.218750X0.256250X-0.218750X-0.256250X0.218750X-0.256250X0*%
%ADD32RoundRect,0.075000X-0.662500X-0.075000X0.662500X-0.075000X0.662500X0.075000X-0.662500X0.075000X0*%
%ADD33RoundRect,0.075000X-0.075000X-0.662500X0.075000X-0.662500X0.075000X0.662500X-0.075000X0.662500X0*%
%ADD34RoundRect,0.150000X-0.650000X-0.150000X0.650000X-0.150000X0.650000X0.150000X-0.650000X0.150000X0*%
%ADD35RoundRect,0.200000X0.200000X0.250000X-0.200000X0.250000X-0.200000X-0.250000X0.200000X-0.250000X0*%
%ADD36R,1.150000X0.300000*%
%ADD37RoundRect,0.075000X0.075000X-0.662500X0.075000X0.662500X-0.075000X0.662500X-0.075000X-0.662500X0*%
%ADD38RoundRect,0.075000X0.662500X-0.075000X0.662500X0.075000X-0.662500X0.075000X-0.662500X-0.075000X0*%
%ADD39R,0.400000X1.200000*%
%ADD40RoundRect,0.150000X0.150000X-0.512500X0.150000X0.512500X-0.150000X0.512500X-0.150000X-0.512500X0*%
G04 APERTURE END LIST*
D10*
%TO.C,C30*%
X96774000Y-100825000D03*
X96774000Y-102375000D03*
%TD*%
D11*
%TO.C,R22*%
X98933000Y-111569000D03*
X98933000Y-109919000D03*
%TD*%
D12*
%TO.C,R16*%
X97473000Y-88646000D03*
X99123000Y-88646000D03*
%TD*%
D13*
%TO.C,Q2*%
X104074000Y-114803000D03*
X102174000Y-114803000D03*
X103124000Y-116678000D03*
%TD*%
D14*
%TO.C,R12*%
X117531800Y-97764200D03*
X117531800Y-99414200D03*
%TD*%
D15*
%TO.C,C21*%
X113030000Y-72403000D03*
X113030000Y-70853000D03*
%TD*%
D11*
%TO.C,R13*%
X117531800Y-102462200D03*
X117531800Y-100812200D03*
%TD*%
D10*
%TO.C,C8*%
X120650000Y-91427000D03*
X120650000Y-92977000D03*
%TD*%
D16*
%TO.C,U7*%
X113600300Y-99163200D03*
X113600300Y-100113200D03*
X113600300Y-101063200D03*
X115875300Y-101063200D03*
X115875300Y-100113200D03*
X115875300Y-99163200D03*
%TD*%
D10*
%TO.C,C45*%
X132461000Y-100444000D03*
X132461000Y-101994000D03*
%TD*%
D17*
%TO.C,U10*%
X107530000Y-102402000D03*
X107530000Y-104862000D03*
X105830000Y-104862000D03*
X105830000Y-102402000D03*
%TD*%
D18*
%TO.C,C57*%
X117208000Y-120650000D03*
X118758000Y-120650000D03*
%TD*%
%TO.C,C2*%
X100637000Y-76962000D03*
X102187000Y-76962000D03*
%TD*%
%TO.C,C14*%
X123939000Y-81280000D03*
X125489000Y-81280000D03*
%TD*%
D10*
%TO.C,C12*%
X110490000Y-91427000D03*
X110490000Y-92977000D03*
%TD*%
D11*
%TO.C,R18*%
X133350000Y-124650000D03*
X133350000Y-123000000D03*
%TD*%
D15*
%TO.C,C16*%
X122301000Y-73673000D03*
X122301000Y-72123000D03*
%TD*%
D18*
%TO.C,C53*%
X117208000Y-113792000D03*
X118758000Y-113792000D03*
%TD*%
D15*
%TO.C,C15*%
X123825000Y-73673000D03*
X123825000Y-72123000D03*
%TD*%
D14*
%TO.C,FB5*%
X127139000Y-113884500D03*
X127139000Y-115534500D03*
%TD*%
D19*
%TO.C,C49*%
X132982000Y-117094000D03*
X131432000Y-117094000D03*
%TD*%
D20*
%TO.C,U1*%
X130658000Y-93232000D03*
X130658000Y-90932000D03*
D21*
X124358000Y-90932000D03*
D20*
X130658000Y-88632000D03*
%TD*%
D22*
%TO.C,R19*%
X136588000Y-124587000D03*
X134938000Y-124587000D03*
%TD*%
%TO.C,R9*%
X129095000Y-75184000D03*
X127445000Y-75184000D03*
%TD*%
D18*
%TO.C,C56*%
X117208000Y-116840000D03*
X118758000Y-116840000D03*
%TD*%
%TO.C,C33*%
X104635000Y-90678000D03*
X106185000Y-90678000D03*
%TD*%
D23*
%TO.C,U5*%
X111375000Y-68267500D03*
X112025000Y-68267500D03*
X112675000Y-68267500D03*
X113325000Y-68267500D03*
X113975000Y-68267500D03*
X114625000Y-68267500D03*
X115275000Y-68267500D03*
X115925000Y-68267500D03*
X116575000Y-68267500D03*
X117225000Y-68267500D03*
X117225000Y-62542500D03*
X116575000Y-62542500D03*
X115925000Y-62542500D03*
X115275000Y-62542500D03*
X114625000Y-62542500D03*
X113975000Y-62542500D03*
X113325000Y-62542500D03*
X112675000Y-62542500D03*
X112025000Y-62542500D03*
X111375000Y-62542500D03*
%TD*%
D19*
%TO.C,C42*%
X108471000Y-99314000D03*
X106921000Y-99314000D03*
%TD*%
D15*
%TO.C,C10*%
X109728000Y-72403000D03*
X109728000Y-70853000D03*
%TD*%
D18*
%TO.C,C22*%
X123939000Y-82804000D03*
X125489000Y-82804000D03*
%TD*%
D19*
%TO.C,C7*%
X104661000Y-81280000D03*
X103111000Y-81280000D03*
%TD*%
D15*
%TO.C,C39*%
X130187000Y-115484500D03*
X130187000Y-113934500D03*
%TD*%
%TO.C,C54*%
X113538000Y-112929000D03*
X113538000Y-111379000D03*
%TD*%
D24*
%TO.C,J17*%
X92130000Y-122785000D03*
X92130000Y-121785000D03*
X92130000Y-120785000D03*
X92130000Y-119785000D03*
D25*
X89605000Y-124085000D03*
X89605000Y-118485000D03*
%TD*%
D22*
%TO.C,R1*%
X96837000Y-106934000D03*
X95187000Y-106934000D03*
%TD*%
D11*
%TO.C,R21*%
X133989500Y-94170000D03*
X133989500Y-92520000D03*
%TD*%
D26*
%TO.C,SW1*%
X100759000Y-107853000D03*
X106759000Y-107853000D03*
X100759000Y-111603000D03*
X106759000Y-111603000D03*
%TD*%
D22*
%TO.C,R8*%
X129095000Y-73660000D03*
X127445000Y-73660000D03*
%TD*%
D24*
%TO.C,J16*%
X92130000Y-114784000D03*
X92130000Y-113784000D03*
X92130000Y-112784000D03*
X92130000Y-111784000D03*
D25*
X89605000Y-116084000D03*
X89605000Y-110484000D03*
%TD*%
D27*
%TO.C,Y1*%
X122389000Y-101514000D03*
X122389000Y-99314000D03*
X120689000Y-99314000D03*
X120689000Y-101514000D03*
%TD*%
D12*
%TO.C,R6*%
X92139000Y-94742000D03*
X93789000Y-94742000D03*
%TD*%
%TO.C,R5*%
X103061000Y-85852000D03*
X104711000Y-85852000D03*
%TD*%
D18*
%TO.C,C19*%
X123939000Y-79756000D03*
X125489000Y-79756000D03*
%TD*%
D15*
%TO.C,C18*%
X117348000Y-72403000D03*
X117348000Y-70853000D03*
%TD*%
D10*
%TO.C,C41*%
X109347000Y-102857000D03*
X109347000Y-104407000D03*
%TD*%
D23*
%TO.C,U6*%
X121535000Y-68267500D03*
X122185000Y-68267500D03*
X122835000Y-68267500D03*
X123485000Y-68267500D03*
X124135000Y-68267500D03*
X124785000Y-68267500D03*
X125435000Y-68267500D03*
X126085000Y-68267500D03*
X126735000Y-68267500D03*
X127385000Y-68267500D03*
X127385000Y-62542500D03*
X126735000Y-62542500D03*
X126085000Y-62542500D03*
X125435000Y-62542500D03*
X124785000Y-62542500D03*
X124135000Y-62542500D03*
X123485000Y-62542500D03*
X122835000Y-62542500D03*
X122185000Y-62542500D03*
X121535000Y-62542500D03*
%TD*%
D18*
%TO.C,C5*%
X100637000Y-70866000D03*
X102187000Y-70866000D03*
%TD*%
D12*
%TO.C,R3*%
X103061000Y-87376000D03*
X104711000Y-87376000D03*
%TD*%
D19*
%TO.C,C29*%
X93739000Y-91694000D03*
X92189000Y-91694000D03*
%TD*%
D10*
%TO.C,C17*%
X112776000Y-91427000D03*
X112776000Y-92977000D03*
%TD*%
D28*
%TO.C,U14*%
X111468000Y-117945000D03*
X111468000Y-119545000D03*
X113068000Y-117945000D03*
X113068000Y-119545000D03*
D29*
X108830500Y-116145000D03*
X108830500Y-116545000D03*
X108830500Y-116945000D03*
X108830500Y-117345000D03*
X108830500Y-117745000D03*
X108830500Y-118145000D03*
X108830500Y-118545000D03*
X108830500Y-118945000D03*
X108830500Y-119345000D03*
X108830500Y-119745000D03*
X108830500Y-120145000D03*
X108830500Y-120545000D03*
X108830500Y-120945000D03*
X108830500Y-121345000D03*
D30*
X109668000Y-122182500D03*
X110068000Y-122182500D03*
X110468000Y-122182500D03*
X110868000Y-122182500D03*
X111268000Y-122182500D03*
X111668000Y-122182500D03*
X112068000Y-122182500D03*
X112468000Y-122182500D03*
X112868000Y-122182500D03*
X113268000Y-122182500D03*
X113668000Y-122182500D03*
X114068000Y-122182500D03*
X114468000Y-122182500D03*
X114868000Y-122182500D03*
D29*
X115705500Y-121345000D03*
X115705500Y-120945000D03*
X115705500Y-120545000D03*
X115705500Y-120145000D03*
X115705500Y-119745000D03*
X115705500Y-119345000D03*
X115705500Y-118945000D03*
X115705500Y-118545000D03*
X115705500Y-118145000D03*
X115705500Y-117745000D03*
X115705500Y-117345000D03*
X115705500Y-116945000D03*
X115705500Y-116545000D03*
X115705500Y-116145000D03*
D30*
X114868000Y-115307500D03*
X114468000Y-115307500D03*
X114068000Y-115307500D03*
X113668000Y-115307500D03*
X113268000Y-115307500D03*
X112868000Y-115307500D03*
X112468000Y-115307500D03*
X112068000Y-115307500D03*
X111668000Y-115307500D03*
X111268000Y-115307500D03*
X110868000Y-115307500D03*
X110468000Y-115307500D03*
X110068000Y-115307500D03*
X109668000Y-115307500D03*
%TD*%
D12*
%TO.C,R2*%
X104585000Y-89154000D03*
X106235000Y-89154000D03*
%TD*%
D15*
%TO.C,C23*%
X127762000Y-85865000D03*
X127762000Y-84315000D03*
%TD*%
D31*
%TO.C,D1*%
X136550500Y-123063000D03*
X134975500Y-123063000D03*
%TD*%
D15*
%TO.C,C40*%
X131711000Y-115484500D03*
X131711000Y-113934500D03*
%TD*%
D32*
%TO.C,U3*%
X106637500Y-75915000D03*
X106637500Y-76415000D03*
X106637500Y-76915000D03*
X106637500Y-77415000D03*
X106637500Y-77915000D03*
X106637500Y-78415000D03*
X106637500Y-78915000D03*
X106637500Y-79415000D03*
X106637500Y-79915000D03*
X106637500Y-80415000D03*
X106637500Y-80915000D03*
X106637500Y-81415000D03*
X106637500Y-81915000D03*
X106637500Y-82415000D03*
X106637500Y-82915000D03*
X106637500Y-83415000D03*
X106637500Y-83915000D03*
X106637500Y-84415000D03*
X106637500Y-84915000D03*
X106637500Y-85415000D03*
X106637500Y-85915000D03*
X106637500Y-86415000D03*
X106637500Y-86915000D03*
X106637500Y-87415000D03*
X106637500Y-87915000D03*
D33*
X108300000Y-89577500D03*
X108800000Y-89577500D03*
X109300000Y-89577500D03*
X109800000Y-89577500D03*
X110300000Y-89577500D03*
X110800000Y-89577500D03*
X111300000Y-89577500D03*
X111800000Y-89577500D03*
X112300000Y-89577500D03*
X112800000Y-89577500D03*
X113300000Y-89577500D03*
X113800000Y-89577500D03*
X114300000Y-89577500D03*
X114800000Y-89577500D03*
X115300000Y-89577500D03*
X115800000Y-89577500D03*
X116300000Y-89577500D03*
X116800000Y-89577500D03*
X117300000Y-89577500D03*
X117800000Y-89577500D03*
X118300000Y-89577500D03*
X118800000Y-89577500D03*
X119300000Y-89577500D03*
X119800000Y-89577500D03*
X120300000Y-89577500D03*
D32*
X121962500Y-87915000D03*
X121962500Y-87415000D03*
X121962500Y-86915000D03*
X121962500Y-86415000D03*
X121962500Y-85915000D03*
X121962500Y-85415000D03*
X121962500Y-84915000D03*
X121962500Y-84415000D03*
X121962500Y-83915000D03*
X121962500Y-83415000D03*
X121962500Y-82915000D03*
X121962500Y-82415000D03*
X121962500Y-81915000D03*
X121962500Y-81415000D03*
X121962500Y-80915000D03*
X121962500Y-80415000D03*
X121962500Y-79915000D03*
X121962500Y-79415000D03*
X121962500Y-78915000D03*
X121962500Y-78415000D03*
X121962500Y-77915000D03*
X121962500Y-77415000D03*
X121962500Y-76915000D03*
X121962500Y-76415000D03*
X121962500Y-75915000D03*
D33*
X120300000Y-74252500D03*
X119800000Y-74252500D03*
X119300000Y-74252500D03*
X118800000Y-74252500D03*
X118300000Y-74252500D03*
X117800000Y-74252500D03*
X117300000Y-74252500D03*
X116800000Y-74252500D03*
X116300000Y-74252500D03*
X115800000Y-74252500D03*
X115300000Y-74252500D03*
X114800000Y-74252500D03*
X114300000Y-74252500D03*
X113800000Y-74252500D03*
X113300000Y-74252500D03*
X112800000Y-74252500D03*
X112300000Y-74252500D03*
X111800000Y-74252500D03*
X111300000Y-74252500D03*
X110800000Y-74252500D03*
X110300000Y-74252500D03*
X109800000Y-74252500D03*
X109300000Y-74252500D03*
X108800000Y-74252500D03*
X108300000Y-74252500D03*
%TD*%
D22*
%TO.C,R11*%
X129095000Y-78232000D03*
X127445000Y-78232000D03*
%TD*%
D34*
%TO.C,U13*%
X112351000Y-105537000D03*
X112351000Y-106807000D03*
X112351000Y-108077000D03*
X112351000Y-109347000D03*
X119551000Y-109347000D03*
X119551000Y-108077000D03*
X119551000Y-106807000D03*
X119551000Y-105537000D03*
%TD*%
D19*
%TO.C,C3*%
X96787000Y-108458000D03*
X95237000Y-108458000D03*
%TD*%
D12*
%TO.C,R25*%
X117158000Y-122174000D03*
X118808000Y-122174000D03*
%TD*%
D15*
%TO.C,C60*%
X107315000Y-115202000D03*
X107315000Y-113652000D03*
%TD*%
D18*
%TO.C,C32*%
X103873000Y-99314000D03*
X105423000Y-99314000D03*
%TD*%
D35*
%TO.C,X1*%
X126201000Y-86269000D03*
X126201000Y-84419000D03*
X124751000Y-84419000D03*
X124751000Y-86269000D03*
%TD*%
D36*
%TO.C,J10*%
X135933500Y-100032000D03*
X135933500Y-98532000D03*
X135933500Y-98032000D03*
X135933500Y-97532000D03*
X135933500Y-97032000D03*
X135933500Y-96532000D03*
X135933500Y-96032000D03*
X135933500Y-94532000D03*
X138903500Y-94532000D03*
X138903500Y-96032000D03*
X138903500Y-96532000D03*
X138903500Y-97032000D03*
X138903500Y-97532000D03*
X138903500Y-98032000D03*
X138903500Y-98532000D03*
X138903500Y-100032000D03*
%TD*%
D19*
%TO.C,C28*%
X93739000Y-93218000D03*
X92189000Y-93218000D03*
%TD*%
%TO.C,C11*%
X104661000Y-82804000D03*
X103111000Y-82804000D03*
%TD*%
D15*
%TO.C,C48*%
X124460000Y-101867000D03*
X124460000Y-100317000D03*
%TD*%
D19*
%TO.C,C37*%
X123330000Y-116967000D03*
X121780000Y-116967000D03*
%TD*%
D10*
%TO.C,C13*%
X117602000Y-91427000D03*
X117602000Y-92977000D03*
%TD*%
D18*
%TO.C,C55*%
X117208000Y-115316000D03*
X118758000Y-115316000D03*
%TD*%
D14*
%TO.C,R7*%
X104140000Y-74613000D03*
X104140000Y-76263000D03*
%TD*%
D13*
%TO.C,Q1*%
X100137000Y-114759500D03*
X98237000Y-114759500D03*
X99187000Y-116634500D03*
%TD*%
D37*
%TO.C,U8*%
X97072000Y-98904500D03*
X97572000Y-98904500D03*
X98072000Y-98904500D03*
X98572000Y-98904500D03*
X99072000Y-98904500D03*
X99572000Y-98904500D03*
X100072000Y-98904500D03*
X100572000Y-98904500D03*
X101072000Y-98904500D03*
X101572000Y-98904500D03*
X102072000Y-98904500D03*
X102572000Y-98904500D03*
D38*
X103984500Y-97492000D03*
X103984500Y-96992000D03*
X103984500Y-96492000D03*
X103984500Y-95992000D03*
X103984500Y-95492000D03*
X103984500Y-94992000D03*
X103984500Y-94492000D03*
X103984500Y-93992000D03*
X103984500Y-93492000D03*
X103984500Y-92992000D03*
X103984500Y-92492000D03*
X103984500Y-91992000D03*
D37*
X102572000Y-90579500D03*
X102072000Y-90579500D03*
X101572000Y-90579500D03*
X101072000Y-90579500D03*
X100572000Y-90579500D03*
X100072000Y-90579500D03*
X99572000Y-90579500D03*
X99072000Y-90579500D03*
X98572000Y-90579500D03*
X98072000Y-90579500D03*
X97572000Y-90579500D03*
X97072000Y-90579500D03*
D38*
X95659500Y-91992000D03*
X95659500Y-92492000D03*
X95659500Y-92992000D03*
X95659500Y-93492000D03*
X95659500Y-93992000D03*
X95659500Y-94492000D03*
X95659500Y-94992000D03*
X95659500Y-95492000D03*
X95659500Y-95992000D03*
X95659500Y-96492000D03*
X95659500Y-96992000D03*
X95659500Y-97492000D03*
%TD*%
D10*
%TO.C,C59*%
X105918000Y-121412000D03*
X105918000Y-122962000D03*
%TD*%
D15*
%TO.C,C38*%
X125615000Y-115484500D03*
X125615000Y-113934500D03*
%TD*%
D11*
%TO.C,FB2*%
X95250000Y-102425000D03*
X95250000Y-100775000D03*
%TD*%
D15*
%TO.C,C36*%
X128663000Y-115484500D03*
X128663000Y-113934500D03*
%TD*%
D10*
%TO.C,C20*%
X116078000Y-91414000D03*
X116078000Y-92964000D03*
%TD*%
D11*
%TO.C,R4*%
X108204000Y-93027000D03*
X108204000Y-91377000D03*
%TD*%
D14*
%TO.C,R20*%
X133989500Y-100394000D03*
X133989500Y-102044000D03*
%TD*%
D15*
%TO.C,C25*%
X109855000Y-63640000D03*
X109855000Y-62090000D03*
%TD*%
D22*
%TO.C,R10*%
X129095000Y-76708000D03*
X127445000Y-76708000D03*
%TD*%
D15*
%TO.C,C35*%
X124091000Y-115484500D03*
X124091000Y-113934500D03*
%TD*%
%TO.C,C46*%
X127762000Y-101867000D03*
X127762000Y-100317000D03*
%TD*%
D18*
%TO.C,C51*%
X113271000Y-125349000D03*
X114821000Y-125349000D03*
%TD*%
%TO.C,C4*%
X123939000Y-95504000D03*
X125489000Y-95504000D03*
%TD*%
D39*
%TO.C,U12*%
X123888500Y-108899000D03*
X124523500Y-108899000D03*
X125158500Y-108899000D03*
X125793500Y-108899000D03*
X126428500Y-108899000D03*
X127063500Y-108899000D03*
X127698500Y-108899000D03*
X128333500Y-108899000D03*
X128333500Y-103699000D03*
X127698500Y-103699000D03*
X127063500Y-103699000D03*
X126428500Y-103699000D03*
X125793500Y-103699000D03*
X125158500Y-103699000D03*
X124523500Y-103699000D03*
X123888500Y-103699000D03*
%TD*%
D19*
%TO.C,C27*%
X116020800Y-97573200D03*
X114470800Y-97573200D03*
%TD*%
D40*
%TO.C,U2*%
X100462000Y-75051500D03*
X101412000Y-75051500D03*
X102362000Y-75051500D03*
X102362000Y-72776500D03*
X100462000Y-72776500D03*
%TD*%
D11*
%TO.C,FB3*%
X102870000Y-102425000D03*
X102870000Y-100775000D03*
%TD*%
D23*
%TO.C,U4*%
X101215000Y-68267500D03*
X101865000Y-68267500D03*
X102515000Y-68267500D03*
X103165000Y-68267500D03*
X103815000Y-68267500D03*
X104465000Y-68267500D03*
X105115000Y-68267500D03*
X105765000Y-68267500D03*
X106415000Y-68267500D03*
X107065000Y-68267500D03*
X107065000Y-62542500D03*
X106415000Y-62542500D03*
X105765000Y-62542500D03*
X105115000Y-62542500D03*
X104465000Y-62542500D03*
X103815000Y-62542500D03*
X103165000Y-62542500D03*
X102515000Y-62542500D03*
X101865000Y-62542500D03*
X101215000Y-62542500D03*
%TD*%
D10*
%TO.C,C6*%
X119126000Y-91427000D03*
X119126000Y-92977000D03*
%TD*%
D22*
%TO.C,R15*%
X116070800Y-102653200D03*
X114420800Y-102653200D03*
%TD*%
D15*
%TO.C,C24*%
X99695000Y-63640000D03*
X99695000Y-62090000D03*
%TD*%
%TO.C,C26*%
X120015000Y-63640000D03*
X120015000Y-62090000D03*
%TD*%
%TO.C,C1*%
X129540000Y-82918000D03*
X129540000Y-84468000D03*
%TD*%
D11*
%TO.C,R14*%
X111689800Y-100938200D03*
X111689800Y-99288200D03*
%TD*%
D19*
%TO.C,C58*%
X111773000Y-125349000D03*
X110223000Y-125349000D03*
%TD*%
D37*
%TO.C,U9*%
X124631000Y-125828500D03*
X125131000Y-125828500D03*
X125631000Y-125828500D03*
X126131000Y-125828500D03*
X126631000Y-125828500D03*
X127131000Y-125828500D03*
X127631000Y-125828500D03*
X128131000Y-125828500D03*
X128631000Y-125828500D03*
X129131000Y-125828500D03*
X129631000Y-125828500D03*
X130131000Y-125828500D03*
D38*
X131543500Y-124416000D03*
X131543500Y-123916000D03*
X131543500Y-123416000D03*
X131543500Y-122916000D03*
X131543500Y-122416000D03*
X131543500Y-121916000D03*
X131543500Y-121416000D03*
X131543500Y-120916000D03*
X131543500Y-120416000D03*
X131543500Y-119916000D03*
X131543500Y-119416000D03*
X131543500Y-118916000D03*
D37*
X130131000Y-117503500D03*
X129631000Y-117503500D03*
X129131000Y-117503500D03*
X128631000Y-117503500D03*
X128131000Y-117503500D03*
X127631000Y-117503500D03*
X127131000Y-117503500D03*
X126631000Y-117503500D03*
X126131000Y-117503500D03*
X125631000Y-117503500D03*
X125131000Y-117503500D03*
X124631000Y-117503500D03*
D38*
X123218500Y-118916000D03*
X123218500Y-119416000D03*
X123218500Y-119916000D03*
X123218500Y-120416000D03*
X123218500Y-120916000D03*
X123218500Y-121416000D03*
X123218500Y-121916000D03*
X123218500Y-122416000D03*
X123218500Y-122916000D03*
X123218500Y-123416000D03*
X123218500Y-123916000D03*
X123218500Y-124416000D03*
%TD*%
D15*
%TO.C,C52*%
X112014000Y-112929000D03*
X112014000Y-111379000D03*
%TD*%
D11*
%TO.C,FB1*%
X122174000Y-93027000D03*
X122174000Y-91377000D03*
%TD*%
D10*
%TO.C,C31*%
X101346000Y-100825000D03*
X101346000Y-102375000D03*
%TD*%
D15*
%TO.C,C47*%
X125984000Y-101867000D03*
X125984000Y-100317000D03*
%TD*%
D16*
%TO.C,U11*%
X130737250Y-96332000D03*
X130737250Y-97282000D03*
X130737250Y-98232000D03*
X133012250Y-98232000D03*
X133012250Y-97282000D03*
X133012250Y-96332000D03*
%TD*%
D10*
%TO.C,C50*%
X121412000Y-105270000D03*
X121412000Y-106820000D03*
%TD*%
D19*
%TO.C,C34*%
X93739000Y-97028000D03*
X92189000Y-97028000D03*
%TD*%
D14*
%TO.C,R17*%
X98298000Y-100775000D03*
X98298000Y-102425000D03*
%TD*%
D19*
%TO.C,C9*%
X104661000Y-84328000D03*
X103111000Y-84328000D03*
%TD*%
D14*
%TO.C,FB4*%
X122567000Y-113884500D03*
X122567000Y-115534500D03*
%TD*%
M02*
