%TF.GenerationSoftware,KiCad,Pcbnew,7.0.10*%
%TF.CreationDate,2024-02-11T20:06:44-06:00*%
%TF.ProjectId,HUB75-FPGA-Card,48554237-352d-4465-9047-412d43617264,rev?*%
%TF.SameCoordinates,Original*%
%TF.FileFunction,Legend,Bot*%
%TF.FilePolarity,Positive*%
%FSLAX46Y46*%
G04 Gerber Fmt 4.6, Leading zero omitted, Abs format (unit mm)*
G04 Created by KiCad (PCBNEW 7.0.10) date 2024-02-11 20:06:44*
%MOMM*%
%LPD*%
G01*
G04 APERTURE LIST*
G04 Aperture macros list*
%AMRoundRect*
0 Rectangle with rounded corners*
0 $1 Rounding radius*
0 $2 $3 $4 $5 $6 $7 $8 $9 X,Y pos of 4 corners*
0 Add a 4 corners polygon primitive as box body*
4,1,4,$2,$3,$4,$5,$6,$7,$8,$9,$2,$3,0*
0 Add four circle primitives for the rounded corners*
1,1,$1+$1,$2,$3*
1,1,$1+$1,$4,$5*
1,1,$1+$1,$6,$7*
1,1,$1+$1,$8,$9*
0 Add four rect primitives between the rounded corners*
20,1,$1+$1,$2,$3,$4,$5,0*
20,1,$1+$1,$4,$5,$6,$7,0*
20,1,$1+$1,$6,$7,$8,$9,0*
20,1,$1+$1,$8,$9,$2,$3,0*%
G04 Aperture macros list end*
%ADD10C,0.300000*%
%ADD11C,3.200000*%
%ADD12RoundRect,0.250000X-0.600000X-0.600000X0.600000X-0.600000X0.600000X0.600000X-0.600000X0.600000X0*%
%ADD13C,1.700000*%
%ADD14R,1.700000X1.700000*%
%ADD15O,1.700000X1.700000*%
%ADD16RoundRect,0.250002X-1.699998X-1.699998X1.699998X-1.699998X1.699998X1.699998X-1.699998X1.699998X0*%
%ADD17C,0.710000*%
%ADD18O,1.304000X1.804000*%
%ADD19C,1.524000*%
%ADD20C,3.500000*%
G04 APERTURE END LIST*
D10*
G36*
X104079036Y-100158447D02*
G01*
X104096061Y-100158339D01*
X104113246Y-100158017D01*
X104130593Y-100157481D01*
X104148101Y-100156729D01*
X104165770Y-100155763D01*
X104183600Y-100154583D01*
X104190777Y-100154050D01*
X104208619Y-100152648D01*
X104226426Y-100150959D01*
X104244197Y-100148984D01*
X104261932Y-100146723D01*
X104279631Y-100144176D01*
X104297294Y-100141342D01*
X104304350Y-100140129D01*
X104320775Y-100137388D01*
X104337308Y-100134433D01*
X104353949Y-100131263D01*
X104370696Y-100127878D01*
X104387551Y-100124279D01*
X104404513Y-100120465D01*
X104411328Y-100118879D01*
X104428273Y-100114738D01*
X104445217Y-100110329D01*
X104462161Y-100105651D01*
X104479106Y-100100704D01*
X104496050Y-100095490D01*
X104512994Y-100090007D01*
X104519772Y-100087739D01*
X104519772Y-99810767D01*
X104501570Y-99820287D01*
X104483098Y-99829336D01*
X104464356Y-99837915D01*
X104445343Y-99846024D01*
X104426059Y-99853663D01*
X104406505Y-99860832D01*
X104386681Y-99867530D01*
X104366586Y-99873759D01*
X104346221Y-99879517D01*
X104325585Y-99884806D01*
X104311677Y-99888070D01*
X104297063Y-99891436D01*
X104282528Y-99894573D01*
X104268074Y-99897481D01*
X104250119Y-99900794D01*
X104232289Y-99903749D01*
X104214584Y-99906347D01*
X104197005Y-99908586D01*
X104179597Y-99910486D01*
X104162637Y-99912064D01*
X104146124Y-99913320D01*
X104130058Y-99914254D01*
X104114439Y-99914865D01*
X104099267Y-99915155D01*
X104093324Y-99915181D01*
X104076609Y-99914963D01*
X104060351Y-99914311D01*
X104044552Y-99913223D01*
X104029210Y-99911700D01*
X104014327Y-99909743D01*
X103996366Y-99906684D01*
X103979121Y-99902945D01*
X103972424Y-99901259D01*
X103956084Y-99896374D01*
X103940496Y-99890647D01*
X103925659Y-99884080D01*
X103911573Y-99876673D01*
X103898239Y-99868424D01*
X103885656Y-99859335D01*
X103880833Y-99855464D01*
X103868196Y-99843629D01*
X103856803Y-99830931D01*
X103846652Y-99817371D01*
X103837745Y-99802948D01*
X103830080Y-99787661D01*
X103823658Y-99771512D01*
X103818480Y-99754499D01*
X103814544Y-99736624D01*
X103811851Y-99717886D01*
X103810401Y-99698285D01*
X103810124Y-99684738D01*
X103810756Y-99663371D01*
X103812649Y-99642822D01*
X103815804Y-99623091D01*
X103820222Y-99604178D01*
X103825902Y-99586082D01*
X103832845Y-99568805D01*
X103841049Y-99552345D01*
X103850516Y-99536704D01*
X103861245Y-99521880D01*
X103873236Y-99507874D01*
X103881932Y-99498991D01*
X103895301Y-99487652D01*
X103907348Y-99478932D01*
X103920217Y-99470873D01*
X103933909Y-99463476D01*
X103948424Y-99456740D01*
X103963762Y-99450667D01*
X103966928Y-99449532D01*
X103983139Y-99444360D01*
X104000173Y-99440065D01*
X104018030Y-99436647D01*
X104032908Y-99434543D01*
X104048312Y-99433000D01*
X104064243Y-99432018D01*
X104080701Y-99431598D01*
X104084898Y-99431580D01*
X104247197Y-99431580D01*
X104247197Y-99173660D01*
X104084898Y-99173660D01*
X104064371Y-99173273D01*
X104044695Y-99172114D01*
X104025869Y-99170182D01*
X104007892Y-99167477D01*
X103990766Y-99164000D01*
X103974490Y-99159749D01*
X103959064Y-99154726D01*
X103944489Y-99148930D01*
X103930763Y-99142361D01*
X103917887Y-99135020D01*
X103909775Y-99129696D01*
X103895350Y-99118310D01*
X103882848Y-99105768D01*
X103872269Y-99092069D01*
X103863614Y-99077214D01*
X103856882Y-99061203D01*
X103852073Y-99044035D01*
X103849188Y-99025711D01*
X103848226Y-99006231D01*
X103848767Y-98990963D01*
X103850390Y-98976345D01*
X103854237Y-98957867D01*
X103860007Y-98940545D01*
X103867701Y-98924379D01*
X103877318Y-98909369D01*
X103888858Y-98895516D01*
X103902322Y-98882819D01*
X103909775Y-98876905D01*
X103925529Y-98866085D01*
X103938547Y-98858918D01*
X103952594Y-98852561D01*
X103967672Y-98847017D01*
X103983781Y-98842283D01*
X104000920Y-98838361D01*
X104019089Y-98835251D01*
X104038289Y-98832952D01*
X104058519Y-98831464D01*
X104079780Y-98830788D01*
X104087096Y-98830743D01*
X104102316Y-98830923D01*
X104118025Y-98831464D01*
X104134224Y-98832366D01*
X104150912Y-98833628D01*
X104168089Y-98835251D01*
X104173924Y-98835872D01*
X104188527Y-98837636D01*
X104203255Y-98839721D01*
X104218108Y-98842129D01*
X104233086Y-98844859D01*
X104248190Y-98847911D01*
X104263419Y-98851285D01*
X104269545Y-98852725D01*
X104284123Y-98856073D01*
X104299005Y-98859708D01*
X104314190Y-98863630D01*
X104329680Y-98867837D01*
X104345475Y-98872331D01*
X104361573Y-98877111D01*
X104368097Y-98879103D01*
X104384487Y-98884257D01*
X104400913Y-98889643D01*
X104417374Y-98895262D01*
X104433871Y-98901113D01*
X104450404Y-98907197D01*
X104466973Y-98913514D01*
X104473610Y-98916106D01*
X104473610Y-98652323D01*
X104453665Y-98646541D01*
X104433811Y-98641010D01*
X104414047Y-98635731D01*
X104394372Y-98630702D01*
X104374788Y-98625925D01*
X104355294Y-98621398D01*
X104335891Y-98617123D01*
X104316577Y-98613099D01*
X104297354Y-98609327D01*
X104278221Y-98605805D01*
X104265515Y-98603597D01*
X104246548Y-98600716D01*
X104227704Y-98598119D01*
X104208982Y-98595804D01*
X104190382Y-98593774D01*
X104171904Y-98592026D01*
X104153549Y-98590562D01*
X104135317Y-98589382D01*
X104117206Y-98588484D01*
X104099218Y-98587870D01*
X104081353Y-98587540D01*
X104069510Y-98587477D01*
X104054323Y-98587577D01*
X104039354Y-98587876D01*
X104024602Y-98588375D01*
X103995751Y-98589972D01*
X103967770Y-98592368D01*
X103940659Y-98595562D01*
X103914418Y-98599555D01*
X103889047Y-98604346D01*
X103864547Y-98609936D01*
X103840916Y-98616325D01*
X103818156Y-98623512D01*
X103796266Y-98631497D01*
X103775245Y-98640282D01*
X103755095Y-98649864D01*
X103735815Y-98660246D01*
X103717406Y-98671425D01*
X103699866Y-98683404D01*
X103691422Y-98689692D01*
X103675008Y-98702727D01*
X103659652Y-98716368D01*
X103645355Y-98730616D01*
X103632117Y-98745471D01*
X103619938Y-98760933D01*
X103608819Y-98777002D01*
X103598758Y-98793677D01*
X103589756Y-98810959D01*
X103581814Y-98828848D01*
X103574930Y-98847344D01*
X103569105Y-98866446D01*
X103564340Y-98886155D01*
X103560633Y-98906471D01*
X103557986Y-98927394D01*
X103556397Y-98948924D01*
X103555868Y-98971060D01*
X103556148Y-98986751D01*
X103556990Y-99002132D01*
X103558392Y-99017205D01*
X103560356Y-99031968D01*
X103562880Y-99046422D01*
X103566825Y-99064056D01*
X103571646Y-99081206D01*
X103573819Y-99087930D01*
X103580020Y-99104431D01*
X103587401Y-99120502D01*
X103595962Y-99136145D01*
X103605705Y-99151357D01*
X103614349Y-99163218D01*
X103623748Y-99174805D01*
X103633903Y-99186116D01*
X103649118Y-99201400D01*
X103665498Y-99215654D01*
X103683044Y-99228878D01*
X103695388Y-99237121D01*
X103708251Y-99244906D01*
X103721632Y-99252233D01*
X103735531Y-99259103D01*
X103749948Y-99265514D01*
X103764883Y-99271467D01*
X103780336Y-99276963D01*
X103796307Y-99282000D01*
X103812797Y-99286580D01*
X103829804Y-99290702D01*
X103847329Y-99294365D01*
X103856286Y-99296025D01*
X103836075Y-99299929D01*
X103816473Y-99304406D01*
X103797481Y-99309455D01*
X103779098Y-99315076D01*
X103761325Y-99321270D01*
X103744162Y-99328036D01*
X103727608Y-99335375D01*
X103711664Y-99343286D01*
X103696330Y-99351770D01*
X103681605Y-99360826D01*
X103667490Y-99370455D01*
X103653985Y-99380655D01*
X103641089Y-99391429D01*
X103628803Y-99402775D01*
X103617126Y-99414693D01*
X103606060Y-99427184D01*
X103595634Y-99440144D01*
X103585881Y-99453654D01*
X103576800Y-99467713D01*
X103568393Y-99482322D01*
X103560658Y-99497480D01*
X103553595Y-99513188D01*
X103547205Y-99529445D01*
X103541488Y-99546252D01*
X103536443Y-99563609D01*
X103532071Y-99581515D01*
X103528372Y-99599970D01*
X103525345Y-99618975D01*
X103522991Y-99638530D01*
X103521309Y-99658634D01*
X103520300Y-99679288D01*
X103519964Y-99700491D01*
X103520518Y-99727750D01*
X103522179Y-99754204D01*
X103524948Y-99779854D01*
X103528825Y-99804699D01*
X103533810Y-99828740D01*
X103539902Y-99851977D01*
X103547102Y-99874410D01*
X103555410Y-99896038D01*
X103564825Y-99916862D01*
X103575348Y-99936882D01*
X103586979Y-99956098D01*
X103599717Y-99974509D01*
X103613563Y-99992116D01*
X103628516Y-100008919D01*
X103644578Y-100024917D01*
X103661747Y-100040111D01*
X103679949Y-100054441D01*
X103699202Y-100067846D01*
X103719505Y-100080327D01*
X103740859Y-100091883D01*
X103763263Y-100102515D01*
X103786717Y-100112222D01*
X103811222Y-100121005D01*
X103836777Y-100128863D01*
X103863383Y-100135797D01*
X103891039Y-100141806D01*
X103919746Y-100146891D01*
X103934493Y-100149086D01*
X103949503Y-100151051D01*
X103964776Y-100152784D01*
X103980311Y-100154287D01*
X103996108Y-100155558D01*
X104012169Y-100156598D01*
X104028491Y-100157407D01*
X104045077Y-100157985D01*
X104061925Y-100158331D01*
X104079036Y-100158447D01*
G37*
G36*
X103326157Y-98610924D02*
G01*
X103021709Y-98610924D01*
X102753163Y-99887337D01*
X102483519Y-98610924D01*
X102179071Y-98610924D01*
X102542870Y-100135000D01*
X102962357Y-100135000D01*
X103326157Y-98610924D01*
G37*
G36*
X101552588Y-100158447D02*
G01*
X101569613Y-100158339D01*
X101586798Y-100158017D01*
X101604145Y-100157481D01*
X101621653Y-100156729D01*
X101639322Y-100155763D01*
X101657152Y-100154583D01*
X101664329Y-100154050D01*
X101682171Y-100152648D01*
X101699978Y-100150959D01*
X101717749Y-100148984D01*
X101735484Y-100146723D01*
X101753183Y-100144176D01*
X101770846Y-100141342D01*
X101777902Y-100140129D01*
X101794327Y-100137388D01*
X101810860Y-100134433D01*
X101827501Y-100131263D01*
X101844248Y-100127878D01*
X101861103Y-100124279D01*
X101878065Y-100120465D01*
X101884880Y-100118879D01*
X101901825Y-100114738D01*
X101918769Y-100110329D01*
X101935713Y-100105651D01*
X101952658Y-100100704D01*
X101969602Y-100095490D01*
X101986546Y-100090007D01*
X101993324Y-100087739D01*
X101993324Y-99810767D01*
X101975122Y-99820287D01*
X101956650Y-99829336D01*
X101937908Y-99837915D01*
X101918895Y-99846024D01*
X101899611Y-99853663D01*
X101880057Y-99860832D01*
X101860233Y-99867530D01*
X101840138Y-99873759D01*
X101819773Y-99879517D01*
X101799137Y-99884806D01*
X101785229Y-99888070D01*
X101770615Y-99891436D01*
X101756080Y-99894573D01*
X101741626Y-99897481D01*
X101723671Y-99900794D01*
X101705841Y-99903749D01*
X101688136Y-99906347D01*
X101670557Y-99908586D01*
X101653149Y-99910486D01*
X101636189Y-99912064D01*
X101619676Y-99913320D01*
X101603610Y-99914254D01*
X101587991Y-99914865D01*
X101572819Y-99915155D01*
X101566876Y-99915181D01*
X101550161Y-99914963D01*
X101533903Y-99914311D01*
X101518104Y-99913223D01*
X101502762Y-99911700D01*
X101487879Y-99909743D01*
X101469918Y-99906684D01*
X101452673Y-99902945D01*
X101445976Y-99901259D01*
X101429636Y-99896374D01*
X101414048Y-99890647D01*
X101399211Y-99884080D01*
X101385125Y-99876673D01*
X101371791Y-99868424D01*
X101359208Y-99859335D01*
X101354385Y-99855464D01*
X101341748Y-99843629D01*
X101330355Y-99830931D01*
X101320204Y-99817371D01*
X101311297Y-99802948D01*
X101303632Y-99787661D01*
X101297210Y-99771512D01*
X101292032Y-99754499D01*
X101288096Y-99736624D01*
X101285403Y-99717886D01*
X101283953Y-99698285D01*
X101283676Y-99684738D01*
X101284308Y-99663371D01*
X101286201Y-99642822D01*
X101289356Y-99623091D01*
X101293774Y-99604178D01*
X101299454Y-99586082D01*
X101306397Y-99568805D01*
X101314601Y-99552345D01*
X101324068Y-99536704D01*
X101334797Y-99521880D01*
X101346788Y-99507874D01*
X101355484Y-99498991D01*
X101368853Y-99487652D01*
X101380900Y-99478932D01*
X101393769Y-99470873D01*
X101407461Y-99463476D01*
X101421976Y-99456740D01*
X101437314Y-99450667D01*
X101440480Y-99449532D01*
X101456691Y-99444360D01*
X101473725Y-99440065D01*
X101491582Y-99436647D01*
X101506460Y-99434543D01*
X101521864Y-99433000D01*
X101537795Y-99432018D01*
X101554253Y-99431598D01*
X101558450Y-99431580D01*
X101720749Y-99431580D01*
X101720749Y-99173660D01*
X101558450Y-99173660D01*
X101537923Y-99173273D01*
X101518247Y-99172114D01*
X101499421Y-99170182D01*
X101481444Y-99167477D01*
X101464318Y-99164000D01*
X101448042Y-99159749D01*
X101432616Y-99154726D01*
X101418040Y-99148930D01*
X101404315Y-99142361D01*
X101391439Y-99135020D01*
X101383327Y-99129696D01*
X101368902Y-99118310D01*
X101356400Y-99105768D01*
X101345821Y-99092069D01*
X101337166Y-99077214D01*
X101330434Y-99061203D01*
X101325625Y-99044035D01*
X101322740Y-99025711D01*
X101321778Y-99006231D01*
X101322319Y-98990963D01*
X101323942Y-98976345D01*
X101327789Y-98957867D01*
X101333559Y-98940545D01*
X101341253Y-98924379D01*
X101350870Y-98909369D01*
X101362410Y-98895516D01*
X101375874Y-98882819D01*
X101383327Y-98876905D01*
X101399081Y-98866085D01*
X101412099Y-98858918D01*
X101426146Y-98852561D01*
X101441224Y-98847017D01*
X101457333Y-98842283D01*
X101474472Y-98838361D01*
X101492641Y-98835251D01*
X101511841Y-98832952D01*
X101532071Y-98831464D01*
X101553332Y-98830788D01*
X101560648Y-98830743D01*
X101575868Y-98830923D01*
X101591577Y-98831464D01*
X101607776Y-98832366D01*
X101624464Y-98833628D01*
X101641641Y-98835251D01*
X101647476Y-98835872D01*
X101662079Y-98837636D01*
X101676807Y-98839721D01*
X101691660Y-98842129D01*
X101706638Y-98844859D01*
X101721742Y-98847911D01*
X101736971Y-98851285D01*
X101743097Y-98852725D01*
X101757675Y-98856073D01*
X101772557Y-98859708D01*
X101787742Y-98863630D01*
X101803232Y-98867837D01*
X101819027Y-98872331D01*
X101835125Y-98877111D01*
X101841649Y-98879103D01*
X101858039Y-98884257D01*
X101874465Y-98889643D01*
X101890926Y-98895262D01*
X101907423Y-98901113D01*
X101923956Y-98907197D01*
X101940525Y-98913514D01*
X101947162Y-98916106D01*
X101947162Y-98652323D01*
X101927217Y-98646541D01*
X101907363Y-98641010D01*
X101887599Y-98635731D01*
X101867924Y-98630702D01*
X101848340Y-98625925D01*
X101828846Y-98621398D01*
X101809443Y-98617123D01*
X101790129Y-98613099D01*
X101770906Y-98609327D01*
X101751773Y-98605805D01*
X101739067Y-98603597D01*
X101720100Y-98600716D01*
X101701256Y-98598119D01*
X101682534Y-98595804D01*
X101663934Y-98593774D01*
X101645456Y-98592026D01*
X101627101Y-98590562D01*
X101608869Y-98589382D01*
X101590758Y-98588484D01*
X101572770Y-98587870D01*
X101554905Y-98587540D01*
X101543062Y-98587477D01*
X101527875Y-98587577D01*
X101512906Y-98587876D01*
X101498154Y-98588375D01*
X101469303Y-98589972D01*
X101441322Y-98592368D01*
X101414211Y-98595562D01*
X101387970Y-98599555D01*
X101362599Y-98604346D01*
X101338099Y-98609936D01*
X101314468Y-98616325D01*
X101291708Y-98623512D01*
X101269818Y-98631497D01*
X101248797Y-98640282D01*
X101228647Y-98649864D01*
X101209367Y-98660246D01*
X101190958Y-98671425D01*
X101173418Y-98683404D01*
X101164974Y-98689692D01*
X101148560Y-98702727D01*
X101133204Y-98716368D01*
X101118907Y-98730616D01*
X101105669Y-98745471D01*
X101093490Y-98760933D01*
X101082371Y-98777002D01*
X101072310Y-98793677D01*
X101063308Y-98810959D01*
X101055366Y-98828848D01*
X101048482Y-98847344D01*
X101042657Y-98866446D01*
X101037892Y-98886155D01*
X101034185Y-98906471D01*
X101031538Y-98927394D01*
X101029949Y-98948924D01*
X101029420Y-98971060D01*
X101029700Y-98986751D01*
X101030542Y-99002132D01*
X101031944Y-99017205D01*
X101033908Y-99031968D01*
X101036432Y-99046422D01*
X101040377Y-99064056D01*
X101045198Y-99081206D01*
X101047371Y-99087930D01*
X101053572Y-99104431D01*
X101060953Y-99120502D01*
X101069514Y-99136145D01*
X101079257Y-99151357D01*
X101087900Y-99163218D01*
X101097300Y-99174805D01*
X101107455Y-99186116D01*
X101122670Y-99201400D01*
X101139050Y-99215654D01*
X101156596Y-99228878D01*
X101168940Y-99237121D01*
X101181803Y-99244906D01*
X101195184Y-99252233D01*
X101209083Y-99259103D01*
X101223500Y-99265514D01*
X101238435Y-99271467D01*
X101253888Y-99276963D01*
X101269859Y-99282000D01*
X101286349Y-99286580D01*
X101303356Y-99290702D01*
X101320881Y-99294365D01*
X101329838Y-99296025D01*
X101309627Y-99299929D01*
X101290025Y-99304406D01*
X101271033Y-99309455D01*
X101252650Y-99315076D01*
X101234877Y-99321270D01*
X101217714Y-99328036D01*
X101201160Y-99335375D01*
X101185216Y-99343286D01*
X101169882Y-99351770D01*
X101155157Y-99360826D01*
X101141042Y-99370455D01*
X101127537Y-99380655D01*
X101114641Y-99391429D01*
X101102355Y-99402775D01*
X101090678Y-99414693D01*
X101079612Y-99427184D01*
X101069186Y-99440144D01*
X101059433Y-99453654D01*
X101050352Y-99467713D01*
X101041945Y-99482322D01*
X101034210Y-99497480D01*
X101027147Y-99513188D01*
X101020757Y-99529445D01*
X101015040Y-99546252D01*
X101009995Y-99563609D01*
X101005623Y-99581515D01*
X101001924Y-99599970D01*
X100998897Y-99618975D01*
X100996543Y-99638530D01*
X100994861Y-99658634D01*
X100993852Y-99679288D01*
X100993516Y-99700491D01*
X100994070Y-99727750D01*
X100995731Y-99754204D01*
X100998500Y-99779854D01*
X101002377Y-99804699D01*
X101007362Y-99828740D01*
X101013454Y-99851977D01*
X101020654Y-99874410D01*
X101028962Y-99896038D01*
X101038377Y-99916862D01*
X101048900Y-99936882D01*
X101060531Y-99956098D01*
X101073269Y-99974509D01*
X101087115Y-99992116D01*
X101102068Y-100008919D01*
X101118130Y-100024917D01*
X101135299Y-100040111D01*
X101153501Y-100054441D01*
X101172754Y-100067846D01*
X101193057Y-100080327D01*
X101214411Y-100091883D01*
X101236815Y-100102515D01*
X101260269Y-100112222D01*
X101284774Y-100121005D01*
X101310329Y-100128863D01*
X101336935Y-100135797D01*
X101364591Y-100141806D01*
X101393298Y-100146891D01*
X101408045Y-100149086D01*
X101423055Y-100151051D01*
X101438328Y-100152784D01*
X101453863Y-100154287D01*
X101469660Y-100155558D01*
X101485721Y-100156598D01*
X101502043Y-100157407D01*
X101518629Y-100157985D01*
X101535477Y-100158331D01*
X101552588Y-100158447D01*
G37*
G36*
X99114067Y-98868845D02*
G01*
X99502780Y-98868845D01*
X99502780Y-98610924D01*
X98423104Y-98610924D01*
X98423104Y-98868845D01*
X98811817Y-98868845D01*
X98811817Y-100135000D01*
X99114067Y-100135000D01*
X99114067Y-98868845D01*
G37*
G36*
X98191562Y-100135000D02*
G01*
X97867330Y-100135000D01*
X97844087Y-100134824D01*
X97821255Y-100134298D01*
X97798833Y-100133422D01*
X97776820Y-100132195D01*
X97755218Y-100130617D01*
X97734026Y-100128688D01*
X97713244Y-100126409D01*
X97692871Y-100123780D01*
X97672909Y-100120799D01*
X97653357Y-100117468D01*
X97634215Y-100113787D01*
X97615483Y-100109755D01*
X97597161Y-100105372D01*
X97579248Y-100100639D01*
X97561746Y-100095555D01*
X97544654Y-100090120D01*
X97527972Y-100084335D01*
X97511700Y-100078199D01*
X97495838Y-100071712D01*
X97480386Y-100064875D01*
X97465344Y-100057687D01*
X97450712Y-100050149D01*
X97436490Y-100042260D01*
X97422678Y-100034020D01*
X97409276Y-100025430D01*
X97396284Y-100016489D01*
X97383702Y-100007198D01*
X97371530Y-99997556D01*
X97359768Y-99987563D01*
X97348416Y-99977220D01*
X97337474Y-99966526D01*
X97326942Y-99955481D01*
X97316799Y-99944020D01*
X97306978Y-99932124D01*
X97297479Y-99919792D01*
X97288302Y-99907024D01*
X97279447Y-99893820D01*
X97270914Y-99880180D01*
X97262703Y-99866105D01*
X97254814Y-99851594D01*
X97247247Y-99836647D01*
X97240002Y-99821264D01*
X97233079Y-99805446D01*
X97226478Y-99789192D01*
X97220199Y-99772502D01*
X97214242Y-99755376D01*
X97208607Y-99737814D01*
X97203294Y-99719817D01*
X97198303Y-99701384D01*
X97193634Y-99682515D01*
X97189287Y-99663211D01*
X97185262Y-99643470D01*
X97181559Y-99623294D01*
X97178178Y-99602682D01*
X97175119Y-99581635D01*
X97172382Y-99560151D01*
X97169967Y-99538232D01*
X97167874Y-99515877D01*
X97166103Y-99493086D01*
X97164654Y-99469859D01*
X97163527Y-99446197D01*
X97162722Y-99422099D01*
X97162239Y-99397565D01*
X97162078Y-99372595D01*
X97162085Y-99371496D01*
X97476785Y-99371496D01*
X97476859Y-99387720D01*
X97477082Y-99403648D01*
X97477452Y-99419279D01*
X97477970Y-99434614D01*
X97478637Y-99449653D01*
X97479451Y-99464395D01*
X97481525Y-99492992D01*
X97484191Y-99520403D01*
X97487450Y-99546630D01*
X97491301Y-99571672D01*
X97495745Y-99595528D01*
X97500781Y-99618200D01*
X97506409Y-99639686D01*
X97512630Y-99659988D01*
X97519444Y-99679105D01*
X97526850Y-99697037D01*
X97534848Y-99713784D01*
X97543439Y-99729346D01*
X97552623Y-99743722D01*
X97562503Y-99757032D01*
X97573185Y-99769482D01*
X97584668Y-99781074D01*
X97596953Y-99791808D01*
X97610039Y-99801682D01*
X97623926Y-99810698D01*
X97638615Y-99818856D01*
X97654106Y-99826154D01*
X97670397Y-99832594D01*
X97687491Y-99838176D01*
X97705385Y-99842898D01*
X97724081Y-99846762D01*
X97743579Y-99849768D01*
X97763877Y-99851914D01*
X97784978Y-99853202D01*
X97806879Y-99853632D01*
X97888945Y-99853632D01*
X97888945Y-98892292D01*
X97806879Y-98892292D01*
X97784849Y-98892718D01*
X97763637Y-98893998D01*
X97743244Y-98896130D01*
X97723669Y-98899115D01*
X97704913Y-98902954D01*
X97686975Y-98907645D01*
X97669856Y-98913189D01*
X97653556Y-98919586D01*
X97638074Y-98926836D01*
X97623411Y-98934939D01*
X97609567Y-98943895D01*
X97596541Y-98953704D01*
X97584333Y-98964365D01*
X97572944Y-98975880D01*
X97562374Y-98988248D01*
X97552623Y-99001468D01*
X97543439Y-99015794D01*
X97534848Y-99031293D01*
X97526850Y-99047965D01*
X97519444Y-99065811D01*
X97512630Y-99084831D01*
X97506409Y-99105024D01*
X97500781Y-99126390D01*
X97495745Y-99148930D01*
X97491301Y-99172644D01*
X97487450Y-99197531D01*
X97484191Y-99223591D01*
X97481525Y-99250825D01*
X97479451Y-99279233D01*
X97478637Y-99293877D01*
X97477970Y-99308814D01*
X97477452Y-99324044D01*
X97477082Y-99339568D01*
X97476859Y-99355386D01*
X97476785Y-99371496D01*
X97162085Y-99371496D01*
X97162243Y-99346921D01*
X97162737Y-99321740D01*
X97163560Y-99297050D01*
X97164712Y-99272853D01*
X97166193Y-99249148D01*
X97168003Y-99225935D01*
X97170143Y-99203215D01*
X97172611Y-99180987D01*
X97175409Y-99159251D01*
X97178536Y-99138008D01*
X97181992Y-99117257D01*
X97185778Y-99096998D01*
X97189892Y-99077231D01*
X97194336Y-99057957D01*
X97199108Y-99039175D01*
X97204210Y-99020886D01*
X97209584Y-99003020D01*
X97215264Y-98985600D01*
X97221250Y-98968627D01*
X97227543Y-98952101D01*
X97234142Y-98936021D01*
X97241047Y-98920387D01*
X97248258Y-98905201D01*
X97255776Y-98890460D01*
X97263600Y-98876166D01*
X97271730Y-98862319D01*
X97280166Y-98848918D01*
X97288909Y-98835963D01*
X97297958Y-98823455D01*
X97307313Y-98811394D01*
X97316975Y-98799779D01*
X97326942Y-98788611D01*
X97337408Y-98777679D01*
X97348287Y-98767094D01*
X97359581Y-98756856D01*
X97371290Y-98746965D01*
X97383412Y-98737422D01*
X97395949Y-98728225D01*
X97408900Y-98719375D01*
X97422266Y-98710873D01*
X97436045Y-98702717D01*
X97450240Y-98694909D01*
X97464848Y-98687447D01*
X97479871Y-98680333D01*
X97495308Y-98673566D01*
X97511159Y-98667145D01*
X97527425Y-98661072D01*
X97544105Y-98655346D01*
X97561199Y-98649967D01*
X97578708Y-98644934D01*
X97596630Y-98640249D01*
X97614968Y-98635911D01*
X97633719Y-98631920D01*
X97652885Y-98628276D01*
X97672465Y-98624979D01*
X97692459Y-98622030D01*
X97712868Y-98619427D01*
X97733691Y-98617171D01*
X97754928Y-98615262D01*
X97776580Y-98613700D01*
X97798646Y-98612486D01*
X97821126Y-98611618D01*
X97844021Y-98611098D01*
X97867330Y-98610924D01*
X98191562Y-98610924D01*
X98191562Y-100135000D01*
G37*
G36*
X96452572Y-98587661D02*
G01*
X96467927Y-98588215D01*
X96483107Y-98589138D01*
X96498112Y-98590431D01*
X96512942Y-98592092D01*
X96527598Y-98594123D01*
X96542080Y-98596523D01*
X96563475Y-98600815D01*
X96584476Y-98605938D01*
X96605086Y-98611892D01*
X96625302Y-98618676D01*
X96645125Y-98626292D01*
X96664556Y-98634738D01*
X96677254Y-98640821D01*
X96695834Y-98650779D01*
X96713855Y-98661734D01*
X96731314Y-98673688D01*
X96748214Y-98686640D01*
X96764553Y-98700590D01*
X96780333Y-98715538D01*
X96790541Y-98726058D01*
X96800500Y-98737022D01*
X96810210Y-98748430D01*
X96819671Y-98760281D01*
X96828883Y-98772575D01*
X96837846Y-98785314D01*
X96846253Y-98798110D01*
X96854394Y-98811267D01*
X96862268Y-98824783D01*
X96869874Y-98838660D01*
X96877214Y-98852896D01*
X96884287Y-98867492D01*
X96891093Y-98882448D01*
X96897632Y-98897764D01*
X96903904Y-98913440D01*
X96909910Y-98929476D01*
X96915648Y-98945872D01*
X96921119Y-98962628D01*
X96926324Y-98979744D01*
X96931262Y-98997219D01*
X96935932Y-99015055D01*
X96940336Y-99033251D01*
X96944473Y-99051806D01*
X96948343Y-99070721D01*
X96951947Y-99089997D01*
X96955283Y-99109632D01*
X96958352Y-99129627D01*
X96961155Y-99149982D01*
X96963690Y-99170697D01*
X96965959Y-99191772D01*
X96967961Y-99213207D01*
X96969696Y-99235001D01*
X96971164Y-99257156D01*
X96972365Y-99279671D01*
X96973299Y-99302545D01*
X96973966Y-99325780D01*
X96974366Y-99349374D01*
X96974500Y-99373328D01*
X96974366Y-99397437D01*
X96973966Y-99421174D01*
X96973299Y-99444541D01*
X96972365Y-99467535D01*
X96971164Y-99490159D01*
X96969696Y-99512411D01*
X96967961Y-99534291D01*
X96965959Y-99555800D01*
X96963690Y-99576938D01*
X96961155Y-99597705D01*
X96958352Y-99618100D01*
X96955283Y-99638124D01*
X96951947Y-99657776D01*
X96948343Y-99677057D01*
X96944473Y-99695967D01*
X96940336Y-99714505D01*
X96935932Y-99732672D01*
X96931262Y-99750467D01*
X96926324Y-99767891D01*
X96921119Y-99784944D01*
X96915648Y-99801626D01*
X96909910Y-99817936D01*
X96903904Y-99833874D01*
X96897632Y-99849441D01*
X96891093Y-99864637D01*
X96884287Y-99879462D01*
X96877214Y-99893915D01*
X96869874Y-99907997D01*
X96862268Y-99921707D01*
X96854394Y-99935046D01*
X96846253Y-99948014D01*
X96837846Y-99960610D01*
X96829651Y-99972345D01*
X96816855Y-99989304D01*
X96803454Y-100005490D01*
X96789447Y-100020903D01*
X96774834Y-100035543D01*
X96759616Y-100049411D01*
X96743793Y-100062505D01*
X96727365Y-100074827D01*
X96710331Y-100086376D01*
X96692692Y-100097152D01*
X96674448Y-100107156D01*
X96668226Y-100110311D01*
X96649100Y-100119177D01*
X96629277Y-100127141D01*
X96608760Y-100134204D01*
X96594695Y-100138411D01*
X96580321Y-100142218D01*
X96565637Y-100145624D01*
X96550645Y-100148629D01*
X96535344Y-100151234D01*
X96519733Y-100153438D01*
X96503813Y-100155241D01*
X96487585Y-100156644D01*
X96471047Y-100157645D01*
X96454200Y-100158246D01*
X96437043Y-100158447D01*
X96420016Y-100158246D01*
X96403281Y-100157645D01*
X96386837Y-100156644D01*
X96370686Y-100155241D01*
X96354826Y-100153438D01*
X96339259Y-100151234D01*
X96323983Y-100148629D01*
X96308999Y-100145624D01*
X96294307Y-100142218D01*
X96279908Y-100138411D01*
X96258855Y-100131950D01*
X96238460Y-100124587D01*
X96218721Y-100116322D01*
X96199639Y-100107156D01*
X96187272Y-100100568D01*
X96169225Y-100090027D01*
X96151783Y-100078694D01*
X96134947Y-100066568D01*
X96118716Y-100053651D01*
X96103090Y-100039941D01*
X96088070Y-100025439D01*
X96073655Y-100010145D01*
X96059846Y-99994059D01*
X96046642Y-99977181D01*
X96034043Y-99959511D01*
X96025726Y-99946849D01*
X96017672Y-99933823D01*
X96009883Y-99920431D01*
X96002358Y-99906674D01*
X95995097Y-99892553D01*
X95988100Y-99878067D01*
X95981367Y-99863215D01*
X95974898Y-99847999D01*
X95968693Y-99832418D01*
X95962752Y-99816472D01*
X95957075Y-99800160D01*
X95951662Y-99783484D01*
X95946514Y-99766443D01*
X95941629Y-99749038D01*
X95937008Y-99731267D01*
X95932651Y-99713131D01*
X95928559Y-99694630D01*
X95924730Y-99675765D01*
X95921166Y-99656534D01*
X95917865Y-99636939D01*
X95914829Y-99616978D01*
X95912056Y-99596653D01*
X95909548Y-99575963D01*
X95907304Y-99554907D01*
X95905323Y-99533487D01*
X95903607Y-99511702D01*
X95902155Y-99489552D01*
X95900967Y-99467037D01*
X95900043Y-99444157D01*
X95899382Y-99420913D01*
X95898986Y-99397303D01*
X95898854Y-99373328D01*
X95898858Y-99372595D01*
X96213561Y-99372595D01*
X96213613Y-99389253D01*
X96213769Y-99405611D01*
X96214028Y-99421670D01*
X96214391Y-99437430D01*
X96214858Y-99452891D01*
X96215429Y-99468053D01*
X96216881Y-99497480D01*
X96218749Y-99525710D01*
X96221032Y-99552744D01*
X96223729Y-99578581D01*
X96226842Y-99603222D01*
X96230370Y-99626666D01*
X96234312Y-99648914D01*
X96238670Y-99669966D01*
X96243443Y-99689821D01*
X96248631Y-99708480D01*
X96254233Y-99725942D01*
X96260251Y-99742208D01*
X96266684Y-99757278D01*
X96270089Y-99764649D01*
X96277270Y-99778688D01*
X96284947Y-99791791D01*
X96297390Y-99809691D01*
X96310947Y-99825485D01*
X96325619Y-99839173D01*
X96341404Y-99850756D01*
X96358304Y-99860232D01*
X96376318Y-99867603D01*
X96395445Y-99872867D01*
X96415687Y-99876026D01*
X96437043Y-99877079D01*
X96451272Y-99876611D01*
X96471701Y-99874154D01*
X96491036Y-99869591D01*
X96509277Y-99862923D01*
X96526422Y-99854148D01*
X96542473Y-99843268D01*
X96557428Y-99830282D01*
X96571289Y-99815190D01*
X96584056Y-99797992D01*
X96591958Y-99785356D01*
X96599374Y-99771785D01*
X96606304Y-99757278D01*
X96609572Y-99749893D01*
X96615797Y-99734225D01*
X96621608Y-99717361D01*
X96627003Y-99699300D01*
X96631983Y-99680043D01*
X96636548Y-99659590D01*
X96640699Y-99637940D01*
X96644434Y-99615094D01*
X96647754Y-99591051D01*
X96650659Y-99565812D01*
X96653149Y-99539376D01*
X96655224Y-99511744D01*
X96656885Y-99482916D01*
X96657559Y-99468053D01*
X96658130Y-99452891D01*
X96658597Y-99437430D01*
X96658960Y-99421670D01*
X96659219Y-99405611D01*
X96659375Y-99389253D01*
X96659427Y-99372595D01*
X96659375Y-99355983D01*
X96659219Y-99339668D01*
X96658960Y-99323651D01*
X96658597Y-99307932D01*
X96658130Y-99292511D01*
X96657559Y-99277387D01*
X96656106Y-99248032D01*
X96654239Y-99219867D01*
X96651956Y-99192894D01*
X96649259Y-99167111D01*
X96646146Y-99142519D01*
X96642618Y-99119117D01*
X96638675Y-99096906D01*
X96634318Y-99075886D01*
X96629545Y-99056057D01*
X96624357Y-99037418D01*
X96618754Y-99019970D01*
X96612737Y-99003712D01*
X96606304Y-98988646D01*
X96602833Y-98981275D01*
X96595540Y-98967236D01*
X96587778Y-98954133D01*
X96575254Y-98936233D01*
X96561675Y-98920439D01*
X96547039Y-98906750D01*
X96531346Y-98895168D01*
X96514598Y-98885692D01*
X96496794Y-98878321D01*
X96477933Y-98873056D01*
X96458016Y-98869898D01*
X96437043Y-98868845D01*
X96422682Y-98869313D01*
X96402069Y-98871769D01*
X96382570Y-98876332D01*
X96364185Y-98883001D01*
X96346914Y-98891775D01*
X96330757Y-98902656D01*
X96315714Y-98915642D01*
X96301785Y-98930734D01*
X96288971Y-98947932D01*
X96281047Y-98960567D01*
X96273618Y-98974139D01*
X96266684Y-98988646D01*
X96263416Y-98996030D01*
X96257190Y-99011692D01*
X96251380Y-99028545D01*
X96245985Y-99046588D01*
X96241005Y-99065823D01*
X96236439Y-99086247D01*
X96232289Y-99107863D01*
X96228554Y-99130669D01*
X96225234Y-99154666D01*
X96222329Y-99179853D01*
X96219838Y-99206232D01*
X96217763Y-99233801D01*
X96216103Y-99262560D01*
X96215429Y-99277387D01*
X96214858Y-99292511D01*
X96214391Y-99307932D01*
X96214028Y-99323651D01*
X96213769Y-99339668D01*
X96213613Y-99355983D01*
X96213561Y-99372595D01*
X95898858Y-99372595D01*
X95898986Y-99349242D01*
X95899382Y-99325526D01*
X95900043Y-99302181D01*
X95900967Y-99279207D01*
X95902155Y-99256603D01*
X95903607Y-99234370D01*
X95905323Y-99212508D01*
X95907304Y-99191016D01*
X95909548Y-99169895D01*
X95912056Y-99149145D01*
X95914829Y-99128765D01*
X95917865Y-99108756D01*
X95921166Y-99089118D01*
X95924730Y-99069850D01*
X95928559Y-99050953D01*
X95932651Y-99032426D01*
X95937008Y-99014270D01*
X95941629Y-98996485D01*
X95946514Y-98979071D01*
X95951662Y-98962027D01*
X95957075Y-98945354D01*
X95962752Y-98929051D01*
X95968693Y-98913120D01*
X95974898Y-98897558D01*
X95981367Y-98882368D01*
X95988100Y-98867548D01*
X95995097Y-98853099D01*
X96002358Y-98839020D01*
X96009883Y-98825312D01*
X96017672Y-98811975D01*
X96025726Y-98799009D01*
X96034043Y-98786413D01*
X96042755Y-98774173D01*
X96051717Y-98762323D01*
X96070393Y-98739787D01*
X96090071Y-98718806D01*
X96110750Y-98699378D01*
X96132432Y-98681505D01*
X96155115Y-98665186D01*
X96178800Y-98650421D01*
X96203486Y-98637211D01*
X96229175Y-98625554D01*
X96255865Y-98615452D01*
X96283557Y-98606904D01*
X96297779Y-98603213D01*
X96312251Y-98599910D01*
X96326973Y-98596996D01*
X96341946Y-98594471D01*
X96357170Y-98592334D01*
X96372643Y-98590585D01*
X96388368Y-98589225D01*
X96404343Y-98588254D01*
X96420568Y-98587671D01*
X96437043Y-98587477D01*
X96452572Y-98587661D01*
G37*
G36*
X104166963Y-101388845D02*
G01*
X104555676Y-101388845D01*
X104555676Y-101130924D01*
X103476000Y-101130924D01*
X103476000Y-101388845D01*
X103864713Y-101388845D01*
X103864713Y-102655000D01*
X104166963Y-102655000D01*
X104166963Y-101388845D01*
G37*
G36*
X103244458Y-102655000D02*
G01*
X102920226Y-102655000D01*
X102896983Y-102654824D01*
X102874151Y-102654298D01*
X102851729Y-102653422D01*
X102829716Y-102652195D01*
X102808114Y-102650617D01*
X102786922Y-102648688D01*
X102766140Y-102646409D01*
X102745768Y-102643780D01*
X102725805Y-102640799D01*
X102706253Y-102637468D01*
X102687111Y-102633787D01*
X102668379Y-102629755D01*
X102650057Y-102625372D01*
X102632145Y-102620639D01*
X102614642Y-102615555D01*
X102597550Y-102610120D01*
X102580868Y-102604335D01*
X102564596Y-102598199D01*
X102548734Y-102591712D01*
X102533282Y-102584875D01*
X102518240Y-102577687D01*
X102503608Y-102570149D01*
X102489386Y-102562260D01*
X102475574Y-102554020D01*
X102462172Y-102545430D01*
X102449180Y-102536489D01*
X102436598Y-102527198D01*
X102424426Y-102517556D01*
X102412664Y-102507563D01*
X102401312Y-102497220D01*
X102390370Y-102486526D01*
X102379838Y-102475481D01*
X102369695Y-102464020D01*
X102359874Y-102452124D01*
X102350375Y-102439792D01*
X102341198Y-102427024D01*
X102332343Y-102413820D01*
X102323810Y-102400180D01*
X102315599Y-102386105D01*
X102307710Y-102371594D01*
X102300143Y-102356647D01*
X102292898Y-102341264D01*
X102285975Y-102325446D01*
X102279374Y-102309192D01*
X102273095Y-102292502D01*
X102267138Y-102275376D01*
X102261503Y-102257814D01*
X102256190Y-102239817D01*
X102251199Y-102221384D01*
X102246530Y-102202515D01*
X102242183Y-102183211D01*
X102238158Y-102163470D01*
X102234455Y-102143294D01*
X102231074Y-102122682D01*
X102228015Y-102101635D01*
X102225278Y-102080151D01*
X102222863Y-102058232D01*
X102220770Y-102035877D01*
X102218999Y-102013086D01*
X102217550Y-101989859D01*
X102216423Y-101966197D01*
X102215618Y-101942099D01*
X102215135Y-101917565D01*
X102214974Y-101892595D01*
X102214981Y-101891496D01*
X102529681Y-101891496D01*
X102529755Y-101907720D01*
X102529978Y-101923648D01*
X102530348Y-101939279D01*
X102530866Y-101954614D01*
X102531533Y-101969653D01*
X102532347Y-101984395D01*
X102534421Y-102012992D01*
X102537087Y-102040403D01*
X102540346Y-102066630D01*
X102544197Y-102091672D01*
X102548641Y-102115528D01*
X102553677Y-102138200D01*
X102559305Y-102159686D01*
X102565526Y-102179988D01*
X102572340Y-102199105D01*
X102579746Y-102217037D01*
X102587744Y-102233784D01*
X102596335Y-102249346D01*
X102605519Y-102263722D01*
X102615399Y-102277032D01*
X102626081Y-102289482D01*
X102637564Y-102301074D01*
X102649849Y-102311808D01*
X102662935Y-102321682D01*
X102676822Y-102330698D01*
X102691511Y-102338856D01*
X102707002Y-102346154D01*
X102723293Y-102352594D01*
X102740387Y-102358176D01*
X102758281Y-102362898D01*
X102776977Y-102366762D01*
X102796475Y-102369768D01*
X102816773Y-102371914D01*
X102837874Y-102373202D01*
X102859775Y-102373632D01*
X102941841Y-102373632D01*
X102941841Y-101412292D01*
X102859775Y-101412292D01*
X102837745Y-101412718D01*
X102816533Y-101413998D01*
X102796140Y-101416130D01*
X102776565Y-101419115D01*
X102757809Y-101422954D01*
X102739871Y-101427645D01*
X102722752Y-101433189D01*
X102706452Y-101439586D01*
X102690970Y-101446836D01*
X102676307Y-101454939D01*
X102662463Y-101463895D01*
X102649437Y-101473704D01*
X102637229Y-101484365D01*
X102625840Y-101495880D01*
X102615270Y-101508248D01*
X102605519Y-101521468D01*
X102596335Y-101535794D01*
X102587744Y-101551293D01*
X102579746Y-101567965D01*
X102572340Y-101585811D01*
X102565526Y-101604831D01*
X102559305Y-101625024D01*
X102553677Y-101646390D01*
X102548641Y-101668930D01*
X102544197Y-101692644D01*
X102540346Y-101717531D01*
X102537087Y-101743591D01*
X102534421Y-101770825D01*
X102532347Y-101799233D01*
X102531533Y-101813877D01*
X102530866Y-101828814D01*
X102530348Y-101844044D01*
X102529978Y-101859568D01*
X102529755Y-101875386D01*
X102529681Y-101891496D01*
X102214981Y-101891496D01*
X102215139Y-101866921D01*
X102215633Y-101841740D01*
X102216456Y-101817050D01*
X102217608Y-101792853D01*
X102219089Y-101769148D01*
X102220899Y-101745935D01*
X102223039Y-101723215D01*
X102225507Y-101700987D01*
X102228305Y-101679251D01*
X102231432Y-101658008D01*
X102234888Y-101637257D01*
X102238674Y-101616998D01*
X102242788Y-101597231D01*
X102247232Y-101577957D01*
X102252004Y-101559175D01*
X102257106Y-101540886D01*
X102262480Y-101523020D01*
X102268160Y-101505600D01*
X102274147Y-101488627D01*
X102280439Y-101472101D01*
X102287038Y-101456021D01*
X102293943Y-101440387D01*
X102301154Y-101425201D01*
X102308672Y-101410460D01*
X102316496Y-101396166D01*
X102324626Y-101382319D01*
X102333062Y-101368918D01*
X102341805Y-101355963D01*
X102350854Y-101343455D01*
X102360209Y-101331394D01*
X102369871Y-101319779D01*
X102379838Y-101308611D01*
X102390304Y-101297679D01*
X102401183Y-101287094D01*
X102412477Y-101276856D01*
X102424186Y-101266965D01*
X102436308Y-101257422D01*
X102448845Y-101248225D01*
X102461796Y-101239375D01*
X102475162Y-101230873D01*
X102488942Y-101222717D01*
X102503136Y-101214909D01*
X102517744Y-101207447D01*
X102532767Y-101200333D01*
X102548204Y-101193566D01*
X102564055Y-101187145D01*
X102580321Y-101181072D01*
X102597001Y-101175346D01*
X102614095Y-101169967D01*
X102631604Y-101164934D01*
X102649526Y-101160249D01*
X102667864Y-101155911D01*
X102686615Y-101151920D01*
X102705781Y-101148276D01*
X102725361Y-101144979D01*
X102745355Y-101142030D01*
X102765764Y-101139427D01*
X102786587Y-101137171D01*
X102807824Y-101135262D01*
X102829476Y-101133700D01*
X102851542Y-101132486D01*
X102874022Y-101131618D01*
X102896917Y-101131098D01*
X102920226Y-101130924D01*
X103244458Y-101130924D01*
X103244458Y-102655000D01*
G37*
G36*
X101945330Y-102397079D02*
G01*
X101640515Y-102397079D01*
X101640515Y-101388845D01*
X101945330Y-101388845D01*
X101945330Y-101130924D01*
X101033450Y-101130924D01*
X101033450Y-101388845D01*
X101338265Y-101388845D01*
X101338265Y-102397079D01*
X101033450Y-102397079D01*
X101033450Y-102655000D01*
X101945330Y-102655000D01*
X101945330Y-102397079D01*
G37*
G36*
X99114067Y-101388845D02*
G01*
X99502780Y-101388845D01*
X99502780Y-101130924D01*
X98423104Y-101130924D01*
X98423104Y-101388845D01*
X98811817Y-101388845D01*
X98811817Y-102655000D01*
X99114067Y-102655000D01*
X99114067Y-101388845D01*
G37*
G36*
X97553722Y-102678447D02*
G01*
X97572748Y-102678250D01*
X97591494Y-102677658D01*
X97609962Y-102676673D01*
X97628151Y-102675293D01*
X97646061Y-102673518D01*
X97663691Y-102671350D01*
X97681043Y-102668787D01*
X97698115Y-102665830D01*
X97714908Y-102662479D01*
X97731423Y-102658733D01*
X97747658Y-102654593D01*
X97763614Y-102650059D01*
X97779291Y-102645131D01*
X97794689Y-102639808D01*
X97809808Y-102634091D01*
X97824648Y-102627980D01*
X97839209Y-102621475D01*
X97853491Y-102614575D01*
X97867493Y-102607281D01*
X97881217Y-102599593D01*
X97894662Y-102591510D01*
X97907827Y-102583033D01*
X97920714Y-102574162D01*
X97933321Y-102564897D01*
X97945649Y-102555237D01*
X97957698Y-102545183D01*
X97969469Y-102534735D01*
X97980960Y-102523893D01*
X97992172Y-102512656D01*
X98003105Y-102501025D01*
X98013759Y-102489000D01*
X98024133Y-102476580D01*
X98034164Y-102463722D01*
X98043876Y-102450517D01*
X98053269Y-102436966D01*
X98062344Y-102423068D01*
X98071101Y-102408824D01*
X98079539Y-102394234D01*
X98087659Y-102379298D01*
X98095460Y-102364015D01*
X98102943Y-102348386D01*
X98110107Y-102332410D01*
X98116954Y-102316088D01*
X98123481Y-102299420D01*
X98129690Y-102282406D01*
X98135581Y-102265045D01*
X98141154Y-102247338D01*
X98146408Y-102229284D01*
X98151343Y-102210884D01*
X98155960Y-102192138D01*
X98160259Y-102173046D01*
X98164239Y-102153607D01*
X98167901Y-102133822D01*
X98171244Y-102113691D01*
X98174269Y-102093213D01*
X98176976Y-102072389D01*
X98179364Y-102051218D01*
X98181434Y-102029702D01*
X98183185Y-102007838D01*
X98184618Y-101985629D01*
X98185733Y-101963073D01*
X98186529Y-101940171D01*
X98187006Y-101916923D01*
X98187166Y-101893328D01*
X98187006Y-101869622D01*
X98186529Y-101846268D01*
X98185733Y-101823265D01*
X98184618Y-101800615D01*
X98183185Y-101778317D01*
X98181434Y-101756371D01*
X98179364Y-101734777D01*
X98176976Y-101713535D01*
X98174269Y-101692645D01*
X98171244Y-101672107D01*
X98167901Y-101651921D01*
X98164239Y-101632088D01*
X98160259Y-101612606D01*
X98155960Y-101593476D01*
X98151343Y-101574699D01*
X98146408Y-101556273D01*
X98141154Y-101538200D01*
X98135581Y-101520478D01*
X98129690Y-101503109D01*
X98123481Y-101486091D01*
X98116954Y-101469426D01*
X98110107Y-101453113D01*
X98102943Y-101437152D01*
X98095460Y-101421543D01*
X98087659Y-101406286D01*
X98079539Y-101391381D01*
X98071101Y-101376828D01*
X98062344Y-101362627D01*
X98053269Y-101348778D01*
X98043876Y-101335281D01*
X98034164Y-101322136D01*
X98024133Y-101309344D01*
X98013759Y-101296924D01*
X98003105Y-101284899D01*
X97992172Y-101273268D01*
X97980960Y-101262031D01*
X97969469Y-101251189D01*
X97957698Y-101240740D01*
X97945649Y-101230686D01*
X97933321Y-101221027D01*
X97920714Y-101211761D01*
X97907827Y-101202890D01*
X97894662Y-101194414D01*
X97881217Y-101186331D01*
X97867493Y-101178643D01*
X97853491Y-101171349D01*
X97839209Y-101164449D01*
X97824648Y-101157943D01*
X97809808Y-101151832D01*
X97794689Y-101146115D01*
X97779291Y-101140793D01*
X97763614Y-101135864D01*
X97747658Y-101131330D01*
X97731423Y-101127190D01*
X97714908Y-101123445D01*
X97698115Y-101120093D01*
X97681043Y-101117136D01*
X97663691Y-101114574D01*
X97646061Y-101112405D01*
X97628151Y-101110631D01*
X97609962Y-101109251D01*
X97591494Y-101108265D01*
X97572748Y-101107674D01*
X97553722Y-101107477D01*
X97537044Y-101107647D01*
X97520534Y-101108159D01*
X97504192Y-101109013D01*
X97488017Y-101110207D01*
X97472009Y-101111743D01*
X97456169Y-101113621D01*
X97440496Y-101115839D01*
X97424991Y-101118399D01*
X97409653Y-101121300D01*
X97394482Y-101124543D01*
X97384461Y-101126894D01*
X97369573Y-101130771D01*
X97354859Y-101134983D01*
X97340319Y-101139529D01*
X97325952Y-101144411D01*
X97311759Y-101149627D01*
X97297740Y-101155179D01*
X97283896Y-101161065D01*
X97270225Y-101167286D01*
X97256727Y-101173842D01*
X97243404Y-101180733D01*
X97234618Y-101185512D01*
X97234618Y-101535757D01*
X97246010Y-101524628D01*
X97257104Y-101514141D01*
X97270553Y-101501934D01*
X97283537Y-101490728D01*
X97296055Y-101480524D01*
X97308109Y-101471322D01*
X97317417Y-101464682D01*
X97330889Y-101455426D01*
X97344104Y-101446890D01*
X97357061Y-101439077D01*
X97371853Y-101430872D01*
X97386293Y-101423649D01*
X97400929Y-101417140D01*
X97415436Y-101411353D01*
X97429815Y-101406287D01*
X97444064Y-101401942D01*
X97460526Y-101397785D01*
X97462863Y-101397271D01*
X97479247Y-101393988D01*
X97495702Y-101391511D01*
X97512226Y-101389840D01*
X97528820Y-101388976D01*
X97538334Y-101388845D01*
X97558542Y-101389340D01*
X97578131Y-101390825D01*
X97597102Y-101393301D01*
X97615454Y-101396767D01*
X97633188Y-101401224D01*
X97650305Y-101406670D01*
X97666802Y-101413108D01*
X97682682Y-101420535D01*
X97697943Y-101428953D01*
X97712586Y-101438361D01*
X97726611Y-101448759D01*
X97740018Y-101460148D01*
X97752806Y-101472527D01*
X97764977Y-101485897D01*
X97776528Y-101500257D01*
X97787462Y-101515607D01*
X97797755Y-101532238D01*
X97807383Y-101549799D01*
X97816348Y-101568290D01*
X97824648Y-101587712D01*
X97832285Y-101608064D01*
X97839257Y-101629346D01*
X97845565Y-101651558D01*
X97851210Y-101674700D01*
X97856190Y-101698773D01*
X97860506Y-101723776D01*
X97864158Y-101749709D01*
X97867146Y-101776572D01*
X97869471Y-101804366D01*
X97871131Y-101833090D01*
X97871712Y-101847801D01*
X97872127Y-101862744D01*
X97872376Y-101877920D01*
X97872459Y-101893328D01*
X97872376Y-101908802D01*
X97872127Y-101924036D01*
X97871712Y-101939030D01*
X97871131Y-101953784D01*
X97869471Y-101982574D01*
X97867146Y-102010404D01*
X97864158Y-102037276D01*
X97860506Y-102063190D01*
X97856190Y-102088144D01*
X97851210Y-102112139D01*
X97845565Y-102135176D01*
X97839257Y-102157254D01*
X97832285Y-102178372D01*
X97824648Y-102198533D01*
X97816348Y-102217734D01*
X97807383Y-102235976D01*
X97797755Y-102253260D01*
X97787462Y-102269584D01*
X97776528Y-102285023D01*
X97764977Y-102299466D01*
X97752806Y-102312913D01*
X97740018Y-102325363D01*
X97726611Y-102336818D01*
X97712586Y-102347276D01*
X97697943Y-102356739D01*
X97682682Y-102365205D01*
X97666802Y-102372676D01*
X97650305Y-102379150D01*
X97633188Y-102384628D01*
X97615454Y-102389111D01*
X97597102Y-102392597D01*
X97578131Y-102395087D01*
X97558542Y-102396581D01*
X97538334Y-102397079D01*
X97523545Y-102396796D01*
X97508852Y-102395946D01*
X97494256Y-102394529D01*
X97474944Y-102391758D01*
X97455805Y-102387980D01*
X97441563Y-102384485D01*
X97427417Y-102380424D01*
X97413368Y-102375796D01*
X97399416Y-102370601D01*
X97385561Y-102364839D01*
X97372122Y-102358811D01*
X97358736Y-102352268D01*
X97345401Y-102345210D01*
X97332117Y-102337636D01*
X97318885Y-102329548D01*
X97314486Y-102326737D01*
X97300850Y-102317567D01*
X97286596Y-102307366D01*
X97274246Y-102298078D01*
X97261466Y-102288074D01*
X97248257Y-102277355D01*
X97234618Y-102265921D01*
X97234618Y-102602976D01*
X97248147Y-102609884D01*
X97261804Y-102616457D01*
X97275590Y-102622695D01*
X97289504Y-102628598D01*
X97303548Y-102634167D01*
X97317720Y-102639400D01*
X97332021Y-102644299D01*
X97346451Y-102648863D01*
X97361010Y-102653092D01*
X97375697Y-102656986D01*
X97385561Y-102659396D01*
X97400423Y-102662800D01*
X97415472Y-102665870D01*
X97430708Y-102668605D01*
X97446131Y-102671005D01*
X97461740Y-102673070D01*
X97477537Y-102674800D01*
X97493520Y-102676196D01*
X97509689Y-102677256D01*
X97526046Y-102677982D01*
X97542589Y-102678372D01*
X97553722Y-102678447D01*
G37*
G36*
X96948854Y-101130924D02*
G01*
X96646237Y-101130924D01*
X96646237Y-101746050D01*
X96172528Y-101130924D01*
X95829978Y-101130924D01*
X96312846Y-101743852D01*
X95812392Y-102655000D01*
X96148715Y-102655000D01*
X96511782Y-101978325D01*
X96646237Y-102145753D01*
X96646237Y-102655000D01*
X96948854Y-102655000D01*
X96948854Y-101130924D01*
G37*
G36*
X104511712Y-105175000D02*
G01*
X104209095Y-105175000D01*
X104209095Y-104565369D01*
X104112741Y-104565369D01*
X104098556Y-104566039D01*
X104081372Y-104568760D01*
X104064796Y-104573574D01*
X104048829Y-104580481D01*
X104033469Y-104589481D01*
X104021620Y-104598188D01*
X104010159Y-104608234D01*
X104004534Y-104613772D01*
X103993325Y-104625931D01*
X103982174Y-104639532D01*
X103971080Y-104654576D01*
X103962797Y-104666806D01*
X103954546Y-104679847D01*
X103946328Y-104693699D01*
X103938142Y-104708363D01*
X103929987Y-104723838D01*
X103921866Y-104740125D01*
X103900616Y-104785554D01*
X103715969Y-105175000D01*
X103383676Y-105175000D01*
X103660648Y-104625087D01*
X103666973Y-104612653D01*
X103674639Y-104597949D01*
X103682036Y-104584174D01*
X103690558Y-104568873D01*
X103698694Y-104554911D01*
X103706443Y-104542288D01*
X103712518Y-104532739D01*
X103721792Y-104519172D01*
X103731568Y-104506428D01*
X103741614Y-104495394D01*
X103747536Y-104489794D01*
X103760287Y-104479619D01*
X103774249Y-104470809D01*
X103789422Y-104463364D01*
X103805805Y-104457285D01*
X103820383Y-104453262D01*
X103801515Y-104450423D01*
X103783380Y-104447034D01*
X103765978Y-104443095D01*
X103749308Y-104438607D01*
X103733371Y-104433570D01*
X103718167Y-104427983D01*
X103703696Y-104421846D01*
X103689957Y-104415160D01*
X103676756Y-104407850D01*
X103664082Y-104400025D01*
X103651935Y-104391684D01*
X103637492Y-104380534D01*
X103623871Y-104368579D01*
X103611073Y-104355819D01*
X103599099Y-104342254D01*
X103589619Y-104330312D01*
X103580780Y-104317936D01*
X103572583Y-104305125D01*
X103565027Y-104291878D01*
X103558112Y-104278197D01*
X103551838Y-104264081D01*
X103546205Y-104249529D01*
X103541213Y-104234542D01*
X103537808Y-104222855D01*
X103533790Y-104206600D01*
X103530367Y-104189579D01*
X103527539Y-104171790D01*
X103525306Y-104153234D01*
X103523669Y-104133911D01*
X103522832Y-104118916D01*
X103522470Y-104107780D01*
X103835037Y-104107780D01*
X103835051Y-104111695D01*
X103835386Y-104126882D01*
X103836433Y-104144803D01*
X103838177Y-104161544D01*
X103840619Y-104177103D01*
X103844470Y-104194217D01*
X103849325Y-104209630D01*
X103853058Y-104219092D01*
X103860361Y-104234467D01*
X103868645Y-104248334D01*
X103877912Y-104260693D01*
X103888160Y-104271545D01*
X103902809Y-104283395D01*
X103915231Y-104291245D01*
X103928882Y-104298207D01*
X103943764Y-104304280D01*
X103959876Y-104309464D01*
X103977218Y-104313759D01*
X103995790Y-104317166D01*
X104015591Y-104319684D01*
X104036623Y-104321314D01*
X104051328Y-104321906D01*
X104066579Y-104322103D01*
X104209095Y-104322103D01*
X104209095Y-103894190D01*
X104066579Y-103894190D01*
X104058885Y-103894238D01*
X104043907Y-103894625D01*
X104022465Y-103895929D01*
X104002253Y-103898102D01*
X103983272Y-103901145D01*
X103965520Y-103905058D01*
X103948998Y-103909839D01*
X103933706Y-103915490D01*
X103919644Y-103922011D01*
X103902809Y-103932057D01*
X103888160Y-103943649D01*
X103878666Y-103953309D01*
X103867461Y-103968032D01*
X103857915Y-103984862D01*
X103851846Y-103998867D01*
X103846710Y-104014057D01*
X103842508Y-104030432D01*
X103839239Y-104047991D01*
X103836905Y-104066736D01*
X103835504Y-104086666D01*
X103835037Y-104107780D01*
X103522470Y-104107780D01*
X103522330Y-104103489D01*
X103522162Y-104087630D01*
X103522287Y-104073856D01*
X103522940Y-104053575D01*
X103524154Y-104033752D01*
X103525928Y-104014386D01*
X103528263Y-103995477D01*
X103531158Y-103977025D01*
X103534613Y-103959031D01*
X103538628Y-103941494D01*
X103543204Y-103924414D01*
X103548340Y-103907791D01*
X103554036Y-103891625D01*
X103558104Y-103881130D01*
X103564696Y-103865869D01*
X103571873Y-103851188D01*
X103579637Y-103837087D01*
X103587986Y-103823565D01*
X103596922Y-103810622D01*
X103606443Y-103798260D01*
X103616551Y-103786477D01*
X103627244Y-103775273D01*
X103638524Y-103764649D01*
X103650390Y-103754605D01*
X103667159Y-103742050D01*
X103685229Y-103730305D01*
X103704597Y-103719370D01*
X103725265Y-103709245D01*
X103747233Y-103699930D01*
X103770500Y-103691425D01*
X103795066Y-103683729D01*
X103820932Y-103676844D01*
X103848097Y-103670769D01*
X103876562Y-103665504D01*
X103891282Y-103663176D01*
X103906327Y-103661049D01*
X103921696Y-103659125D01*
X103937390Y-103657404D01*
X103953409Y-103655885D01*
X103969753Y-103654569D01*
X103986422Y-103653455D01*
X104003416Y-103652544D01*
X104020734Y-103651835D01*
X104038378Y-103651329D01*
X104056346Y-103651025D01*
X104074639Y-103650924D01*
X104511712Y-103650924D01*
X104511712Y-105175000D01*
G37*
G36*
X102787968Y-105198447D02*
G01*
X102803310Y-105198355D01*
X102818560Y-105198080D01*
X102833718Y-105197622D01*
X102848785Y-105196981D01*
X102863760Y-105196157D01*
X102878643Y-105195150D01*
X102893435Y-105193959D01*
X102908136Y-105192585D01*
X102922704Y-105190994D01*
X102937284Y-105189150D01*
X102951876Y-105187055D01*
X102966479Y-105184708D01*
X102981094Y-105182109D01*
X102995720Y-105179258D01*
X103010357Y-105176156D01*
X103025006Y-105172801D01*
X103039781Y-105169361D01*
X103054429Y-105165726D01*
X103068952Y-105161896D01*
X103083349Y-105157872D01*
X103097620Y-105153653D01*
X103111765Y-105149240D01*
X103125785Y-105144631D01*
X103139678Y-105139829D01*
X103160281Y-105132259D01*
X103180602Y-105124252D01*
X103200639Y-105115807D01*
X103220392Y-105106924D01*
X103239863Y-105097604D01*
X103246290Y-105094399D01*
X103246290Y-104785921D01*
X103231076Y-104796465D01*
X103215933Y-104806666D01*
X103200862Y-104816524D01*
X103185863Y-104826038D01*
X103170935Y-104835208D01*
X103156078Y-104844035D01*
X103141294Y-104852519D01*
X103126580Y-104860659D01*
X103111939Y-104868456D01*
X103097368Y-104875909D01*
X103082870Y-104883019D01*
X103068443Y-104889785D01*
X103054087Y-104896208D01*
X103039803Y-104902287D01*
X103025591Y-104908023D01*
X103011450Y-104913415D01*
X102997148Y-104918473D01*
X102982908Y-104923204D01*
X102968732Y-104927609D01*
X102954618Y-104931688D01*
X102933566Y-104937194D01*
X102912655Y-104941966D01*
X102891886Y-104946004D01*
X102871259Y-104949308D01*
X102850773Y-104951877D01*
X102830429Y-104953713D01*
X102810227Y-104954814D01*
X102790166Y-104955181D01*
X102769450Y-104954733D01*
X102749616Y-104953391D01*
X102730664Y-104951153D01*
X102712594Y-104948020D01*
X102695407Y-104943991D01*
X102679102Y-104939068D01*
X102663679Y-104933250D01*
X102649139Y-104926536D01*
X102635481Y-104918927D01*
X102622705Y-104910423D01*
X102614678Y-104904256D01*
X102603678Y-104894557D01*
X102590695Y-104880512D01*
X102579636Y-104865196D01*
X102570499Y-104848609D01*
X102563287Y-104830752D01*
X102559139Y-104816525D01*
X102556074Y-104801583D01*
X102554090Y-104785926D01*
X102553189Y-104769555D01*
X102553129Y-104763939D01*
X102553770Y-104746674D01*
X102555693Y-104730050D01*
X102558899Y-104714067D01*
X102563387Y-104698726D01*
X102569157Y-104684026D01*
X102576210Y-104669966D01*
X102584544Y-104656548D01*
X102594161Y-104643771D01*
X102604039Y-104632546D01*
X102614758Y-104621953D01*
X102626318Y-104611990D01*
X102638720Y-104602658D01*
X102646185Y-104597609D01*
X102659662Y-104589217D01*
X102673804Y-104581351D01*
X102688613Y-104574010D01*
X102704088Y-104567195D01*
X102713230Y-104563538D01*
X102861974Y-104507484D01*
X102876512Y-104501895D01*
X102890728Y-104496304D01*
X102904619Y-104490710D01*
X102918188Y-104485113D01*
X102937934Y-104476712D01*
X102956952Y-104468304D01*
X102975243Y-104459890D01*
X102992806Y-104451470D01*
X103009641Y-104443043D01*
X103025749Y-104434610D01*
X103041128Y-104426171D01*
X103055780Y-104417725D01*
X103069684Y-104409194D01*
X103082957Y-104400637D01*
X103095599Y-104392055D01*
X103107609Y-104383447D01*
X103122642Y-104371929D01*
X103136552Y-104360366D01*
X103149341Y-104348756D01*
X103161007Y-104337102D01*
X103171551Y-104325401D01*
X103181356Y-104313541D01*
X103190528Y-104301135D01*
X103199067Y-104288182D01*
X103206974Y-104274682D01*
X103214249Y-104260636D01*
X103220890Y-104246043D01*
X103226900Y-104230903D01*
X103232276Y-104215217D01*
X103237020Y-104198984D01*
X103241132Y-104182204D01*
X103244611Y-104164877D01*
X103247458Y-104147004D01*
X103249672Y-104128584D01*
X103251253Y-104109618D01*
X103252202Y-104090105D01*
X103252518Y-104070045D01*
X103251997Y-104044434D01*
X103250434Y-104019532D01*
X103247830Y-103995341D01*
X103244183Y-103971859D01*
X103239495Y-103949087D01*
X103233765Y-103927025D01*
X103226993Y-103905673D01*
X103219179Y-103885031D01*
X103210323Y-103865098D01*
X103200426Y-103845876D01*
X103189486Y-103827363D01*
X103177505Y-103809560D01*
X103164482Y-103792467D01*
X103150417Y-103776083D01*
X103135310Y-103760410D01*
X103119161Y-103745446D01*
X103101979Y-103731161D01*
X103084048Y-103717797D01*
X103065366Y-103705355D01*
X103045934Y-103693835D01*
X103025753Y-103683236D01*
X103004821Y-103673559D01*
X102983140Y-103664803D01*
X102960709Y-103656969D01*
X102937528Y-103650057D01*
X102913597Y-103644066D01*
X102888916Y-103638997D01*
X102863485Y-103634850D01*
X102837304Y-103631624D01*
X102810374Y-103629320D01*
X102782693Y-103627938D01*
X102754263Y-103627477D01*
X102733031Y-103627673D01*
X102712063Y-103628262D01*
X102691360Y-103629245D01*
X102670920Y-103630620D01*
X102650745Y-103632387D01*
X102630834Y-103634548D01*
X102611186Y-103637101D01*
X102591803Y-103640048D01*
X102572684Y-103643387D01*
X102553828Y-103647119D01*
X102541405Y-103649825D01*
X102522761Y-103654185D01*
X102503924Y-103659021D01*
X102484894Y-103664334D01*
X102465671Y-103670124D01*
X102446254Y-103676390D01*
X102426644Y-103683133D01*
X102406841Y-103690352D01*
X102386845Y-103698048D01*
X102366656Y-103706220D01*
X102353089Y-103711933D01*
X102339436Y-103717858D01*
X102332577Y-103720900D01*
X102332577Y-104010694D01*
X102344900Y-104002084D01*
X102357230Y-103993747D01*
X102369567Y-103985683D01*
X102394262Y-103970376D01*
X102418986Y-103956162D01*
X102443738Y-103943042D01*
X102468519Y-103931015D01*
X102493329Y-103920081D01*
X102518167Y-103910241D01*
X102543034Y-103901494D01*
X102567930Y-103893840D01*
X102592854Y-103887280D01*
X102617807Y-103881813D01*
X102642788Y-103877440D01*
X102667798Y-103874159D01*
X102692837Y-103871973D01*
X102717905Y-103870879D01*
X102730449Y-103870743D01*
X102750783Y-103871126D01*
X102770158Y-103872275D01*
X102788573Y-103874191D01*
X102806029Y-103876874D01*
X102822525Y-103880322D01*
X102838061Y-103884537D01*
X102852638Y-103889519D01*
X102866256Y-103895266D01*
X102882919Y-103904122D01*
X102897877Y-103914340D01*
X102911530Y-103925898D01*
X102923363Y-103938589D01*
X102933375Y-103952413D01*
X102941566Y-103967371D01*
X102947938Y-103983463D01*
X102952489Y-104000688D01*
X102955219Y-104019046D01*
X102956129Y-104038538D01*
X102955460Y-104054200D01*
X102953450Y-104069129D01*
X102949055Y-104086760D01*
X102942567Y-104103247D01*
X102933985Y-104118588D01*
X102923311Y-104132785D01*
X102913265Y-104143318D01*
X102901747Y-104153622D01*
X102889603Y-104162713D01*
X102875531Y-104171874D01*
X102861934Y-104179782D01*
X102852082Y-104185083D01*
X102838515Y-104191902D01*
X102823231Y-104199080D01*
X102809767Y-104205079D01*
X102795204Y-104211307D01*
X102779542Y-104217764D01*
X102762781Y-104224450D01*
X102744920Y-104231365D01*
X102735578Y-104234909D01*
X102605519Y-104283635D01*
X102582690Y-104292356D01*
X102560639Y-104301392D01*
X102539367Y-104310743D01*
X102518874Y-104320409D01*
X102499159Y-104330390D01*
X102480222Y-104340685D01*
X102462064Y-104351295D01*
X102444685Y-104362220D01*
X102428084Y-104373460D01*
X102412262Y-104385015D01*
X102397218Y-104396885D01*
X102382952Y-104409069D01*
X102369466Y-104421569D01*
X102356757Y-104434383D01*
X102344828Y-104447512D01*
X102333676Y-104460956D01*
X102323118Y-104475038D01*
X102313240Y-104489624D01*
X102304044Y-104504713D01*
X102295529Y-104520307D01*
X102287695Y-104536404D01*
X102280542Y-104553005D01*
X102274071Y-104570109D01*
X102268280Y-104587718D01*
X102263171Y-104605830D01*
X102258743Y-104624446D01*
X102254997Y-104643565D01*
X102251931Y-104663189D01*
X102249547Y-104683316D01*
X102247844Y-104703947D01*
X102246822Y-104725081D01*
X102246482Y-104746720D01*
X102247018Y-104774400D01*
X102248628Y-104801205D01*
X102251312Y-104827134D01*
X102255068Y-104852187D01*
X102259898Y-104876364D01*
X102265802Y-104899665D01*
X102272778Y-104922091D01*
X102280828Y-104943640D01*
X102289952Y-104964314D01*
X102300148Y-104984112D01*
X102311418Y-105003034D01*
X102323762Y-105021081D01*
X102337178Y-105038251D01*
X102351668Y-105054546D01*
X102367232Y-105069965D01*
X102383868Y-105084508D01*
X102401547Y-105098305D01*
X102420236Y-105111212D01*
X102439935Y-105123229D01*
X102460645Y-105134356D01*
X102482364Y-105144593D01*
X102505095Y-105153939D01*
X102528836Y-105162396D01*
X102553587Y-105169962D01*
X102579348Y-105176638D01*
X102606120Y-105182424D01*
X102633902Y-105187320D01*
X102662694Y-105191326D01*
X102677470Y-105192995D01*
X102692497Y-105194441D01*
X102707778Y-105195665D01*
X102723311Y-105196667D01*
X102739096Y-105197445D01*
X102755134Y-105198002D01*
X102771425Y-105198336D01*
X102787968Y-105198447D01*
G37*
G36*
X101640515Y-103908845D02*
G01*
X102029228Y-103908845D01*
X102029228Y-103650924D01*
X100949552Y-103650924D01*
X100949552Y-103908845D01*
X101338265Y-103908845D01*
X101338265Y-105175000D01*
X101640515Y-105175000D01*
X101640515Y-103908845D01*
G37*
G36*
X99114067Y-103908845D02*
G01*
X99502780Y-103908845D01*
X99502780Y-103650924D01*
X98423104Y-103650924D01*
X98423104Y-103908845D01*
X98811817Y-103908845D01*
X98811817Y-105175000D01*
X99114067Y-105175000D01*
X99114067Y-103908845D01*
G37*
G36*
X98243586Y-103650924D02*
G01*
X97882717Y-103650924D01*
X97700267Y-104323935D01*
X97518917Y-103650924D01*
X97155850Y-103650924D01*
X97155850Y-105175000D01*
X97416335Y-105175000D01*
X97416335Y-103963433D01*
X97578268Y-104620324D01*
X97819336Y-104620324D01*
X97983101Y-103963433D01*
X97983101Y-105175000D01*
X98243586Y-105175000D01*
X98243586Y-103650924D01*
G37*
G36*
X96471848Y-105198447D02*
G01*
X96487190Y-105198355D01*
X96502439Y-105198080D01*
X96517598Y-105197622D01*
X96532665Y-105196981D01*
X96547640Y-105196157D01*
X96562523Y-105195150D01*
X96577315Y-105193959D01*
X96592016Y-105192585D01*
X96606584Y-105190994D01*
X96621164Y-105189150D01*
X96635756Y-105187055D01*
X96650359Y-105184708D01*
X96664974Y-105182109D01*
X96679600Y-105179258D01*
X96694237Y-105176156D01*
X96708886Y-105172801D01*
X96723661Y-105169361D01*
X96738309Y-105165726D01*
X96752832Y-105161896D01*
X96767229Y-105157872D01*
X96781500Y-105153653D01*
X96795645Y-105149240D01*
X96809665Y-105144631D01*
X96823558Y-105139829D01*
X96844161Y-105132259D01*
X96864482Y-105124252D01*
X96884519Y-105115807D01*
X96904272Y-105106924D01*
X96923743Y-105097604D01*
X96930170Y-105094399D01*
X96930170Y-104785921D01*
X96914956Y-104796465D01*
X96899813Y-104806666D01*
X96884742Y-104816524D01*
X96869743Y-104826038D01*
X96854815Y-104835208D01*
X96839958Y-104844035D01*
X96825173Y-104852519D01*
X96810460Y-104860659D01*
X96795819Y-104868456D01*
X96781248Y-104875909D01*
X96766750Y-104883019D01*
X96752323Y-104889785D01*
X96737967Y-104896208D01*
X96723683Y-104902287D01*
X96709471Y-104908023D01*
X96695330Y-104913415D01*
X96681028Y-104918473D01*
X96666788Y-104923204D01*
X96652612Y-104927609D01*
X96638498Y-104931688D01*
X96617446Y-104937194D01*
X96596535Y-104941966D01*
X96575766Y-104946004D01*
X96555139Y-104949308D01*
X96534653Y-104951877D01*
X96514309Y-104953713D01*
X96494107Y-104954814D01*
X96474046Y-104955181D01*
X96453330Y-104954733D01*
X96433496Y-104953391D01*
X96414544Y-104951153D01*
X96396474Y-104948020D01*
X96379287Y-104943991D01*
X96362982Y-104939068D01*
X96347559Y-104933250D01*
X96333019Y-104926536D01*
X96319361Y-104918927D01*
X96306585Y-104910423D01*
X96298558Y-104904256D01*
X96287558Y-104894557D01*
X96274575Y-104880512D01*
X96263516Y-104865196D01*
X96254379Y-104848609D01*
X96247167Y-104830752D01*
X96243019Y-104816525D01*
X96239954Y-104801583D01*
X96237970Y-104785926D01*
X96237069Y-104769555D01*
X96237009Y-104763939D01*
X96237650Y-104746674D01*
X96239573Y-104730050D01*
X96242779Y-104714067D01*
X96247267Y-104698726D01*
X96253037Y-104684026D01*
X96260090Y-104669966D01*
X96268424Y-104656548D01*
X96278041Y-104643771D01*
X96287919Y-104632546D01*
X96298638Y-104621953D01*
X96310198Y-104611990D01*
X96322600Y-104602658D01*
X96330065Y-104597609D01*
X96343542Y-104589217D01*
X96357684Y-104581351D01*
X96372493Y-104574010D01*
X96387968Y-104567195D01*
X96397110Y-104563538D01*
X96545854Y-104507484D01*
X96560392Y-104501895D01*
X96574608Y-104496304D01*
X96588499Y-104490710D01*
X96602068Y-104485113D01*
X96621814Y-104476712D01*
X96640832Y-104468304D01*
X96659123Y-104459890D01*
X96676686Y-104451470D01*
X96693521Y-104443043D01*
X96709628Y-104434610D01*
X96725008Y-104426171D01*
X96739660Y-104417725D01*
X96753564Y-104409194D01*
X96766837Y-104400637D01*
X96779479Y-104392055D01*
X96791489Y-104383447D01*
X96806522Y-104371929D01*
X96820432Y-104360366D01*
X96833221Y-104348756D01*
X96844887Y-104337102D01*
X96855431Y-104325401D01*
X96865236Y-104313541D01*
X96874408Y-104301135D01*
X96882947Y-104288182D01*
X96890854Y-104274682D01*
X96898129Y-104260636D01*
X96904770Y-104246043D01*
X96910780Y-104230903D01*
X96916156Y-104215217D01*
X96920900Y-104198984D01*
X96925012Y-104182204D01*
X96928491Y-104164877D01*
X96931338Y-104147004D01*
X96933551Y-104128584D01*
X96935133Y-104109618D01*
X96936082Y-104090105D01*
X96936398Y-104070045D01*
X96935877Y-104044434D01*
X96934314Y-104019532D01*
X96931710Y-103995341D01*
X96928063Y-103971859D01*
X96923375Y-103949087D01*
X96917645Y-103927025D01*
X96910873Y-103905673D01*
X96903059Y-103885031D01*
X96894203Y-103865098D01*
X96884306Y-103845876D01*
X96873366Y-103827363D01*
X96861385Y-103809560D01*
X96848362Y-103792467D01*
X96834297Y-103776083D01*
X96819190Y-103760410D01*
X96803041Y-103745446D01*
X96785859Y-103731161D01*
X96767928Y-103717797D01*
X96749246Y-103705355D01*
X96729814Y-103693835D01*
X96709633Y-103683236D01*
X96688701Y-103673559D01*
X96667020Y-103664803D01*
X96644589Y-103656969D01*
X96621408Y-103650057D01*
X96597477Y-103644066D01*
X96572796Y-103638997D01*
X96547365Y-103634850D01*
X96521184Y-103631624D01*
X96494254Y-103629320D01*
X96466573Y-103627938D01*
X96438143Y-103627477D01*
X96416911Y-103627673D01*
X96395943Y-103628262D01*
X96375240Y-103629245D01*
X96354800Y-103630620D01*
X96334625Y-103632387D01*
X96314714Y-103634548D01*
X96295066Y-103637101D01*
X96275683Y-103640048D01*
X96256564Y-103643387D01*
X96237708Y-103647119D01*
X96225285Y-103649825D01*
X96206641Y-103654185D01*
X96187804Y-103659021D01*
X96168774Y-103664334D01*
X96149551Y-103670124D01*
X96130134Y-103676390D01*
X96110524Y-103683133D01*
X96090721Y-103690352D01*
X96070725Y-103698048D01*
X96050536Y-103706220D01*
X96036969Y-103711933D01*
X96023316Y-103717858D01*
X96016457Y-103720900D01*
X96016457Y-104010694D01*
X96028780Y-104002084D01*
X96041110Y-103993747D01*
X96053446Y-103985683D01*
X96078142Y-103970376D01*
X96102866Y-103956162D01*
X96127618Y-103943042D01*
X96152399Y-103931015D01*
X96177209Y-103920081D01*
X96202047Y-103910241D01*
X96226914Y-103901494D01*
X96251810Y-103893840D01*
X96276734Y-103887280D01*
X96301687Y-103881813D01*
X96326668Y-103877440D01*
X96351678Y-103874159D01*
X96376717Y-103871973D01*
X96401784Y-103870879D01*
X96414329Y-103870743D01*
X96434663Y-103871126D01*
X96454038Y-103872275D01*
X96472453Y-103874191D01*
X96489909Y-103876874D01*
X96506405Y-103880322D01*
X96521941Y-103884537D01*
X96536518Y-103889519D01*
X96550136Y-103895266D01*
X96566799Y-103904122D01*
X96581757Y-103914340D01*
X96595410Y-103925898D01*
X96607243Y-103938589D01*
X96617255Y-103952413D01*
X96625446Y-103967371D01*
X96631818Y-103983463D01*
X96636369Y-104000688D01*
X96639099Y-104019046D01*
X96640009Y-104038538D01*
X96639340Y-104054200D01*
X96637330Y-104069129D01*
X96632935Y-104086760D01*
X96626447Y-104103247D01*
X96617865Y-104118588D01*
X96607191Y-104132785D01*
X96597145Y-104143318D01*
X96585627Y-104153622D01*
X96573483Y-104162713D01*
X96559411Y-104171874D01*
X96545814Y-104179782D01*
X96535962Y-104185083D01*
X96522395Y-104191902D01*
X96507111Y-104199080D01*
X96493647Y-104205079D01*
X96479084Y-104211307D01*
X96463422Y-104217764D01*
X96446661Y-104224450D01*
X96428800Y-104231365D01*
X96419458Y-104234909D01*
X96289399Y-104283635D01*
X96266570Y-104292356D01*
X96244519Y-104301392D01*
X96223247Y-104310743D01*
X96202754Y-104320409D01*
X96183039Y-104330390D01*
X96164102Y-104340685D01*
X96145944Y-104351295D01*
X96128565Y-104362220D01*
X96111964Y-104373460D01*
X96096142Y-104385015D01*
X96081098Y-104396885D01*
X96066832Y-104409069D01*
X96053346Y-104421569D01*
X96040637Y-104434383D01*
X96028708Y-104447512D01*
X96017556Y-104460956D01*
X96006998Y-104475038D01*
X95997120Y-104489624D01*
X95987924Y-104504713D01*
X95979409Y-104520307D01*
X95971575Y-104536404D01*
X95964422Y-104553005D01*
X95957951Y-104570109D01*
X95952160Y-104587718D01*
X95947051Y-104605830D01*
X95942623Y-104624446D01*
X95938877Y-104643565D01*
X95935811Y-104663189D01*
X95933427Y-104683316D01*
X95931724Y-104703947D01*
X95930702Y-104725081D01*
X95930362Y-104746720D01*
X95930898Y-104774400D01*
X95932508Y-104801205D01*
X95935192Y-104827134D01*
X95938948Y-104852187D01*
X95943778Y-104876364D01*
X95949682Y-104899665D01*
X95956658Y-104922091D01*
X95964708Y-104943640D01*
X95973832Y-104964314D01*
X95984028Y-104984112D01*
X95995298Y-105003034D01*
X96007642Y-105021081D01*
X96021058Y-105038251D01*
X96035548Y-105054546D01*
X96051112Y-105069965D01*
X96067748Y-105084508D01*
X96085427Y-105098305D01*
X96104116Y-105111212D01*
X96123815Y-105123229D01*
X96144524Y-105134356D01*
X96166244Y-105144593D01*
X96188975Y-105153939D01*
X96212715Y-105162396D01*
X96237467Y-105169962D01*
X96263228Y-105176638D01*
X96290000Y-105182424D01*
X96317782Y-105187320D01*
X96346574Y-105191326D01*
X96361350Y-105192995D01*
X96376377Y-105194441D01*
X96391658Y-105195665D01*
X96407191Y-105196667D01*
X96422976Y-105197445D01*
X96439014Y-105198002D01*
X96455305Y-105198336D01*
X96471848Y-105198447D01*
G37*
G36*
X103909775Y-107718447D02*
G01*
X103928100Y-107718248D01*
X103946161Y-107717651D01*
X103963961Y-107716656D01*
X103981497Y-107715264D01*
X103998771Y-107713474D01*
X104015782Y-107711286D01*
X104032531Y-107708700D01*
X104049017Y-107705716D01*
X104065240Y-107702334D01*
X104081201Y-107698554D01*
X104096899Y-107694377D01*
X104112335Y-107689802D01*
X104127508Y-107684829D01*
X104142418Y-107679458D01*
X104157066Y-107673689D01*
X104171451Y-107667522D01*
X104185574Y-107660958D01*
X104199434Y-107653995D01*
X104213031Y-107646635D01*
X104226366Y-107638877D01*
X104239438Y-107630721D01*
X104252247Y-107622167D01*
X104264794Y-107613216D01*
X104277079Y-107603866D01*
X104289100Y-107594119D01*
X104300859Y-107583974D01*
X104312356Y-107573431D01*
X104323590Y-107562490D01*
X104334561Y-107551151D01*
X104345270Y-107539415D01*
X104355716Y-107527281D01*
X104365899Y-107514748D01*
X104375383Y-107502385D01*
X104384601Y-107489658D01*
X104393552Y-107476568D01*
X104402238Y-107463114D01*
X104410657Y-107449296D01*
X104418810Y-107435116D01*
X104426697Y-107420571D01*
X104434318Y-107405663D01*
X104441672Y-107390392D01*
X104448760Y-107374757D01*
X104455582Y-107358759D01*
X104462138Y-107342397D01*
X104468428Y-107325671D01*
X104474452Y-107308583D01*
X104480209Y-107291130D01*
X104485700Y-107273314D01*
X104490846Y-107255106D01*
X104495661Y-107236477D01*
X104500143Y-107217428D01*
X104504293Y-107197958D01*
X104508111Y-107178067D01*
X104511598Y-107157755D01*
X104514752Y-107137022D01*
X104517574Y-107115869D01*
X104520064Y-107094295D01*
X104522222Y-107072300D01*
X104524048Y-107049885D01*
X104525542Y-107027049D01*
X104526704Y-107003792D01*
X104527534Y-106980114D01*
X104528032Y-106956016D01*
X104528198Y-106931496D01*
X104528038Y-106907770D01*
X104527557Y-106884400D01*
X104526756Y-106861387D01*
X104525634Y-106838732D01*
X104524191Y-106816433D01*
X104522428Y-106794492D01*
X104520344Y-106772907D01*
X104517940Y-106751680D01*
X104515215Y-106730810D01*
X104512170Y-106710297D01*
X104508804Y-106690141D01*
X104505117Y-106670342D01*
X104501110Y-106650900D01*
X104496783Y-106631815D01*
X104492134Y-106613087D01*
X104487166Y-106594716D01*
X104481876Y-106576702D01*
X104476266Y-106559046D01*
X104470336Y-106541746D01*
X104464085Y-106524803D01*
X104457513Y-106508218D01*
X104450621Y-106491989D01*
X104443408Y-106476118D01*
X104435875Y-106460604D01*
X104428021Y-106445447D01*
X104419846Y-106430646D01*
X104411351Y-106416203D01*
X104402535Y-106402117D01*
X104393399Y-106388388D01*
X104383942Y-106375016D01*
X104374165Y-106362001D01*
X104364067Y-106349344D01*
X104353674Y-106336924D01*
X104343010Y-106324899D01*
X104332075Y-106313268D01*
X104320871Y-106302031D01*
X104309395Y-106291189D01*
X104297649Y-106280740D01*
X104285633Y-106270686D01*
X104273346Y-106261027D01*
X104260789Y-106251761D01*
X104247961Y-106242890D01*
X104234863Y-106234414D01*
X104221494Y-106226331D01*
X104207855Y-106218643D01*
X104193945Y-106211349D01*
X104179765Y-106204449D01*
X104165315Y-106197943D01*
X104150593Y-106191832D01*
X104135602Y-106186115D01*
X104120340Y-106180793D01*
X104104807Y-106175864D01*
X104089004Y-106171330D01*
X104072931Y-106167190D01*
X104056587Y-106163445D01*
X104039972Y-106160093D01*
X104023087Y-106157136D01*
X104005932Y-106154574D01*
X103988506Y-106152405D01*
X103970809Y-106150631D01*
X103952843Y-106149251D01*
X103934605Y-106148265D01*
X103916097Y-106147674D01*
X103897319Y-106147477D01*
X103879121Y-106147715D01*
X103861071Y-106148430D01*
X103843168Y-106149621D01*
X103825414Y-106151289D01*
X103807809Y-106153434D01*
X103790351Y-106156055D01*
X103773041Y-106159153D01*
X103755880Y-106162727D01*
X103738866Y-106166777D01*
X103722001Y-106171305D01*
X103710840Y-106174588D01*
X103694057Y-106180021D01*
X103677506Y-106185879D01*
X103661187Y-106192163D01*
X103645100Y-106198871D01*
X103629245Y-106206004D01*
X103613622Y-106213563D01*
X103598230Y-106221546D01*
X103583070Y-106229955D01*
X103568142Y-106238788D01*
X103553446Y-106248047D01*
X103543778Y-106254455D01*
X103543778Y-106590778D01*
X103555826Y-106576013D01*
X103568202Y-106561944D01*
X103580907Y-106548570D01*
X103593941Y-106535892D01*
X103607303Y-106523909D01*
X103620993Y-106512622D01*
X103635012Y-106502030D01*
X103649359Y-106492134D01*
X103664035Y-106482933D01*
X103679039Y-106474428D01*
X103689224Y-106469145D01*
X103704570Y-106461943D01*
X103720244Y-106455449D01*
X103736246Y-106449664D01*
X103752577Y-106444587D01*
X103769236Y-106440218D01*
X103786223Y-106436558D01*
X103803540Y-106433607D01*
X103821184Y-106431363D01*
X103839157Y-106429828D01*
X103857458Y-106429002D01*
X103869842Y-106428845D01*
X103891158Y-106429331D01*
X103911785Y-106430791D01*
X103931722Y-106433224D01*
X103950969Y-106436630D01*
X103969526Y-106441009D01*
X103987393Y-106446361D01*
X104004571Y-106452687D01*
X104021059Y-106459986D01*
X104036857Y-106468257D01*
X104051965Y-106477502D01*
X104066383Y-106487720D01*
X104080112Y-106498912D01*
X104093151Y-106511076D01*
X104105500Y-106524214D01*
X104117159Y-106538325D01*
X104128129Y-106553408D01*
X104138421Y-106569740D01*
X104148050Y-106587045D01*
X104157014Y-106605323D01*
X104165315Y-106624575D01*
X104172951Y-106644799D01*
X104179923Y-106665997D01*
X104186232Y-106688168D01*
X104191876Y-106711311D01*
X104196856Y-106735429D01*
X104201172Y-106760519D01*
X104204825Y-106786582D01*
X104207813Y-106813619D01*
X104210137Y-106841628D01*
X104211797Y-106870611D01*
X104212378Y-106885468D01*
X104212793Y-106900567D01*
X104213042Y-106915910D01*
X104213125Y-106931496D01*
X104213045Y-106946772D01*
X104212805Y-106961824D01*
X104212404Y-106976654D01*
X104211122Y-107005642D01*
X104209198Y-107033738D01*
X104206634Y-107060940D01*
X104203428Y-107087250D01*
X104199581Y-107112666D01*
X104195093Y-107137190D01*
X104189964Y-107160820D01*
X104184194Y-107183558D01*
X104177782Y-107205402D01*
X104170730Y-107226354D01*
X104163036Y-107246412D01*
X104154701Y-107265578D01*
X104145726Y-107283850D01*
X104136108Y-107301229D01*
X104131060Y-107309584D01*
X104121036Y-107324445D01*
X104110383Y-107338435D01*
X104099100Y-107351556D01*
X104087187Y-107363806D01*
X104074645Y-107375186D01*
X104061473Y-107385696D01*
X104047672Y-107395336D01*
X104033240Y-107404106D01*
X104018116Y-107411834D01*
X104002237Y-107418532D01*
X103985601Y-107424199D01*
X103968211Y-107428836D01*
X103950064Y-107432442D01*
X103931162Y-107435018D01*
X103916490Y-107436274D01*
X103901392Y-107436950D01*
X103891091Y-107437079D01*
X103875601Y-107436821D01*
X103859904Y-107436049D01*
X103849325Y-107435247D01*
X103833680Y-107433186D01*
X103819169Y-107430301D01*
X103810124Y-107427920D01*
X103794909Y-107424193D01*
X103780236Y-107419100D01*
X103776419Y-107417295D01*
X103763642Y-107409709D01*
X103753704Y-107403007D01*
X103753704Y-107117609D01*
X103961066Y-107117609D01*
X103961066Y-106874344D01*
X103489189Y-106874344D01*
X103489189Y-107562742D01*
X103505693Y-107576833D01*
X103522506Y-107590254D01*
X103539627Y-107603005D01*
X103557058Y-107615086D01*
X103574798Y-107626498D01*
X103592848Y-107637240D01*
X103611206Y-107647312D01*
X103629873Y-107656714D01*
X103648850Y-107665447D01*
X103668135Y-107673510D01*
X103681164Y-107678513D01*
X103697828Y-107684454D01*
X103714616Y-107689912D01*
X103731530Y-107694887D01*
X103748569Y-107699379D01*
X103765734Y-107703388D01*
X103783023Y-107706913D01*
X103789974Y-107708189D01*
X103807486Y-107711144D01*
X103825444Y-107713598D01*
X103840133Y-107715201D01*
X103855109Y-107716483D01*
X103870370Y-107717445D01*
X103885917Y-107718086D01*
X103901751Y-107718407D01*
X103909775Y-107718447D01*
G37*
G36*
X103262776Y-106170924D02*
G01*
X102937811Y-106170924D01*
X102510997Y-107284305D01*
X102510997Y-106170924D01*
X102244650Y-106170924D01*
X102244650Y-107695000D01*
X102567417Y-107695000D01*
X102996063Y-106602868D01*
X102996063Y-107695000D01*
X103262776Y-107695000D01*
X103262776Y-106170924D01*
G37*
G36*
X101981234Y-107695000D02*
G01*
X101657002Y-107695000D01*
X101633759Y-107694824D01*
X101610927Y-107694298D01*
X101588505Y-107693422D01*
X101566492Y-107692195D01*
X101544890Y-107690617D01*
X101523698Y-107688688D01*
X101502916Y-107686409D01*
X101482544Y-107683780D01*
X101462581Y-107680799D01*
X101443029Y-107677468D01*
X101423887Y-107673787D01*
X101405155Y-107669755D01*
X101386833Y-107665372D01*
X101368920Y-107660639D01*
X101351418Y-107655555D01*
X101334326Y-107650120D01*
X101317644Y-107644335D01*
X101301372Y-107638199D01*
X101285510Y-107631712D01*
X101270058Y-107624875D01*
X101255016Y-107617687D01*
X101240384Y-107610149D01*
X101226162Y-107602260D01*
X101212350Y-107594020D01*
X101198948Y-107585430D01*
X101185956Y-107576489D01*
X101173374Y-107567198D01*
X101161202Y-107557556D01*
X101149440Y-107547563D01*
X101138088Y-107537220D01*
X101127146Y-107526526D01*
X101116614Y-107515481D01*
X101106471Y-107504020D01*
X101096650Y-107492124D01*
X101087151Y-107479792D01*
X101077974Y-107467024D01*
X101069119Y-107453820D01*
X101060586Y-107440180D01*
X101052375Y-107426105D01*
X101044486Y-107411594D01*
X101036919Y-107396647D01*
X101029674Y-107381264D01*
X101022751Y-107365446D01*
X101016150Y-107349192D01*
X101009871Y-107332502D01*
X101003914Y-107315376D01*
X100998279Y-107297814D01*
X100992966Y-107279817D01*
X100987975Y-107261384D01*
X100983306Y-107242515D01*
X100978959Y-107223211D01*
X100974934Y-107203470D01*
X100971231Y-107183294D01*
X100967850Y-107162682D01*
X100964791Y-107141635D01*
X100962054Y-107120151D01*
X100959639Y-107098232D01*
X100957546Y-107075877D01*
X100955775Y-107053086D01*
X100954326Y-107029859D01*
X100953199Y-107006197D01*
X100952394Y-106982099D01*
X100951911Y-106957565D01*
X100951750Y-106932595D01*
X100951757Y-106931496D01*
X101266457Y-106931496D01*
X101266531Y-106947720D01*
X101266754Y-106963648D01*
X101267124Y-106979279D01*
X101267642Y-106994614D01*
X101268309Y-107009653D01*
X101269123Y-107024395D01*
X101271197Y-107052992D01*
X101273863Y-107080403D01*
X101277122Y-107106630D01*
X101280973Y-107131672D01*
X101285417Y-107155528D01*
X101290453Y-107178200D01*
X101296081Y-107199686D01*
X101302302Y-107219988D01*
X101309116Y-107239105D01*
X101316522Y-107257037D01*
X101324520Y-107273784D01*
X101333111Y-107289346D01*
X101342295Y-107303722D01*
X101352175Y-107317032D01*
X101362857Y-107329482D01*
X101374340Y-107341074D01*
X101386625Y-107351808D01*
X101399711Y-107361682D01*
X101413598Y-107370698D01*
X101428287Y-107378856D01*
X101443778Y-107386154D01*
X101460069Y-107392594D01*
X101477163Y-107398176D01*
X101495057Y-107402898D01*
X101513753Y-107406762D01*
X101533251Y-107409768D01*
X101553549Y-107411914D01*
X101574650Y-107413202D01*
X101596551Y-107413632D01*
X101678617Y-107413632D01*
X101678617Y-106452292D01*
X101596551Y-106452292D01*
X101574521Y-106452718D01*
X101553309Y-106453998D01*
X101532916Y-106456130D01*
X101513341Y-106459115D01*
X101494585Y-106462954D01*
X101476647Y-106467645D01*
X101459528Y-106473189D01*
X101443228Y-106479586D01*
X101427746Y-106486836D01*
X101413083Y-106494939D01*
X101399239Y-106503895D01*
X101386213Y-106513704D01*
X101374005Y-106524365D01*
X101362616Y-106535880D01*
X101352046Y-106548248D01*
X101342295Y-106561468D01*
X101333111Y-106575794D01*
X101324520Y-106591293D01*
X101316522Y-106607965D01*
X101309116Y-106625811D01*
X101302302Y-106644831D01*
X101296081Y-106665024D01*
X101290453Y-106686390D01*
X101285417Y-106708930D01*
X101280973Y-106732644D01*
X101277122Y-106757531D01*
X101273863Y-106783591D01*
X101271197Y-106810825D01*
X101269123Y-106839233D01*
X101268309Y-106853877D01*
X101267642Y-106868814D01*
X101267124Y-106884044D01*
X101266754Y-106899568D01*
X101266531Y-106915386D01*
X101266457Y-106931496D01*
X100951757Y-106931496D01*
X100951915Y-106906921D01*
X100952409Y-106881740D01*
X100953232Y-106857050D01*
X100954384Y-106832853D01*
X100955865Y-106809148D01*
X100957675Y-106785935D01*
X100959815Y-106763215D01*
X100962283Y-106740987D01*
X100965081Y-106719251D01*
X100968208Y-106698008D01*
X100971664Y-106677257D01*
X100975450Y-106656998D01*
X100979564Y-106637231D01*
X100984008Y-106617957D01*
X100988780Y-106599175D01*
X100993882Y-106580886D01*
X100999256Y-106563020D01*
X101004936Y-106545600D01*
X101010922Y-106528627D01*
X101017215Y-106512101D01*
X101023814Y-106496021D01*
X101030719Y-106480387D01*
X101037930Y-106465201D01*
X101045448Y-106450460D01*
X101053272Y-106436166D01*
X101061402Y-106422319D01*
X101069838Y-106408918D01*
X101078581Y-106395963D01*
X101087630Y-106383455D01*
X101096985Y-106371394D01*
X101106647Y-106359779D01*
X101116614Y-106348611D01*
X101127080Y-106337679D01*
X101137959Y-106327094D01*
X101149253Y-106316856D01*
X101160962Y-106306965D01*
X101173084Y-106297422D01*
X101185621Y-106288225D01*
X101198572Y-106279375D01*
X101211938Y-106270873D01*
X101225718Y-106262717D01*
X101239912Y-106254909D01*
X101254520Y-106247447D01*
X101269543Y-106240333D01*
X101284980Y-106233566D01*
X101300831Y-106227145D01*
X101317097Y-106221072D01*
X101333777Y-106215346D01*
X101350871Y-106209967D01*
X101368380Y-106204934D01*
X101386302Y-106200249D01*
X101404640Y-106195911D01*
X101423391Y-106191920D01*
X101442557Y-106188276D01*
X101462137Y-106184979D01*
X101482131Y-106182030D01*
X101502540Y-106179427D01*
X101523363Y-106177171D01*
X101544600Y-106175262D01*
X101566252Y-106173700D01*
X101588318Y-106172486D01*
X101610798Y-106171618D01*
X101633693Y-106171098D01*
X101657002Y-106170924D01*
X101981234Y-106170924D01*
X101981234Y-107695000D01*
G37*
G36*
X98998296Y-107718447D02*
G01*
X99013638Y-107718355D01*
X99028887Y-107718080D01*
X99044046Y-107717622D01*
X99059113Y-107716981D01*
X99074088Y-107716157D01*
X99088971Y-107715150D01*
X99103763Y-107713959D01*
X99118464Y-107712585D01*
X99133032Y-107710994D01*
X99147612Y-107709150D01*
X99162204Y-107707055D01*
X99176807Y-107704708D01*
X99191422Y-107702109D01*
X99206048Y-107699258D01*
X99220685Y-107696156D01*
X99235334Y-107692801D01*
X99250109Y-107689361D01*
X99264757Y-107685726D01*
X99279280Y-107681896D01*
X99293677Y-107677872D01*
X99307948Y-107673653D01*
X99322093Y-107669240D01*
X99336113Y-107664631D01*
X99350006Y-107659829D01*
X99370609Y-107652259D01*
X99390930Y-107644252D01*
X99410967Y-107635807D01*
X99430720Y-107626924D01*
X99450191Y-107617604D01*
X99456618Y-107614399D01*
X99456618Y-107305921D01*
X99441404Y-107316465D01*
X99426261Y-107326666D01*
X99411190Y-107336524D01*
X99396191Y-107346038D01*
X99381263Y-107355208D01*
X99366406Y-107364035D01*
X99351622Y-107372519D01*
X99336908Y-107380659D01*
X99322267Y-107388456D01*
X99307696Y-107395909D01*
X99293198Y-107403019D01*
X99278771Y-107409785D01*
X99264415Y-107416208D01*
X99250131Y-107422287D01*
X99235919Y-107428023D01*
X99221778Y-107433415D01*
X99207476Y-107438473D01*
X99193236Y-107443204D01*
X99179060Y-107447609D01*
X99164946Y-107451688D01*
X99143894Y-107457194D01*
X99122983Y-107461966D01*
X99102214Y-107466004D01*
X99081587Y-107469308D01*
X99061101Y-107471877D01*
X99040757Y-107473713D01*
X99020555Y-107474814D01*
X99000494Y-107475181D01*
X98979778Y-107474733D01*
X98959944Y-107473391D01*
X98940992Y-107471153D01*
X98922922Y-107468020D01*
X98905735Y-107463991D01*
X98889430Y-107459068D01*
X98874007Y-107453250D01*
X98859467Y-107446536D01*
X98845809Y-107438927D01*
X98833033Y-107430423D01*
X98825006Y-107424256D01*
X98814006Y-107414557D01*
X98801023Y-107400512D01*
X98789964Y-107385196D01*
X98780827Y-107368609D01*
X98773615Y-107350752D01*
X98769467Y-107336525D01*
X98766402Y-107321583D01*
X98764418Y-107305926D01*
X98763517Y-107289555D01*
X98763457Y-107283939D01*
X98764098Y-107266674D01*
X98766021Y-107250050D01*
X98769227Y-107234067D01*
X98773715Y-107218726D01*
X98779485Y-107204026D01*
X98786538Y-107189966D01*
X98794872Y-107176548D01*
X98804489Y-107163771D01*
X98814367Y-107152546D01*
X98825086Y-107141953D01*
X98836646Y-107131990D01*
X98849048Y-107122658D01*
X98856513Y-107117609D01*
X98869990Y-107109217D01*
X98884132Y-107101351D01*
X98898941Y-107094010D01*
X98914416Y-107087195D01*
X98923558Y-107083538D01*
X99072302Y-107027484D01*
X99086840Y-107021895D01*
X99101056Y-107016304D01*
X99114947Y-107010710D01*
X99128516Y-107005113D01*
X99148262Y-106996712D01*
X99167280Y-106988304D01*
X99185571Y-106979890D01*
X99203134Y-106971470D01*
X99219969Y-106963043D01*
X99236077Y-106954610D01*
X99251456Y-106946171D01*
X99266108Y-106937725D01*
X99280012Y-106929194D01*
X99293285Y-106920637D01*
X99305927Y-106912055D01*
X99317937Y-106903447D01*
X99332970Y-106891929D01*
X99346880Y-106880366D01*
X99359669Y-106868756D01*
X99371335Y-106857102D01*
X99381879Y-106845401D01*
X99391684Y-106833541D01*
X99400856Y-106821135D01*
X99409395Y-106808182D01*
X99417302Y-106794682D01*
X99424577Y-106780636D01*
X99431218Y-106766043D01*
X99437228Y-106750903D01*
X99442604Y-106735217D01*
X99447348Y-106718984D01*
X99451460Y-106702204D01*
X99454939Y-106684877D01*
X99457786Y-106667004D01*
X99459999Y-106648584D01*
X99461581Y-106629618D01*
X99462530Y-106610105D01*
X99462846Y-106590045D01*
X99462325Y-106564434D01*
X99460762Y-106539532D01*
X99458158Y-106515341D01*
X99454511Y-106491859D01*
X99449823Y-106469087D01*
X99444093Y-106447025D01*
X99437321Y-106425673D01*
X99429507Y-106405031D01*
X99420651Y-106385098D01*
X99410754Y-106365876D01*
X99399814Y-106347363D01*
X99387833Y-106329560D01*
X99374810Y-106312467D01*
X99360745Y-106296083D01*
X99345638Y-106280410D01*
X99329489Y-106265446D01*
X99312307Y-106251161D01*
X99294376Y-106237797D01*
X99275694Y-106225355D01*
X99256262Y-106213835D01*
X99236081Y-106203236D01*
X99215149Y-106193559D01*
X99193468Y-106184803D01*
X99171037Y-106176969D01*
X99147856Y-106170057D01*
X99123925Y-106164066D01*
X99099244Y-106158997D01*
X99073813Y-106154850D01*
X99047632Y-106151624D01*
X99020702Y-106149320D01*
X98993021Y-106147938D01*
X98964591Y-106147477D01*
X98943359Y-106147673D01*
X98922391Y-106148262D01*
X98901688Y-106149245D01*
X98881248Y-106150620D01*
X98861073Y-106152387D01*
X98841162Y-106154548D01*
X98821514Y-106157101D01*
X98802131Y-106160048D01*
X98783012Y-106163387D01*
X98764156Y-106167119D01*
X98751733Y-106169825D01*
X98733089Y-106174185D01*
X98714252Y-106179021D01*
X98695222Y-106184334D01*
X98675999Y-106190124D01*
X98656582Y-106196390D01*
X98636972Y-106203133D01*
X98617169Y-106210352D01*
X98597173Y-106218048D01*
X98576984Y-106226220D01*
X98563417Y-106231933D01*
X98549764Y-106237858D01*
X98542905Y-106240900D01*
X98542905Y-106530694D01*
X98555228Y-106522084D01*
X98567558Y-106513747D01*
X98579894Y-106505683D01*
X98604590Y-106490376D01*
X98629314Y-106476162D01*
X98654066Y-106463042D01*
X98678847Y-106451015D01*
X98703657Y-106440081D01*
X98728495Y-106430241D01*
X98753362Y-106421494D01*
X98778258Y-106413840D01*
X98803182Y-106407280D01*
X98828135Y-106401813D01*
X98853116Y-106397440D01*
X98878126Y-106394159D01*
X98903165Y-106391973D01*
X98928232Y-106390879D01*
X98940777Y-106390743D01*
X98961111Y-106391126D01*
X98980486Y-106392275D01*
X98998901Y-106394191D01*
X99016357Y-106396874D01*
X99032853Y-106400322D01*
X99048389Y-106404537D01*
X99062966Y-106409519D01*
X99076584Y-106415266D01*
X99093247Y-106424122D01*
X99108205Y-106434340D01*
X99121858Y-106445898D01*
X99133691Y-106458589D01*
X99143703Y-106472413D01*
X99151894Y-106487371D01*
X99158266Y-106503463D01*
X99162817Y-106520688D01*
X99165547Y-106539046D01*
X99166457Y-106558538D01*
X99165788Y-106574200D01*
X99163778Y-106589129D01*
X99159383Y-106606760D01*
X99152895Y-106623247D01*
X99144313Y-106638588D01*
X99133639Y-106652785D01*
X99123593Y-106663318D01*
X99112075Y-106673622D01*
X99099931Y-106682713D01*
X99085859Y-106691874D01*
X99072262Y-106699782D01*
X99062410Y-106705083D01*
X99048843Y-106711902D01*
X99033559Y-106719080D01*
X99020095Y-106725079D01*
X99005532Y-106731307D01*
X98989870Y-106737764D01*
X98973109Y-106744450D01*
X98955248Y-106751365D01*
X98945906Y-106754909D01*
X98815847Y-106803635D01*
X98793018Y-106812356D01*
X98770967Y-106821392D01*
X98749695Y-106830743D01*
X98729202Y-106840409D01*
X98709487Y-106850390D01*
X98690550Y-106860685D01*
X98672392Y-106871295D01*
X98655013Y-106882220D01*
X98638412Y-106893460D01*
X98622590Y-106905015D01*
X98607546Y-106916885D01*
X98593280Y-106929069D01*
X98579794Y-106941569D01*
X98567085Y-106954383D01*
X98555156Y-106967512D01*
X98544004Y-106980956D01*
X98533446Y-106995038D01*
X98523568Y-107009624D01*
X98514372Y-107024713D01*
X98505857Y-107040307D01*
X98498023Y-107056404D01*
X98490870Y-107073005D01*
X98484399Y-107090109D01*
X98478608Y-107107718D01*
X98473499Y-107125830D01*
X98469071Y-107144446D01*
X98465325Y-107163565D01*
X98462259Y-107183189D01*
X98459875Y-107203316D01*
X98458172Y-107223947D01*
X98457150Y-107245081D01*
X98456810Y-107266720D01*
X98457346Y-107294400D01*
X98458956Y-107321205D01*
X98461640Y-107347134D01*
X98465396Y-107372187D01*
X98470226Y-107396364D01*
X98476130Y-107419665D01*
X98483106Y-107442091D01*
X98491156Y-107463640D01*
X98500280Y-107484314D01*
X98510476Y-107504112D01*
X98521746Y-107523034D01*
X98534090Y-107541081D01*
X98547506Y-107558251D01*
X98561996Y-107574546D01*
X98577560Y-107589965D01*
X98594196Y-107604508D01*
X98611875Y-107618305D01*
X98630564Y-107631212D01*
X98650263Y-107643229D01*
X98670973Y-107654356D01*
X98692692Y-107664593D01*
X98715423Y-107673939D01*
X98739163Y-107682396D01*
X98763915Y-107689962D01*
X98789676Y-107696638D01*
X98816448Y-107702424D01*
X98844230Y-107707320D01*
X98873022Y-107711326D01*
X98887798Y-107712995D01*
X98902825Y-107714441D01*
X98918106Y-107715665D01*
X98933639Y-107716667D01*
X98949424Y-107717445D01*
X98965462Y-107718002D01*
X98981753Y-107718336D01*
X98998296Y-107718447D01*
G37*
G36*
X97735072Y-107718447D02*
G01*
X97750414Y-107718355D01*
X97765663Y-107718080D01*
X97780822Y-107717622D01*
X97795889Y-107716981D01*
X97810864Y-107716157D01*
X97825747Y-107715150D01*
X97840539Y-107713959D01*
X97855240Y-107712585D01*
X97869808Y-107710994D01*
X97884388Y-107709150D01*
X97898980Y-107707055D01*
X97913583Y-107704708D01*
X97928198Y-107702109D01*
X97942824Y-107699258D01*
X97957461Y-107696156D01*
X97972110Y-107692801D01*
X97986885Y-107689361D01*
X98001533Y-107685726D01*
X98016056Y-107681896D01*
X98030453Y-107677872D01*
X98044724Y-107673653D01*
X98058869Y-107669240D01*
X98072889Y-107664631D01*
X98086782Y-107659829D01*
X98107385Y-107652259D01*
X98127706Y-107644252D01*
X98147743Y-107635807D01*
X98167496Y-107626924D01*
X98186967Y-107617604D01*
X98193394Y-107614399D01*
X98193394Y-107305921D01*
X98178180Y-107316465D01*
X98163037Y-107326666D01*
X98147966Y-107336524D01*
X98132967Y-107346038D01*
X98118039Y-107355208D01*
X98103182Y-107364035D01*
X98088397Y-107372519D01*
X98073684Y-107380659D01*
X98059043Y-107388456D01*
X98044472Y-107395909D01*
X98029974Y-107403019D01*
X98015547Y-107409785D01*
X98001191Y-107416208D01*
X97986907Y-107422287D01*
X97972695Y-107428023D01*
X97958554Y-107433415D01*
X97944252Y-107438473D01*
X97930012Y-107443204D01*
X97915836Y-107447609D01*
X97901722Y-107451688D01*
X97880670Y-107457194D01*
X97859759Y-107461966D01*
X97838990Y-107466004D01*
X97818363Y-107469308D01*
X97797877Y-107471877D01*
X97777533Y-107473713D01*
X97757331Y-107474814D01*
X97737270Y-107475181D01*
X97716554Y-107474733D01*
X97696720Y-107473391D01*
X97677768Y-107471153D01*
X97659698Y-107468020D01*
X97642511Y-107463991D01*
X97626206Y-107459068D01*
X97610783Y-107453250D01*
X97596243Y-107446536D01*
X97582585Y-107438927D01*
X97569809Y-107430423D01*
X97561782Y-107424256D01*
X97550782Y-107414557D01*
X97537799Y-107400512D01*
X97526740Y-107385196D01*
X97517603Y-107368609D01*
X97510391Y-107350752D01*
X97506243Y-107336525D01*
X97503178Y-107321583D01*
X97501194Y-107305926D01*
X97500293Y-107289555D01*
X97500233Y-107283939D01*
X97500874Y-107266674D01*
X97502797Y-107250050D01*
X97506003Y-107234067D01*
X97510491Y-107218726D01*
X97516261Y-107204026D01*
X97523314Y-107189966D01*
X97531648Y-107176548D01*
X97541265Y-107163771D01*
X97551143Y-107152546D01*
X97561862Y-107141953D01*
X97573422Y-107131990D01*
X97585824Y-107122658D01*
X97593289Y-107117609D01*
X97606766Y-107109217D01*
X97620908Y-107101351D01*
X97635717Y-107094010D01*
X97651192Y-107087195D01*
X97660334Y-107083538D01*
X97809078Y-107027484D01*
X97823616Y-107021895D01*
X97837832Y-107016304D01*
X97851723Y-107010710D01*
X97865292Y-107005113D01*
X97885038Y-106996712D01*
X97904056Y-106988304D01*
X97922347Y-106979890D01*
X97939910Y-106971470D01*
X97956745Y-106963043D01*
X97972853Y-106954610D01*
X97988232Y-106946171D01*
X98002884Y-106937725D01*
X98016788Y-106929194D01*
X98030061Y-106920637D01*
X98042703Y-106912055D01*
X98054713Y-106903447D01*
X98069746Y-106891929D01*
X98083656Y-106880366D01*
X98096445Y-106868756D01*
X98108111Y-106857102D01*
X98118655Y-106845401D01*
X98128460Y-106833541D01*
X98137632Y-106821135D01*
X98146171Y-106808182D01*
X98154078Y-106794682D01*
X98161353Y-106780636D01*
X98167994Y-106766043D01*
X98174004Y-106750903D01*
X98179380Y-106735217D01*
X98184124Y-106718984D01*
X98188236Y-106702204D01*
X98191715Y-106684877D01*
X98194562Y-106667004D01*
X98196775Y-106648584D01*
X98198357Y-106629618D01*
X98199306Y-106610105D01*
X98199622Y-106590045D01*
X98199101Y-106564434D01*
X98197538Y-106539532D01*
X98194934Y-106515341D01*
X98191287Y-106491859D01*
X98186599Y-106469087D01*
X98180869Y-106447025D01*
X98174097Y-106425673D01*
X98166283Y-106405031D01*
X98157427Y-106385098D01*
X98147530Y-106365876D01*
X98136590Y-106347363D01*
X98124609Y-106329560D01*
X98111586Y-106312467D01*
X98097521Y-106296083D01*
X98082414Y-106280410D01*
X98066265Y-106265446D01*
X98049083Y-106251161D01*
X98031152Y-106237797D01*
X98012470Y-106225355D01*
X97993038Y-106213835D01*
X97972857Y-106203236D01*
X97951925Y-106193559D01*
X97930244Y-106184803D01*
X97907813Y-106176969D01*
X97884632Y-106170057D01*
X97860701Y-106164066D01*
X97836020Y-106158997D01*
X97810589Y-106154850D01*
X97784408Y-106151624D01*
X97757478Y-106149320D01*
X97729797Y-106147938D01*
X97701367Y-106147477D01*
X97680135Y-106147673D01*
X97659167Y-106148262D01*
X97638464Y-106149245D01*
X97618024Y-106150620D01*
X97597849Y-106152387D01*
X97577938Y-106154548D01*
X97558290Y-106157101D01*
X97538907Y-106160048D01*
X97519788Y-106163387D01*
X97500932Y-106167119D01*
X97488509Y-106169825D01*
X97469865Y-106174185D01*
X97451028Y-106179021D01*
X97431998Y-106184334D01*
X97412775Y-106190124D01*
X97393358Y-106196390D01*
X97373748Y-106203133D01*
X97353945Y-106210352D01*
X97333949Y-106218048D01*
X97313760Y-106226220D01*
X97300193Y-106231933D01*
X97286540Y-106237858D01*
X97279681Y-106240900D01*
X97279681Y-106530694D01*
X97292004Y-106522084D01*
X97304334Y-106513747D01*
X97316670Y-106505683D01*
X97341366Y-106490376D01*
X97366090Y-106476162D01*
X97390842Y-106463042D01*
X97415623Y-106451015D01*
X97440433Y-106440081D01*
X97465271Y-106430241D01*
X97490138Y-106421494D01*
X97515034Y-106413840D01*
X97539958Y-106407280D01*
X97564911Y-106401813D01*
X97589892Y-106397440D01*
X97614902Y-106394159D01*
X97639941Y-106391973D01*
X97665008Y-106390879D01*
X97677553Y-106390743D01*
X97697887Y-106391126D01*
X97717262Y-106392275D01*
X97735677Y-106394191D01*
X97753133Y-106396874D01*
X97769629Y-106400322D01*
X97785165Y-106404537D01*
X97799742Y-106409519D01*
X97813360Y-106415266D01*
X97830023Y-106424122D01*
X97844981Y-106434340D01*
X97858634Y-106445898D01*
X97870467Y-106458589D01*
X97880479Y-106472413D01*
X97888670Y-106487371D01*
X97895042Y-106503463D01*
X97899593Y-106520688D01*
X97902323Y-106539046D01*
X97903233Y-106558538D01*
X97902564Y-106574200D01*
X97900554Y-106589129D01*
X97896159Y-106606760D01*
X97889671Y-106623247D01*
X97881089Y-106638588D01*
X97870415Y-106652785D01*
X97860369Y-106663318D01*
X97848851Y-106673622D01*
X97836707Y-106682713D01*
X97822635Y-106691874D01*
X97809038Y-106699782D01*
X97799186Y-106705083D01*
X97785619Y-106711902D01*
X97770335Y-106719080D01*
X97756871Y-106725079D01*
X97742308Y-106731307D01*
X97726646Y-106737764D01*
X97709885Y-106744450D01*
X97692024Y-106751365D01*
X97682682Y-106754909D01*
X97552623Y-106803635D01*
X97529794Y-106812356D01*
X97507743Y-106821392D01*
X97486471Y-106830743D01*
X97465978Y-106840409D01*
X97446263Y-106850390D01*
X97427326Y-106860685D01*
X97409168Y-106871295D01*
X97391789Y-106882220D01*
X97375188Y-106893460D01*
X97359366Y-106905015D01*
X97344322Y-106916885D01*
X97330056Y-106929069D01*
X97316570Y-106941569D01*
X97303861Y-106954383D01*
X97291932Y-106967512D01*
X97280780Y-106980956D01*
X97270222Y-106995038D01*
X97260344Y-107009624D01*
X97251148Y-107024713D01*
X97242633Y-107040307D01*
X97234799Y-107056404D01*
X97227646Y-107073005D01*
X97221175Y-107090109D01*
X97215384Y-107107718D01*
X97210275Y-107125830D01*
X97205847Y-107144446D01*
X97202101Y-107163565D01*
X97199035Y-107183189D01*
X97196651Y-107203316D01*
X97194948Y-107223947D01*
X97193926Y-107245081D01*
X97193586Y-107266720D01*
X97194122Y-107294400D01*
X97195732Y-107321205D01*
X97198416Y-107347134D01*
X97202172Y-107372187D01*
X97207002Y-107396364D01*
X97212906Y-107419665D01*
X97219882Y-107442091D01*
X97227932Y-107463640D01*
X97237056Y-107484314D01*
X97247252Y-107504112D01*
X97258522Y-107523034D01*
X97270866Y-107541081D01*
X97284282Y-107558251D01*
X97298772Y-107574546D01*
X97314336Y-107589965D01*
X97330972Y-107604508D01*
X97348651Y-107618305D01*
X97367340Y-107631212D01*
X97387039Y-107643229D01*
X97407748Y-107654356D01*
X97429468Y-107664593D01*
X97452199Y-107673939D01*
X97475939Y-107682396D01*
X97500691Y-107689962D01*
X97526452Y-107696638D01*
X97553224Y-107702424D01*
X97581006Y-107707320D01*
X97609798Y-107711326D01*
X97624574Y-107712995D01*
X97639601Y-107714441D01*
X97654882Y-107715665D01*
X97670415Y-107716667D01*
X97686200Y-107717445D01*
X97702238Y-107718002D01*
X97718529Y-107718336D01*
X97735072Y-107718447D01*
G37*
G36*
X120832030Y-97450000D02*
G01*
X120472504Y-97450000D01*
X120432937Y-97219923D01*
X120416462Y-97251569D01*
X120398788Y-97281174D01*
X120379917Y-97308737D01*
X120359847Y-97334259D01*
X120338579Y-97357739D01*
X120316112Y-97379177D01*
X120292447Y-97398573D01*
X120267584Y-97415928D01*
X120241523Y-97431241D01*
X120214263Y-97444512D01*
X120185805Y-97455741D01*
X120156148Y-97464929D01*
X120125294Y-97472075D01*
X120093241Y-97477179D01*
X120059989Y-97480242D01*
X120025540Y-97481263D01*
X119993677Y-97480434D01*
X119962693Y-97477950D01*
X119932586Y-97473809D01*
X119903357Y-97468012D01*
X119875006Y-97460559D01*
X119847532Y-97451450D01*
X119820937Y-97440684D01*
X119795219Y-97428262D01*
X119770378Y-97414184D01*
X119746416Y-97398449D01*
X119723331Y-97381058D01*
X119701124Y-97362011D01*
X119679795Y-97341308D01*
X119659343Y-97318948D01*
X119639769Y-97294932D01*
X119621073Y-97269260D01*
X119612057Y-97255821D01*
X119594884Y-97227997D01*
X119578856Y-97198909D01*
X119563972Y-97168558D01*
X119550234Y-97136944D01*
X119537640Y-97104066D01*
X119526191Y-97069926D01*
X119515887Y-97034522D01*
X119506728Y-96997855D01*
X119498714Y-96959925D01*
X119495136Y-96940486D01*
X119491844Y-96920731D01*
X119488839Y-96900661D01*
X119486120Y-96880275D01*
X119483687Y-96859573D01*
X119481540Y-96838555D01*
X119479680Y-96817222D01*
X119478106Y-96795572D01*
X119476818Y-96773607D01*
X119475816Y-96751326D01*
X119475100Y-96728729D01*
X119474671Y-96705817D01*
X119474528Y-96682588D01*
X119474570Y-96675750D01*
X119875086Y-96675750D01*
X119875160Y-96689431D01*
X119875756Y-96716267D01*
X119876946Y-96742401D01*
X119878733Y-96767833D01*
X119881114Y-96792563D01*
X119884091Y-96816590D01*
X119887663Y-96839915D01*
X119891830Y-96862538D01*
X119896593Y-96884459D01*
X119901951Y-96905678D01*
X119907904Y-96926194D01*
X119914453Y-96946008D01*
X119921597Y-96965120D01*
X119929337Y-96983530D01*
X119937671Y-97001238D01*
X119951290Y-97026482D01*
X119960949Y-97042276D01*
X119976167Y-97064056D01*
X119992262Y-97083544D01*
X120009232Y-97100738D01*
X120027078Y-97115641D01*
X120045799Y-97128250D01*
X120065397Y-97138567D01*
X120085870Y-97146591D01*
X120107220Y-97152323D01*
X120129445Y-97155762D01*
X120152546Y-97156908D01*
X120168225Y-97156404D01*
X120191007Y-97153760D01*
X120212904Y-97148848D01*
X120233917Y-97141670D01*
X120254046Y-97132224D01*
X120273290Y-97120512D01*
X120291650Y-97106533D01*
X120309125Y-97090287D01*
X120325716Y-97071774D01*
X120341422Y-97050994D01*
X120356244Y-97027948D01*
X120360963Y-97019774D01*
X120374219Y-96994258D01*
X120382308Y-96976416D01*
X120389797Y-96957911D01*
X120396688Y-96938742D01*
X120402979Y-96918909D01*
X120408671Y-96898411D01*
X120413764Y-96877250D01*
X120418257Y-96855425D01*
X120422152Y-96832935D01*
X120425447Y-96809782D01*
X120428143Y-96785964D01*
X120430240Y-96761483D01*
X120431738Y-96736337D01*
X120432637Y-96710528D01*
X120432937Y-96684054D01*
X120432635Y-96657582D01*
X120431731Y-96631778D01*
X120430223Y-96606642D01*
X120428113Y-96582174D01*
X120425400Y-96558374D01*
X120422083Y-96535241D01*
X120418164Y-96512777D01*
X120413642Y-96490980D01*
X120408516Y-96469851D01*
X120402788Y-96449390D01*
X120396457Y-96429597D01*
X120389523Y-96410471D01*
X120381985Y-96392014D01*
X120369549Y-96365580D01*
X120355756Y-96340648D01*
X120345902Y-96324973D01*
X120330349Y-96303356D01*
X120313868Y-96284015D01*
X120296460Y-96266949D01*
X120278125Y-96252158D01*
X120258862Y-96239643D01*
X120238672Y-96229404D01*
X120217555Y-96221439D01*
X120195510Y-96215751D01*
X120172538Y-96212338D01*
X120148638Y-96211200D01*
X120132915Y-96211688D01*
X120110132Y-96214253D01*
X120088310Y-96219016D01*
X120067450Y-96225976D01*
X120047552Y-96235136D01*
X120028616Y-96246493D01*
X120010641Y-96260048D01*
X119993628Y-96275802D01*
X119977576Y-96293754D01*
X119962487Y-96313904D01*
X119948359Y-96336252D01*
X119939486Y-96352233D01*
X119927250Y-96377513D01*
X119916302Y-96404365D01*
X119909719Y-96423140D01*
X119903708Y-96442612D01*
X119898270Y-96462783D01*
X119893404Y-96483653D01*
X119889111Y-96505220D01*
X119885390Y-96527487D01*
X119882242Y-96550451D01*
X119879666Y-96574114D01*
X119877662Y-96598475D01*
X119876231Y-96623535D01*
X119875372Y-96649293D01*
X119875086Y-96675750D01*
X119474570Y-96675750D01*
X119474671Y-96659362D01*
X119475102Y-96636455D01*
X119475820Y-96613868D01*
X119476825Y-96591600D01*
X119478117Y-96569652D01*
X119479697Y-96548024D01*
X119481564Y-96526715D01*
X119483717Y-96505726D01*
X119486158Y-96485057D01*
X119488887Y-96464707D01*
X119491902Y-96444676D01*
X119495204Y-96424966D01*
X119502671Y-96386503D01*
X119511286Y-96349319D01*
X119521050Y-96313414D01*
X119531963Y-96278786D01*
X119544024Y-96245438D01*
X119557234Y-96213367D01*
X119571593Y-96182576D01*
X119587101Y-96153062D01*
X119603757Y-96124827D01*
X119621562Y-96097871D01*
X119640371Y-96072317D01*
X119660038Y-96048412D01*
X119680564Y-96026155D01*
X119701948Y-96005547D01*
X119724192Y-95986588D01*
X119747294Y-95969277D01*
X119771254Y-95953615D01*
X119796073Y-95939602D01*
X119821751Y-95927237D01*
X119848288Y-95916521D01*
X119875683Y-95907453D01*
X119903937Y-95900034D01*
X119933050Y-95894264D01*
X119963021Y-95890143D01*
X119993851Y-95887670D01*
X120025540Y-95886845D01*
X120057871Y-95887813D01*
X120089287Y-95890715D01*
X120119787Y-95895552D01*
X120149371Y-95902324D01*
X120178039Y-95911031D01*
X120205791Y-95921673D01*
X120232627Y-95934249D01*
X120258547Y-95948761D01*
X120283552Y-95965207D01*
X120307640Y-95983588D01*
X120330813Y-96003904D01*
X120353069Y-96026155D01*
X120374410Y-96050341D01*
X120394835Y-96076462D01*
X120414344Y-96104517D01*
X120432937Y-96134508D01*
X120432937Y-95324110D01*
X120832030Y-95324110D01*
X120832030Y-97450000D01*
G37*
G36*
X119165805Y-97700104D02*
G01*
X119121841Y-97700104D01*
X119080808Y-97700104D01*
X119056491Y-97699990D01*
X119033364Y-97699646D01*
X119011428Y-97699074D01*
X118990683Y-97698272D01*
X118971128Y-97697242D01*
X118948359Y-97695632D01*
X118927451Y-97693664D01*
X118919608Y-97692777D01*
X118897317Y-97689256D01*
X118876606Y-97684190D01*
X118857475Y-97677578D01*
X118837152Y-97667911D01*
X118818980Y-97656140D01*
X118802257Y-97641895D01*
X118788518Y-97627080D01*
X118775329Y-97609861D01*
X118762690Y-97590238D01*
X118752576Y-97572048D01*
X118748638Y-97564305D01*
X118738630Y-97543397D01*
X118730280Y-97524918D01*
X118721624Y-97504883D01*
X118712664Y-97483290D01*
X118703398Y-97460140D01*
X118696248Y-97441756D01*
X118688926Y-97422496D01*
X118681433Y-97402361D01*
X118676342Y-97388450D01*
X119258617Y-95918108D01*
X118837542Y-95918108D01*
X118487298Y-96902896D01*
X118152685Y-95918108D01*
X117731611Y-95918108D01*
X118367131Y-97601919D01*
X118374987Y-97622298D01*
X118383171Y-97642402D01*
X118391680Y-97662231D01*
X118400516Y-97681786D01*
X118409678Y-97701066D01*
X118419166Y-97720071D01*
X118428980Y-97738801D01*
X118439121Y-97757257D01*
X118449588Y-97775438D01*
X118460382Y-97793344D01*
X118467759Y-97805129D01*
X118479190Y-97822388D01*
X118491137Y-97838994D01*
X118503599Y-97854948D01*
X118516577Y-97870250D01*
X118530069Y-97884899D01*
X118544077Y-97898895D01*
X118558600Y-97912239D01*
X118573638Y-97924930D01*
X118589191Y-97936968D01*
X118605260Y-97948354D01*
X118616258Y-97955582D01*
X118633201Y-97965796D01*
X118650874Y-97975005D01*
X118669277Y-97983210D01*
X118688409Y-97990410D01*
X118708272Y-97996605D01*
X118728864Y-98001796D01*
X118750186Y-98005982D01*
X118772238Y-98009163D01*
X118795020Y-98011340D01*
X118818532Y-98012512D01*
X118834612Y-98012735D01*
X119165805Y-98012735D01*
X119165805Y-97700104D01*
G37*
G36*
X115797207Y-97700104D02*
G01*
X115753244Y-97700104D01*
X115712211Y-97700104D01*
X115687894Y-97699990D01*
X115664767Y-97699646D01*
X115642831Y-97699074D01*
X115622085Y-97698272D01*
X115602531Y-97697242D01*
X115579762Y-97695632D01*
X115558853Y-97693664D01*
X115551011Y-97692777D01*
X115528720Y-97689256D01*
X115508009Y-97684190D01*
X115488878Y-97677578D01*
X115468555Y-97667911D01*
X115450383Y-97656140D01*
X115433660Y-97641895D01*
X115419921Y-97627080D01*
X115406732Y-97609861D01*
X115394092Y-97590238D01*
X115383979Y-97572048D01*
X115380041Y-97564305D01*
X115370032Y-97543397D01*
X115361682Y-97524918D01*
X115353027Y-97504883D01*
X115344066Y-97483290D01*
X115334800Y-97460140D01*
X115327651Y-97441756D01*
X115320329Y-97422496D01*
X115312836Y-97402361D01*
X115307745Y-97388450D01*
X115890020Y-95918108D01*
X115468945Y-95918108D01*
X115118701Y-96902896D01*
X114784088Y-95918108D01*
X114363013Y-95918108D01*
X114998533Y-97601919D01*
X115006390Y-97622298D01*
X115014573Y-97642402D01*
X115023083Y-97662231D01*
X115031918Y-97681786D01*
X115041080Y-97701066D01*
X115050569Y-97720071D01*
X115060383Y-97738801D01*
X115070524Y-97757257D01*
X115080991Y-97775438D01*
X115091785Y-97793344D01*
X115099161Y-97805129D01*
X115110593Y-97822388D01*
X115122540Y-97838994D01*
X115135002Y-97854948D01*
X115147979Y-97870250D01*
X115161472Y-97884899D01*
X115175480Y-97898895D01*
X115190003Y-97912239D01*
X115205041Y-97924930D01*
X115220594Y-97936968D01*
X115236662Y-97948354D01*
X115247661Y-97955582D01*
X115264604Y-97965796D01*
X115282277Y-97975005D01*
X115300679Y-97983210D01*
X115319812Y-97990410D01*
X115339674Y-97996605D01*
X115360267Y-98001796D01*
X115381589Y-98005982D01*
X115403641Y-98009163D01*
X115426422Y-98011340D01*
X115449934Y-98012512D01*
X115466014Y-98012735D01*
X115797207Y-98012735D01*
X115797207Y-97700104D01*
G37*
G36*
X113478316Y-95887227D02*
G01*
X113505156Y-95888372D01*
X113531531Y-95890280D01*
X113557439Y-95892951D01*
X113582883Y-95896386D01*
X113607860Y-95900584D01*
X113632372Y-95905545D01*
X113656419Y-95911270D01*
X113680000Y-95917757D01*
X113703115Y-95925008D01*
X113725765Y-95933022D01*
X113747949Y-95941800D01*
X113769667Y-95951341D01*
X113790920Y-95961645D01*
X113811708Y-95972712D01*
X113832030Y-95984542D01*
X113851771Y-95997075D01*
X113870940Y-96010249D01*
X113889537Y-96024064D01*
X113907562Y-96038520D01*
X113925014Y-96053617D01*
X113941893Y-96069356D01*
X113958200Y-96085735D01*
X113973935Y-96102756D01*
X113989097Y-96120418D01*
X114003686Y-96138721D01*
X114017704Y-96157665D01*
X114031148Y-96177250D01*
X114044021Y-96197476D01*
X114056321Y-96218344D01*
X114068048Y-96239853D01*
X114079203Y-96262002D01*
X114089732Y-96284665D01*
X114099582Y-96307836D01*
X114108753Y-96331514D01*
X114117244Y-96355700D01*
X114125056Y-96380393D01*
X114132189Y-96405594D01*
X114138642Y-96431303D01*
X114144416Y-96457519D01*
X114149511Y-96484242D01*
X114153926Y-96511473D01*
X114157662Y-96539212D01*
X114160719Y-96567459D01*
X114163097Y-96596212D01*
X114164795Y-96625474D01*
X114165814Y-96655243D01*
X114166154Y-96685519D01*
X114165818Y-96715737D01*
X114164810Y-96745450D01*
X114163131Y-96774660D01*
X114160780Y-96803367D01*
X114157758Y-96831569D01*
X114154064Y-96859268D01*
X114149698Y-96886463D01*
X114144660Y-96913154D01*
X114138951Y-96939341D01*
X114132570Y-96965025D01*
X114125518Y-96990205D01*
X114117794Y-97014881D01*
X114109398Y-97039053D01*
X114100330Y-97062722D01*
X114090591Y-97085887D01*
X114080180Y-97108548D01*
X114069088Y-97130578D01*
X114057427Y-97151970D01*
X114045198Y-97172725D01*
X114032400Y-97192842D01*
X114019034Y-97212323D01*
X114005098Y-97231166D01*
X113990595Y-97249371D01*
X113975522Y-97266939D01*
X113959881Y-97283870D01*
X113943671Y-97300164D01*
X113926893Y-97315820D01*
X113909546Y-97330840D01*
X113891630Y-97345221D01*
X113873146Y-97358966D01*
X113854093Y-97372073D01*
X113834472Y-97384542D01*
X113814339Y-97396255D01*
X113793752Y-97407211D01*
X113772711Y-97417412D01*
X113751216Y-97426857D01*
X113729266Y-97435547D01*
X113706863Y-97443481D01*
X113684005Y-97450660D01*
X113660693Y-97457083D01*
X113636927Y-97462750D01*
X113612707Y-97467661D01*
X113588033Y-97471817D01*
X113562904Y-97475218D01*
X113537322Y-97477862D01*
X113511285Y-97479751D01*
X113484794Y-97480885D01*
X113457849Y-97481263D01*
X113430731Y-97480881D01*
X113404086Y-97479736D01*
X113377913Y-97477828D01*
X113352214Y-97475157D01*
X113326989Y-97471722D01*
X113302236Y-97467524D01*
X113277957Y-97462563D01*
X113254151Y-97456838D01*
X113230818Y-97450351D01*
X113207959Y-97443100D01*
X113185572Y-97435085D01*
X113163659Y-97426308D01*
X113142219Y-97416767D01*
X113121252Y-97406463D01*
X113100759Y-97395396D01*
X113080739Y-97383565D01*
X113061174Y-97371031D01*
X113042171Y-97357851D01*
X113023729Y-97344027D01*
X113005848Y-97329557D01*
X112988527Y-97314443D01*
X112971768Y-97298683D01*
X112955570Y-97282279D01*
X112939933Y-97265230D01*
X112924856Y-97247536D01*
X112910341Y-97229196D01*
X112896387Y-97210212D01*
X112882993Y-97190583D01*
X112870161Y-97170309D01*
X112857890Y-97149390D01*
X112846180Y-97127826D01*
X112835030Y-97105617D01*
X112824501Y-97082820D01*
X112814651Y-97059493D01*
X112805481Y-97035636D01*
X112796989Y-97011248D01*
X112789177Y-96986329D01*
X112782045Y-96960880D01*
X112775591Y-96934901D01*
X112769817Y-96908391D01*
X112764723Y-96881351D01*
X112760307Y-96853780D01*
X112756571Y-96825679D01*
X112753514Y-96797047D01*
X112751137Y-96767885D01*
X112749438Y-96738192D01*
X112748419Y-96707969D01*
X112748155Y-96684054D01*
X113148638Y-96684054D01*
X113148720Y-96697553D01*
X113149372Y-96724026D01*
X113150677Y-96749802D01*
X113152635Y-96774878D01*
X113155245Y-96799257D01*
X113158508Y-96822937D01*
X113162424Y-96845919D01*
X113166992Y-96868202D01*
X113172213Y-96889787D01*
X113178086Y-96910674D01*
X113184612Y-96930862D01*
X113191790Y-96950352D01*
X113199621Y-96969143D01*
X113208105Y-96987236D01*
X113217241Y-97004631D01*
X113232169Y-97029413D01*
X113242834Y-97044852D01*
X113259668Y-97066143D01*
X113277507Y-97085192D01*
X113296350Y-97102001D01*
X113316198Y-97116568D01*
X113337051Y-97128894D01*
X113358908Y-97138979D01*
X113381770Y-97146823D01*
X113405637Y-97152426D01*
X113430508Y-97155788D01*
X113456384Y-97156908D01*
X113473924Y-97156410D01*
X113499375Y-97153795D01*
X113523795Y-97148940D01*
X113547185Y-97141843D01*
X113569545Y-97132505D01*
X113590874Y-97120926D01*
X113611173Y-97107105D01*
X113630441Y-97091044D01*
X113648679Y-97072742D01*
X113665887Y-97052198D01*
X113682064Y-97029413D01*
X113687204Y-97021327D01*
X113701642Y-96996021D01*
X113710452Y-96978277D01*
X113718609Y-96959835D01*
X113726114Y-96940694D01*
X113732966Y-96920855D01*
X113739166Y-96900318D01*
X113744713Y-96879082D01*
X113749607Y-96857148D01*
X113753849Y-96834515D01*
X113757438Y-96811184D01*
X113760375Y-96787155D01*
X113762659Y-96762427D01*
X113764290Y-96737001D01*
X113765269Y-96710877D01*
X113765595Y-96684054D01*
X113765514Y-96670556D01*
X113764861Y-96644086D01*
X113763556Y-96618318D01*
X113761598Y-96593253D01*
X113758988Y-96568890D01*
X113755725Y-96545229D01*
X113751810Y-96522270D01*
X113747241Y-96500013D01*
X113742021Y-96478459D01*
X113736147Y-96457606D01*
X113729622Y-96437456D01*
X113722443Y-96418009D01*
X113714612Y-96399263D01*
X113706129Y-96381220D01*
X113696992Y-96363878D01*
X113682064Y-96339183D01*
X113671394Y-96323685D01*
X113654530Y-96302313D01*
X113636635Y-96283190D01*
X113617710Y-96266318D01*
X113597755Y-96251694D01*
X113576769Y-96239321D01*
X113554753Y-96229197D01*
X113531706Y-96221323D01*
X113507629Y-96215699D01*
X113482522Y-96212325D01*
X113456384Y-96211200D01*
X113439022Y-96211696D01*
X113413816Y-96214301D01*
X113389614Y-96219138D01*
X113366417Y-96226207D01*
X113344225Y-96235510D01*
X113323037Y-96247044D01*
X113302854Y-96260812D01*
X113283676Y-96276811D01*
X113265502Y-96295044D01*
X113248333Y-96315509D01*
X113232169Y-96338206D01*
X113227030Y-96346234D01*
X113212591Y-96371393D01*
X113203782Y-96389062D01*
X113195624Y-96407449D01*
X113188119Y-96426553D01*
X113181267Y-96446375D01*
X113175068Y-96466914D01*
X113169521Y-96488171D01*
X113164626Y-96510145D01*
X113160385Y-96532837D01*
X113156795Y-96556246D01*
X113153859Y-96580373D01*
X113151575Y-96605217D01*
X113149943Y-96630778D01*
X113148964Y-96657057D01*
X113148638Y-96684054D01*
X112748155Y-96684054D01*
X112748080Y-96677215D01*
X112748414Y-96647003D01*
X112749415Y-96617307D01*
X112751085Y-96588126D01*
X112753423Y-96559460D01*
X112756428Y-96531309D01*
X112760101Y-96503673D01*
X112764442Y-96476552D01*
X112769451Y-96449947D01*
X112775128Y-96423857D01*
X112781472Y-96398282D01*
X112788485Y-96373222D01*
X112796165Y-96348678D01*
X112804513Y-96324649D01*
X112813529Y-96301135D01*
X112823213Y-96278136D01*
X112833565Y-96255652D01*
X112844531Y-96233748D01*
X112856058Y-96212490D01*
X112868146Y-96191876D01*
X112880795Y-96171907D01*
X112894005Y-96152583D01*
X112907776Y-96133905D01*
X112922109Y-96115871D01*
X112937002Y-96098482D01*
X112952456Y-96081738D01*
X112968471Y-96065639D01*
X112985047Y-96050185D01*
X113002184Y-96035375D01*
X113019882Y-96021211D01*
X113038141Y-96007692D01*
X113056961Y-95994818D01*
X113076342Y-95982588D01*
X113096238Y-95970995D01*
X113116604Y-95960149D01*
X113137439Y-95950051D01*
X113158744Y-95940701D01*
X113180517Y-95932099D01*
X113202761Y-95924245D01*
X113225473Y-95917139D01*
X113248655Y-95910781D01*
X113272307Y-95905171D01*
X113296428Y-95900309D01*
X113321018Y-95896195D01*
X113346078Y-95892829D01*
X113371607Y-95890211D01*
X113397605Y-95888341D01*
X113424073Y-95887219D01*
X113451011Y-95886845D01*
X113478316Y-95887227D01*
G37*
G36*
X111646545Y-97481263D02*
G01*
X111669101Y-97481058D01*
X111691342Y-97480444D01*
X111713267Y-97479421D01*
X111734876Y-97477988D01*
X111756170Y-97476146D01*
X111777148Y-97473895D01*
X111797810Y-97471235D01*
X111818156Y-97468165D01*
X111838186Y-97464686D01*
X111857900Y-97460798D01*
X111877299Y-97456500D01*
X111896382Y-97451793D01*
X111933600Y-97441151D01*
X111969556Y-97428872D01*
X112004248Y-97414956D01*
X112037677Y-97399403D01*
X112069842Y-97382213D01*
X112100745Y-97363385D01*
X112130384Y-97342920D01*
X112158760Y-97320818D01*
X112185873Y-97297079D01*
X112211722Y-97271702D01*
X112236152Y-97244803D01*
X112259006Y-97216618D01*
X112280284Y-97187146D01*
X112299986Y-97156389D01*
X112318111Y-97124346D01*
X112334661Y-97091016D01*
X112349634Y-97056400D01*
X112363031Y-97020498D01*
X112374852Y-96983311D01*
X112380171Y-96964234D01*
X112385097Y-96944837D01*
X112389628Y-96925117D01*
X112393765Y-96905077D01*
X112397509Y-96884714D01*
X112400858Y-96864030D01*
X112403813Y-96843025D01*
X112406374Y-96821698D01*
X112408542Y-96800050D01*
X112410315Y-96778080D01*
X112411694Y-96755788D01*
X112412679Y-96733175D01*
X112413270Y-96710241D01*
X112413467Y-96686985D01*
X112413272Y-96663607D01*
X112412689Y-96640552D01*
X112411715Y-96617819D01*
X112410353Y-96595409D01*
X112408601Y-96573321D01*
X112406460Y-96551556D01*
X112403930Y-96530113D01*
X112401011Y-96508993D01*
X112397702Y-96488195D01*
X112394004Y-96467720D01*
X112389917Y-96447567D01*
X112385440Y-96427736D01*
X112380574Y-96408228D01*
X112375319Y-96389043D01*
X112369675Y-96370180D01*
X112357219Y-96333421D01*
X112343205Y-96297953D01*
X112327635Y-96263774D01*
X112310507Y-96230885D01*
X112291823Y-96199286D01*
X112271581Y-96168977D01*
X112249782Y-96139958D01*
X112226427Y-96112229D01*
X112214165Y-96098848D01*
X112188582Y-96073176D01*
X112161782Y-96049160D01*
X112133765Y-96026800D01*
X112104530Y-96006097D01*
X112074078Y-95987050D01*
X112042409Y-95969659D01*
X112009522Y-95953924D01*
X111975418Y-95939846D01*
X111940096Y-95927424D01*
X111903557Y-95916658D01*
X111865800Y-95907549D01*
X111846465Y-95903615D01*
X111826826Y-95900095D01*
X111806883Y-95896990D01*
X111786635Y-95894299D01*
X111766083Y-95892021D01*
X111745226Y-95890158D01*
X111724065Y-95888709D01*
X111702600Y-95887673D01*
X111680831Y-95887052D01*
X111658757Y-95886845D01*
X111628427Y-95887307D01*
X111598253Y-95888692D01*
X111568236Y-95891001D01*
X111538375Y-95894234D01*
X111508671Y-95898390D01*
X111479124Y-95903469D01*
X111449732Y-95909472D01*
X111420498Y-95916399D01*
X111391420Y-95924249D01*
X111362498Y-95933022D01*
X111333732Y-95942720D01*
X111305124Y-95953340D01*
X111276671Y-95964885D01*
X111248375Y-95977353D01*
X111220236Y-95990744D01*
X111192253Y-96005059D01*
X111192253Y-96373377D01*
X111214654Y-96353738D01*
X111237407Y-96335367D01*
X111260511Y-96318262D01*
X111283966Y-96302424D01*
X111307772Y-96287854D01*
X111331929Y-96274550D01*
X111356437Y-96262514D01*
X111381297Y-96251744D01*
X111406507Y-96242242D01*
X111432069Y-96234006D01*
X111457981Y-96227037D01*
X111484245Y-96221336D01*
X111510860Y-96216901D01*
X111537826Y-96213734D01*
X111565143Y-96211833D01*
X111592811Y-96211200D01*
X111617600Y-96211683D01*
X111641652Y-96213131D01*
X111664968Y-96215545D01*
X111687547Y-96218924D01*
X111709389Y-96223269D01*
X111730495Y-96228579D01*
X111750865Y-96234855D01*
X111770498Y-96242096D01*
X111789394Y-96250303D01*
X111807554Y-96259476D01*
X111824977Y-96269614D01*
X111841664Y-96280717D01*
X111857614Y-96292786D01*
X111872828Y-96305821D01*
X111887305Y-96319821D01*
X111901046Y-96334787D01*
X111913941Y-96350582D01*
X111926004Y-96367195D01*
X111937235Y-96384624D01*
X111947635Y-96402869D01*
X111957202Y-96421932D01*
X111965938Y-96441811D01*
X111973841Y-96462507D01*
X111980913Y-96484019D01*
X111987153Y-96506348D01*
X111992560Y-96529494D01*
X111997136Y-96553457D01*
X112000880Y-96578236D01*
X112003792Y-96603832D01*
X112005872Y-96630244D01*
X112007119Y-96657473D01*
X112007535Y-96685519D01*
X112007121Y-96713386D01*
X112005879Y-96740443D01*
X112003809Y-96766692D01*
X112000910Y-96792131D01*
X111997184Y-96816762D01*
X111992629Y-96840583D01*
X111987246Y-96863595D01*
X111981035Y-96885799D01*
X111973996Y-96907193D01*
X111966129Y-96927778D01*
X111957433Y-96947554D01*
X111947910Y-96966521D01*
X111937558Y-96984679D01*
X111926378Y-97002028D01*
X111914370Y-97018567D01*
X111901534Y-97034298D01*
X111887929Y-97049145D01*
X111873614Y-97063035D01*
X111858589Y-97075966D01*
X111842855Y-97087940D01*
X111826410Y-97098956D01*
X111809256Y-97109014D01*
X111791392Y-97118114D01*
X111772818Y-97126256D01*
X111753534Y-97133440D01*
X111733541Y-97139666D01*
X111712837Y-97144934D01*
X111691424Y-97149245D01*
X111669301Y-97152598D01*
X111646468Y-97154992D01*
X111622925Y-97156429D01*
X111598673Y-97156908D01*
X111569665Y-97156307D01*
X111541138Y-97154504D01*
X111513093Y-97151498D01*
X111485527Y-97147291D01*
X111458443Y-97141881D01*
X111431840Y-97135270D01*
X111405717Y-97127456D01*
X111380076Y-97118440D01*
X111354915Y-97108222D01*
X111330235Y-97096801D01*
X111306036Y-97084179D01*
X111282317Y-97070355D01*
X111259080Y-97055328D01*
X111236323Y-97039099D01*
X111214048Y-97021668D01*
X111192253Y-97003035D01*
X111192253Y-97365980D01*
X111217898Y-97379940D01*
X111243910Y-97392999D01*
X111270288Y-97405158D01*
X111297033Y-97416416D01*
X111324144Y-97426774D01*
X111351621Y-97436230D01*
X111379465Y-97444786D01*
X111407675Y-97452442D01*
X111436251Y-97459197D01*
X111465194Y-97465051D01*
X111494503Y-97470005D01*
X111524179Y-97474057D01*
X111554221Y-97477210D01*
X111584629Y-97479461D01*
X111615404Y-97480812D01*
X111646545Y-97481263D01*
G37*
G36*
X109800557Y-97450000D02*
G01*
X109828387Y-97449822D01*
X109855458Y-97449290D01*
X109881770Y-97448402D01*
X109907322Y-97447160D01*
X109932114Y-97445563D01*
X109956147Y-97443611D01*
X109979421Y-97441304D01*
X110001935Y-97438642D01*
X110023690Y-97435625D01*
X110044685Y-97432254D01*
X110064921Y-97428527D01*
X110084398Y-97424446D01*
X110112189Y-97417658D01*
X110138271Y-97410072D01*
X110154709Y-97404570D01*
X110178132Y-97395385D01*
X110200224Y-97385050D01*
X110220985Y-97373564D01*
X110240416Y-97360927D01*
X110258515Y-97347140D01*
X110275283Y-97332202D01*
X110290721Y-97316113D01*
X110304827Y-97298874D01*
X110317602Y-97280484D01*
X110329047Y-97260944D01*
X110335937Y-97247278D01*
X110345366Y-97225661D01*
X110353866Y-97202576D01*
X110361440Y-97178022D01*
X110368086Y-97152000D01*
X110373805Y-97124510D01*
X110378596Y-97095552D01*
X110381275Y-97075430D01*
X110383542Y-97054656D01*
X110385397Y-97033230D01*
X110386839Y-97011150D01*
X110387870Y-96988419D01*
X110388488Y-96965034D01*
X110388694Y-96940997D01*
X110388694Y-96242463D01*
X110779482Y-96242463D01*
X110779482Y-95918108D01*
X110388694Y-95918108D01*
X110388694Y-95501430D01*
X109988136Y-95324110D01*
X109988136Y-95918108D01*
X109464479Y-95918108D01*
X109464479Y-96242463D01*
X109988136Y-96242463D01*
X109988136Y-96941974D01*
X109987334Y-96965437D01*
X109984930Y-96987220D01*
X109980923Y-97007325D01*
X109973660Y-97030094D01*
X109963893Y-97050239D01*
X109951621Y-97067760D01*
X109936845Y-97082658D01*
X109919302Y-97095042D01*
X109898729Y-97105327D01*
X109880091Y-97112044D01*
X109859513Y-97117417D01*
X109836997Y-97121447D01*
X109812542Y-97124134D01*
X109792929Y-97125267D01*
X109772225Y-97125645D01*
X109464479Y-97125645D01*
X109464479Y-97450000D01*
X109800557Y-97450000D01*
G37*
G36*
X108425420Y-95887227D02*
G01*
X108452260Y-95888372D01*
X108478635Y-95890280D01*
X108504543Y-95892951D01*
X108529987Y-95896386D01*
X108554964Y-95900584D01*
X108579476Y-95905545D01*
X108603523Y-95911270D01*
X108627104Y-95917757D01*
X108650219Y-95925008D01*
X108672869Y-95933022D01*
X108695053Y-95941800D01*
X108716771Y-95951341D01*
X108738024Y-95961645D01*
X108758812Y-95972712D01*
X108779133Y-95984542D01*
X108798875Y-95997075D01*
X108818044Y-96010249D01*
X108836641Y-96024064D01*
X108854666Y-96038520D01*
X108872118Y-96053617D01*
X108888997Y-96069356D01*
X108905304Y-96085735D01*
X108921039Y-96102756D01*
X108936201Y-96120418D01*
X108950790Y-96138721D01*
X108964808Y-96157665D01*
X108978252Y-96177250D01*
X108991125Y-96197476D01*
X109003425Y-96218344D01*
X109015152Y-96239853D01*
X109026307Y-96262002D01*
X109036836Y-96284665D01*
X109046686Y-96307836D01*
X109055857Y-96331514D01*
X109064348Y-96355700D01*
X109072160Y-96380393D01*
X109079293Y-96405594D01*
X109085746Y-96431303D01*
X109091520Y-96457519D01*
X109096615Y-96484242D01*
X109101030Y-96511473D01*
X109104766Y-96539212D01*
X109107823Y-96567459D01*
X109110201Y-96596212D01*
X109111899Y-96625474D01*
X109112918Y-96655243D01*
X109113258Y-96685519D01*
X109112922Y-96715737D01*
X109111914Y-96745450D01*
X109110235Y-96774660D01*
X109107884Y-96803367D01*
X109104862Y-96831569D01*
X109101168Y-96859268D01*
X109096802Y-96886463D01*
X109091764Y-96913154D01*
X109086055Y-96939341D01*
X109079674Y-96965025D01*
X109072622Y-96990205D01*
X109064898Y-97014881D01*
X109056502Y-97039053D01*
X109047434Y-97062722D01*
X109037695Y-97085887D01*
X109027284Y-97108548D01*
X109016192Y-97130578D01*
X109004531Y-97151970D01*
X108992302Y-97172725D01*
X108979504Y-97192842D01*
X108966138Y-97212323D01*
X108952202Y-97231166D01*
X108937699Y-97249371D01*
X108922626Y-97266939D01*
X108906985Y-97283870D01*
X108890775Y-97300164D01*
X108873997Y-97315820D01*
X108856650Y-97330840D01*
X108838734Y-97345221D01*
X108820250Y-97358966D01*
X108801197Y-97372073D01*
X108781576Y-97384542D01*
X108761443Y-97396255D01*
X108740856Y-97407211D01*
X108719815Y-97417412D01*
X108698320Y-97426857D01*
X108676370Y-97435547D01*
X108653967Y-97443481D01*
X108631109Y-97450660D01*
X108607797Y-97457083D01*
X108584031Y-97462750D01*
X108559811Y-97467661D01*
X108535137Y-97471817D01*
X108510008Y-97475218D01*
X108484426Y-97477862D01*
X108458389Y-97479751D01*
X108431898Y-97480885D01*
X108404953Y-97481263D01*
X108377835Y-97480881D01*
X108351189Y-97479736D01*
X108325017Y-97477828D01*
X108299318Y-97475157D01*
X108274093Y-97471722D01*
X108249340Y-97467524D01*
X108225061Y-97462563D01*
X108201255Y-97456838D01*
X108177922Y-97450351D01*
X108155062Y-97443100D01*
X108132676Y-97435085D01*
X108110763Y-97426308D01*
X108089323Y-97416767D01*
X108068356Y-97406463D01*
X108047863Y-97395396D01*
X108027842Y-97383565D01*
X108008278Y-97371031D01*
X107989275Y-97357851D01*
X107970833Y-97344027D01*
X107952952Y-97329557D01*
X107935631Y-97314443D01*
X107918872Y-97298683D01*
X107902674Y-97282279D01*
X107887036Y-97265230D01*
X107871960Y-97247536D01*
X107857445Y-97229196D01*
X107843491Y-97210212D01*
X107830097Y-97190583D01*
X107817265Y-97170309D01*
X107804994Y-97149390D01*
X107793283Y-97127826D01*
X107782134Y-97105617D01*
X107771605Y-97082820D01*
X107761755Y-97059493D01*
X107752585Y-97035636D01*
X107744093Y-97011248D01*
X107736281Y-96986329D01*
X107729149Y-96960880D01*
X107722695Y-96934901D01*
X107716921Y-96908391D01*
X107711827Y-96881351D01*
X107707411Y-96853780D01*
X107703675Y-96825679D01*
X107700618Y-96797047D01*
X107698241Y-96767885D01*
X107696542Y-96738192D01*
X107695523Y-96707969D01*
X107695259Y-96684054D01*
X108095742Y-96684054D01*
X108095824Y-96697553D01*
X108096476Y-96724026D01*
X108097781Y-96749802D01*
X108099739Y-96774878D01*
X108102349Y-96799257D01*
X108105612Y-96822937D01*
X108109528Y-96845919D01*
X108114096Y-96868202D01*
X108119317Y-96889787D01*
X108125190Y-96910674D01*
X108131716Y-96930862D01*
X108138894Y-96950352D01*
X108146725Y-96969143D01*
X108155209Y-96987236D01*
X108164345Y-97004631D01*
X108179273Y-97029413D01*
X108189938Y-97044852D01*
X108206772Y-97066143D01*
X108224611Y-97085192D01*
X108243454Y-97102001D01*
X108263302Y-97116568D01*
X108284155Y-97128894D01*
X108306012Y-97138979D01*
X108328874Y-97146823D01*
X108352741Y-97152426D01*
X108377612Y-97155788D01*
X108403488Y-97156908D01*
X108421028Y-97156410D01*
X108446479Y-97153795D01*
X108470899Y-97148940D01*
X108494289Y-97141843D01*
X108516649Y-97132505D01*
X108537978Y-97120926D01*
X108558277Y-97107105D01*
X108577545Y-97091044D01*
X108595783Y-97072742D01*
X108612991Y-97052198D01*
X108629168Y-97029413D01*
X108634307Y-97021327D01*
X108648746Y-96996021D01*
X108657556Y-96978277D01*
X108665713Y-96959835D01*
X108673218Y-96940694D01*
X108680070Y-96920855D01*
X108686270Y-96900318D01*
X108691817Y-96879082D01*
X108696711Y-96857148D01*
X108700953Y-96834515D01*
X108704542Y-96811184D01*
X108707479Y-96787155D01*
X108709763Y-96762427D01*
X108711394Y-96737001D01*
X108712373Y-96710877D01*
X108712699Y-96684054D01*
X108712618Y-96670556D01*
X108711965Y-96644086D01*
X108710660Y-96618318D01*
X108708702Y-96593253D01*
X108706092Y-96568890D01*
X108702829Y-96545229D01*
X108698914Y-96522270D01*
X108694345Y-96500013D01*
X108689125Y-96478459D01*
X108683251Y-96457606D01*
X108676726Y-96437456D01*
X108669547Y-96418009D01*
X108661716Y-96399263D01*
X108653232Y-96381220D01*
X108644096Y-96363878D01*
X108629168Y-96339183D01*
X108618498Y-96323685D01*
X108601634Y-96302313D01*
X108583739Y-96283190D01*
X108564814Y-96266318D01*
X108544859Y-96251694D01*
X108523873Y-96239321D01*
X108501857Y-96229197D01*
X108478810Y-96221323D01*
X108454733Y-96215699D01*
X108429626Y-96212325D01*
X108403488Y-96211200D01*
X108386126Y-96211696D01*
X108360920Y-96214301D01*
X108336718Y-96219138D01*
X108313521Y-96226207D01*
X108291329Y-96235510D01*
X108270141Y-96247044D01*
X108249958Y-96260812D01*
X108230780Y-96276811D01*
X108212606Y-96295044D01*
X108195437Y-96315509D01*
X108179273Y-96338206D01*
X108174134Y-96346234D01*
X108159695Y-96371393D01*
X108150886Y-96389062D01*
X108142728Y-96407449D01*
X108135223Y-96426553D01*
X108128371Y-96446375D01*
X108122172Y-96466914D01*
X108116625Y-96488171D01*
X108111730Y-96510145D01*
X108107489Y-96532837D01*
X108103899Y-96556246D01*
X108100963Y-96580373D01*
X108098679Y-96605217D01*
X108097047Y-96630778D01*
X108096068Y-96657057D01*
X108095742Y-96684054D01*
X107695259Y-96684054D01*
X107695184Y-96677215D01*
X107695518Y-96647003D01*
X107696519Y-96617307D01*
X107698189Y-96588126D01*
X107700527Y-96559460D01*
X107703532Y-96531309D01*
X107707205Y-96503673D01*
X107711546Y-96476552D01*
X107716555Y-96449947D01*
X107722232Y-96423857D01*
X107728576Y-96398282D01*
X107735589Y-96373222D01*
X107743269Y-96348678D01*
X107751617Y-96324649D01*
X107760633Y-96301135D01*
X107770317Y-96278136D01*
X107780669Y-96255652D01*
X107791635Y-96233748D01*
X107803162Y-96212490D01*
X107815250Y-96191876D01*
X107827899Y-96171907D01*
X107841109Y-96152583D01*
X107854880Y-96133905D01*
X107869212Y-96115871D01*
X107884106Y-96098482D01*
X107899560Y-96081738D01*
X107915575Y-96065639D01*
X107932151Y-96050185D01*
X107949288Y-96035375D01*
X107966986Y-96021211D01*
X107985245Y-96007692D01*
X108004065Y-95994818D01*
X108023446Y-95982588D01*
X108043342Y-95970995D01*
X108063708Y-95960149D01*
X108084543Y-95950051D01*
X108105848Y-95940701D01*
X108127621Y-95932099D01*
X108149865Y-95924245D01*
X108172577Y-95917139D01*
X108195759Y-95910781D01*
X108219411Y-95905171D01*
X108243532Y-95900309D01*
X108268122Y-95896195D01*
X108293182Y-95892829D01*
X108318711Y-95890211D01*
X108344709Y-95888341D01*
X108371177Y-95887219D01*
X108398115Y-95886845D01*
X108425420Y-95887227D01*
G37*
G36*
X93442543Y-97812447D02*
G01*
X93457306Y-97812338D01*
X93475294Y-97811896D01*
X93492762Y-97811114D01*
X93509712Y-97809993D01*
X93526143Y-97808531D01*
X93542055Y-97806730D01*
X93551353Y-97805486D01*
X93566802Y-97803246D01*
X93582466Y-97800649D01*
X93598344Y-97797693D01*
X93614437Y-97794380D01*
X93630744Y-97790710D01*
X93647266Y-97786681D01*
X93653935Y-97784969D01*
X93673437Y-97779776D01*
X93693060Y-97774086D01*
X93712807Y-97767900D01*
X93732675Y-97761219D01*
X93752666Y-97754041D01*
X93772779Y-97746368D01*
X93793015Y-97738199D01*
X93806573Y-97732477D01*
X93820186Y-97726535D01*
X93833853Y-97720373D01*
X93847574Y-97713990D01*
X93861350Y-97707387D01*
X93868258Y-97704003D01*
X93868258Y-97350095D01*
X93857216Y-97361178D01*
X93846070Y-97371894D01*
X93834822Y-97382244D01*
X93823470Y-97392227D01*
X93812016Y-97401844D01*
X93800458Y-97411095D01*
X93788797Y-97419979D01*
X93777034Y-97428497D01*
X93762193Y-97438665D01*
X93747209Y-97448332D01*
X93732083Y-97457499D01*
X93716813Y-97466164D01*
X93701400Y-97474328D01*
X93685843Y-97481992D01*
X93679581Y-97484917D01*
X93661247Y-97493167D01*
X93642791Y-97500605D01*
X93624213Y-97507232D01*
X93605512Y-97513047D01*
X93586689Y-97518051D01*
X93567744Y-97522243D01*
X93548676Y-97525624D01*
X93529486Y-97528194D01*
X93510173Y-97529952D01*
X93490739Y-97530899D01*
X93477714Y-97531079D01*
X93456145Y-97530564D01*
X93435678Y-97529018D01*
X93416312Y-97526442D01*
X93398047Y-97522836D01*
X93380883Y-97518199D01*
X93364821Y-97512532D01*
X93349860Y-97505834D01*
X93336000Y-97498106D01*
X93323241Y-97489348D01*
X93311584Y-97479559D01*
X93304424Y-97472461D01*
X93294472Y-97460855D01*
X93285499Y-97448019D01*
X93277505Y-97433953D01*
X93270489Y-97418657D01*
X93264453Y-97402131D01*
X93259395Y-97384374D01*
X93255317Y-97365388D01*
X93252217Y-97345172D01*
X93250096Y-97323726D01*
X93249226Y-97308745D01*
X93248791Y-97293217D01*
X93248736Y-97285249D01*
X93248736Y-96522845D01*
X93619131Y-96522845D01*
X93619131Y-96264924D01*
X92946486Y-96264924D01*
X92946486Y-97295873D01*
X92946600Y-97313075D01*
X92946942Y-97329967D01*
X92947513Y-97346548D01*
X92948312Y-97362821D01*
X92949339Y-97378783D01*
X92950595Y-97394435D01*
X92952078Y-97409778D01*
X92953790Y-97424811D01*
X92955731Y-97439533D01*
X92960296Y-97468050D01*
X92965774Y-97495327D01*
X92972165Y-97521364D01*
X92979470Y-97546163D01*
X92987687Y-97569722D01*
X92996818Y-97592041D01*
X93006861Y-97613121D01*
X93017818Y-97632962D01*
X93029687Y-97651564D01*
X93042470Y-97668926D01*
X93056166Y-97685049D01*
X93063356Y-97692646D01*
X93074826Y-97703775D01*
X93086978Y-97714357D01*
X93099813Y-97724392D01*
X93113330Y-97733879D01*
X93127531Y-97742819D01*
X93142413Y-97751211D01*
X93157979Y-97759056D01*
X93174227Y-97766354D01*
X93191158Y-97773104D01*
X93208771Y-97779307D01*
X93220893Y-97783138D01*
X93239462Y-97788376D01*
X93258489Y-97793098D01*
X93277974Y-97797306D01*
X93297915Y-97800998D01*
X93318314Y-97804175D01*
X93339170Y-97806837D01*
X93360483Y-97808984D01*
X93382253Y-97810615D01*
X93397021Y-97811416D01*
X93411992Y-97811989D01*
X93427166Y-97812332D01*
X93442543Y-97812447D01*
G37*
G36*
X92235739Y-96522845D02*
G01*
X92624452Y-96522845D01*
X92624452Y-96264924D01*
X91544776Y-96264924D01*
X91544776Y-96522845D01*
X91933489Y-96522845D01*
X91933489Y-97789000D01*
X92235739Y-97789000D01*
X92235739Y-96522845D01*
G37*
G36*
X91419846Y-97789000D02*
G01*
X91117229Y-97789000D01*
X91024905Y-97413842D01*
X90620073Y-97413842D01*
X90525551Y-97789000D01*
X90222934Y-97789000D01*
X90390622Y-97170577D01*
X90678325Y-97170577D01*
X90964455Y-97170577D01*
X90821939Y-96545926D01*
X90678325Y-97170577D01*
X90390622Y-97170577D01*
X90636193Y-96264924D01*
X91006587Y-96264924D01*
X91419846Y-97789000D01*
G37*
G36*
X89452103Y-97812447D02*
G01*
X89470428Y-97812248D01*
X89488489Y-97811651D01*
X89506289Y-97810656D01*
X89523825Y-97809264D01*
X89541099Y-97807474D01*
X89558110Y-97805286D01*
X89574859Y-97802700D01*
X89591345Y-97799716D01*
X89607568Y-97796334D01*
X89623529Y-97792554D01*
X89639227Y-97788377D01*
X89654663Y-97783802D01*
X89669836Y-97778829D01*
X89684746Y-97773458D01*
X89699394Y-97767689D01*
X89713779Y-97761522D01*
X89727902Y-97754958D01*
X89741762Y-97747995D01*
X89755359Y-97740635D01*
X89768694Y-97732877D01*
X89781766Y-97724721D01*
X89794575Y-97716167D01*
X89807122Y-97707216D01*
X89819407Y-97697866D01*
X89831428Y-97688119D01*
X89843187Y-97677974D01*
X89854684Y-97667431D01*
X89865918Y-97656490D01*
X89876889Y-97645151D01*
X89887598Y-97633415D01*
X89898044Y-97621281D01*
X89908227Y-97608748D01*
X89917711Y-97596385D01*
X89926929Y-97583658D01*
X89935880Y-97570568D01*
X89944566Y-97557114D01*
X89952985Y-97543296D01*
X89961138Y-97529116D01*
X89969025Y-97514571D01*
X89976646Y-97499663D01*
X89984000Y-97484392D01*
X89991088Y-97468757D01*
X89997910Y-97452759D01*
X90004466Y-97436397D01*
X90010756Y-97419671D01*
X90016780Y-97402583D01*
X90022537Y-97385130D01*
X90028028Y-97367314D01*
X90033174Y-97349106D01*
X90037989Y-97330477D01*
X90042471Y-97311428D01*
X90046621Y-97291958D01*
X90050439Y-97272067D01*
X90053925Y-97251755D01*
X90057080Y-97231022D01*
X90059902Y-97209869D01*
X90062392Y-97188295D01*
X90064550Y-97166300D01*
X90066376Y-97143885D01*
X90067870Y-97121049D01*
X90069032Y-97097792D01*
X90069862Y-97074114D01*
X90070360Y-97050016D01*
X90070526Y-97025496D01*
X90070366Y-97001770D01*
X90069885Y-96978400D01*
X90069084Y-96955387D01*
X90067962Y-96932732D01*
X90066519Y-96910433D01*
X90064756Y-96888492D01*
X90062672Y-96866907D01*
X90060268Y-96845680D01*
X90057543Y-96824810D01*
X90054498Y-96804297D01*
X90051132Y-96784141D01*
X90047445Y-96764342D01*
X90043438Y-96744900D01*
X90039111Y-96725815D01*
X90034462Y-96707087D01*
X90029494Y-96688716D01*
X90024204Y-96670702D01*
X90018594Y-96653046D01*
X90012664Y-96635746D01*
X90006413Y-96618803D01*
X89999841Y-96602218D01*
X89992949Y-96585989D01*
X89985736Y-96570118D01*
X89978203Y-96554604D01*
X89970349Y-96539447D01*
X89962174Y-96524646D01*
X89953679Y-96510203D01*
X89944863Y-96496117D01*
X89935727Y-96482388D01*
X89926270Y-96469016D01*
X89916493Y-96456001D01*
X89906395Y-96443344D01*
X89896002Y-96430924D01*
X89885338Y-96418899D01*
X89874403Y-96407268D01*
X89863199Y-96396031D01*
X89851723Y-96385189D01*
X89839977Y-96374740D01*
X89827961Y-96364686D01*
X89815674Y-96355027D01*
X89803117Y-96345761D01*
X89790289Y-96336890D01*
X89777191Y-96328414D01*
X89763822Y-96320331D01*
X89750183Y-96312643D01*
X89736273Y-96305349D01*
X89722093Y-96298449D01*
X89707643Y-96291943D01*
X89692921Y-96285832D01*
X89677930Y-96280115D01*
X89662668Y-96274793D01*
X89647135Y-96269864D01*
X89631332Y-96265330D01*
X89615259Y-96261190D01*
X89598915Y-96257445D01*
X89582300Y-96254093D01*
X89565415Y-96251136D01*
X89548260Y-96248574D01*
X89530834Y-96246405D01*
X89513137Y-96244631D01*
X89495171Y-96243251D01*
X89476933Y-96242265D01*
X89458425Y-96241674D01*
X89439647Y-96241477D01*
X89421449Y-96241715D01*
X89403398Y-96242430D01*
X89385496Y-96243621D01*
X89367742Y-96245289D01*
X89350137Y-96247434D01*
X89332679Y-96250055D01*
X89315369Y-96253153D01*
X89298208Y-96256727D01*
X89281194Y-96260777D01*
X89264329Y-96265305D01*
X89253168Y-96268588D01*
X89236385Y-96274021D01*
X89219834Y-96279879D01*
X89203515Y-96286163D01*
X89187428Y-96292871D01*
X89171573Y-96300004D01*
X89155949Y-96307563D01*
X89140558Y-96315546D01*
X89125398Y-96323955D01*
X89110470Y-96332788D01*
X89095774Y-96342047D01*
X89086106Y-96348455D01*
X89086106Y-96684778D01*
X89098154Y-96670013D01*
X89110530Y-96655944D01*
X89123235Y-96642570D01*
X89136269Y-96629892D01*
X89149631Y-96617909D01*
X89163321Y-96606622D01*
X89177340Y-96596030D01*
X89191687Y-96586134D01*
X89206363Y-96576933D01*
X89221367Y-96568428D01*
X89231552Y-96563145D01*
X89246898Y-96555943D01*
X89262572Y-96549449D01*
X89278574Y-96543664D01*
X89294905Y-96538587D01*
X89311564Y-96534218D01*
X89328551Y-96530558D01*
X89345867Y-96527607D01*
X89363512Y-96525363D01*
X89381485Y-96523828D01*
X89399786Y-96523002D01*
X89412170Y-96522845D01*
X89433486Y-96523331D01*
X89454113Y-96524791D01*
X89474050Y-96527224D01*
X89493297Y-96530630D01*
X89511854Y-96535009D01*
X89529721Y-96540361D01*
X89546899Y-96546687D01*
X89563387Y-96553986D01*
X89579185Y-96562257D01*
X89594293Y-96571502D01*
X89608711Y-96581720D01*
X89622440Y-96592912D01*
X89635479Y-96605076D01*
X89647828Y-96618214D01*
X89659487Y-96632325D01*
X89670457Y-96647408D01*
X89680749Y-96663740D01*
X89690378Y-96681045D01*
X89699342Y-96699323D01*
X89707643Y-96718575D01*
X89715279Y-96738799D01*
X89722251Y-96759997D01*
X89728560Y-96782168D01*
X89734204Y-96805311D01*
X89739184Y-96829429D01*
X89743500Y-96854519D01*
X89747153Y-96880582D01*
X89750141Y-96907619D01*
X89752465Y-96935628D01*
X89754125Y-96964611D01*
X89754706Y-96979468D01*
X89755121Y-96994567D01*
X89755370Y-97009910D01*
X89755453Y-97025496D01*
X89755373Y-97040772D01*
X89755133Y-97055824D01*
X89754732Y-97070654D01*
X89753450Y-97099642D01*
X89751526Y-97127738D01*
X89748962Y-97154940D01*
X89745756Y-97181250D01*
X89741909Y-97206666D01*
X89737421Y-97231190D01*
X89732292Y-97254820D01*
X89726522Y-97277558D01*
X89720110Y-97299402D01*
X89713058Y-97320354D01*
X89705364Y-97340412D01*
X89697029Y-97359578D01*
X89688054Y-97377850D01*
X89678436Y-97395229D01*
X89673387Y-97403584D01*
X89663364Y-97418445D01*
X89652711Y-97432435D01*
X89641428Y-97445556D01*
X89629515Y-97457806D01*
X89616973Y-97469186D01*
X89603801Y-97479696D01*
X89590000Y-97489336D01*
X89575568Y-97498106D01*
X89560444Y-97505834D01*
X89544565Y-97512532D01*
X89527929Y-97518199D01*
X89510539Y-97522836D01*
X89492392Y-97526442D01*
X89473490Y-97529018D01*
X89458818Y-97530274D01*
X89443720Y-97530950D01*
X89433419Y-97531079D01*
X89417929Y-97530821D01*
X89402232Y-97530049D01*
X89391653Y-97529247D01*
X89376008Y-97527186D01*
X89361497Y-97524301D01*
X89352452Y-97521920D01*
X89337237Y-97518193D01*
X89322564Y-97513100D01*
X89318747Y-97511295D01*
X89305970Y-97503709D01*
X89296032Y-97497007D01*
X89296032Y-97211609D01*
X89503394Y-97211609D01*
X89503394Y-96968344D01*
X89031517Y-96968344D01*
X89031517Y-97656742D01*
X89048021Y-97670833D01*
X89064834Y-97684254D01*
X89081955Y-97697005D01*
X89099386Y-97709086D01*
X89117126Y-97720498D01*
X89135175Y-97731240D01*
X89153534Y-97741312D01*
X89172201Y-97750714D01*
X89191178Y-97759447D01*
X89210463Y-97767510D01*
X89223492Y-97772513D01*
X89240156Y-97778454D01*
X89256944Y-97783912D01*
X89273858Y-97788887D01*
X89290897Y-97793379D01*
X89308062Y-97797388D01*
X89325351Y-97800913D01*
X89332302Y-97802189D01*
X89349814Y-97805144D01*
X89367772Y-97807598D01*
X89382461Y-97809201D01*
X89397436Y-97810483D01*
X89412698Y-97811445D01*
X89428245Y-97812086D01*
X89444079Y-97812407D01*
X89452103Y-97812447D01*
G37*
G36*
X130381193Y-88430000D02*
G01*
X129776692Y-88430000D01*
X129776692Y-87275219D01*
X129551011Y-87275219D01*
X129511878Y-87275002D01*
X129473428Y-87274349D01*
X129435662Y-87273262D01*
X129398581Y-87271739D01*
X129362183Y-87269781D01*
X129326470Y-87267388D01*
X129291441Y-87264560D01*
X129257096Y-87261297D01*
X129223434Y-87257599D01*
X129190457Y-87253466D01*
X129158164Y-87248898D01*
X129126555Y-87243895D01*
X129095631Y-87238457D01*
X129065390Y-87232584D01*
X129035833Y-87226275D01*
X129006960Y-87219532D01*
X128951267Y-87204740D01*
X128898310Y-87188208D01*
X128848090Y-87169935D01*
X128800606Y-87149923D01*
X128755858Y-87128170D01*
X128713846Y-87104677D01*
X128674571Y-87079443D01*
X128638032Y-87052470D01*
X128604581Y-87023710D01*
X128573288Y-86992752D01*
X128544154Y-86959596D01*
X128517177Y-86924242D01*
X128492359Y-86886690D01*
X128469699Y-86846939D01*
X128449197Y-86804991D01*
X128430853Y-86760844D01*
X128414667Y-86714499D01*
X128400639Y-86665956D01*
X128388769Y-86615214D01*
X128379058Y-86562274D01*
X128371504Y-86507137D01*
X128366109Y-86449801D01*
X128364221Y-86420308D01*
X128362872Y-86390266D01*
X128362063Y-86359675D01*
X128361793Y-86328534D01*
X128991207Y-86328534D01*
X128991323Y-86344278D01*
X128992250Y-86374881D01*
X128994105Y-86404304D01*
X128998626Y-86446229D01*
X129005233Y-86485500D01*
X129013927Y-86522117D01*
X129024708Y-86556082D01*
X129037575Y-86587393D01*
X129052528Y-86616051D01*
X129069569Y-86642056D01*
X129088695Y-86665407D01*
X129109909Y-86686106D01*
X129125453Y-86698528D01*
X129151422Y-86715658D01*
X129180571Y-86730985D01*
X129212902Y-86744509D01*
X129248414Y-86756230D01*
X129287108Y-86766148D01*
X129328983Y-86774262D01*
X129358667Y-86778670D01*
X129389765Y-86782276D01*
X129422277Y-86785081D01*
X129456203Y-86787085D01*
X129491543Y-86788287D01*
X129528297Y-86788688D01*
X129776692Y-86788688D01*
X129776692Y-85868381D01*
X129528297Y-85868381D01*
X129509743Y-85868481D01*
X129473696Y-85869289D01*
X129439063Y-85870903D01*
X129405844Y-85873324D01*
X129374039Y-85876553D01*
X129343648Y-85880589D01*
X129300713Y-85888156D01*
X129260959Y-85897539D01*
X129224386Y-85908738D01*
X129190995Y-85921753D01*
X129160785Y-85936584D01*
X129133756Y-85953232D01*
X129109909Y-85971695D01*
X129102606Y-85978255D01*
X129082088Y-85999711D01*
X129063657Y-86023833D01*
X129047312Y-86050621D01*
X129033054Y-86080075D01*
X129020882Y-86112196D01*
X129010797Y-86146983D01*
X129002799Y-86184436D01*
X128996887Y-86224555D01*
X128993061Y-86267340D01*
X128991670Y-86297344D01*
X128991207Y-86328534D01*
X128361793Y-86328534D01*
X128362063Y-86297393D01*
X128362872Y-86266802D01*
X128364221Y-86236760D01*
X128366109Y-86207267D01*
X128371504Y-86149931D01*
X128379058Y-86094794D01*
X128388769Y-86041854D01*
X128400639Y-85991113D01*
X128414667Y-85942569D01*
X128430853Y-85896224D01*
X128449197Y-85852077D01*
X128469699Y-85810129D01*
X128492359Y-85770378D01*
X128517177Y-85732826D01*
X128544154Y-85697472D01*
X128573288Y-85664316D01*
X128604581Y-85633358D01*
X128638032Y-85604598D01*
X128674571Y-85577625D01*
X128713846Y-85552391D01*
X128755858Y-85528898D01*
X128800606Y-85507145D01*
X128848090Y-85487133D01*
X128898310Y-85468860D01*
X128951267Y-85452328D01*
X129006960Y-85437536D01*
X129035833Y-85430793D01*
X129065390Y-85424484D01*
X129095631Y-85418611D01*
X129126555Y-85413173D01*
X129158164Y-85408170D01*
X129190457Y-85403602D01*
X129223434Y-85399469D01*
X129257096Y-85395771D01*
X129291441Y-85392508D01*
X129326470Y-85389680D01*
X129362183Y-85387287D01*
X129398581Y-85385329D01*
X129435662Y-85383807D01*
X129473428Y-85382719D01*
X129511878Y-85382066D01*
X129551011Y-85381849D01*
X130381193Y-85381849D01*
X130381193Y-88430000D01*
G37*
G36*
X127700872Y-86132163D02*
G01*
X127160118Y-86132163D01*
X127100034Y-86478743D01*
X127082730Y-86444575D01*
X127063790Y-86411862D01*
X127043214Y-86380604D01*
X127021003Y-86350802D01*
X126997155Y-86322455D01*
X126971672Y-86295564D01*
X126944553Y-86270128D01*
X126915799Y-86246148D01*
X126885409Y-86223623D01*
X126853382Y-86202553D01*
X126831123Y-86189316D01*
X126796504Y-86170721D01*
X126760790Y-86153956D01*
X126723981Y-86139019D01*
X126686077Y-86125912D01*
X126647079Y-86114633D01*
X126606985Y-86105183D01*
X126565797Y-86097563D01*
X126523514Y-86091771D01*
X126480137Y-86087808D01*
X126450610Y-86086183D01*
X126420597Y-86085370D01*
X126405408Y-86085268D01*
X126373955Y-86085692D01*
X126342794Y-86086963D01*
X126311925Y-86089081D01*
X126281348Y-86092046D01*
X126251062Y-86095858D01*
X126221069Y-86100518D01*
X126191368Y-86106025D01*
X126161959Y-86112379D01*
X126132841Y-86119580D01*
X126104016Y-86127629D01*
X126075482Y-86136525D01*
X126047241Y-86146268D01*
X126019291Y-86156858D01*
X125991634Y-86168295D01*
X125964268Y-86180580D01*
X125937194Y-86193712D01*
X125937194Y-86771835D01*
X125962585Y-86747612D01*
X125988932Y-86724952D01*
X126016234Y-86703854D01*
X126044493Y-86684320D01*
X126073708Y-86666348D01*
X126103878Y-86649939D01*
X126135005Y-86635092D01*
X126167088Y-86621809D01*
X126200126Y-86610088D01*
X126234121Y-86599930D01*
X126269071Y-86591335D01*
X126304978Y-86584302D01*
X126341841Y-86578832D01*
X126379659Y-86574925D01*
X126418434Y-86572581D01*
X126458164Y-86571800D01*
X126490384Y-86572269D01*
X126521831Y-86573678D01*
X126552506Y-86576025D01*
X126582407Y-86579310D01*
X126611536Y-86583535D01*
X126653780Y-86591632D01*
X126694286Y-86601842D01*
X126733053Y-86614164D01*
X126770080Y-86628598D01*
X126805369Y-86645144D01*
X126838920Y-86663803D01*
X126870731Y-86684574D01*
X126880948Y-86691967D01*
X126910229Y-86715295D01*
X126937346Y-86740491D01*
X126962299Y-86767554D01*
X126985088Y-86796484D01*
X127005713Y-86827282D01*
X127024174Y-86859948D01*
X127040472Y-86894482D01*
X127054605Y-86930883D01*
X127066575Y-86969151D01*
X127076381Y-87009288D01*
X127081716Y-87037083D01*
X127087023Y-87069025D01*
X127090961Y-87100532D01*
X127093806Y-87130505D01*
X127096090Y-87162723D01*
X127096371Y-87167508D01*
X127097616Y-87197604D01*
X127098603Y-87230740D01*
X127099229Y-87260676D01*
X127099677Y-87292722D01*
X127099945Y-87326879D01*
X127100034Y-87363147D01*
X127100034Y-88430000D01*
X127700872Y-88430000D01*
X127700872Y-86132163D01*
G37*
G36*
X124436492Y-86085841D02*
G01*
X124476752Y-86087558D01*
X124516313Y-86090420D01*
X124555177Y-86094427D01*
X124593341Y-86099579D01*
X124630808Y-86105876D01*
X124667576Y-86113318D01*
X124703646Y-86121905D01*
X124739017Y-86131636D01*
X124773690Y-86142513D01*
X124807664Y-86154534D01*
X124840941Y-86167700D01*
X124873518Y-86182011D01*
X124905398Y-86197467D01*
X124936579Y-86214068D01*
X124967062Y-86231814D01*
X124996674Y-86250613D01*
X125025428Y-86270374D01*
X125053323Y-86291096D01*
X125080360Y-86312780D01*
X125106538Y-86335426D01*
X125131857Y-86359034D01*
X125156317Y-86383603D01*
X125179919Y-86409134D01*
X125202662Y-86435627D01*
X125224547Y-86463081D01*
X125245573Y-86491497D01*
X125265740Y-86520875D01*
X125285049Y-86551215D01*
X125303498Y-86582516D01*
X125321090Y-86614779D01*
X125337822Y-86648004D01*
X125353616Y-86681998D01*
X125368391Y-86716754D01*
X125382147Y-86752272D01*
X125394883Y-86788550D01*
X125406601Y-86825590D01*
X125417300Y-86863392D01*
X125426980Y-86901954D01*
X125435641Y-86941278D01*
X125443284Y-86981364D01*
X125449907Y-87022210D01*
X125455511Y-87063819D01*
X125460096Y-87106188D01*
X125463663Y-87149319D01*
X125466210Y-87193211D01*
X125467738Y-87237864D01*
X125468248Y-87283279D01*
X125467744Y-87328605D01*
X125466233Y-87373176D01*
X125463714Y-87416991D01*
X125460188Y-87460050D01*
X125455654Y-87502354D01*
X125450113Y-87543902D01*
X125443564Y-87584694D01*
X125436008Y-87624731D01*
X125427444Y-87664012D01*
X125417873Y-87702537D01*
X125407294Y-87740307D01*
X125395708Y-87777322D01*
X125383114Y-87813580D01*
X125369513Y-87849083D01*
X125354904Y-87883831D01*
X125339288Y-87917822D01*
X125322650Y-87950867D01*
X125305159Y-87982955D01*
X125286815Y-88014087D01*
X125267618Y-88044264D01*
X125247568Y-88073484D01*
X125226665Y-88101749D01*
X125204909Y-88129057D01*
X125182301Y-88155409D01*
X125158839Y-88180806D01*
X125134524Y-88205246D01*
X125109357Y-88228731D01*
X125083336Y-88251260D01*
X125056463Y-88272832D01*
X125028737Y-88293449D01*
X125000157Y-88313109D01*
X124970725Y-88331814D01*
X124940526Y-88349382D01*
X124909645Y-88365817D01*
X124878084Y-88381118D01*
X124845841Y-88395286D01*
X124812917Y-88408321D01*
X124779311Y-88420222D01*
X124745025Y-88430990D01*
X124710057Y-88440624D01*
X124674408Y-88449125D01*
X124638078Y-88456492D01*
X124601066Y-88462726D01*
X124563374Y-88467827D01*
X124525000Y-88471794D01*
X124485945Y-88474627D01*
X124446209Y-88476327D01*
X124405791Y-88476894D01*
X124365114Y-88476322D01*
X124325146Y-88474604D01*
X124285887Y-88471742D01*
X124247339Y-88467735D01*
X124209500Y-88462583D01*
X124172372Y-88456286D01*
X124135953Y-88448844D01*
X124100244Y-88440258D01*
X124065244Y-88430526D01*
X124030955Y-88419650D01*
X123997375Y-88407628D01*
X123964506Y-88394462D01*
X123932346Y-88380151D01*
X123900896Y-88364695D01*
X123870155Y-88348094D01*
X123840125Y-88330348D01*
X123810779Y-88311546D01*
X123782274Y-88291777D01*
X123754610Y-88271040D01*
X123727789Y-88249336D01*
X123701808Y-88226664D01*
X123676669Y-88203025D01*
X123652372Y-88178419D01*
X123628916Y-88152845D01*
X123606302Y-88126304D01*
X123584529Y-88098795D01*
X123563597Y-88070319D01*
X123543507Y-88040875D01*
X123524259Y-88010464D01*
X123505852Y-87979085D01*
X123488287Y-87946739D01*
X123471563Y-87913426D01*
X123455769Y-87879231D01*
X123440994Y-87844240D01*
X123427238Y-87808454D01*
X123414501Y-87771872D01*
X123402783Y-87734494D01*
X123392084Y-87696321D01*
X123382404Y-87657352D01*
X123373743Y-87617587D01*
X123366101Y-87577026D01*
X123359478Y-87535670D01*
X123353874Y-87493518D01*
X123349289Y-87450570D01*
X123345722Y-87406827D01*
X123343175Y-87362288D01*
X123341646Y-87316953D01*
X123341250Y-87281081D01*
X123941974Y-87281081D01*
X123942097Y-87301329D01*
X123943076Y-87341040D01*
X123945033Y-87379703D01*
X123947970Y-87417318D01*
X123951885Y-87453886D01*
X123956780Y-87489406D01*
X123962653Y-87523878D01*
X123969505Y-87557303D01*
X123977336Y-87589681D01*
X123986146Y-87621011D01*
X123995935Y-87651293D01*
X124006703Y-87680528D01*
X124018449Y-87708715D01*
X124031175Y-87735854D01*
X124044879Y-87761946D01*
X124067271Y-87799120D01*
X124083268Y-87822278D01*
X124108519Y-87854214D01*
X124135277Y-87882789D01*
X124163542Y-87908001D01*
X124193315Y-87929852D01*
X124224594Y-87948341D01*
X124257380Y-87963469D01*
X124291673Y-87975235D01*
X124327473Y-87983639D01*
X124364779Y-87988682D01*
X124403593Y-87990362D01*
X124429903Y-87989615D01*
X124468079Y-87985693D01*
X124504710Y-87978410D01*
X124539795Y-87967764D01*
X124573334Y-87953757D01*
X124605328Y-87936389D01*
X124635777Y-87915658D01*
X124664679Y-87891566D01*
X124692036Y-87864113D01*
X124717848Y-87833297D01*
X124742114Y-87799120D01*
X124749823Y-87786991D01*
X124771480Y-87749031D01*
X124784695Y-87722416D01*
X124796931Y-87694752D01*
X124808188Y-87666041D01*
X124818466Y-87636283D01*
X124827766Y-87605477D01*
X124836086Y-87573623D01*
X124843428Y-87540722D01*
X124849791Y-87506773D01*
X124855174Y-87471777D01*
X124859579Y-87435733D01*
X124863005Y-87398641D01*
X124865453Y-87360502D01*
X124866921Y-87321315D01*
X124867410Y-87281081D01*
X124867288Y-87260834D01*
X124866309Y-87221129D01*
X124864351Y-87182478D01*
X124861415Y-87144880D01*
X124857499Y-87108335D01*
X124852605Y-87072843D01*
X124846732Y-87038405D01*
X124839879Y-87005020D01*
X124832048Y-86972688D01*
X124823239Y-86941410D01*
X124813450Y-86911185D01*
X124802682Y-86882013D01*
X124790935Y-86853895D01*
X124778210Y-86826830D01*
X124764506Y-86800818D01*
X124742114Y-86763775D01*
X124726108Y-86740528D01*
X124700812Y-86708470D01*
X124673970Y-86679786D01*
X124645583Y-86654477D01*
X124615650Y-86632542D01*
X124584171Y-86613982D01*
X124551146Y-86598796D01*
X124516577Y-86586985D01*
X124480461Y-86578549D01*
X124442800Y-86573487D01*
X124403593Y-86571800D01*
X124377550Y-86572544D01*
X124339741Y-86576451D01*
X124303438Y-86583707D01*
X124268643Y-86594311D01*
X124235355Y-86608265D01*
X124203573Y-86625567D01*
X124173299Y-86646218D01*
X124144532Y-86670217D01*
X124117271Y-86697566D01*
X124091517Y-86728263D01*
X124067271Y-86762309D01*
X124059562Y-86774351D01*
X124037904Y-86812089D01*
X124024690Y-86838593D01*
X124012454Y-86866174D01*
X124001197Y-86894830D01*
X123990918Y-86924563D01*
X123981619Y-86955372D01*
X123973298Y-86987257D01*
X123965957Y-87020218D01*
X123959594Y-87054256D01*
X123954210Y-87089370D01*
X123949805Y-87125560D01*
X123946379Y-87162826D01*
X123943932Y-87201168D01*
X123942464Y-87240586D01*
X123941974Y-87281081D01*
X123341250Y-87281081D01*
X123341137Y-87270823D01*
X123341638Y-87225505D01*
X123343140Y-87180961D01*
X123345645Y-87137189D01*
X123349151Y-87094190D01*
X123353659Y-87051963D01*
X123359169Y-87010510D01*
X123365680Y-86969829D01*
X123373194Y-86929921D01*
X123381709Y-86890786D01*
X123391226Y-86852424D01*
X123401744Y-86814834D01*
X123413265Y-86778017D01*
X123425787Y-86741973D01*
X123439311Y-86706702D01*
X123453837Y-86672204D01*
X123469364Y-86638478D01*
X123485814Y-86605623D01*
X123503104Y-86573735D01*
X123521236Y-86542814D01*
X123540210Y-86512861D01*
X123560025Y-86483875D01*
X123580682Y-86455857D01*
X123602180Y-86428806D01*
X123624520Y-86402723D01*
X123647701Y-86377607D01*
X123671723Y-86353458D01*
X123696588Y-86330277D01*
X123722293Y-86308063D01*
X123748840Y-86286817D01*
X123776229Y-86266538D01*
X123804459Y-86247227D01*
X123833530Y-86228883D01*
X123863375Y-86211492D01*
X123893923Y-86195223D01*
X123925176Y-86180076D01*
X123957133Y-86166051D01*
X123989793Y-86153149D01*
X124023158Y-86141368D01*
X124057227Y-86130709D01*
X124092000Y-86121172D01*
X124127478Y-86112757D01*
X124163659Y-86105464D01*
X124200544Y-86099293D01*
X124238134Y-86094244D01*
X124276428Y-86090317D01*
X124315425Y-86087512D01*
X124355127Y-86085829D01*
X124395533Y-86085268D01*
X124436492Y-86085841D01*
G37*
G36*
X121446301Y-88430000D02*
G01*
X121488046Y-88429733D01*
X121528653Y-88428935D01*
X121568120Y-88427604D01*
X121606448Y-88425741D01*
X121643637Y-88423345D01*
X121679686Y-88420417D01*
X121714597Y-88416956D01*
X121748368Y-88412964D01*
X121781000Y-88408438D01*
X121812493Y-88403381D01*
X121842847Y-88397791D01*
X121872062Y-88391669D01*
X121913748Y-88381487D01*
X121952871Y-88370108D01*
X121977529Y-88361856D01*
X122012664Y-88348078D01*
X122045802Y-88332575D01*
X122076943Y-88315346D01*
X122106089Y-88296391D01*
X122133237Y-88275710D01*
X122158390Y-88253303D01*
X122181546Y-88229170D01*
X122202706Y-88203312D01*
X122221869Y-88175727D01*
X122239036Y-88146416D01*
X122249371Y-88125917D01*
X122263514Y-88093492D01*
X122276265Y-88058864D01*
X122287625Y-88022034D01*
X122297594Y-87983001D01*
X122306172Y-87941765D01*
X122313359Y-87898328D01*
X122317378Y-87868146D01*
X122320778Y-87836985D01*
X122323560Y-87804845D01*
X122325724Y-87771726D01*
X122327270Y-87737628D01*
X122328197Y-87702552D01*
X122328506Y-87666496D01*
X122328506Y-86618695D01*
X122914689Y-86618695D01*
X122914689Y-86132163D01*
X122328506Y-86132163D01*
X122328506Y-85507145D01*
X121727669Y-85241165D01*
X121727669Y-86132163D01*
X120942184Y-86132163D01*
X120942184Y-86618695D01*
X121727669Y-86618695D01*
X121727669Y-87667962D01*
X121726467Y-87703156D01*
X121722860Y-87735831D01*
X121716849Y-87765987D01*
X121705955Y-87800141D01*
X121691304Y-87830359D01*
X121672896Y-87856641D01*
X121650732Y-87878988D01*
X121624418Y-87897563D01*
X121593559Y-87912991D01*
X121565601Y-87923066D01*
X121534735Y-87931126D01*
X121500961Y-87937171D01*
X121464279Y-87941201D01*
X121434858Y-87942901D01*
X121403803Y-87943468D01*
X120942184Y-87943468D01*
X120942184Y-88430000D01*
X121446301Y-88430000D01*
G37*
G36*
X119383596Y-86085841D02*
G01*
X119423856Y-86087558D01*
X119463417Y-86090420D01*
X119502280Y-86094427D01*
X119540445Y-86099579D01*
X119577912Y-86105876D01*
X119614680Y-86113318D01*
X119650750Y-86121905D01*
X119686121Y-86131636D01*
X119720794Y-86142513D01*
X119754768Y-86154534D01*
X119788045Y-86167700D01*
X119820622Y-86182011D01*
X119852502Y-86197467D01*
X119883683Y-86214068D01*
X119914166Y-86231814D01*
X119943778Y-86250613D01*
X119972532Y-86270374D01*
X120000427Y-86291096D01*
X120027464Y-86312780D01*
X120053642Y-86335426D01*
X120078961Y-86359034D01*
X120103421Y-86383603D01*
X120127023Y-86409134D01*
X120149766Y-86435627D01*
X120171651Y-86463081D01*
X120192677Y-86491497D01*
X120212844Y-86520875D01*
X120232153Y-86551215D01*
X120250602Y-86582516D01*
X120268194Y-86614779D01*
X120284926Y-86648004D01*
X120300720Y-86681998D01*
X120315495Y-86716754D01*
X120329251Y-86752272D01*
X120341987Y-86788550D01*
X120353705Y-86825590D01*
X120364404Y-86863392D01*
X120374084Y-86901954D01*
X120382745Y-86941278D01*
X120390388Y-86981364D01*
X120397011Y-87022210D01*
X120402615Y-87063819D01*
X120407200Y-87106188D01*
X120410767Y-87149319D01*
X120413314Y-87193211D01*
X120414842Y-87237864D01*
X120415352Y-87283279D01*
X120414848Y-87328605D01*
X120413337Y-87373176D01*
X120410818Y-87416991D01*
X120407292Y-87460050D01*
X120402758Y-87502354D01*
X120397217Y-87543902D01*
X120390668Y-87584694D01*
X120383112Y-87624731D01*
X120374548Y-87664012D01*
X120364977Y-87702537D01*
X120354398Y-87740307D01*
X120342812Y-87777322D01*
X120330218Y-87813580D01*
X120316617Y-87849083D01*
X120302008Y-87883831D01*
X120286392Y-87917822D01*
X120269754Y-87950867D01*
X120252262Y-87982955D01*
X120233919Y-88014087D01*
X120214722Y-88044264D01*
X120194672Y-88073484D01*
X120173769Y-88101749D01*
X120152013Y-88129057D01*
X120129405Y-88155409D01*
X120105943Y-88180806D01*
X120081628Y-88205246D01*
X120056461Y-88228731D01*
X120030440Y-88251260D01*
X120003567Y-88272832D01*
X119975841Y-88293449D01*
X119947261Y-88313109D01*
X119917829Y-88331814D01*
X119887630Y-88349382D01*
X119856749Y-88365817D01*
X119825188Y-88381118D01*
X119792945Y-88395286D01*
X119760021Y-88408321D01*
X119726415Y-88420222D01*
X119692129Y-88430990D01*
X119657161Y-88440624D01*
X119621512Y-88449125D01*
X119585182Y-88456492D01*
X119548170Y-88462726D01*
X119510478Y-88467827D01*
X119472104Y-88471794D01*
X119433049Y-88474627D01*
X119393313Y-88476327D01*
X119352895Y-88476894D01*
X119312218Y-88476322D01*
X119272250Y-88474604D01*
X119232991Y-88471742D01*
X119194443Y-88467735D01*
X119156604Y-88462583D01*
X119119476Y-88456286D01*
X119083057Y-88448844D01*
X119047348Y-88440258D01*
X119012348Y-88430526D01*
X118978059Y-88419650D01*
X118944479Y-88407628D01*
X118911610Y-88394462D01*
X118879450Y-88380151D01*
X118848000Y-88364695D01*
X118817259Y-88348094D01*
X118787229Y-88330348D01*
X118757883Y-88311546D01*
X118729378Y-88291777D01*
X118701714Y-88271040D01*
X118674893Y-88249336D01*
X118648912Y-88226664D01*
X118623773Y-88203025D01*
X118599476Y-88178419D01*
X118576020Y-88152845D01*
X118553406Y-88126304D01*
X118531633Y-88098795D01*
X118510701Y-88070319D01*
X118490611Y-88040875D01*
X118471363Y-88010464D01*
X118452956Y-87979085D01*
X118435391Y-87946739D01*
X118418667Y-87913426D01*
X118402873Y-87879231D01*
X118388098Y-87844240D01*
X118374342Y-87808454D01*
X118361605Y-87771872D01*
X118349887Y-87734494D01*
X118339188Y-87696321D01*
X118329508Y-87657352D01*
X118320847Y-87617587D01*
X118313205Y-87577026D01*
X118306582Y-87535670D01*
X118300978Y-87493518D01*
X118296392Y-87450570D01*
X118292826Y-87406827D01*
X118290279Y-87362288D01*
X118288750Y-87316953D01*
X118288354Y-87281081D01*
X118889078Y-87281081D01*
X118889201Y-87301329D01*
X118890180Y-87341040D01*
X118892137Y-87379703D01*
X118895074Y-87417318D01*
X118898989Y-87453886D01*
X118903884Y-87489406D01*
X118909757Y-87523878D01*
X118916609Y-87557303D01*
X118924440Y-87589681D01*
X118933250Y-87621011D01*
X118943039Y-87651293D01*
X118953807Y-87680528D01*
X118965553Y-87708715D01*
X118978279Y-87735854D01*
X118991983Y-87761946D01*
X119014375Y-87799120D01*
X119030372Y-87822278D01*
X119055623Y-87854214D01*
X119082381Y-87882789D01*
X119110646Y-87908001D01*
X119140418Y-87929852D01*
X119171698Y-87948341D01*
X119204484Y-87963469D01*
X119238777Y-87975235D01*
X119274577Y-87983639D01*
X119311883Y-87988682D01*
X119350697Y-87990362D01*
X119377007Y-87989615D01*
X119415183Y-87985693D01*
X119451814Y-87978410D01*
X119486899Y-87967764D01*
X119520438Y-87953757D01*
X119552432Y-87936389D01*
X119582881Y-87915658D01*
X119611783Y-87891566D01*
X119639140Y-87864113D01*
X119664952Y-87833297D01*
X119689218Y-87799120D01*
X119696927Y-87786991D01*
X119718584Y-87749031D01*
X119731799Y-87722416D01*
X119744035Y-87694752D01*
X119755292Y-87666041D01*
X119765570Y-87636283D01*
X119774870Y-87605477D01*
X119783190Y-87573623D01*
X119790532Y-87540722D01*
X119796895Y-87506773D01*
X119802278Y-87471777D01*
X119806683Y-87435733D01*
X119810109Y-87398641D01*
X119812557Y-87360502D01*
X119814025Y-87321315D01*
X119814514Y-87281081D01*
X119814392Y-87260834D01*
X119813413Y-87221129D01*
X119811455Y-87182478D01*
X119808519Y-87144880D01*
X119804603Y-87108335D01*
X119799709Y-87072843D01*
X119793836Y-87038405D01*
X119786983Y-87005020D01*
X119779152Y-86972688D01*
X119770342Y-86941410D01*
X119760554Y-86911185D01*
X119749786Y-86882013D01*
X119738039Y-86853895D01*
X119725314Y-86826830D01*
X119711610Y-86800818D01*
X119689218Y-86763775D01*
X119673212Y-86740528D01*
X119647916Y-86708470D01*
X119621074Y-86679786D01*
X119592687Y-86654477D01*
X119562753Y-86632542D01*
X119531275Y-86613982D01*
X119498250Y-86598796D01*
X119463681Y-86586985D01*
X119427565Y-86578549D01*
X119389904Y-86573487D01*
X119350697Y-86571800D01*
X119324654Y-86572544D01*
X119286845Y-86576451D01*
X119250542Y-86583707D01*
X119215747Y-86594311D01*
X119182459Y-86608265D01*
X119150677Y-86625567D01*
X119120403Y-86646218D01*
X119091636Y-86670217D01*
X119064375Y-86697566D01*
X119038621Y-86728263D01*
X119014375Y-86762309D01*
X119006666Y-86774351D01*
X118985008Y-86812089D01*
X118971794Y-86838593D01*
X118959558Y-86866174D01*
X118948300Y-86894830D01*
X118938022Y-86924563D01*
X118928723Y-86955372D01*
X118920402Y-86987257D01*
X118913061Y-87020218D01*
X118906698Y-87054256D01*
X118901314Y-87089370D01*
X118896909Y-87125560D01*
X118893483Y-87162826D01*
X118891036Y-87201168D01*
X118889568Y-87240586D01*
X118889078Y-87281081D01*
X118288354Y-87281081D01*
X118288241Y-87270823D01*
X118288742Y-87225505D01*
X118290244Y-87180961D01*
X118292749Y-87137189D01*
X118296255Y-87094190D01*
X118300763Y-87051963D01*
X118306273Y-87010510D01*
X118312784Y-86969829D01*
X118320298Y-86929921D01*
X118328813Y-86890786D01*
X118338330Y-86852424D01*
X118348848Y-86814834D01*
X118360369Y-86778017D01*
X118372891Y-86741973D01*
X118386415Y-86706702D01*
X118400941Y-86672204D01*
X118416468Y-86638478D01*
X118432918Y-86605623D01*
X118450208Y-86573735D01*
X118468340Y-86542814D01*
X118487314Y-86512861D01*
X118507129Y-86483875D01*
X118527786Y-86455857D01*
X118549284Y-86428806D01*
X118571624Y-86402723D01*
X118594805Y-86377607D01*
X118618827Y-86353458D01*
X118643692Y-86330277D01*
X118669397Y-86308063D01*
X118695944Y-86286817D01*
X118723333Y-86266538D01*
X118751563Y-86247227D01*
X118780634Y-86228883D01*
X118810479Y-86211492D01*
X118841027Y-86195223D01*
X118872280Y-86180076D01*
X118904237Y-86166051D01*
X118936897Y-86153149D01*
X118970262Y-86141368D01*
X119004331Y-86130709D01*
X119039104Y-86121172D01*
X119074582Y-86112757D01*
X119110763Y-86105464D01*
X119147648Y-86099293D01*
X119185238Y-86094244D01*
X119223532Y-86090317D01*
X119262529Y-86087512D01*
X119302231Y-86085829D01*
X119342637Y-86085268D01*
X119383596Y-86085841D01*
G37*
G36*
X116393405Y-88430000D02*
G01*
X116435150Y-88429733D01*
X116475757Y-88428935D01*
X116515224Y-88427604D01*
X116553552Y-88425741D01*
X116590741Y-88423345D01*
X116626790Y-88420417D01*
X116661701Y-88416956D01*
X116695472Y-88412964D01*
X116728104Y-88408438D01*
X116759597Y-88403381D01*
X116789951Y-88397791D01*
X116819166Y-88391669D01*
X116860852Y-88381487D01*
X116899975Y-88370108D01*
X116924633Y-88361856D01*
X116959768Y-88348078D01*
X116992906Y-88332575D01*
X117024047Y-88315346D01*
X117053193Y-88296391D01*
X117080341Y-88275710D01*
X117105494Y-88253303D01*
X117128650Y-88229170D01*
X117149810Y-88203312D01*
X117168973Y-88175727D01*
X117186140Y-88146416D01*
X117196475Y-88125917D01*
X117210618Y-88093492D01*
X117223369Y-88058864D01*
X117234729Y-88022034D01*
X117244698Y-87983001D01*
X117253276Y-87941765D01*
X117260463Y-87898328D01*
X117264482Y-87868146D01*
X117267882Y-87836985D01*
X117270664Y-87804845D01*
X117272828Y-87771726D01*
X117274374Y-87737628D01*
X117275301Y-87702552D01*
X117275610Y-87666496D01*
X117275610Y-86618695D01*
X117861793Y-86618695D01*
X117861793Y-86132163D01*
X117275610Y-86132163D01*
X117275610Y-85507145D01*
X116674773Y-85241165D01*
X116674773Y-86132163D01*
X115889288Y-86132163D01*
X115889288Y-86618695D01*
X116674773Y-86618695D01*
X116674773Y-87667962D01*
X116673570Y-87703156D01*
X116669964Y-87735831D01*
X116663953Y-87765987D01*
X116653059Y-87800141D01*
X116638408Y-87830359D01*
X116620000Y-87856641D01*
X116597836Y-87878988D01*
X116571522Y-87897563D01*
X116540663Y-87912991D01*
X116512705Y-87923066D01*
X116481839Y-87931126D01*
X116448065Y-87937171D01*
X116411382Y-87941201D01*
X116381962Y-87942901D01*
X116350907Y-87943468D01*
X115889288Y-87943468D01*
X115889288Y-88430000D01*
X116393405Y-88430000D01*
G37*
G36*
X115282588Y-88805157D02*
G01*
X115216643Y-88805157D01*
X115155094Y-88805157D01*
X115118617Y-88804985D01*
X115083927Y-88804470D01*
X115051023Y-88803611D01*
X115019905Y-88802409D01*
X114990573Y-88800863D01*
X114956420Y-88798448D01*
X114925057Y-88795497D01*
X114913293Y-88794166D01*
X114879857Y-88788885D01*
X114848790Y-88781286D01*
X114820094Y-88771368D01*
X114789609Y-88756867D01*
X114762351Y-88739211D01*
X114737267Y-88717843D01*
X114716659Y-88695621D01*
X114696875Y-88669792D01*
X114677916Y-88640357D01*
X114662746Y-88613073D01*
X114656838Y-88601458D01*
X114641826Y-88570095D01*
X114629301Y-88542377D01*
X114616318Y-88512324D01*
X114602877Y-88479935D01*
X114588978Y-88445211D01*
X114578253Y-88417635D01*
X114567271Y-88388745D01*
X114556031Y-88358541D01*
X114548394Y-88337676D01*
X115421807Y-86132163D01*
X114790195Y-86132163D01*
X114264828Y-87609344D01*
X113762909Y-86132163D01*
X113131297Y-86132163D01*
X114084577Y-88657878D01*
X114096362Y-88688447D01*
X114108637Y-88718603D01*
X114121401Y-88748347D01*
X114134655Y-88777679D01*
X114148398Y-88806599D01*
X114162630Y-88835107D01*
X114177352Y-88863202D01*
X114192563Y-88890886D01*
X114208264Y-88918157D01*
X114224454Y-88945016D01*
X114235519Y-88962693D01*
X114252667Y-88988582D01*
X114270587Y-89013492D01*
X114289280Y-89037423D01*
X114308746Y-89060375D01*
X114328985Y-89082348D01*
X114349997Y-89103343D01*
X114371781Y-89123358D01*
X114394338Y-89142395D01*
X114417668Y-89160453D01*
X114441771Y-89177531D01*
X114458269Y-89188374D01*
X114483683Y-89203694D01*
X114510192Y-89217508D01*
X114537796Y-89229815D01*
X114566495Y-89240615D01*
X114596289Y-89249908D01*
X114627177Y-89257694D01*
X114659160Y-89263973D01*
X114692238Y-89268745D01*
X114726411Y-89272010D01*
X114761679Y-89273768D01*
X114785798Y-89274103D01*
X115282588Y-89274103D01*
X115282588Y-88805157D01*
G37*
G36*
X111570969Y-86086814D02*
G01*
X111620846Y-86091451D01*
X111668926Y-86099179D01*
X111715208Y-86109998D01*
X111759693Y-86123908D01*
X111802380Y-86140910D01*
X111843269Y-86161003D01*
X111882362Y-86184187D01*
X111919656Y-86210462D01*
X111955154Y-86239828D01*
X111988853Y-86272286D01*
X112020756Y-86307834D01*
X112050861Y-86346474D01*
X112079168Y-86388206D01*
X112105678Y-86433028D01*
X112130390Y-86480942D01*
X112189741Y-86132163D01*
X112729029Y-86132163D01*
X112729029Y-89274103D01*
X112130390Y-89274103D01*
X112130390Y-88106866D01*
X112103256Y-88151674D01*
X112074611Y-88193592D01*
X112044455Y-88232618D01*
X112012787Y-88268753D01*
X111979608Y-88301998D01*
X111944918Y-88332352D01*
X111908717Y-88359815D01*
X111871004Y-88384387D01*
X111831780Y-88406068D01*
X111791045Y-88424859D01*
X111748799Y-88440759D01*
X111705041Y-88453767D01*
X111659772Y-88463885D01*
X111612992Y-88471112D01*
X111564701Y-88475449D01*
X111514898Y-88476894D01*
X111467637Y-88475661D01*
X111421659Y-88471960D01*
X111376962Y-88465792D01*
X111333548Y-88457156D01*
X111291416Y-88446054D01*
X111250566Y-88432484D01*
X111210999Y-88416447D01*
X111172714Y-88397943D01*
X111135711Y-88376971D01*
X111099991Y-88353532D01*
X111065552Y-88327626D01*
X111032396Y-88299253D01*
X111000523Y-88268413D01*
X110969931Y-88235105D01*
X110940622Y-88199330D01*
X110912595Y-88161088D01*
X110899071Y-88141065D01*
X110873311Y-88099586D01*
X110849269Y-88056195D01*
X110826943Y-88010892D01*
X110806335Y-87963676D01*
X110787445Y-87914549D01*
X110770271Y-87863510D01*
X110754815Y-87810559D01*
X110741077Y-87755696D01*
X110729055Y-87698921D01*
X110723689Y-87669817D01*
X110718751Y-87640234D01*
X110714243Y-87610174D01*
X110710165Y-87579635D01*
X110706515Y-87548619D01*
X110703295Y-87517124D01*
X110700505Y-87485152D01*
X110698143Y-87452701D01*
X110696211Y-87419773D01*
X110694709Y-87386367D01*
X110693635Y-87352482D01*
X110692991Y-87318120D01*
X110692777Y-87283279D01*
X110692867Y-87268625D01*
X111293614Y-87268625D01*
X111293726Y-87289147D01*
X111294619Y-87329401D01*
X111296405Y-87368602D01*
X111299084Y-87406750D01*
X111302656Y-87443844D01*
X111307121Y-87479885D01*
X111312479Y-87514873D01*
X111318730Y-87548808D01*
X111325874Y-87581689D01*
X111333911Y-87613517D01*
X111342842Y-87644291D01*
X111352665Y-87674013D01*
X111363381Y-87702681D01*
X111374990Y-87730295D01*
X111387492Y-87756857D01*
X111407920Y-87794724D01*
X111422408Y-87818414D01*
X111445236Y-87851085D01*
X111469377Y-87880316D01*
X111494833Y-87906108D01*
X111521602Y-87928461D01*
X111549684Y-87947375D01*
X111579081Y-87962851D01*
X111609791Y-87974887D01*
X111641815Y-87983484D01*
X111675153Y-87988643D01*
X111709804Y-87990362D01*
X111733323Y-87989607D01*
X111767496Y-87985640D01*
X111800342Y-87978272D01*
X111831861Y-87967505D01*
X111862054Y-87953337D01*
X111890920Y-87935768D01*
X111918460Y-87914800D01*
X111944673Y-87890431D01*
X111969559Y-87862662D01*
X111993119Y-87831492D01*
X112015352Y-87796922D01*
X112022429Y-87784662D01*
X112042314Y-87746387D01*
X112054447Y-87719625D01*
X112065681Y-87691867D01*
X112076017Y-87663113D01*
X112085453Y-87633363D01*
X112093991Y-87602617D01*
X112101631Y-87570875D01*
X112108371Y-87538137D01*
X112114213Y-87504403D01*
X112119156Y-87469673D01*
X112123200Y-87433947D01*
X112126346Y-87397224D01*
X112128593Y-87359506D01*
X112129941Y-87320792D01*
X112130390Y-87281081D01*
X112129938Y-87241374D01*
X112128581Y-87202668D01*
X112126320Y-87164964D01*
X112123155Y-87128261D01*
X112119084Y-87092561D01*
X112114110Y-87057862D01*
X112108231Y-87024165D01*
X112101447Y-86991470D01*
X112093760Y-86959777D01*
X112085167Y-86929085D01*
X112075670Y-86899395D01*
X112065269Y-86870707D01*
X112053963Y-86843021D01*
X112035309Y-86803370D01*
X112014619Y-86765973D01*
X111999839Y-86742460D01*
X111976509Y-86710034D01*
X111951788Y-86681022D01*
X111925676Y-86655423D01*
X111898173Y-86633237D01*
X111869278Y-86614465D01*
X111838993Y-86599106D01*
X111807317Y-86587159D01*
X111774250Y-86578626D01*
X111739792Y-86573507D01*
X111703942Y-86571800D01*
X111680358Y-86572533D01*
X111646183Y-86576379D01*
X111613450Y-86583524D01*
X111582160Y-86593965D01*
X111552313Y-86607704D01*
X111523909Y-86624740D01*
X111496946Y-86645073D01*
X111471427Y-86668703D01*
X111447350Y-86695631D01*
X111424715Y-86725856D01*
X111403524Y-86759378D01*
X111390214Y-86783350D01*
X111371860Y-86821270D01*
X111355438Y-86861548D01*
X111345564Y-86889710D01*
X111336548Y-86918919D01*
X111328390Y-86949175D01*
X111321092Y-86980479D01*
X111314652Y-87012831D01*
X111309070Y-87046230D01*
X111304348Y-87080677D01*
X111300484Y-87116171D01*
X111297478Y-87152713D01*
X111295332Y-87190303D01*
X111294044Y-87228940D01*
X111293614Y-87268625D01*
X110692867Y-87268625D01*
X110692991Y-87248438D01*
X110693635Y-87214071D01*
X110694709Y-87180179D01*
X110696211Y-87146763D01*
X110698143Y-87113822D01*
X110700505Y-87081355D01*
X110703295Y-87049364D01*
X110706515Y-87017848D01*
X110710165Y-86986808D01*
X110714243Y-86956242D01*
X110718751Y-86926151D01*
X110723689Y-86896536D01*
X110734851Y-86838731D01*
X110747731Y-86782826D01*
X110762329Y-86728821D01*
X110778643Y-86676717D01*
X110796675Y-86626514D01*
X110816425Y-86578211D01*
X110837891Y-86531809D01*
X110861075Y-86487307D01*
X110885977Y-86444706D01*
X110912595Y-86404005D01*
X110940639Y-86365408D01*
X110970000Y-86329301D01*
X111000677Y-86295684D01*
X111032671Y-86264558D01*
X111065982Y-86235921D01*
X111100609Y-86209775D01*
X111136553Y-86186119D01*
X111173813Y-86164952D01*
X111212390Y-86146276D01*
X111252284Y-86130091D01*
X111293494Y-86116395D01*
X111336021Y-86105189D01*
X111379864Y-86096474D01*
X111425025Y-86090248D01*
X111471501Y-86086513D01*
X111519295Y-86085268D01*
X111570969Y-86086814D01*
G37*
G36*
X109585624Y-85850795D02*
G01*
X109615377Y-85845926D01*
X109638518Y-85826752D01*
X109646933Y-85796699D01*
X109647173Y-85789246D01*
X109647173Y-85208925D01*
X109642305Y-85179172D01*
X109623131Y-85156031D01*
X109593077Y-85147616D01*
X109585624Y-85147376D01*
X109107885Y-85147376D01*
X109078132Y-85152244D01*
X109054991Y-85171418D01*
X109046576Y-85201472D01*
X109046336Y-85208925D01*
X109046336Y-85789246D01*
X109051204Y-85818999D01*
X109070378Y-85842140D01*
X109100432Y-85850555D01*
X109107885Y-85850795D01*
X109585624Y-85850795D01*
G37*
G36*
X108844835Y-88430000D02*
G01*
X108897297Y-88429147D01*
X108947887Y-88426588D01*
X108996605Y-88422323D01*
X109043451Y-88416352D01*
X109088425Y-88408676D01*
X109131527Y-88399294D01*
X109172757Y-88388205D01*
X109212116Y-88375411D01*
X109249602Y-88360911D01*
X109285217Y-88344705D01*
X109318959Y-88326794D01*
X109350830Y-88307176D01*
X109380829Y-88285852D01*
X109408956Y-88262823D01*
X109435211Y-88238088D01*
X109459595Y-88211646D01*
X109482309Y-88183182D01*
X109503558Y-88152559D01*
X109523342Y-88119778D01*
X109541660Y-88084839D01*
X109558513Y-88047741D01*
X109573900Y-88008486D01*
X109587822Y-87967072D01*
X109600279Y-87923501D01*
X109611269Y-87877771D01*
X109620795Y-87829883D01*
X109628855Y-87779837D01*
X109635450Y-87727633D01*
X109640579Y-87673271D01*
X109644242Y-87616751D01*
X109646440Y-87558073D01*
X109646990Y-87527924D01*
X109647173Y-87497236D01*
X109647173Y-86618695D01*
X110132972Y-86618695D01*
X110132972Y-86132163D01*
X109046336Y-86132163D01*
X109046336Y-87459867D01*
X109046004Y-87491804D01*
X109045008Y-87522584D01*
X109043348Y-87552208D01*
X109039612Y-87594476D01*
X109034383Y-87634142D01*
X109027660Y-87671206D01*
X109019442Y-87705669D01*
X109009731Y-87737530D01*
X108998525Y-87766789D01*
X108985826Y-87793446D01*
X108966569Y-87824942D01*
X108961339Y-87832093D01*
X108938144Y-87858196D01*
X108911422Y-87880819D01*
X108881174Y-87899962D01*
X108847400Y-87915624D01*
X108810100Y-87927806D01*
X108779810Y-87934658D01*
X108747537Y-87939552D01*
X108713281Y-87942489D01*
X108677041Y-87943468D01*
X108197103Y-87943468D01*
X108197103Y-88430000D01*
X108844835Y-88430000D01*
G37*
G36*
X106530146Y-88476894D02*
G01*
X106563981Y-88476587D01*
X106597342Y-88475666D01*
X106630230Y-88474131D01*
X106662644Y-88471983D01*
X106694584Y-88469220D01*
X106726051Y-88465843D01*
X106757044Y-88461852D01*
X106787563Y-88457248D01*
X106817608Y-88452029D01*
X106847180Y-88446197D01*
X106876278Y-88439750D01*
X106904902Y-88432690D01*
X106960730Y-88416727D01*
X107014663Y-88398309D01*
X107066701Y-88377435D01*
X107116844Y-88354105D01*
X107165092Y-88328319D01*
X107211446Y-88300078D01*
X107255905Y-88269380D01*
X107298469Y-88236227D01*
X107339138Y-88200618D01*
X107377913Y-88162554D01*
X107414558Y-88122205D01*
X107448839Y-88079927D01*
X107480755Y-88035720D01*
X107510308Y-87989584D01*
X107537496Y-87941519D01*
X107562320Y-87891524D01*
X107584780Y-87839601D01*
X107604876Y-87785748D01*
X107622607Y-87729966D01*
X107630586Y-87701352D01*
X107637974Y-87672255D01*
X107644771Y-87642676D01*
X107650977Y-87612615D01*
X107656592Y-87582072D01*
X107661616Y-87551046D01*
X107666049Y-87519538D01*
X107669891Y-87487547D01*
X107673142Y-87455075D01*
X107675801Y-87422120D01*
X107677870Y-87388683D01*
X107679348Y-87354763D01*
X107680234Y-87320362D01*
X107680530Y-87285478D01*
X107680238Y-87250411D01*
X107679362Y-87215828D01*
X107677902Y-87181729D01*
X107675859Y-87148114D01*
X107673231Y-87114982D01*
X107670020Y-87082334D01*
X107666224Y-87050170D01*
X107661845Y-87018490D01*
X107656882Y-86987293D01*
X107651335Y-86956580D01*
X107645204Y-86926350D01*
X107638489Y-86896605D01*
X107631191Y-86867343D01*
X107623308Y-86838565D01*
X107614842Y-86810270D01*
X107596157Y-86755132D01*
X107575137Y-86701929D01*
X107551781Y-86650661D01*
X107526090Y-86601328D01*
X107498063Y-86553930D01*
X107467701Y-86508466D01*
X107435003Y-86464937D01*
X107399969Y-86423344D01*
X107381577Y-86403272D01*
X107343203Y-86364764D01*
X107303003Y-86328740D01*
X107260977Y-86295201D01*
X107217125Y-86264146D01*
X107171447Y-86235575D01*
X107123942Y-86209489D01*
X107074612Y-86185887D01*
X107023455Y-86164769D01*
X106970473Y-86146136D01*
X106915664Y-86129988D01*
X106859029Y-86116323D01*
X106830027Y-86110423D01*
X106800569Y-86105143D01*
X106770653Y-86100485D01*
X106740282Y-86096448D01*
X106709453Y-86093032D01*
X106678169Y-86090237D01*
X106646427Y-86088063D01*
X106614229Y-86086510D01*
X106581575Y-86085579D01*
X106548464Y-86085268D01*
X106502969Y-86085961D01*
X106457709Y-86088039D01*
X106412683Y-86091502D01*
X106367892Y-86096351D01*
X106323336Y-86102585D01*
X106279015Y-86110204D01*
X106234928Y-86119208D01*
X106191076Y-86129598D01*
X106147458Y-86141373D01*
X106104076Y-86154534D01*
X106060928Y-86169080D01*
X106018015Y-86185011D01*
X105975336Y-86202327D01*
X105932892Y-86221029D01*
X105890683Y-86241116D01*
X105848708Y-86262588D01*
X105848708Y-86815066D01*
X105882311Y-86785608D01*
X105916440Y-86758050D01*
X105951096Y-86732393D01*
X105986278Y-86708637D01*
X106021987Y-86686781D01*
X106058223Y-86666826D01*
X106094985Y-86648771D01*
X106132274Y-86632616D01*
X106170090Y-86618363D01*
X106208432Y-86606009D01*
X106247301Y-86595556D01*
X106286697Y-86587004D01*
X106326619Y-86580352D01*
X106367068Y-86575601D01*
X106408044Y-86572750D01*
X106449546Y-86571800D01*
X106486729Y-86572524D01*
X106522807Y-86574696D01*
X106557781Y-86578317D01*
X106591649Y-86583386D01*
X106624413Y-86589903D01*
X106656072Y-86597869D01*
X106686626Y-86607283D01*
X106716076Y-86618145D01*
X106744420Y-86630455D01*
X106771660Y-86644214D01*
X106797795Y-86659421D01*
X106822825Y-86676076D01*
X106846751Y-86694180D01*
X106869571Y-86713732D01*
X106891287Y-86734732D01*
X106911898Y-86757180D01*
X106931240Y-86780874D01*
X106949335Y-86805792D01*
X106966182Y-86831936D01*
X106981782Y-86859304D01*
X106996133Y-86887898D01*
X107009236Y-86917716D01*
X107021091Y-86948760D01*
X107031699Y-86981029D01*
X107041058Y-87014523D01*
X107049170Y-87049241D01*
X107056033Y-87085185D01*
X107061649Y-87122354D01*
X107066017Y-87160748D01*
X107069137Y-87200367D01*
X107071008Y-87241210D01*
X107071632Y-87283279D01*
X107071011Y-87325079D01*
X107069148Y-87365665D01*
X107066042Y-87405038D01*
X107061695Y-87443197D01*
X107056105Y-87480143D01*
X107049273Y-87515875D01*
X107041198Y-87550393D01*
X107031882Y-87583698D01*
X107021323Y-87615789D01*
X107009522Y-87646667D01*
X106996479Y-87676331D01*
X106982194Y-87704781D01*
X106966666Y-87732018D01*
X106949896Y-87758042D01*
X106931884Y-87782851D01*
X106912630Y-87806448D01*
X106892223Y-87828718D01*
X106870750Y-87849553D01*
X106848213Y-87868950D01*
X106824611Y-87886910D01*
X106799945Y-87903434D01*
X106774213Y-87918521D01*
X106747417Y-87932171D01*
X106719556Y-87944384D01*
X106690631Y-87955160D01*
X106660640Y-87964499D01*
X106629585Y-87972402D01*
X106597465Y-87978868D01*
X106564281Y-87983897D01*
X106530031Y-87987489D01*
X106494717Y-87989644D01*
X106458339Y-87990362D01*
X106414827Y-87989461D01*
X106372037Y-87986756D01*
X106329968Y-87982248D01*
X106288620Y-87975937D01*
X106247994Y-87967822D01*
X106208089Y-87957905D01*
X106168905Y-87946184D01*
X106130443Y-87932660D01*
X106092701Y-87917333D01*
X106055681Y-87900202D01*
X106019383Y-87881269D01*
X105983805Y-87860532D01*
X105948949Y-87837992D01*
X105914814Y-87813649D01*
X105881401Y-87787502D01*
X105848708Y-87759553D01*
X105848708Y-88303970D01*
X105887177Y-88324910D01*
X105926194Y-88344499D01*
X105965762Y-88362737D01*
X106005879Y-88379624D01*
X106046545Y-88395161D01*
X106087761Y-88409346D01*
X106129527Y-88422180D01*
X106171842Y-88433663D01*
X106214706Y-88443795D01*
X106258121Y-88452577D01*
X106302084Y-88460007D01*
X106346597Y-88466086D01*
X106391660Y-88470815D01*
X106437273Y-88474192D01*
X106483435Y-88476219D01*
X106530146Y-88476894D01*
G37*
G36*
X104213055Y-86085426D02*
G01*
X104253342Y-86086252D01*
X104293538Y-86087787D01*
X104333644Y-86090030D01*
X104373660Y-86092982D01*
X104413586Y-86096642D01*
X104453422Y-86101010D01*
X104493167Y-86106087D01*
X104532822Y-86111873D01*
X104572388Y-86118366D01*
X104611863Y-86125568D01*
X104638072Y-86130803D01*
X104677440Y-86139396D01*
X104716872Y-86148878D01*
X104756368Y-86159249D01*
X104795929Y-86170508D01*
X104835555Y-86182656D01*
X104875244Y-86195693D01*
X104914998Y-86209618D01*
X104954817Y-86224432D01*
X104994700Y-86240135D01*
X105034647Y-86256727D01*
X105034647Y-86772568D01*
X105009820Y-86759745D01*
X104972558Y-86741198D01*
X104935271Y-86723475D01*
X104897957Y-86706576D01*
X104860618Y-86690502D01*
X104823253Y-86675252D01*
X104785863Y-86660826D01*
X104748446Y-86647225D01*
X104711004Y-86634448D01*
X104673536Y-86622496D01*
X104636043Y-86611367D01*
X104610973Y-86604446D01*
X104573120Y-86594902D01*
X104534972Y-86586363D01*
X104496527Y-86578828D01*
X104457786Y-86572298D01*
X104418749Y-86566772D01*
X104379416Y-86562252D01*
X104339786Y-86558735D01*
X104299861Y-86556224D01*
X104259638Y-86554717D01*
X104219120Y-86554214D01*
X104205771Y-86554297D01*
X104172598Y-86555231D01*
X104139711Y-86557203D01*
X104107110Y-86560212D01*
X104074796Y-86564258D01*
X104042767Y-86569342D01*
X104011025Y-86575464D01*
X103986147Y-86581394D01*
X103956691Y-86590546D01*
X103929060Y-86601630D01*
X103898311Y-86617481D01*
X103870190Y-86636114D01*
X103844696Y-86657529D01*
X103826120Y-86677683D01*
X103807985Y-86705504D01*
X103794384Y-86737291D01*
X103786513Y-86766812D01*
X103781790Y-86799087D01*
X103780216Y-86834117D01*
X103780216Y-86929371D01*
X104196406Y-86929371D01*
X104222440Y-86929495D01*
X104261235Y-86930141D01*
X104299720Y-86931341D01*
X104337897Y-86933094D01*
X104375764Y-86935402D01*
X104413322Y-86938264D01*
X104450571Y-86941679D01*
X104487511Y-86945648D01*
X104524141Y-86950171D01*
X104560463Y-86955248D01*
X104596475Y-86960879D01*
X104620134Y-86964932D01*
X104655044Y-86971784D01*
X104689257Y-86979563D01*
X104722775Y-86988270D01*
X104755598Y-86997904D01*
X104787725Y-87008466D01*
X104819156Y-87019955D01*
X104849892Y-87032371D01*
X104879933Y-87045715D01*
X104909277Y-87059986D01*
X104937927Y-87075184D01*
X104956457Y-87085798D01*
X104983329Y-87102705D01*
X105009093Y-87120797D01*
X105033750Y-87140074D01*
X105057299Y-87160536D01*
X105079740Y-87182183D01*
X105101073Y-87205015D01*
X105121299Y-87229032D01*
X105140418Y-87254234D01*
X105158428Y-87280620D01*
X105175331Y-87308192D01*
X105190914Y-87337136D01*
X105204963Y-87367638D01*
X105217481Y-87399698D01*
X105228465Y-87433317D01*
X105237917Y-87468494D01*
X105245836Y-87505230D01*
X105252222Y-87543525D01*
X105257076Y-87583377D01*
X105260397Y-87624789D01*
X105262185Y-87667759D01*
X105262526Y-87697271D01*
X105261664Y-87743753D01*
X105259079Y-87788862D01*
X105254772Y-87832597D01*
X105248741Y-87874958D01*
X105240987Y-87915945D01*
X105231511Y-87955558D01*
X105220311Y-87993797D01*
X105207388Y-88030662D01*
X105192742Y-88066154D01*
X105176373Y-88100272D01*
X105158281Y-88133015D01*
X105138465Y-88164385D01*
X105116927Y-88194381D01*
X105093666Y-88223004D01*
X105068682Y-88250252D01*
X105041974Y-88276127D01*
X105013873Y-88300438D01*
X104984707Y-88323181D01*
X104954476Y-88344356D01*
X104923181Y-88363962D01*
X104890820Y-88382000D01*
X104857395Y-88398469D01*
X104822906Y-88413370D01*
X104787351Y-88426702D01*
X104750732Y-88438466D01*
X104713048Y-88448661D01*
X104674299Y-88457288D01*
X104634486Y-88464346D01*
X104593607Y-88469836D01*
X104551664Y-88473757D01*
X104508657Y-88476110D01*
X104464584Y-88476894D01*
X104438057Y-88476596D01*
X104398739Y-88475034D01*
X104359987Y-88472131D01*
X104321802Y-88467890D01*
X104284184Y-88462308D01*
X104247133Y-88455387D01*
X104210648Y-88447127D01*
X104174730Y-88437527D01*
X104139379Y-88426588D01*
X104104594Y-88414309D01*
X104070376Y-88400690D01*
X104047899Y-88390744D01*
X104015075Y-88374590D01*
X103983319Y-88356956D01*
X103952632Y-88337840D01*
X103923015Y-88317242D01*
X103894466Y-88295164D01*
X103866987Y-88271604D01*
X103840576Y-88246563D01*
X103815235Y-88220041D01*
X103790963Y-88192038D01*
X103767759Y-88162554D01*
X103766158Y-88177224D01*
X103761720Y-88210152D01*
X103756300Y-88241258D01*
X103749899Y-88270539D01*
X103741381Y-88301772D01*
X103737635Y-88313109D01*
X103725946Y-88344032D01*
X103713689Y-88371916D01*
X103699539Y-88400572D01*
X103683496Y-88430000D01*
X103088520Y-88430000D01*
X103100038Y-88413181D01*
X103115854Y-88386021D01*
X103129919Y-88356543D01*
X103142232Y-88324747D01*
X103151155Y-88296479D01*
X103158862Y-88266601D01*
X103161550Y-88254342D01*
X103167743Y-88223820D01*
X103173185Y-88193477D01*
X103177875Y-88163313D01*
X103181814Y-88133327D01*
X103185002Y-88103521D01*
X103187438Y-88073893D01*
X103189127Y-88045003D01*
X103190776Y-88012648D01*
X103192012Y-87982818D01*
X103192934Y-87951207D01*
X103193300Y-87919288D01*
X103193292Y-87910744D01*
X103193126Y-87878993D01*
X103192817Y-87849489D01*
X103192354Y-87817873D01*
X103191735Y-87784144D01*
X103191102Y-87754424D01*
X103190836Y-87742102D01*
X103190245Y-87710872D01*
X103189762Y-87679033D01*
X103189387Y-87646586D01*
X103189118Y-87613531D01*
X103188957Y-87579868D01*
X103188904Y-87545596D01*
X103188858Y-87514455D01*
X103188721Y-87483314D01*
X103188492Y-87452173D01*
X103188171Y-87421032D01*
X103187759Y-87389891D01*
X103187255Y-87358750D01*
X103187115Y-87351423D01*
X103780216Y-87351423D01*
X103780216Y-87391723D01*
X103780903Y-87430523D01*
X103782963Y-87469255D01*
X103786398Y-87507918D01*
X103791207Y-87546512D01*
X103797389Y-87585038D01*
X103802927Y-87613887D01*
X103809239Y-87642697D01*
X103816323Y-87671469D01*
X103824179Y-87700202D01*
X103826987Y-87709722D01*
X103836132Y-87737674D01*
X103850008Y-87773521D01*
X103865808Y-87807741D01*
X103883530Y-87840336D01*
X103903177Y-87871305D01*
X103924746Y-87900649D01*
X103948240Y-87928367D01*
X103973656Y-87954459D01*
X103980332Y-87960635D01*
X104008668Y-87983378D01*
X104039615Y-88002984D01*
X104073171Y-88019453D01*
X104109338Y-88032785D01*
X104138177Y-88040726D01*
X104168483Y-88046902D01*
X104200258Y-88051313D01*
X104233501Y-88053960D01*
X104268213Y-88054842D01*
X104278628Y-88054755D01*
X104309005Y-88053446D01*
X104347485Y-88049255D01*
X104383652Y-88042272D01*
X104417506Y-88032494D01*
X104449048Y-88019923D01*
X104478277Y-88004559D01*
X104505193Y-87986401D01*
X104529797Y-87965450D01*
X104535522Y-87959744D01*
X104556605Y-87935479D01*
X104574780Y-87908900D01*
X104590048Y-87880009D01*
X104602407Y-87848805D01*
X104611858Y-87815288D01*
X104618401Y-87779459D01*
X104622036Y-87741317D01*
X104622854Y-87711193D01*
X104622765Y-87700526D01*
X104621434Y-87669668D01*
X104617175Y-87631188D01*
X104610077Y-87595754D01*
X104600139Y-87563365D01*
X104587362Y-87534021D01*
X104571746Y-87507723D01*
X104553290Y-87484471D01*
X104531995Y-87464263D01*
X104508353Y-87446449D01*
X104483223Y-87430375D01*
X104456604Y-87416041D01*
X104428497Y-87403447D01*
X104398902Y-87392593D01*
X104367818Y-87383480D01*
X104335246Y-87376107D01*
X104301186Y-87370474D01*
X104266175Y-87366009D01*
X104231119Y-87362139D01*
X104196016Y-87358865D01*
X104160868Y-87356186D01*
X104125674Y-87354102D01*
X104090435Y-87352614D01*
X104055149Y-87351721D01*
X104019818Y-87351423D01*
X103780216Y-87351423D01*
X103187115Y-87351423D01*
X103186660Y-87327609D01*
X103185973Y-87296468D01*
X103185793Y-87288727D01*
X103185129Y-87258633D01*
X103184427Y-87222981D01*
X103183869Y-87189511D01*
X103183454Y-87158223D01*
X103183145Y-87123559D01*
X103183042Y-87092037D01*
X103183408Y-87049373D01*
X103184507Y-87007659D01*
X103186339Y-86966895D01*
X103188904Y-86927082D01*
X103192201Y-86888218D01*
X103196231Y-86850305D01*
X103200994Y-86813343D01*
X103206489Y-86777330D01*
X103212718Y-86742268D01*
X103219678Y-86708156D01*
X103227372Y-86674994D01*
X103235798Y-86642783D01*
X103244958Y-86611522D01*
X103254849Y-86581211D01*
X103265474Y-86551850D01*
X103276831Y-86523440D01*
X103282771Y-86509586D01*
X103295393Y-86482561D01*
X103309006Y-86456446D01*
X103331282Y-86418980D01*
X103355786Y-86383562D01*
X103382519Y-86350192D01*
X103411479Y-86318870D01*
X103442668Y-86289596D01*
X103476085Y-86262370D01*
X103511731Y-86237192D01*
X103536732Y-86221544D01*
X103562724Y-86206807D01*
X103589706Y-86192979D01*
X103617710Y-86179936D01*
X103646951Y-86167734D01*
X103677428Y-86156374D01*
X103709141Y-86145856D01*
X103742091Y-86136178D01*
X103776277Y-86127343D01*
X103811700Y-86119349D01*
X103848360Y-86112196D01*
X103886255Y-86105885D01*
X103925388Y-86100415D01*
X103965756Y-86095787D01*
X104007362Y-86092000D01*
X104050203Y-86089055D01*
X104094282Y-86086951D01*
X104139596Y-86085689D01*
X104186147Y-86085268D01*
X104213055Y-86085426D01*
G37*
G36*
X101315317Y-88430000D02*
G01*
X101367690Y-88429138D01*
X101418197Y-88426553D01*
X101466837Y-88422246D01*
X101513612Y-88416215D01*
X101558520Y-88408461D01*
X101601562Y-88398984D01*
X101642738Y-88387785D01*
X101682048Y-88374862D01*
X101719491Y-88360216D01*
X101755069Y-88343847D01*
X101788780Y-88325755D01*
X101820625Y-88305939D01*
X101850604Y-88284401D01*
X101878716Y-88261140D01*
X101904963Y-88236156D01*
X101929343Y-88209448D01*
X101952058Y-88180697D01*
X101973307Y-88149765D01*
X101993091Y-88116652D01*
X102011409Y-88081358D01*
X102028262Y-88043883D01*
X102043649Y-88004227D01*
X102057571Y-87962390D01*
X102070027Y-87918372D01*
X102081018Y-87872173D01*
X102090544Y-87823793D01*
X102098604Y-87773231D01*
X102105198Y-87720489D01*
X102110327Y-87665566D01*
X102113991Y-87608462D01*
X102115273Y-87579092D01*
X102116189Y-87549177D01*
X102116739Y-87518716D01*
X102116922Y-87487711D01*
X102116922Y-85727697D01*
X102725819Y-85727697D01*
X102725819Y-85241165D01*
X101516085Y-85241165D01*
X101516085Y-87454738D01*
X101515753Y-87487032D01*
X101514756Y-87518153D01*
X101513096Y-87548101D01*
X101509361Y-87590821D01*
X101504132Y-87630902D01*
X101497409Y-87668342D01*
X101489191Y-87703141D01*
X101479480Y-87735301D01*
X101468274Y-87764819D01*
X101455574Y-87791698D01*
X101436317Y-87823428D01*
X101431088Y-87830628D01*
X101408053Y-87857074D01*
X101381446Y-87879995D01*
X101351266Y-87899390D01*
X101317515Y-87915258D01*
X101280192Y-87927600D01*
X101249855Y-87934542D01*
X101217509Y-87939501D01*
X101183154Y-87942476D01*
X101146789Y-87943468D01*
X100666852Y-87943468D01*
X100666852Y-88430000D01*
X101315317Y-88430000D01*
G37*
G36*
X119235659Y-90421849D02*
G01*
X118626762Y-90421849D01*
X118089671Y-92974675D01*
X117550383Y-90421849D01*
X116941486Y-90421849D01*
X117669085Y-93470000D01*
X118508059Y-93470000D01*
X119235659Y-90421849D01*
G37*
G36*
X116441032Y-92954159D02*
G01*
X115763991Y-92954159D01*
X115763991Y-91054926D01*
X116223412Y-91551716D01*
X116510641Y-91253496D01*
X115760327Y-90421849D01*
X115175610Y-90421849D01*
X115175610Y-92954159D01*
X114498569Y-92954159D01*
X114498569Y-93470000D01*
X116441032Y-93470000D01*
X116441032Y-92954159D01*
G37*
G36*
X113044835Y-93516894D02*
G01*
X113074142Y-93515915D01*
X113106705Y-93512299D01*
X113137514Y-93506018D01*
X113166571Y-93497072D01*
X113186252Y-93489050D01*
X113212689Y-93476032D01*
X113238144Y-93460700D01*
X113262618Y-93443054D01*
X113286109Y-93423093D01*
X113299092Y-93410648D01*
X113324165Y-93383400D01*
X113345895Y-93354412D01*
X113364282Y-93323683D01*
X113379326Y-93291214D01*
X113391027Y-93257004D01*
X113399385Y-93221055D01*
X113404399Y-93183365D01*
X113405966Y-93153956D01*
X113406071Y-93143935D01*
X113405130Y-93113146D01*
X113402310Y-93083425D01*
X113395624Y-93045461D01*
X113385594Y-93009397D01*
X113372222Y-92975233D01*
X113355507Y-92942970D01*
X113335448Y-92912608D01*
X113312047Y-92884146D01*
X113299092Y-92870628D01*
X113272165Y-92846241D01*
X113243771Y-92825107D01*
X113213913Y-92807224D01*
X113182588Y-92792592D01*
X113149799Y-92781212D01*
X113115544Y-92773083D01*
X113079823Y-92768206D01*
X113042637Y-92766580D01*
X113004948Y-92768206D01*
X112968815Y-92773083D01*
X112934239Y-92781212D01*
X112901221Y-92792592D01*
X112869759Y-92807224D01*
X112839855Y-92825107D01*
X112811507Y-92846241D01*
X112784717Y-92870628D01*
X112760159Y-92897658D01*
X112738876Y-92926727D01*
X112720866Y-92957834D01*
X112706132Y-92990978D01*
X112694671Y-93026161D01*
X112686485Y-93063381D01*
X112682495Y-93092634D01*
X112680346Y-93123033D01*
X112679937Y-93143935D01*
X112680858Y-93173920D01*
X112684951Y-93212297D01*
X112692318Y-93248841D01*
X112702960Y-93283554D01*
X112716876Y-93316436D01*
X112734066Y-93347485D01*
X112754531Y-93376703D01*
X112778270Y-93404088D01*
X112784717Y-93410648D01*
X112812022Y-93435550D01*
X112840816Y-93457131D01*
X112871099Y-93475392D01*
X112902869Y-93490333D01*
X112936128Y-93501953D01*
X112970876Y-93510254D01*
X113007111Y-93515234D01*
X113044835Y-93516894D01*
G37*
G36*
X111388136Y-92954159D02*
G01*
X110711095Y-92954159D01*
X110711095Y-91054926D01*
X111170516Y-91551716D01*
X111457745Y-91253496D01*
X110707431Y-90421849D01*
X110122714Y-90421849D01*
X110122714Y-92954159D01*
X109445673Y-92954159D01*
X109445673Y-93470000D01*
X111388136Y-93470000D01*
X111388136Y-92954159D01*
G37*
%LPC*%
D11*
%TO.C,H2*%
X137160000Y-51435000D03*
%TD*%
%TO.C,H3*%
X91440000Y-128905000D03*
%TD*%
D12*
%TO.C,J3*%
X133985000Y-62230000D03*
D13*
X136525000Y-62230000D03*
X133985000Y-64770000D03*
X136525000Y-64770000D03*
X133985000Y-67310000D03*
X136525000Y-67310000D03*
X133985000Y-69850000D03*
X136525000Y-69850000D03*
X133985000Y-72390000D03*
X136525000Y-72390000D03*
X133985000Y-74930000D03*
X136525000Y-74930000D03*
X133985000Y-77470000D03*
X136525000Y-77470000D03*
X133985000Y-80010000D03*
X136525000Y-80010000D03*
%TD*%
D14*
%TO.C,J6*%
X104775000Y-50800000D03*
D15*
X104775000Y-53340000D03*
X104775000Y-55880000D03*
%TD*%
D14*
%TO.C,J9*%
X123825000Y-50800000D03*
D15*
X123825000Y-53340000D03*
X123825000Y-55880000D03*
%TD*%
D16*
%TO.C,J4*%
X98425000Y-51435000D03*
%TD*%
D14*
%TO.C,J13*%
X99187000Y-122052000D03*
D15*
X99187000Y-119512000D03*
%TD*%
D16*
%TO.C,J5*%
X130175000Y-51435000D03*
%TD*%
D14*
%TO.C,J8*%
X117475000Y-50815000D03*
D15*
X117475000Y-53355000D03*
X117475000Y-55895000D03*
%TD*%
D14*
%TO.C,J7*%
X111125000Y-50815000D03*
D15*
X111125000Y-53355000D03*
X111125000Y-55895000D03*
%TD*%
D17*
%TO.C,J10*%
X137418500Y-101282000D03*
X137418500Y-93282000D03*
D18*
X135988500Y-101282000D03*
X138848500Y-101282000D03*
X135988500Y-93282000D03*
X138848500Y-93282000D03*
%TD*%
D14*
%TO.C,J12*%
X108458000Y-130556000D03*
D15*
X108458000Y-128016000D03*
X110998000Y-130556000D03*
X110998000Y-128016000D03*
X113538000Y-130556000D03*
X113538000Y-128016000D03*
X116078000Y-130556000D03*
X116078000Y-128016000D03*
X118618000Y-130556000D03*
X118618000Y-128016000D03*
X121158000Y-130556000D03*
X121158000Y-128016000D03*
%TD*%
D11*
%TO.C,H1*%
X91440000Y-51435000D03*
%TD*%
D19*
%TO.C,J11*%
X135805000Y-116784000D03*
X135805000Y-114284000D03*
X135805000Y-112284000D03*
X135805000Y-109784000D03*
D20*
X138515000Y-119854000D03*
X138515000Y-106714000D03*
%TD*%
D14*
%TO.C,J1*%
X89911000Y-99832000D03*
D15*
X92451000Y-99832000D03*
X89911000Y-102372000D03*
X92451000Y-102372000D03*
X89911000Y-104912000D03*
X92451000Y-104912000D03*
X89911000Y-107452000D03*
X92451000Y-107452000D03*
%TD*%
D11*
%TO.C,H4*%
X137160000Y-128905000D03*
%TD*%
D12*
%TO.C,J2*%
X92075000Y-62230000D03*
D13*
X94615000Y-62230000D03*
X92075000Y-64770000D03*
X94615000Y-64770000D03*
X92075000Y-67310000D03*
X94615000Y-67310000D03*
X92075000Y-69850000D03*
X94615000Y-69850000D03*
X92075000Y-72390000D03*
X94615000Y-72390000D03*
X92075000Y-74930000D03*
X94615000Y-74930000D03*
X92075000Y-77470000D03*
X94615000Y-77470000D03*
X92075000Y-80010000D03*
X94615000Y-80010000D03*
%TD*%
D14*
%TO.C,J14*%
X103124000Y-122095500D03*
D15*
X103124000Y-119555500D03*
%TD*%
%LPD*%
M02*
