%TF.GenerationSoftware,KiCad,Pcbnew,7.0.10*%
%TF.CreationDate,2024-02-21T15:12:55-06:00*%
%TF.ProjectId,HUB75-FPGA-Card,48554237-352d-4465-9047-412d43617264,rev?*%
%TF.SameCoordinates,Original*%
%TF.FileFunction,Copper,L1,Top*%
%TF.FilePolarity,Positive*%
%FSLAX46Y46*%
G04 Gerber Fmt 4.6, Leading zero omitted, Abs format (unit mm)*
G04 Created by KiCad (PCBNEW 7.0.10) date 2024-02-21 15:12:55*
%MOMM*%
%LPD*%
G01*
G04 APERTURE LIST*
G04 Aperture macros list*
%AMRoundRect*
0 Rectangle with rounded corners*
0 $1 Rounding radius*
0 $2 $3 $4 $5 $6 $7 $8 $9 X,Y pos of 4 corners*
0 Add a 4 corners polygon primitive as box body*
4,1,4,$2,$3,$4,$5,$6,$7,$8,$9,$2,$3,0*
0 Add four circle primitives for the rounded corners*
1,1,$1+$1,$2,$3*
1,1,$1+$1,$4,$5*
1,1,$1+$1,$6,$7*
1,1,$1+$1,$8,$9*
0 Add four rect primitives between the rounded corners*
20,1,$1+$1,$2,$3,$4,$5,0*
20,1,$1+$1,$4,$5,$6,$7,0*
20,1,$1+$1,$6,$7,$8,$9,0*
20,1,$1+$1,$8,$9,$2,$3,0*%
G04 Aperture macros list end*
%TA.AperFunction,SMDPad,CuDef*%
%ADD10RoundRect,0.200000X0.275000X-0.200000X0.275000X0.200000X-0.275000X0.200000X-0.275000X-0.200000X0*%
%TD*%
%TA.AperFunction,SMDPad,CuDef*%
%ADD11RoundRect,0.225000X-0.250000X0.225000X-0.250000X-0.225000X0.250000X-0.225000X0.250000X0.225000X0*%
%TD*%
%TA.AperFunction,SMDPad,CuDef*%
%ADD12C,1.000000*%
%TD*%
%TA.AperFunction,SMDPad,CuDef*%
%ADD13RoundRect,0.200000X-0.200000X-0.275000X0.200000X-0.275000X0.200000X0.275000X-0.200000X0.275000X0*%
%TD*%
%TA.AperFunction,SMDPad,CuDef*%
%ADD14RoundRect,0.150000X-0.150000X0.587500X-0.150000X-0.587500X0.150000X-0.587500X0.150000X0.587500X0*%
%TD*%
%TA.AperFunction,SMDPad,CuDef*%
%ADD15RoundRect,0.200000X-0.275000X0.200000X-0.275000X-0.200000X0.275000X-0.200000X0.275000X0.200000X0*%
%TD*%
%TA.AperFunction,SMDPad,CuDef*%
%ADD16RoundRect,0.225000X0.250000X-0.225000X0.250000X0.225000X-0.250000X0.225000X-0.250000X-0.225000X0*%
%TD*%
%TA.AperFunction,SMDPad,CuDef*%
%ADD17RoundRect,0.150000X-0.512500X-0.150000X0.512500X-0.150000X0.512500X0.150000X-0.512500X0.150000X0*%
%TD*%
%TA.AperFunction,SMDPad,CuDef*%
%ADD18C,0.800000*%
%TD*%
%TA.AperFunction,SMDPad,CuDef*%
%ADD19RoundRect,0.225000X-0.225000X-0.250000X0.225000X-0.250000X0.225000X0.250000X-0.225000X0.250000X0*%
%TD*%
%TA.AperFunction,ComponentPad*%
%ADD20RoundRect,0.250000X-0.600000X-0.600000X0.600000X-0.600000X0.600000X0.600000X-0.600000X0.600000X0*%
%TD*%
%TA.AperFunction,ComponentPad*%
%ADD21C,1.700000*%
%TD*%
%TA.AperFunction,ComponentPad*%
%ADD22R,1.700000X1.700000*%
%TD*%
%TA.AperFunction,ComponentPad*%
%ADD23O,1.700000X1.700000*%
%TD*%
%TA.AperFunction,SMDPad,CuDef*%
%ADD24RoundRect,0.225000X0.225000X0.250000X-0.225000X0.250000X-0.225000X-0.250000X0.225000X-0.250000X0*%
%TD*%
%TA.AperFunction,SMDPad,CuDef*%
%ADD25R,2.000000X1.500000*%
%TD*%
%TA.AperFunction,SMDPad,CuDef*%
%ADD26R,2.000000X3.800000*%
%TD*%
%TA.AperFunction,SMDPad,CuDef*%
%ADD27RoundRect,0.200000X0.200000X0.275000X-0.200000X0.275000X-0.200000X-0.275000X0.200000X-0.275000X0*%
%TD*%
%TA.AperFunction,SMDPad,CuDef*%
%ADD28RoundRect,0.100000X0.100000X-0.637500X0.100000X0.637500X-0.100000X0.637500X-0.100000X-0.637500X0*%
%TD*%
%TA.AperFunction,SMDPad,CuDef*%
%ADD29RoundRect,0.150000X0.625000X-0.150000X0.625000X0.150000X-0.625000X0.150000X-0.625000X-0.150000X0*%
%TD*%
%TA.AperFunction,SMDPad,CuDef*%
%ADD30RoundRect,0.250000X0.650000X-0.350000X0.650000X0.350000X-0.650000X0.350000X-0.650000X-0.350000X0*%
%TD*%
%TA.AperFunction,SMDPad,CuDef*%
%ADD31R,1.000000X0.750000*%
%TD*%
%TA.AperFunction,SMDPad,CuDef*%
%ADD32R,1.200000X1.400000*%
%TD*%
%TA.AperFunction,ComponentPad*%
%ADD33RoundRect,0.250002X-1.699998X-1.699998X1.699998X-1.699998X1.699998X1.699998X-1.699998X1.699998X0*%
%TD*%
%TA.AperFunction,SMDPad,CuDef*%
%ADD34RoundRect,0.050000X-0.387500X-0.050000X0.387500X-0.050000X0.387500X0.050000X-0.387500X0.050000X0*%
%TD*%
%TA.AperFunction,SMDPad,CuDef*%
%ADD35RoundRect,0.050000X-0.050000X-0.387500X0.050000X-0.387500X0.050000X0.387500X-0.050000X0.387500X0*%
%TD*%
%TA.AperFunction,SMDPad,CuDef*%
%ADD36R,3.200000X3.200000*%
%TD*%
%TA.AperFunction,SMDPad,CuDef*%
%ADD37RoundRect,0.218750X0.218750X0.256250X-0.218750X0.256250X-0.218750X-0.256250X0.218750X-0.256250X0*%
%TD*%
%TA.AperFunction,SMDPad,CuDef*%
%ADD38RoundRect,0.075000X-0.662500X-0.075000X0.662500X-0.075000X0.662500X0.075000X-0.662500X0.075000X0*%
%TD*%
%TA.AperFunction,SMDPad,CuDef*%
%ADD39RoundRect,0.075000X-0.075000X-0.662500X0.075000X-0.662500X0.075000X0.662500X-0.075000X0.662500X0*%
%TD*%
%TA.AperFunction,SMDPad,CuDef*%
%ADD40RoundRect,0.150000X-0.650000X-0.150000X0.650000X-0.150000X0.650000X0.150000X-0.650000X0.150000X0*%
%TD*%
%TA.AperFunction,SMDPad,CuDef*%
%ADD41RoundRect,0.200000X0.200000X0.250000X-0.200000X0.250000X-0.200000X-0.250000X0.200000X-0.250000X0*%
%TD*%
%TA.AperFunction,SMDPad,CuDef*%
%ADD42R,1.150000X0.300000*%
%TD*%
%TA.AperFunction,ComponentPad*%
%ADD43O,1.100000X1.600000*%
%TD*%
%TA.AperFunction,SMDPad,CuDef*%
%ADD44RoundRect,0.075000X0.075000X-0.662500X0.075000X0.662500X-0.075000X0.662500X-0.075000X-0.662500X0*%
%TD*%
%TA.AperFunction,SMDPad,CuDef*%
%ADD45RoundRect,0.075000X0.662500X-0.075000X0.662500X0.075000X-0.662500X0.075000X-0.662500X-0.075000X0*%
%TD*%
%TA.AperFunction,ComponentPad*%
%ADD46C,1.524000*%
%TD*%
%TA.AperFunction,ComponentPad*%
%ADD47C,3.500000*%
%TD*%
%TA.AperFunction,SMDPad,CuDef*%
%ADD48R,0.400000X1.200000*%
%TD*%
%TA.AperFunction,SMDPad,CuDef*%
%ADD49RoundRect,0.150000X0.150000X-0.512500X0.150000X0.512500X-0.150000X0.512500X-0.150000X-0.512500X0*%
%TD*%
%TA.AperFunction,ViaPad*%
%ADD50C,0.800000*%
%TD*%
%TA.AperFunction,ViaPad*%
%ADD51C,0.600000*%
%TD*%
%TA.AperFunction,Conductor*%
%ADD52C,0.203200*%
%TD*%
%TA.AperFunction,Conductor*%
%ADD53C,1.000000*%
%TD*%
%TA.AperFunction,Conductor*%
%ADD54C,0.200000*%
%TD*%
%TA.AperFunction,Conductor*%
%ADD55C,1.500000*%
%TD*%
%TA.AperFunction,Conductor*%
%ADD56C,0.210820*%
%TD*%
G04 APERTURE END LIST*
D10*
%TO.P,R23,1*%
%TO.N,Net-(U3B-GPIOL_69_CBSEL1)*%
X137033000Y-105155000D03*
%TO.P,R23,2*%
%TO.N,GND*%
X137033000Y-103505000D03*
%TD*%
D11*
%TO.P,C30,1*%
%TO.N,Net-(U8-VPHY)*%
X96774000Y-100825000D03*
%TO.P,C30,2*%
%TO.N,GND*%
X96774000Y-102375000D03*
%TD*%
D10*
%TO.P,R22,1*%
%TO.N,Net-(R22-Pad1)*%
X98933000Y-111569000D03*
%TO.P,R22,2*%
%TO.N,Net-(U13-~{CS})*%
X98933000Y-109919000D03*
%TD*%
D12*
%TO.P,TP1,1,1*%
%TO.N,Net-(U14-SWCLK)*%
X118237000Y-125095000D03*
%TD*%
D13*
%TO.P,R16,1*%
%TO.N,Net-(U8-~{RESET})*%
X97473000Y-88646000D03*
%TO.P,R16,2*%
%TO.N,+3V3*%
X99123000Y-88646000D03*
%TD*%
D14*
%TO.P,Q2,1,G*%
%TO.N,/MCU/5VSW_2*%
X104074000Y-114803000D03*
%TO.P,Q2,2,S*%
%TO.N,GND*%
X102174000Y-114803000D03*
%TO.P,Q2,3,D*%
%TO.N,Net-(J14-Pin_2)*%
X103124000Y-116678000D03*
%TD*%
D15*
%TO.P,R12,1*%
%TO.N,+3V3*%
X117531800Y-97764200D03*
%TO.P,R12,2*%
%TO.N,Net-(U7-CS)*%
X117531800Y-99414200D03*
%TD*%
D16*
%TO.P,C21,1*%
%TO.N,+1V2*%
X113030000Y-72403000D03*
%TO.P,C21,2*%
%TO.N,GND*%
X113030000Y-70853000D03*
%TD*%
D10*
%TO.P,R13,1*%
%TO.N,+3V3*%
X117531800Y-102462200D03*
%TO.P,R13,2*%
%TO.N,Net-(U7-CLK)*%
X117531800Y-100812200D03*
%TD*%
D11*
%TO.P,C8,1*%
%TO.N,Net-(U3A-VCCA_BR)*%
X120650000Y-91427000D03*
%TO.P,C8,2*%
%TO.N,GND*%
X120650000Y-92977000D03*
%TD*%
D17*
%TO.P,U7,1,DO*%
%TO.N,Net-(U7-DO)*%
X113600300Y-99163200D03*
%TO.P,U7,2,GND*%
%TO.N,GND*%
X113600300Y-100113200D03*
%TO.P,U7,3,DI*%
%TO.N,Net-(U7-DI)*%
X113600300Y-101063200D03*
%TO.P,U7,4,CLK*%
%TO.N,Net-(U7-CLK)*%
X115875300Y-101063200D03*
%TO.P,U7,5,CS*%
%TO.N,Net-(U7-CS)*%
X115875300Y-100113200D03*
%TO.P,U7,6,VCC*%
%TO.N,+3V3*%
X115875300Y-99163200D03*
%TD*%
D11*
%TO.P,C45,1*%
%TO.N,+5V*%
X132461000Y-100444000D03*
%TO.P,C45,2*%
%TO.N,GND*%
X132461000Y-101994000D03*
%TD*%
D18*
%TO.P,U10,1,VDD*%
%TO.N,Net-(U10-VDD)*%
X107530000Y-102402000D03*
%TO.P,U10,2,GND*%
%TO.N,GND*%
X107530000Y-104862000D03*
%TO.P,U10,3,GND*%
X105830000Y-104862000D03*
%TO.P,U10,4,OUT*%
%TO.N,Net-(U10-OUT)*%
X105830000Y-102402000D03*
%TD*%
D19*
%TO.P,C57,1*%
%TO.N,+3V3*%
X117208000Y-120650000D03*
%TO.P,C57,2*%
%TO.N,GND*%
X118758000Y-120650000D03*
%TD*%
D20*
%TO.P,J3,1,Pin_1*%
%TO.N,/Level Shifters/B3_out*%
X133985000Y-62230000D03*
D21*
%TO.P,J3,2,Pin_2*%
%TO.N,/Level Shifters/G3_out*%
X136525000Y-62230000D03*
%TO.P,J3,3,Pin_3*%
%TO.N,/Level Shifters/R3_out*%
X133985000Y-64770000D03*
%TO.P,J3,4,Pin_4*%
%TO.N,GND*%
X136525000Y-64770000D03*
%TO.P,J3,5,Pin_5*%
%TO.N,/Level Shifters/B4_out*%
X133985000Y-67310000D03*
%TO.P,J3,6,Pin_6*%
%TO.N,/Level Shifters/G4_out*%
X136525000Y-67310000D03*
%TO.P,J3,7,Pin_7*%
%TO.N,/Level Shifters/R4_out*%
X133985000Y-69850000D03*
%TO.P,J3,8,Pin_8*%
%TO.N,GND*%
X136525000Y-69850000D03*
%TO.P,J3,9,Pin_9*%
%TO.N,/Level Shifters/A_RCLK_out*%
X133985000Y-72390000D03*
%TO.P,J3,10,Pin_10*%
%TO.N,/Level Shifters/B_out*%
X136525000Y-72390000D03*
%TO.P,J3,11,Pin_11*%
%TO.N,/Level Shifters/C_RDAT_out*%
X133985000Y-74930000D03*
%TO.P,J3,12,Pin_12*%
%TO.N,/Level Shifters/D_out*%
X136525000Y-74930000D03*
%TO.P,J3,13,Pin_13*%
%TO.N,/Level Shifters/CLK_out*%
X133985000Y-77470000D03*
%TO.P,J3,14,Pin_14*%
%TO.N,/Level Shifters/LAT_out*%
X136525000Y-77470000D03*
%TO.P,J3,15,Pin_15*%
%TO.N,/Level Shifters/BLNK_out*%
X133985000Y-80010000D03*
%TO.P,J3,16,Pin_16*%
%TO.N,GND*%
X136525000Y-80010000D03*
%TD*%
D22*
%TO.P,J6,1,Pin_1*%
%TO.N,+5V*%
X104775000Y-50800000D03*
D23*
%TO.P,J6,2,Pin_2*%
%TO.N,/Level Shifters/LED1_out*%
X104775000Y-53340000D03*
%TO.P,J6,3,Pin_3*%
%TO.N,GND*%
X104775000Y-55880000D03*
%TD*%
D19*
%TO.P,C2,1*%
%TO.N,+3V3*%
X100637000Y-76962000D03*
%TO.P,C2,2*%
%TO.N,GND*%
X102187000Y-76962000D03*
%TD*%
%TO.P,C14,1*%
%TO.N,+1V2*%
X123939000Y-81280000D03*
%TO.P,C14,2*%
%TO.N,GND*%
X125489000Y-81280000D03*
%TD*%
D11*
%TO.P,C12,1*%
%TO.N,+1V2*%
X110490000Y-91427000D03*
%TO.P,C12,2*%
%TO.N,GND*%
X110490000Y-92977000D03*
%TD*%
D22*
%TO.P,J9,1,Pin_1*%
%TO.N,+5V*%
X123825000Y-50800000D03*
D23*
%TO.P,J9,2,Pin_2*%
%TO.N,/Level Shifters/LED4_out*%
X123825000Y-53340000D03*
%TO.P,J9,3,Pin_3*%
%TO.N,GND*%
X123825000Y-55880000D03*
%TD*%
D10*
%TO.P,R18,1*%
%TO.N,/USB Audio/3.3VCM*%
X121285000Y-125285000D03*
%TO.P,R18,2*%
%TO.N,Net-(U9-MUTEP)*%
X121285000Y-123635000D03*
%TD*%
D16*
%TO.P,C16,1*%
%TO.N,+3V3*%
X121793000Y-73673000D03*
%TO.P,C16,2*%
%TO.N,GND*%
X121793000Y-72123000D03*
%TD*%
D19*
%TO.P,C53,1*%
%TO.N,+1V1*%
X117208000Y-113792000D03*
%TO.P,C53,2*%
%TO.N,GND*%
X118758000Y-113792000D03*
%TD*%
D16*
%TO.P,C15,1*%
%TO.N,+1V2*%
X123317000Y-73673000D03*
%TO.P,C15,2*%
%TO.N,GND*%
X123317000Y-72123000D03*
%TD*%
D15*
%TO.P,FB5,1*%
%TO.N,+5V*%
X127139000Y-113884500D03*
%TO.P,FB5,2*%
%TO.N,Net-(C36-Pad1)*%
X127139000Y-115534500D03*
%TD*%
D24*
%TO.P,C49,1*%
%TO.N,+5V*%
X132982000Y-117094000D03*
%TO.P,C49,2*%
%TO.N,GND*%
X131432000Y-117094000D03*
%TD*%
D25*
%TO.P,U1,1,GND*%
%TO.N,GND*%
X130658000Y-93232000D03*
%TO.P,U1,2,VO*%
%TO.N,+3V3*%
X130658000Y-90932000D03*
D26*
X124358000Y-90932000D03*
D25*
%TO.P,U1,3,VI*%
%TO.N,+5V*%
X130658000Y-88632000D03*
%TD*%
D13*
%TO.P,R19,1*%
%TO.N,Net-(U9-LEDO)*%
X134684000Y-124714000D03*
%TO.P,R19,2*%
%TO.N,Net-(D1-A)*%
X136334000Y-124714000D03*
%TD*%
D27*
%TO.P,R9,1*%
%TO.N,+3V3*%
X129095000Y-75184000D03*
%TO.P,R9,2*%
%TO.N,Net-(U3C-GPIOR_150_CBUS1)*%
X127445000Y-75184000D03*
%TD*%
D19*
%TO.P,C56,1*%
%TO.N,+3V3*%
X117208000Y-116840000D03*
%TO.P,C56,2*%
%TO.N,GND*%
X118758000Y-116840000D03*
%TD*%
%TO.P,C33,1*%
%TO.N,+3V3*%
X104635000Y-90678000D03*
%TO.P,C33,2*%
%TO.N,GND*%
X106185000Y-90678000D03*
%TD*%
D28*
%TO.P,U5,1,A->B*%
%TO.N,+5V*%
X111375000Y-68267500D03*
%TO.P,U5,2,A0*%
%TO.N,/FPGA/A_ROW_CLK*%
X112025000Y-68267500D03*
%TO.P,U5,3,A1*%
%TO.N,/FPGA/B*%
X112675000Y-68267500D03*
%TO.P,U5,4,A2*%
%TO.N,/FPGA/C_ROW_DATA*%
X113325000Y-68267500D03*
%TO.P,U5,5,A3*%
%TO.N,/FPGA/D*%
X113975000Y-68267500D03*
%TO.P,U5,6,A4*%
%TO.N,/FPGA/CLKOUT*%
X114625000Y-68267500D03*
%TO.P,U5,7,A5*%
%TO.N,/FPGA/LAT*%
X115275000Y-68267500D03*
%TO.P,U5,8,A6*%
%TO.N,/FPGA/BLANK*%
X115925000Y-68267500D03*
%TO.P,U5,9,A7*%
%TO.N,GND*%
X116575000Y-68267500D03*
%TO.P,U5,10,GND*%
X117225000Y-68267500D03*
%TO.P,U5,11,B7*%
%TO.N,unconnected-(U5-B7-Pad11)*%
X117225000Y-62542500D03*
%TO.P,U5,12,B6*%
%TO.N,/Level Shifters/BLNK_out*%
X116575000Y-62542500D03*
%TO.P,U5,13,B5*%
%TO.N,/Level Shifters/LAT_out*%
X115925000Y-62542500D03*
%TO.P,U5,14,B4*%
%TO.N,/Level Shifters/CLK_out*%
X115275000Y-62542500D03*
%TO.P,U5,15,B3*%
%TO.N,/Level Shifters/D_out*%
X114625000Y-62542500D03*
%TO.P,U5,16,B2*%
%TO.N,/Level Shifters/C_RDAT_out*%
X113975000Y-62542500D03*
%TO.P,U5,17,B1*%
%TO.N,/Level Shifters/B_out*%
X113325000Y-62542500D03*
%TO.P,U5,18,B0*%
%TO.N,/Level Shifters/A_RCLK_out*%
X112675000Y-62542500D03*
%TO.P,U5,19,CE*%
%TO.N,GND*%
X112025000Y-62542500D03*
%TO.P,U5,20,VCC*%
%TO.N,+5V*%
X111375000Y-62542500D03*
%TD*%
D24*
%TO.P,C42,1*%
%TO.N,Net-(U9-MICIN)*%
X108471000Y-99314000D03*
%TO.P,C42,2*%
%TO.N,Net-(U10-OUT)*%
X106921000Y-99314000D03*
%TD*%
D16*
%TO.P,C10,1*%
%TO.N,+3V3*%
X109728000Y-72403000D03*
%TO.P,C10,2*%
%TO.N,GND*%
X109728000Y-70853000D03*
%TD*%
D19*
%TO.P,C22,1*%
%TO.N,+3V3*%
X123939000Y-82804000D03*
%TO.P,C22,2*%
%TO.N,GND*%
X125489000Y-82804000D03*
%TD*%
D24*
%TO.P,C7,1*%
%TO.N,+3V3*%
X104661000Y-81280000D03*
%TO.P,C7,2*%
%TO.N,GND*%
X103111000Y-81280000D03*
%TD*%
D16*
%TO.P,C39,1*%
%TO.N,Net-(C36-Pad1)*%
X130187000Y-115484500D03*
%TO.P,C39,2*%
%TO.N,GND*%
X130187000Y-113934500D03*
%TD*%
%TO.P,C54,1*%
%TO.N,+3V3*%
X113538000Y-112929000D03*
%TO.P,C54,2*%
%TO.N,GND*%
X113538000Y-111379000D03*
%TD*%
D29*
%TO.P,J17,1,Pin_1*%
%TO.N,GND*%
X92130000Y-122785000D03*
%TO.P,J17,2,Pin_2*%
%TO.N,+3V3*%
X92130000Y-121785000D03*
%TO.P,J17,3,Pin_3*%
%TO.N,/MCU/SDA1*%
X92130000Y-120785000D03*
%TO.P,J17,4,Pin_4*%
%TO.N,/MCU/SCL1*%
X92130000Y-119785000D03*
D30*
%TO.P,J17,MP*%
%TO.N,N/C*%
X89605000Y-124085000D03*
X89605000Y-118485000D03*
%TD*%
D27*
%TO.P,R1,1*%
%TO.N,+3V3*%
X96837000Y-106934000D03*
%TO.P,R1,2*%
%TO.N,/FPGA/CRESET_N*%
X95187000Y-106934000D03*
%TD*%
D10*
%TO.P,R21,1*%
%TO.N,Net-(J10-CC2)*%
X133989500Y-94170000D03*
%TO.P,R21,2*%
%TO.N,GND*%
X133989500Y-92520000D03*
%TD*%
D31*
%TO.P,SW1,1,1*%
%TO.N,GND*%
X100759000Y-107853000D03*
X106759000Y-107853000D03*
%TO.P,SW1,2,2*%
%TO.N,Net-(R22-Pad1)*%
X100759000Y-111603000D03*
X106759000Y-111603000D03*
%TD*%
D12*
%TO.P,TP2,1,1*%
%TO.N,Net-(U14-SWD)*%
X116459000Y-123952000D03*
%TD*%
D27*
%TO.P,R8,1*%
%TO.N,+3V3*%
X129095000Y-73660000D03*
%TO.P,R8,2*%
%TO.N,Net-(U3C-GPIOR_149_CBUS2)*%
X127445000Y-73660000D03*
%TD*%
D29*
%TO.P,J16,1,Pin_1*%
%TO.N,GND*%
X92130000Y-114784000D03*
%TO.P,J16,2,Pin_2*%
%TO.N,+3V3*%
X92130000Y-113784000D03*
%TO.P,J16,3,Pin_3*%
%TO.N,/MCU/SDA0*%
X92130000Y-112784000D03*
%TO.P,J16,4,Pin_4*%
%TO.N,/MCU/SCL0*%
X92130000Y-111784000D03*
D30*
%TO.P,J16,MP*%
%TO.N,N/C*%
X89605000Y-116084000D03*
X89605000Y-110484000D03*
%TD*%
D32*
%TO.P,Y1,1,1*%
%TO.N,Net-(U12-XI)*%
X122389000Y-101514000D03*
%TO.P,Y1,2,2*%
%TO.N,GND*%
X122389000Y-99314000D03*
%TO.P,Y1,3,3*%
%TO.N,Net-(U12-XO)*%
X120689000Y-99314000D03*
%TO.P,Y1,4,4*%
%TO.N,GND*%
X120689000Y-101514000D03*
%TD*%
D13*
%TO.P,R6,1*%
%TO.N,+3V3*%
X92139000Y-94742000D03*
%TO.P,R6,2*%
%TO.N,Net-(U3B-GPIOL_08_CDI0)*%
X93789000Y-94742000D03*
%TD*%
D33*
%TO.P,J4,1,Pin_1*%
%TO.N,+5V*%
X98425000Y-51435000D03*
%TD*%
D13*
%TO.P,R5,1*%
%TO.N,+3V3*%
X103061000Y-85852000D03*
%TO.P,R5,2*%
%TO.N,Net-(U3B-GPIOL_04_CSI)*%
X104711000Y-85852000D03*
%TD*%
D19*
%TO.P,C19,1*%
%TO.N,+3V3*%
X123939000Y-79756000D03*
%TO.P,C19,2*%
%TO.N,GND*%
X125489000Y-79756000D03*
%TD*%
D16*
%TO.P,C18,1*%
%TO.N,+1V2*%
X117348000Y-72403000D03*
%TO.P,C18,2*%
%TO.N,GND*%
X117348000Y-70853000D03*
%TD*%
D11*
%TO.P,C41,1*%
%TO.N,Net-(U10-VDD)*%
X109347000Y-102857000D03*
%TO.P,C41,2*%
%TO.N,GND*%
X109347000Y-104407000D03*
%TD*%
D28*
%TO.P,U6,1,A->B*%
%TO.N,+5V*%
X121535000Y-68267500D03*
%TO.P,U6,2,A0*%
%TO.N,/FPGA/STRIP3*%
X122185000Y-68267500D03*
%TO.P,U6,3,A1*%
%TO.N,/FPGA/STRIP4*%
X122835000Y-68267500D03*
%TO.P,U6,4,A2*%
%TO.N,/FPGA/R4*%
X123485000Y-68267500D03*
%TO.P,U6,5,A3*%
%TO.N,/FPGA/B4*%
X124135000Y-68267500D03*
%TO.P,U6,6,A4*%
%TO.N,/FPGA/G4*%
X124785000Y-68267500D03*
%TO.P,U6,7,A5*%
%TO.N,/FPGA/G3*%
X125435000Y-68267500D03*
%TO.P,U6,8,A6*%
%TO.N,/FPGA/B3*%
X126085000Y-68267500D03*
%TO.P,U6,9,A7*%
%TO.N,/FPGA/R3*%
X126735000Y-68267500D03*
%TO.P,U6,10,GND*%
%TO.N,GND*%
X127385000Y-68267500D03*
%TO.P,U6,11,B7*%
%TO.N,/Level Shifters/R3_out*%
X127385000Y-62542500D03*
%TO.P,U6,12,B6*%
%TO.N,/Level Shifters/B3_out*%
X126735000Y-62542500D03*
%TO.P,U6,13,B5*%
%TO.N,/Level Shifters/G3_out*%
X126085000Y-62542500D03*
%TO.P,U6,14,B4*%
%TO.N,/Level Shifters/G4_out*%
X125435000Y-62542500D03*
%TO.P,U6,15,B3*%
%TO.N,/Level Shifters/B4_out*%
X124785000Y-62542500D03*
%TO.P,U6,16,B2*%
%TO.N,/Level Shifters/R4_out*%
X124135000Y-62542500D03*
%TO.P,U6,17,B1*%
%TO.N,/Level Shifters/LED4_out*%
X123485000Y-62542500D03*
%TO.P,U6,18,B0*%
%TO.N,/Level Shifters/LED3_out*%
X122835000Y-62542500D03*
%TO.P,U6,19,CE*%
%TO.N,GND*%
X122185000Y-62542500D03*
%TO.P,U6,20,VCC*%
%TO.N,+5V*%
X121535000Y-62542500D03*
%TD*%
D19*
%TO.P,C5,1*%
%TO.N,+1V2*%
X100637000Y-70866000D03*
%TO.P,C5,2*%
%TO.N,GND*%
X102187000Y-70866000D03*
%TD*%
D22*
%TO.P,J13,1,Pin_1*%
%TO.N,+5V*%
X99187000Y-122052000D03*
D23*
%TO.P,J13,2,Pin_2*%
%TO.N,Net-(J13-Pin_2)*%
X99187000Y-119512000D03*
%TD*%
D13*
%TO.P,R3,1*%
%TO.N,+3V3*%
X103061000Y-87376000D03*
%TO.P,R3,2*%
%TO.N,/FPGA/SS*%
X104711000Y-87376000D03*
%TD*%
D24*
%TO.P,C29,1*%
%TO.N,Net-(U8-VCCA)*%
X93739000Y-91694000D03*
%TO.P,C29,2*%
%TO.N,GND*%
X92189000Y-91694000D03*
%TD*%
D11*
%TO.P,C17,1*%
%TO.N,+3V3*%
X112776000Y-91427000D03*
%TO.P,C17,2*%
%TO.N,GND*%
X112776000Y-92977000D03*
%TD*%
D34*
%TO.P,U14,1,IOVDD*%
%TO.N,+3V3*%
X108830500Y-116145000D03*
%TO.P,U14,2,GPIO0*%
%TO.N,/MCU/GPIO0*%
X108830500Y-116545000D03*
%TO.P,U14,3,GPIO1*%
%TO.N,/MCU/GPIO1*%
X108830500Y-116945000D03*
%TO.P,U14,4,GPIO2*%
%TO.N,/MCU/GPIO2*%
X108830500Y-117345000D03*
%TO.P,U14,5,GPIO3*%
%TO.N,/MCU/GPIO3*%
X108830500Y-117745000D03*
%TO.P,U14,6,GPIO4*%
%TO.N,/MCU/GPIO4*%
X108830500Y-118145000D03*
%TO.P,U14,7,GPIO5*%
%TO.N,/MCU/GPIO5*%
X108830500Y-118545000D03*
%TO.P,U14,8,GPIO6*%
%TO.N,/MCU/5VSW_1*%
X108830500Y-118945000D03*
%TO.P,U14,9,GPIO7*%
%TO.N,/MCU/5VSW_2*%
X108830500Y-119345000D03*
%TO.P,U14,10,IOVDD*%
%TO.N,+3V3*%
X108830500Y-119745000D03*
%TO.P,U14,11,GPIO8*%
%TO.N,/MCU/SDA0*%
X108830500Y-120145000D03*
%TO.P,U14,12,GPIO9*%
%TO.N,/MCU/SCL0*%
X108830500Y-120545000D03*
%TO.P,U14,13,GPIO10*%
%TO.N,unconnected-(U14-GPIO10-Pad13)*%
X108830500Y-120945000D03*
%TO.P,U14,14,GPIO11*%
%TO.N,unconnected-(U14-GPIO11-Pad14)*%
X108830500Y-121345000D03*
D35*
%TO.P,U14,15,GPIO12*%
%TO.N,unconnected-(U14-GPIO12-Pad15)*%
X109668000Y-122182500D03*
%TO.P,U14,16,GPIO13*%
%TO.N,unconnected-(U14-GPIO13-Pad16)*%
X110068000Y-122182500D03*
%TO.P,U14,17,GPIO14*%
%TO.N,/MCU/SDA1*%
X110468000Y-122182500D03*
%TO.P,U14,18,GPIO15*%
%TO.N,/MCU/SCL1*%
X110868000Y-122182500D03*
%TO.P,U14,19,TESTEN*%
%TO.N,GND*%
X111268000Y-122182500D03*
%TO.P,U14,20,XIN*%
%TO.N,/FPGA/CLK_12MHZ*%
X111668000Y-122182500D03*
%TO.P,U14,21,XOUT*%
%TO.N,unconnected-(U14-XOUT-Pad21)*%
X112068000Y-122182500D03*
%TO.P,U14,22,IOVDD*%
%TO.N,+3V3*%
X112468000Y-122182500D03*
%TO.P,U14,23,DVDD*%
%TO.N,+1V1*%
X112868000Y-122182500D03*
%TO.P,U14,24,SWCLK*%
%TO.N,Net-(U14-SWCLK)*%
X113268000Y-122182500D03*
%TO.P,U14,25,SWD*%
%TO.N,Net-(U14-SWD)*%
X113668000Y-122182500D03*
%TO.P,U14,26,RUN*%
%TO.N,Net-(U14-RUN)*%
X114068000Y-122182500D03*
%TO.P,U14,27,GPIO16*%
%TO.N,unconnected-(U14-GPIO16-Pad27)*%
X114468000Y-122182500D03*
%TO.P,U14,28,GPIO17*%
%TO.N,unconnected-(U14-GPIO17-Pad28)*%
X114868000Y-122182500D03*
D34*
%TO.P,U14,29,GPIO18*%
%TO.N,unconnected-(U14-GPIO18-Pad29)*%
X115705500Y-121345000D03*
%TO.P,U14,30,GPIO19*%
%TO.N,unconnected-(U14-GPIO19-Pad30)*%
X115705500Y-120945000D03*
%TO.P,U14,31,GPIO20*%
%TO.N,unconnected-(U14-GPIO20-Pad31)*%
X115705500Y-120545000D03*
%TO.P,U14,32,GPIO21*%
%TO.N,unconnected-(U14-GPIO21-Pad32)*%
X115705500Y-120145000D03*
%TO.P,U14,33,IOVDD*%
%TO.N,+3V3*%
X115705500Y-119745000D03*
%TO.P,U14,34,GPIO22*%
%TO.N,unconnected-(U14-GPIO22-Pad34)*%
X115705500Y-119345000D03*
%TO.P,U14,35,GPIO23*%
%TO.N,unconnected-(U14-GPIO23-Pad35)*%
X115705500Y-118945000D03*
%TO.P,U14,36,GPIO24*%
%TO.N,unconnected-(U14-GPIO24-Pad36)*%
X115705500Y-118545000D03*
%TO.P,U14,37,GPIO25*%
%TO.N,unconnected-(U14-GPIO25-Pad37)*%
X115705500Y-118145000D03*
%TO.P,U14,38,GPIO26_ADC0*%
%TO.N,/MCU/GPIO26*%
X115705500Y-117745000D03*
%TO.P,U14,39,GPIO27_ADC1*%
%TO.N,/MCU/GPIO27*%
X115705500Y-117345000D03*
%TO.P,U14,40,GPIO28_ADC2*%
%TO.N,unconnected-(U14-GPIO28_ADC2-Pad40)*%
X115705500Y-116945000D03*
%TO.P,U14,41,GPIO29_ADC3*%
%TO.N,unconnected-(U14-GPIO29_ADC3-Pad41)*%
X115705500Y-116545000D03*
%TO.P,U14,42,IOVDD*%
%TO.N,+3V3*%
X115705500Y-116145000D03*
D35*
%TO.P,U14,43,ADC_AVDD*%
X114868000Y-115307500D03*
%TO.P,U14,44,VREG_IN*%
X114468000Y-115307500D03*
%TO.P,U14,45,VREG_VOUT*%
%TO.N,+1V1*%
X114068000Y-115307500D03*
%TO.P,U14,46,USB_DM*%
%TO.N,/MCU/USB_D-*%
X113668000Y-115307500D03*
%TO.P,U14,47,USB_DP*%
%TO.N,/MCU/USB_D+*%
X113268000Y-115307500D03*
%TO.P,U14,48,USB_VDD*%
%TO.N,+3V3*%
X112868000Y-115307500D03*
%TO.P,U14,49,IOVDD*%
X112468000Y-115307500D03*
%TO.P,U14,50,DVDD*%
%TO.N,+1V1*%
X112068000Y-115307500D03*
%TO.P,U14,51,QSPI_SD3*%
%TO.N,Net-(U13-IO3)*%
X111668000Y-115307500D03*
%TO.P,U14,52,QSPI_SCLK*%
%TO.N,Net-(U13-CLK)*%
X111268000Y-115307500D03*
%TO.P,U14,53,QSPI_SD0*%
%TO.N,Net-(U13-DI(IO0))*%
X110868000Y-115307500D03*
%TO.P,U14,54,QSPI_SD2*%
%TO.N,Net-(U13-IO2)*%
X110468000Y-115307500D03*
%TO.P,U14,55,QSPI_SD1*%
%TO.N,Net-(U13-DO(IO1))*%
X110068000Y-115307500D03*
%TO.P,U14,56,QSPI_SS*%
%TO.N,Net-(U13-~{CS})*%
X109668000Y-115307500D03*
D36*
%TO.P,U14,57,GND*%
%TO.N,GND*%
X112268000Y-118745000D03*
%TD*%
D13*
%TO.P,R2,1*%
%TO.N,+3V3*%
X104585000Y-89154000D03*
%TO.P,R2,2*%
%TO.N,Net-(U3B-CDONE)*%
X106235000Y-89154000D03*
%TD*%
D16*
%TO.P,C23,1*%
%TO.N,+3V3*%
X127762000Y-85865000D03*
%TO.P,C23,2*%
%TO.N,GND*%
X127762000Y-84315000D03*
%TD*%
D37*
%TO.P,D1,1,K*%
%TO.N,GND*%
X139598500Y-124714000D03*
%TO.P,D1,2,A*%
%TO.N,Net-(D1-A)*%
X138023500Y-124714000D03*
%TD*%
D16*
%TO.P,C40,1*%
%TO.N,Net-(U9-VREF)*%
X131711000Y-115484500D03*
%TO.P,C40,2*%
%TO.N,GND*%
X131711000Y-113934500D03*
%TD*%
D33*
%TO.P,J5,1,Pin_1*%
%TO.N,GND*%
X130175000Y-51435000D03*
%TD*%
D38*
%TO.P,U3,1,GND*%
%TO.N,GND*%
X106637500Y-75915000D03*
%TO.P,U3,2,GPIOL_41_CDI9*%
%TO.N,/FPGA/B1*%
X106637500Y-76415000D03*
%TO.P,U3,3,GPIOL_40_CDI8*%
%TO.N,/FPGA/G1*%
X106637500Y-76915000D03*
%TO.P,U3,4,GPIOL_32_CTRL4_CDI7*%
%TO.N,/FPGA/R1*%
X106637500Y-77415000D03*
%TO.P,U3,5,GPIOL_31_CLK7_CDI6*%
%TO.N,/FPGA/~{OE}*%
X106637500Y-77915000D03*
%TO.P,U3,6,SPI_CS_N*%
%TO.N,/FPGA/SS*%
X106637500Y-78415000D03*
%TO.P,U3,7,GPIOL_24_CLK0*%
%TO.N,/FPGA/CLK_60MHZ*%
X106637500Y-78915000D03*
%TO.P,U3,8,GPIOL_12_CDI2*%
%TO.N,/FPGA/~{WR}*%
X106637500Y-79415000D03*
%TO.P,U3,9,GPIOL_21_CTRL1_CDI5*%
%TO.N,/FPGA/~{RD}*%
X106637500Y-79915000D03*
%TO.P,U3,10,GPIOL_20_CTRL0_CDI4*%
%TO.N,/FPGA/~{TXE}*%
X106637500Y-80415000D03*
%TO.P,U3,11,VCCIO1A_1B_1C*%
%TO.N,+3V3*%
X106637500Y-80915000D03*
%TO.P,U3,12,TDO*%
%TO.N,/FPGA/TDO*%
X106637500Y-81415000D03*
%TO.P,U3,13,TCK*%
%TO.N,/FPGA/TCK*%
X106637500Y-81915000D03*
%TO.P,U3,14,GPIOL_13_CDI3*%
%TO.N,/FPGA/CLK_12MHZ*%
X106637500Y-82415000D03*
%TO.P,U3,15,VCC*%
%TO.N,+1V2*%
X106637500Y-82915000D03*
%TO.P,U3,16,TMS*%
%TO.N,/FPGA/TMS*%
X106637500Y-83415000D03*
%TO.P,U3,17,TDI*%
%TO.N,/FPGA/TDI*%
X106637500Y-83915000D03*
%TO.P,U3,18,GPIOL_09_CDI1*%
%TO.N,Net-(U3B-GPIOL_09_CDI1)*%
X106637500Y-84415000D03*
%TO.P,U3,19,GPIOL_08_CDI0*%
%TO.N,Net-(U3B-GPIOL_08_CDI0)*%
X106637500Y-84915000D03*
%TO.P,U3,20,CRESET_N*%
%TO.N,/FPGA/CRESET_N*%
X106637500Y-85415000D03*
%TO.P,U3,21,VCCIO1A_1B_1C*%
%TO.N,+3V3*%
X106637500Y-85915000D03*
%TO.P,U3,22,GPIOL_05_CSO*%
%TO.N,/FPGA/~{RXF}*%
X106637500Y-86415000D03*
%TO.P,U3,23,GPIOL_04_CSI*%
%TO.N,Net-(U3B-GPIOL_04_CSI)*%
X106637500Y-86915000D03*
%TO.P,U3,24,GPIOL_00_SS_N*%
%TO.N,/FPGA/SS*%
X106637500Y-87415000D03*
%TO.P,U3,25,CDONE*%
%TO.N,Net-(U3B-CDONE)*%
X106637500Y-87915000D03*
D39*
%TO.P,U3,26,GPIOL_01_CCK*%
%TO.N,Net-(U3B-GPIOL_01_CCK)*%
X108300000Y-89577500D03*
%TO.P,U3,27,REF_RES*%
%TO.N,unconnected-(U3D-REF_RES-Pad27)*%
X108800000Y-89577500D03*
%TO.P,U3,28,GND*%
%TO.N,GND*%
X109300000Y-89577500D03*
%TO.P,U3,29,GPIOB_TXP01*%
%TO.N,/FPGA/D7*%
X109800000Y-89577500D03*
%TO.P,U3,30,GPIOB_TXN01*%
%TO.N,/FPGA/D6*%
X110300000Y-89577500D03*
%TO.P,U3,31,VCC*%
%TO.N,+1V2*%
X110800000Y-89577500D03*
%TO.P,U3,32,GPIOB_TXP04*%
%TO.N,/FPGA/D5*%
X111300000Y-89577500D03*
%TO.P,U3,33,GPIOB_TXN04*%
%TO.N,/FPGA/D4*%
X111800000Y-89577500D03*
%TO.P,U3,34,VCCIO4B*%
%TO.N,+3V3*%
X112300000Y-89577500D03*
%TO.P,U3,35,GPIOB_TXP07*%
%TO.N,unconnected-(U3D-GPIOB_TXP07-Pad35)*%
X112800000Y-89577500D03*
%TO.P,U3,36,GPIOB_TXN07*%
%TO.N,unconnected-(U3D-GPIOB_TXN07-Pad36)*%
X113300000Y-89577500D03*
%TO.P,U3,37,GPIOB_TXP10*%
%TO.N,/FPGA/D3*%
X113800000Y-89577500D03*
%TO.P,U3,38,GPIOB_TXN10*%
%TO.N,/FPGA/D2*%
X114300000Y-89577500D03*
%TO.P,U3,39,GND*%
%TO.N,GND*%
X114800000Y-89577500D03*
%TO.P,U3,40,GPIOB_RXP00*%
%TO.N,/FPGA/D1*%
X115300000Y-89577500D03*
%TO.P,U3,41,GPIOB_RXN00*%
%TO.N,/FPGA/D0*%
X115800000Y-89577500D03*
%TO.P,U3,42,VCCIO4A*%
%TO.N,+3V3*%
X116300000Y-89577500D03*
%TO.P,U3,43,GPIOB_RXN03*%
%TO.N,unconnected-(U3D-GPIOB_RXN03-Pad43)*%
X116800000Y-89577500D03*
%TO.P,U3,44,GPIOB_RXP03*%
%TO.N,unconnected-(U3D-GPIOB_RXP03-Pad44)*%
X117300000Y-89577500D03*
%TO.P,U3,45,VCC*%
%TO.N,+1V2*%
X117800000Y-89577500D03*
%TO.P,U3,46,GPIOB_RXP06*%
%TO.N,unconnected-(U3D-GPIOB_RXP06-Pad46)*%
X118300000Y-89577500D03*
%TO.P,U3,47,GPIOB_RXN06*%
%TO.N,unconnected-(U3D-GPIOB_RXN06-Pad47)*%
X118800000Y-89577500D03*
%TO.P,U3,48,GPIOB_RXN09*%
%TO.N,unconnected-(U3D-GPIOB_RXN09-Pad48)*%
X119300000Y-89577500D03*
%TO.P,U3,49,GPIOB_RXP09*%
%TO.N,unconnected-(U3D-GPIOB_RXP09-Pad49)*%
X119800000Y-89577500D03*
%TO.P,U3,50,VCCA_BR*%
%TO.N,Net-(U3A-VCCA_BR)*%
X120300000Y-89577500D03*
D38*
%TO.P,U3,51,GPIOB_CLKP0*%
%TO.N,unconnected-(U3D-GPIOB_CLKP0-Pad51)*%
X121962500Y-87915000D03*
%TO.P,U3,52,GPIOB_CLKN0*%
%TO.N,unconnected-(U3D-GPIOB_CLKN0-Pad52)*%
X121962500Y-87415000D03*
%TO.P,U3,53,GPIOR_158_TEST_N*%
%TO.N,Net-(U3C-GPIOR_158_TEST_N)*%
X121962500Y-86915000D03*
%TO.P,U3,54,GPIOR_157_PLLIN*%
%TO.N,Net-(U3C-GPIOR_157_PLLIN)*%
X121962500Y-86415000D03*
%TO.P,U3,55,GPIOR_155*%
%TO.N,unconnected-(U3C-GPIOR_155-Pad55)*%
X121962500Y-85915000D03*
%TO.P,U3,56,GPIOR_154*%
%TO.N,unconnected-(U3C-GPIOR_154-Pad56)*%
X121962500Y-85415000D03*
%TO.P,U3,57,GPIOR_151_CBUS0*%
%TO.N,Net-(U3C-GPIOR_151_CBUS0)*%
X121962500Y-84915000D03*
%TO.P,U3,58,GPIOR_150_CBUS1*%
%TO.N,Net-(U3C-GPIOR_150_CBUS1)*%
X121962500Y-84415000D03*
%TO.P,U3,59,GPIOR_149_CBUS2*%
%TO.N,Net-(U3C-GPIOR_149_CBUS2)*%
X121962500Y-83915000D03*
%TO.P,U3,60,VCCIO3D_3E*%
%TO.N,+3V3*%
X121962500Y-83415000D03*
%TO.P,U3,61,GND*%
%TO.N,GND*%
X121962500Y-82915000D03*
%TO.P,U3,62,GPIOR_133_CDI18*%
%TO.N,unconnected-(U3C-GPIOR_133_CDI18-Pad62)*%
X121962500Y-82415000D03*
%TO.P,U3,63,GPIOR_132_CDI19*%
%TO.N,unconnected-(U3C-GPIOR_132_CDI19-Pad63)*%
X121962500Y-81915000D03*
%TO.P,U3,64,VCC*%
%TO.N,+1V2*%
X121962500Y-81415000D03*
%TO.P,U3,65,GPIOR_123_CLK12_CDI20*%
%TO.N,unconnected-(U3C-GPIOR_123_CLK12_CDI20-Pad65)*%
X121962500Y-80915000D03*
%TO.P,U3,66,GPIOR_122_CLK13_CDI21*%
%TO.N,/FPGA/R3*%
X121962500Y-80415000D03*
%TO.P,U3,67,GPIOR_117_CTRL14*%
%TO.N,/FPGA/B3*%
X121962500Y-79915000D03*
%TO.P,U3,68,GPIOR_116_CTRL15*%
%TO.N,/FPGA/G3*%
X121962500Y-79415000D03*
%TO.P,U3,69,VCCIO3B_3C*%
%TO.N,+3V3*%
X121962500Y-78915000D03*
%TO.P,U3,70,GND*%
%TO.N,GND*%
X121962500Y-78415000D03*
%TO.P,U3,71,GPIOR_94_CDI27*%
%TO.N,/FPGA/G4*%
X121962500Y-77915000D03*
%TO.P,U3,72,VCCA_TR*%
%TO.N,Net-(U3A-VCCA_BR)*%
X121962500Y-77415000D03*
%TO.P,U3,73,GPIOR_88_CDI28*%
%TO.N,/FPGA/B4*%
X121962500Y-76915000D03*
%TO.P,U3,74,GPIOR_87_CDI29*%
%TO.N,/FPGA/R4*%
X121962500Y-76415000D03*
%TO.P,U3,75,VCC*%
%TO.N,+1V2*%
X121962500Y-75915000D03*
D39*
%TO.P,U3,76,VCCIO3A*%
%TO.N,+3V3*%
X120300000Y-74252500D03*
%TO.P,U3,77,GPIOR_79_EXTFB1_CDI30*%
%TO.N,/FPGA/STRIP4*%
X119800000Y-74252500D03*
%TO.P,U3,78,GPIOR_78_EXTFB0_CDI31*%
%TO.N,/FPGA/STRIP3*%
X119300000Y-74252500D03*
%TO.P,U3,79,GPIOR_77_PLLIN1*%
%TO.N,/FPGA/BLANK*%
X118800000Y-74252500D03*
%TO.P,U3,80,GPIOR_76_PLLIN0*%
%TO.N,/FPGA/LAT*%
X118300000Y-74252500D03*
%TO.P,U3,81,GND*%
%TO.N,GND*%
X117800000Y-74252500D03*
%TO.P,U3,82,VCC*%
%TO.N,+1V2*%
X117300000Y-74252500D03*
%TO.P,U3,83,VCC*%
X116800000Y-74252500D03*
%TO.P,U3,84,VCCA_TL*%
%TO.N,Net-(U3A-VCCA_BR)*%
X116300000Y-74252500D03*
%TO.P,U3,85,GPIOL_75_PLLIN1*%
%TO.N,/FPGA/CLKOUT*%
X115800000Y-74252500D03*
%TO.P,U3,86,GPIOL_74_PLLIN0*%
%TO.N,/FPGA/D*%
X115300000Y-74252500D03*
%TO.P,U3,87,GPIOL_73_EXTFB1_CDI15*%
%TO.N,/FPGA/C_ROW_DATA*%
X114800000Y-74252500D03*
%TO.P,U3,88,GPIOL_71_NSTATUS*%
%TO.N,/FPGA/B*%
X114300000Y-74252500D03*
%TO.P,U3,89,GPIOL_72_EXTFB0_CDI14*%
%TO.N,/FPGA/A_ROW_CLK*%
X113800000Y-74252500D03*
%TO.P,U3,90,GND*%
%TO.N,GND*%
X113300000Y-74252500D03*
%TO.P,U3,91,VCC*%
%TO.N,+1V2*%
X112800000Y-74252500D03*
%TO.P,U3,92,GPIOL_70_CBSEL0*%
%TO.N,Net-(JP1-A)*%
X112300000Y-74252500D03*
%TO.P,U3,93,GPIOL_69_CBSEL1*%
%TO.N,Net-(U3B-GPIOL_69_CBSEL1)*%
X111800000Y-74252500D03*
%TO.P,U3,94,GPIOL_67_CDI13*%
%TO.N,/FPGA/STRIP2*%
X111300000Y-74252500D03*
%TO.P,U3,95,GPIOL_66_CDI12*%
%TO.N,/FPGA/STRIP1*%
X110800000Y-74252500D03*
%TO.P,U3,96,VCCIO1D_1E*%
%TO.N,+3V3*%
X110300000Y-74252500D03*
%TO.P,U3,97,GND*%
%TO.N,GND*%
X109800000Y-74252500D03*
%TO.P,U3,98,GPIOL_53_CDI10*%
%TO.N,/FPGA/R2*%
X109300000Y-74252500D03*
%TO.P,U3,99,GPIOL_54_CDI11*%
%TO.N,/FPGA/G2*%
X108800000Y-74252500D03*
%TO.P,U3,100,GPIOL_46*%
%TO.N,/FPGA/B2*%
X108300000Y-74252500D03*
%TD*%
D27*
%TO.P,R11,1*%
%TO.N,+3V3*%
X129095000Y-78232000D03*
%TO.P,R11,2*%
%TO.N,Net-(U3C-GPIOR_158_TEST_N)*%
X127445000Y-78232000D03*
%TD*%
D40*
%TO.P,U13,1,~{CS}*%
%TO.N,Net-(U13-~{CS})*%
X112351000Y-105537000D03*
%TO.P,U13,2,DO(IO1)*%
%TO.N,Net-(U13-DO(IO1))*%
X112351000Y-106807000D03*
%TO.P,U13,3,IO2*%
%TO.N,Net-(U13-IO2)*%
X112351000Y-108077000D03*
%TO.P,U13,4,GND*%
%TO.N,GND*%
X112351000Y-109347000D03*
%TO.P,U13,5,DI(IO0)*%
%TO.N,Net-(U13-DI(IO0))*%
X119551000Y-109347000D03*
%TO.P,U13,6,CLK*%
%TO.N,Net-(U13-CLK)*%
X119551000Y-108077000D03*
%TO.P,U13,7,IO3*%
%TO.N,Net-(U13-IO3)*%
X119551000Y-106807000D03*
%TO.P,U13,8,VCC*%
%TO.N,+3V3*%
X119551000Y-105537000D03*
%TD*%
D22*
%TO.P,J8,1,Pin_1*%
%TO.N,+5V*%
X117475000Y-50815000D03*
D23*
%TO.P,J8,2,Pin_2*%
%TO.N,/Level Shifters/LED3_out*%
X117475000Y-53355000D03*
%TO.P,J8,3,Pin_3*%
%TO.N,GND*%
X117475000Y-55895000D03*
%TD*%
D24*
%TO.P,C3,1*%
%TO.N,/FPGA/CRESET_N*%
X96787000Y-108458000D03*
%TO.P,C3,2*%
%TO.N,GND*%
X95237000Y-108458000D03*
%TD*%
D22*
%TO.P,J7,1,Pin_1*%
%TO.N,+5V*%
X111125000Y-50815000D03*
D23*
%TO.P,J7,2,Pin_2*%
%TO.N,/Level Shifters/LED2_out*%
X111125000Y-53355000D03*
%TO.P,J7,3,Pin_3*%
%TO.N,GND*%
X111125000Y-55895000D03*
%TD*%
D13*
%TO.P,R25,1*%
%TO.N,Net-(U14-RUN)*%
X117158000Y-122174000D03*
%TO.P,R25,2*%
%TO.N,+3V3*%
X118808000Y-122174000D03*
%TD*%
D16*
%TO.P,C60,1*%
%TO.N,+3V3*%
X107315000Y-115202000D03*
%TO.P,C60,2*%
%TO.N,GND*%
X107315000Y-113652000D03*
%TD*%
D19*
%TO.P,C32,1*%
%TO.N,+3V3*%
X103873000Y-99314000D03*
%TO.P,C32,2*%
%TO.N,GND*%
X105423000Y-99314000D03*
%TD*%
D41*
%TO.P,X1,1,Tri-State*%
%TO.N,unconnected-(X1-Tri-State-Pad1)*%
X126201000Y-86269000D03*
%TO.P,X1,2,GND*%
%TO.N,GND*%
X126201000Y-84419000D03*
%TO.P,X1,3,OUT*%
%TO.N,Net-(U3C-GPIOR_157_PLLIN)*%
X124751000Y-84419000D03*
%TO.P,X1,4,VDD*%
%TO.N,+3V3*%
X124751000Y-86269000D03*
%TD*%
D42*
%TO.P,J10,A1,GND*%
%TO.N,GND*%
X135933500Y-100032000D03*
%TO.P,J10,A4,VBUS*%
%TO.N,+5V*%
X135933500Y-98532000D03*
%TO.P,J10,A5,CC1*%
%TO.N,Net-(J10-CC1)*%
X135933500Y-98032000D03*
%TO.P,J10,A6,D+*%
%TO.N,/USB Hub/RAW_D+*%
X135933500Y-97532000D03*
%TO.P,J10,A7,D-*%
%TO.N,/USB Hub/RAW_D-*%
X135933500Y-97032000D03*
%TO.P,J10,A8*%
%TO.N,N/C*%
X135933500Y-96532000D03*
%TO.P,J10,A9,VBUS*%
%TO.N,+5V*%
X135933500Y-96032000D03*
%TO.P,J10,A12,GND*%
%TO.N,GND*%
X135933500Y-94532000D03*
%TO.P,J10,B1,GND*%
X138903500Y-94532000D03*
%TO.P,J10,B4,VBUS*%
%TO.N,+5V*%
X138903500Y-96032000D03*
%TO.P,J10,B5,CC2*%
%TO.N,Net-(J10-CC2)*%
X138903500Y-96532000D03*
%TO.P,J10,B6,D+*%
%TO.N,/USB Hub/RAW_D+*%
X138903500Y-97032000D03*
%TO.P,J10,B7,D-*%
%TO.N,/USB Hub/RAW_D-*%
X138903500Y-97532000D03*
%TO.P,J10,B8*%
%TO.N,N/C*%
X138903500Y-98032000D03*
%TO.P,J10,B9,VBUS*%
%TO.N,+5V*%
X138903500Y-98532000D03*
%TO.P,J10,B12,GND*%
%TO.N,GND*%
X138903500Y-100032000D03*
D43*
%TO.P,J10,S1,SHIELD*%
X135988500Y-101282000D03*
X138848500Y-101282000D03*
X135988500Y-93282000D03*
X138848500Y-93282000D03*
%TD*%
D24*
%TO.P,C28,1*%
%TO.N,Net-(U8-VCCCORE)*%
X93739000Y-93218000D03*
%TO.P,C28,2*%
%TO.N,GND*%
X92189000Y-93218000D03*
%TD*%
D22*
%TO.P,J12,1,Pin_1*%
%TO.N,/MCU/GPIO0*%
X108458000Y-130556000D03*
D23*
%TO.P,J12,2,Pin_2*%
%TO.N,/MCU/GPIO1*%
X108458000Y-128016000D03*
%TO.P,J12,3,Pin_3*%
%TO.N,/MCU/GPIO2*%
X110998000Y-130556000D03*
%TO.P,J12,4,Pin_4*%
%TO.N,/MCU/GPIO3*%
X110998000Y-128016000D03*
%TO.P,J12,5,Pin_5*%
%TO.N,/MCU/GPIO4*%
X113538000Y-130556000D03*
%TO.P,J12,6,Pin_6*%
%TO.N,/MCU/GPIO5*%
X113538000Y-128016000D03*
%TO.P,J12,7,Pin_7*%
%TO.N,/MCU/GPIO26*%
X116078000Y-130556000D03*
%TO.P,J12,8,Pin_8*%
%TO.N,/MCU/GPIO27*%
X116078000Y-128016000D03*
%TO.P,J12,9,Pin_9*%
%TO.N,+3V3*%
X118618000Y-130556000D03*
%TO.P,J12,10,Pin_10*%
X118618000Y-128016000D03*
%TO.P,J12,11,Pin_11*%
%TO.N,GND*%
X121158000Y-130556000D03*
%TO.P,J12,12,Pin_12*%
X121158000Y-128016000D03*
%TD*%
D24*
%TO.P,C11,1*%
%TO.N,+1V2*%
X104661000Y-82804000D03*
%TO.P,C11,2*%
%TO.N,GND*%
X103111000Y-82804000D03*
%TD*%
D16*
%TO.P,C48,1*%
%TO.N,Net-(U12-VDD33)*%
X124460000Y-101867000D03*
%TO.P,C48,2*%
%TO.N,GND*%
X124460000Y-100317000D03*
%TD*%
D24*
%TO.P,C37,1*%
%TO.N,+5V*%
X123330000Y-116967000D03*
%TO.P,C37,2*%
%TO.N,GND*%
X121780000Y-116967000D03*
%TD*%
D11*
%TO.P,C13,1*%
%TO.N,+1V2*%
X117602000Y-91427000D03*
%TO.P,C13,2*%
%TO.N,GND*%
X117602000Y-92977000D03*
%TD*%
D19*
%TO.P,C55,1*%
%TO.N,+3V3*%
X117208000Y-115316000D03*
%TO.P,C55,2*%
%TO.N,GND*%
X118758000Y-115316000D03*
%TD*%
D15*
%TO.P,R7,1*%
%TO.N,+3V3*%
X104140000Y-74613000D03*
%TO.P,R7,2*%
%TO.N,Net-(U3B-GPIOL_09_CDI1)*%
X104140000Y-76263000D03*
%TD*%
D14*
%TO.P,Q1,1,G*%
%TO.N,/MCU/5VSW_1*%
X100137000Y-114759500D03*
%TO.P,Q1,2,S*%
%TO.N,GND*%
X98237000Y-114759500D03*
%TO.P,Q1,3,D*%
%TO.N,Net-(J13-Pin_2)*%
X99187000Y-116634500D03*
%TD*%
D44*
%TO.P,U8,1,XCSI*%
%TO.N,/FPGA/CLK_12MHZ*%
X97072000Y-98904500D03*
%TO.P,U8,2,XCSO*%
%TO.N,unconnected-(U8-XCSO-Pad2)*%
X97572000Y-98904500D03*
%TO.P,U8,3,VPHY*%
%TO.N,Net-(U8-VPHY)*%
X98072000Y-98904500D03*
%TO.P,U8,4,AGND*%
%TO.N,GND*%
X98572000Y-98904500D03*
%TO.P,U8,5,REF*%
%TO.N,Net-(U8-REF)*%
X99072000Y-98904500D03*
%TO.P,U8,6,DM*%
%TO.N,/FTDI/USB_D-*%
X99572000Y-98904500D03*
%TO.P,U8,7,DP*%
%TO.N,/FTDI/USB_D+*%
X100072000Y-98904500D03*
%TO.P,U8,8,VPLL*%
%TO.N,Net-(U8-VPLL)*%
X100572000Y-98904500D03*
%TO.P,U8,9,AGND*%
%TO.N,GND*%
X101072000Y-98904500D03*
%TO.P,U8,10,GND*%
X101572000Y-98904500D03*
%TO.P,U8,11,GND*%
X102072000Y-98904500D03*
%TO.P,U8,12,VCCIO*%
%TO.N,+3V3*%
X102572000Y-98904500D03*
D45*
%TO.P,U8,13,ADBUS0*%
%TO.N,/FPGA/D0*%
X103984500Y-97492000D03*
%TO.P,U8,14,ADBUS1*%
%TO.N,/FPGA/D1*%
X103984500Y-96992000D03*
%TO.P,U8,15,ADBUS2*%
%TO.N,/FPGA/D2*%
X103984500Y-96492000D03*
%TO.P,U8,16,ADBUS3*%
%TO.N,/FPGA/D3*%
X103984500Y-95992000D03*
%TO.P,U8,17,ADBUS4*%
%TO.N,/FPGA/D4*%
X103984500Y-95492000D03*
%TO.P,U8,18,ADBUS5*%
%TO.N,/FPGA/D5*%
X103984500Y-94992000D03*
%TO.P,U8,19,ADBUS6*%
%TO.N,/FPGA/D6*%
X103984500Y-94492000D03*
%TO.P,U8,20,ADBUS7*%
%TO.N,/FPGA/D7*%
X103984500Y-93992000D03*
%TO.P,U8,21,ACBUS0*%
%TO.N,/FPGA/~{RXF}*%
X103984500Y-93492000D03*
%TO.P,U8,22,GND*%
%TO.N,GND*%
X103984500Y-92992000D03*
%TO.P,U8,23,GND*%
X103984500Y-92492000D03*
%TO.P,U8,24,VCCIO*%
%TO.N,+3V3*%
X103984500Y-91992000D03*
D44*
%TO.P,U8,25,ACBUS1*%
%TO.N,/FPGA/~{TXE}*%
X102572000Y-90579500D03*
%TO.P,U8,26,ACBUS2*%
%TO.N,/FPGA/~{RD}*%
X102072000Y-90579500D03*
%TO.P,U8,27,ACBUS3*%
%TO.N,/FPGA/~{WR}*%
X101572000Y-90579500D03*
%TO.P,U8,28,ACBUS4*%
%TO.N,+3V3*%
X101072000Y-90579500D03*
%TO.P,U8,29,ACBUS5*%
%TO.N,/FPGA/CLK_60MHZ*%
X100572000Y-90579500D03*
%TO.P,U8,30,ACBUS6*%
%TO.N,/FPGA/~{OE}*%
X100072000Y-90579500D03*
%TO.P,U8,31,ACBUS7*%
%TO.N,+3V3*%
X99572000Y-90579500D03*
%TO.P,U8,32,ACBUS8*%
%TO.N,unconnected-(U8-ACBUS8-Pad32)*%
X99072000Y-90579500D03*
%TO.P,U8,33,ACBUS9*%
%TO.N,unconnected-(U8-ACBUS9-Pad33)*%
X98572000Y-90579500D03*
%TO.P,U8,34,~{RESET}*%
%TO.N,Net-(U8-~{RESET})*%
X98072000Y-90579500D03*
%TO.P,U8,35,GND*%
%TO.N,GND*%
X97572000Y-90579500D03*
%TO.P,U8,36,GND*%
X97072000Y-90579500D03*
D45*
%TO.P,U8,37,VCCA*%
%TO.N,Net-(U8-VCCA)*%
X95659500Y-91992000D03*
%TO.P,U8,38,VCCCORE*%
%TO.N,Net-(U8-VCCCORE)*%
X95659500Y-92492000D03*
%TO.P,U8,39,VCCD*%
%TO.N,+3V3*%
X95659500Y-92992000D03*
%TO.P,U8,40,VREGIN*%
X95659500Y-93492000D03*
%TO.P,U8,41,AGND*%
%TO.N,GND*%
X95659500Y-93992000D03*
%TO.P,U8,42,TEST*%
X95659500Y-94492000D03*
%TO.P,U8,43,EEDATA*%
%TO.N,Net-(U7-DI)*%
X95659500Y-94992000D03*
%TO.P,U8,44,EECLK*%
%TO.N,Net-(U7-CLK)*%
X95659500Y-95492000D03*
%TO.P,U8,45,EECS*%
%TO.N,Net-(U7-CS)*%
X95659500Y-95992000D03*
%TO.P,U8,46,VCCIO*%
%TO.N,+3V3*%
X95659500Y-96492000D03*
%TO.P,U8,47,GND*%
%TO.N,GND*%
X95659500Y-96992000D03*
%TO.P,U8,48,GND*%
X95659500Y-97492000D03*
%TD*%
D11*
%TO.P,C59,1*%
%TO.N,+3V3*%
X105918000Y-121412000D03*
%TO.P,C59,2*%
%TO.N,GND*%
X105918000Y-122962000D03*
%TD*%
D16*
%TO.P,C38,1*%
%TO.N,Net-(C35-Pad1)*%
X125615000Y-115484500D03*
%TO.P,C38,2*%
%TO.N,GND*%
X125615000Y-113934500D03*
%TD*%
D22*
%TO.P,JP1,1,A*%
%TO.N,Net-(JP1-A)*%
X131826000Y-105786000D03*
D23*
%TO.P,JP1,2,B*%
%TO.N,+3V3*%
X131826000Y-108326000D03*
%TD*%
D10*
%TO.P,FB2,1*%
%TO.N,+3V3*%
X95250000Y-102425000D03*
%TO.P,FB2,2*%
%TO.N,Net-(U8-VPHY)*%
X95250000Y-100775000D03*
%TD*%
D16*
%TO.P,C36,1*%
%TO.N,Net-(C36-Pad1)*%
X128663000Y-115484500D03*
%TO.P,C36,2*%
%TO.N,GND*%
X128663000Y-113934500D03*
%TD*%
D11*
%TO.P,C20,1*%
%TO.N,+3V3*%
X116078000Y-91414000D03*
%TO.P,C20,2*%
%TO.N,GND*%
X116078000Y-92964000D03*
%TD*%
D10*
%TO.P,R4,1*%
%TO.N,+3V3*%
X108204000Y-93027000D03*
%TO.P,R4,2*%
%TO.N,Net-(U3B-GPIOL_01_CCK)*%
X108204000Y-91377000D03*
%TD*%
D15*
%TO.P,R20,1*%
%TO.N,Net-(J10-CC1)*%
X133989500Y-100394000D03*
%TO.P,R20,2*%
%TO.N,GND*%
X133989500Y-102044000D03*
%TD*%
D16*
%TO.P,C25,1*%
%TO.N,GND*%
X109855000Y-63640000D03*
%TO.P,C25,2*%
%TO.N,+5V*%
X109855000Y-62090000D03*
%TD*%
D27*
%TO.P,R10,1*%
%TO.N,+3V3*%
X129095000Y-76708000D03*
%TO.P,R10,2*%
%TO.N,Net-(U3C-GPIOR_151_CBUS0)*%
X127445000Y-76708000D03*
%TD*%
D16*
%TO.P,C35,1*%
%TO.N,Net-(C35-Pad1)*%
X124091000Y-115484500D03*
%TO.P,C35,2*%
%TO.N,GND*%
X124091000Y-113934500D03*
%TD*%
D46*
%TO.P,J11,1,VBUS*%
%TO.N,+5V*%
X135805000Y-118435000D03*
%TO.P,J11,2,D-*%
%TO.N,/USB Hub/USB_EXT_D-*%
X135805000Y-115935000D03*
%TO.P,J11,3,D+*%
%TO.N,/USB Hub/USB_EXT_D+*%
X135805000Y-113935000D03*
%TO.P,J11,4,GND*%
%TO.N,GND*%
X135805000Y-111435000D03*
D47*
%TO.P,J11,5,Shield*%
X138515000Y-121505000D03*
X138515000Y-108365000D03*
%TD*%
D16*
%TO.P,C46,1*%
%TO.N,+5V*%
X127762000Y-101867000D03*
%TO.P,C46,2*%
%TO.N,GND*%
X127762000Y-100317000D03*
%TD*%
D19*
%TO.P,C51,1*%
%TO.N,+1V1*%
X113271000Y-125349000D03*
%TO.P,C51,2*%
%TO.N,GND*%
X114821000Y-125349000D03*
%TD*%
D22*
%TO.P,J1,1,Pin_1*%
%TO.N,/FPGA/TDO*%
X89911000Y-99832000D03*
D23*
%TO.P,J1,2,Pin_2*%
%TO.N,+3V3*%
X92451000Y-99832000D03*
%TO.P,J1,3,Pin_3*%
%TO.N,/FPGA/TCK*%
X89911000Y-102372000D03*
%TO.P,J1,4,Pin_4*%
%TO.N,/FPGA/TDI*%
X92451000Y-102372000D03*
%TO.P,J1,5,Pin_5*%
%TO.N,/FPGA/TMS*%
X89911000Y-104912000D03*
%TO.P,J1,6,Pin_6*%
%TO.N,/FPGA/CRESET_N*%
X92451000Y-104912000D03*
%TO.P,J1,7,Pin_7*%
%TO.N,/FPGA/SS*%
X89911000Y-107452000D03*
%TO.P,J1,8,Pin_8*%
%TO.N,GND*%
X92451000Y-107452000D03*
%TD*%
D10*
%TO.P,R24,1*%
%TO.N,Net-(JP1-A)*%
X138557000Y-105155000D03*
%TO.P,R24,2*%
%TO.N,GND*%
X138557000Y-103505000D03*
%TD*%
D19*
%TO.P,C4,1*%
%TO.N,+3V3*%
X123939000Y-95504000D03*
%TO.P,C4,2*%
%TO.N,GND*%
X125489000Y-95504000D03*
%TD*%
D48*
%TO.P,U12,1,DM4*%
%TO.N,/MCU/USB_D-*%
X123888500Y-108899000D03*
%TO.P,U12,2,DP4*%
%TO.N,/MCU/USB_D+*%
X124523500Y-108899000D03*
%TO.P,U12,3,DM3*%
%TO.N,/FTDI/USB_D-*%
X125158500Y-108899000D03*
%TO.P,U12,4,DP3*%
%TO.N,/FTDI/USB_D+*%
X125793500Y-108899000D03*
%TO.P,U12,5,DM2*%
%TO.N,/USB Audio/USB_D-*%
X126428500Y-108899000D03*
%TO.P,U12,6,DP2*%
%TO.N,/USB Audio/USB_D+*%
X127063500Y-108899000D03*
%TO.P,U12,7,DM1*%
%TO.N,/USB Hub/USB_EXT_D-*%
X127698500Y-108899000D03*
%TO.P,U12,8,DP1*%
%TO.N,/USB Hub/USB_EXT_D+*%
X128333500Y-108899000D03*
%TO.P,U12,9,~{RESET}/CDP*%
%TO.N,unconnected-(U12-~{RESET}{slash}CDP-Pad9)*%
X128333500Y-103699000D03*
%TO.P,U12,10,DMU*%
%TO.N,/USB Hub/USBU_D-*%
X127698500Y-103699000D03*
%TO.P,U12,11,DPU*%
%TO.N,/USB Hub/USBU_D+*%
X127063500Y-103699000D03*
%TO.P,U12,12,V5*%
%TO.N,+5V*%
X126428500Y-103699000D03*
%TO.P,U12,13,VDD33*%
%TO.N,Net-(U12-VDD33)*%
X125793500Y-103699000D03*
%TO.P,U12,14,GND*%
%TO.N,GND*%
X125158500Y-103699000D03*
%TO.P,U12,15,XO*%
%TO.N,Net-(U12-XO)*%
X124523500Y-103699000D03*
%TO.P,U12,16,XI*%
%TO.N,Net-(U12-XI)*%
X123888500Y-103699000D03*
%TD*%
D24*
%TO.P,C27,1*%
%TO.N,+3V3*%
X116020800Y-97573200D03*
%TO.P,C27,2*%
%TO.N,GND*%
X114470800Y-97573200D03*
%TD*%
D49*
%TO.P,U2,1,VIN*%
%TO.N,+3V3*%
X100462000Y-75051500D03*
%TO.P,U2,2,GND*%
%TO.N,GND*%
X101412000Y-75051500D03*
%TO.P,U2,3,EN*%
%TO.N,+3V3*%
X102362000Y-75051500D03*
%TO.P,U2,4,NC*%
%TO.N,unconnected-(U2-NC-Pad4)*%
X102362000Y-72776500D03*
%TO.P,U2,5,VOUT*%
%TO.N,+1V2*%
X100462000Y-72776500D03*
%TD*%
D10*
%TO.P,FB3,1*%
%TO.N,+3V3*%
X102870000Y-102425000D03*
%TO.P,FB3,2*%
%TO.N,Net-(U8-VPLL)*%
X102870000Y-100775000D03*
%TD*%
D28*
%TO.P,U4,1,A->B*%
%TO.N,+5V*%
X101215000Y-68267500D03*
%TO.P,U4,2,A0*%
%TO.N,/FPGA/R1*%
X101865000Y-68267500D03*
%TO.P,U4,3,A1*%
%TO.N,/FPGA/G1*%
X102515000Y-68267500D03*
%TO.P,U4,4,A2*%
%TO.N,/FPGA/B1*%
X103165000Y-68267500D03*
%TO.P,U4,5,A3*%
%TO.N,/FPGA/B2*%
X103815000Y-68267500D03*
%TO.P,U4,6,A4*%
%TO.N,/FPGA/G2*%
X104465000Y-68267500D03*
%TO.P,U4,7,A5*%
%TO.N,/FPGA/R2*%
X105115000Y-68267500D03*
%TO.P,U4,8,A6*%
%TO.N,/FPGA/STRIP1*%
X105765000Y-68267500D03*
%TO.P,U4,9,A7*%
%TO.N,/FPGA/STRIP2*%
X106415000Y-68267500D03*
%TO.P,U4,10,GND*%
%TO.N,GND*%
X107065000Y-68267500D03*
%TO.P,U4,11,B7*%
%TO.N,/Level Shifters/LED2_out*%
X107065000Y-62542500D03*
%TO.P,U4,12,B6*%
%TO.N,/Level Shifters/LED1_out*%
X106415000Y-62542500D03*
%TO.P,U4,13,B5*%
%TO.N,/Level Shifters/R2_out*%
X105765000Y-62542500D03*
%TO.P,U4,14,B4*%
%TO.N,/Level Shifters/G2_out*%
X105115000Y-62542500D03*
%TO.P,U4,15,B3*%
%TO.N,/Level Shifters/B2_out*%
X104465000Y-62542500D03*
%TO.P,U4,16,B2*%
%TO.N,/Level Shifters/B1_out*%
X103815000Y-62542500D03*
%TO.P,U4,17,B1*%
%TO.N,/Level Shifters/G1_out*%
X103165000Y-62542500D03*
%TO.P,U4,18,B0*%
%TO.N,/Level Shifters/R1_out*%
X102515000Y-62542500D03*
%TO.P,U4,19,CE*%
%TO.N,GND*%
X101865000Y-62542500D03*
%TO.P,U4,20,VCC*%
%TO.N,+5V*%
X101215000Y-62542500D03*
%TD*%
D11*
%TO.P,C6,1*%
%TO.N,Net-(U3A-VCCA_BR)*%
X119126000Y-91427000D03*
%TO.P,C6,2*%
%TO.N,GND*%
X119126000Y-92977000D03*
%TD*%
D27*
%TO.P,R15,1*%
%TO.N,+3V3*%
X116070800Y-102653200D03*
%TO.P,R15,2*%
%TO.N,Net-(U7-DI)*%
X114420800Y-102653200D03*
%TD*%
D16*
%TO.P,C24,1*%
%TO.N,GND*%
X99695000Y-63640000D03*
%TO.P,C24,2*%
%TO.N,+5V*%
X99695000Y-62090000D03*
%TD*%
D20*
%TO.P,J2,1,Pin_1*%
%TO.N,/Level Shifters/B1_out*%
X92075000Y-62230000D03*
D21*
%TO.P,J2,2,Pin_2*%
%TO.N,/Level Shifters/G1_out*%
X94615000Y-62230000D03*
%TO.P,J2,3,Pin_3*%
%TO.N,/Level Shifters/R1_out*%
X92075000Y-64770000D03*
%TO.P,J2,4,Pin_4*%
%TO.N,GND*%
X94615000Y-64770000D03*
%TO.P,J2,5,Pin_5*%
%TO.N,/Level Shifters/B2_out*%
X92075000Y-67310000D03*
%TO.P,J2,6,Pin_6*%
%TO.N,/Level Shifters/G2_out*%
X94615000Y-67310000D03*
%TO.P,J2,7,Pin_7*%
%TO.N,/Level Shifters/R2_out*%
X92075000Y-69850000D03*
%TO.P,J2,8,Pin_8*%
%TO.N,GND*%
X94615000Y-69850000D03*
%TO.P,J2,9,Pin_9*%
%TO.N,/Level Shifters/A_RCLK_out*%
X92075000Y-72390000D03*
%TO.P,J2,10,Pin_10*%
%TO.N,/Level Shifters/B_out*%
X94615000Y-72390000D03*
%TO.P,J2,11,Pin_11*%
%TO.N,/Level Shifters/C_RDAT_out*%
X92075000Y-74930000D03*
%TO.P,J2,12,Pin_12*%
%TO.N,/Level Shifters/D_out*%
X94615000Y-74930000D03*
%TO.P,J2,13,Pin_13*%
%TO.N,/Level Shifters/CLK_out*%
X92075000Y-77470000D03*
%TO.P,J2,14,Pin_14*%
%TO.N,/Level Shifters/LAT_out*%
X94615000Y-77470000D03*
%TO.P,J2,15,Pin_15*%
%TO.N,/Level Shifters/BLNK_out*%
X92075000Y-80010000D03*
%TO.P,J2,16,Pin_16*%
%TO.N,GND*%
X94615000Y-80010000D03*
%TD*%
D16*
%TO.P,C26,1*%
%TO.N,GND*%
X120015000Y-63640000D03*
%TO.P,C26,2*%
%TO.N,+5V*%
X120015000Y-62090000D03*
%TD*%
%TO.P,C1,1*%
%TO.N,+5V*%
X129540000Y-84468000D03*
%TO.P,C1,2*%
%TO.N,GND*%
X129540000Y-82918000D03*
%TD*%
D10*
%TO.P,R14,1*%
%TO.N,Net-(U7-DI)*%
X111689800Y-100938200D03*
%TO.P,R14,2*%
%TO.N,Net-(U7-DO)*%
X111689800Y-99288200D03*
%TD*%
D24*
%TO.P,C58,1*%
%TO.N,+3V3*%
X111773000Y-125349000D03*
%TO.P,C58,2*%
%TO.N,GND*%
X110223000Y-125349000D03*
%TD*%
D44*
%TO.P,U9,1,DR*%
%TO.N,unconnected-(U9-DR-Pad1)*%
X124631000Y-125828500D03*
%TO.P,U9,2,DW*%
%TO.N,unconnected-(U9-DW-Pad2)*%
X125131000Y-125828500D03*
%TO.P,U9,3,SK*%
%TO.N,unconnected-(U9-SK-Pad3)*%
X125631000Y-125828500D03*
%TO.P,U9,4,CS*%
%TO.N,unconnected-(U9-CS-Pad4)*%
X126131000Y-125828500D03*
%TO.P,U9,5,MUTER*%
%TO.N,Net-(U9-MUTEP)*%
X126631000Y-125828500D03*
%TO.P,U9,6,PWRSEL*%
%TO.N,/USB Audio/3.3VCM*%
X127131000Y-125828500D03*
%TO.P,U9,7,DREG18*%
%TO.N,unconnected-(U9-DREG18-Pad7)*%
X127631000Y-125828500D03*
%TO.P,U9,8,DREG33*%
%TO.N,/USB Audio/3.3VCM*%
X128131000Y-125828500D03*
%TO.P,U9,9,NC*%
%TO.N,unconnected-(U9-NC-Pad9)*%
X128631000Y-125828500D03*
%TO.P,U9,10,MODE*%
%TO.N,GND*%
X129131000Y-125828500D03*
%TO.P,U9,11,LEDO*%
%TO.N,Net-(U9-LEDO)*%
X129631000Y-125828500D03*
%TO.P,U9,12,DVSS*%
%TO.N,GND*%
X130131000Y-125828500D03*
D45*
%TO.P,U9,13,NC*%
%TO.N,unconnected-(U9-NC-Pad13)*%
X131543500Y-124416000D03*
%TO.P,U9,14,NC*%
%TO.N,unconnected-(U9-NC-Pad14)*%
X131543500Y-123916000D03*
%TO.P,U9,15,NC*%
%TO.N,unconnected-(U9-NC-Pad15)*%
X131543500Y-123416000D03*
%TO.P,U9,16,NC*%
%TO.N,unconnected-(U9-NC-Pad16)*%
X131543500Y-122916000D03*
%TO.P,U9,17,MUTEP*%
%TO.N,Net-(U9-MUTEP)*%
X131543500Y-122416000D03*
%TO.P,U9,18,NC*%
%TO.N,unconnected-(U9-NC-Pad18)*%
X131543500Y-121916000D03*
%TO.P,U9,19,LEDR*%
%TO.N,unconnected-(U9-LEDR-Pad19)*%
X131543500Y-121416000D03*
%TO.P,U9,20,TEST*%
%TO.N,GND*%
X131543500Y-120916000D03*
%TO.P,U9,21,NC*%
%TO.N,unconnected-(U9-NC-Pad21)*%
X131543500Y-120416000D03*
%TO.P,U9,22,NC*%
%TO.N,unconnected-(U9-NC-Pad22)*%
X131543500Y-119916000D03*
%TO.P,U9,23,NC*%
%TO.N,unconnected-(U9-NC-Pad23)*%
X131543500Y-119416000D03*
%TO.P,U9,24,NC*%
%TO.N,unconnected-(U9-NC-Pad24)*%
X131543500Y-118916000D03*
D44*
%TO.P,U9,25,AVSS*%
%TO.N,GND*%
X130131000Y-117503500D03*
%TO.P,U9,26,VBIAS*%
%TO.N,Net-(U10-VDD)*%
X129631000Y-117503500D03*
%TO.P,U9,27,VREF*%
%TO.N,Net-(U9-VREF)*%
X129131000Y-117503500D03*
%TO.P,U9,28,MICIN*%
%TO.N,Net-(U9-MICIN)*%
X128631000Y-117503500D03*
%TO.P,U9,29,AVDD*%
%TO.N,Net-(C36-Pad1)*%
X128131000Y-117503500D03*
%TO.P,U9,30,LOL*%
%TO.N,unconnected-(U9-LOL-Pad30)*%
X127631000Y-117503500D03*
%TO.P,U9,31,LOBS*%
%TO.N,unconnected-(U9-LOBS-Pad31)*%
X127131000Y-117503500D03*
%TO.P,U9,32,LOR*%
%TO.N,unconnected-(U9-LOR-Pad32)*%
X126631000Y-117503500D03*
%TO.P,U9,33,AVSS*%
%TO.N,GND*%
X126131000Y-117503500D03*
%TO.P,U9,34,AVDD*%
%TO.N,Net-(C35-Pad1)*%
X125631000Y-117503500D03*
%TO.P,U9,35,DVDD*%
%TO.N,+5V*%
X125131000Y-117503500D03*
%TO.P,U9,36,DVSS*%
%TO.N,GND*%
X124631000Y-117503500D03*
D45*
%TO.P,U9,37,NC*%
%TO.N,unconnected-(U9-NC-Pad37)*%
X123218500Y-118916000D03*
%TO.P,U9,38,NC*%
%TO.N,unconnected-(U9-NC-Pad38)*%
X123218500Y-119416000D03*
%TO.P,U9,39,AREG36*%
%TO.N,unconnected-(U9-AREG36-Pad39)*%
X123218500Y-119916000D03*
%TO.P,U9,40,MSEL*%
%TO.N,GND*%
X123218500Y-120416000D03*
%TO.P,U9,41,VOLUP*%
%TO.N,Net-(U9-MUTEP)*%
X123218500Y-120916000D03*
%TO.P,U9,42,PDSW*%
%TO.N,unconnected-(U9-PDSW-Pad42)*%
X123218500Y-121416000D03*
%TO.P,U9,43,USBDP*%
%TO.N,/USB Audio/USB_D+*%
X123218500Y-121916000D03*
%TO.P,U9,44,USBDM*%
%TO.N,/USB Audio/USB_D-*%
X123218500Y-122416000D03*
%TO.P,U9,45,NC*%
%TO.N,unconnected-(U9-NC-Pad45)*%
X123218500Y-122916000D03*
%TO.P,U9,46,NC*%
%TO.N,unconnected-(U9-NC-Pad46)*%
X123218500Y-123416000D03*
%TO.P,U9,47,VOLDN*%
%TO.N,Net-(U9-MUTEP)*%
X123218500Y-123916000D03*
%TO.P,U9,48,NC*%
%TO.N,unconnected-(U9-NC-Pad48)*%
X123218500Y-124416000D03*
%TD*%
D16*
%TO.P,C52,1*%
%TO.N,+1V1*%
X112014000Y-112929000D03*
%TO.P,C52,2*%
%TO.N,GND*%
X112014000Y-111379000D03*
%TD*%
D10*
%TO.P,FB1,1*%
%TO.N,+1V2*%
X122174000Y-93027000D03*
%TO.P,FB1,2*%
%TO.N,Net-(U3A-VCCA_BR)*%
X122174000Y-91377000D03*
%TD*%
D11*
%TO.P,C31,1*%
%TO.N,Net-(U8-VPLL)*%
X101346000Y-100825000D03*
%TO.P,C31,2*%
%TO.N,GND*%
X101346000Y-102375000D03*
%TD*%
D16*
%TO.P,C47,1*%
%TO.N,Net-(U12-VDD33)*%
X125984000Y-101867000D03*
%TO.P,C47,2*%
%TO.N,GND*%
X125984000Y-100317000D03*
%TD*%
D17*
%TO.P,U11,1,I/O1*%
%TO.N,/USB Hub/USBU_D-*%
X130737250Y-96332000D03*
%TO.P,U11,2,GND*%
%TO.N,GND*%
X130737250Y-97282000D03*
%TO.P,U11,3,I/O2*%
%TO.N,/USB Hub/USBU_D+*%
X130737250Y-98232000D03*
%TO.P,U11,4,I/O2*%
%TO.N,/USB Hub/RAW_D+*%
X133012250Y-98232000D03*
%TO.P,U11,5,VBUS*%
%TO.N,+5V*%
X133012250Y-97282000D03*
%TO.P,U11,6,I/O1*%
%TO.N,/USB Hub/RAW_D-*%
X133012250Y-96332000D03*
%TD*%
D11*
%TO.P,C50,1*%
%TO.N,+3V3*%
X121412000Y-105270000D03*
%TO.P,C50,2*%
%TO.N,GND*%
X121412000Y-106820000D03*
%TD*%
D24*
%TO.P,C34,1*%
%TO.N,+3V3*%
X93739000Y-97028000D03*
%TO.P,C34,2*%
%TO.N,GND*%
X92189000Y-97028000D03*
%TD*%
D15*
%TO.P,R17,1*%
%TO.N,Net-(U8-REF)*%
X98298000Y-100775000D03*
%TO.P,R17,2*%
%TO.N,GND*%
X98298000Y-102425000D03*
%TD*%
D24*
%TO.P,C9,1*%
%TO.N,+3V3*%
X104661000Y-84328000D03*
%TO.P,C9,2*%
%TO.N,GND*%
X103111000Y-84328000D03*
%TD*%
D15*
%TO.P,FB4,1*%
%TO.N,+5V*%
X122567000Y-113884500D03*
%TO.P,FB4,2*%
%TO.N,Net-(C35-Pad1)*%
X122567000Y-115534500D03*
%TD*%
D22*
%TO.P,J14,1,Pin_1*%
%TO.N,+5V*%
X103124000Y-122095500D03*
D23*
%TO.P,J14,2,Pin_2*%
%TO.N,Net-(J14-Pin_2)*%
X103124000Y-119555500D03*
%TD*%
D50*
%TO.N,GND*%
X114554000Y-111190000D03*
X131191000Y-82931000D03*
X102616000Y-92456000D03*
X107950000Y-68326000D03*
X105664000Y-108585000D03*
X122936000Y-97536000D03*
X98552000Y-63500000D03*
X120650000Y-72263000D03*
X132128750Y-94996000D03*
X122133400Y-60960000D03*
X114681000Y-75819000D03*
X108577734Y-115389400D03*
X129032000Y-124206000D03*
X108839000Y-124411000D03*
X125476000Y-94234000D03*
X132715000Y-113157000D03*
X101727000Y-108585000D03*
X110112351Y-94287898D03*
X108458000Y-70612000D03*
X126746000Y-99060000D03*
X126365000Y-119126000D03*
X128778000Y-93218000D03*
X99060000Y-91948000D03*
X114173000Y-109093000D03*
X118110000Y-68605000D03*
X101854000Y-81533994D03*
X119481638Y-113015320D03*
X117602000Y-75565000D03*
X90551000Y-122809000D03*
X118491000Y-70866000D03*
X112679144Y-94137144D03*
X122555000Y-106045000D03*
X90932000Y-91694000D03*
X109902000Y-88138000D03*
X97536000Y-104140000D03*
X131826000Y-118066000D03*
X110276299Y-103759000D03*
X111699600Y-70231000D03*
X97409000Y-94193600D03*
X105029000Y-100457000D03*
X127000000Y-79756000D03*
X106934000Y-122047000D03*
X106637500Y-75141500D03*
X111252000Y-119761000D03*
X113284000Y-117729000D03*
X121920000Y-102870000D03*
D51*
X131699000Y-101219000D03*
D50*
X108204000Y-63119000D03*
X99884452Y-97088358D03*
X90551000Y-114808000D03*
X94742000Y-99568000D03*
X130273978Y-120789157D03*
X124079000Y-112522000D03*
D51*
X124841000Y-104902000D03*
D50*
X103124000Y-77470000D03*
X115570000Y-94742000D03*
X119220934Y-83058000D03*
X121285000Y-115951000D03*
X109728000Y-75946000D03*
X92583000Y-123952000D03*
X92583000Y-115951000D03*
X114962422Y-88292423D03*
X111252000Y-117729000D03*
X112014000Y-60960000D03*
X113284000Y-119761000D03*
X104140000Y-102997000D03*
X129667000Y-66548000D03*
X118351080Y-62768147D03*
X115824000Y-126238000D03*
X97790000Y-116332000D03*
X101727000Y-116332000D03*
D51*
%TO.N,+5V*%
X137418500Y-98679000D03*
D50*
X118745000Y-61849000D03*
D51*
X136021500Y-99187000D03*
X137418500Y-95885000D03*
D50*
X126873000Y-112649000D03*
D51*
X138053500Y-95377000D03*
D50*
X96774000Y-69342000D03*
D51*
X138053500Y-99187000D03*
X136783500Y-99187000D03*
X135259500Y-95377000D03*
X131861750Y-99441000D03*
D50*
X121539000Y-113919000D03*
X131445000Y-86106000D03*
D51*
X138815500Y-99187000D03*
X139577500Y-95377000D03*
D50*
X126746000Y-105664000D03*
D51*
X138815500Y-95377000D03*
X136021500Y-95377000D03*
D50*
X108712000Y-62230000D03*
X98568222Y-62246222D03*
X122555000Y-118110000D03*
D51*
X139577500Y-99187000D03*
X135259500Y-99187000D03*
X136783500Y-95377000D03*
D50*
X131445000Y-84582000D03*
%TO.N,/FPGA/CLK_12MHZ*%
X111760000Y-123317000D03*
X97409000Y-97282000D03*
X111058400Y-81594400D03*
%TO.N,+3V3*%
X117983000Y-119634000D03*
X118491000Y-102870000D03*
X117856000Y-105537000D03*
X103665200Y-72225467D03*
X116078000Y-114492000D03*
X100076000Y-78486000D03*
X110490000Y-77216000D03*
X98044000Y-106934000D03*
X113538000Y-87630000D03*
X125477398Y-105538398D03*
X106934000Y-121046997D03*
X120396000Y-78116600D03*
X112649000Y-123825000D03*
X118618000Y-75692000D03*
X98171000Y-86233000D03*
X106934000Y-93218000D03*
X103632000Y-89916000D03*
X129540000Y-79502000D03*
X94107000Y-125222000D03*
X116078000Y-111252000D03*
X101346000Y-97282000D03*
X125984000Y-90932000D03*
X108722116Y-71624628D03*
X105918000Y-113919000D03*
X128270000Y-90932000D03*
X128143000Y-86868000D03*
X94107000Y-117221000D03*
%TO.N,/FPGA/TCK*%
X109026400Y-80904494D03*
%TO.N,+1V2*%
X117856000Y-87884000D03*
X120396000Y-76200000D03*
X116501600Y-71653184D03*
X118618000Y-81534000D03*
X111252000Y-87630000D03*
X113030000Y-82042000D03*
X99060000Y-76200000D03*
X113030000Y-76962000D03*
%TO.N,/Level Shifters/BLNK_out*%
X117475000Y-66929000D03*
%TO.N,/Level Shifters/LAT_out*%
X116586000Y-66421000D03*
%TO.N,/Level Shifters/CLK_out*%
X115697000Y-65913000D03*
%TO.N,/FPGA/G3*%
X118872000Y-78116600D03*
X125394193Y-69871407D03*
%TO.N,/FPGA/B3*%
X126117200Y-70739000D03*
X118872000Y-79375000D03*
%TO.N,/FPGA/R3*%
X126818800Y-71510300D03*
X119428000Y-80454000D03*
%TO.N,/FPGA/SS*%
X108204000Y-78486000D03*
X103892718Y-88142931D03*
%TO.N,/FPGA/TMS*%
X109474000Y-82997600D03*
%TO.N,/FPGA/TDI*%
X108966000Y-83950000D03*
%TO.N,/FPGA/TDO*%
X108649709Y-79923923D03*
%TO.N,/FPGA/CRESET_N*%
X108446710Y-86542700D03*
D51*
%TO.N,/USB Hub/RAW_D-*%
X137037500Y-96647000D03*
X137672500Y-97917000D03*
D50*
%TO.N,/MCU/SCL1*%
X96647000Y-123952000D03*
X92710000Y-118618000D03*
%TO.N,/MCU/5VSW_1*%
X100076000Y-113411000D03*
X106822992Y-119268992D03*
%TO.N,/MCU/5VSW_2*%
X104013000Y-113411000D03*
X106062418Y-120174390D03*
D51*
%TO.N,Net-(J10-CC2)*%
X133985000Y-95123000D03*
X140208000Y-96520000D03*
D50*
%TO.N,Net-(U10-VDD)*%
X109220000Y-101727000D03*
X129667000Y-118872000D03*
%TO.N,Net-(U9-MICIN)*%
X128651000Y-118872000D03*
X108712000Y-100711000D03*
%TO.N,Net-(U3B-GPIOL_08_CDI0)*%
X108511720Y-85490705D03*
X94072346Y-95959222D03*
%TO.N,Net-(U3B-GPIOL_09_CDI1)*%
X104140000Y-77470000D03*
X111680000Y-84582000D03*
%TO.N,Net-(U3C-GPIOR_149_CBUS2)*%
X126111000Y-75438000D03*
X120627334Y-83567741D03*
%TO.N,Net-(U3C-GPIOR_150_CBUS1)*%
X120592300Y-84836000D03*
X127508000Y-72390000D03*
%TO.N,Net-(U3C-GPIOR_151_CBUS0)*%
X126131146Y-76835849D03*
X123450097Y-84108636D03*
%TO.N,Net-(U3C-GPIOR_158_TEST_N)*%
X123444000Y-87122000D03*
X126111000Y-78232000D03*
%TO.N,Net-(U7-CS)*%
X98425000Y-96647000D03*
D51*
X118745000Y-99187000D03*
%TO.N,Net-(U7-CLK)*%
X119593577Y-98546492D03*
D50*
X99314000Y-95885000D03*
%TO.N,/MCU/GPIO0*%
X105918000Y-115316000D03*
%TO.N,/MCU/GPIO1*%
X105918000Y-116332000D03*
%TO.N,/MCU/GPIO2*%
X105029000Y-116840000D03*
%TO.N,/MCU/GPIO3*%
X104521000Y-117729000D03*
%TO.N,/MCU/GPIO4*%
X105333766Y-118477747D03*
%TO.N,/MCU/GPIO5*%
X105221000Y-119634000D03*
%TO.N,/MCU/GPIO26*%
X116967000Y-118999000D03*
%TO.N,/MCU/GPIO27*%
X117983000Y-118237000D03*
%TO.N,/Level Shifters/A_RCLK_out*%
X112141000Y-63881000D03*
%TO.N,/Level Shifters/B_out*%
X113030000Y-64389000D03*
%TO.N,/Level Shifters/C_RDAT_out*%
X113925989Y-64897000D03*
%TO.N,/Level Shifters/D_out*%
X114808000Y-65405000D03*
%TO.N,Net-(JP1-A)*%
X116332000Y-83566000D03*
%TO.N,Net-(U3B-GPIOL_69_CBSEL1)*%
X135382000Y-105155000D03*
X115062000Y-83566000D03*
%TD*%
D52*
%TO.N,GND*%
X105830000Y-104862000D02*
X107530000Y-104862000D01*
X126131000Y-118344000D02*
X126131000Y-117503500D01*
X132715000Y-113157000D02*
X132488500Y-113157000D01*
X113300000Y-74252500D02*
X113300000Y-75024672D01*
X93457000Y-108458000D02*
X92451000Y-107452000D01*
X107065000Y-68267500D02*
X107891500Y-68267500D01*
X95237000Y-108458000D02*
X93457000Y-108458000D01*
X118110000Y-68605000D02*
X117772500Y-68267500D01*
X129397928Y-124789400D02*
X129864072Y-124789400D01*
D53*
X127762000Y-84315000D02*
X127762000Y-83865000D01*
D52*
X133939500Y-101994000D02*
X133989500Y-102044000D01*
X124973328Y-118618000D02*
X125857000Y-118618000D01*
X126131000Y-118892000D02*
X126365000Y-119126000D01*
D54*
X106934000Y-122047000D02*
X106019000Y-122962000D01*
D52*
X122389000Y-99314000D02*
X122389000Y-98083000D01*
X117800000Y-75367000D02*
X117800000Y-74252500D01*
X95659500Y-97492000D02*
X94742000Y-98409500D01*
X125489000Y-79756000D02*
X125489000Y-82817000D01*
X109800000Y-75874000D02*
X109728000Y-75946000D01*
X108458000Y-70612000D02*
X109487000Y-70612000D01*
X99615970Y-97088358D02*
X98572000Y-98132328D01*
X121913641Y-82866141D02*
X119412793Y-82866141D01*
D54*
X109474000Y-125349000D02*
X110223000Y-125349000D01*
D52*
X102963600Y-71642600D02*
X102963600Y-76185400D01*
X100995000Y-107853000D02*
X101727000Y-108585000D01*
X97572000Y-90579500D02*
X97072000Y-90579500D01*
X98298000Y-103378000D02*
X97536000Y-104140000D01*
D53*
X92130000Y-115498000D02*
X92130000Y-114911000D01*
D52*
X129131000Y-124305000D02*
X129032000Y-124206000D01*
X121920000Y-102870000D02*
X120689000Y-101639000D01*
X128663000Y-113934500D02*
X128011400Y-114586100D01*
X114470800Y-95841200D02*
X114470800Y-97573200D01*
X124631000Y-117503500D02*
X124631000Y-118275672D01*
X102107994Y-81280000D02*
X101854000Y-81533994D01*
X99884452Y-97088358D02*
X100028030Y-97088358D01*
X124091000Y-113934500D02*
X125615000Y-113934500D01*
X106396000Y-107853000D02*
X105664000Y-108585000D01*
X118478000Y-70853000D02*
X117348000Y-70853000D01*
X123990672Y-120416000D02*
X123218500Y-120416000D01*
X115570000Y-94742000D02*
X114470800Y-95841200D01*
X124712400Y-78979400D02*
X125489000Y-79756000D01*
X97409000Y-94193600D02*
X97110600Y-94492000D01*
X98298000Y-102425000D02*
X98298000Y-103378000D01*
X118491000Y-70866000D02*
X118478000Y-70853000D01*
X121412000Y-106820000D02*
X121780000Y-106820000D01*
D53*
X127762000Y-83865000D02*
X128709000Y-82918000D01*
X128709000Y-82918000D02*
X129540000Y-82918000D01*
D52*
X112776000Y-92977000D02*
X112776000Y-94040288D01*
X119412793Y-82866141D02*
X119220934Y-83058000D01*
X120637000Y-92964000D02*
X120650000Y-92977000D01*
X132488500Y-113157000D02*
X131711000Y-113934500D01*
X100759000Y-107853000D02*
X100995000Y-107853000D01*
X92189000Y-91694000D02*
X90932000Y-91694000D01*
D53*
X126323200Y-84315000D02*
X126219200Y-84419000D01*
D52*
X112321600Y-70853000D02*
X113030000Y-70853000D01*
X129131000Y-125828500D02*
X129131000Y-124305000D01*
X108204000Y-63119000D02*
X108725000Y-63640000D01*
X102174000Y-115885000D02*
X102174000Y-114803000D01*
X102187000Y-76962000D02*
X101412000Y-76187000D01*
X120689000Y-101639000D02*
X120689000Y-101514000D01*
X103111000Y-84328000D02*
X103111000Y-82804000D01*
D53*
X92130000Y-123499000D02*
X92130000Y-122912000D01*
D54*
X111268000Y-119745000D02*
X112268000Y-118745000D01*
D52*
X101865000Y-63279999D02*
X101504999Y-63640000D01*
X98168328Y-91948000D02*
X99060000Y-91948000D01*
X124460000Y-100317000D02*
X127762000Y-100317000D01*
D54*
X114365000Y-111379000D02*
X114554000Y-111190000D01*
D52*
X111699600Y-70231000D02*
X112321600Y-70853000D01*
X103984500Y-92492000D02*
X102652000Y-92492000D01*
X127762000Y-100076000D02*
X126746000Y-99060000D01*
X129864072Y-124789400D02*
X130131000Y-125056328D01*
X109800000Y-74252500D02*
X109800000Y-75024672D01*
X108892000Y-104862000D02*
X109347000Y-104407000D01*
X114800000Y-88454845D02*
X114800000Y-89577500D01*
X121792000Y-116458000D02*
X121792000Y-116995500D01*
D53*
X92583000Y-115951000D02*
X92130000Y-115498000D01*
X129540000Y-82918000D02*
X131178000Y-82918000D01*
D52*
X109487000Y-70612000D02*
X109728000Y-70853000D01*
X110276299Y-103759000D02*
X109628299Y-104407000D01*
X102616000Y-76962000D02*
X103124000Y-77470000D01*
D53*
X91663181Y-122912000D02*
X92130000Y-122912000D01*
D52*
X103111000Y-82804000D02*
X103111000Y-81280000D01*
D54*
X118758000Y-119752500D02*
X118758000Y-116840000D01*
D53*
X130658000Y-93232000D02*
X128792000Y-93232000D01*
D52*
X128011400Y-114586100D02*
X126266600Y-114586100D01*
X108725000Y-63640000D02*
X109855000Y-63640000D01*
X131711000Y-113934500D02*
X128663000Y-113934500D01*
X110490000Y-93910249D02*
X110112351Y-94287898D01*
X101727000Y-116332000D02*
X102174000Y-115885000D01*
X102187000Y-76962000D02*
X102616000Y-76962000D01*
X99695000Y-63640000D02*
X98692000Y-63640000D01*
D53*
X125489000Y-94247000D02*
X125476000Y-94234000D01*
D52*
X96774000Y-102375000D02*
X98248000Y-102375000D01*
X125158500Y-104584500D02*
X125158500Y-103699000D01*
X101865000Y-62542500D02*
X101865000Y-63279999D01*
X114262800Y-100113200D02*
X114581000Y-99795000D01*
D54*
X118758000Y-113792000D02*
X118758000Y-113738958D01*
X112351000Y-109347000D02*
X113919000Y-109347000D01*
X111268000Y-119777000D02*
X111252000Y-119761000D01*
D52*
X130273978Y-120789157D02*
X130644485Y-120789157D01*
X131874750Y-95250000D02*
X132128750Y-94996000D01*
X130299500Y-117672000D02*
X131432000Y-117672000D01*
X130771328Y-120916000D02*
X131543500Y-120916000D01*
X120650000Y-72263000D02*
X121653000Y-72263000D01*
D54*
X115710000Y-126238000D02*
X114821000Y-125349000D01*
X106019000Y-122962000D02*
X105918000Y-122962000D01*
D52*
X135226500Y-102044000D02*
X135988500Y-101282000D01*
X129131000Y-125828500D02*
X129131000Y-125056328D01*
X117602000Y-75565000D02*
X117800000Y-75367000D01*
D54*
X111268000Y-122182500D02*
X111268000Y-119777000D01*
D52*
X129131000Y-125056328D02*
X129397928Y-124789400D01*
D54*
X112014000Y-111379000D02*
X113538000Y-111379000D01*
D52*
X112025000Y-60971000D02*
X112014000Y-60960000D01*
X129667000Y-66548000D02*
X129104500Y-66548000D01*
X131399749Y-97282000D02*
X131874750Y-96806999D01*
X129104500Y-66548000D02*
X127385000Y-68267500D01*
X97572000Y-90579500D02*
X97572000Y-91351672D01*
X112025000Y-62542500D02*
X112025000Y-60971000D01*
X106185000Y-90678000D02*
X106185000Y-91153000D01*
X122389000Y-99314000D02*
X123457000Y-99314000D01*
X122185000Y-62542500D02*
X122185000Y-61011600D01*
D53*
X90551000Y-122809000D02*
X91560181Y-122809000D01*
D52*
X127762000Y-100317000D02*
X127762000Y-100076000D01*
X114581000Y-99795000D02*
X114581000Y-97683400D01*
X124631000Y-118275672D02*
X124973328Y-118618000D01*
X101504999Y-63640000D02*
X99695000Y-63640000D01*
X101412000Y-76187000D02*
X101412000Y-75051500D01*
D54*
X139598500Y-124714000D02*
X139598500Y-122588500D01*
D52*
X135226500Y-92520000D02*
X135988500Y-93282000D01*
X113600300Y-100113200D02*
X114262800Y-100113200D01*
X121653000Y-72263000D02*
X121793000Y-72123000D01*
X113300000Y-75024672D02*
X114094328Y-75819000D01*
X117772500Y-68267500D02*
X117225000Y-68267500D01*
X102072000Y-98904500D02*
X101072000Y-98904500D01*
X122185000Y-61011600D02*
X122133400Y-60960000D01*
X126131000Y-117503500D02*
X126131000Y-118892000D01*
X92189000Y-93218000D02*
X92189000Y-91694000D01*
X109300000Y-88740000D02*
X109300000Y-89577500D01*
D54*
X113919000Y-109347000D02*
X114173000Y-109093000D01*
D52*
X100028030Y-97088358D02*
X101072000Y-98132328D01*
X94742000Y-98409500D02*
X94742000Y-99568000D01*
X101072000Y-98132328D02*
X101072000Y-98904500D01*
X132461000Y-101994000D02*
X132461000Y-101981000D01*
X105423000Y-100063000D02*
X105423000Y-99314000D01*
D54*
X113538000Y-111379000D02*
X114365000Y-111379000D01*
D52*
X92840600Y-96376400D02*
X92840600Y-93869600D01*
X99884452Y-97088358D02*
X99615970Y-97088358D01*
X114581000Y-97683400D02*
X114470800Y-97573200D01*
X116078000Y-92964000D02*
X120637000Y-92964000D01*
D53*
X92583000Y-123952000D02*
X92130000Y-123499000D01*
D52*
X104010400Y-103126600D02*
X102097600Y-103126600D01*
X123392262Y-78415000D02*
X123956662Y-78979400D01*
X98237000Y-115885000D02*
X97790000Y-116332000D01*
X102097600Y-103126600D02*
X101346000Y-102375000D01*
X92840600Y-93869600D02*
X92189000Y-93218000D01*
X116575000Y-68267500D02*
X117225000Y-68267500D01*
X125857000Y-118618000D02*
X126131000Y-118344000D01*
X114094328Y-75819000D02*
X114681000Y-75819000D01*
X130131000Y-117503500D02*
X130299500Y-117672000D01*
D53*
X91560181Y-122809000D02*
X91663181Y-122912000D01*
D52*
X104846000Y-92492000D02*
X103984500Y-92492000D01*
D53*
X125489000Y-95504000D02*
X125489000Y-94247000D01*
D52*
X105029000Y-100457000D02*
X105423000Y-100063000D01*
X118351080Y-62768147D02*
X119222933Y-63640000D01*
D53*
X131178000Y-82918000D02*
X131191000Y-82931000D01*
D52*
X109800000Y-74252500D02*
X109800000Y-75874000D01*
X121962500Y-78415000D02*
X123392262Y-78415000D01*
X92189000Y-97028000D02*
X92840600Y-96376400D01*
X108839000Y-124714000D02*
X108839000Y-124411000D01*
X130737250Y-97282000D02*
X131399749Y-97282000D01*
X107530000Y-104862000D02*
X108892000Y-104862000D01*
D54*
X108577734Y-114914734D02*
X108577734Y-115389400D01*
D52*
X126238000Y-84382000D02*
X126201000Y-84419000D01*
X132461000Y-101994000D02*
X133939500Y-101994000D01*
X127866000Y-84419000D02*
X128016000Y-84569000D01*
X133989500Y-102044000D02*
X135226500Y-102044000D01*
X109902000Y-88138000D02*
X109300000Y-88740000D01*
X109474000Y-125349000D02*
X108839000Y-124714000D01*
X98237000Y-114759500D02*
X98237000Y-115885000D01*
X112776000Y-94040288D02*
X112679144Y-94137144D01*
X106637500Y-75141500D02*
X106637500Y-75915000D01*
D53*
X127762000Y-84315000D02*
X126323200Y-84315000D01*
D52*
X121793000Y-72123000D02*
X123317000Y-72123000D01*
X95659500Y-93992000D02*
X95659500Y-94492000D01*
X133989500Y-92520000D02*
X135226500Y-92520000D01*
X125489000Y-79756000D02*
X127000000Y-79756000D01*
X121285000Y-115951000D02*
X121792000Y-116458000D01*
D53*
X91560181Y-114808000D02*
X91663181Y-114911000D01*
D52*
X90575000Y-122785000D02*
X90551000Y-122809000D01*
D54*
X111252000Y-119761000D02*
X111268000Y-119745000D01*
D52*
X106759000Y-107853000D02*
X106396000Y-107853000D01*
X104140000Y-102997000D02*
X104010400Y-103126600D01*
X126266600Y-114586100D02*
X125615000Y-113934500D01*
X98572000Y-98132328D02*
X98572000Y-98904500D01*
D54*
X118758000Y-113792000D02*
X118758000Y-116840000D01*
D52*
X132461000Y-101981000D02*
X131699000Y-101219000D01*
X124631000Y-119775672D02*
X123990672Y-120416000D01*
X130131000Y-125056328D02*
X130131000Y-125828500D01*
X122389000Y-98083000D02*
X122936000Y-97536000D01*
X102187000Y-70866000D02*
X102963600Y-71642600D01*
X103984500Y-92992000D02*
X103984500Y-92492000D01*
D53*
X131826000Y-118066000D02*
X131432000Y-117672000D01*
D54*
X115824000Y-126238000D02*
X115710000Y-126238000D01*
D52*
X121780000Y-106820000D02*
X122555000Y-106045000D01*
X126238000Y-83566000D02*
X126238000Y-84382000D01*
X103111000Y-81305431D02*
X103111000Y-81280000D01*
X102963600Y-76185400D02*
X102187000Y-76962000D01*
X131874750Y-96806999D02*
X131874750Y-95250000D01*
X125489000Y-82817000D02*
X126238000Y-83566000D01*
X138557000Y-103505000D02*
X138557000Y-101573500D01*
X116078000Y-92964000D02*
X116078000Y-94234000D01*
X90575000Y-114784000D02*
X90551000Y-114808000D01*
D53*
X90551000Y-114808000D02*
X91560181Y-114808000D01*
D54*
X139598500Y-122588500D02*
X138515000Y-121505000D01*
D52*
X95659500Y-96992000D02*
X95659500Y-97492000D01*
X109628299Y-104407000D02*
X109347000Y-104407000D01*
X98248000Y-102375000D02*
X98298000Y-102425000D01*
X124091000Y-112534000D02*
X124091000Y-113934500D01*
X97572000Y-91351672D02*
X98168328Y-91948000D01*
X138557000Y-101573500D02*
X138848500Y-101282000D01*
X106185000Y-91153000D02*
X104846000Y-92492000D01*
X107891500Y-68267500D02*
X107950000Y-68326000D01*
X130644485Y-120789157D02*
X130771328Y-120916000D01*
X124631000Y-117503500D02*
X124631000Y-119775672D01*
X97110600Y-94492000D02*
X95659500Y-94492000D01*
D54*
X107315000Y-113652000D02*
X108577734Y-114914734D01*
D52*
X121962500Y-82915000D02*
X121913641Y-82866141D01*
D53*
X91663181Y-114911000D02*
X92130000Y-114911000D01*
D52*
X110490000Y-92977000D02*
X110490000Y-93910249D01*
X114962422Y-88292423D02*
X114800000Y-88454845D01*
X124079000Y-112522000D02*
X124091000Y-112534000D01*
D53*
X131432000Y-117672000D02*
X131432000Y-117094000D01*
D54*
X118758000Y-113738958D02*
X119481638Y-113015320D01*
D52*
X118758000Y-120650000D02*
X118758000Y-119752500D01*
X116078000Y-94234000D02*
X115570000Y-94742000D01*
X123956662Y-78979400D02*
X124712400Y-78979400D01*
X102652000Y-92492000D02*
X102616000Y-92456000D01*
X98692000Y-63640000D02*
X98552000Y-63500000D01*
X103111000Y-81280000D02*
X102107994Y-81280000D01*
X119222933Y-63640000D02*
X120015000Y-63640000D01*
D53*
X128792000Y-93232000D02*
X128778000Y-93218000D01*
D52*
X124841000Y-104902000D02*
X125158500Y-104584500D01*
X137033000Y-103505000D02*
X138557000Y-103505000D01*
X123457000Y-99314000D02*
X124460000Y-100317000D01*
%TO.N,+5V*%
X125131000Y-117503500D02*
X125131000Y-116731328D01*
X126428500Y-105346500D02*
X126428500Y-103699000D01*
X131861750Y-97770000D02*
X132349750Y-97282000D01*
X123832600Y-116464400D02*
X123330000Y-116967000D01*
X123330000Y-116967000D02*
X123330000Y-117335000D01*
X132461000Y-100040250D02*
X131861750Y-99441000D01*
X121573500Y-113884500D02*
X122567000Y-113884500D01*
X132349750Y-97282000D02*
X133012250Y-97282000D01*
X100140500Y-69342000D02*
X96774000Y-69342000D01*
D55*
X131445000Y-84582000D02*
X131331000Y-84468000D01*
D52*
X120015000Y-62090000D02*
X121082500Y-62090000D01*
X110922500Y-62090000D02*
X111375000Y-62542500D01*
X111375000Y-68267500D02*
X111375000Y-62542500D01*
X123330000Y-117335000D02*
X122555000Y-118110000D01*
X124864072Y-116464400D02*
X123832600Y-116464400D01*
X127287000Y-101867000D02*
X126428500Y-102725500D01*
X126746000Y-105664000D02*
X126428500Y-105346500D01*
D55*
X134437000Y-118435000D02*
X135805000Y-118435000D01*
X131331000Y-84468000D02*
X129540000Y-84468000D01*
D52*
X121082500Y-62090000D02*
X121535000Y-62542500D01*
X127762000Y-101867000D02*
X127287000Y-101867000D01*
X101215000Y-68267500D02*
X100140500Y-69342000D01*
X118986000Y-62090000D02*
X120015000Y-62090000D01*
D55*
X131445000Y-86106000D02*
X131445000Y-87845000D01*
X132982000Y-117094000D02*
X133096000Y-117094000D01*
D52*
X108852000Y-62090000D02*
X108712000Y-62230000D01*
X126428500Y-102725500D02*
X126428500Y-103699000D01*
X98724444Y-62090000D02*
X98568222Y-62246222D01*
X118745000Y-61849000D02*
X118986000Y-62090000D01*
X121535000Y-68267500D02*
X121535000Y-62542500D01*
X99695000Y-62090000D02*
X100762500Y-62090000D01*
X132461000Y-100444000D02*
X132461000Y-100040250D01*
D55*
X133096000Y-117094000D02*
X134437000Y-118435000D01*
D52*
X125131000Y-116731328D02*
X124864072Y-116464400D01*
X109855000Y-62090000D02*
X108852000Y-62090000D01*
D55*
X131445000Y-86106000D02*
X131445000Y-84582000D01*
D52*
X126873000Y-112649000D02*
X126873000Y-113618500D01*
X100762500Y-62090000D02*
X101215000Y-62542500D01*
X99695000Y-62090000D02*
X98724444Y-62090000D01*
X121539000Y-113919000D02*
X121573500Y-113884500D01*
X131861750Y-99441000D02*
X131861750Y-97770000D01*
X126873000Y-113618500D02*
X127139000Y-113884500D01*
X109855000Y-62090000D02*
X110922500Y-62090000D01*
D55*
X131445000Y-87845000D02*
X130658000Y-88632000D01*
D56*
%TO.N,/FTDI/USB_D-*%
X125158500Y-108899000D02*
X125158500Y-107998999D01*
X99572000Y-100010751D02*
X99572000Y-98904500D01*
X111575966Y-104054910D02*
X109162966Y-106467910D01*
X99653090Y-100091841D02*
X99572000Y-100010751D01*
X122104034Y-104054910D02*
X111575966Y-104054910D01*
X125307090Y-107850409D02*
X125307090Y-107257966D01*
X125158500Y-107998999D02*
X125307090Y-107850409D01*
X102546034Y-106467910D02*
X99653090Y-103574966D01*
X125307090Y-107257966D02*
X122104034Y-104054910D01*
X109162966Y-106467910D02*
X102546034Y-106467910D01*
X99653090Y-103574966D02*
X99653090Y-100091841D01*
%TO.N,/FTDI/USB_D+*%
X109023034Y-106130090D02*
X102685966Y-106130090D01*
X122243966Y-103717090D02*
X111436034Y-103717090D01*
X99990910Y-103435034D02*
X99990910Y-100091841D01*
X125793500Y-107998999D02*
X125644910Y-107850409D01*
X99990910Y-100091841D02*
X100072000Y-100010751D01*
X111436034Y-103717090D02*
X109023034Y-106130090D01*
X125793500Y-108899000D02*
X125793500Y-107998999D01*
X100072000Y-100010751D02*
X100072000Y-98904500D01*
X125644910Y-107118034D02*
X122243966Y-103717090D01*
X102685966Y-106130090D02*
X99990910Y-103435034D01*
X125644910Y-107850409D02*
X125644910Y-107118034D01*
D52*
%TO.N,/USB Audio/3.3VCM*%
X128131000Y-125056328D02*
X128131000Y-125828500D01*
D54*
X122866000Y-126866000D02*
X126913410Y-126866000D01*
D52*
X127864072Y-124789400D02*
X128131000Y-125056328D01*
X127131000Y-125056328D02*
X127397928Y-124789400D01*
X127397928Y-124789400D02*
X127864072Y-124789400D01*
D54*
X127131000Y-126648410D02*
X127131000Y-125828500D01*
X121285000Y-125285000D02*
X122866000Y-126866000D01*
D52*
X127131000Y-125828500D02*
X127131000Y-125056328D01*
D54*
X126913410Y-126866000D02*
X127131000Y-126648410D01*
D56*
%TO.N,/USB Audio/USB_D+*%
X127063500Y-109299000D02*
X127063500Y-108899000D01*
X122359850Y-121997090D02*
X122108966Y-121997090D01*
X126933910Y-109428590D02*
X127063500Y-109299000D01*
X122370966Y-110912910D02*
X126053966Y-110912910D01*
X126914910Y-109804410D02*
X126933910Y-109804410D01*
X122108966Y-121997090D02*
X120564910Y-120453034D01*
X120564910Y-112718966D02*
X122370966Y-110912910D01*
X122396350Y-121960590D02*
X122359850Y-121997090D01*
X120564910Y-120453034D02*
X120564910Y-112718966D01*
X126914910Y-110051966D02*
X126914910Y-109804410D01*
X123218500Y-121916000D02*
X122631000Y-121916000D01*
X126053966Y-110912910D02*
X126914910Y-110051966D01*
X122586410Y-121960590D02*
X122396350Y-121960590D01*
X122631000Y-121916000D02*
X122586410Y-121960590D01*
X126933910Y-109804410D02*
X126933910Y-109428590D01*
%TO.N,/USB Audio/USB_D-*%
X122631000Y-122416000D02*
X122586410Y-122371410D01*
X122359850Y-122334910D02*
X121969034Y-122334910D01*
X120227090Y-120592966D02*
X120227090Y-112579034D01*
X126577090Y-109912034D02*
X126577090Y-109804410D01*
X120227090Y-112579034D02*
X122231034Y-110575090D01*
X122231034Y-110575090D02*
X125914034Y-110575090D01*
X122396350Y-122371410D02*
X122359850Y-122334910D01*
X126558090Y-109428590D02*
X126428500Y-109299000D01*
X126577090Y-109804410D02*
X126558090Y-109804410D01*
X122586410Y-122371410D02*
X122396350Y-122371410D01*
X125914034Y-110575090D02*
X126577090Y-109912034D01*
X123218500Y-122416000D02*
X122631000Y-122416000D01*
X126558090Y-109804410D02*
X126558090Y-109428590D01*
X126428500Y-109299000D02*
X126428500Y-108899000D01*
X121969034Y-122334910D02*
X120227090Y-120592966D01*
D52*
%TO.N,/FPGA/CLK_12MHZ*%
X107443639Y-82415000D02*
X106637500Y-82415000D01*
X111058400Y-81594400D02*
X111046706Y-81606094D01*
D54*
X111668000Y-122716360D02*
X111668000Y-122182500D01*
D52*
X97409000Y-97795328D02*
X97072000Y-98132328D01*
D54*
X111760000Y-122808360D02*
X111668000Y-122716360D01*
D52*
X108252545Y-81606094D02*
X107443639Y-82415000D01*
X97072000Y-98132328D02*
X97072000Y-98904500D01*
X111046706Y-81606094D02*
X108252545Y-81606094D01*
X97409000Y-97282000D02*
X97409000Y-97795328D01*
D54*
X111760000Y-123317000D02*
X111760000Y-122808360D01*
D52*
%TO.N,/FPGA/D0*%
X115138200Y-94157800D02*
X115138200Y-91009394D01*
X103984500Y-97492000D02*
X111804000Y-97492000D01*
X115138200Y-91009394D02*
X115530994Y-90616600D01*
X115800000Y-90349672D02*
X115800000Y-89577500D01*
X115533072Y-90616600D02*
X115800000Y-90349672D01*
X115530994Y-90616600D02*
X115533072Y-90616600D01*
X111804000Y-97492000D02*
X115138200Y-94157800D01*
%TO.N,/FPGA/D1*%
X103984500Y-96992000D02*
X111796000Y-96992000D01*
X111796000Y-96992000D02*
X114808000Y-93980000D01*
X114808000Y-90841672D02*
X115300000Y-90349672D01*
X114808000Y-93980000D02*
X114808000Y-90841672D01*
X115300000Y-90349672D02*
X115300000Y-89577500D01*
%TO.N,/FPGA/D2*%
X114300000Y-93980000D02*
X114300000Y-90424000D01*
X103984500Y-96492000D02*
X111788000Y-96492000D01*
X111788000Y-96492000D02*
X114300000Y-93980000D01*
X114300000Y-90413646D02*
X114300000Y-89577500D01*
%TO.N,/FPGA/D3*%
X113800000Y-89577500D02*
X113800000Y-94013026D01*
X111821026Y-95992000D02*
X103984500Y-95992000D01*
X113800000Y-94013026D02*
X111821026Y-95992000D01*
%TO.N,/FPGA/D4*%
X111800000Y-94194000D02*
X110502000Y-95492000D01*
X110502000Y-95492000D02*
X103984500Y-95492000D01*
X111800000Y-89577500D02*
X111800000Y-94194000D01*
%TO.N,/FPGA/D5*%
X103984500Y-94992000D02*
X110494000Y-94992000D01*
X110494000Y-94992000D02*
X111469800Y-94016200D01*
X111300000Y-90347594D02*
X111300000Y-89577500D01*
X111469800Y-94016200D02*
X111469800Y-90517394D01*
X111469800Y-90517394D02*
X111300000Y-90347594D01*
%TO.N,/FPGA/D6*%
X108920973Y-94492000D02*
X109550200Y-93862773D01*
X103984500Y-94492000D02*
X108920973Y-94492000D01*
X110300000Y-90397274D02*
X110300000Y-89577500D01*
X109550200Y-93862773D02*
X109550200Y-91147074D01*
X109550200Y-91147074D02*
X110300000Y-90397274D01*
%TO.N,/FPGA/D7*%
X109220000Y-93726000D02*
X109220000Y-90927594D01*
X109800000Y-90347594D02*
X109800000Y-89577500D01*
X104754594Y-93992000D02*
X104924394Y-94161800D01*
X103984500Y-93992000D02*
X104754594Y-93992000D01*
X109220000Y-90927594D02*
X109800000Y-90347594D01*
X104924394Y-94161800D02*
X108784200Y-94161800D01*
X108784200Y-94161800D02*
X109220000Y-93726000D01*
%TO.N,/FPGA/~{RXF}*%
X105136000Y-93492000D02*
X107188000Y-91440000D01*
X103984500Y-93492000D02*
X105136000Y-93492000D01*
X107188000Y-88900000D02*
X107696000Y-88392000D01*
X107407594Y-86415000D02*
X106637500Y-86415000D01*
X107696000Y-86703406D02*
X107407594Y-86415000D01*
X107188000Y-91440000D02*
X107188000Y-88900000D01*
X107696000Y-88392000D02*
X107696000Y-86703406D01*
%TO.N,/FPGA/~{TXE}*%
X102572000Y-90579500D02*
X102572000Y-89807328D01*
X101092000Y-81071940D02*
X101092000Y-82202060D01*
X102572000Y-89807328D02*
X101600000Y-88835328D01*
X101600000Y-82710060D02*
X101092000Y-82202060D01*
X101748940Y-80415000D02*
X106637500Y-80415000D01*
X101600000Y-88835328D02*
X101600000Y-82710060D01*
X101748940Y-80415000D02*
X101092000Y-81071940D01*
%TO.N,/FPGA/~{RD}*%
X102072000Y-90579500D02*
X102072000Y-89774302D01*
X101612167Y-80084800D02*
X105695528Y-80084800D01*
X105865328Y-79915000D02*
X106637500Y-79915000D01*
X105695528Y-80084800D02*
X105865328Y-79915000D01*
X101269800Y-88972101D02*
X101269800Y-83107909D01*
X100761800Y-80935166D02*
X101612167Y-80084800D01*
X102072000Y-89774302D02*
X101269800Y-88972101D01*
X100761800Y-82599909D02*
X100761800Y-80935166D01*
X101269800Y-83107909D02*
X100761800Y-82599909D01*
%TO.N,/FPGA/~{WR}*%
X100939600Y-89108874D02*
X100939600Y-83244683D01*
X101572000Y-90579500D02*
X101572000Y-89741275D01*
X105865328Y-79415000D02*
X106637500Y-79415000D01*
X101572000Y-89741275D02*
X100939600Y-89108874D01*
X100431600Y-82736682D02*
X100431600Y-80798392D01*
X101475394Y-79754600D02*
X105525728Y-79754600D01*
X100431600Y-80798392D02*
X101475394Y-79754600D01*
X105525728Y-79754600D02*
X105865328Y-79415000D01*
X100939600Y-83244683D02*
X100431600Y-82736682D01*
%TO.N,/FPGA/CLK_60MHZ*%
X100330000Y-89565328D02*
X100330000Y-84582000D01*
X100572000Y-89807328D02*
X100330000Y-89565328D01*
X99822000Y-80518000D02*
X101425000Y-78915000D01*
X100572000Y-90579500D02*
X100572000Y-89807328D01*
X100330000Y-84582000D02*
X99822000Y-84074000D01*
X99822000Y-84074000D02*
X99822000Y-80518000D01*
X101425000Y-78915000D02*
X106637500Y-78915000D01*
%TO.N,/FPGA/~{OE}*%
X105865328Y-77915000D02*
X106637500Y-77915000D01*
X99824600Y-88157688D02*
X99060000Y-87393088D01*
X100072000Y-90579500D02*
X100072000Y-89807328D01*
X99824600Y-89559928D02*
X99824600Y-88157688D01*
X99060000Y-87393088D02*
X99060000Y-80518000D01*
X99060000Y-80518000D02*
X101403200Y-78174800D01*
X105605528Y-78174800D02*
X105865328Y-77915000D01*
X101403200Y-78174800D02*
X105605528Y-78174800D01*
X100072000Y-89807328D02*
X99824600Y-89559928D01*
D54*
%TO.N,+3V3*%
X105918000Y-121412000D02*
X106568997Y-121412000D01*
D52*
X99572000Y-89776380D02*
X99123000Y-89327380D01*
X116020800Y-97573200D02*
X117340800Y-97573200D01*
D53*
X94107000Y-117221000D02*
X94107000Y-114779762D01*
D52*
X115212800Y-99163200D02*
X115875300Y-99163200D01*
X103665200Y-72225467D02*
X104140000Y-72700267D01*
X128143000Y-86253912D02*
X127762000Y-85872912D01*
X120300000Y-74252500D02*
X120879500Y-73673000D01*
D53*
X123939000Y-91351000D02*
X124358000Y-90932000D01*
D52*
X108393819Y-79187600D02*
X107948109Y-79633310D01*
X128143000Y-86868000D02*
X128143000Y-86253912D01*
X93739000Y-101120000D02*
X93739000Y-97028000D01*
X112300000Y-89577500D02*
X112300000Y-88805328D01*
X124715600Y-83580600D02*
X123939000Y-82804000D01*
X101072000Y-91351672D02*
X100348672Y-92075000D01*
X102572000Y-98904500D02*
X103463500Y-98904500D01*
X112300000Y-89577500D02*
X112300000Y-90951000D01*
X123328000Y-83415000D02*
X121962500Y-83415000D01*
X116300000Y-89577500D02*
X116300000Y-91192000D01*
X112300000Y-90951000D02*
X112776000Y-91427000D01*
X121145000Y-105537000D02*
X121412000Y-105270000D01*
D54*
X112468000Y-123644000D02*
X112468000Y-122182500D01*
X117284000Y-120650000D02*
X118808000Y-122174000D01*
D52*
X109500488Y-72403000D02*
X109728000Y-72403000D01*
X100669272Y-91754400D02*
X100348672Y-92075000D01*
X112300000Y-88805328D02*
X113475328Y-87630000D01*
D53*
X123939000Y-95504000D02*
X123939000Y-91351000D01*
D52*
X116261800Y-102462200D02*
X116070800Y-102653200D01*
X103984500Y-91992000D02*
X103984500Y-91328500D01*
D54*
X112468000Y-114573000D02*
X112468000Y-115307500D01*
D52*
X125490600Y-83849200D02*
X125222000Y-83580600D01*
X103984500Y-91328500D02*
X104635000Y-90678000D01*
X107409672Y-80915000D02*
X106637500Y-80915000D01*
X100637000Y-75226500D02*
X100462000Y-75051500D01*
X113475328Y-87630000D02*
X113538000Y-87630000D01*
D54*
X101719410Y-97282000D02*
X101346000Y-97282000D01*
D52*
X129095000Y-79057000D02*
X129540000Y-79502000D01*
X104635000Y-90678000D02*
X104394000Y-90678000D01*
X105727000Y-85915000D02*
X106637500Y-85915000D01*
X115875300Y-99163200D02*
X115875300Y-97718700D01*
X107125000Y-93027000D02*
X106934000Y-93218000D01*
X127414400Y-85517400D02*
X127762000Y-85865000D01*
X99123000Y-88646000D02*
X98171000Y-87694000D01*
X107948109Y-79633310D02*
X107948109Y-80376563D01*
D53*
X94107000Y-114779762D02*
X93111238Y-113784000D01*
D54*
X112649000Y-123825000D02*
X111773000Y-124701000D01*
X113538000Y-113503000D02*
X113538000Y-112929000D01*
D52*
X103911574Y-89154000D02*
X103061000Y-88303426D01*
X107948109Y-80376563D02*
X107409672Y-80915000D01*
X116332000Y-89609500D02*
X116300000Y-89577500D01*
D54*
X112868000Y-114173000D02*
X113538000Y-113503000D01*
D52*
X102870000Y-102425000D02*
X103873000Y-101422000D01*
X103984500Y-91992000D02*
X103746900Y-91754400D01*
X114911200Y-99464800D02*
X115212800Y-99163200D01*
D54*
X114327026Y-112929000D02*
X113538000Y-112929000D01*
X119551000Y-105537000D02*
X117856000Y-105537000D01*
D52*
X95659500Y-96492000D02*
X94795095Y-96492000D01*
D53*
X94107000Y-122780762D02*
X93111238Y-121785000D01*
D54*
X95659500Y-92992000D02*
X95659500Y-93492000D01*
D52*
X99123000Y-89327380D02*
X99123000Y-88646000D01*
X108204000Y-93027000D02*
X107125000Y-93027000D01*
X100462000Y-74389000D02*
X100937000Y-73914000D01*
X102362000Y-74422000D02*
X102362000Y-75051500D01*
D54*
X102572000Y-98134590D02*
X101719410Y-97282000D01*
D52*
X129095000Y-78232000D02*
X129095000Y-79057000D01*
X108518400Y-79187600D02*
X108393819Y-79187600D01*
X125222000Y-83580600D02*
X124715600Y-83580600D01*
X103061000Y-88303426D02*
X103061000Y-87376000D01*
D54*
X116078000Y-111252000D02*
X116004026Y-111252000D01*
D52*
X113731600Y-87436400D02*
X113538000Y-87630000D01*
X94259095Y-97028000D02*
X93739000Y-97028000D01*
X94795095Y-96492000D02*
X94259095Y-97028000D01*
X100462000Y-75051500D02*
X100462000Y-74389000D01*
X91437400Y-98818400D02*
X91437400Y-95443600D01*
X91437400Y-95443600D02*
X92139000Y-94742000D01*
X118618000Y-75692000D02*
X119632672Y-75692000D01*
X103873000Y-101422000D02*
X103873000Y-99314000D01*
D54*
X107201000Y-115202000D02*
X105918000Y-113919000D01*
D52*
X99572000Y-90579500D02*
X99572000Y-89776380D01*
X105412600Y-85600600D02*
X105727000Y-85915000D01*
D54*
X108258000Y-116145000D02*
X107315000Y-115202000D01*
D52*
X118083200Y-102462200D02*
X118491000Y-102870000D01*
X116070800Y-102653200D02*
X114911200Y-101493600D01*
X106637500Y-80915000D02*
X105026000Y-80915000D01*
X125490600Y-85505400D02*
X125490600Y-83849200D01*
X125502600Y-85517400D02*
X125490600Y-85505400D01*
D53*
X93111238Y-121785000D02*
X92130000Y-121785000D01*
D52*
X117340800Y-97573200D02*
X117531800Y-97764200D01*
X101072000Y-90579500D02*
X101072000Y-91351672D01*
X108722116Y-71624628D02*
X109500488Y-72403000D01*
X99925213Y-91704885D02*
X99572000Y-91351672D01*
X92451000Y-99832000D02*
X91437400Y-98818400D01*
X123939000Y-82804000D02*
X123328000Y-83415000D01*
X120396000Y-78120672D02*
X121190328Y-78915000D01*
D54*
X112868000Y-114173000D02*
X112868000Y-115307500D01*
D52*
X125502600Y-85517400D02*
X124751000Y-86269000D01*
X100637000Y-77925000D02*
X100076000Y-78486000D01*
D54*
X116902000Y-115316000D02*
X116078000Y-114492000D01*
D52*
X124714000Y-82029000D02*
X124714000Y-80531000D01*
X98171000Y-87694000D02*
X98171000Y-86233000D01*
X123939000Y-79756000D02*
X123098000Y-78915000D01*
X96837000Y-106934000D02*
X98044000Y-106934000D01*
D54*
X114868000Y-115307500D02*
X114468000Y-115307500D01*
D52*
X104661000Y-84328000D02*
X105412600Y-85079600D01*
D54*
X116004026Y-111252000D02*
X114327026Y-112929000D01*
D52*
X103061000Y-85852000D02*
X103137000Y-85852000D01*
D54*
X112649000Y-123825000D02*
X112468000Y-123644000D01*
D52*
X119551000Y-105537000D02*
X121145000Y-105537000D01*
X98508213Y-93492000D02*
X95659500Y-93492000D01*
D54*
X107315000Y-115202000D02*
X107201000Y-115202000D01*
D52*
X103137000Y-85852000D02*
X104661000Y-84328000D01*
X114911200Y-101493600D02*
X114911200Y-99464800D01*
X99925213Y-92075000D02*
X98508213Y-93492000D01*
X95631500Y-96520000D02*
X95659500Y-96492000D01*
X117531800Y-102462200D02*
X116261800Y-102462200D01*
D54*
X117208000Y-120650000D02*
X116303000Y-119745000D01*
D53*
X93111238Y-113784000D02*
X92130000Y-113784000D01*
D54*
X112868000Y-114173000D02*
X112468000Y-114573000D01*
D52*
X100937000Y-73914000D02*
X101854000Y-73914000D01*
D54*
X117208000Y-116840000D02*
X116513000Y-116145000D01*
D52*
X116300000Y-89577500D02*
X116300000Y-88637787D01*
X100637000Y-76962000D02*
X100637000Y-75226500D01*
D53*
X94107000Y-125222000D02*
X94107000Y-122780762D01*
D52*
X104585000Y-89154000D02*
X103911574Y-89154000D01*
D55*
X125984000Y-90932000D02*
X124358000Y-90932000D01*
D52*
X116300000Y-88637787D02*
X115098613Y-87436400D01*
X125502600Y-85517400D02*
X127414400Y-85517400D01*
X104394000Y-90678000D02*
X103632000Y-89916000D01*
D54*
X111773000Y-124701000D02*
X111773000Y-125349000D01*
D52*
X116300000Y-91192000D02*
X116078000Y-91414000D01*
X120396000Y-78116600D02*
X120396000Y-78120672D01*
X103746900Y-91754400D02*
X100669272Y-91754400D01*
X123098000Y-78915000D02*
X121962500Y-78915000D01*
X124714000Y-80531000D02*
X123939000Y-79756000D01*
D54*
X117208000Y-115316000D02*
X114876500Y-115316000D01*
X116303000Y-119745000D02*
X115705500Y-119745000D01*
D52*
X105026000Y-80915000D02*
X104661000Y-81280000D01*
X103061000Y-87376000D02*
X103061000Y-85852000D01*
X92451000Y-99832000D02*
X95044000Y-102425000D01*
X95044000Y-102425000D02*
X95250000Y-102425000D01*
X99925213Y-92075000D02*
X99925213Y-91704885D01*
D54*
X102572000Y-98904500D02*
X102572000Y-98134590D01*
D52*
X104585000Y-89154000D02*
X104394000Y-89154000D01*
D54*
X106568997Y-121412000D02*
X106934000Y-121046997D01*
D52*
X104140000Y-72700267D02*
X104140000Y-74613000D01*
D54*
X114876500Y-115316000D02*
X114868000Y-115307500D01*
D52*
X110251600Y-74204100D02*
X110251600Y-74168000D01*
X100348672Y-92075000D02*
X99925213Y-92075000D01*
X121190328Y-78915000D02*
X121962500Y-78915000D01*
X99572000Y-91351672D02*
X99572000Y-91349410D01*
X112268000Y-89609500D02*
X112300000Y-89577500D01*
X116020800Y-97573200D02*
X116548800Y-97573200D01*
D54*
X116513000Y-116145000D02*
X115705500Y-116145000D01*
X108830500Y-116145000D02*
X108258000Y-116145000D01*
D52*
X123939000Y-82804000D02*
X124714000Y-82029000D01*
D54*
X117983000Y-119634000D02*
X117208000Y-120409000D01*
D52*
X125477398Y-105538398D02*
X127415000Y-107476000D01*
X119632672Y-75692000D02*
X120300000Y-75024672D01*
D54*
X117208000Y-115316000D02*
X116902000Y-115316000D01*
X106934000Y-120791674D02*
X107980674Y-119745000D01*
D52*
X103463500Y-98904500D02*
X103873000Y-99314000D01*
X101854000Y-73914000D02*
X102362000Y-74422000D01*
D54*
X117208000Y-120409000D02*
X117208000Y-120650000D01*
D52*
X110490000Y-77216000D02*
X108518400Y-79187600D01*
D55*
X125984000Y-90932000D02*
X130658000Y-90932000D01*
D52*
X100637000Y-76962000D02*
X100637000Y-77925000D01*
D54*
X117208000Y-115316000D02*
X117208000Y-116840000D01*
X107980674Y-119745000D02*
X108830500Y-119745000D01*
D52*
X95044000Y-102425000D02*
X93739000Y-101120000D01*
X105412600Y-85079600D02*
X105412600Y-85600600D01*
X127415000Y-107476000D02*
X130976000Y-107476000D01*
X127762000Y-85872912D02*
X127762000Y-85865000D01*
X115875300Y-97718700D02*
X116020800Y-97573200D01*
D54*
X106201348Y-121412000D02*
X105918000Y-121412000D01*
X106934000Y-121046997D02*
X106934000Y-120791674D01*
D52*
X117531800Y-102462200D02*
X118083200Y-102462200D01*
X93739000Y-97028000D02*
X93739000Y-97206000D01*
X110300000Y-74252500D02*
X110300000Y-72975000D01*
X115098613Y-87436400D02*
X113731600Y-87436400D01*
X110300000Y-72975000D02*
X109728000Y-72403000D01*
X120879500Y-73673000D02*
X121793000Y-73673000D01*
D54*
X99572000Y-90579500D02*
X99572000Y-91349410D01*
D52*
X92451000Y-100579000D02*
X92451000Y-99832000D01*
X120300000Y-75024672D02*
X120300000Y-74252500D01*
X129095000Y-73660000D02*
X129095000Y-78232000D01*
X102616000Y-98948500D02*
X102572000Y-98904500D01*
D54*
X117208000Y-120650000D02*
X117284000Y-120650000D01*
D52*
X130976000Y-107476000D02*
X131826000Y-108326000D01*
X104394000Y-89154000D02*
X103632000Y-89916000D01*
%TO.N,/FPGA/TCK*%
X109026400Y-80904494D02*
X108462674Y-80904494D01*
X107452168Y-81915000D02*
X106637500Y-81915000D01*
X108462674Y-80904494D02*
X107452168Y-81915000D01*
%TO.N,+1V2*%
X110800000Y-89577500D02*
X110800000Y-91117000D01*
X117800000Y-89577500D02*
X117800000Y-91229000D01*
X110800000Y-88082000D02*
X110800000Y-89577500D01*
X112800000Y-72633000D02*
X113030000Y-72403000D01*
X100637000Y-72601500D02*
X100462000Y-72776500D01*
X120650000Y-75946000D02*
X121931500Y-75946000D01*
X110800000Y-91117000D02*
X110490000Y-91427000D01*
X108204000Y-82296000D02*
X107585000Y-82915000D01*
X118737000Y-81415000D02*
X121962500Y-81415000D01*
X122174000Y-93027000D02*
X121925960Y-93027000D01*
X106637500Y-82915000D02*
X104772000Y-82915000D01*
X100637000Y-70866000D02*
X100637000Y-72601500D01*
X120396000Y-76200000D02*
X120650000Y-75946000D01*
X117800000Y-87940000D02*
X117856000Y-87884000D01*
X123317000Y-73673000D02*
X121962500Y-75027500D01*
X117251416Y-72403000D02*
X116501600Y-71653184D01*
X118353600Y-92178600D02*
X117602000Y-91427000D01*
X121925960Y-93027000D02*
X121077560Y-92178600D01*
X117856000Y-91681000D02*
X117800000Y-91625000D01*
X104772000Y-82915000D02*
X104661000Y-82804000D01*
X117800000Y-89577500D02*
X117800000Y-87940000D01*
X121931500Y-75946000D02*
X121962500Y-75915000D01*
X113030000Y-76962000D02*
X112800000Y-76732000D01*
X111252000Y-87630000D02*
X110800000Y-88082000D01*
X118618000Y-81534000D02*
X118737000Y-81415000D01*
X121962500Y-75027500D02*
X121962500Y-75915000D01*
X107585000Y-82915000D02*
X106637500Y-82915000D01*
X112800000Y-76732000D02*
X112800000Y-74252500D01*
X117300000Y-74252500D02*
X117300000Y-72451000D01*
X113030000Y-82042000D02*
X112776000Y-82296000D01*
X99060000Y-74178500D02*
X99060000Y-76200000D01*
X116800000Y-74252500D02*
X117300000Y-74252500D01*
X112800000Y-74252500D02*
X112800000Y-72633000D01*
X100462000Y-72776500D02*
X99060000Y-74178500D01*
X117800000Y-91229000D02*
X117602000Y-91427000D01*
X123804000Y-81415000D02*
X121962500Y-81415000D01*
X117300000Y-72451000D02*
X117348000Y-72403000D01*
X117348000Y-72403000D02*
X117251416Y-72403000D01*
X100462000Y-72776500D02*
X100462000Y-73132714D01*
X121077560Y-92178600D02*
X118353600Y-92178600D01*
X112776000Y-82296000D02*
X108204000Y-82296000D01*
X123939000Y-81280000D02*
X123804000Y-81415000D01*
D54*
%TO.N,Net-(D1-A)*%
X136334000Y-124714000D02*
X138023500Y-124714000D01*
D52*
%TO.N,/FPGA/STRIP2*%
X110200600Y-69306600D02*
X106716600Y-69306600D01*
X106415000Y-69005000D02*
X106415000Y-68267500D01*
X106716600Y-69306600D02*
X106415000Y-69005000D01*
X111300000Y-74252500D02*
X111300000Y-73041053D01*
X110998000Y-72739053D02*
X110998000Y-70104000D01*
X111300000Y-73041053D02*
X110998000Y-72739053D01*
X110998000Y-70104000D02*
X110200600Y-69306600D01*
%TO.N,/FPGA/STRIP1*%
X105765000Y-69005000D02*
X106396800Y-69636800D01*
X110617000Y-70358000D02*
X110617000Y-72825026D01*
X110800000Y-73008026D02*
X110800000Y-74252500D01*
X105765000Y-68267500D02*
X105765000Y-69005000D01*
X106396800Y-69636800D02*
X109895800Y-69636800D01*
X110617000Y-72825026D02*
X110800000Y-73008026D01*
X109895800Y-69636800D02*
X110617000Y-70358000D01*
%TO.N,/FPGA/STRIP3*%
X122185000Y-69098161D02*
X122185000Y-68267500D01*
X119300000Y-71983161D02*
X122185000Y-69098161D01*
X119300000Y-74252500D02*
X119300000Y-71983161D01*
%TO.N,/FPGA/STRIP4*%
X119800000Y-71960718D02*
X122835000Y-68925718D01*
X122835000Y-68925718D02*
X122835000Y-68267500D01*
X119800000Y-74252500D02*
X119800000Y-71960718D01*
%TO.N,/FPGA/BLANK*%
X119634000Y-71182187D02*
X119634000Y-70549813D01*
X119634000Y-70549813D02*
X118390787Y-69306600D01*
X118800000Y-74252500D02*
X118800000Y-72016187D01*
X116226601Y-69306600D02*
X115925000Y-69004999D01*
X115925000Y-69004999D02*
X115925000Y-68267500D01*
X118800000Y-72016187D02*
X119634000Y-71182187D01*
X118390787Y-69306600D02*
X116226601Y-69306600D01*
%TO.N,/FPGA/CLKOUT*%
X115800000Y-70100718D02*
X114625000Y-68925718D01*
X114625000Y-68925718D02*
X114625000Y-68267500D01*
X115800000Y-74252500D02*
X115800000Y-70100718D01*
%TO.N,/Level Shifters/LED1_out*%
X106415000Y-62542500D02*
X106415000Y-54980000D01*
X106415000Y-54980000D02*
X104775000Y-53340000D01*
%TO.N,/Level Shifters/BLNK_out*%
X117475000Y-66929000D02*
X117475000Y-65555787D01*
X116575000Y-64655787D02*
X116575000Y-62542500D01*
X117475000Y-65555787D02*
X116575000Y-64655787D01*
%TO.N,/Level Shifters/LAT_out*%
X116586000Y-66421000D02*
X116586000Y-65353393D01*
X116586000Y-65353393D02*
X115925000Y-64692393D01*
X115925000Y-64692393D02*
X115925000Y-62542500D01*
%TO.N,/Level Shifters/CLK_out*%
X115697000Y-65151000D02*
X115275000Y-64729000D01*
X115275000Y-64729000D02*
X115275000Y-62542500D01*
X115697000Y-65913000D02*
X115697000Y-65151000D01*
%TO.N,/Level Shifters/R2_out*%
X102925718Y-66040000D02*
X99695000Y-66040000D01*
X97155000Y-68580000D02*
X93345000Y-68580000D01*
X105765000Y-63200718D02*
X102925718Y-66040000D01*
X105765000Y-62542500D02*
X105765000Y-63200718D01*
X93345000Y-68580000D02*
X92075000Y-69850000D01*
X99695000Y-66040000D02*
X97155000Y-68580000D01*
%TO.N,/Level Shifters/G2_out*%
X97790000Y-67310000D02*
X99695000Y-65405000D01*
X94615000Y-67310000D02*
X97790000Y-67310000D01*
X102907950Y-65405000D02*
X105115000Y-63197950D01*
X105115000Y-63197950D02*
X105115000Y-62542500D01*
X99695000Y-65405000D02*
X102907950Y-65405000D01*
%TO.N,/Level Shifters/B2_out*%
X93345000Y-66040000D02*
X98425000Y-66040000D01*
X92075000Y-67310000D02*
X93345000Y-66040000D01*
X104465000Y-63280000D02*
X104465000Y-62542500D01*
X99695000Y-64770000D02*
X102975000Y-64770000D01*
X102975000Y-64770000D02*
X104465000Y-63280000D01*
X98425000Y-66040000D02*
X99695000Y-64770000D01*
%TO.N,/Level Shifters/R1_out*%
X102515000Y-61805000D02*
X102515000Y-62542500D01*
X93345000Y-63500000D02*
X96322230Y-63500000D01*
X101670000Y-60960000D02*
X102515000Y-61805000D01*
X98862230Y-60960000D02*
X101670000Y-60960000D01*
X96322230Y-63500000D02*
X98862230Y-60960000D01*
X92075000Y-64770000D02*
X93345000Y-63500000D01*
%TO.N,/Level Shifters/G1_out*%
X94615000Y-62230000D02*
X96520000Y-60325000D01*
X103165000Y-61805000D02*
X103165000Y-62542500D01*
X101685000Y-60325000D02*
X103165000Y-61805000D01*
X96520000Y-60325000D02*
X101685000Y-60325000D01*
%TO.N,/Level Shifters/B1_out*%
X94615000Y-59690000D02*
X101700000Y-59690000D01*
X101700000Y-59690000D02*
X103815000Y-61805000D01*
X103815000Y-61805000D02*
X103815000Y-62542500D01*
X92075000Y-62230000D02*
X94615000Y-59690000D01*
%TO.N,/Level Shifters/LED2_out*%
X107065000Y-62542500D02*
X107065000Y-57415000D01*
X107065000Y-57415000D02*
X111125000Y-53355000D01*
%TO.N,/Level Shifters/LED3_out*%
X122835000Y-58715000D02*
X117475000Y-53355000D01*
X122835000Y-62542500D02*
X122835000Y-58715000D01*
%TO.N,/Level Shifters/B3_out*%
X127742950Y-61595000D02*
X133350000Y-61595000D01*
X127036600Y-61503400D02*
X127651350Y-61503400D01*
X127651350Y-61503400D02*
X127742950Y-61595000D01*
X133350000Y-61595000D02*
X133985000Y-62230000D01*
X126735000Y-61805000D02*
X127036600Y-61503400D01*
X126735000Y-62542500D02*
X126735000Y-61805000D01*
%TO.N,/Level Shifters/G3_out*%
X126085000Y-61887050D02*
X127012050Y-60960000D01*
X126085000Y-62542500D02*
X126085000Y-61887050D01*
X135255000Y-60960000D02*
X136525000Y-62230000D01*
X127012050Y-60960000D02*
X135255000Y-60960000D01*
%TO.N,/Level Shifters/R3_out*%
X127385000Y-62542500D02*
X131640000Y-62542500D01*
X131640000Y-62542500D02*
X133867500Y-64770000D01*
%TO.N,/Level Shifters/B4_out*%
X124785000Y-63280000D02*
X126275000Y-64770000D01*
X124785000Y-62542500D02*
X124785000Y-63280000D01*
X132080000Y-67310000D02*
X133985000Y-67310000D01*
X126275000Y-64770000D02*
X129540000Y-64770000D01*
X129540000Y-64770000D02*
X132080000Y-67310000D01*
%TO.N,/Level Shifters/G4_out*%
X129540000Y-64135000D02*
X131445000Y-66040000D01*
X125435000Y-63280000D02*
X126290000Y-64135000D01*
X126290000Y-64135000D02*
X129540000Y-64135000D01*
X131445000Y-66040000D02*
X135255000Y-66040000D01*
X135255000Y-66040000D02*
X136525000Y-67310000D01*
X125435000Y-62542500D02*
X125435000Y-63280000D01*
%TO.N,/Level Shifters/R4_out*%
X133985000Y-69850000D02*
X129540000Y-65405000D01*
X124135000Y-63280000D02*
X124135000Y-62542500D01*
X129540000Y-65405000D02*
X126260000Y-65405000D01*
X126260000Y-65405000D02*
X124135000Y-63280000D01*
%TO.N,/Level Shifters/LED4_out*%
X123485000Y-62542500D02*
X123485000Y-58207000D01*
X122428000Y-54737000D02*
X123825000Y-53340000D01*
X122428000Y-57150000D02*
X122428000Y-54737000D01*
X123485000Y-58207000D02*
X122428000Y-57150000D01*
%TO.N,/FPGA/R2*%
X109300000Y-74252500D02*
X109300000Y-73194726D01*
X109300000Y-73194726D02*
X105115000Y-69009726D01*
X105115000Y-69009726D02*
X105115000Y-68267500D01*
%TO.N,/FPGA/G2*%
X104465000Y-68922950D02*
X104465000Y-68267500D01*
X108800000Y-74252500D02*
X108800000Y-73257950D01*
X108800000Y-73257950D02*
X104465000Y-68922950D01*
%TO.N,/FPGA/B2*%
X103815000Y-69017000D02*
X103815000Y-68267500D01*
X108300000Y-74252500D02*
X108300000Y-73502000D01*
X108300000Y-73502000D02*
X103815000Y-69017000D01*
%TO.N,/FPGA/B1*%
X107409672Y-76415000D02*
X107676600Y-76148072D01*
X103165000Y-69129000D02*
X103165000Y-68267500D01*
X107676600Y-73640600D02*
X103165000Y-69129000D01*
X106637500Y-76415000D02*
X107409672Y-76415000D01*
X107676600Y-76148072D02*
X107676600Y-73640600D01*
%TO.N,/FPGA/G1*%
X105867406Y-76915000D02*
X105598400Y-76645994D01*
X105598400Y-76645994D02*
X105598400Y-72070400D01*
X106637500Y-76915000D02*
X105867406Y-76915000D01*
X102515000Y-68987000D02*
X102515000Y-68267500D01*
X105598400Y-72070400D02*
X102515000Y-68987000D01*
%TO.N,/FPGA/R1*%
X105156000Y-76705672D02*
X105156000Y-72390000D01*
X105867406Y-77415000D02*
X105865328Y-77415000D01*
X105156000Y-72390000D02*
X101865000Y-69099000D01*
X101865000Y-69099000D02*
X101865000Y-68267500D01*
X105865328Y-77415000D02*
X105156000Y-76705672D01*
%TO.N,/FPGA/LAT*%
X118300000Y-74252500D02*
X118300000Y-72049213D01*
X115275000Y-69004999D02*
X115275000Y-68267500D01*
X118340213Y-69723000D02*
X115993001Y-69723000D01*
X119192600Y-70575387D02*
X118340213Y-69723000D01*
X119192600Y-71156613D02*
X119192600Y-70575387D01*
X115993001Y-69723000D02*
X115275000Y-69004999D01*
X118300000Y-72049213D02*
X119192600Y-71156613D01*
%TO.N,/FPGA/R4*%
X121962500Y-76415000D02*
X122734672Y-76415000D01*
X123485000Y-70399000D02*
X123485000Y-68267500D01*
X122734672Y-76415000D02*
X124333000Y-74816672D01*
X124333000Y-71247000D02*
X123485000Y-70399000D01*
X124333000Y-74816672D02*
X124333000Y-71247000D01*
%TO.N,/FPGA/B4*%
X124663200Y-71069200D02*
X123952000Y-70358000D01*
X122734672Y-76915000D02*
X124663200Y-74986472D01*
X123952000Y-69342000D02*
X124135000Y-69159000D01*
X124663200Y-74986472D02*
X124663200Y-71069200D01*
X121962500Y-76915000D02*
X122734672Y-76915000D01*
X123952000Y-70358000D02*
X123952000Y-69342000D01*
X124135000Y-69159000D02*
X124135000Y-68267500D01*
%TO.N,/FPGA/G4*%
X121962500Y-77915000D02*
X122734672Y-77915000D01*
X124993400Y-75656272D02*
X124993400Y-70764400D01*
X124587000Y-69123718D02*
X124785000Y-68925718D01*
X124993400Y-70764400D02*
X124587000Y-70358000D01*
X122734672Y-77915000D02*
X124993400Y-75656272D01*
X124587000Y-70358000D02*
X124587000Y-69123718D01*
X124785000Y-68925718D02*
X124785000Y-68267500D01*
%TO.N,/FPGA/G3*%
X125394193Y-69871407D02*
X125394193Y-69045806D01*
X119264600Y-78116600D02*
X120563000Y-79415000D01*
X118872000Y-78116600D02*
X119264600Y-78116600D01*
X125435000Y-69004999D02*
X125435000Y-68267500D01*
X125394193Y-69045806D02*
X125435000Y-69004999D01*
X120563000Y-79415000D02*
X121962500Y-79415000D01*
%TO.N,/FPGA/B3*%
X120301000Y-79915000D02*
X121962500Y-79915000D01*
X126085000Y-69004999D02*
X126085000Y-68267500D01*
X126117200Y-69037199D02*
X126085000Y-69004999D01*
X126117200Y-70739000D02*
X126117200Y-69037199D01*
X119761000Y-79375000D02*
X120301000Y-79915000D01*
X118872000Y-79375000D02*
X119761000Y-79375000D01*
%TO.N,/FPGA/R3*%
X126818800Y-69088799D02*
X126735000Y-69004999D01*
X126735000Y-69004999D02*
X126735000Y-68267500D01*
X119467000Y-80415000D02*
X121962500Y-80415000D01*
X126818800Y-71510300D02*
X126818800Y-69088799D01*
X119428000Y-80454000D02*
X119467000Y-80415000D01*
%TO.N,/FPGA/SS*%
X106637500Y-87415000D02*
X104750000Y-87415000D01*
X103892718Y-88142931D02*
X103944069Y-88142931D01*
X108204000Y-78486000D02*
X108133000Y-78415000D01*
X108133000Y-78415000D02*
X106637500Y-78415000D01*
X103944069Y-88142931D02*
X104711000Y-87376000D01*
X104750000Y-87415000D02*
X104711000Y-87376000D01*
%TO.N,+1V1*%
X114681000Y-120269000D02*
X114046000Y-120904000D01*
D54*
X117208000Y-113792000D02*
X115049640Y-113792000D01*
X114068000Y-115841360D02*
X114068000Y-115307500D01*
X112271640Y-116045000D02*
X113864360Y-116045000D01*
X112068000Y-115307500D02*
X112068000Y-115841360D01*
X112868000Y-122903704D02*
X112868000Y-122182500D01*
X112068000Y-112983000D02*
X112014000Y-112929000D01*
X112868000Y-122182500D02*
X112868000Y-121649576D01*
D52*
X114681000Y-116861640D02*
X114681000Y-120269000D01*
X114046000Y-120904000D02*
X113610376Y-120904000D01*
D54*
X112068000Y-115307500D02*
X112068000Y-112983000D01*
D52*
X113610376Y-120904000D02*
X112866400Y-121647976D01*
D54*
X113864360Y-116045000D02*
X114068000Y-115841360D01*
X114068000Y-114773640D02*
X114068000Y-115307500D01*
X115049640Y-113792000D02*
X114068000Y-114773640D01*
X113411000Y-123446704D02*
X112868000Y-122903704D01*
X113271000Y-125349000D02*
X113411000Y-125209000D01*
X113411000Y-125209000D02*
X113411000Y-123446704D01*
X112868000Y-121649576D02*
X112866400Y-121647976D01*
X112068000Y-115841360D02*
X112271640Y-116045000D01*
D52*
X113864360Y-116045000D02*
X114681000Y-116861640D01*
D54*
%TO.N,/MCU/SCL0*%
X108830500Y-120545000D02*
X108296640Y-120545000D01*
X93877000Y-111784000D02*
X92130000Y-111784000D01*
X108093000Y-120748640D02*
X108093000Y-123138104D01*
X108296640Y-120545000D02*
X108093000Y-120748640D01*
X98233448Y-124060000D02*
X94996000Y-120822552D01*
X94996000Y-112903000D02*
X93877000Y-111784000D01*
X94996000Y-120822552D02*
X94996000Y-112903000D01*
X107171104Y-124060000D02*
X98233448Y-124060000D01*
X108093000Y-123138104D02*
X107171104Y-124060000D01*
D52*
%TO.N,/FPGA/TMS*%
X109474000Y-82997600D02*
X109345695Y-83125905D01*
X109345695Y-83125905D02*
X108169677Y-83125905D01*
X108169677Y-83125905D02*
X107880582Y-83415000D01*
X107880582Y-83415000D02*
X106637500Y-83415000D01*
%TO.N,/FPGA/TDI*%
X108966000Y-83950000D02*
X108931000Y-83915000D01*
X108931000Y-83915000D02*
X106637500Y-83915000D01*
%TO.N,/FPGA/TDO*%
X108649709Y-80174963D02*
X107409672Y-81415000D01*
X107409672Y-81415000D02*
X106637500Y-81415000D01*
X108649709Y-79923923D02*
X108649709Y-80174963D01*
%TO.N,/FPGA/CRESET_N*%
X96936000Y-108607000D02*
X96787000Y-108458000D01*
X106637500Y-85415000D02*
X107409672Y-85415000D01*
X108446710Y-86452038D02*
X108446710Y-86542700D01*
X107409672Y-85415000D02*
X108446710Y-86452038D01*
X94473000Y-106934000D02*
X92451000Y-104912000D01*
X95187000Y-106934000D02*
X95263000Y-106934000D01*
X95263000Y-106934000D02*
X96787000Y-108458000D01*
X95187000Y-106934000D02*
X94473000Y-106934000D01*
D56*
%TO.N,/USB Hub/RAW_D-*%
X135933500Y-97032000D02*
X136652500Y-97032000D01*
X134155840Y-97113090D02*
X133374750Y-96332000D01*
X133374750Y-96332000D02*
X133012250Y-96332000D01*
X138057500Y-97532000D02*
X137672500Y-97917000D01*
X135933500Y-97032000D02*
X135070999Y-97032000D01*
X134155840Y-97113090D02*
X134989909Y-97113090D01*
X135070999Y-97032000D02*
X134989909Y-97113090D01*
X136652500Y-97032000D02*
X137037500Y-96647000D01*
X138903500Y-97532000D02*
X138057500Y-97532000D01*
%TO.N,/USB Hub/RAW_D+*%
X135933500Y-97532000D02*
X135070999Y-97532000D01*
X134989909Y-97450910D02*
X134155840Y-97450910D01*
X135933500Y-97532000D02*
X137168500Y-97532000D01*
X137668500Y-97032000D02*
X138903500Y-97032000D01*
X133374750Y-98232000D02*
X133012250Y-98232000D01*
X134155840Y-97450910D02*
X133374750Y-98232000D01*
X135070999Y-97532000D02*
X134989909Y-97450910D01*
X137168500Y-97532000D02*
X137668500Y-97032000D01*
D54*
%TO.N,/MCU/SDA0*%
X107766000Y-122993000D02*
X107026000Y-123733000D01*
X107026000Y-123733000D02*
X98552000Y-123733000D01*
X95323000Y-120504000D02*
X95323000Y-112767552D01*
X93739448Y-111184000D02*
X91314448Y-111184000D01*
X107766000Y-120529640D02*
X107766000Y-122993000D01*
X91055000Y-111443448D02*
X91055000Y-112483999D01*
X91055000Y-112483999D02*
X91355001Y-112784000D01*
X91355001Y-112784000D02*
X92130000Y-112784000D01*
X98552000Y-123733000D02*
X95323000Y-120504000D01*
X108150640Y-120145000D02*
X107766000Y-120529640D01*
X108830500Y-120145000D02*
X108150640Y-120145000D01*
X91314448Y-111184000D02*
X91055000Y-111443448D01*
X95323000Y-112767552D02*
X93739448Y-111184000D01*
%TO.N,/MCU/SCL1*%
X110868000Y-122778808D02*
X110868000Y-122182500D01*
X107442000Y-124714000D02*
X108458000Y-123698000D01*
X96647000Y-123952000D02*
X97409000Y-124714000D01*
X92710000Y-119205000D02*
X92130000Y-119785000D01*
X108458000Y-123698000D02*
X109948808Y-123698000D01*
X92710000Y-118618000D02*
X92710000Y-119205000D01*
X109948808Y-123698000D02*
X110868000Y-122778808D01*
X97409000Y-124714000D02*
X107442000Y-124714000D01*
D56*
%TO.N,/USB Hub/USBU_D+*%
X129355966Y-105324910D02*
X127692034Y-105324910D01*
X129593660Y-97450910D02*
X129355966Y-97450910D01*
X128946910Y-97859966D02*
X128946910Y-98990034D01*
X129355966Y-97450910D02*
X128946910Y-97859966D01*
X127212090Y-104844966D02*
X127212090Y-104604410D01*
X130737250Y-98232000D02*
X130374750Y-98232000D01*
X127692034Y-105324910D02*
X127212090Y-104844966D01*
X127193090Y-104228590D02*
X127063500Y-104099000D01*
X127063500Y-104099000D02*
X127063500Y-103699000D01*
X130374750Y-98232000D02*
X129593660Y-97450910D01*
X129962910Y-100006034D02*
X129962910Y-104717966D01*
X128946910Y-98990034D02*
X129962910Y-100006034D01*
X127193090Y-104604410D02*
X127193090Y-104228590D01*
X127212090Y-104604410D02*
X127193090Y-104604410D01*
X129962910Y-104717966D02*
X129355966Y-105324910D01*
%TO.N,/USB Hub/USBU_D-*%
X129625090Y-100145966D02*
X129625090Y-104578034D01*
X128609090Y-97720034D02*
X128609090Y-99129966D01*
X127568910Y-104604410D02*
X127568910Y-104228590D01*
X127549910Y-104604410D02*
X127568910Y-104604410D01*
X127568910Y-104228590D02*
X127698500Y-104099000D01*
X129625090Y-104578034D02*
X129216034Y-104987090D01*
X129216034Y-104987090D02*
X127831966Y-104987090D01*
X127698500Y-104099000D02*
X127698500Y-103699000D01*
X127549910Y-104705034D02*
X127549910Y-104604410D01*
X130737250Y-96332000D02*
X130374750Y-96332000D01*
X129216034Y-97113090D02*
X128609090Y-97720034D01*
X128609090Y-99129966D02*
X129625090Y-100145966D01*
X127831966Y-104987090D02*
X127549910Y-104705034D01*
X129593660Y-97113090D02*
X129216034Y-97113090D01*
X130374750Y-96332000D02*
X129593660Y-97113090D01*
D54*
%TO.N,/MCU/SDA1*%
X110468000Y-122716360D02*
X110468000Y-122182500D01*
X98098000Y-124387000D02*
X107306552Y-124387000D01*
X110264360Y-122920000D02*
X110468000Y-122716360D01*
X107306552Y-124387000D02*
X108773552Y-122920000D01*
X108773552Y-122920000D02*
X110264360Y-122920000D01*
X92130000Y-120785000D02*
X94496000Y-120785000D01*
X94496000Y-120785000D02*
X98098000Y-124387000D01*
D56*
%TO.N,/MCU/USB_D+*%
X121878090Y-109658034D02*
X121878090Y-109150034D01*
X119564034Y-111972090D02*
X121878090Y-109658034D01*
D54*
X123029124Y-107999000D02*
X124423500Y-107999000D01*
D56*
X113268000Y-114570000D02*
X113268000Y-114458124D01*
X115754034Y-111972090D02*
X119564034Y-111972090D01*
D54*
X122880062Y-108148062D02*
X123029124Y-107999000D01*
D56*
X121878090Y-109150034D02*
X122880062Y-108148062D01*
D54*
X124423500Y-107999000D02*
X124523500Y-108099000D01*
X113268000Y-115307500D02*
X113268000Y-114570000D01*
D56*
X113268000Y-114458124D02*
X115754034Y-111972090D01*
D54*
X124523500Y-108099000D02*
X124523500Y-108899000D01*
%TO.N,/MCU/USB_D-*%
X113668000Y-115307500D02*
X113668000Y-114557000D01*
D56*
X113668000Y-114557000D02*
X113668000Y-114535876D01*
X122215910Y-109797966D02*
X122215910Y-109289966D01*
D54*
X123888500Y-108899000D02*
X123952000Y-108835500D01*
X123952000Y-108835500D02*
X123952000Y-108458000D01*
X123825000Y-108331000D02*
X123317000Y-108331000D01*
D56*
X122215910Y-109289966D02*
X123174876Y-108331000D01*
X119703966Y-112309910D02*
X122215910Y-109797966D01*
D54*
X123952000Y-108458000D02*
X123825000Y-108331000D01*
D56*
X123174876Y-108331000D02*
X123317000Y-108331000D01*
X113668000Y-114535876D02*
X115893966Y-112309910D01*
X115893966Y-112309910D02*
X119703966Y-112309910D01*
D54*
%TO.N,/MCU/5VSW_1*%
X100076000Y-113411000D02*
X100076000Y-114698500D01*
X107146984Y-118945000D02*
X108830500Y-118945000D01*
X106822992Y-119268992D02*
X107146984Y-118945000D01*
X100076000Y-114698500D02*
X100137000Y-114759500D01*
%TO.N,/MCU/5VSW_2*%
X107805900Y-119345000D02*
X108830500Y-119345000D01*
X106976510Y-120174390D02*
X107805900Y-119345000D01*
X104013000Y-114742000D02*
X104074000Y-114803000D01*
X104013000Y-113411000D02*
X104013000Y-114742000D01*
X106062418Y-120174390D02*
X106976510Y-120174390D01*
D56*
%TO.N,/USB Hub/USB_EXT_D-*%
X133689090Y-112845966D02*
X133689090Y-114496966D01*
X127828090Y-109428590D02*
X127828090Y-109804410D01*
X134973910Y-115103910D02*
X135805000Y-115935000D01*
X127828090Y-109804410D02*
X127853534Y-109804410D01*
X134296034Y-115103910D02*
X134973910Y-115103910D01*
X133689090Y-114496966D02*
X134296034Y-115103910D01*
X127698500Y-108899000D02*
X127698500Y-109299000D01*
X132264034Y-111420910D02*
X133689090Y-112845966D01*
X129470034Y-111420910D02*
X132264034Y-111420910D01*
X127853534Y-109804410D02*
X129470034Y-111420910D01*
X127698500Y-109299000D02*
X127828090Y-109428590D01*
%TO.N,/USB Hub/USB_EXT_D+*%
X129609966Y-111083090D02*
X132403966Y-111083090D01*
X128203910Y-109677034D02*
X129609966Y-111083090D01*
X134973910Y-114766090D02*
X135805000Y-113935000D01*
X132403966Y-111083090D02*
X134026910Y-112706034D01*
X134026910Y-112706034D02*
X134026910Y-114357034D01*
X134026910Y-114357034D02*
X134435966Y-114766090D01*
X134435966Y-114766090D02*
X134973910Y-114766090D01*
X128333500Y-109299000D02*
X128203910Y-109428590D01*
X128333500Y-108899000D02*
X128333500Y-109299000D01*
X128203910Y-109428590D02*
X128203910Y-109677034D01*
D54*
%TO.N,Net-(U14-RUN)*%
X114068000Y-122182500D02*
X114068000Y-122716360D01*
X114068000Y-122716360D02*
X114271640Y-122920000D01*
X114271640Y-122920000D02*
X116412000Y-122920000D01*
X116412000Y-122920000D02*
X117158000Y-122174000D01*
%TO.N,Net-(U14-SWCLK)*%
X114705744Y-124279000D02*
X115654629Y-124279000D01*
X113268000Y-122182500D02*
X113268000Y-122841256D01*
X115654629Y-124279000D02*
X116470629Y-125095000D01*
X113268000Y-122841256D02*
X114705744Y-124279000D01*
X116470629Y-125095000D02*
X118237000Y-125095000D01*
%TO.N,Net-(U14-SWD)*%
X113668000Y-122182500D02*
X113668000Y-122778808D01*
X114841192Y-123952000D02*
X116459000Y-123952000D01*
X113668000Y-122778808D02*
X114841192Y-123952000D01*
D52*
%TO.N,Net-(C36-Pad1)*%
X128663000Y-115484500D02*
X130187000Y-115484500D01*
X128613000Y-115534500D02*
X128663000Y-115484500D01*
X128663000Y-115484500D02*
X128131000Y-116016500D01*
X128131000Y-116016500D02*
X128131000Y-117503500D01*
X127139000Y-115534500D02*
X128613000Y-115534500D01*
%TO.N,Net-(U12-VDD33)*%
X125793500Y-102057500D02*
X125793500Y-103699000D01*
X125984000Y-101867000D02*
X125793500Y-102057500D01*
X124460000Y-101867000D02*
X125984000Y-101867000D01*
%TO.N,Net-(J10-CC1)*%
X134509500Y-98032000D02*
X135933500Y-98032000D01*
X133989500Y-100394000D02*
X133989500Y-98552000D01*
X133989500Y-98552000D02*
X134509500Y-98032000D01*
%TO.N,Net-(J10-CC2)*%
X133989500Y-95118500D02*
X133985000Y-95123000D01*
X140196000Y-96532000D02*
X138903500Y-96532000D01*
X133989500Y-94170000D02*
X133989500Y-95118500D01*
X140208000Y-96520000D02*
X140196000Y-96532000D01*
D53*
%TO.N,Net-(J13-Pin_2)*%
X99187000Y-119512000D02*
X99187000Y-116634500D01*
D54*
%TO.N,Net-(U13-~{CS})*%
X111551001Y-105537000D02*
X112351000Y-105537000D01*
X109668000Y-115307500D02*
X109220000Y-114859500D01*
X109220000Y-107868001D02*
X111551001Y-105537000D01*
D52*
X98933000Y-109919000D02*
X107169001Y-109919000D01*
D54*
X109220000Y-114859500D02*
X109220000Y-107868001D01*
D52*
X107169001Y-109919000D02*
X109220000Y-107868001D01*
%TO.N,Net-(U12-XO)*%
X124425100Y-102797400D02*
X124133400Y-102797400D01*
X121590600Y-100315600D02*
X120689000Y-99414000D01*
X120689000Y-99414000D02*
X120689000Y-99314000D01*
X123444000Y-100665800D02*
X123093800Y-100315600D01*
X124523500Y-102895800D02*
X124425100Y-102797400D01*
X124523500Y-103699000D02*
X124523500Y-102895800D01*
X123093800Y-100315600D02*
X121590600Y-100315600D01*
X124133400Y-102797400D02*
X123444000Y-102108000D01*
X123444000Y-102108000D02*
X123444000Y-100665800D01*
%TO.N,Net-(U12-XI)*%
X122389000Y-102199500D02*
X122389000Y-101514000D01*
X123888500Y-103699000D02*
X122389000Y-102199500D01*
D54*
%TO.N,Net-(U13-DO(IO1))*%
X109547000Y-109319552D02*
X112059552Y-106807000D01*
X109547000Y-114252640D02*
X109547000Y-109319552D01*
X110068000Y-114773640D02*
X109547000Y-114252640D01*
X112059552Y-106807000D02*
X112351000Y-106807000D01*
X110068000Y-115307500D02*
X110068000Y-114773640D01*
%TO.N,Net-(U13-IO2)*%
X111252000Y-108077000D02*
X112351000Y-108077000D01*
X109874000Y-109455000D02*
X111252000Y-108077000D01*
X110468000Y-115307500D02*
X110468000Y-114711192D01*
X109874000Y-114117192D02*
X109874000Y-109455000D01*
X110468000Y-114711192D02*
X109874000Y-114117192D01*
%TO.N,Net-(U13-DI(IO0))*%
X113792000Y-108331000D02*
X117983000Y-108331000D01*
X110868000Y-115307500D02*
X110868000Y-114648744D01*
X118999000Y-109347000D02*
X119551000Y-109347000D01*
X110201000Y-109763000D02*
X111252000Y-108712000D01*
X117983000Y-108331000D02*
X118999000Y-109347000D01*
X110868000Y-114648744D02*
X110201000Y-113981744D01*
X111252000Y-108712000D02*
X113411000Y-108712000D01*
X113411000Y-108712000D02*
X113792000Y-108331000D01*
X110201000Y-113981744D02*
X110201000Y-109763000D01*
%TO.N,Net-(U13-CLK)*%
X111125000Y-109982000D02*
X120356552Y-109982000D01*
X110617000Y-110490000D02*
X111125000Y-109982000D01*
X111268000Y-114570000D02*
X110617000Y-113919000D01*
X111268000Y-115307500D02*
X111268000Y-114570000D01*
X120651000Y-108377001D02*
X120350999Y-108077000D01*
X120356552Y-109982000D02*
X120651000Y-109687552D01*
X110617000Y-113919000D02*
X110617000Y-110490000D01*
X120350999Y-108077000D02*
X119551000Y-108077000D01*
X120651000Y-109687552D02*
X120651000Y-108377001D01*
%TO.N,Net-(U13-IO3)*%
X111668000Y-114389000D02*
X110944000Y-113665000D01*
X120311000Y-110490000D02*
X120978000Y-109823000D01*
X111668000Y-115307500D02*
X111668000Y-114389000D01*
X111633000Y-110490000D02*
X120311000Y-110490000D01*
X110944000Y-111179000D02*
X111633000Y-110490000D01*
X120142000Y-106807000D02*
X119551000Y-106807000D01*
X120978000Y-107643000D02*
X120142000Y-106807000D01*
X110944000Y-113665000D02*
X110944000Y-111179000D01*
X120978000Y-109823000D02*
X120978000Y-107643000D01*
D52*
%TO.N,Net-(U3A-VCCA_BR)*%
X120300000Y-88805328D02*
X120300000Y-89577500D01*
X122174000Y-91377000D02*
X120700000Y-91377000D01*
X117475000Y-85980328D02*
X120300000Y-88805328D01*
X121962500Y-77415000D02*
X118309000Y-77415000D01*
X116300000Y-75406000D02*
X116300000Y-74252500D01*
X120300000Y-89577500D02*
X120300000Y-91077000D01*
X117475000Y-78249000D02*
X117475000Y-85980328D01*
X120300000Y-91077000D02*
X120650000Y-91427000D01*
X119126000Y-91427000D02*
X120650000Y-91427000D01*
X118309000Y-77415000D02*
X117475000Y-78249000D01*
X120700000Y-91377000D02*
X120650000Y-91427000D01*
X118309000Y-77415000D02*
X116300000Y-75406000D01*
%TO.N,Net-(U8-VCCCORE)*%
X94465000Y-92492000D02*
X95659500Y-92492000D01*
X93739000Y-93218000D02*
X94465000Y-92492000D01*
%TO.N,Net-(U8-VCCA)*%
X93739000Y-91694000D02*
X95361500Y-91694000D01*
X95361500Y-91694000D02*
X95659500Y-91992000D01*
%TO.N,Net-(U8-VPHY)*%
X96724000Y-100775000D02*
X96774000Y-100825000D01*
X96774000Y-100825000D02*
X96921594Y-100825000D01*
X95250000Y-100775000D02*
X96724000Y-100775000D01*
X96921594Y-100825000D02*
X98072000Y-99674594D01*
X98072000Y-99674594D02*
X98072000Y-98904500D01*
%TO.N,Net-(U8-VPLL)*%
X101346000Y-100825000D02*
X102820000Y-100825000D01*
X101346000Y-100825000D02*
X100572000Y-100051000D01*
X102820000Y-100825000D02*
X102870000Y-100775000D01*
X100572000Y-100051000D02*
X100572000Y-98904500D01*
%TO.N,Net-(C35-Pad1)*%
X124041000Y-115534500D02*
X124091000Y-115484500D01*
X125615000Y-117487500D02*
X125631000Y-117503500D01*
X122567000Y-115534500D02*
X124041000Y-115534500D01*
X125631000Y-116731328D02*
X125631000Y-117503500D01*
X125615000Y-115484500D02*
X125615000Y-117487500D01*
X124091000Y-115484500D02*
X125615000Y-115484500D01*
%TO.N,Net-(U9-VREF)*%
X129626228Y-116236100D02*
X129131000Y-116731328D01*
X131711000Y-115484500D02*
X130959400Y-116236100D01*
X130959400Y-116236100D02*
X129626228Y-116236100D01*
X129131000Y-116731328D02*
X129131000Y-117503500D01*
X131671000Y-115498500D02*
X131698000Y-115471500D01*
%TO.N,Net-(U10-VDD)*%
X109347000Y-101854000D02*
X109220000Y-101727000D01*
X129667000Y-118872000D02*
X129667000Y-117539500D01*
X108545000Y-102402000D02*
X109220000Y-101727000D01*
X107530000Y-102402000D02*
X108545000Y-102402000D01*
X109347000Y-102857000D02*
X109347000Y-101854000D01*
X129667000Y-117539500D02*
X129631000Y-117503500D01*
%TO.N,Net-(U9-MICIN)*%
X108712000Y-100711000D02*
X108712000Y-99555000D01*
X108712000Y-99555000D02*
X108471000Y-99314000D01*
X128651000Y-117523500D02*
X128631000Y-117503500D01*
X128651000Y-118872000D02*
X128651000Y-117523500D01*
%TO.N,Net-(U10-OUT)*%
X106921000Y-101311000D02*
X106921000Y-99314000D01*
X105830000Y-102402000D02*
X106921000Y-101311000D01*
D53*
%TO.N,Net-(J14-Pin_2)*%
X103124000Y-119555500D02*
X103124000Y-116678000D01*
D52*
%TO.N,Net-(U3B-CDONE)*%
X106235000Y-88317500D02*
X106637500Y-87915000D01*
X106235000Y-89154000D02*
X106235000Y-88317500D01*
%TO.N,Net-(U3B-GPIOL_01_CCK)*%
X108300000Y-91281000D02*
X108204000Y-91377000D01*
X108300000Y-89577500D02*
X108300000Y-91281000D01*
%TO.N,Net-(U3B-GPIOL_04_CSI)*%
X104711000Y-85915000D02*
X105711000Y-86915000D01*
X105711000Y-86915000D02*
X106637500Y-86915000D01*
X104711000Y-85852000D02*
X104711000Y-85915000D01*
X106590500Y-86868000D02*
X106637500Y-86915000D01*
%TO.N,Net-(U3B-GPIOL_08_CDI0)*%
X107904751Y-84915000D02*
X108480456Y-85490705D01*
X108480456Y-85490705D02*
X108511720Y-85490705D01*
X93789000Y-95675876D02*
X93789000Y-94742000D01*
X94072346Y-95959222D02*
X93789000Y-95675876D01*
X106637500Y-84915000D02*
X107904751Y-84915000D01*
%TO.N,Net-(U3B-GPIOL_09_CDI1)*%
X111610400Y-84651600D02*
X108108325Y-84651600D01*
X107871725Y-84415000D02*
X106637500Y-84415000D01*
X108108325Y-84651600D02*
X107871725Y-84415000D01*
X104140000Y-77470000D02*
X104140000Y-76263000D01*
X111680000Y-84582000D02*
X111610400Y-84651600D01*
X106637500Y-84415000D02*
X106637500Y-84370500D01*
X106641400Y-84366600D02*
X106680000Y-84366600D01*
X106637500Y-84370500D02*
X106641400Y-84366600D01*
%TO.N,Net-(U3C-GPIOR_149_CBUS2)*%
X121962500Y-83915000D02*
X120974593Y-83915000D01*
X126111000Y-75438000D02*
X126111000Y-74994000D01*
X120974593Y-83915000D02*
X120627334Y-83567741D01*
X126111000Y-74994000D02*
X127445000Y-73660000D01*
%TO.N,Net-(U3C-GPIOR_150_CBUS1)*%
X121013300Y-84415000D02*
X120592300Y-84836000D01*
X127508000Y-72390000D02*
X128146600Y-73028600D01*
X121962500Y-84415000D02*
X121013300Y-84415000D01*
X128146600Y-74482400D02*
X127445000Y-75184000D01*
X128146600Y-73028600D02*
X128146600Y-74482400D01*
%TO.N,Net-(U3C-GPIOR_151_CBUS0)*%
X122732594Y-84915000D02*
X123450097Y-84197497D01*
X121962500Y-84915000D02*
X122732594Y-84915000D01*
X126131146Y-76835849D02*
X126258995Y-76708000D01*
X126258995Y-76708000D02*
X127445000Y-76708000D01*
X123450097Y-84197497D02*
X123450097Y-84108636D01*
%TO.N,Net-(U3C-GPIOR_158_TEST_N)*%
X127445000Y-78232000D02*
X126111000Y-78232000D01*
X123444000Y-87122000D02*
X123237000Y-86915000D01*
X123237000Y-86915000D02*
X121962500Y-86915000D01*
%TO.N,Net-(U7-CS)*%
X97770000Y-95992000D02*
X95659500Y-95992000D01*
X98425000Y-96647000D02*
X97770000Y-95992000D01*
X118745000Y-99187000D02*
X118517800Y-99414200D01*
X116832800Y-100113200D02*
X115875300Y-100113200D01*
X118517800Y-99414200D02*
X117531800Y-99414200D01*
X117531800Y-99414200D02*
X116832800Y-100113200D01*
%TO.N,Net-(U7-CLK)*%
X118643800Y-100812200D02*
X117531800Y-100812200D01*
X119634000Y-98586915D02*
X119634000Y-99822000D01*
X117531800Y-100812200D02*
X116126300Y-100812200D01*
X119634000Y-99822000D02*
X118643800Y-100812200D01*
X116126300Y-100812200D02*
X115875300Y-101063200D01*
X99314000Y-95885000D02*
X98921000Y-95492000D01*
X98921000Y-95492000D02*
X95659500Y-95492000D01*
X119593577Y-98546492D02*
X119634000Y-98586915D01*
%TO.N,Net-(U7-DI)*%
X102945400Y-97722994D02*
X102945400Y-97725072D01*
X114420800Y-102653200D02*
X114420800Y-101883700D01*
X102945400Y-97725072D02*
X103264328Y-98044000D01*
X100214406Y-94992000D02*
X102945400Y-97722994D01*
X114420800Y-101883700D02*
X113600300Y-101063200D01*
X113600300Y-101063200D02*
X111814800Y-101063200D01*
X110363000Y-99611400D02*
X111689800Y-100938200D01*
X110363000Y-98933000D02*
X110363000Y-99611400D01*
X95659500Y-94992000D02*
X100214406Y-94992000D01*
X111814800Y-101063200D02*
X111689800Y-100938200D01*
X103264328Y-98044000D02*
X109474000Y-98044000D01*
X109474000Y-98044000D02*
X110363000Y-98933000D01*
%TO.N,Net-(U7-DO)*%
X111814800Y-99163200D02*
X111689800Y-99288200D01*
X113600300Y-99163200D02*
X111814800Y-99163200D01*
%TO.N,Net-(U8-~{RESET})*%
X98072000Y-89245000D02*
X98072000Y-90579500D01*
X97473000Y-88646000D02*
X98072000Y-89245000D01*
%TO.N,Net-(U8-REF)*%
X99072000Y-98904500D02*
X99072000Y-100001000D01*
X99072000Y-100001000D02*
X98298000Y-100775000D01*
%TO.N,Net-(U9-MUTEP)*%
X124599000Y-123307672D02*
X124599000Y-121524328D01*
X123990672Y-120916000D02*
X123218500Y-120916000D01*
X124599000Y-121524328D02*
X123990672Y-120916000D01*
D54*
X121285000Y-123635000D02*
X121566000Y-123916000D01*
D52*
X123218500Y-123916000D02*
X123990672Y-123916000D01*
D54*
X121566000Y-123916000D02*
X123218500Y-123916000D01*
D52*
X126631000Y-125828500D02*
X126631000Y-125056328D01*
X126631000Y-125056328D02*
X125490672Y-123916000D01*
X131543500Y-122416000D02*
X129271328Y-122416000D01*
X129271328Y-122416000D02*
X126631000Y-125056328D01*
X125490672Y-123916000D02*
X123218500Y-123916000D01*
X123990672Y-123916000D02*
X124599000Y-123307672D01*
D54*
%TO.N,Net-(U9-LEDO)*%
X134684000Y-124714000D02*
X132532000Y-126866000D01*
X132532000Y-126866000D02*
X129898590Y-126866000D01*
X129631000Y-126598410D02*
X129631000Y-125828500D01*
X129898590Y-126866000D02*
X129631000Y-126598410D01*
D52*
%TO.N,Net-(R22-Pad1)*%
X100725000Y-111569000D02*
X100759000Y-111603000D01*
X100759000Y-111603000D02*
X106759000Y-111603000D01*
X98933000Y-111569000D02*
X100725000Y-111569000D01*
%TO.N,Net-(U3C-GPIOR_157_PLLIN)*%
X121997500Y-86450000D02*
X121962500Y-86415000D01*
X123205000Y-86415000D02*
X121962500Y-86415000D01*
X124751000Y-84869000D02*
X123205000Y-86415000D01*
X124751000Y-84419000D02*
X124751000Y-84869000D01*
D54*
%TO.N,/MCU/GPIO0*%
X107957696Y-116545000D02*
X107147000Y-116545000D01*
X107147000Y-116545000D02*
X105918000Y-115316000D01*
X108830500Y-116545000D02*
X107957696Y-116545000D01*
%TO.N,/MCU/GPIO1*%
X108830500Y-116945000D02*
X106531000Y-116945000D01*
X106531000Y-116945000D02*
X105918000Y-116332000D01*
%TO.N,/MCU/GPIO2*%
X105534000Y-117345000D02*
X105029000Y-116840000D01*
X108830500Y-117345000D02*
X105534000Y-117345000D01*
%TO.N,/MCU/GPIO3*%
X104537000Y-117745000D02*
X108830500Y-117745000D01*
X104521000Y-117729000D02*
X104537000Y-117745000D01*
%TO.N,/MCU/GPIO4*%
X105333766Y-118477747D02*
X105666513Y-118145000D01*
X105666513Y-118145000D02*
X108830500Y-118145000D01*
%TO.N,/MCU/GPIO5*%
X106310000Y-118545000D02*
X108830500Y-118545000D01*
X105221000Y-119634000D02*
X106310000Y-118545000D01*
%TO.N,/MCU/GPIO26*%
X116967000Y-118472640D02*
X116967000Y-118999000D01*
X116239360Y-117745000D02*
X116967000Y-118472640D01*
X115705500Y-117745000D02*
X116239360Y-117745000D01*
%TO.N,/MCU/GPIO27*%
X115705500Y-117345000D02*
X116489304Y-117345000D01*
X116873304Y-117729000D02*
X117475000Y-117729000D01*
X116489304Y-117345000D02*
X116873304Y-117729000D01*
X117475000Y-117729000D02*
X117983000Y-118237000D01*
D52*
%TO.N,/Level Shifters/A_RCLK_out*%
X112141000Y-63881000D02*
X112675000Y-63347000D01*
X112675000Y-63347000D02*
X112675000Y-62542500D01*
%TO.N,/Level Shifters/B_out*%
X113030000Y-64389000D02*
X113325000Y-64094000D01*
X113325000Y-64094000D02*
X113325000Y-62542500D01*
%TO.N,/Level Shifters/C_RDAT_out*%
X113975000Y-64847989D02*
X113975000Y-62542500D01*
X113925989Y-64897000D02*
X113975000Y-64847989D01*
%TO.N,/Level Shifters/D_out*%
X114625000Y-64714000D02*
X114625000Y-62542500D01*
X114808000Y-64897000D02*
X114625000Y-64714000D01*
X114808000Y-65405000D02*
X114808000Y-64897000D01*
%TO.N,/FPGA/C_ROW_DATA*%
X113325000Y-68925718D02*
X113325000Y-68267500D01*
X114800000Y-70400718D02*
X113325000Y-68925718D01*
X114800000Y-74252500D02*
X114800000Y-70400718D01*
%TO.N,/FPGA/D*%
X115300000Y-74252500D02*
X115300000Y-70250718D01*
X115300000Y-70250718D02*
X113975000Y-68925718D01*
X113975000Y-68925718D02*
X113975000Y-68267500D01*
%TO.N,/FPGA/B*%
X114300000Y-74252500D02*
X114300000Y-70430067D01*
X113389733Y-69519800D02*
X113030000Y-69519800D01*
X113030000Y-69519800D02*
X112675000Y-69164800D01*
X114300000Y-70430067D02*
X113389733Y-69519800D01*
X112675000Y-69164800D02*
X112675000Y-68267500D01*
%TO.N,/FPGA/A_ROW_CLK*%
X113806600Y-74245900D02*
X113806600Y-70403640D01*
X113806600Y-70403640D02*
X113252960Y-69850000D01*
X112395000Y-69850000D02*
X112025000Y-69480000D01*
X112025000Y-69480000D02*
X112025000Y-68267500D01*
X113800000Y-74252500D02*
X113806600Y-74245900D01*
X113252960Y-69850000D02*
X112395000Y-69850000D01*
%TO.N,Net-(JP1-A)*%
X112300000Y-79487000D02*
X112300000Y-74252500D01*
X137855400Y-105856600D02*
X131896600Y-105856600D01*
X138557000Y-105155000D02*
X137855400Y-105856600D01*
X116332000Y-83519000D02*
X112300000Y-79487000D01*
X116332000Y-83566000D02*
X116332000Y-83519000D01*
X131896600Y-105856600D02*
X131826000Y-105786000D01*
%TO.N,Net-(U3B-GPIOL_69_CBSEL1)*%
X111800000Y-79669000D02*
X115062000Y-82931000D01*
X111800000Y-74252500D02*
X111800000Y-79669000D01*
X115062000Y-82931000D02*
X115062000Y-83566000D01*
X135382000Y-105155000D02*
X137033000Y-105155000D01*
%TD*%
%TA.AperFunction,Conductor*%
%TO.N,GND*%
G36*
X139901539Y-91967685D02*
G01*
X139947294Y-92020489D01*
X139958500Y-92072000D01*
X139958500Y-94616500D01*
X139938815Y-94683539D01*
X139886011Y-94729294D01*
X139834500Y-94740500D01*
X139788362Y-94740500D01*
X139721323Y-94720815D01*
X139700681Y-94704181D01*
X139678500Y-94682000D01*
X138128500Y-94682000D01*
X138106319Y-94704181D01*
X138044996Y-94737666D01*
X138018638Y-94740500D01*
X136818362Y-94740500D01*
X136751323Y-94720815D01*
X136730681Y-94704181D01*
X136708500Y-94682000D01*
X135158500Y-94682000D01*
X135136319Y-94704181D01*
X135074996Y-94737666D01*
X135048638Y-94740500D01*
X135002500Y-94740500D01*
X134935461Y-94720815D01*
X134889706Y-94668011D01*
X134878500Y-94616500D01*
X134878500Y-94382000D01*
X135158500Y-94382000D01*
X135783500Y-94382000D01*
X136083500Y-94382000D01*
X136708500Y-94382000D01*
X136708500Y-94362301D01*
X136708499Y-94362297D01*
X136696897Y-94303966D01*
X136696896Y-94303965D01*
X136652691Y-94237808D01*
X136589970Y-94195899D01*
X136545165Y-94142287D01*
X136536458Y-94072962D01*
X136563872Y-94013090D01*
X136619383Y-93946935D01*
X136698067Y-93790264D01*
X136708584Y-93745888D01*
X136743198Y-93685195D01*
X136805130Y-93652850D01*
X136874718Y-93659123D01*
X136929867Y-93702022D01*
X136940962Y-93720681D01*
X136945167Y-93729413D01*
X136945168Y-93729415D01*
X136981962Y-93775552D01*
X137023217Y-93827283D01*
X137084576Y-93876216D01*
X137121084Y-93905331D01*
X137121089Y-93905334D01*
X137233862Y-93959642D01*
X137233864Y-93959642D01*
X137233869Y-93959645D01*
X137233875Y-93959646D01*
X137233877Y-93959647D01*
X137355904Y-93987499D01*
X137355907Y-93987499D01*
X137355910Y-93987500D01*
X137355912Y-93987500D01*
X137481088Y-93987500D01*
X137481090Y-93987500D01*
X137481093Y-93987499D01*
X137481095Y-93987499D01*
X137603122Y-93959647D01*
X137603121Y-93959647D01*
X137603131Y-93959645D01*
X137715914Y-93905332D01*
X137813783Y-93827283D01*
X137891832Y-93729414D01*
X137895413Y-93721977D01*
X137942232Y-93670117D01*
X138009659Y-93651801D01*
X138076284Y-93672846D01*
X138120954Y-93726570D01*
X138123657Y-93733364D01*
X138173712Y-93870889D01*
X138274024Y-94023407D01*
X138272548Y-94024377D01*
X138296871Y-94079962D01*
X138285826Y-94148954D01*
X138242758Y-94198753D01*
X138184308Y-94237808D01*
X138140103Y-94303965D01*
X138140102Y-94303966D01*
X138128500Y-94362297D01*
X138128500Y-94382000D01*
X138753500Y-94382000D01*
X139053500Y-94382000D01*
X139678500Y-94382000D01*
X139678500Y-94362301D01*
X139678499Y-94362297D01*
X139666897Y-94303966D01*
X139666896Y-94303965D01*
X139622691Y-94237808D01*
X139556534Y-94193603D01*
X139518483Y-94186034D01*
X139456572Y-94153649D01*
X139421998Y-94092933D01*
X139425739Y-94023163D01*
X139447687Y-93984710D01*
X139479381Y-93946938D01*
X139479382Y-93946936D01*
X139558068Y-93790261D01*
X139560026Y-93782000D01*
X139348500Y-93782000D01*
X139348500Y-94201000D01*
X139328815Y-94268039D01*
X139276011Y-94313794D01*
X139224500Y-94325000D01*
X139053500Y-94325000D01*
X139053500Y-94382000D01*
X138753500Y-94382000D01*
X138753500Y-94325000D01*
X138472500Y-94325000D01*
X138405461Y-94305315D01*
X138359706Y-94252511D01*
X138348500Y-94201000D01*
X138348500Y-93559802D01*
X138548500Y-93559802D01*
X138563912Y-93642250D01*
X138622957Y-93737610D01*
X138712462Y-93805201D01*
X138820340Y-93835895D01*
X138932021Y-93825546D01*
X139032422Y-93775552D01*
X139107984Y-93692666D01*
X139148500Y-93588080D01*
X139148500Y-93004198D01*
X139133088Y-92921750D01*
X139074043Y-92826390D01*
X138984538Y-92758799D01*
X138876660Y-92728105D01*
X138764979Y-92738454D01*
X138664578Y-92788448D01*
X138589016Y-92871334D01*
X138548500Y-92975920D01*
X138548500Y-93559802D01*
X138348500Y-93559802D01*
X138348500Y-92472617D01*
X139348500Y-92472617D01*
X139348500Y-92782000D01*
X139555640Y-92782000D01*
X139523288Y-92693111D01*
X139426943Y-92546626D01*
X139348500Y-92472617D01*
X138348500Y-92472617D01*
X138348500Y-92469216D01*
X138348499Y-92469216D01*
X138330317Y-92482753D01*
X138217618Y-92617061D01*
X138217617Y-92617063D01*
X138138932Y-92773737D01*
X138128414Y-92818114D01*
X138093799Y-92878806D01*
X138031866Y-92911150D01*
X137962279Y-92904875D01*
X137907130Y-92861975D01*
X137896038Y-92843320D01*
X137891832Y-92834586D01*
X137891831Y-92834585D01*
X137891830Y-92834582D01*
X137849421Y-92781405D01*
X137813783Y-92736717D01*
X137759104Y-92693111D01*
X137715915Y-92658668D01*
X137715910Y-92658665D01*
X137603137Y-92604357D01*
X137603122Y-92604352D01*
X137481095Y-92576500D01*
X137481090Y-92576500D01*
X137458382Y-92576500D01*
X137418500Y-92576500D01*
X137355910Y-92576500D01*
X137355904Y-92576500D01*
X137233877Y-92604352D01*
X137233862Y-92604357D01*
X137121089Y-92658665D01*
X137121084Y-92658668D01*
X137023217Y-92736717D01*
X136945168Y-92834584D01*
X136945165Y-92834589D01*
X136941582Y-92842030D01*
X136894757Y-92893888D01*
X136827330Y-92912198D01*
X136760706Y-92891147D01*
X136716040Y-92837419D01*
X136713342Y-92830634D01*
X136663288Y-92693111D01*
X136566943Y-92546626D01*
X136488500Y-92472617D01*
X136488500Y-94201000D01*
X136468815Y-94268039D01*
X136416011Y-94313794D01*
X136364500Y-94325000D01*
X136083500Y-94325000D01*
X136083500Y-94382000D01*
X135783500Y-94382000D01*
X135783500Y-94325000D01*
X135612500Y-94325000D01*
X135545461Y-94305315D01*
X135499706Y-94252511D01*
X135488500Y-94201000D01*
X135488500Y-93782000D01*
X135281359Y-93782000D01*
X135313711Y-93870888D01*
X135396383Y-93996585D01*
X135416775Y-94063413D01*
X135397800Y-94130657D01*
X135345483Y-94176967D01*
X135316974Y-94186341D01*
X135280466Y-94193603D01*
X135280465Y-94193603D01*
X135214308Y-94237808D01*
X135170103Y-94303965D01*
X135170102Y-94303966D01*
X135158500Y-94362297D01*
X135158500Y-94382000D01*
X134878500Y-94382000D01*
X134878500Y-93559802D01*
X135688500Y-93559802D01*
X135703912Y-93642250D01*
X135762957Y-93737610D01*
X135852462Y-93805201D01*
X135960340Y-93835895D01*
X136072021Y-93825546D01*
X136172422Y-93775552D01*
X136247984Y-93692666D01*
X136288500Y-93588080D01*
X136288500Y-93004198D01*
X136273088Y-92921750D01*
X136214043Y-92826390D01*
X136124538Y-92758799D01*
X136016660Y-92728105D01*
X135904979Y-92738454D01*
X135804578Y-92788448D01*
X135729016Y-92871334D01*
X135688500Y-92975920D01*
X135688500Y-93559802D01*
X134878500Y-93559802D01*
X134878500Y-92781999D01*
X135276973Y-92781999D01*
X135276974Y-92782000D01*
X135488500Y-92782000D01*
X135488500Y-92469216D01*
X135488499Y-92469216D01*
X135470317Y-92482753D01*
X135357618Y-92617061D01*
X135357617Y-92617063D01*
X135278931Y-92773738D01*
X135276973Y-92781999D01*
X134878500Y-92781999D01*
X134878500Y-92072000D01*
X134898185Y-92004961D01*
X134950989Y-91959206D01*
X135002500Y-91948000D01*
X139834500Y-91948000D01*
X139901539Y-91967685D01*
G37*
%TD.AperFunction*%
%TD*%
%TA.AperFunction,Conductor*%
%TO.N,+5V*%
G36*
X139901539Y-95015685D02*
G01*
X139947294Y-95068489D01*
X139958500Y-95120000D01*
X139958500Y-95956408D01*
X139938815Y-96023447D01*
X139909987Y-96054783D01*
X139815379Y-96127378D01*
X139815378Y-96127379D01*
X139812301Y-96131390D01*
X139755872Y-96172591D01*
X139713928Y-96179900D01*
X139664540Y-96179900D01*
X139597501Y-96160215D01*
X139595651Y-96159003D01*
X139576242Y-96146035D01*
X139576235Y-96146032D01*
X139503177Y-96131500D01*
X139503174Y-96131500D01*
X138303826Y-96131500D01*
X138303823Y-96131500D01*
X138230764Y-96146032D01*
X138230760Y-96146033D01*
X138180075Y-96179900D01*
X138159705Y-96193511D01*
X138147898Y-96201400D01*
X138147895Y-96201402D01*
X138141556Y-96210891D01*
X138087944Y-96255696D01*
X138038454Y-96266000D01*
X137487359Y-96266000D01*
X137420320Y-96246315D01*
X137411873Y-96240376D01*
X137315125Y-96166139D01*
X137315123Y-96166138D01*
X137181212Y-96110671D01*
X137181210Y-96110670D01*
X137181209Y-96110670D01*
X137109354Y-96101210D01*
X137037501Y-96091750D01*
X137037499Y-96091750D01*
X136893791Y-96110670D01*
X136893787Y-96110671D01*
X136752366Y-96169249D01*
X136751819Y-96167928D01*
X136692456Y-96182321D01*
X136629487Y-96161566D01*
X136606241Y-96146034D01*
X136606235Y-96146032D01*
X136533177Y-96131500D01*
X136533174Y-96131500D01*
X135333826Y-96131500D01*
X135333823Y-96131500D01*
X135260764Y-96146032D01*
X135260760Y-96146033D01*
X135210075Y-96179900D01*
X135189705Y-96193511D01*
X135177898Y-96201400D01*
X135177895Y-96201402D01*
X135171556Y-96210891D01*
X135117944Y-96255696D01*
X135068454Y-96266000D01*
X135002500Y-96266000D01*
X134935461Y-96246315D01*
X134889706Y-96193511D01*
X134878500Y-96142000D01*
X134878500Y-95120000D01*
X134898185Y-95052961D01*
X134950989Y-95007206D01*
X135002500Y-94996000D01*
X139834500Y-94996000D01*
X139901539Y-95015685D01*
G37*
%TD.AperFunction*%
%TD*%
%TA.AperFunction,Conductor*%
%TO.N,+5V*%
G36*
X137289680Y-98317685D02*
G01*
X137298127Y-98323624D01*
X137359203Y-98370489D01*
X137394875Y-98397861D01*
X137528791Y-98453330D01*
X137655780Y-98470048D01*
X137672499Y-98472250D01*
X137672500Y-98472250D01*
X137672501Y-98472250D01*
X137687477Y-98470278D01*
X137816209Y-98453330D01*
X137950125Y-98397861D01*
X137996251Y-98362466D01*
X138061417Y-98337273D01*
X138129862Y-98351311D01*
X138140627Y-98357741D01*
X138147897Y-98362599D01*
X138147899Y-98362601D01*
X138230760Y-98417966D01*
X138230762Y-98417966D01*
X138230764Y-98417967D01*
X138303821Y-98432499D01*
X138303824Y-98432500D01*
X138303826Y-98432500D01*
X139503176Y-98432500D01*
X139503177Y-98432499D01*
X139576240Y-98417966D01*
X139659101Y-98362601D01*
X139659190Y-98362468D01*
X139665444Y-98353109D01*
X139719056Y-98308304D01*
X139768546Y-98298000D01*
X139834500Y-98298000D01*
X139901539Y-98317685D01*
X139947294Y-98370489D01*
X139958500Y-98422000D01*
X139958500Y-99444000D01*
X139938815Y-99511039D01*
X139886011Y-99556794D01*
X139834500Y-99568000D01*
X135002500Y-99568000D01*
X134935461Y-99548315D01*
X134889706Y-99495511D01*
X134878500Y-99444000D01*
X134878500Y-98508100D01*
X134898185Y-98441061D01*
X134950989Y-98395306D01*
X135002500Y-98384100D01*
X135172460Y-98384100D01*
X135239499Y-98403785D01*
X135241349Y-98404997D01*
X135260757Y-98417964D01*
X135260760Y-98417966D01*
X135260763Y-98417966D01*
X135260764Y-98417967D01*
X135333821Y-98432499D01*
X135333824Y-98432500D01*
X135333826Y-98432500D01*
X136533176Y-98432500D01*
X136533177Y-98432499D01*
X136606240Y-98417966D01*
X136689101Y-98362601D01*
X136689190Y-98362468D01*
X136695444Y-98353109D01*
X136749056Y-98308304D01*
X136798546Y-98298000D01*
X137222641Y-98298000D01*
X137289680Y-98317685D01*
G37*
%TD.AperFunction*%
%TD*%
%TA.AperFunction,Conductor*%
%TO.N,GND*%
G36*
X135115677Y-99843185D02*
G01*
X135136319Y-99859819D01*
X135158500Y-99882000D01*
X136708500Y-99882000D01*
X136730681Y-99859819D01*
X136792004Y-99826334D01*
X136818362Y-99823500D01*
X138018638Y-99823500D01*
X138085677Y-99843185D01*
X138106319Y-99859819D01*
X138128500Y-99882000D01*
X139678500Y-99882000D01*
X139700681Y-99859819D01*
X139762004Y-99826334D01*
X139788362Y-99823500D01*
X139834500Y-99823500D01*
X139901539Y-99843185D01*
X139947294Y-99895989D01*
X139958500Y-99947500D01*
X139958500Y-102492000D01*
X139938815Y-102559039D01*
X139886011Y-102604794D01*
X139834500Y-102616000D01*
X135002500Y-102616000D01*
X134935461Y-102596315D01*
X134889706Y-102543511D01*
X134878500Y-102492000D01*
X134878500Y-101782000D01*
X135281359Y-101782000D01*
X135313711Y-101870888D01*
X135410056Y-102017375D01*
X135410058Y-102017376D01*
X135488499Y-102091380D01*
X135488500Y-102091380D01*
X135488500Y-101782000D01*
X135281359Y-101782000D01*
X134878500Y-101782000D01*
X134878500Y-101559802D01*
X135688500Y-101559802D01*
X135703912Y-101642250D01*
X135762957Y-101737610D01*
X135852462Y-101805201D01*
X135960340Y-101835895D01*
X136072021Y-101825546D01*
X136172422Y-101775552D01*
X136247984Y-101692666D01*
X136288500Y-101588080D01*
X136288500Y-101004198D01*
X136273088Y-100921750D01*
X136214043Y-100826390D01*
X136124538Y-100758799D01*
X136016660Y-100728105D01*
X135904979Y-100738454D01*
X135804578Y-100788448D01*
X135729016Y-100871334D01*
X135688500Y-100975920D01*
X135688500Y-101559802D01*
X134878500Y-101559802D01*
X134878500Y-100182000D01*
X135158500Y-100182000D01*
X135158500Y-100201702D01*
X135170102Y-100260033D01*
X135170103Y-100260034D01*
X135214308Y-100326191D01*
X135280464Y-100370395D01*
X135318514Y-100377964D01*
X135380426Y-100410349D01*
X135415000Y-100471065D01*
X135411261Y-100540834D01*
X135389314Y-100579287D01*
X135357618Y-100617061D01*
X135357617Y-100617063D01*
X135278931Y-100773738D01*
X135276973Y-100781999D01*
X135276974Y-100782000D01*
X135488500Y-100782000D01*
X135488500Y-100363000D01*
X135508185Y-100295961D01*
X135560989Y-100250206D01*
X135612500Y-100239000D01*
X135783500Y-100239000D01*
X135783500Y-100182000D01*
X136083500Y-100182000D01*
X136083500Y-100239000D01*
X136364500Y-100239000D01*
X136431539Y-100258685D01*
X136477294Y-100311489D01*
X136488500Y-100363000D01*
X136488500Y-102094781D01*
X136506687Y-102081241D01*
X136619381Y-101946938D01*
X136619382Y-101946936D01*
X136698067Y-101790264D01*
X136717573Y-101707959D01*
X136752187Y-101647266D01*
X136814119Y-101614921D01*
X136883707Y-101621194D01*
X136938856Y-101664093D01*
X136942925Y-101670108D01*
X136945139Y-101673597D01*
X136945142Y-101673600D01*
X137057394Y-101779012D01*
X137057402Y-101779018D01*
X137192341Y-101853201D01*
X137192345Y-101853203D01*
X137341502Y-101891500D01*
X137341506Y-101891500D01*
X137456842Y-101891500D01*
X137456844Y-101891500D01*
X137456849Y-101891499D01*
X137456853Y-101891499D01*
X137468132Y-101890073D01*
X137571281Y-101877043D01*
X137714462Y-101820354D01*
X137714462Y-101820353D01*
X137714464Y-101820353D01*
X137839045Y-101729840D01*
X137839047Y-101729838D01*
X137898178Y-101658361D01*
X137956078Y-101619253D01*
X138025929Y-101617657D01*
X138085555Y-101654078D01*
X138109703Y-101699925D01*
X138111278Y-101699352D01*
X138173712Y-101870889D01*
X138270056Y-102017375D01*
X138270058Y-102017376D01*
X138348499Y-102091380D01*
X138348500Y-102091380D01*
X138348500Y-101559802D01*
X138548500Y-101559802D01*
X138563912Y-101642250D01*
X138622957Y-101737610D01*
X138712462Y-101805201D01*
X138820340Y-101835895D01*
X138932021Y-101825546D01*
X139019473Y-101782000D01*
X139348500Y-101782000D01*
X139348500Y-102094781D01*
X139366687Y-102081241D01*
X139479381Y-101946938D01*
X139479382Y-101946936D01*
X139558068Y-101790261D01*
X139560026Y-101782000D01*
X139348500Y-101782000D01*
X139019473Y-101782000D01*
X139032422Y-101775552D01*
X139107984Y-101692666D01*
X139148500Y-101588080D01*
X139148500Y-101004198D01*
X139133088Y-100921750D01*
X139074043Y-100826390D01*
X138984538Y-100758799D01*
X138876660Y-100728105D01*
X138764979Y-100738454D01*
X138664578Y-100788448D01*
X138589016Y-100871334D01*
X138548500Y-100975920D01*
X138548500Y-101559802D01*
X138348500Y-101559802D01*
X138348500Y-100363000D01*
X138368185Y-100295961D01*
X138420989Y-100250206D01*
X138472500Y-100239000D01*
X138753500Y-100239000D01*
X138753500Y-100182000D01*
X139053500Y-100182000D01*
X139053500Y-100239000D01*
X139224500Y-100239000D01*
X139291539Y-100258685D01*
X139337294Y-100311489D01*
X139348500Y-100363000D01*
X139348500Y-100782000D01*
X139555640Y-100782000D01*
X139523288Y-100693111D01*
X139440616Y-100567414D01*
X139420224Y-100500586D01*
X139439198Y-100433342D01*
X139491516Y-100387032D01*
X139520028Y-100377657D01*
X139556535Y-100370395D01*
X139622691Y-100326191D01*
X139666896Y-100260034D01*
X139666897Y-100260033D01*
X139678499Y-100201702D01*
X139678500Y-100201699D01*
X139678500Y-100182000D01*
X139053500Y-100182000D01*
X138753500Y-100182000D01*
X138128500Y-100182000D01*
X138128500Y-100201702D01*
X138140102Y-100260033D01*
X138140103Y-100260034D01*
X138184307Y-100326191D01*
X138247028Y-100368099D01*
X138291834Y-100421711D01*
X138300541Y-100491036D01*
X138273128Y-100550907D01*
X138217617Y-100617062D01*
X138217617Y-100617063D01*
X138138931Y-100773738D01*
X138119425Y-100856042D01*
X138084811Y-100916735D01*
X138022878Y-100949078D01*
X137953291Y-100942805D01*
X137898142Y-100899905D01*
X137894072Y-100893888D01*
X137891859Y-100890400D01*
X137891857Y-100890399D01*
X137779605Y-100784987D01*
X137779597Y-100784981D01*
X137644658Y-100710798D01*
X137644648Y-100710795D01*
X137495501Y-100672500D01*
X137495498Y-100672500D01*
X137380156Y-100672500D01*
X137380146Y-100672500D01*
X137276122Y-100685642D01*
X137265719Y-100686957D01*
X137250176Y-100693111D01*
X137122535Y-100743646D01*
X136997954Y-100834159D01*
X136938820Y-100905640D01*
X136880920Y-100944746D01*
X136811068Y-100946342D01*
X136751443Y-100909920D01*
X136727299Y-100864073D01*
X136725722Y-100864648D01*
X136663287Y-100693110D01*
X136562976Y-100540593D01*
X136564453Y-100539621D01*
X136540131Y-100484055D01*
X136551165Y-100415062D01*
X136594242Y-100365246D01*
X136652692Y-100326191D01*
X136696896Y-100260034D01*
X136696897Y-100260033D01*
X136708499Y-100201702D01*
X136708500Y-100201699D01*
X136708500Y-100182000D01*
X136083500Y-100182000D01*
X135783500Y-100182000D01*
X135158500Y-100182000D01*
X134878500Y-100182000D01*
X134878500Y-99947500D01*
X134898185Y-99880461D01*
X134950989Y-99834706D01*
X135002500Y-99823500D01*
X135048638Y-99823500D01*
X135115677Y-99843185D01*
G37*
%TD.AperFunction*%
%TD*%
M02*
