%TF.GenerationSoftware,KiCad,Pcbnew,7.0.10*%
%TF.CreationDate,2024-01-24T17:50:34-06:00*%
%TF.ProjectId,HUB75-FPGA-Card,48554237-352d-4465-9047-412d43617264,rev?*%
%TF.SameCoordinates,Original*%
%TF.FileFunction,Copper,L1,Top*%
%TF.FilePolarity,Positive*%
%FSLAX46Y46*%
G04 Gerber Fmt 4.6, Leading zero omitted, Abs format (unit mm)*
G04 Created by KiCad (PCBNEW 7.0.10) date 2024-01-24 17:50:34*
%MOMM*%
%LPD*%
G01*
G04 APERTURE LIST*
G04 Aperture macros list*
%AMRoundRect*
0 Rectangle with rounded corners*
0 $1 Rounding radius*
0 $2 $3 $4 $5 $6 $7 $8 $9 X,Y pos of 4 corners*
0 Add a 4 corners polygon primitive as box body*
4,1,4,$2,$3,$4,$5,$6,$7,$8,$9,$2,$3,0*
0 Add four circle primitives for the rounded corners*
1,1,$1+$1,$2,$3*
1,1,$1+$1,$4,$5*
1,1,$1+$1,$6,$7*
1,1,$1+$1,$8,$9*
0 Add four rect primitives between the rounded corners*
20,1,$1+$1,$2,$3,$4,$5,0*
20,1,$1+$1,$4,$5,$6,$7,0*
20,1,$1+$1,$6,$7,$8,$9,0*
20,1,$1+$1,$8,$9,$2,$3,0*%
G04 Aperture macros list end*
%TA.AperFunction,SMDPad,CuDef*%
%ADD10RoundRect,0.225000X-0.250000X0.225000X-0.250000X-0.225000X0.250000X-0.225000X0.250000X0.225000X0*%
%TD*%
%TA.AperFunction,SMDPad,CuDef*%
%ADD11RoundRect,0.200000X-0.200000X-0.275000X0.200000X-0.275000X0.200000X0.275000X-0.200000X0.275000X0*%
%TD*%
%TA.AperFunction,SMDPad,CuDef*%
%ADD12RoundRect,0.200000X-0.275000X0.200000X-0.275000X-0.200000X0.275000X-0.200000X0.275000X0.200000X0*%
%TD*%
%TA.AperFunction,SMDPad,CuDef*%
%ADD13RoundRect,0.225000X0.250000X-0.225000X0.250000X0.225000X-0.250000X0.225000X-0.250000X-0.225000X0*%
%TD*%
%TA.AperFunction,SMDPad,CuDef*%
%ADD14RoundRect,0.200000X0.275000X-0.200000X0.275000X0.200000X-0.275000X0.200000X-0.275000X-0.200000X0*%
%TD*%
%TA.AperFunction,SMDPad,CuDef*%
%ADD15RoundRect,0.150000X-0.512500X-0.150000X0.512500X-0.150000X0.512500X0.150000X-0.512500X0.150000X0*%
%TD*%
%TA.AperFunction,SMDPad,CuDef*%
%ADD16RoundRect,0.225000X0.225000X0.250000X-0.225000X0.250000X-0.225000X-0.250000X0.225000X-0.250000X0*%
%TD*%
%TA.AperFunction,SMDPad,CuDef*%
%ADD17C,0.800000*%
%TD*%
%TA.AperFunction,ComponentPad*%
%ADD18RoundRect,0.250000X-0.600000X-0.600000X0.600000X-0.600000X0.600000X0.600000X-0.600000X0.600000X0*%
%TD*%
%TA.AperFunction,ComponentPad*%
%ADD19C,1.700000*%
%TD*%
%TA.AperFunction,ComponentPad*%
%ADD20R,1.700000X1.700000*%
%TD*%
%TA.AperFunction,ComponentPad*%
%ADD21O,1.700000X1.700000*%
%TD*%
%TA.AperFunction,SMDPad,CuDef*%
%ADD22RoundRect,0.225000X-0.225000X-0.250000X0.225000X-0.250000X0.225000X0.250000X-0.225000X0.250000X0*%
%TD*%
%TA.AperFunction,SMDPad,CuDef*%
%ADD23RoundRect,0.200000X0.200000X0.275000X-0.200000X0.275000X-0.200000X-0.275000X0.200000X-0.275000X0*%
%TD*%
%TA.AperFunction,SMDPad,CuDef*%
%ADD24RoundRect,0.100000X0.100000X-0.637500X0.100000X0.637500X-0.100000X0.637500X-0.100000X-0.637500X0*%
%TD*%
%TA.AperFunction,SMDPad,CuDef*%
%ADD25R,1.200000X1.400000*%
%TD*%
%TA.AperFunction,ComponentPad*%
%ADD26RoundRect,0.250002X-1.699998X-1.699998X1.699998X-1.699998X1.699998X1.699998X-1.699998X1.699998X0*%
%TD*%
%TA.AperFunction,SMDPad,CuDef*%
%ADD27RoundRect,0.150000X0.425000X-0.150000X0.425000X0.150000X-0.425000X0.150000X-0.425000X-0.150000X0*%
%TD*%
%TA.AperFunction,SMDPad,CuDef*%
%ADD28RoundRect,0.075000X0.500000X-0.075000X0.500000X0.075000X-0.500000X0.075000X-0.500000X-0.075000X0*%
%TD*%
%TA.AperFunction,ComponentPad*%
%ADD29O,2.100000X1.000000*%
%TD*%
%TA.AperFunction,ComponentPad*%
%ADD30O,1.800000X1.000000*%
%TD*%
%TA.AperFunction,SMDPad,CuDef*%
%ADD31RoundRect,0.218750X-0.218750X-0.256250X0.218750X-0.256250X0.218750X0.256250X-0.218750X0.256250X0*%
%TD*%
%TA.AperFunction,SMDPad,CuDef*%
%ADD32RoundRect,0.075000X-0.662500X-0.075000X0.662500X-0.075000X0.662500X0.075000X-0.662500X0.075000X0*%
%TD*%
%TA.AperFunction,SMDPad,CuDef*%
%ADD33RoundRect,0.075000X-0.075000X-0.662500X0.075000X-0.662500X0.075000X0.662500X-0.075000X0.662500X0*%
%TD*%
%TA.AperFunction,SMDPad,CuDef*%
%ADD34RoundRect,0.200000X0.200000X0.250000X-0.200000X0.250000X-0.200000X-0.250000X0.200000X-0.250000X0*%
%TD*%
%TA.AperFunction,SMDPad,CuDef*%
%ADD35RoundRect,0.150000X0.150000X-0.725000X0.150000X0.725000X-0.150000X0.725000X-0.150000X-0.725000X0*%
%TD*%
%TA.AperFunction,SMDPad,CuDef*%
%ADD36RoundRect,0.075000X0.075000X-0.662500X0.075000X0.662500X-0.075000X0.662500X-0.075000X-0.662500X0*%
%TD*%
%TA.AperFunction,SMDPad,CuDef*%
%ADD37RoundRect,0.075000X0.662500X-0.075000X0.662500X0.075000X-0.662500X0.075000X-0.662500X-0.075000X0*%
%TD*%
%TA.AperFunction,ComponentPad*%
%ADD38R,2.600000X2.600000*%
%TD*%
%TA.AperFunction,ComponentPad*%
%ADD39C,2.600000*%
%TD*%
%TA.AperFunction,ComponentPad*%
%ADD40R,1.500000X1.500000*%
%TD*%
%TA.AperFunction,ComponentPad*%
%ADD41C,1.500000*%
%TD*%
%TA.AperFunction,ComponentPad*%
%ADD42C,3.500000*%
%TD*%
%TA.AperFunction,SMDPad,CuDef*%
%ADD43R,0.400000X1.200000*%
%TD*%
%TA.AperFunction,SMDPad,CuDef*%
%ADD44RoundRect,0.150000X0.150000X-0.512500X0.150000X0.512500X-0.150000X0.512500X-0.150000X-0.512500X0*%
%TD*%
%TA.AperFunction,ViaPad*%
%ADD45C,0.800000*%
%TD*%
%TA.AperFunction,ViaPad*%
%ADD46C,1.200000*%
%TD*%
%TA.AperFunction,Conductor*%
%ADD47C,0.203200*%
%TD*%
%TA.AperFunction,Conductor*%
%ADD48C,0.210820*%
%TD*%
G04 APERTURE END LIST*
D10*
%TO.P,C28,1*%
%TO.N,Net-(U7-VPHY)*%
X96774000Y-100825000D03*
%TO.P,C28,2*%
%TO.N,GND*%
X96774000Y-102375000D03*
%TD*%
D11*
%TO.P,R12,1*%
%TO.N,Net-(U7-~{RESET})*%
X97473000Y-88646000D03*
%TO.P,R12,2*%
%TO.N,+3.3VP*%
X99123000Y-88646000D03*
%TD*%
D12*
%TO.P,R13,1*%
%TO.N,+3.3VP*%
X112014000Y-100521000D03*
%TO.P,R13,2*%
%TO.N,Net-(U7-EECS)*%
X112014000Y-102171000D03*
%TD*%
D13*
%TO.P,C9,1*%
%TO.N,+1V2*%
X113030000Y-72403000D03*
%TO.P,C9,2*%
%TO.N,GND*%
X113030000Y-70853000D03*
%TD*%
D14*
%TO.P,R14,1*%
%TO.N,+3.3VP*%
X112014000Y-105219000D03*
%TO.P,R14,2*%
%TO.N,Net-(U7-EECLK)*%
X112014000Y-103569000D03*
%TD*%
D10*
%TO.P,C13,1*%
%TO.N,Net-(U1A-VCCA_BR)*%
X121158000Y-91427000D03*
%TO.P,C13,2*%
%TO.N,GND*%
X121158000Y-92977000D03*
%TD*%
D15*
%TO.P,U8,1,DO*%
%TO.N,Net-(U8-DO)*%
X108082500Y-101920000D03*
%TO.P,U8,2,GND*%
%TO.N,GND*%
X108082500Y-102870000D03*
%TO.P,U8,3,DI*%
%TO.N,Net-(U7-EEDATA)*%
X108082500Y-103820000D03*
%TO.P,U8,4,CLK*%
%TO.N,Net-(U7-EECLK)*%
X110357500Y-103820000D03*
%TO.P,U8,5,CS*%
%TO.N,Net-(U7-EECS)*%
X110357500Y-102870000D03*
%TO.P,U8,6,VCC*%
%TO.N,+3.3VP*%
X110357500Y-101920000D03*
%TD*%
D16*
%TO.P,C54,1*%
%TO.N,+5V*%
X128537000Y-99822000D03*
%TO.P,C54,2*%
%TO.N,GND*%
X126987000Y-99822000D03*
%TD*%
D17*
%TO.P,U9,1,VDD*%
%TO.N,Net-(U10-VBIAS)*%
X100330000Y-128604000D03*
%TO.P,U9,2,GND*%
%TO.N,GND*%
X100330000Y-131064000D03*
%TO.P,U9,3,GND*%
X98630000Y-131064000D03*
%TO.P,U9,4,OUT*%
%TO.N,Net-(U9-OUT)*%
X98630000Y-128604000D03*
%TD*%
D18*
%TO.P,J6,1,Pin_1*%
%TO.N,/Level Shifters/B3_out*%
X133985000Y-62230000D03*
D19*
%TO.P,J6,2,Pin_2*%
%TO.N,/Level Shifters/G3_out*%
X136525000Y-62230000D03*
%TO.P,J6,3,Pin_3*%
%TO.N,/Level Shifters/R3_out*%
X133985000Y-64770000D03*
%TO.P,J6,4,Pin_4*%
%TO.N,GND*%
X136525000Y-64770000D03*
%TO.P,J6,5,Pin_5*%
%TO.N,/Level Shifters/B4_out*%
X133985000Y-67310000D03*
%TO.P,J6,6,Pin_6*%
%TO.N,/Level Shifters/G4_out*%
X136525000Y-67310000D03*
%TO.P,J6,7,Pin_7*%
%TO.N,/Level Shifters/R4_out*%
X133985000Y-69850000D03*
%TO.P,J6,8,Pin_8*%
%TO.N,GND*%
X136525000Y-69850000D03*
%TO.P,J6,9,Pin_9*%
%TO.N,/Level Shifters/RCLK_out*%
X133985000Y-72390000D03*
%TO.P,J6,10,Pin_10*%
%TO.N,GND*%
X136525000Y-72390000D03*
%TO.P,J6,11,Pin_11*%
%TO.N,/Level Shifters/RDAT_out*%
X133985000Y-74930000D03*
%TO.P,J6,12,Pin_12*%
%TO.N,GND*%
X136525000Y-74930000D03*
%TO.P,J6,13,Pin_13*%
%TO.N,/Level Shifters/CLK_out*%
X133985000Y-77470000D03*
%TO.P,J6,14,Pin_14*%
%TO.N,/Level Shifters/LAT_out*%
X136525000Y-77470000D03*
%TO.P,J6,15,Pin_15*%
%TO.N,/Level Shifters/BLNK_out*%
X133985000Y-80010000D03*
%TO.P,J6,16,Pin_16*%
%TO.N,GND*%
X136525000Y-80010000D03*
%TD*%
D20*
%TO.P,J2,1,Pin_1*%
%TO.N,+5V*%
X104775000Y-50800000D03*
D21*
%TO.P,J2,2,Pin_2*%
%TO.N,/Level Shifters/LED1_out*%
X104775000Y-53340000D03*
%TO.P,J2,3,Pin_3*%
%TO.N,GND*%
X104775000Y-55880000D03*
%TD*%
D22*
%TO.P,C23,1*%
%TO.N,+3V3*%
X100637000Y-76962000D03*
%TO.P,C23,2*%
%TO.N,GND*%
X102187000Y-76962000D03*
%TD*%
%TO.P,C6,1*%
%TO.N,+1V2*%
X123939000Y-81280000D03*
%TO.P,C6,2*%
%TO.N,GND*%
X125489000Y-81280000D03*
%TD*%
D10*
%TO.P,C4,1*%
%TO.N,+1V2*%
X110490000Y-91427000D03*
%TO.P,C4,2*%
%TO.N,GND*%
X110490000Y-92977000D03*
%TD*%
D20*
%TO.P,J7,1,Pin_1*%
%TO.N,+5V*%
X123825000Y-50800000D03*
D21*
%TO.P,J7,2,Pin_2*%
%TO.N,/Level Shifters/LED4_out*%
X123825000Y-53340000D03*
%TO.P,J7,3,Pin_3*%
%TO.N,GND*%
X123825000Y-55880000D03*
%TD*%
D14*
%TO.P,R19,1*%
%TO.N,/USB Audio/3.3VCM*%
X107286500Y-116153000D03*
%TO.P,R19,2*%
%TO.N,Net-(U10-MUTEP)*%
X107286500Y-114503000D03*
%TD*%
D13*
%TO.P,C14,1*%
%TO.N,+3V3*%
X121666000Y-73673000D03*
%TO.P,C14,2*%
%TO.N,GND*%
X121666000Y-72123000D03*
%TD*%
%TO.P,C7,1*%
%TO.N,+1V2*%
X123190000Y-73673000D03*
%TO.P,C7,2*%
%TO.N,GND*%
X123190000Y-72123000D03*
%TD*%
D23*
%TO.P,FB5,1*%
%TO.N,+5V*%
X121065500Y-116852000D03*
%TO.P,FB5,2*%
%TO.N,Net-(C40-Pad1)*%
X119415500Y-116852000D03*
%TD*%
D22*
%TO.P,C55,1*%
%TO.N,+5V*%
X100317000Y-108458000D03*
%TO.P,C55,2*%
%TO.N,GND*%
X101867000Y-108458000D03*
%TD*%
D14*
%TO.P,R18,1*%
%TO.N,Net-(U10-LEDO)*%
X107286500Y-119201000D03*
%TO.P,R18,2*%
%TO.N,Net-(D1-A)*%
X107286500Y-117551000D03*
%TD*%
D23*
%TO.P,R3,1*%
%TO.N,+3V3*%
X129095000Y-75184000D03*
%TO.P,R3,2*%
%TO.N,Net-(U1C-GPIOR_150_CBUS1)*%
X127445000Y-75184000D03*
%TD*%
D22*
%TO.P,C31,1*%
%TO.N,+3.3VP*%
X104635000Y-90678000D03*
%TO.P,C31,2*%
%TO.N,GND*%
X106185000Y-90678000D03*
%TD*%
D24*
%TO.P,U5,1,A->B*%
%TO.N,+5V*%
X111375000Y-68267500D03*
%TO.P,U5,2,A0*%
%TO.N,/FPGA/ROW_CLK*%
X112025000Y-68267500D03*
%TO.P,U5,3,A1*%
%TO.N,/FPGA/ROW_DATA*%
X112675000Y-68267500D03*
%TO.P,U5,4,A2*%
%TO.N,/FPGA/CLKOUT*%
X113325000Y-68267500D03*
%TO.P,U5,5,A3*%
%TO.N,/FPGA/LAT*%
X113975000Y-68267500D03*
%TO.P,U5,6,A4*%
%TO.N,/FPGA/BLANK*%
X114625000Y-68267500D03*
%TO.P,U5,7,A5*%
%TO.N,GND*%
X115275000Y-68267500D03*
%TO.P,U5,8,A6*%
X115925000Y-68267500D03*
%TO.P,U5,9,A7*%
X116575000Y-68267500D03*
%TO.P,U5,10,GND*%
X117225000Y-68267500D03*
%TO.P,U5,11,B7*%
%TO.N,unconnected-(U5-B7-Pad11)*%
X117225000Y-62542500D03*
%TO.P,U5,12,B6*%
%TO.N,unconnected-(U5-B6-Pad12)*%
X116575000Y-62542500D03*
%TO.P,U5,13,B5*%
%TO.N,unconnected-(U5-B5-Pad13)*%
X115925000Y-62542500D03*
%TO.P,U5,14,B4*%
%TO.N,/Level Shifters/BLNK_out*%
X115275000Y-62542500D03*
%TO.P,U5,15,B3*%
%TO.N,/Level Shifters/LAT_out*%
X114625000Y-62542500D03*
%TO.P,U5,16,B2*%
%TO.N,/Level Shifters/CLK_out*%
X113975000Y-62542500D03*
%TO.P,U5,17,B1*%
%TO.N,/Level Shifters/RDAT_out*%
X113325000Y-62542500D03*
%TO.P,U5,18,B0*%
%TO.N,/Level Shifters/RCLK_out*%
X112675000Y-62542500D03*
%TO.P,U5,19,CE*%
%TO.N,GND*%
X112025000Y-62542500D03*
%TO.P,U5,20,VCC*%
%TO.N,+5V*%
X111375000Y-62542500D03*
%TD*%
D16*
%TO.P,C49,1*%
%TO.N,Net-(U10-LOR)*%
X118885000Y-123698000D03*
%TO.P,C49,2*%
%TO.N,Net-(U11-INR)*%
X117335000Y-123698000D03*
%TD*%
D13*
%TO.P,C47,1*%
%TO.N,Net-(U10-MICIN)*%
X96737000Y-131215500D03*
%TO.P,C47,2*%
%TO.N,Net-(U9-OUT)*%
X96737000Y-129665500D03*
%TD*%
%TO.P,C22,1*%
%TO.N,+3V3*%
X109728000Y-72403000D03*
%TO.P,C22,2*%
%TO.N,GND*%
X109728000Y-70853000D03*
%TD*%
D22*
%TO.P,C16,1*%
%TO.N,+3V3*%
X123939000Y-82804000D03*
%TO.P,C16,2*%
%TO.N,GND*%
X125489000Y-82804000D03*
%TD*%
D16*
%TO.P,C20,1*%
%TO.N,+3V3*%
X104661000Y-81280000D03*
%TO.P,C20,2*%
%TO.N,GND*%
X103111000Y-81280000D03*
%TD*%
D22*
%TO.P,C41,1*%
%TO.N,Net-(C40-Pad1)*%
X119465500Y-119900000D03*
%TO.P,C41,2*%
%TO.N,GND*%
X121015500Y-119900000D03*
%TD*%
D23*
%TO.P,R10,1*%
%TO.N,+3V3*%
X96837000Y-106934000D03*
%TO.P,R10,2*%
%TO.N,/FPGA/CRESET_N*%
X95187000Y-106934000D03*
%TD*%
%TO.P,R21,1*%
%TO.N,Net-(J9-CC2)*%
X131635000Y-93218000D03*
%TO.P,R21,2*%
%TO.N,GND*%
X129985000Y-93218000D03*
%TD*%
D15*
%TO.P,U2,1,GND*%
%TO.N,GND*%
X126370500Y-89474000D03*
%TO.P,U2,2,VO*%
%TO.N,+3V3*%
X126370500Y-91374000D03*
%TO.P,U2,3,VI*%
%TO.N,+5V*%
X128645500Y-90424000D03*
%TD*%
D10*
%TO.P,C48,1*%
%TO.N,Net-(U10-LOL)*%
X120396000Y-126733000D03*
%TO.P,C48,2*%
%TO.N,Net-(U11-INL)*%
X120396000Y-128283000D03*
%TD*%
D13*
%TO.P,C50,1*%
%TO.N,Net-(U11-VREF)*%
X120396000Y-131331000D03*
%TO.P,C50,2*%
%TO.N,GND*%
X120396000Y-129781000D03*
%TD*%
D23*
%TO.P,R2,1*%
%TO.N,+3V3*%
X129095000Y-73660000D03*
%TO.P,R2,2*%
%TO.N,Net-(U1C-GPIOR_149_CBUS2)*%
X127445000Y-73660000D03*
%TD*%
D25*
%TO.P,Y1,1,1*%
%TO.N,Net-(U13-XI)*%
X118452000Y-103195000D03*
%TO.P,Y1,2,2*%
%TO.N,GND*%
X118452000Y-100995000D03*
%TO.P,Y1,3,3*%
%TO.N,Net-(U13-XO)*%
X116752000Y-100995000D03*
%TO.P,Y1,4,4*%
%TO.N,GND*%
X116752000Y-103195000D03*
%TD*%
D11*
%TO.P,R8,1*%
%TO.N,+3V3*%
X92139000Y-94742000D03*
%TO.P,R8,2*%
%TO.N,Net-(U1B-GPIOL_08_CDI0)*%
X93789000Y-94742000D03*
%TD*%
D26*
%TO.P,J11,1,Pin_1*%
%TO.N,+5V*%
X98425000Y-51435000D03*
%TD*%
D11*
%TO.P,R7,1*%
%TO.N,+3V3*%
X103061000Y-85852000D03*
%TO.P,R7,2*%
%TO.N,Net-(U1B-GPIOL_04_CSI)*%
X104711000Y-85852000D03*
%TD*%
D22*
%TO.P,C15,1*%
%TO.N,+3V3*%
X123939000Y-79756000D03*
%TO.P,C15,2*%
%TO.N,GND*%
X125489000Y-79756000D03*
%TD*%
D13*
%TO.P,C8,1*%
%TO.N,+1V2*%
X117348000Y-72403000D03*
%TO.P,C8,2*%
%TO.N,GND*%
X117348000Y-70853000D03*
%TD*%
D27*
%TO.P,J9,A1,GND*%
%TO.N,GND*%
X133480000Y-100990000D03*
%TO.P,J9,A4,VBUS*%
%TO.N,+5V*%
X133480000Y-100190000D03*
D28*
%TO.P,J9,A5,CC1*%
%TO.N,Net-(J9-CC1)*%
X133480000Y-99040000D03*
%TO.P,J9,A6,D+*%
%TO.N,/USB Hub/RAW_D+*%
X133480000Y-98040000D03*
%TO.P,J9,A7,D-*%
%TO.N,/USB Hub/RAW_D-*%
X133480000Y-97540000D03*
%TO.P,J9,A8,SBU1*%
%TO.N,unconnected-(J9-SBU1-PadA8)*%
X133480000Y-96540000D03*
D27*
%TO.P,J9,A9,VBUS*%
%TO.N,+5V*%
X133480000Y-95390000D03*
%TO.P,J9,A12,GND*%
%TO.N,GND*%
X133480000Y-94590000D03*
%TO.P,J9,B1,GND*%
X133480000Y-94590000D03*
%TO.P,J9,B4,VBUS*%
%TO.N,+5V*%
X133480000Y-95390000D03*
D28*
%TO.P,J9,B5,CC2*%
%TO.N,Net-(J9-CC2)*%
X133480000Y-96040000D03*
%TO.P,J9,B6,D+*%
%TO.N,/USB Hub/RAW_D+*%
X133480000Y-97040000D03*
%TO.P,J9,B7,D-*%
%TO.N,/USB Hub/RAW_D-*%
X133480000Y-98540000D03*
%TO.P,J9,B8,SBU2*%
%TO.N,unconnected-(J9-SBU2-PadB8)*%
X133480000Y-99540000D03*
D27*
%TO.P,J9,B9,VBUS*%
%TO.N,+5V*%
X133480000Y-100190000D03*
%TO.P,J9,B12,GND*%
%TO.N,GND*%
X133480000Y-100990000D03*
D29*
%TO.P,J9,S1,SHIELD*%
X134055000Y-102110000D03*
D30*
X138235000Y-102110000D03*
D29*
X134055000Y-93470000D03*
D30*
X138235000Y-93470000D03*
%TD*%
D10*
%TO.P,C46,1*%
%TO.N,Net-(U10-VBIAS)*%
X102274000Y-129665500D03*
%TO.P,C46,2*%
%TO.N,GND*%
X102274000Y-131215500D03*
%TD*%
D16*
%TO.P,C45,1*%
%TO.N,+5V*%
X112789000Y-123698000D03*
%TO.P,C45,2*%
%TO.N,GND*%
X111239000Y-123698000D03*
%TD*%
D24*
%TO.P,U6,1,A->B*%
%TO.N,+5V*%
X121535000Y-68267500D03*
%TO.P,U6,2,A0*%
%TO.N,/FPGA/STRIP3*%
X122185000Y-68267500D03*
%TO.P,U6,3,A1*%
%TO.N,/FPGA/STRIP4*%
X122835000Y-68267500D03*
%TO.P,U6,4,A2*%
%TO.N,/FPGA/R4*%
X123485000Y-68267500D03*
%TO.P,U6,5,A3*%
%TO.N,/FPGA/B4*%
X124135000Y-68267500D03*
%TO.P,U6,6,A4*%
%TO.N,/FPGA/G4*%
X124785000Y-68267500D03*
%TO.P,U6,7,A5*%
%TO.N,/FPGA/G3*%
X125435000Y-68267500D03*
%TO.P,U6,8,A6*%
%TO.N,/FPGA/B3*%
X126085000Y-68267500D03*
%TO.P,U6,9,A7*%
%TO.N,/FPGA/R3*%
X126735000Y-68267500D03*
%TO.P,U6,10,GND*%
%TO.N,GND*%
X127385000Y-68267500D03*
%TO.P,U6,11,B7*%
%TO.N,/Level Shifters/R3_out*%
X127385000Y-62542500D03*
%TO.P,U6,12,B6*%
%TO.N,/Level Shifters/B3_out*%
X126735000Y-62542500D03*
%TO.P,U6,13,B5*%
%TO.N,/Level Shifters/G3_out*%
X126085000Y-62542500D03*
%TO.P,U6,14,B4*%
%TO.N,/Level Shifters/G4_out*%
X125435000Y-62542500D03*
%TO.P,U6,15,B3*%
%TO.N,/Level Shifters/B4_out*%
X124785000Y-62542500D03*
%TO.P,U6,16,B2*%
%TO.N,/Level Shifters/R4_out*%
X124135000Y-62542500D03*
%TO.P,U6,17,B1*%
%TO.N,/Level Shifters/LED4_out*%
X123485000Y-62542500D03*
%TO.P,U6,18,B0*%
%TO.N,/Level Shifters/LED3_out*%
X122835000Y-62542500D03*
%TO.P,U6,19,CE*%
%TO.N,GND*%
X122185000Y-62542500D03*
%TO.P,U6,20,VCC*%
%TO.N,+5V*%
X121535000Y-62542500D03*
%TD*%
D22*
%TO.P,C24,1*%
%TO.N,+1V2*%
X100637000Y-70866000D03*
%TO.P,C24,2*%
%TO.N,GND*%
X102187000Y-70866000D03*
%TD*%
D11*
%TO.P,R1,1*%
%TO.N,+3V3*%
X103061000Y-87376000D03*
%TO.P,R1,2*%
%TO.N,Net-(U1B-GPIOL_00_SS_N)*%
X104711000Y-87376000D03*
%TD*%
D16*
%TO.P,C34,1*%
%TO.N,Net-(U7-VCCA)*%
X93739000Y-91694000D03*
%TO.P,C34,2*%
%TO.N,GND*%
X92189000Y-91694000D03*
%TD*%
D10*
%TO.P,C17,1*%
%TO.N,+3V3*%
X112776000Y-91427000D03*
%TO.P,C17,2*%
%TO.N,GND*%
X112776000Y-92977000D03*
%TD*%
D16*
%TO.P,C42,1*%
%TO.N,+5V*%
X108217000Y-131572000D03*
%TO.P,C42,2*%
%TO.N,GND*%
X106667000Y-131572000D03*
%TD*%
D11*
%TO.P,R11,1*%
%TO.N,+3V3*%
X104585000Y-89154000D03*
%TO.P,R11,2*%
%TO.N,Net-(U1B-CDONE)*%
X106235000Y-89154000D03*
%TD*%
D22*
%TO.P,C43,1*%
%TO.N,+5V*%
X114287000Y-123698000D03*
%TO.P,C43,2*%
%TO.N,GND*%
X115837000Y-123698000D03*
%TD*%
D13*
%TO.P,C1,1*%
%TO.N,+3V3*%
X128016000Y-86119000D03*
%TO.P,C1,2*%
%TO.N,GND*%
X128016000Y-84569000D03*
%TD*%
D31*
%TO.P,D1,1,K*%
%TO.N,GND*%
X105892500Y-121158000D03*
%TO.P,D1,2,A*%
%TO.N,Net-(D1-A)*%
X107467500Y-121158000D03*
%TD*%
D22*
%TO.P,C39,1*%
%TO.N,Net-(U10-VREF)*%
X119465500Y-121424000D03*
%TO.P,C39,2*%
%TO.N,GND*%
X121015500Y-121424000D03*
%TD*%
D26*
%TO.P,J12,1,Pin_1*%
%TO.N,GND*%
X130175000Y-51435000D03*
%TD*%
D32*
%TO.P,U1,1,GND*%
%TO.N,GND*%
X106637500Y-75915000D03*
%TO.P,U1,2,GPIOL_41_CDI9*%
%TO.N,/FPGA/B1*%
X106637500Y-76415000D03*
%TO.P,U1,3,GPIOL_40_CDI8*%
%TO.N,/FPGA/G1*%
X106637500Y-76915000D03*
%TO.P,U1,4,GPIOL_32_CTRL4_CDI7*%
%TO.N,/FPGA/R1*%
X106637500Y-77415000D03*
%TO.P,U1,5,GPIOL_31_CLK7_CDI6*%
%TO.N,/FPGA/~{OE}*%
X106637500Y-77915000D03*
%TO.P,U1,6,SPI_CS_N*%
%TO.N,Net-(U1B-GPIOL_00_SS_N)*%
X106637500Y-78415000D03*
%TO.P,U1,7,GPIOL_24_CLK0*%
%TO.N,/FPGA/CLK_60MHZ*%
X106637500Y-78915000D03*
%TO.P,U1,8,GPIOL_12_CDI2*%
%TO.N,/FPGA/~{WR}*%
X106637500Y-79415000D03*
%TO.P,U1,9,GPIOL_21_CTRL1_CDI5*%
%TO.N,/FPGA/~{RD}*%
X106637500Y-79915000D03*
%TO.P,U1,10,GPIOL_20_CTRL0_CDI4*%
%TO.N,/FPGA/~{TXE}*%
X106637500Y-80415000D03*
%TO.P,U1,11,VCCIO1A_1B_1C*%
%TO.N,+3V3*%
X106637500Y-80915000D03*
%TO.P,U1,12,TDO*%
%TO.N,/FPGA/TDO*%
X106637500Y-81415000D03*
%TO.P,U1,13,TCK*%
%TO.N,/FPGA/TCK*%
X106637500Y-81915000D03*
%TO.P,U1,14,GPIOL_13_CDI3*%
%TO.N,/FPGA/CLK_12MHZ*%
X106637500Y-82415000D03*
%TO.P,U1,15,VCC*%
%TO.N,+1V2*%
X106637500Y-82915000D03*
%TO.P,U1,16,TMS*%
%TO.N,/FPGA/TMS*%
X106637500Y-83415000D03*
%TO.P,U1,17,TDI*%
%TO.N,/FPGA/TDI*%
X106637500Y-83915000D03*
%TO.P,U1,18,GPIOL_09_CDI1*%
%TO.N,Net-(U1B-GPIOL_09_CDI1)*%
X106637500Y-84415000D03*
%TO.P,U1,19,GPIOL_08_CDI0*%
%TO.N,Net-(U1B-GPIOL_08_CDI0)*%
X106637500Y-84915000D03*
%TO.P,U1,20,CRESET_N*%
%TO.N,/FPGA/CRESET_N*%
X106637500Y-85415000D03*
%TO.P,U1,21,VCCIO1A_1B_1C*%
%TO.N,+3V3*%
X106637500Y-85915000D03*
%TO.P,U1,22,GPIOL_05_CSO*%
%TO.N,/FPGA/~{RXF}*%
X106637500Y-86415000D03*
%TO.P,U1,23,GPIOL_04_CSI*%
%TO.N,Net-(U1B-GPIOL_04_CSI)*%
X106637500Y-86915000D03*
%TO.P,U1,24,GPIOL_00_SS_N*%
%TO.N,Net-(U1B-GPIOL_00_SS_N)*%
X106637500Y-87415000D03*
%TO.P,U1,25,CDONE*%
%TO.N,Net-(U1B-CDONE)*%
X106637500Y-87915000D03*
D33*
%TO.P,U1,26,GPIOL_01_CCK*%
%TO.N,Net-(U1B-GPIOL_01_CCK)*%
X108300000Y-89577500D03*
%TO.P,U1,27,REF_RES*%
%TO.N,unconnected-(U1D-REF_RES-Pad27)*%
X108800000Y-89577500D03*
%TO.P,U1,28,GND*%
%TO.N,GND*%
X109300000Y-89577500D03*
%TO.P,U1,29,GPIOB_TXP01*%
%TO.N,/FPGA/D7*%
X109800000Y-89577500D03*
%TO.P,U1,30,GPIOB_TXN01*%
%TO.N,/FPGA/D6*%
X110300000Y-89577500D03*
%TO.P,U1,31,VCC*%
%TO.N,+1V2*%
X110800000Y-89577500D03*
%TO.P,U1,32,GPIOB_TXP04*%
%TO.N,/FPGA/D5*%
X111300000Y-89577500D03*
%TO.P,U1,33,GPIOB_TXN04*%
%TO.N,/FPGA/D4*%
X111800000Y-89577500D03*
%TO.P,U1,34,VCCIO4B*%
%TO.N,+3V3*%
X112300000Y-89577500D03*
%TO.P,U1,35,GPIOB_TXP07*%
%TO.N,unconnected-(U1D-GPIOB_TXP07-Pad35)*%
X112800000Y-89577500D03*
%TO.P,U1,36,GPIOB_TXN07*%
%TO.N,unconnected-(U1D-GPIOB_TXN07-Pad36)*%
X113300000Y-89577500D03*
%TO.P,U1,37,GPIOB_TXP10*%
%TO.N,/FPGA/D3*%
X113800000Y-89577500D03*
%TO.P,U1,38,GPIOB_TXN10*%
%TO.N,/FPGA/D2*%
X114300000Y-89577500D03*
%TO.P,U1,39,GND*%
%TO.N,GND*%
X114800000Y-89577500D03*
%TO.P,U1,40,GPIOB_RXP00*%
%TO.N,/FPGA/D1*%
X115300000Y-89577500D03*
%TO.P,U1,41,GPIOB_RXN00*%
%TO.N,/FPGA/D0*%
X115800000Y-89577500D03*
%TO.P,U1,42,VCCIO4A*%
%TO.N,+3V3*%
X116300000Y-89577500D03*
%TO.P,U1,43,GPIOB_RXN03*%
%TO.N,unconnected-(U1D-GPIOB_RXN03-Pad43)*%
X116800000Y-89577500D03*
%TO.P,U1,44,GPIOB_RXP03*%
%TO.N,unconnected-(U1D-GPIOB_RXP03-Pad44)*%
X117300000Y-89577500D03*
%TO.P,U1,45,VCC*%
%TO.N,+1V2*%
X117800000Y-89577500D03*
%TO.P,U1,46,GPIOB_RXP06*%
%TO.N,unconnected-(U1D-GPIOB_RXP06-Pad46)*%
X118300000Y-89577500D03*
%TO.P,U1,47,GPIOB_RXN06*%
%TO.N,unconnected-(U1D-GPIOB_RXN06-Pad47)*%
X118800000Y-89577500D03*
%TO.P,U1,48,GPIOB_RXN09*%
%TO.N,unconnected-(U1D-GPIOB_RXN09-Pad48)*%
X119300000Y-89577500D03*
%TO.P,U1,49,GPIOB_RXP09*%
%TO.N,unconnected-(U1D-GPIOB_RXP09-Pad49)*%
X119800000Y-89577500D03*
%TO.P,U1,50,VCCA_BR*%
%TO.N,Net-(U1A-VCCA_BR)*%
X120300000Y-89577500D03*
D32*
%TO.P,U1,51,GPIOB_CLKP0*%
%TO.N,unconnected-(U1D-GPIOB_CLKP0-Pad51)*%
X121962500Y-87915000D03*
%TO.P,U1,52,GPIOB_CLKN0*%
%TO.N,unconnected-(U1D-GPIOB_CLKN0-Pad52)*%
X121962500Y-87415000D03*
%TO.P,U1,53,GPIOR_158_TEST_N*%
%TO.N,Net-(U1C-GPIOR_158_TEST_N)*%
X121962500Y-86915000D03*
%TO.P,U1,54,GPIOR_157_PLLIN*%
%TO.N,Net-(U1C-GPIOR_157_PLLIN)*%
X121962500Y-86415000D03*
%TO.P,U1,55,GPIOR_155*%
%TO.N,unconnected-(U1C-GPIOR_155-Pad55)*%
X121962500Y-85915000D03*
%TO.P,U1,56,GPIOR_154*%
%TO.N,unconnected-(U1C-GPIOR_154-Pad56)*%
X121962500Y-85415000D03*
%TO.P,U1,57,GPIOR_151_CBUS0*%
%TO.N,Net-(U1C-GPIOR_151_CBUS0)*%
X121962500Y-84915000D03*
%TO.P,U1,58,GPIOR_150_CBUS1*%
%TO.N,Net-(U1C-GPIOR_150_CBUS1)*%
X121962500Y-84415000D03*
%TO.P,U1,59,GPIOR_149_CBUS2*%
%TO.N,Net-(U1C-GPIOR_149_CBUS2)*%
X121962500Y-83915000D03*
%TO.P,U1,60,VCCIO3D_3E*%
%TO.N,+3V3*%
X121962500Y-83415000D03*
%TO.P,U1,61,GND*%
%TO.N,GND*%
X121962500Y-82915000D03*
%TO.P,U1,62,GPIOR_133_CDI18*%
%TO.N,unconnected-(U1C-GPIOR_133_CDI18-Pad62)*%
X121962500Y-82415000D03*
%TO.P,U1,63,GPIOR_132_CDI19*%
%TO.N,unconnected-(U1C-GPIOR_132_CDI19-Pad63)*%
X121962500Y-81915000D03*
%TO.P,U1,64,VCC*%
%TO.N,+1V2*%
X121962500Y-81415000D03*
%TO.P,U1,65,GPIOR_123_CLK12_CDI20*%
%TO.N,unconnected-(U1C-GPIOR_123_CLK12_CDI20-Pad65)*%
X121962500Y-80915000D03*
%TO.P,U1,66,GPIOR_122_CLK13_CDI21*%
%TO.N,unconnected-(U1C-GPIOR_122_CLK13_CDI21-Pad66)*%
X121962500Y-80415000D03*
%TO.P,U1,67,GPIOR_117_CTRL14*%
%TO.N,unconnected-(U1C-GPIOR_117_CTRL14-Pad67)*%
X121962500Y-79915000D03*
%TO.P,U1,68,GPIOR_116_CTRL15*%
%TO.N,unconnected-(U1C-GPIOR_116_CTRL15-Pad68)*%
X121962500Y-79415000D03*
%TO.P,U1,69,VCCIO3B_3C*%
%TO.N,+3V3*%
X121962500Y-78915000D03*
%TO.P,U1,70,GND*%
%TO.N,GND*%
X121962500Y-78415000D03*
%TO.P,U1,71,GPIOR_94_CDI27*%
%TO.N,unconnected-(U1C-GPIOR_94_CDI27-Pad71)*%
X121962500Y-77915000D03*
%TO.P,U1,72,VCCA_TR*%
%TO.N,Net-(U1A-VCCA_BR)*%
X121962500Y-77415000D03*
%TO.P,U1,73,GPIOR_88_CDI28*%
%TO.N,/FPGA/R3*%
X121962500Y-76915000D03*
%TO.P,U1,74,GPIOR_87_CDI29*%
%TO.N,/FPGA/B3*%
X121962500Y-76415000D03*
%TO.P,U1,75,VCC*%
%TO.N,+1V2*%
X121962500Y-75915000D03*
D33*
%TO.P,U1,76,VCCIO3A*%
%TO.N,+3V3*%
X120300000Y-74252500D03*
%TO.P,U1,77,GPIOR_79_EXTFB1_CDI30*%
%TO.N,/FPGA/G3*%
X119800000Y-74252500D03*
%TO.P,U1,78,GPIOR_78_EXTFB0_CDI31*%
%TO.N,/FPGA/G4*%
X119300000Y-74252500D03*
%TO.P,U1,79,GPIOR_77_PLLIN1*%
%TO.N,/FPGA/B4*%
X118800000Y-74252500D03*
%TO.P,U1,80,GPIOR_76_PLLIN0*%
%TO.N,/FPGA/R4*%
X118300000Y-74252500D03*
%TO.P,U1,81,GND*%
%TO.N,GND*%
X117800000Y-74252500D03*
%TO.P,U1,82,VCC*%
%TO.N,+1V2*%
X117300000Y-74252500D03*
%TO.P,U1,83,VCC*%
X116800000Y-74252500D03*
%TO.P,U1,84,VCCA_TL*%
%TO.N,Net-(U1A-VCCA_BR)*%
X116300000Y-74252500D03*
%TO.P,U1,85,GPIOL_75_PLLIN1*%
%TO.N,/FPGA/STRIP4*%
X115800000Y-74252500D03*
%TO.P,U1,86,GPIOL_74_PLLIN0*%
%TO.N,/FPGA/STRIP3*%
X115300000Y-74252500D03*
%TO.P,U1,87,GPIOL_73_EXTFB1_CDI15*%
%TO.N,/FPGA/BLANK*%
X114800000Y-74252500D03*
%TO.P,U1,88,GPIOL_71_NSTATUS*%
%TO.N,/FPGA/LAT*%
X114300000Y-74252500D03*
%TO.P,U1,89,GPIOL_72_EXTFB0_CDI14*%
%TO.N,/FPGA/CLKOUT*%
X113800000Y-74252500D03*
%TO.P,U1,90,GND*%
%TO.N,GND*%
X113300000Y-74252500D03*
%TO.P,U1,91,VCC*%
%TO.N,+1V2*%
X112800000Y-74252500D03*
%TO.P,U1,92,GPIOL_70_CBSEL0*%
%TO.N,/FPGA/ROW_DATA*%
X112300000Y-74252500D03*
%TO.P,U1,93,GPIOL_69_CBSEL1*%
%TO.N,/FPGA/ROW_CLK*%
X111800000Y-74252500D03*
%TO.P,U1,94,GPIOL_67_CDI13*%
%TO.N,/FPGA/STRIP2*%
X111300000Y-74252500D03*
%TO.P,U1,95,GPIOL_66_CDI12*%
%TO.N,/FPGA/STRIP1*%
X110800000Y-74252500D03*
%TO.P,U1,96,VCCIO1D_1E*%
%TO.N,+3V3*%
X110300000Y-74252500D03*
%TO.P,U1,97,GND*%
%TO.N,GND*%
X109800000Y-74252500D03*
%TO.P,U1,98,GPIOL_53_CDI10*%
%TO.N,/FPGA/R2*%
X109300000Y-74252500D03*
%TO.P,U1,99,GPIOL_54_CDI11*%
%TO.N,/FPGA/G2*%
X108800000Y-74252500D03*
%TO.P,U1,100,GPIOL_46*%
%TO.N,/FPGA/B2*%
X108300000Y-74252500D03*
%TD*%
D23*
%TO.P,R5,1*%
%TO.N,+3V3*%
X129095000Y-78232000D03*
%TO.P,R5,2*%
%TO.N,Net-(U1C-GPIOR_158_TEST_N)*%
X127445000Y-78232000D03*
%TD*%
D20*
%TO.P,J5,1,Pin_1*%
%TO.N,+5V*%
X117475000Y-50815000D03*
D21*
%TO.P,J5,2,Pin_2*%
%TO.N,/Level Shifters/LED3_out*%
X117475000Y-53355000D03*
%TO.P,J5,3,Pin_3*%
%TO.N,GND*%
X117475000Y-55895000D03*
%TD*%
D22*
%TO.P,C2,1*%
%TO.N,/FPGA/CRESET_N*%
X95237000Y-108458000D03*
%TO.P,C2,2*%
%TO.N,GND*%
X96787000Y-108458000D03*
%TD*%
D20*
%TO.P,J4,1,Pin_1*%
%TO.N,+5V*%
X111125000Y-50815000D03*
D21*
%TO.P,J4,2,Pin_2*%
%TO.N,/Level Shifters/LED2_out*%
X111125000Y-53355000D03*
%TO.P,J4,3,Pin_3*%
%TO.N,GND*%
X111125000Y-55895000D03*
%TD*%
D22*
%TO.P,C30,1*%
%TO.N,+3.3VP*%
X103873000Y-99314000D03*
%TO.P,C30,2*%
%TO.N,GND*%
X105423000Y-99314000D03*
%TD*%
D34*
%TO.P,X1,1,Tri-State*%
%TO.N,unconnected-(X1-Tri-State-Pad1)*%
X126201000Y-86269000D03*
%TO.P,X1,2,GND*%
%TO.N,GND*%
X126201000Y-84419000D03*
%TO.P,X1,3,OUT*%
%TO.N,Net-(U1C-GPIOR_157_PLLIN)*%
X124751000Y-84419000D03*
%TO.P,X1,4,VDD*%
%TO.N,+3V3*%
X124751000Y-86269000D03*
%TD*%
D16*
%TO.P,C44,1*%
%TO.N,+5V*%
X108217000Y-130048000D03*
%TO.P,C44,2*%
%TO.N,GND*%
X106667000Y-130048000D03*
%TD*%
D35*
%TO.P,U11,1,+OUT_L*%
%TO.N,/USB Audio/L+*%
X109855000Y-130845000D03*
%TO.P,U11,2,PGNDL*%
%TO.N,GND*%
X111125000Y-130845000D03*
%TO.P,U11,3,-OUT_L*%
%TO.N,/USB Audio/L-*%
X112395000Y-130845000D03*
%TO.P,U11,4,PVDDL*%
%TO.N,+5V*%
X113665000Y-130845000D03*
%TO.P,U11,5,~{MUTE}*%
X114935000Y-130845000D03*
%TO.P,U11,6,VDD*%
X116205000Y-130845000D03*
%TO.P,U11,7,INL*%
%TO.N,Net-(U11-INL)*%
X117475000Y-130845000D03*
%TO.P,U11,8,VREF*%
%TO.N,Net-(U11-VREF)*%
X118745000Y-130845000D03*
%TO.P,U11,9,MODE*%
%TO.N,+5V*%
X118745000Y-125695000D03*
%TO.P,U11,10,INR*%
%TO.N,Net-(U11-INR)*%
X117475000Y-125695000D03*
%TO.P,U11,11,GND*%
%TO.N,GND*%
X116205000Y-125695000D03*
%TO.P,U11,12,~{SHND}*%
%TO.N,+5V*%
X114935000Y-125695000D03*
%TO.P,U11,13,PVDDR*%
X113665000Y-125695000D03*
%TO.P,U11,14,-OUT_R*%
%TO.N,/USB Audio/R-*%
X112395000Y-125695000D03*
%TO.P,U11,15,PGNDR*%
%TO.N,GND*%
X111125000Y-125695000D03*
%TO.P,U11,16,+OUT_R*%
%TO.N,/USB Audio/R+*%
X109855000Y-125695000D03*
%TD*%
D16*
%TO.P,C33,1*%
%TO.N,Net-(U7-VCCCORE)*%
X93739000Y-93218000D03*
%TO.P,C33,2*%
%TO.N,GND*%
X92189000Y-93218000D03*
%TD*%
%TO.P,C3,1*%
%TO.N,+1V2*%
X104661000Y-82804000D03*
%TO.P,C3,2*%
%TO.N,GND*%
X103111000Y-82804000D03*
%TD*%
D13*
%TO.P,C53,1*%
%TO.N,Net-(U13-VDD33)*%
X118618000Y-98793000D03*
%TO.P,C53,2*%
%TO.N,GND*%
X118618000Y-97243000D03*
%TD*%
%TO.P,C36,1*%
%TO.N,+5V*%
X117954500Y-113055000D03*
%TO.P,C36,2*%
%TO.N,GND*%
X117954500Y-111505000D03*
%TD*%
D10*
%TO.P,C5,1*%
%TO.N,+1V2*%
X118110000Y-91427000D03*
%TO.P,C5,2*%
%TO.N,GND*%
X118110000Y-92977000D03*
%TD*%
D12*
%TO.P,R9,1*%
%TO.N,+3V3*%
X104140000Y-74613000D03*
%TO.P,R9,2*%
%TO.N,Net-(U1B-GPIOL_09_CDI1)*%
X104140000Y-76263000D03*
%TD*%
D36*
%TO.P,U7,1,XCSI*%
%TO.N,/FPGA/CLK_12MHZ*%
X97072000Y-98904500D03*
%TO.P,U7,2,XCSO*%
%TO.N,unconnected-(U7-XCSO-Pad2)*%
X97572000Y-98904500D03*
%TO.P,U7,3,VPHY*%
%TO.N,Net-(U7-VPHY)*%
X98072000Y-98904500D03*
%TO.P,U7,4,AGND*%
%TO.N,GND*%
X98572000Y-98904500D03*
%TO.P,U7,5,REF*%
%TO.N,Net-(U7-REF)*%
X99072000Y-98904500D03*
%TO.P,U7,6,DM*%
%TO.N,/FTDI/USB_D-*%
X99572000Y-98904500D03*
%TO.P,U7,7,DP*%
%TO.N,/FTDI/USB_D+*%
X100072000Y-98904500D03*
%TO.P,U7,8,VPLL*%
%TO.N,Net-(U7-VPLL)*%
X100572000Y-98904500D03*
%TO.P,U7,9,AGND*%
%TO.N,GND*%
X101072000Y-98904500D03*
%TO.P,U7,10,GND*%
X101572000Y-98904500D03*
%TO.P,U7,11,GND*%
X102072000Y-98904500D03*
%TO.P,U7,12,VCCIO*%
%TO.N,+3.3VP*%
X102572000Y-98904500D03*
D37*
%TO.P,U7,13,ADBUS0*%
%TO.N,/FPGA/D0*%
X103984500Y-97492000D03*
%TO.P,U7,14,ADBUS1*%
%TO.N,/FPGA/D1*%
X103984500Y-96992000D03*
%TO.P,U7,15,ADBUS2*%
%TO.N,/FPGA/D2*%
X103984500Y-96492000D03*
%TO.P,U7,16,ADBUS3*%
%TO.N,/FPGA/D3*%
X103984500Y-95992000D03*
%TO.P,U7,17,ADBUS4*%
%TO.N,/FPGA/D4*%
X103984500Y-95492000D03*
%TO.P,U7,18,ADBUS5*%
%TO.N,/FPGA/D5*%
X103984500Y-94992000D03*
%TO.P,U7,19,ADBUS6*%
%TO.N,/FPGA/D6*%
X103984500Y-94492000D03*
%TO.P,U7,20,ADBUS7*%
%TO.N,/FPGA/D7*%
X103984500Y-93992000D03*
%TO.P,U7,21,ACBUS0*%
%TO.N,/FPGA/~{RXF}*%
X103984500Y-93492000D03*
%TO.P,U7,22,GND*%
%TO.N,GND*%
X103984500Y-92992000D03*
%TO.P,U7,23,GND*%
X103984500Y-92492000D03*
%TO.P,U7,24,VCCIO*%
%TO.N,+3.3VP*%
X103984500Y-91992000D03*
D36*
%TO.P,U7,25,ACBUS1*%
%TO.N,/FPGA/~{TXE}*%
X102572000Y-90579500D03*
%TO.P,U7,26,ACBUS2*%
%TO.N,/FPGA/~{RD}*%
X102072000Y-90579500D03*
%TO.P,U7,27,ACBUS3*%
%TO.N,/FPGA/~{WR}*%
X101572000Y-90579500D03*
%TO.P,U7,28,ACBUS4*%
%TO.N,+3.3VP*%
X101072000Y-90579500D03*
%TO.P,U7,29,ACBUS5*%
%TO.N,/FPGA/CLK_60MHZ*%
X100572000Y-90579500D03*
%TO.P,U7,30,ACBUS6*%
%TO.N,/FPGA/~{OE}*%
X100072000Y-90579500D03*
%TO.P,U7,31,ACBUS7*%
%TO.N,+3.3VP*%
X99572000Y-90579500D03*
%TO.P,U7,32,ACBUS8*%
%TO.N,unconnected-(U7-ACBUS8-Pad32)*%
X99072000Y-90579500D03*
%TO.P,U7,33,ACBUS9*%
%TO.N,unconnected-(U7-ACBUS9-Pad33)*%
X98572000Y-90579500D03*
%TO.P,U7,34,~{RESET}*%
%TO.N,Net-(U7-~{RESET})*%
X98072000Y-90579500D03*
%TO.P,U7,35,GND*%
%TO.N,GND*%
X97572000Y-90579500D03*
%TO.P,U7,36,GND*%
X97072000Y-90579500D03*
D37*
%TO.P,U7,37,VCCA*%
%TO.N,Net-(U7-VCCA)*%
X95659500Y-91992000D03*
%TO.P,U7,38,VCCCORE*%
%TO.N,Net-(U7-VCCCORE)*%
X95659500Y-92492000D03*
%TO.P,U7,39,VCCD*%
%TO.N,+3.3VP*%
X95659500Y-92992000D03*
%TO.P,U7,40,VREGIN*%
%TO.N,+5V*%
X95659500Y-93492000D03*
%TO.P,U7,41,AGND*%
%TO.N,GND*%
X95659500Y-93992000D03*
%TO.P,U7,42,TEST*%
X95659500Y-94492000D03*
%TO.P,U7,43,EEDATA*%
%TO.N,Net-(U7-EEDATA)*%
X95659500Y-94992000D03*
%TO.P,U7,44,EECLK*%
%TO.N,Net-(U7-EECLK)*%
X95659500Y-95492000D03*
%TO.P,U7,45,EECS*%
%TO.N,Net-(U7-EECS)*%
X95659500Y-95992000D03*
%TO.P,U7,46,VCCIO*%
%TO.N,+3.3VP*%
X95659500Y-96492000D03*
%TO.P,U7,47,GND*%
%TO.N,GND*%
X95659500Y-96992000D03*
%TO.P,U7,48,GND*%
X95659500Y-97492000D03*
%TD*%
D22*
%TO.P,C38,1*%
%TO.N,Net-(C37-Pad1)*%
X119465500Y-115328000D03*
%TO.P,C38,2*%
%TO.N,GND*%
X121015500Y-115328000D03*
%TD*%
D14*
%TO.P,FB2,1*%
%TO.N,+3.3VP*%
X95250000Y-102425000D03*
%TO.P,FB2,2*%
%TO.N,Net-(U7-VPHY)*%
X95250000Y-100775000D03*
%TD*%
D38*
%TO.P,J8,1,Pin_1*%
%TO.N,/USB Audio/L+*%
X135255000Y-122435000D03*
D39*
%TO.P,J8,2,Pin_2*%
%TO.N,/USB Audio/L-*%
X135255000Y-117435000D03*
%TO.P,J8,3,Pin_3*%
%TO.N,/USB Audio/R-*%
X135255000Y-112435000D03*
%TO.P,J8,4,Pin_4*%
%TO.N,/USB Audio/R+*%
X135255000Y-107435000D03*
%TD*%
D22*
%TO.P,C40,1*%
%TO.N,Net-(C40-Pad1)*%
X119465500Y-118376000D03*
%TO.P,C40,2*%
%TO.N,GND*%
X121015500Y-118376000D03*
%TD*%
D10*
%TO.P,C18,1*%
%TO.N,+3V3*%
X116586000Y-91414000D03*
%TO.P,C18,2*%
%TO.N,GND*%
X116586000Y-92964000D03*
%TD*%
D14*
%TO.P,R6,1*%
%TO.N,+3V3*%
X108204000Y-93027000D03*
%TO.P,R6,2*%
%TO.N,Net-(U1B-GPIOL_01_CCK)*%
X108204000Y-91377000D03*
%TD*%
D23*
%TO.P,R20,1*%
%TO.N,Net-(J9-CC1)*%
X131635000Y-102362000D03*
%TO.P,R20,2*%
%TO.N,GND*%
X129985000Y-102362000D03*
%TD*%
D13*
%TO.P,C26,1*%
%TO.N,GND*%
X109855000Y-63640000D03*
%TO.P,C26,2*%
%TO.N,+5V*%
X109855000Y-62090000D03*
%TD*%
D23*
%TO.P,R4,1*%
%TO.N,+3V3*%
X129095000Y-76708000D03*
%TO.P,R4,2*%
%TO.N,Net-(U1C-GPIOR_151_CBUS0)*%
X127445000Y-76708000D03*
%TD*%
D40*
%TO.P,J10,1,VBUS1*%
%TO.N,+5V*%
X99646000Y-114863998D03*
D41*
%TO.P,J10,2,D1-*%
%TO.N,/USB Hub/USB4_D-*%
X99646000Y-117363998D03*
%TO.P,J10,3,D1+*%
%TO.N,/USB Hub/USB4_D+*%
X99646000Y-119363998D03*
%TO.P,J10,4,GND1*%
%TO.N,GND*%
X99646000Y-121863998D03*
%TO.P,J10,5,VBUS2*%
%TO.N,+5V*%
X102266000Y-114863998D03*
%TO.P,J10,6,D2-*%
%TO.N,/USB Hub/USB3_D-*%
X102266000Y-117363998D03*
%TO.P,J10,7,D2+*%
%TO.N,/USB Hub/USB3_D+*%
X102266000Y-119363998D03*
%TO.P,J10,8,GND2*%
%TO.N,GND*%
X102266000Y-121863998D03*
D42*
%TO.P,J10,9,Shield*%
X96936000Y-111793998D03*
X96936000Y-124933998D03*
X102616000Y-111793998D03*
X102616000Y-124933998D03*
%TD*%
D22*
%TO.P,C37,1*%
%TO.N,Net-(C37-Pad1)*%
X119465500Y-113804000D03*
%TO.P,C37,2*%
%TO.N,GND*%
X121015500Y-113804000D03*
%TD*%
D13*
%TO.P,C51,1*%
%TO.N,+5V*%
X121666000Y-98806000D03*
%TO.P,C51,2*%
%TO.N,GND*%
X121666000Y-97256000D03*
%TD*%
D20*
%TO.P,J1,1,Pin_1*%
%TO.N,/FPGA/TDO*%
X89911000Y-99832000D03*
D21*
%TO.P,J1,2,Pin_2*%
%TO.N,+3V3*%
X92451000Y-99832000D03*
%TO.P,J1,3,Pin_3*%
%TO.N,/FPGA/TCK*%
X89911000Y-102372000D03*
%TO.P,J1,4,Pin_4*%
%TO.N,/FPGA/TDI*%
X92451000Y-102372000D03*
%TO.P,J1,5,Pin_5*%
%TO.N,/FPGA/TMS*%
X89911000Y-104912000D03*
%TO.P,J1,6,Pin_6*%
%TO.N,/FPGA/CRESET_N*%
X92451000Y-104912000D03*
%TO.P,J1,7,Pin_7*%
%TO.N,GND*%
X89911000Y-107452000D03*
%TO.P,J1,8,Pin_8*%
X92451000Y-107452000D03*
%TD*%
D13*
%TO.P,C11,1*%
%TO.N,+3V3*%
X124460000Y-91199000D03*
%TO.P,C11,2*%
%TO.N,GND*%
X124460000Y-89649000D03*
%TD*%
D43*
%TO.P,U13,1,DM4*%
%TO.N,/FTDI/USB_D-*%
X119951500Y-105978000D03*
%TO.P,U13,2,DP4*%
%TO.N,/FTDI/USB_D+*%
X120586500Y-105978000D03*
%TO.P,U13,3,DM3*%
%TO.N,/USB Hub/USB4_D-*%
X121221500Y-105978000D03*
%TO.P,U13,4,DP3*%
%TO.N,/USB Hub/USB4_D+*%
X121856500Y-105978000D03*
%TO.P,U13,5,DM2*%
%TO.N,/USB Hub/USB3_D-*%
X122491500Y-105978000D03*
%TO.P,U13,6,DP2*%
%TO.N,/USB Hub/USB3_D+*%
X123126500Y-105978000D03*
%TO.P,U13,7,DM1*%
%TO.N,/USB Audio/USB_D-*%
X123761500Y-105978000D03*
%TO.P,U13,8,DP1*%
%TO.N,/USB Audio/USB_D+*%
X124396500Y-105978000D03*
%TO.P,U13,9,~{RESET}/CDP*%
%TO.N,unconnected-(U13-~{RESET}{slash}CDP-Pad9)*%
X124396500Y-100778000D03*
%TO.P,U13,10,DMU*%
%TO.N,/USB Hub/USBU_D-*%
X123761500Y-100778000D03*
%TO.P,U13,11,DPU*%
%TO.N,/USB Hub/USBU_D+*%
X123126500Y-100778000D03*
%TO.P,U13,12,V5*%
%TO.N,+5V*%
X122491500Y-100778000D03*
%TO.P,U13,13,VDD33*%
%TO.N,Net-(U13-VDD33)*%
X121856500Y-100778000D03*
%TO.P,U13,14,GND*%
%TO.N,GND*%
X121221500Y-100778000D03*
%TO.P,U13,15,XO*%
%TO.N,Net-(U13-XO)*%
X120586500Y-100778000D03*
%TO.P,U13,16,XI*%
%TO.N,Net-(U13-XI)*%
X119951500Y-100778000D03*
%TD*%
D16*
%TO.P,C35,1*%
%TO.N,+3.3VP*%
X110503000Y-100330000D03*
%TO.P,C35,2*%
%TO.N,GND*%
X108953000Y-100330000D03*
%TD*%
D44*
%TO.P,U3,1,VIN*%
%TO.N,+3V3*%
X100462000Y-75051500D03*
%TO.P,U3,2,GND*%
%TO.N,GND*%
X101412000Y-75051500D03*
%TO.P,U3,3,EN*%
%TO.N,+3V3*%
X102362000Y-75051500D03*
%TO.P,U3,4,NC*%
%TO.N,unconnected-(U3-NC-Pad4)*%
X102362000Y-72776500D03*
%TO.P,U3,5,VOUT*%
%TO.N,+1V2*%
X100462000Y-72776500D03*
%TD*%
D14*
%TO.P,FB3,1*%
%TO.N,+3.3VP*%
X102870000Y-102425000D03*
%TO.P,FB3,2*%
%TO.N,Net-(U7-VPLL)*%
X102870000Y-100775000D03*
%TD*%
D24*
%TO.P,U4,1,A->B*%
%TO.N,+5V*%
X101215000Y-68267500D03*
%TO.P,U4,2,A0*%
%TO.N,/FPGA/R1*%
X101865000Y-68267500D03*
%TO.P,U4,3,A1*%
%TO.N,/FPGA/G1*%
X102515000Y-68267500D03*
%TO.P,U4,4,A2*%
%TO.N,/FPGA/B1*%
X103165000Y-68267500D03*
%TO.P,U4,5,A3*%
%TO.N,/FPGA/B2*%
X103815000Y-68267500D03*
%TO.P,U4,6,A4*%
%TO.N,/FPGA/G2*%
X104465000Y-68267500D03*
%TO.P,U4,7,A5*%
%TO.N,/FPGA/R2*%
X105115000Y-68267500D03*
%TO.P,U4,8,A6*%
%TO.N,/FPGA/STRIP1*%
X105765000Y-68267500D03*
%TO.P,U4,9,A7*%
%TO.N,/FPGA/STRIP2*%
X106415000Y-68267500D03*
%TO.P,U4,10,GND*%
%TO.N,GND*%
X107065000Y-68267500D03*
%TO.P,U4,11,B7*%
%TO.N,/Level Shifters/LED2_out*%
X107065000Y-62542500D03*
%TO.P,U4,12,B6*%
%TO.N,/Level Shifters/LED1_out*%
X106415000Y-62542500D03*
%TO.P,U4,13,B5*%
%TO.N,/Level Shifters/R2_out*%
X105765000Y-62542500D03*
%TO.P,U4,14,B4*%
%TO.N,/Level Shifters/G2_out*%
X105115000Y-62542500D03*
%TO.P,U4,15,B3*%
%TO.N,/Level Shifters/B2_out*%
X104465000Y-62542500D03*
%TO.P,U4,16,B2*%
%TO.N,/Level Shifters/B1_out*%
X103815000Y-62542500D03*
%TO.P,U4,17,B1*%
%TO.N,/Level Shifters/G1_out*%
X103165000Y-62542500D03*
%TO.P,U4,18,B0*%
%TO.N,/Level Shifters/R1_out*%
X102515000Y-62542500D03*
%TO.P,U4,19,CE*%
%TO.N,GND*%
X101865000Y-62542500D03*
%TO.P,U4,20,VCC*%
%TO.N,+5V*%
X101215000Y-62542500D03*
%TD*%
D10*
%TO.P,C12,1*%
%TO.N,Net-(U1A-VCCA_BR)*%
X119634000Y-91427000D03*
%TO.P,C12,2*%
%TO.N,GND*%
X119634000Y-92977000D03*
%TD*%
D23*
%TO.P,R15,1*%
%TO.N,+3.3VP*%
X110553000Y-105410000D03*
%TO.P,R15,2*%
%TO.N,Net-(U7-EEDATA)*%
X108903000Y-105410000D03*
%TD*%
D13*
%TO.P,C25,1*%
%TO.N,GND*%
X99695000Y-63640000D03*
%TO.P,C25,2*%
%TO.N,+5V*%
X99695000Y-62090000D03*
%TD*%
D18*
%TO.P,J3,1,Pin_1*%
%TO.N,/Level Shifters/B1_out*%
X92075000Y-62230000D03*
D19*
%TO.P,J3,2,Pin_2*%
%TO.N,/Level Shifters/G1_out*%
X94615000Y-62230000D03*
%TO.P,J3,3,Pin_3*%
%TO.N,/Level Shifters/R1_out*%
X92075000Y-64770000D03*
%TO.P,J3,4,Pin_4*%
%TO.N,GND*%
X94615000Y-64770000D03*
%TO.P,J3,5,Pin_5*%
%TO.N,/Level Shifters/B2_out*%
X92075000Y-67310000D03*
%TO.P,J3,6,Pin_6*%
%TO.N,/Level Shifters/G2_out*%
X94615000Y-67310000D03*
%TO.P,J3,7,Pin_7*%
%TO.N,/Level Shifters/R2_out*%
X92075000Y-69850000D03*
%TO.P,J3,8,Pin_8*%
%TO.N,GND*%
X94615000Y-69850000D03*
%TO.P,J3,9,Pin_9*%
%TO.N,/Level Shifters/RCLK_out*%
X92075000Y-72390000D03*
%TO.P,J3,10,Pin_10*%
%TO.N,GND*%
X94615000Y-72390000D03*
%TO.P,J3,11,Pin_11*%
%TO.N,/Level Shifters/RDAT_out*%
X92075000Y-74930000D03*
%TO.P,J3,12,Pin_12*%
%TO.N,GND*%
X94615000Y-74930000D03*
%TO.P,J3,13,Pin_13*%
%TO.N,/Level Shifters/CLK_out*%
X92075000Y-77470000D03*
%TO.P,J3,14,Pin_14*%
%TO.N,/Level Shifters/LAT_out*%
X94615000Y-77470000D03*
%TO.P,J3,15,Pin_15*%
%TO.N,/Level Shifters/BLNK_out*%
X92075000Y-80010000D03*
%TO.P,J3,16,Pin_16*%
%TO.N,GND*%
X94615000Y-80010000D03*
%TD*%
D13*
%TO.P,C27,1*%
%TO.N,GND*%
X120015000Y-63640000D03*
%TO.P,C27,2*%
%TO.N,+5V*%
X120015000Y-62090000D03*
%TD*%
%TO.P,C10,1*%
%TO.N,+5V*%
X130556000Y-91199000D03*
%TO.P,C10,2*%
%TO.N,GND*%
X130556000Y-89649000D03*
%TD*%
D14*
%TO.P,R17,1*%
%TO.N,Net-(U7-EEDATA)*%
X106172000Y-103695000D03*
%TO.P,R17,2*%
%TO.N,Net-(U8-DO)*%
X106172000Y-102045000D03*
%TD*%
D32*
%TO.P,U10,1,DR*%
%TO.N,unconnected-(U10-DR-Pad1)*%
X109121500Y-114344000D03*
%TO.P,U10,2,DW*%
%TO.N,unconnected-(U10-DW-Pad2)*%
X109121500Y-114844000D03*
%TO.P,U10,3,SK*%
%TO.N,unconnected-(U10-SK-Pad3)*%
X109121500Y-115344000D03*
%TO.P,U10,4,CS*%
%TO.N,unconnected-(U10-CS-Pad4)*%
X109121500Y-115844000D03*
%TO.P,U10,5,MUTER*%
%TO.N,Net-(U10-MUTEP)*%
X109121500Y-116344000D03*
%TO.P,U10,6,PWRSEL*%
%TO.N,/USB Audio/3.3VCM*%
X109121500Y-116844000D03*
%TO.P,U10,7,DREG18*%
%TO.N,unconnected-(U10-DREG18-Pad7)*%
X109121500Y-117344000D03*
%TO.P,U10,8,DREG33*%
%TO.N,/USB Audio/3.3VCM*%
X109121500Y-117844000D03*
%TO.P,U10,9,NC*%
%TO.N,unconnected-(U10-NC-Pad9)*%
X109121500Y-118344000D03*
%TO.P,U10,10,MODE*%
%TO.N,GND*%
X109121500Y-118844000D03*
%TO.P,U10,11,LEDO*%
%TO.N,Net-(U10-LEDO)*%
X109121500Y-119344000D03*
%TO.P,U10,12,DVSS*%
%TO.N,GND*%
X109121500Y-119844000D03*
D33*
%TO.P,U10,13,NC*%
%TO.N,unconnected-(U10-NC-Pad13)*%
X110534000Y-121256500D03*
%TO.P,U10,14,NC*%
%TO.N,unconnected-(U10-NC-Pad14)*%
X111034000Y-121256500D03*
%TO.P,U10,15,NC*%
%TO.N,unconnected-(U10-NC-Pad15)*%
X111534000Y-121256500D03*
%TO.P,U10,16,NC*%
%TO.N,unconnected-(U10-NC-Pad16)*%
X112034000Y-121256500D03*
%TO.P,U10,17,MUTEP*%
%TO.N,Net-(U10-MUTEP)*%
X112534000Y-121256500D03*
%TO.P,U10,18,NC*%
%TO.N,unconnected-(U10-NC-Pad18)*%
X113034000Y-121256500D03*
%TO.P,U10,19,LEDR*%
%TO.N,unconnected-(U10-LEDR-Pad19)*%
X113534000Y-121256500D03*
%TO.P,U10,20,TEST*%
%TO.N,GND*%
X114034000Y-121256500D03*
%TO.P,U10,21,NC*%
%TO.N,unconnected-(U10-NC-Pad21)*%
X114534000Y-121256500D03*
%TO.P,U10,22,NC*%
%TO.N,unconnected-(U10-NC-Pad22)*%
X115034000Y-121256500D03*
%TO.P,U10,23,NC*%
%TO.N,unconnected-(U10-NC-Pad23)*%
X115534000Y-121256500D03*
%TO.P,U10,24,NC*%
%TO.N,unconnected-(U10-NC-Pad24)*%
X116034000Y-121256500D03*
D32*
%TO.P,U10,25,AVSS*%
%TO.N,GND*%
X117446500Y-119844000D03*
%TO.P,U10,26,VBIAS*%
%TO.N,Net-(U10-VBIAS)*%
X117446500Y-119344000D03*
%TO.P,U10,27,VREF*%
%TO.N,Net-(U10-VREF)*%
X117446500Y-118844000D03*
%TO.P,U10,28,MICIN*%
%TO.N,Net-(U10-MICIN)*%
X117446500Y-118344000D03*
%TO.P,U10,29,AVDD*%
%TO.N,Net-(C40-Pad1)*%
X117446500Y-117844000D03*
%TO.P,U10,30,LOL*%
%TO.N,Net-(U10-LOL)*%
X117446500Y-117344000D03*
%TO.P,U10,31,LOBS*%
%TO.N,unconnected-(U10-LOBS-Pad31)*%
X117446500Y-116844000D03*
%TO.P,U10,32,LOR*%
%TO.N,Net-(U10-LOR)*%
X117446500Y-116344000D03*
%TO.P,U10,33,AVSS*%
%TO.N,GND*%
X117446500Y-115844000D03*
%TO.P,U10,34,AVDD*%
%TO.N,Net-(C37-Pad1)*%
X117446500Y-115344000D03*
%TO.P,U10,35,DVDD*%
%TO.N,+5V*%
X117446500Y-114844000D03*
%TO.P,U10,36,DVSS*%
%TO.N,GND*%
X117446500Y-114344000D03*
D33*
%TO.P,U10,37,NC*%
%TO.N,unconnected-(U10-NC-Pad37)*%
X116034000Y-112931500D03*
%TO.P,U10,38,NC*%
%TO.N,unconnected-(U10-NC-Pad38)*%
X115534000Y-112931500D03*
%TO.P,U10,39,AREG36*%
%TO.N,unconnected-(U10-AREG36-Pad39)*%
X115034000Y-112931500D03*
%TO.P,U10,40,MSEL*%
%TO.N,GND*%
X114534000Y-112931500D03*
%TO.P,U10,41,VOLUP*%
%TO.N,Net-(U10-MUTEP)*%
X114034000Y-112931500D03*
%TO.P,U10,42,PDSW*%
%TO.N,unconnected-(U10-PDSW-Pad42)*%
X113534000Y-112931500D03*
%TO.P,U10,43,USBDP*%
%TO.N,/USB Audio/USB_D+*%
X113034000Y-112931500D03*
%TO.P,U10,44,USBDM*%
%TO.N,/USB Audio/USB_D-*%
X112534000Y-112931500D03*
%TO.P,U10,45,NC*%
%TO.N,unconnected-(U10-NC-Pad45)*%
X112034000Y-112931500D03*
%TO.P,U10,46,NC*%
%TO.N,unconnected-(U10-NC-Pad46)*%
X111534000Y-112931500D03*
%TO.P,U10,47,VOLDN*%
%TO.N,Net-(U10-MUTEP)*%
X111034000Y-112931500D03*
%TO.P,U10,48,NC*%
%TO.N,unconnected-(U10-NC-Pad48)*%
X110534000Y-112931500D03*
%TD*%
D14*
%TO.P,FB1,1*%
%TO.N,+1V2*%
X122682000Y-93027000D03*
%TO.P,FB1,2*%
%TO.N,Net-(U1A-VCCA_BR)*%
X122682000Y-91377000D03*
%TD*%
D10*
%TO.P,C29,1*%
%TO.N,Net-(U7-VPLL)*%
X101346000Y-100825000D03*
%TO.P,C29,2*%
%TO.N,GND*%
X101346000Y-102375000D03*
%TD*%
D13*
%TO.P,C52,1*%
%TO.N,Net-(U13-VDD33)*%
X120142000Y-98793000D03*
%TO.P,C52,2*%
%TO.N,GND*%
X120142000Y-97243000D03*
%TD*%
D15*
%TO.P,U12,1,I/O1*%
%TO.N,/USB Hub/USBU_D+*%
X127386500Y-96332000D03*
%TO.P,U12,2,GND*%
%TO.N,GND*%
X127386500Y-97282000D03*
%TO.P,U12,3,I/O2*%
%TO.N,/USB Hub/USBU_D-*%
X127386500Y-98232000D03*
%TO.P,U12,4,I/O2*%
%TO.N,/USB Hub/RAW_D-*%
X129661500Y-98232000D03*
%TO.P,U12,5,VBUS*%
%TO.N,+5V*%
X129661500Y-97282000D03*
%TO.P,U12,6,I/O1*%
%TO.N,/USB Hub/RAW_D+*%
X129661500Y-96332000D03*
%TD*%
D16*
%TO.P,C32,1*%
%TO.N,+3.3VP*%
X93739000Y-97028000D03*
%TO.P,C32,2*%
%TO.N,GND*%
X92189000Y-97028000D03*
%TD*%
D12*
%TO.P,R16,1*%
%TO.N,Net-(U7-REF)*%
X98298000Y-100775000D03*
%TO.P,R16,2*%
%TO.N,GND*%
X98298000Y-102425000D03*
%TD*%
D16*
%TO.P,C21,1*%
%TO.N,+3V3*%
X104661000Y-84328000D03*
%TO.P,C21,2*%
%TO.N,GND*%
X103111000Y-84328000D03*
%TD*%
D23*
%TO.P,FB4,1*%
%TO.N,+5V*%
X121065500Y-112280000D03*
%TO.P,FB4,2*%
%TO.N,Net-(C37-Pad1)*%
X119415500Y-112280000D03*
%TD*%
D45*
%TO.N,+3.3VP*%
X107188000Y-100076000D03*
X101600000Y-93472000D03*
X96012000Y-103378000D03*
X101556096Y-97325904D03*
%TO.N,GND*%
X105664000Y-129032000D03*
X102616000Y-92456000D03*
X107950000Y-68326000D03*
X121158000Y-102108000D03*
X98552000Y-63500000D03*
X124460000Y-72136000D03*
X128778000Y-94996000D03*
X122133400Y-60960000D03*
X122428000Y-122428000D03*
X124714000Y-110744000D03*
X110112351Y-94287898D03*
X108966000Y-69865800D03*
X115316000Y-111506000D03*
X99060000Y-91948000D03*
X118364000Y-68326000D03*
X101854000Y-81533994D03*
X118110000Y-75692000D03*
X111252000Y-128270000D03*
X118618000Y-70358000D03*
X112679144Y-94137144D03*
X126238000Y-101092000D03*
X90932000Y-91694000D03*
X109902000Y-88138000D03*
X121920000Y-127936000D03*
X97536000Y-104140000D03*
X122936000Y-89662000D03*
X103378000Y-130810000D03*
X113030000Y-69850000D03*
X99314000Y-94290400D03*
X105410000Y-100584000D03*
X116840000Y-104648000D03*
X127000000Y-79756000D03*
X123190000Y-97282000D03*
X106637500Y-75141500D03*
X108712000Y-63430700D03*
X98806000Y-97536000D03*
X94742000Y-99568000D03*
X122682000Y-112776000D03*
X103124000Y-77470000D03*
X115570000Y-94742000D03*
X119220934Y-83058000D03*
X113538000Y-122682000D03*
X109728000Y-75946000D03*
X114962422Y-88292423D03*
X112014000Y-60960000D03*
X102108000Y-103632000D03*
X127508000Y-69850000D03*
X118872000Y-63360900D03*
%TO.N,Net-(U1B-GPIOL_00_SS_N)*%
X108204000Y-78486000D03*
X103892718Y-88142931D03*
%TO.N,Net-(U1B-GPIOL_09_CDI1)*%
X104140000Y-77470000D03*
X111680000Y-84582000D03*
%TO.N,Net-(U1B-GPIOL_08_CDI0)*%
X108511720Y-85490705D03*
X94072346Y-95959222D03*
%TO.N,Net-(U1C-GPIOR_158_TEST_N)*%
X123444000Y-87122000D03*
X124206000Y-78232000D03*
%TO.N,Net-(U1C-GPIOR_151_CBUS0)*%
X124206000Y-76962000D03*
X123450097Y-84108636D03*
%TO.N,Net-(U1C-GPIOR_150_CBUS1)*%
X120592300Y-84836000D03*
X125476000Y-75183988D03*
%TO.N,Net-(U1C-GPIOR_149_CBUS2)*%
X126568300Y-74368520D03*
X120627334Y-83567741D03*
%TO.N,+5V*%
X118872000Y-62230000D03*
X130810000Y-107696000D03*
X122428000Y-115316000D03*
X131572000Y-100330000D03*
X131572000Y-95250000D03*
X132080000Y-101092000D03*
X122428000Y-111760000D03*
X100838000Y-69596000D03*
X112014000Y-122682000D03*
X135636000Y-95504000D03*
X108712000Y-62230000D03*
X122428000Y-102108000D03*
X134874000Y-99314000D03*
X98568222Y-62246222D03*
X135636000Y-100076000D03*
X114300000Y-132080000D03*
X116840000Y-112268000D03*
X128524000Y-101092000D03*
X106934000Y-128778000D03*
X97790000Y-93726000D03*
X134874000Y-96266000D03*
X131826000Y-91186000D03*
X132080000Y-94488000D03*
%TO.N,/FPGA/CLK_12MHZ*%
X98044000Y-96774000D03*
X111058400Y-81594400D03*
%TO.N,+3V3*%
X103665200Y-72225467D03*
X100076000Y-78486000D03*
X110490000Y-77216000D03*
X113538000Y-87630000D03*
X124460000Y-92456000D03*
X119126000Y-78994000D03*
X119126000Y-76708000D03*
X106934000Y-93218000D03*
X103632000Y-89916000D03*
X129540000Y-79502000D03*
X108722116Y-71624628D03*
X129032000Y-87884000D03*
%TO.N,/FPGA/TCK*%
X109026400Y-80904494D03*
%TO.N,Net-(U7-EECS)*%
X96317266Y-98244700D03*
X112268000Y-99314000D03*
%TO.N,Net-(U7-EECLK)*%
X97282000Y-95758000D03*
X113219247Y-98996918D03*
%TO.N,+1V2*%
X117856000Y-87884000D03*
X120396000Y-76200000D03*
X116501600Y-71653184D03*
X118618000Y-81534000D03*
X111252000Y-87630000D03*
X113030000Y-82042000D03*
X99060000Y-76200000D03*
X111760000Y-75692000D03*
%TO.N,Net-(U10-VBIAS)*%
X103378000Y-129286000D03*
X116078000Y-119380000D03*
%TO.N,Net-(U10-MICIN)*%
X116078000Y-118364000D03*
X97790000Y-132080000D03*
%TO.N,Net-(U10-LOL)*%
X116078000Y-117348000D03*
X117634826Y-120593999D03*
%TO.N,/Level Shifters/BLNK_out*%
X116840000Y-66675000D03*
%TO.N,/Level Shifters/LAT_out*%
X115570000Y-66040000D03*
%TO.N,/Level Shifters/CLK_out*%
X114300000Y-65405000D03*
%TO.N,/Level Shifters/RDAT_out*%
X113030000Y-64770000D03*
%TO.N,/Level Shifters/RCLK_out*%
X112079300Y-64135000D03*
D46*
%TO.N,/USB Audio/L+*%
X109728000Y-129286000D03*
%TO.N,/USB Audio/L-*%
X112522000Y-129286000D03*
%TO.N,/USB Audio/R+*%
X109728000Y-127254000D03*
%TO.N,/USB Audio/R-*%
X112522000Y-127254000D03*
D45*
%TO.N,/FPGA/TMS*%
X109474000Y-82997600D03*
%TO.N,/FPGA/TDI*%
X108966000Y-83950000D03*
%TO.N,/FPGA/TDO*%
X108649709Y-79923923D03*
%TO.N,/FPGA/CRESET_N*%
X108446710Y-86542700D03*
%TD*%
D47*
%TO.N,+3.3VP*%
X99572000Y-89776380D02*
X99123000Y-89327380D01*
X110503000Y-100330000D02*
X111823000Y-100330000D01*
X109695000Y-101920000D02*
X110357500Y-101920000D01*
X103746900Y-91754400D02*
X103984500Y-91992000D01*
X102572000Y-98904500D02*
X103463500Y-98904500D01*
X109726400Y-99553400D02*
X107710600Y-99553400D01*
X110744000Y-105219000D02*
X110553000Y-105410000D01*
X103984500Y-91992000D02*
X103984500Y-91328500D01*
X103984500Y-91328500D02*
X104635000Y-90678000D01*
X99722813Y-91618600D02*
X100805072Y-91618600D01*
X95250000Y-102425000D02*
X93739000Y-100914000D01*
X100805072Y-91618600D02*
X101072000Y-91351672D01*
X110357500Y-101920000D02*
X110357500Y-100475500D01*
X93739000Y-100914000D02*
X93739000Y-97028000D01*
X102572000Y-98904500D02*
X102572000Y-98132328D01*
X107710600Y-99553400D02*
X107188000Y-100076000D01*
X102870000Y-102425000D02*
X103873000Y-101422000D01*
X109393400Y-102221600D02*
X109695000Y-101920000D01*
X101072000Y-90579500D02*
X101072000Y-91351672D01*
X95659500Y-96492000D02*
X94795095Y-96492000D01*
X99123000Y-89327380D02*
X99123000Y-88646000D01*
X101765576Y-97325904D02*
X101556096Y-97325904D01*
X94259095Y-97028000D02*
X93739000Y-97028000D01*
X101072000Y-91351672D02*
X101474728Y-91754400D01*
X94795095Y-96492000D02*
X94259095Y-97028000D01*
X103873000Y-101422000D02*
X103873000Y-99314000D01*
X99572000Y-90579500D02*
X99572000Y-89776380D01*
X110503000Y-100330000D02*
X109726400Y-99553400D01*
X110553000Y-105410000D02*
X109393400Y-104250400D01*
X111823000Y-100330000D02*
X112014000Y-100521000D01*
X102572000Y-98132328D02*
X101765576Y-97325904D01*
X101474728Y-91754400D02*
X103746900Y-91754400D01*
X101120000Y-92992000D02*
X101600000Y-93472000D01*
X99785387Y-91657387D02*
X99761600Y-91657387D01*
X109393400Y-104250400D02*
X109393400Y-102221600D01*
X101600000Y-93472000D02*
X99785387Y-91657387D01*
X95659500Y-92992000D02*
X101120000Y-92992000D01*
X99572000Y-91467787D02*
X99722813Y-91618600D01*
X95631500Y-96520000D02*
X95659500Y-96492000D01*
X112014000Y-105219000D02*
X110744000Y-105219000D01*
X99761600Y-91657387D02*
X99572000Y-91467787D01*
X95250000Y-102616000D02*
X96012000Y-103378000D01*
X99572000Y-90579500D02*
X99572000Y-91467787D01*
X95250000Y-102425000D02*
X95250000Y-102616000D01*
X103463500Y-98904500D02*
X103873000Y-99314000D01*
X110357500Y-100475500D02*
X110503000Y-100330000D01*
X93739000Y-97028000D02*
X93739000Y-97206000D01*
X102616000Y-98948500D02*
X102572000Y-98904500D01*
%TO.N,GND*%
X98630000Y-131064000D02*
X100330000Y-131064000D01*
X116606000Y-115844000D02*
X117446500Y-115844000D01*
X96936000Y-108607000D02*
X96787000Y-108458000D01*
X127385000Y-69727000D02*
X127508000Y-69850000D01*
X98572000Y-98904500D02*
X98572000Y-97770000D01*
X114534000Y-112159328D02*
X115187328Y-111506000D01*
X108921300Y-63640000D02*
X108712000Y-63430700D01*
X107065000Y-68267500D02*
X107891500Y-68267500D01*
X110160600Y-119110928D02*
X110160600Y-119577072D01*
X120011500Y-122428000D02*
X121015500Y-121424000D01*
X100475672Y-97536000D02*
X98806000Y-97536000D01*
X116332000Y-114686328D02*
X116332000Y-115570000D01*
X121221500Y-102044500D02*
X121158000Y-102108000D01*
X95659500Y-97492000D02*
X94742000Y-98409500D01*
X125489000Y-79756000D02*
X125489000Y-82817000D01*
X109800000Y-75874000D02*
X109728000Y-75946000D01*
X109121500Y-120748500D02*
X109121500Y-119844000D01*
X121913641Y-82866141D02*
X119412793Y-82866141D01*
X127386500Y-97282000D02*
X128048999Y-97282000D01*
X107935400Y-121934600D02*
X109121500Y-120748500D01*
X102963600Y-71642600D02*
X102963600Y-76185400D01*
X116586000Y-92964000D02*
X121145000Y-92964000D01*
X130783250Y-89408000D02*
X126772750Y-89408000D01*
X97572000Y-90579500D02*
X97072000Y-90579500D01*
X98298000Y-103378000D02*
X97536000Y-104140000D01*
X121666000Y-97256000D02*
X123164000Y-97256000D01*
X114534000Y-112931500D02*
X114534000Y-112159328D01*
X121015500Y-118376000D02*
X120363900Y-117724400D01*
X109855000Y-63640000D02*
X108921300Y-63640000D01*
X101346000Y-102375000D02*
X101346000Y-102870000D01*
X117446500Y-114344000D02*
X116674328Y-114344000D01*
X102107994Y-81280000D02*
X101854000Y-81533994D01*
X121015500Y-113804000D02*
X121015500Y-115328000D01*
X114534000Y-113703672D02*
X114534000Y-112931500D01*
X118305500Y-68267500D02*
X118364000Y-68326000D01*
X124712400Y-78979400D02*
X125489000Y-79756000D01*
X116205000Y-124066000D02*
X115837000Y-123698000D01*
X108191000Y-101092000D02*
X105918000Y-101092000D01*
X98298000Y-102425000D02*
X98298000Y-103378000D01*
X112776000Y-92977000D02*
X112776000Y-94040288D01*
X119412793Y-82866141D02*
X119220934Y-83058000D01*
X102122500Y-131064000D02*
X102274000Y-131215500D01*
X102266000Y-121863998D02*
X105186502Y-121863998D01*
X129985000Y-102362000D02*
X130761600Y-103138600D01*
X92189000Y-91694000D02*
X90932000Y-91694000D01*
X102616000Y-111793998D02*
X102616000Y-109207000D01*
X126201000Y-84419000D02*
X127866000Y-84419000D01*
X102187000Y-76962000D02*
X101412000Y-76187000D01*
X99112400Y-94492000D02*
X95659500Y-94492000D01*
X103111000Y-84328000D02*
X103111000Y-82804000D01*
X101865000Y-63279999D02*
X101504999Y-63640000D01*
X98168328Y-91948000D02*
X99060000Y-91948000D01*
X116752000Y-104560000D02*
X116840000Y-104648000D01*
X126987000Y-99822000D02*
X126987000Y-100343000D01*
X111252000Y-128270000D02*
X111125000Y-128143000D01*
X106669100Y-121934600D02*
X107935400Y-121934600D01*
X119151100Y-63640000D02*
X118872000Y-63360900D01*
X98572000Y-97770000D02*
X98806000Y-97536000D01*
X123190000Y-72123000D02*
X124447000Y-72123000D01*
X103984500Y-92492000D02*
X102652000Y-92492000D01*
X106667000Y-130048000D02*
X106667000Y-130035000D01*
X110160600Y-119577072D02*
X109893672Y-119844000D01*
X117348000Y-70853000D02*
X118123000Y-70853000D01*
X105918000Y-101092000D02*
X105410000Y-100584000D01*
X114800000Y-88454845D02*
X114800000Y-89577500D01*
X116586000Y-93726000D02*
X116586000Y-92964000D01*
X118364000Y-121548460D02*
X119243540Y-122428000D01*
X119243540Y-122428000D02*
X120011500Y-122428000D01*
X102616000Y-76962000D02*
X103124000Y-77470000D01*
X103111000Y-82804000D02*
X103111000Y-81280000D01*
X120363900Y-117724400D02*
X120363900Y-115979600D01*
X121015500Y-121424000D02*
X121015500Y-118376000D01*
X110490000Y-93910249D02*
X110112351Y-94287898D01*
X102187000Y-76962000D02*
X102616000Y-76962000D01*
X99695000Y-63640000D02*
X98692000Y-63640000D01*
X96774000Y-102375000D02*
X98248000Y-102375000D01*
X101865000Y-62542500D02*
X101865000Y-63279999D01*
X111125000Y-130845000D02*
X111125000Y-128397000D01*
X108745000Y-102870000D02*
X109063200Y-102551800D01*
X128524000Y-95250000D02*
X128778000Y-94996000D01*
X120396000Y-129781000D02*
X121920000Y-128257000D01*
X118183999Y-119844000D02*
X118364000Y-120024001D01*
X109121500Y-118844000D02*
X109893672Y-118844000D01*
X109800000Y-75024672D02*
X111229328Y-76454000D01*
X109893672Y-118844000D02*
X110160600Y-119110928D01*
X112268000Y-76454000D02*
X113300000Y-75422000D01*
X108966000Y-69865800D02*
X108966000Y-70091000D01*
X112025000Y-60971000D02*
X112014000Y-60960000D01*
X124447000Y-72123000D02*
X124460000Y-72136000D01*
X128048999Y-97282000D02*
X128524000Y-96806999D01*
X118618000Y-97243000D02*
X121653000Y-97243000D01*
X130761600Y-92441400D02*
X133026400Y-92441400D01*
X118123000Y-70853000D02*
X118618000Y-70358000D01*
X97572000Y-90579500D02*
X97572000Y-91351672D01*
X112025000Y-62542500D02*
X112025000Y-60971000D01*
X106185000Y-90678000D02*
X106185000Y-91153000D01*
X124460000Y-89649000D02*
X124635000Y-89474000D01*
X122185000Y-62542500D02*
X122185000Y-61011600D01*
X109063200Y-102551800D02*
X109063200Y-100440200D01*
X100330000Y-131064000D02*
X102122500Y-131064000D01*
X121920000Y-128257000D02*
X121920000Y-127936000D01*
X116674328Y-114344000D02*
X116332000Y-114686328D01*
X111125000Y-125695000D02*
X111125000Y-123812000D01*
X101504999Y-63640000D02*
X99695000Y-63640000D01*
X115703328Y-123698000D02*
X114034000Y-122028672D01*
X96936000Y-111793998D02*
X96936000Y-108607000D01*
X101412000Y-76187000D02*
X101412000Y-75051500D01*
X117954500Y-111505000D02*
X115317000Y-111505000D01*
X105186502Y-121863998D02*
X105892500Y-121158000D01*
X117800000Y-74252500D02*
X117800000Y-75382000D01*
X108082500Y-102870000D02*
X108745000Y-102870000D01*
X102072000Y-98904500D02*
X101072000Y-98904500D01*
X122185000Y-61011600D02*
X122133400Y-60960000D01*
X92189000Y-93218000D02*
X92189000Y-91694000D01*
X109300000Y-88740000D02*
X109300000Y-89577500D01*
X102972500Y-131215500D02*
X103378000Y-130810000D01*
X94742000Y-98409500D02*
X94742000Y-99568000D01*
X121653000Y-97243000D02*
X121666000Y-97256000D01*
X99314000Y-94290400D02*
X99112400Y-94492000D01*
X105423000Y-100571000D02*
X105410000Y-100584000D01*
X124460000Y-89649000D02*
X122949000Y-89649000D01*
X115837000Y-123698000D02*
X115703328Y-123698000D01*
X92840600Y-96376400D02*
X92840600Y-93869600D01*
X109063200Y-100440200D02*
X108953000Y-100330000D01*
X126987000Y-100343000D02*
X126238000Y-101092000D01*
X123392262Y-78415000D02*
X123956662Y-78979400D01*
X108966000Y-70091000D02*
X109728000Y-70853000D01*
X92840600Y-93869600D02*
X92189000Y-93218000D01*
X115570000Y-94742000D02*
X116586000Y-93726000D01*
X116332000Y-115570000D02*
X116606000Y-115844000D01*
X122949000Y-89649000D02*
X122936000Y-89662000D01*
X104846000Y-92492000D02*
X103984500Y-92492000D01*
X109800000Y-74252500D02*
X109800000Y-75874000D01*
X121962500Y-78415000D02*
X123392262Y-78415000D01*
X92189000Y-97028000D02*
X92840600Y-96376400D01*
X111229328Y-76454000D02*
X112268000Y-76454000D01*
X116752000Y-103195000D02*
X116752000Y-104560000D01*
X111125000Y-123812000D02*
X111239000Y-123698000D01*
X101346000Y-102870000D02*
X102108000Y-103632000D01*
X108953000Y-100330000D02*
X108191000Y-101092000D01*
X126238000Y-84382000D02*
X126201000Y-84419000D01*
X121654000Y-113804000D02*
X122682000Y-112776000D01*
X121424000Y-121424000D02*
X122428000Y-122428000D01*
X121145000Y-92964000D02*
X121158000Y-92977000D01*
X127866000Y-84419000D02*
X128016000Y-84569000D01*
X109902000Y-88138000D02*
X109300000Y-88740000D01*
X133026400Y-92441400D02*
X134055000Y-93470000D01*
X112776000Y-94040288D02*
X112679144Y-94137144D01*
X106637500Y-75141500D02*
X106637500Y-75915000D01*
X113300000Y-75422000D02*
X113300000Y-74252500D01*
X117225000Y-68267500D02*
X118305500Y-68267500D01*
X127385000Y-68267500D02*
X127385000Y-69727000D01*
X121015500Y-121424000D02*
X121424000Y-121424000D01*
X95659500Y-93992000D02*
X95659500Y-94492000D01*
X115837000Y-123698000D02*
X114821000Y-122682000D01*
X105423000Y-99314000D02*
X105423000Y-100571000D01*
X121221500Y-100778000D02*
X121221500Y-102044500D01*
X125489000Y-79756000D02*
X127000000Y-79756000D01*
X130761600Y-103138600D02*
X133026400Y-103138600D01*
X118452000Y-101095000D02*
X116752000Y-102795000D01*
X118452000Y-100995000D02*
X118452000Y-101095000D01*
X120363900Y-115979600D02*
X121015500Y-115328000D01*
X101072000Y-98132328D02*
X100475672Y-97536000D01*
X115317000Y-111505000D02*
X115316000Y-111506000D01*
X115174328Y-114344000D02*
X114534000Y-113703672D01*
X109893672Y-119844000D02*
X109121500Y-119844000D01*
X109800000Y-74252500D02*
X109800000Y-75024672D01*
X105892500Y-121158000D02*
X106669100Y-121934600D01*
X118364000Y-120024001D02*
X118364000Y-121548460D01*
X102187000Y-70866000D02*
X102963600Y-71642600D01*
X106667000Y-130048000D02*
X106667000Y-131572000D01*
X116205000Y-125695000D02*
X116205000Y-124066000D01*
X114034000Y-122028672D02*
X114034000Y-121256500D01*
X111125000Y-128397000D02*
X111252000Y-128270000D01*
X103984500Y-92992000D02*
X103984500Y-92492000D01*
X126238000Y-83566000D02*
X126238000Y-84382000D01*
X103111000Y-81305431D02*
X103111000Y-81280000D01*
X102963600Y-76185400D02*
X102187000Y-76962000D01*
X115187328Y-111506000D02*
X115316000Y-111506000D01*
X128524000Y-96806999D02*
X128524000Y-95250000D01*
X106667000Y-130035000D02*
X105664000Y-129032000D01*
X125489000Y-82817000D02*
X126238000Y-83566000D01*
X133026400Y-103138600D02*
X134055000Y-102110000D01*
X101072000Y-98904500D02*
X101072000Y-98132328D01*
X113030000Y-70853000D02*
X113030000Y-69850000D01*
X95659500Y-96992000D02*
X95659500Y-97492000D01*
X124635000Y-89474000D02*
X126370500Y-89474000D01*
X98248000Y-102375000D02*
X98298000Y-102425000D01*
X97572000Y-91351672D02*
X98168328Y-91948000D01*
X106185000Y-91153000D02*
X104846000Y-92492000D01*
X107891500Y-68267500D02*
X107950000Y-68326000D01*
X115275000Y-68267500D02*
X117225000Y-68267500D01*
X117446500Y-114344000D02*
X115174328Y-114344000D01*
X102616000Y-109207000D02*
X101867000Y-108458000D01*
X111125000Y-128143000D02*
X111125000Y-125695000D01*
X121962500Y-82915000D02*
X121913641Y-82866141D01*
X123164000Y-97256000D02*
X123190000Y-97282000D01*
X110490000Y-92977000D02*
X110490000Y-93910249D01*
X114962422Y-88292423D02*
X114800000Y-88454845D01*
X116752000Y-102795000D02*
X116752000Y-103195000D01*
X117800000Y-75382000D02*
X118110000Y-75692000D01*
X114821000Y-122682000D02*
X113538000Y-122682000D01*
X121015500Y-113804000D02*
X121654000Y-113804000D01*
X123956662Y-78979400D02*
X124712400Y-78979400D01*
X129985000Y-93218000D02*
X130761600Y-92441400D01*
X102652000Y-92492000D02*
X102616000Y-92456000D01*
X98692000Y-63640000D02*
X98552000Y-63500000D01*
X103111000Y-81280000D02*
X102107994Y-81280000D01*
X102274000Y-131215500D02*
X102972500Y-131215500D01*
X121666000Y-72123000D02*
X123190000Y-72123000D01*
X117446500Y-119844000D02*
X118183999Y-119844000D01*
X120015000Y-63640000D02*
X119151100Y-63640000D01*
%TO.N,Net-(U1B-GPIOL_00_SS_N)*%
X106637500Y-87415000D02*
X104750000Y-87415000D01*
X103892718Y-88142931D02*
X103944069Y-88142931D01*
X108204000Y-78486000D02*
X108133000Y-78415000D01*
X108133000Y-78415000D02*
X106637500Y-78415000D01*
X103944069Y-88142931D02*
X104711000Y-87376000D01*
X104750000Y-87415000D02*
X104711000Y-87376000D01*
%TO.N,Net-(U1B-GPIOL_09_CDI1)*%
X111610400Y-84651600D02*
X108108325Y-84651600D01*
X107871725Y-84415000D02*
X106637500Y-84415000D01*
X108108325Y-84651600D02*
X107871725Y-84415000D01*
X104140000Y-77470000D02*
X104140000Y-76263000D01*
X111680000Y-84582000D02*
X111610400Y-84651600D01*
X106637500Y-84415000D02*
X106637500Y-84370500D01*
X106641400Y-84366600D02*
X106680000Y-84366600D01*
X106637500Y-84370500D02*
X106641400Y-84366600D01*
%TO.N,Net-(U1B-GPIOL_08_CDI0)*%
X107904751Y-84915000D02*
X108480456Y-85490705D01*
X108480456Y-85490705D02*
X108511720Y-85490705D01*
X93789000Y-95675876D02*
X93789000Y-94742000D01*
X94072346Y-95959222D02*
X93789000Y-95675876D01*
X106637500Y-84915000D02*
X107904751Y-84915000D01*
%TO.N,Net-(U1B-GPIOL_04_CSI)*%
X104711000Y-85915000D02*
X105711000Y-86915000D01*
X105711000Y-86915000D02*
X106637500Y-86915000D01*
X104711000Y-85852000D02*
X104711000Y-85915000D01*
X106590500Y-86868000D02*
X106637500Y-86915000D01*
%TO.N,Net-(U1B-CDONE)*%
X106235000Y-88317500D02*
X106637500Y-87915000D01*
X106235000Y-89154000D02*
X106235000Y-88317500D01*
%TO.N,Net-(U1B-GPIOL_01_CCK)*%
X108300000Y-91281000D02*
X108204000Y-91377000D01*
X108300000Y-89577500D02*
X108300000Y-91281000D01*
%TO.N,Net-(U1C-GPIOR_158_TEST_N)*%
X123444000Y-87122000D02*
X123237000Y-86915000D01*
X123237000Y-86915000D02*
X121962500Y-86915000D01*
X127445000Y-78232000D02*
X124206000Y-78232000D01*
%TO.N,Net-(U1C-GPIOR_151_CBUS0)*%
X122732594Y-84915000D02*
X123450097Y-84197497D01*
X124206000Y-76962000D02*
X124460000Y-76708000D01*
X121962500Y-84915000D02*
X122732594Y-84915000D01*
X123450097Y-84197497D02*
X123450097Y-84108636D01*
X124460000Y-76708000D02*
X127445000Y-76708000D01*
%TO.N,Net-(U1C-GPIOR_150_CBUS1)*%
X121013300Y-84415000D02*
X120592300Y-84836000D01*
X121962500Y-84415000D02*
X121013300Y-84415000D01*
X125476012Y-75184000D02*
X125476000Y-75183988D01*
X127445000Y-75184000D02*
X125476012Y-75184000D01*
%TO.N,Net-(U1C-GPIOR_149_CBUS2)*%
X121962500Y-83915000D02*
X120974593Y-83915000D01*
X127276820Y-73660000D02*
X126568300Y-74368520D01*
X127445000Y-73660000D02*
X127276820Y-73660000D01*
X120974593Y-83915000D02*
X120627334Y-83567741D01*
%TO.N,+5V*%
X113665000Y-130845000D02*
X113665000Y-131445000D01*
X122428000Y-115489500D02*
X122428000Y-115316000D01*
X122491500Y-100778000D02*
X122491500Y-99631500D01*
X102266000Y-114863998D02*
X99646000Y-114863998D01*
X119012000Y-62090000D02*
X118872000Y-62230000D01*
X97790000Y-93726000D02*
X97556000Y-93492000D01*
X117167500Y-112268000D02*
X117954500Y-113055000D01*
X121065500Y-116852000D02*
X122428000Y-115489500D01*
X128511000Y-97770000D02*
X128999000Y-97282000D01*
X122491500Y-99631500D02*
X121666000Y-98806000D01*
X108704400Y-132313400D02*
X113071599Y-132313400D01*
X128645500Y-90424000D02*
X129781000Y-90424000D01*
X108217000Y-130048000D02*
X108217000Y-131826000D01*
X113665000Y-125695000D02*
X114935000Y-125695000D01*
X120015000Y-62090000D02*
X119012000Y-62090000D01*
X128999000Y-97282000D02*
X129661500Y-97282000D01*
X128511000Y-101079000D02*
X128524000Y-101092000D01*
X120015000Y-62090000D02*
X121082500Y-62090000D01*
X99646000Y-109916684D02*
X100317000Y-109245684D01*
X110922500Y-62090000D02*
X111375000Y-62542500D01*
X113071599Y-132313400D02*
X113665000Y-131719999D01*
X99646000Y-114863998D02*
X99646000Y-109916684D01*
X111375000Y-68267500D02*
X111375000Y-62542500D01*
X114935000Y-125695000D02*
X114935000Y-130845000D01*
X113665000Y-131445000D02*
X114300000Y-132080000D01*
X122491500Y-100778000D02*
X122491500Y-102044500D01*
X108204000Y-130048000D02*
X106934000Y-128778000D01*
X121082500Y-62090000D02*
X121535000Y-62542500D01*
X131813000Y-91199000D02*
X131826000Y-91186000D01*
X116840000Y-112268000D02*
X117167500Y-112268000D01*
X114935000Y-126569999D02*
X115236601Y-126871600D01*
X113665000Y-130845000D02*
X114935000Y-130845000D01*
X115236601Y-126871600D02*
X117816214Y-126871600D01*
X108217000Y-130048000D02*
X108204000Y-130048000D01*
X117816214Y-126871600D02*
X118745000Y-125942814D01*
X129781000Y-90424000D02*
X130556000Y-91199000D01*
X108852000Y-62090000D02*
X108712000Y-62230000D01*
X121585500Y-111760000D02*
X121065500Y-112280000D01*
X97556000Y-93492000D02*
X95659500Y-93492000D01*
X118485600Y-114577072D02*
X118218672Y-114844000D01*
X128511000Y-99822000D02*
X128511000Y-101079000D01*
X112789000Y-123698000D02*
X114287000Y-123698000D01*
X128511000Y-99822000D02*
X128511000Y-97770000D01*
X113665000Y-131719999D02*
X113665000Y-130845000D01*
X114935000Y-125695000D02*
X114935000Y-126569999D01*
X130556000Y-91199000D02*
X131813000Y-91199000D01*
X122491500Y-102044500D02*
X122428000Y-102108000D01*
X122428000Y-111760000D02*
X121585500Y-111760000D01*
X98724444Y-62090000D02*
X98568222Y-62246222D01*
X114287000Y-123698000D02*
X114287000Y-125047000D01*
X121535000Y-68267500D02*
X121535000Y-62542500D01*
X99695000Y-62090000D02*
X100762500Y-62090000D01*
X118485600Y-113586100D02*
X118485600Y-114577072D01*
X101215000Y-68267500D02*
X101215000Y-69219000D01*
X108217000Y-131826000D02*
X108704400Y-132313400D01*
X117954500Y-113055000D02*
X118485600Y-113586100D01*
X112789000Y-123698000D02*
X112789000Y-123457000D01*
X101215000Y-69219000D02*
X100838000Y-69596000D01*
X118745000Y-125942814D02*
X118745000Y-125695000D01*
X109855000Y-62090000D02*
X108852000Y-62090000D01*
X100762500Y-62090000D02*
X101215000Y-62542500D01*
X99695000Y-62090000D02*
X98724444Y-62090000D01*
X114935000Y-130845000D02*
X116205000Y-130845000D01*
X100317000Y-109245684D02*
X100317000Y-108458000D01*
X118218672Y-114844000D02*
X117446500Y-114844000D01*
X112789000Y-123457000D02*
X112014000Y-122682000D01*
X109855000Y-62090000D02*
X110922500Y-62090000D01*
X114287000Y-125047000D02*
X114935000Y-125695000D01*
D48*
%TO.N,/FTDI/USB_D-*%
X99653090Y-104463966D02*
X99653090Y-100091841D01*
X113716876Y-105978000D02*
X112591966Y-107102910D01*
X119951500Y-105978000D02*
X113716876Y-105978000D01*
X102292034Y-107102910D02*
X99653090Y-104463966D01*
X99572000Y-100010751D02*
X99572000Y-98904500D01*
X99653090Y-100091841D02*
X99572000Y-100010751D01*
X112591966Y-107102910D02*
X102292034Y-107102910D01*
%TO.N,/FTDI/USB_D+*%
X112452034Y-106765090D02*
X102431966Y-106765090D01*
X119624994Y-105072590D02*
X119057404Y-105640180D01*
X120278006Y-105072590D02*
X119624994Y-105072590D01*
X102431966Y-106765090D02*
X99990910Y-104324034D01*
X119057404Y-105640180D02*
X113576944Y-105640180D01*
X99990910Y-100091841D02*
X100072000Y-100010751D01*
X100072000Y-100010751D02*
X100072000Y-98904500D01*
X113576944Y-105640180D02*
X112452034Y-106765090D01*
X120456910Y-105251494D02*
X120278006Y-105072590D01*
X120456910Y-105848410D02*
X120456910Y-105251494D01*
X120586500Y-105978000D02*
X120456910Y-105848410D01*
X99990910Y-104324034D02*
X99990910Y-100091841D01*
D47*
%TO.N,Net-(U1C-GPIOR_157_PLLIN)*%
X121997500Y-86450000D02*
X121962500Y-86415000D01*
X123205000Y-86415000D02*
X121962500Y-86415000D01*
X124751000Y-84869000D02*
X123205000Y-86415000D01*
X124751000Y-84419000D02*
X124751000Y-84869000D01*
%TO.N,/USB Audio/3.3VCM*%
X109893672Y-117844000D02*
X109121500Y-117844000D01*
X107977500Y-116844000D02*
X109121500Y-116844000D01*
X110160600Y-117577072D02*
X109893672Y-117844000D01*
X109893672Y-116844000D02*
X110160600Y-117110928D01*
X110160600Y-117110928D02*
X110160600Y-117577072D01*
X107286500Y-116153000D02*
X107977500Y-116844000D01*
X109121500Y-116844000D02*
X109893672Y-116844000D01*
D48*
%TO.N,/USB Audio/USB_D+*%
X112989410Y-112886910D02*
X112989410Y-112109350D01*
X124247910Y-109162966D02*
X124247910Y-107026591D01*
X124396500Y-106878001D02*
X124396500Y-105978000D01*
X112871820Y-111395056D02*
X113607966Y-110658910D01*
X122751966Y-110658910D02*
X124247910Y-109162966D01*
X112871820Y-111991760D02*
X112871820Y-111395056D01*
X112989410Y-112109350D02*
X112871820Y-111991760D01*
X113607966Y-110658910D02*
X122751966Y-110658910D01*
X113034000Y-112931500D02*
X112989410Y-112886910D01*
X124247910Y-107026591D02*
X124396500Y-106878001D01*
%TO.N,/USB Audio/USB_D-*%
X113468034Y-110321090D02*
X122612034Y-110321090D01*
X112534000Y-111255124D02*
X113468034Y-110321090D01*
X123761500Y-106878001D02*
X123761500Y-105978000D01*
X112534000Y-112931500D02*
X112534000Y-111255124D01*
X123910090Y-107026591D02*
X123761500Y-106878001D01*
X122612034Y-110321090D02*
X123910090Y-109023034D01*
X123910090Y-109023034D02*
X123910090Y-107026591D01*
D47*
%TO.N,/FPGA/CLK_12MHZ*%
X107443639Y-82415000D02*
X106637500Y-82415000D01*
X98044000Y-96774000D02*
X97072000Y-97746000D01*
X111058400Y-81594400D02*
X111046706Y-81606094D01*
X108252545Y-81606094D02*
X107443639Y-82415000D01*
X97072000Y-97746000D02*
X97072000Y-98904500D01*
X111046706Y-81606094D02*
X108252545Y-81606094D01*
%TO.N,/FPGA/D0*%
X115138200Y-94157800D02*
X115138200Y-91009394D01*
X103984500Y-97492000D02*
X111804000Y-97492000D01*
X115138200Y-91009394D02*
X115530994Y-90616600D01*
X115800000Y-90349672D02*
X115800000Y-89577500D01*
X115533072Y-90616600D02*
X115800000Y-90349672D01*
X115530994Y-90616600D02*
X115533072Y-90616600D01*
X111804000Y-97492000D02*
X115138200Y-94157800D01*
%TO.N,/FPGA/D1*%
X103984500Y-96992000D02*
X111796000Y-96992000D01*
X111796000Y-96992000D02*
X114808000Y-93980000D01*
X114808000Y-90841672D02*
X115300000Y-90349672D01*
X114808000Y-93980000D02*
X114808000Y-90841672D01*
X115300000Y-90349672D02*
X115300000Y-89577500D01*
%TO.N,/FPGA/D2*%
X114300000Y-93980000D02*
X114300000Y-90424000D01*
X103984500Y-96492000D02*
X111788000Y-96492000D01*
X111788000Y-96492000D02*
X114300000Y-93980000D01*
X114300000Y-90413646D02*
X114300000Y-89577500D01*
%TO.N,/FPGA/D3*%
X113800000Y-89577500D02*
X113800000Y-94013026D01*
X111821026Y-95992000D02*
X103984500Y-95992000D01*
X113800000Y-94013026D02*
X111821026Y-95992000D01*
%TO.N,/FPGA/D4*%
X111800000Y-94194000D02*
X110502000Y-95492000D01*
X110502000Y-95492000D02*
X103984500Y-95492000D01*
X111800000Y-89577500D02*
X111800000Y-94194000D01*
%TO.N,/FPGA/D5*%
X103984500Y-94992000D02*
X110494000Y-94992000D01*
X110494000Y-94992000D02*
X111469800Y-94016200D01*
X111300000Y-90347594D02*
X111300000Y-89577500D01*
X111469800Y-94016200D02*
X111469800Y-90517394D01*
X111469800Y-90517394D02*
X111300000Y-90347594D01*
%TO.N,/FPGA/D6*%
X108920973Y-94492000D02*
X109550200Y-93862773D01*
X103984500Y-94492000D02*
X108920973Y-94492000D01*
X110300000Y-90397274D02*
X110300000Y-89577500D01*
X109550200Y-93862773D02*
X109550200Y-91147074D01*
X109550200Y-91147074D02*
X110300000Y-90397274D01*
%TO.N,/FPGA/D7*%
X109220000Y-93726000D02*
X109220000Y-90927594D01*
X109800000Y-90347594D02*
X109800000Y-89577500D01*
X104754594Y-93992000D02*
X104924394Y-94161800D01*
X103984500Y-93992000D02*
X104754594Y-93992000D01*
X109220000Y-90927594D02*
X109800000Y-90347594D01*
X104924394Y-94161800D02*
X108784200Y-94161800D01*
X108784200Y-94161800D02*
X109220000Y-93726000D01*
%TO.N,/FPGA/~{RXF}*%
X105136000Y-93492000D02*
X107188000Y-91440000D01*
X103984500Y-93492000D02*
X105136000Y-93492000D01*
X107188000Y-88900000D02*
X107696000Y-88392000D01*
X107407594Y-86415000D02*
X106637500Y-86415000D01*
X107696000Y-86703406D02*
X107407594Y-86415000D01*
X107188000Y-91440000D02*
X107188000Y-88900000D01*
X107696000Y-88392000D02*
X107696000Y-86703406D01*
%TO.N,/FPGA/~{TXE}*%
X102572000Y-90579500D02*
X102572000Y-89807328D01*
X101092000Y-81071940D02*
X101092000Y-82202060D01*
X102572000Y-89807328D02*
X101600000Y-88835328D01*
X101600000Y-82710060D02*
X101092000Y-82202060D01*
X101748940Y-80415000D02*
X106637500Y-80415000D01*
X101600000Y-88835328D02*
X101600000Y-82710060D01*
X101748940Y-80415000D02*
X101092000Y-81071940D01*
%TO.N,/FPGA/~{RD}*%
X102072000Y-90579500D02*
X102072000Y-89774302D01*
X101612167Y-80084800D02*
X105695528Y-80084800D01*
X105865328Y-79915000D02*
X106637500Y-79915000D01*
X105695528Y-80084800D02*
X105865328Y-79915000D01*
X101269800Y-88972101D02*
X101269800Y-83107909D01*
X100761800Y-80935166D02*
X101612167Y-80084800D01*
X102072000Y-89774302D02*
X101269800Y-88972101D01*
X100761800Y-82599909D02*
X100761800Y-80935166D01*
X101269800Y-83107909D02*
X100761800Y-82599909D01*
%TO.N,/FPGA/~{WR}*%
X100939600Y-89108874D02*
X100939600Y-83244683D01*
X101572000Y-90579500D02*
X101572000Y-89741275D01*
X105865328Y-79415000D02*
X106637500Y-79415000D01*
X101572000Y-89741275D02*
X100939600Y-89108874D01*
X100431600Y-82736682D02*
X100431600Y-80798392D01*
X101475394Y-79754600D02*
X105525728Y-79754600D01*
X100431600Y-80798392D02*
X101475394Y-79754600D01*
X105525728Y-79754600D02*
X105865328Y-79415000D01*
X100939600Y-83244683D02*
X100431600Y-82736682D01*
%TO.N,/FPGA/CLK_60MHZ*%
X100330000Y-89565328D02*
X100330000Y-84582000D01*
X100572000Y-89807328D02*
X100330000Y-89565328D01*
X99822000Y-80518000D02*
X101425000Y-78915000D01*
X100572000Y-90579500D02*
X100572000Y-89807328D01*
X100330000Y-84582000D02*
X99822000Y-84074000D01*
X99822000Y-84074000D02*
X99822000Y-80518000D01*
X101425000Y-78915000D02*
X106637500Y-78915000D01*
%TO.N,/FPGA/~{OE}*%
X105865328Y-77915000D02*
X106637500Y-77915000D01*
X99824600Y-88157688D02*
X99060000Y-87393088D01*
X100072000Y-90579500D02*
X100072000Y-89807328D01*
X99824600Y-89559928D02*
X99824600Y-88157688D01*
X99060000Y-87393088D02*
X99060000Y-80518000D01*
X99060000Y-80518000D02*
X101403200Y-78174800D01*
X105605528Y-78174800D02*
X105865328Y-77915000D01*
X101403200Y-78174800D02*
X105605528Y-78174800D01*
X100072000Y-89807328D02*
X99824600Y-89559928D01*
%TO.N,Net-(U9-OUT)*%
X97568500Y-129665500D02*
X98630000Y-128604000D01*
X96737000Y-129665500D02*
X97568500Y-129665500D01*
%TO.N,+3V3*%
X103665200Y-72225467D02*
X104140000Y-72700267D01*
X124690600Y-82052400D02*
X124690600Y-80507600D01*
X116300000Y-89577500D02*
X116300000Y-91395000D01*
X108393819Y-79187600D02*
X107948109Y-79633310D01*
X95489400Y-106157400D02*
X93980000Y-104648000D01*
X116300000Y-91395000D02*
X116586000Y-91681000D01*
X112300000Y-89577500D02*
X112300000Y-88805328D01*
X124715600Y-83580600D02*
X123939000Y-82804000D01*
X112300000Y-89577500D02*
X112300000Y-90951000D01*
X123328000Y-83415000D02*
X121962500Y-83415000D01*
X112300000Y-90951000D02*
X112776000Y-91427000D01*
X109500488Y-72403000D02*
X109728000Y-72403000D01*
X129032000Y-87135000D02*
X128016000Y-86119000D01*
X112300000Y-88805328D02*
X113475328Y-87630000D01*
X120300000Y-75024672D02*
X119126000Y-76198672D01*
X125490600Y-83849200D02*
X125222000Y-83580600D01*
X107409672Y-80915000D02*
X106637500Y-80915000D01*
X100637000Y-75226500D02*
X100462000Y-75051500D01*
X113475328Y-87630000D02*
X113538000Y-87630000D01*
X129095000Y-79057000D02*
X129540000Y-79502000D01*
X105727000Y-85915000D02*
X106637500Y-85915000D01*
X107125000Y-93027000D02*
X106934000Y-93218000D01*
X128016000Y-86119000D02*
X127414400Y-85517400D01*
X107948109Y-79633310D02*
X107948109Y-80376563D01*
X103911574Y-89154000D02*
X103061000Y-88303426D01*
X107948109Y-80376563D02*
X107409672Y-80915000D01*
X116332000Y-89609500D02*
X116300000Y-89577500D01*
X93980000Y-102108000D02*
X92451000Y-100579000D01*
X123939000Y-82804000D02*
X124690600Y-82052400D01*
X108204000Y-93027000D02*
X107125000Y-93027000D01*
X100462000Y-74389000D02*
X100937000Y-73914000D01*
X102362000Y-74422000D02*
X102362000Y-75051500D01*
X129095000Y-78232000D02*
X129095000Y-79057000D01*
X108518400Y-79187600D02*
X108393819Y-79187600D01*
X125222000Y-83580600D02*
X124715600Y-83580600D01*
X103061000Y-88303426D02*
X103061000Y-87376000D01*
X113731600Y-87436400D02*
X113538000Y-87630000D01*
X119126000Y-76198672D02*
X119126000Y-76708000D01*
X93980000Y-104648000D02*
X93980000Y-102108000D01*
X100462000Y-75051500D02*
X100462000Y-74389000D01*
X91437400Y-98818400D02*
X91437400Y-95443600D01*
X91437400Y-95443600D02*
X92139000Y-94742000D01*
X105412600Y-85600600D02*
X105727000Y-85915000D01*
X106637500Y-80915000D02*
X105026000Y-80915000D01*
X125490600Y-85505400D02*
X125490600Y-83849200D01*
X125502600Y-85517400D02*
X125490600Y-85505400D01*
X108722116Y-71624628D02*
X109500488Y-72403000D01*
X92451000Y-99832000D02*
X91437400Y-98818400D01*
X123939000Y-82804000D02*
X123328000Y-83415000D01*
X125502600Y-85517400D02*
X124751000Y-86269000D01*
X100637000Y-77925000D02*
X100076000Y-78486000D01*
X123939000Y-79756000D02*
X123098000Y-78915000D01*
X119126000Y-78994000D02*
X119205000Y-78915000D01*
X104661000Y-84328000D02*
X105412600Y-85079600D01*
X120879500Y-73673000D02*
X120300000Y-74252500D01*
X124635000Y-91374000D02*
X124460000Y-91199000D01*
X103061000Y-85852000D02*
X103137000Y-85852000D01*
X103137000Y-85852000D02*
X104661000Y-84328000D01*
X100937000Y-73914000D02*
X101854000Y-73914000D01*
X116300000Y-89577500D02*
X116300000Y-88637787D01*
X100637000Y-76962000D02*
X100637000Y-75226500D01*
X104585000Y-89154000D02*
X103911574Y-89154000D01*
X116300000Y-88637787D02*
X115098613Y-87436400D01*
X120300000Y-74252500D02*
X120300000Y-75024672D01*
X121666000Y-73673000D02*
X120879500Y-73673000D01*
X126370500Y-91374000D02*
X124635000Y-91374000D01*
X123098000Y-78915000D02*
X121962500Y-78915000D01*
X105026000Y-80915000D02*
X104661000Y-81280000D01*
X103061000Y-87376000D02*
X103061000Y-85852000D01*
X119205000Y-78915000D02*
X121962500Y-78915000D01*
X124460000Y-91199000D02*
X124460000Y-92456000D01*
X127414400Y-85517400D02*
X125502600Y-85517400D01*
X104585000Y-89154000D02*
X104394000Y-89154000D01*
X104140000Y-72700267D02*
X104140000Y-74613000D01*
X110251600Y-74204100D02*
X110251600Y-74168000D01*
X112268000Y-89609500D02*
X112300000Y-89577500D01*
X101854000Y-73914000D02*
X102362000Y-74422000D01*
X124690600Y-80507600D02*
X123939000Y-79756000D01*
X110490000Y-77216000D02*
X108518400Y-79187600D01*
X96060400Y-106157400D02*
X95489400Y-106157400D01*
X100637000Y-76962000D02*
X100637000Y-77925000D01*
X105412600Y-85079600D02*
X105412600Y-85600600D01*
X129032000Y-87884000D02*
X129032000Y-87135000D01*
X96837000Y-106934000D02*
X96060400Y-106157400D01*
X110300000Y-74252500D02*
X110300000Y-72975000D01*
X115098613Y-87436400D02*
X113731600Y-87436400D01*
X110300000Y-72975000D02*
X109728000Y-72403000D01*
X92451000Y-100579000D02*
X92451000Y-99832000D01*
X129095000Y-73660000D02*
X129095000Y-78232000D01*
X104394000Y-89154000D02*
X103632000Y-89916000D01*
%TO.N,Net-(U7-VPHY)*%
X96724000Y-100775000D02*
X96774000Y-100825000D01*
X96774000Y-100825000D02*
X96921594Y-100825000D01*
X95250000Y-100775000D02*
X96724000Y-100775000D01*
X96921594Y-100825000D02*
X98072000Y-99674594D01*
X98072000Y-99674594D02*
X98072000Y-98904500D01*
%TO.N,Net-(U7-VPLL)*%
X101346000Y-100825000D02*
X102820000Y-100825000D01*
X101346000Y-100825000D02*
X100572000Y-100051000D01*
X102820000Y-100825000D02*
X102870000Y-100775000D01*
X100572000Y-100051000D02*
X100572000Y-98904500D01*
%TO.N,Net-(U7-VCCCORE)*%
X94465000Y-92492000D02*
X95659500Y-92492000D01*
X93739000Y-93218000D02*
X94465000Y-92492000D01*
%TO.N,Net-(U7-VCCA)*%
X93739000Y-91694000D02*
X95361500Y-91694000D01*
X95361500Y-91694000D02*
X95659500Y-91992000D01*
%TO.N,/FPGA/TCK*%
X109026400Y-80904494D02*
X108462674Y-80904494D01*
X107452168Y-81915000D02*
X106637500Y-81915000D01*
X108462674Y-80904494D02*
X107452168Y-81915000D01*
%TO.N,Net-(J9-CC1)*%
X131338000Y-99040000D02*
X130556000Y-99822000D01*
X130556000Y-101283000D02*
X131635000Y-102362000D01*
X133480000Y-99040000D02*
X131338000Y-99040000D01*
X130556000Y-99822000D02*
X130556000Y-101283000D01*
%TO.N,Net-(J9-CC2)*%
X131635000Y-93218000D02*
X130302000Y-94551000D01*
X132644328Y-96266000D02*
X132870328Y-96040000D01*
X131064000Y-96266000D02*
X132644328Y-96266000D01*
X130302000Y-94551000D02*
X130302000Y-95504000D01*
X132870328Y-96040000D02*
X133480000Y-96040000D01*
X130302000Y-95504000D02*
X131064000Y-96266000D01*
%TO.N,Net-(U7-~{RESET})*%
X98072000Y-89245000D02*
X98072000Y-90579500D01*
X97473000Y-88646000D02*
X98072000Y-89245000D01*
%TO.N,Net-(U7-EECS)*%
X96698600Y-96261006D02*
X96429594Y-95992000D01*
X96429594Y-95992000D02*
X95659500Y-95992000D01*
X96698600Y-97722994D02*
X96698600Y-96261006D01*
X96317266Y-98244700D02*
X96317266Y-98104328D01*
X111315000Y-102870000D02*
X110357500Y-102870000D01*
X112268000Y-99314000D02*
X112790600Y-99836600D01*
X112790600Y-99836600D02*
X112790600Y-101394400D01*
X112790600Y-101394400D02*
X112014000Y-102171000D01*
X112014000Y-102171000D02*
X111315000Y-102870000D01*
X96317266Y-98104328D02*
X96698600Y-97722994D01*
%TO.N,Net-(U7-EECLK)*%
X112014000Y-103569000D02*
X110608500Y-103569000D01*
X97282000Y-95758000D02*
X97016000Y-95492000D01*
X110608500Y-103569000D02*
X110357500Y-103820000D01*
X113792000Y-101791000D02*
X112014000Y-103569000D01*
X113219247Y-98996918D02*
X113792000Y-99569671D01*
X97016000Y-95492000D02*
X95659500Y-95492000D01*
X113792000Y-99569671D02*
X113792000Y-101791000D01*
%TO.N,Net-(U7-EEDATA)*%
X108903000Y-105410000D02*
X108903000Y-104640500D01*
X95659500Y-94992000D02*
X100214406Y-94992000D01*
X103822726Y-98044000D02*
X104624600Y-98845874D01*
X100214406Y-94992000D02*
X103266406Y-98044000D01*
X108903000Y-104640500D02*
X108082500Y-103820000D01*
X108082500Y-103820000D02*
X106297000Y-103820000D01*
X103266406Y-98044000D02*
X103822726Y-98044000D01*
X106297000Y-103820000D02*
X106172000Y-103695000D01*
X104624600Y-102147600D02*
X106172000Y-103695000D01*
X104624600Y-98845874D02*
X104624600Y-102147600D01*
%TO.N,Net-(U7-REF)*%
X99072000Y-98904500D02*
X99072000Y-100001000D01*
X99072000Y-100001000D02*
X98298000Y-100775000D01*
%TO.N,Net-(U8-DO)*%
X106297000Y-101920000D02*
X106172000Y-102045000D01*
X108082500Y-101920000D02*
X106297000Y-101920000D01*
%TO.N,+1V2*%
X110800000Y-89577500D02*
X110800000Y-91117000D01*
X117800000Y-91117000D02*
X118110000Y-91427000D01*
X110800000Y-88082000D02*
X110800000Y-89577500D01*
X112800000Y-72633000D02*
X113030000Y-72403000D01*
X118110000Y-91427000D02*
X118861600Y-92178600D01*
X100637000Y-72601500D02*
X100462000Y-72776500D01*
X121833600Y-92178600D02*
X122682000Y-93027000D01*
X110800000Y-91117000D02*
X110490000Y-91427000D01*
X108204000Y-82296000D02*
X107585000Y-82915000D01*
X118737000Y-81415000D02*
X121962500Y-81415000D01*
X106637500Y-82915000D02*
X104772000Y-82915000D01*
X100637000Y-70866000D02*
X100637000Y-72601500D01*
X117800000Y-87940000D02*
X117856000Y-87884000D01*
X117251416Y-72403000D02*
X116501600Y-71653184D01*
X121962500Y-75915000D02*
X123190000Y-74687500D01*
X117856000Y-91681000D02*
X117800000Y-91625000D01*
X112800000Y-74252500D02*
X112800000Y-75024672D01*
X120681000Y-75915000D02*
X120396000Y-76200000D01*
X104772000Y-82915000D02*
X104661000Y-82804000D01*
X117800000Y-89577500D02*
X117800000Y-87940000D01*
X111252000Y-87630000D02*
X110800000Y-88082000D01*
X118618000Y-81534000D02*
X118737000Y-81415000D01*
X112800000Y-75024672D02*
X112132672Y-75692000D01*
X121962500Y-75915000D02*
X120681000Y-75915000D01*
X107585000Y-82915000D02*
X106637500Y-82915000D01*
X117300000Y-74252500D02*
X117300000Y-72451000D01*
X123190000Y-74687500D02*
X123190000Y-73673000D01*
X113030000Y-82042000D02*
X112776000Y-82296000D01*
X99060000Y-74178500D02*
X99060000Y-76200000D01*
X116800000Y-74252500D02*
X117300000Y-74252500D01*
X117800000Y-89577500D02*
X117800000Y-91117000D01*
X112132672Y-75692000D02*
X111760000Y-75692000D01*
X118861600Y-92178600D02*
X121833600Y-92178600D01*
X112800000Y-74252500D02*
X112800000Y-72633000D01*
X100462000Y-72776500D02*
X99060000Y-74178500D01*
X123804000Y-81415000D02*
X121962500Y-81415000D01*
X117300000Y-72451000D02*
X117348000Y-72403000D01*
X117348000Y-72403000D02*
X117251416Y-72403000D01*
X100462000Y-72776500D02*
X100462000Y-73132714D01*
X112776000Y-82296000D02*
X108204000Y-82296000D01*
X123939000Y-81280000D02*
X123804000Y-81415000D01*
%TO.N,Net-(U1A-VCCA_BR)*%
X118309000Y-77415000D02*
X117916400Y-77807600D01*
X121208000Y-91377000D02*
X121158000Y-91427000D01*
X120300000Y-89577500D02*
X120300000Y-90569000D01*
X119634000Y-91440000D02*
X120300000Y-90774000D01*
X120300000Y-90774000D02*
X120300000Y-89577500D01*
X121962500Y-77415000D02*
X118309000Y-77415000D01*
X116300000Y-75406000D02*
X116300000Y-74252500D01*
X117916400Y-77807600D02*
X117916400Y-86421728D01*
X117916400Y-86421728D02*
X120300000Y-88805328D01*
X122682000Y-91377000D02*
X121208000Y-91377000D01*
X120300000Y-90569000D02*
X121158000Y-91427000D01*
X120300000Y-88805328D02*
X120300000Y-89577500D01*
X118309000Y-77415000D02*
X116300000Y-75406000D01*
%TO.N,Net-(U10-VBIAS)*%
X116078000Y-119380000D02*
X117410500Y-119380000D01*
X102998500Y-129665500D02*
X103378000Y-129286000D01*
X100330000Y-128604000D02*
X101391500Y-129665500D01*
X101391500Y-129665500D02*
X102274000Y-129665500D01*
X102274000Y-129665500D02*
X102998500Y-129665500D01*
X117410500Y-119380000D02*
X117446500Y-119344000D01*
%TO.N,Net-(U10-MUTEP)*%
X111642328Y-114312000D02*
X113425672Y-114312000D01*
X114034000Y-113703672D02*
X114034000Y-112931500D01*
X113425672Y-114312000D02*
X114034000Y-113703672D01*
X111034000Y-112931500D02*
X111034000Y-113703672D01*
X108082400Y-115298900D02*
X108082400Y-116077072D01*
X109121500Y-116344000D02*
X109893672Y-116344000D01*
X108349328Y-116344000D02*
X109121500Y-116344000D01*
X109893672Y-116344000D02*
X111034000Y-115203672D01*
X107286500Y-114503000D02*
X108082400Y-115298900D01*
X112534000Y-121256500D02*
X112534000Y-118984328D01*
X112534000Y-118984328D02*
X109893672Y-116344000D01*
X111034000Y-115203672D02*
X111034000Y-112931500D01*
X108082400Y-116077072D02*
X108349328Y-116344000D01*
X111034000Y-113703672D02*
X111642328Y-114312000D01*
%TO.N,Net-(U10-LEDO)*%
X107286500Y-119201000D02*
X107429500Y-119344000D01*
X107429500Y-119344000D02*
X109121500Y-119344000D01*
%TO.N,Net-(U10-VREF)*%
X118713900Y-119339228D02*
X118218672Y-118844000D01*
X119465500Y-121424000D02*
X118713900Y-120672400D01*
X118713900Y-120672400D02*
X118713900Y-119339228D01*
X118218672Y-118844000D02*
X117446500Y-118844000D01*
X119451500Y-121384000D02*
X119478500Y-121411000D01*
%TO.N,Net-(U10-MICIN)*%
X97790000Y-132080000D02*
X97601500Y-132080000D01*
X97601500Y-132080000D02*
X96737000Y-131215500D01*
X117426500Y-118364000D02*
X117446500Y-118344000D01*
X116078000Y-118364000D02*
X117426500Y-118364000D01*
%TO.N,Net-(C40-Pad1)*%
X119465500Y-118376000D02*
X119465500Y-119900000D01*
X119415500Y-118326000D02*
X119465500Y-118376000D01*
X119465500Y-118376000D02*
X118933500Y-117844000D01*
X118933500Y-117844000D02*
X117446500Y-117844000D01*
X119415500Y-116852000D02*
X119415500Y-118326000D01*
%TO.N,Net-(U10-LOL)*%
X116082000Y-117344000D02*
X116078000Y-117348000D01*
X117634826Y-120593999D02*
X117634826Y-121408503D01*
X119334360Y-122921400D02*
X120396000Y-123983040D01*
X119147723Y-122921400D02*
X119334360Y-122921400D01*
X117446500Y-117344000D02*
X116082000Y-117344000D01*
X117634826Y-121408503D02*
X119147723Y-122921400D01*
X120396000Y-123983040D02*
X120396000Y-126733000D01*
%TO.N,Net-(U10-LOR)*%
X116485600Y-120435928D02*
X116191672Y-120142000D01*
X118885000Y-123698000D02*
X118885000Y-123457000D01*
X116191672Y-120142000D02*
X115843262Y-120142000D01*
X116066000Y-116344000D02*
X117446500Y-116344000D01*
X115316000Y-117094000D02*
X116066000Y-116344000D01*
X115316000Y-119614738D02*
X115316000Y-117094000D01*
X115843262Y-120142000D02*
X115316000Y-119614738D01*
X116485600Y-121057600D02*
X116485600Y-120435928D01*
X118885000Y-123457000D02*
X116485600Y-121057600D01*
%TO.N,Net-(C37-Pad1)*%
X119415500Y-113754000D02*
X119465500Y-113804000D01*
X117462500Y-115328000D02*
X117446500Y-115344000D01*
X119415500Y-112280000D02*
X119415500Y-113754000D01*
X118218672Y-115344000D02*
X117446500Y-115344000D01*
X119465500Y-115328000D02*
X117462500Y-115328000D01*
X119465500Y-113804000D02*
X119465500Y-115328000D01*
%TO.N,Net-(U11-INL)*%
X119162001Y-128283000D02*
X120396000Y-128283000D01*
X117475000Y-129970001D02*
X119162001Y-128283000D01*
X117475000Y-130845000D02*
X117475000Y-129970001D01*
%TO.N,Net-(U11-VREF)*%
X118745000Y-130845000D02*
X119910000Y-130845000D01*
X119910000Y-130845000D02*
X120396000Y-131331000D01*
%TO.N,Net-(U11-INR)*%
X117475000Y-125695000D02*
X117475000Y-123838000D01*
X117475000Y-123838000D02*
X117335000Y-123698000D01*
%TO.N,Net-(U13-VDD33)*%
X121233500Y-99555000D02*
X120904000Y-99555000D01*
X121856500Y-100178000D02*
X121233500Y-99555000D01*
X120142000Y-98793000D02*
X118618000Y-98793000D01*
X120904000Y-99555000D02*
X120142000Y-98793000D01*
X121856500Y-100778000D02*
X121856500Y-100178000D01*
%TO.N,Net-(U13-XO)*%
X116752000Y-100968472D02*
X116752000Y-100995000D01*
X120220100Y-99811600D02*
X117908872Y-99811600D01*
X120586500Y-100178000D02*
X120220100Y-99811600D01*
X120586500Y-100778000D02*
X120586500Y-100178000D01*
X117908872Y-99811600D02*
X116752000Y-100968472D01*
%TO.N,Net-(U13-XI)*%
X119951500Y-101695500D02*
X118452000Y-103195000D01*
X119951500Y-100778000D02*
X119951500Y-101695500D01*
%TO.N,Net-(D1-A)*%
X106509900Y-118327600D02*
X107286500Y-117551000D01*
X106509900Y-120200400D02*
X106509900Y-118327600D01*
X107467500Y-121158000D02*
X106509900Y-120200400D01*
%TO.N,/FPGA/STRIP2*%
X111300000Y-70152000D02*
X109982000Y-68834000D01*
X109982000Y-68834000D02*
X108434213Y-68834000D01*
X108434213Y-68834000D02*
X107961613Y-69306600D01*
X111300000Y-74252500D02*
X111300000Y-70152000D01*
X106716600Y-69306600D02*
X106415000Y-69005000D01*
X106415000Y-69005000D02*
X106415000Y-68267500D01*
X107961613Y-69306600D02*
X106716600Y-69306600D01*
%TO.N,/FPGA/STRIP1*%
X105765000Y-69005000D02*
X106396800Y-69636800D01*
X106396800Y-69636800D02*
X108098386Y-69636800D01*
X108570987Y-69164200D02*
X109845226Y-69164200D01*
X105765000Y-68267500D02*
X105765000Y-69005000D01*
X110800000Y-70118974D02*
X110800000Y-74252500D01*
X108098386Y-69636800D02*
X108570987Y-69164200D01*
X109845226Y-69164200D02*
X110800000Y-70118974D01*
%TO.N,/FPGA/STRIP3*%
X115300000Y-70374000D02*
X116367400Y-69306600D01*
X122185000Y-68922950D02*
X122185000Y-68267500D01*
X116367400Y-69306600D02*
X121801350Y-69306600D01*
X115300000Y-74252500D02*
X115300000Y-70374000D01*
X121801350Y-69306600D02*
X122185000Y-68922950D01*
%TO.N,/FPGA/STRIP4*%
X122203200Y-69636800D02*
X122835000Y-69005000D01*
X115800000Y-70382000D02*
X116545200Y-69636800D01*
X122835000Y-69005000D02*
X122835000Y-68267500D01*
X115800000Y-74252500D02*
X115800000Y-70382000D01*
X116545200Y-69636800D02*
X122203200Y-69636800D01*
%TO.N,/FPGA/BLANK*%
X114800000Y-74252500D02*
X114800000Y-69180000D01*
X114800000Y-69180000D02*
X114625000Y-69005000D01*
X114625000Y-69005000D02*
X114625000Y-68267500D01*
%TO.N,/FPGA/CLKOUT*%
X113325000Y-69129000D02*
X113325000Y-68267500D01*
X113806600Y-69610600D02*
X113325000Y-69129000D01*
X113806600Y-74245900D02*
X113806600Y-69610600D01*
X113800000Y-74252500D02*
X113806600Y-74245900D01*
%TO.N,/FPGA/ROW_DATA*%
X112253400Y-74205900D02*
X112253400Y-69356600D01*
X112300000Y-74252500D02*
X112253400Y-74205900D01*
X112675000Y-68935000D02*
X112675000Y-68267500D01*
X112253400Y-69356600D02*
X112675000Y-68935000D01*
%TO.N,/FPGA/ROW_CLK*%
X111800000Y-74252500D02*
X111800000Y-69147950D01*
X111800000Y-69147950D02*
X112025000Y-68922950D01*
X112025000Y-68922950D02*
X112025000Y-68267500D01*
%TO.N,/Level Shifters/LED1_out*%
X106415000Y-62542500D02*
X106415000Y-54980000D01*
X106415000Y-54980000D02*
X104775000Y-53340000D01*
%TO.N,/Level Shifters/BLNK_out*%
X115275000Y-62542500D02*
X115275000Y-64748262D01*
X115275000Y-64748262D02*
X116840000Y-66313262D01*
X116840000Y-66313262D02*
X116840000Y-66675000D01*
%TO.N,/Level Shifters/LAT_out*%
X115570000Y-65678262D02*
X115570000Y-66040000D01*
X114625000Y-62542500D02*
X114625000Y-64733262D01*
X114625000Y-64733262D02*
X115570000Y-65678262D01*
%TO.N,/Level Shifters/CLK_out*%
X113975000Y-65080000D02*
X114300000Y-65405000D01*
X113975000Y-62542500D02*
X113975000Y-65080000D01*
%TO.N,/Level Shifters/RDAT_out*%
X113325000Y-62542500D02*
X113325000Y-64475000D01*
X113325000Y-64475000D02*
X113030000Y-64770000D01*
%TO.N,/Level Shifters/RCLK_out*%
X112675000Y-62542500D02*
X112675000Y-63539300D01*
X112675000Y-63539300D02*
X112079300Y-64135000D01*
%TO.N,/Level Shifters/R2_out*%
X102925718Y-66040000D02*
X99695000Y-66040000D01*
X97155000Y-68580000D02*
X93345000Y-68580000D01*
X105765000Y-63200718D02*
X102925718Y-66040000D01*
X105765000Y-62542500D02*
X105765000Y-63200718D01*
X93345000Y-68580000D02*
X92075000Y-69850000D01*
X99695000Y-66040000D02*
X97155000Y-68580000D01*
%TO.N,/Level Shifters/G2_out*%
X97790000Y-67310000D02*
X99695000Y-65405000D01*
X94615000Y-67310000D02*
X97790000Y-67310000D01*
X102907950Y-65405000D02*
X105115000Y-63197950D01*
X105115000Y-63197950D02*
X105115000Y-62542500D01*
X99695000Y-65405000D02*
X102907950Y-65405000D01*
%TO.N,/Level Shifters/B2_out*%
X93345000Y-66040000D02*
X98425000Y-66040000D01*
X92075000Y-67310000D02*
X93345000Y-66040000D01*
X104465000Y-63280000D02*
X104465000Y-62542500D01*
X99695000Y-64770000D02*
X102975000Y-64770000D01*
X102975000Y-64770000D02*
X104465000Y-63280000D01*
X98425000Y-66040000D02*
X99695000Y-64770000D01*
%TO.N,/Level Shifters/R1_out*%
X102515000Y-61805000D02*
X102515000Y-62542500D01*
X93345000Y-63500000D02*
X96322230Y-63500000D01*
X101670000Y-60960000D02*
X102515000Y-61805000D01*
X98862230Y-60960000D02*
X101670000Y-60960000D01*
X96322230Y-63500000D02*
X98862230Y-60960000D01*
X92075000Y-64770000D02*
X93345000Y-63500000D01*
%TO.N,/Level Shifters/G1_out*%
X94615000Y-62230000D02*
X96520000Y-60325000D01*
X103165000Y-61805000D02*
X103165000Y-62542500D01*
X101685000Y-60325000D02*
X103165000Y-61805000D01*
X96520000Y-60325000D02*
X101685000Y-60325000D01*
%TO.N,/Level Shifters/B1_out*%
X94615000Y-59690000D02*
X101700000Y-59690000D01*
X101700000Y-59690000D02*
X103815000Y-61805000D01*
X103815000Y-61805000D02*
X103815000Y-62542500D01*
X92075000Y-62230000D02*
X94615000Y-59690000D01*
%TO.N,/Level Shifters/LED2_out*%
X107065000Y-62542500D02*
X107065000Y-57415000D01*
X107065000Y-57415000D02*
X111125000Y-53355000D01*
%TO.N,/Level Shifters/LED3_out*%
X122835000Y-58715000D02*
X117475000Y-53355000D01*
X122835000Y-62542500D02*
X122835000Y-58715000D01*
%TO.N,/Level Shifters/B3_out*%
X127742950Y-61595000D02*
X133350000Y-61595000D01*
X127036600Y-61503400D02*
X127651350Y-61503400D01*
X127651350Y-61503400D02*
X127742950Y-61595000D01*
X133350000Y-61595000D02*
X133985000Y-62230000D01*
X126735000Y-61805000D02*
X127036600Y-61503400D01*
X126735000Y-62542500D02*
X126735000Y-61805000D01*
%TO.N,/Level Shifters/G3_out*%
X126085000Y-61887050D02*
X127012050Y-60960000D01*
X126085000Y-62542500D02*
X126085000Y-61887050D01*
X135255000Y-60960000D02*
X136525000Y-62230000D01*
X127012050Y-60960000D02*
X135255000Y-60960000D01*
%TO.N,/Level Shifters/R3_out*%
X127385000Y-62542500D02*
X131640000Y-62542500D01*
X131640000Y-62542500D02*
X133867500Y-64770000D01*
%TO.N,/Level Shifters/B4_out*%
X124785000Y-63280000D02*
X126275000Y-64770000D01*
X124785000Y-62542500D02*
X124785000Y-63280000D01*
X132080000Y-67310000D02*
X133985000Y-67310000D01*
X126275000Y-64770000D02*
X129540000Y-64770000D01*
X129540000Y-64770000D02*
X132080000Y-67310000D01*
%TO.N,/Level Shifters/G4_out*%
X129540000Y-64135000D02*
X131445000Y-66040000D01*
X125435000Y-63280000D02*
X126290000Y-64135000D01*
X126290000Y-64135000D02*
X129540000Y-64135000D01*
X131445000Y-66040000D02*
X135255000Y-66040000D01*
X135255000Y-66040000D02*
X136525000Y-67310000D01*
X125435000Y-62542500D02*
X125435000Y-63280000D01*
%TO.N,/Level Shifters/R4_out*%
X133985000Y-69850000D02*
X129540000Y-65405000D01*
X124135000Y-63280000D02*
X124135000Y-62542500D01*
X129540000Y-65405000D02*
X126260000Y-65405000D01*
X126260000Y-65405000D02*
X124135000Y-63280000D01*
%TO.N,/Level Shifters/LED4_out*%
X123485000Y-62542500D02*
X123485000Y-58207000D01*
X122428000Y-54737000D02*
X123825000Y-53340000D01*
X122428000Y-57150000D02*
X122428000Y-54737000D01*
X123485000Y-58207000D02*
X122428000Y-57150000D01*
%TO.N,/FPGA/R2*%
X109300000Y-74252500D02*
X109300000Y-73194726D01*
X109300000Y-73194726D02*
X105115000Y-69009726D01*
X105115000Y-69009726D02*
X105115000Y-68267500D01*
%TO.N,/FPGA/G2*%
X104465000Y-68922950D02*
X104465000Y-68267500D01*
X108800000Y-74252500D02*
X108800000Y-73257950D01*
X108800000Y-73257950D02*
X104465000Y-68922950D01*
%TO.N,/FPGA/B2*%
X103815000Y-69017000D02*
X103815000Y-68267500D01*
X108300000Y-74252500D02*
X108300000Y-73502000D01*
X108300000Y-73502000D02*
X103815000Y-69017000D01*
%TO.N,/FPGA/B1*%
X107409672Y-76415000D02*
X107676600Y-76148072D01*
X103165000Y-69129000D02*
X103165000Y-68267500D01*
X107676600Y-73640600D02*
X103165000Y-69129000D01*
X106637500Y-76415000D02*
X107409672Y-76415000D01*
X107676600Y-76148072D02*
X107676600Y-73640600D01*
%TO.N,/FPGA/G1*%
X105867406Y-76915000D02*
X105598400Y-76645994D01*
X105598400Y-76645994D02*
X105598400Y-72070400D01*
X106637500Y-76915000D02*
X105867406Y-76915000D01*
X102515000Y-68987000D02*
X102515000Y-68267500D01*
X105598400Y-72070400D02*
X102515000Y-68987000D01*
%TO.N,/FPGA/R1*%
X105156000Y-76705672D02*
X105156000Y-72390000D01*
X105867406Y-77415000D02*
X105865328Y-77415000D01*
X105156000Y-72390000D02*
X101865000Y-69099000D01*
X101865000Y-69099000D02*
X101865000Y-68267500D01*
X105865328Y-77415000D02*
X105156000Y-76705672D01*
%TO.N,/FPGA/LAT*%
X113975000Y-68922950D02*
X113975000Y-68267500D01*
X114300000Y-69247950D02*
X113975000Y-68922950D01*
X114300000Y-74252500D02*
X114300000Y-69247950D01*
%TO.N,/FPGA/R4*%
X118300000Y-74252500D02*
X118300000Y-72868354D01*
X121201354Y-69967000D02*
X122565000Y-69967000D01*
X123485000Y-69047000D02*
X123485000Y-68267500D01*
X118300000Y-72868354D02*
X121201354Y-69967000D01*
X122565000Y-69967000D02*
X123485000Y-69047000D01*
%TO.N,/FPGA/B4*%
X121203728Y-70431600D02*
X122862400Y-70431600D01*
X124135000Y-69159000D02*
X124135000Y-68267500D01*
X122862400Y-70431600D02*
X124135000Y-69159000D01*
X118800000Y-74252500D02*
X118800000Y-72835328D01*
X118800000Y-72835328D02*
X121203728Y-70431600D01*
%TO.N,/FPGA/G4*%
X119300000Y-74252500D02*
X119300000Y-72802300D01*
X119300000Y-72802300D02*
X121061101Y-71041200D01*
X123190000Y-71041200D02*
X124785000Y-69446200D01*
X124785000Y-69446200D02*
X124785000Y-68267500D01*
X121061101Y-71041200D02*
X123190000Y-71041200D01*
%TO.N,/FPGA/G3*%
X124206000Y-71374000D02*
X125435000Y-70145000D01*
X119800000Y-74252500D02*
X119800000Y-72769274D01*
X124203400Y-71371400D02*
X124206000Y-71374000D01*
X121197874Y-71371400D02*
X124203400Y-71371400D01*
X125435000Y-70145000D02*
X125435000Y-68267500D01*
X119800000Y-72769274D02*
X121197874Y-71371400D01*
%TO.N,/FPGA/B3*%
X123933000Y-74247288D02*
X126085000Y-72095288D01*
X122732594Y-76415000D02*
X123933000Y-75214594D01*
X123933000Y-75214594D02*
X123933000Y-74247288D01*
X121962500Y-76415000D02*
X122732594Y-76415000D01*
X126085000Y-72095288D02*
X126085000Y-68267500D01*
%TO.N,/FPGA/R3*%
X124263200Y-74384062D02*
X126735000Y-71912262D01*
X124263200Y-75384394D02*
X124263200Y-74384062D01*
X121962500Y-76915000D02*
X122732594Y-76915000D01*
X122732594Y-76915000D02*
X124263200Y-75384394D01*
X126735000Y-71912262D02*
X126735000Y-68267500D01*
%TO.N,/FPGA/TMS*%
X109474000Y-82997600D02*
X109345695Y-83125905D01*
X109345695Y-83125905D02*
X108169677Y-83125905D01*
X108169677Y-83125905D02*
X107880582Y-83415000D01*
X107880582Y-83415000D02*
X106637500Y-83415000D01*
%TO.N,/FPGA/TDI*%
X108966000Y-83950000D02*
X108931000Y-83915000D01*
X108931000Y-83915000D02*
X106637500Y-83915000D01*
%TO.N,/FPGA/TDO*%
X108649709Y-80174963D02*
X107409672Y-81415000D01*
X107409672Y-81415000D02*
X106637500Y-81415000D01*
X108649709Y-79923923D02*
X108649709Y-80174963D01*
%TO.N,/FPGA/CRESET_N*%
X95187000Y-108408000D02*
X95237000Y-108458000D01*
X106637500Y-85415000D02*
X107409672Y-85415000D01*
X95187000Y-106934000D02*
X95187000Y-108408000D01*
X108446710Y-86452038D02*
X108446710Y-86542700D01*
X107409672Y-85415000D02*
X108446710Y-86452038D01*
X94473000Y-106934000D02*
X92451000Y-104912000D01*
X95187000Y-106934000D02*
X94473000Y-106934000D01*
D48*
%TO.N,/USB Hub/RAW_D-*%
X132867018Y-98540000D02*
X133480000Y-98540000D01*
X130934723Y-97458910D02*
X130926723Y-97450910D01*
X130926723Y-97450910D02*
X130805090Y-97450910D01*
X132867018Y-97540000D02*
X132599590Y-97807428D01*
X133480000Y-97540000D02*
X132617499Y-97540000D01*
X133480000Y-97540000D02*
X132867018Y-97540000D01*
X130805090Y-97450910D02*
X130024000Y-98232000D01*
X132599590Y-97807428D02*
X132599590Y-98272572D01*
X132617499Y-97540000D02*
X132536409Y-97458910D01*
X132599590Y-98272572D02*
X132867018Y-98540000D01*
X132536409Y-97458910D02*
X130934723Y-97458910D01*
X130024000Y-98232000D02*
X129661500Y-98232000D01*
%TO.N,/USB Hub/RAW_D+*%
X134366000Y-97790000D02*
X134116000Y-98040000D01*
X134092982Y-97040000D02*
X134366000Y-97313018D01*
X133480000Y-97040000D02*
X134092982Y-97040000D01*
X132617499Y-97040000D02*
X132536409Y-97121090D01*
X134366000Y-97313018D02*
X134366000Y-97790000D01*
X131064000Y-97121090D02*
X131056000Y-97113090D01*
X132536409Y-97121090D02*
X131064000Y-97121090D01*
X130805090Y-97113090D02*
X130024000Y-96332000D01*
X130024000Y-96332000D02*
X129661500Y-96332000D01*
X131056000Y-97113090D02*
X130805090Y-97113090D01*
X133480000Y-97040000D02*
X132617499Y-97040000D01*
X134116000Y-98040000D02*
X133480000Y-98040000D01*
%TO.N,/USB Hub/USB4_D+*%
X105324910Y-110813966D02*
X105324910Y-114369650D01*
X121707910Y-107384966D02*
X120973966Y-108118910D01*
X121856500Y-105978000D02*
X121856500Y-106878001D01*
X120973966Y-108118910D02*
X108019966Y-108118910D01*
X101822050Y-116297710D02*
X101209794Y-116909966D01*
X121856500Y-106878001D02*
X121707910Y-107026591D01*
X101209794Y-116909966D02*
X101209794Y-118179964D01*
X100212902Y-118582382D02*
X99646000Y-119149284D01*
X100807376Y-118582382D02*
X100212902Y-118582382D01*
X103396850Y-116297710D02*
X101822050Y-116297710D01*
X101209794Y-118179964D02*
X100807376Y-118582382D01*
X121707910Y-107026591D02*
X121707910Y-107384966D01*
X105324910Y-114369650D02*
X103396850Y-116297710D01*
X99646000Y-119149284D02*
X99646000Y-119363998D01*
X108019966Y-108118910D02*
X105324910Y-110813966D01*
%TO.N,/USB Hub/USB4_D-*%
X121221500Y-106878001D02*
X121370090Y-107026591D01*
X120834034Y-107781090D02*
X107880034Y-107781090D01*
X107880034Y-107781090D02*
X104987090Y-110674034D01*
X121370090Y-107245034D02*
X120834034Y-107781090D01*
X103256918Y-115959890D02*
X101682118Y-115959890D01*
X101682118Y-115959890D02*
X100871974Y-116770034D01*
X100871974Y-116770034D02*
X100871974Y-118040034D01*
X104987090Y-114229718D02*
X103256918Y-115959890D01*
X100667446Y-118244562D02*
X100108646Y-118244562D01*
X104987090Y-110674034D02*
X104987090Y-114229718D01*
X121221500Y-105978000D02*
X121221500Y-106878001D01*
X121370090Y-107026591D02*
X121370090Y-107245034D01*
X100871974Y-118040034D02*
X100667446Y-118244562D01*
X99646000Y-117781916D02*
X99646000Y-117363998D01*
X100108646Y-118244562D02*
X99646000Y-117781916D01*
%TO.N,/USB Hub/USB3_D+*%
X123126500Y-105978000D02*
X123126500Y-106878001D01*
X122977910Y-108400966D02*
X121989966Y-109388910D01*
X121989966Y-109388910D02*
X109289966Y-109388910D01*
X109289966Y-109388910D02*
X106114057Y-112564819D01*
X123126500Y-106878001D02*
X122977910Y-107026591D01*
X103097090Y-118532908D02*
X102266000Y-119363998D01*
X104463968Y-118532908D02*
X103097090Y-118532908D01*
X106114057Y-112564819D02*
X106114057Y-116882819D01*
X106114057Y-116882819D02*
X104463968Y-118532908D01*
X122977910Y-107026591D02*
X122977910Y-108400966D01*
%TO.N,/USB Hub/USB3_D-*%
X122640090Y-108261034D02*
X121850034Y-109051090D01*
X105776237Y-116742887D02*
X104324036Y-118195088D01*
X121850034Y-109051090D02*
X109150034Y-109051090D01*
X122491500Y-106878001D02*
X122640090Y-107026591D01*
X122640090Y-107026591D02*
X122640090Y-108261034D01*
X109150034Y-109051090D02*
X105776237Y-112424887D01*
X122491500Y-105978000D02*
X122491500Y-106878001D01*
X103097090Y-118195088D02*
X102266000Y-117363998D01*
X104324036Y-118195088D02*
X103097090Y-118195088D01*
X105776237Y-112424887D02*
X105776237Y-116742887D01*
%TO.N,/USB Hub/USBU_D+*%
X123275090Y-99244034D02*
X123275090Y-99729409D01*
X123275090Y-99729409D02*
X123126500Y-99877999D01*
X126242910Y-97113090D02*
X125406034Y-97113090D01*
X123126500Y-99877999D02*
X123126500Y-100778000D01*
X127024000Y-96332000D02*
X126242910Y-97113090D01*
X127386500Y-96332000D02*
X127024000Y-96332000D01*
X125406034Y-97113090D02*
X123275090Y-99244034D01*
%TO.N,/USB Hub/USBU_D-*%
X123612910Y-99383966D02*
X123612910Y-99729409D01*
X123761500Y-99877999D02*
X123761500Y-100778000D01*
X127024000Y-98232000D02*
X126242910Y-97450910D01*
X127386500Y-98232000D02*
X127024000Y-98232000D01*
X123612910Y-99729409D02*
X123761500Y-99877999D01*
X126242910Y-97450910D02*
X125545966Y-97450910D01*
X125545966Y-97450910D02*
X123612910Y-99383966D01*
%TD*%
%TA.AperFunction,Conductor*%
%TO.N,+5V*%
G36*
X132349677Y-93999685D02*
G01*
X132370319Y-94016319D01*
X132551681Y-94197681D01*
X132585166Y-94259004D01*
X132588000Y-94285362D01*
X132588000Y-94996000D01*
X132693246Y-94996000D01*
X132760285Y-95015685D01*
X132780928Y-95032320D01*
X132816653Y-95068046D01*
X132816655Y-95068047D01*
X132816658Y-95068050D01*
X132929696Y-95125646D01*
X132929698Y-95125647D01*
X133023475Y-95140499D01*
X133023481Y-95140500D01*
X133936518Y-95140499D01*
X133937839Y-95140395D01*
X133938334Y-95140499D01*
X133941390Y-95140499D01*
X133941390Y-95141140D01*
X134006217Y-95154755D01*
X134045950Y-95188525D01*
X134048807Y-95192249D01*
X134048808Y-95192250D01*
X134141696Y-95313304D01*
X134262750Y-95406192D01*
X134403720Y-95464584D01*
X134460370Y-95472042D01*
X134517019Y-95479500D01*
X134517020Y-95479500D01*
X134592981Y-95479500D01*
X134630746Y-95474528D01*
X134706280Y-95464584D01*
X134847250Y-95406192D01*
X134968304Y-95313304D01*
X135061192Y-95192250D01*
X135110775Y-95072547D01*
X135154616Y-95018144D01*
X135220910Y-94996079D01*
X135225336Y-94996000D01*
X135838638Y-94996000D01*
X135905677Y-95015685D01*
X135926319Y-95032319D01*
X136107681Y-95213681D01*
X136141166Y-95275004D01*
X136144000Y-95301362D01*
X136144000Y-96468638D01*
X136124315Y-96535677D01*
X136107681Y-96556319D01*
X135926319Y-96737681D01*
X135864996Y-96771166D01*
X135838638Y-96774000D01*
X134671362Y-96774000D01*
X134604323Y-96754315D01*
X134583681Y-96737681D01*
X134402319Y-96556319D01*
X134368834Y-96494996D01*
X134366000Y-96468638D01*
X134366000Y-95758000D01*
X134284688Y-95758000D01*
X134217649Y-95738315D01*
X134197007Y-95721681D01*
X134169579Y-95694253D01*
X134154469Y-95687207D01*
X134065545Y-95645741D01*
X134065543Y-95645740D01*
X134065544Y-95645740D01*
X134018139Y-95639500D01*
X132941867Y-95639500D01*
X132894453Y-95645741D01*
X132805529Y-95687207D01*
X132768483Y-95697868D01*
X132761382Y-95699981D01*
X132754424Y-95702371D01*
X132754420Y-95702372D01*
X132754420Y-95702373D01*
X132711374Y-95725666D01*
X132706841Y-95728000D01*
X132671252Y-95745399D01*
X132616790Y-95758000D01*
X131369362Y-95758000D01*
X131302323Y-95738315D01*
X131281681Y-95721681D01*
X131100319Y-95540319D01*
X131066834Y-95478996D01*
X131064000Y-95452638D01*
X131064000Y-94338306D01*
X131083685Y-94271267D01*
X131100319Y-94250625D01*
X131334625Y-94016319D01*
X131395948Y-93982834D01*
X131422306Y-93980000D01*
X132282638Y-93980000D01*
X132349677Y-93999685D01*
G37*
%TD.AperFunction*%
%TD*%
%TA.AperFunction,Conductor*%
%TO.N,/USB Audio/L+*%
G36*
X110364635Y-128543685D02*
G01*
X110410390Y-128596489D01*
X110415527Y-128609681D01*
X110424819Y-128638280D01*
X110424821Y-128638284D01*
X110473387Y-128722403D01*
X110490000Y-128784402D01*
X110490000Y-129633691D01*
X110470315Y-129700730D01*
X110461428Y-129711757D01*
X110461702Y-129711969D01*
X110456917Y-129718137D01*
X110373255Y-129859603D01*
X110373254Y-129859606D01*
X110327402Y-130017426D01*
X110327401Y-130017432D01*
X110324500Y-130054298D01*
X110324500Y-131587300D01*
X110304815Y-131654339D01*
X110252011Y-131700094D01*
X110200500Y-131711300D01*
X109344000Y-131711300D01*
X109276961Y-131691615D01*
X109231206Y-131638811D01*
X109220000Y-131587300D01*
X109220000Y-128648000D01*
X109239685Y-128580961D01*
X109292489Y-128535206D01*
X109344000Y-128524000D01*
X110297596Y-128524000D01*
X110364635Y-128543685D01*
G37*
%TD.AperFunction*%
%TD*%
%TA.AperFunction,Conductor*%
%TO.N,+5V*%
G36*
X135905677Y-98825685D02*
G01*
X135926319Y-98842319D01*
X136107681Y-99023681D01*
X136141166Y-99085004D01*
X136144000Y-99111362D01*
X136144000Y-100278638D01*
X136124315Y-100345677D01*
X136107681Y-100366319D01*
X135926319Y-100547681D01*
X135864996Y-100581166D01*
X135838638Y-100584000D01*
X135225336Y-100584000D01*
X135158297Y-100564315D01*
X135112542Y-100511511D01*
X135110775Y-100507453D01*
X135061193Y-100387753D01*
X135061192Y-100387750D01*
X134968304Y-100266696D01*
X134847250Y-100173808D01*
X134847249Y-100173807D01*
X134847247Y-100173806D01*
X134706280Y-100115416D01*
X134706278Y-100115415D01*
X134592981Y-100100500D01*
X134592980Y-100100500D01*
X134517020Y-100100500D01*
X134517019Y-100100500D01*
X134403721Y-100115415D01*
X134403719Y-100115416D01*
X134262752Y-100173806D01*
X134202223Y-100220252D01*
X134141696Y-100266696D01*
X134141695Y-100266697D01*
X134141694Y-100266698D01*
X134045950Y-100391473D01*
X133989522Y-100432675D01*
X133941391Y-100439131D01*
X133941391Y-100439500D01*
X133938642Y-100439500D01*
X133937860Y-100439605D01*
X133936524Y-100439500D01*
X133023482Y-100439500D01*
X132942519Y-100452323D01*
X132929696Y-100454354D01*
X132816658Y-100511950D01*
X132816657Y-100511951D01*
X132816653Y-100511953D01*
X132780928Y-100547680D01*
X132719606Y-100581166D01*
X132693246Y-100584000D01*
X132588000Y-100584000D01*
X132588000Y-101294638D01*
X132568315Y-101361677D01*
X132551681Y-101382319D01*
X132370319Y-101563681D01*
X132308996Y-101597166D01*
X132282638Y-101600000D01*
X131422307Y-101600000D01*
X131355268Y-101580315D01*
X131334626Y-101563681D01*
X131100319Y-101329374D01*
X131066834Y-101268051D01*
X131064000Y-101241693D01*
X131064000Y-100127362D01*
X131083685Y-100060323D01*
X131100319Y-100039681D01*
X131281681Y-99858319D01*
X131343004Y-99824834D01*
X131369362Y-99822000D01*
X132675312Y-99822000D01*
X132742351Y-99841685D01*
X132762993Y-99858319D01*
X132790421Y-99885747D01*
X132894455Y-99934259D01*
X132941861Y-99940500D01*
X134018138Y-99940499D01*
X134065545Y-99934259D01*
X134169579Y-99885747D01*
X134197007Y-99858319D01*
X134258330Y-99824834D01*
X134284688Y-99822000D01*
X134366000Y-99822000D01*
X134366000Y-99111362D01*
X134385685Y-99044323D01*
X134402319Y-99023681D01*
X134583681Y-98842319D01*
X134645004Y-98808834D01*
X134671362Y-98806000D01*
X135838638Y-98806000D01*
X135905677Y-98825685D01*
G37*
%TD.AperFunction*%
%TD*%
%TA.AperFunction,Conductor*%
%TO.N,/USB Audio/R+*%
G36*
X110370514Y-124479685D02*
G01*
X110416269Y-124532489D01*
X110426213Y-124601647D01*
X110410207Y-124647121D01*
X110373255Y-124709603D01*
X110373254Y-124709606D01*
X110327402Y-124867426D01*
X110327401Y-124867432D01*
X110324500Y-124904298D01*
X110324500Y-126485701D01*
X110327401Y-126522567D01*
X110327402Y-126522573D01*
X110373254Y-126680393D01*
X110373255Y-126680396D01*
X110456917Y-126821862D01*
X110461702Y-126828031D01*
X110459670Y-126829606D01*
X110487160Y-126879923D01*
X110490000Y-126906308D01*
X110490000Y-127755596D01*
X110473387Y-127817596D01*
X110424822Y-127901712D01*
X110424820Y-127901716D01*
X110415528Y-127930317D01*
X110376091Y-127987993D01*
X110311733Y-128015192D01*
X110297597Y-128016000D01*
X109344000Y-128016000D01*
X109276961Y-127996315D01*
X109231206Y-127943511D01*
X109220000Y-127892000D01*
X109220000Y-124584000D01*
X109239685Y-124516961D01*
X109292489Y-124471206D01*
X109344000Y-124460000D01*
X110303475Y-124460000D01*
X110370514Y-124479685D01*
G37*
%TD.AperFunction*%
%TD*%
%TA.AperFunction,Conductor*%
%TO.N,/USB Audio/L-*%
G36*
X112973039Y-128543685D02*
G01*
X113018794Y-128596489D01*
X113030000Y-128648000D01*
X113030000Y-129633691D01*
X113010315Y-129700730D01*
X113001428Y-129711757D01*
X113001702Y-129711969D01*
X112996917Y-129718137D01*
X112913255Y-129859603D01*
X112913254Y-129859606D01*
X112867402Y-130017426D01*
X112867401Y-130017432D01*
X112864500Y-130054298D01*
X112864500Y-131587300D01*
X112844815Y-131654339D01*
X112792011Y-131700094D01*
X112740500Y-131711300D01*
X112049500Y-131711300D01*
X111982461Y-131691615D01*
X111936706Y-131638811D01*
X111925500Y-131587300D01*
X111925500Y-130054313D01*
X111925499Y-130054298D01*
X111922598Y-130017432D01*
X111922597Y-130017426D01*
X111876745Y-129859606D01*
X111876744Y-129859603D01*
X111876744Y-129859602D01*
X111793081Y-129718135D01*
X111793078Y-129718132D01*
X111788298Y-129711969D01*
X111790325Y-129710396D01*
X111762834Y-129660049D01*
X111760000Y-129633691D01*
X111760000Y-129077176D01*
X111779685Y-129010137D01*
X111811116Y-128976857D01*
X111857871Y-128942888D01*
X111984533Y-128802216D01*
X112079179Y-128638284D01*
X112088473Y-128609681D01*
X112127911Y-128552006D01*
X112192270Y-128524808D01*
X112206404Y-128524000D01*
X112906000Y-128524000D01*
X112973039Y-128543685D01*
G37*
%TD.AperFunction*%
%TD*%
%TA.AperFunction,Conductor*%
%TO.N,/USB Audio/R-*%
G36*
X112057334Y-124483192D02*
G01*
X112101681Y-124511693D01*
X112110955Y-124520967D01*
X112110959Y-124520970D01*
X112255294Y-124609998D01*
X112255297Y-124609999D01*
X112255303Y-124610003D01*
X112416292Y-124663349D01*
X112515655Y-124673500D01*
X112758591Y-124673499D01*
X112825630Y-124693183D01*
X112871385Y-124745987D01*
X112881329Y-124815146D01*
X112877668Y-124832091D01*
X112867402Y-124867426D01*
X112867401Y-124867432D01*
X112864500Y-124904298D01*
X112864500Y-126485701D01*
X112867401Y-126522567D01*
X112867402Y-126522573D01*
X112913254Y-126680393D01*
X112913255Y-126680396D01*
X112996917Y-126821862D01*
X113001702Y-126828031D01*
X112999670Y-126829606D01*
X113027160Y-126879923D01*
X113030000Y-126906308D01*
X113030000Y-127892000D01*
X113010315Y-127959039D01*
X112957511Y-128004794D01*
X112906000Y-128016000D01*
X112206404Y-128016000D01*
X112139365Y-127996315D01*
X112093610Y-127943511D01*
X112088473Y-127930319D01*
X112079180Y-127901719D01*
X112079179Y-127901718D01*
X112079179Y-127901716D01*
X111984533Y-127737784D01*
X111934922Y-127682686D01*
X111857876Y-127597116D01*
X111857873Y-127597114D01*
X111857872Y-127597113D01*
X111857871Y-127597112D01*
X111811114Y-127563141D01*
X111768449Y-127507810D01*
X111760000Y-127462823D01*
X111760000Y-126906308D01*
X111779685Y-126839269D01*
X111788571Y-126828243D01*
X111788298Y-126828031D01*
X111793075Y-126821870D01*
X111793081Y-126821865D01*
X111876744Y-126680398D01*
X111922598Y-126522569D01*
X111925500Y-126485694D01*
X111925500Y-124904306D01*
X111922598Y-124867431D01*
X111876744Y-124709602D01*
X111867730Y-124694361D01*
X111850548Y-124626638D01*
X111872708Y-124560375D01*
X111909371Y-124525700D01*
X111917044Y-124520968D01*
X111926319Y-124511693D01*
X111987642Y-124478208D01*
X112057334Y-124483192D01*
G37*
%TD.AperFunction*%
%TD*%
%TA.AperFunction,Conductor*%
%TO.N,GND*%
G36*
X133957709Y-100810185D02*
G01*
X134003464Y-100862989D01*
X134005231Y-100867047D01*
X134048806Y-100972247D01*
X134048808Y-100972251D01*
X134086375Y-101021208D01*
X134111570Y-101086377D01*
X134111782Y-101091474D01*
X134112000Y-101092000D01*
X134366000Y-101346000D01*
X138886638Y-101346000D01*
X138953677Y-101365685D01*
X138974319Y-101382319D01*
X139155681Y-101563681D01*
X139189166Y-101625004D01*
X139192000Y-101651362D01*
X139192000Y-102564638D01*
X139172315Y-102631677D01*
X139155681Y-102652319D01*
X138974319Y-102833681D01*
X138912996Y-102867166D01*
X138886638Y-102870000D01*
X136144000Y-102870000D01*
X133147362Y-102870000D01*
X133080323Y-102850315D01*
X133059681Y-102833681D01*
X132878319Y-102652319D01*
X132844834Y-102590996D01*
X132842000Y-102564638D01*
X132842000Y-101515693D01*
X132855468Y-101459490D01*
X132861439Y-101447749D01*
X132881124Y-101380710D01*
X132893500Y-101294638D01*
X132893500Y-100914500D01*
X132913185Y-100847461D01*
X132965989Y-100801706D01*
X133017500Y-100790500D01*
X133890670Y-100790500D01*
X133957709Y-100810185D01*
G37*
%TD.AperFunction*%
%TD*%
%TA.AperFunction,Conductor*%
%TO.N,GND*%
G36*
X138953677Y-92729685D02*
G01*
X138974319Y-92746319D01*
X139155681Y-92927681D01*
X139189166Y-92989004D01*
X139192000Y-93015362D01*
X139192000Y-93928638D01*
X139172315Y-93995677D01*
X139155681Y-94016319D01*
X138974319Y-94197681D01*
X138912996Y-94231166D01*
X138886638Y-94234000D01*
X134365999Y-94234000D01*
X134112000Y-94487999D01*
X134107261Y-94499439D01*
X134092315Y-94550342D01*
X134086377Y-94558788D01*
X134048807Y-94607750D01*
X134005231Y-94712953D01*
X133961390Y-94767356D01*
X133895096Y-94789421D01*
X133890670Y-94789500D01*
X133017500Y-94789500D01*
X132950461Y-94769815D01*
X132904706Y-94717011D01*
X132893500Y-94665500D01*
X132893500Y-94285361D01*
X132893390Y-94283320D01*
X132891749Y-94252703D01*
X132888915Y-94226345D01*
X132888080Y-94219340D01*
X132853297Y-94112593D01*
X132853294Y-94112589D01*
X132852149Y-94109932D01*
X132851661Y-94107572D01*
X132851521Y-94107141D01*
X132851569Y-94107125D01*
X132842000Y-94060800D01*
X132842000Y-93015362D01*
X132861685Y-92948323D01*
X132878319Y-92927681D01*
X133059681Y-92746319D01*
X133121004Y-92712834D01*
X133147362Y-92710000D01*
X138886638Y-92710000D01*
X138953677Y-92729685D01*
G37*
%TD.AperFunction*%
%TD*%
M02*
