%TF.GenerationSoftware,KiCad,Pcbnew,7.0.10*%
%TF.CreationDate,2024-01-24T17:50:34-06:00*%
%TF.ProjectId,HUB75-FPGA-Card,48554237-352d-4465-9047-412d43617264,rev?*%
%TF.SameCoordinates,Original*%
%TF.FileFunction,Paste,Top*%
%TF.FilePolarity,Positive*%
%FSLAX46Y46*%
G04 Gerber Fmt 4.6, Leading zero omitted, Abs format (unit mm)*
G04 Created by KiCad (PCBNEW 7.0.10) date 2024-01-24 17:50:34*
%MOMM*%
%LPD*%
G01*
G04 APERTURE LIST*
G04 Aperture macros list*
%AMRoundRect*
0 Rectangle with rounded corners*
0 $1 Rounding radius*
0 $2 $3 $4 $5 $6 $7 $8 $9 X,Y pos of 4 corners*
0 Add a 4 corners polygon primitive as box body*
4,1,4,$2,$3,$4,$5,$6,$7,$8,$9,$2,$3,0*
0 Add four circle primitives for the rounded corners*
1,1,$1+$1,$2,$3*
1,1,$1+$1,$4,$5*
1,1,$1+$1,$6,$7*
1,1,$1+$1,$8,$9*
0 Add four rect primitives between the rounded corners*
20,1,$1+$1,$2,$3,$4,$5,0*
20,1,$1+$1,$4,$5,$6,$7,0*
20,1,$1+$1,$6,$7,$8,$9,0*
20,1,$1+$1,$8,$9,$2,$3,0*%
G04 Aperture macros list end*
%ADD10RoundRect,0.225000X-0.250000X0.225000X-0.250000X-0.225000X0.250000X-0.225000X0.250000X0.225000X0*%
%ADD11RoundRect,0.200000X-0.200000X-0.275000X0.200000X-0.275000X0.200000X0.275000X-0.200000X0.275000X0*%
%ADD12RoundRect,0.200000X-0.275000X0.200000X-0.275000X-0.200000X0.275000X-0.200000X0.275000X0.200000X0*%
%ADD13RoundRect,0.225000X0.250000X-0.225000X0.250000X0.225000X-0.250000X0.225000X-0.250000X-0.225000X0*%
%ADD14RoundRect,0.200000X0.275000X-0.200000X0.275000X0.200000X-0.275000X0.200000X-0.275000X-0.200000X0*%
%ADD15RoundRect,0.150000X-0.512500X-0.150000X0.512500X-0.150000X0.512500X0.150000X-0.512500X0.150000X0*%
%ADD16RoundRect,0.225000X0.225000X0.250000X-0.225000X0.250000X-0.225000X-0.250000X0.225000X-0.250000X0*%
%ADD17C,0.800000*%
%ADD18RoundRect,0.225000X-0.225000X-0.250000X0.225000X-0.250000X0.225000X0.250000X-0.225000X0.250000X0*%
%ADD19RoundRect,0.200000X0.200000X0.275000X-0.200000X0.275000X-0.200000X-0.275000X0.200000X-0.275000X0*%
%ADD20RoundRect,0.100000X0.100000X-0.637500X0.100000X0.637500X-0.100000X0.637500X-0.100000X-0.637500X0*%
%ADD21R,1.200000X1.400000*%
%ADD22RoundRect,0.150000X0.425000X-0.150000X0.425000X0.150000X-0.425000X0.150000X-0.425000X-0.150000X0*%
%ADD23RoundRect,0.075000X0.500000X-0.075000X0.500000X0.075000X-0.500000X0.075000X-0.500000X-0.075000X0*%
%ADD24O,2.100000X1.000000*%
%ADD25O,1.800000X1.000000*%
%ADD26RoundRect,0.218750X-0.218750X-0.256250X0.218750X-0.256250X0.218750X0.256250X-0.218750X0.256250X0*%
%ADD27RoundRect,0.075000X-0.662500X-0.075000X0.662500X-0.075000X0.662500X0.075000X-0.662500X0.075000X0*%
%ADD28RoundRect,0.075000X-0.075000X-0.662500X0.075000X-0.662500X0.075000X0.662500X-0.075000X0.662500X0*%
%ADD29RoundRect,0.200000X0.200000X0.250000X-0.200000X0.250000X-0.200000X-0.250000X0.200000X-0.250000X0*%
%ADD30RoundRect,0.150000X0.150000X-0.725000X0.150000X0.725000X-0.150000X0.725000X-0.150000X-0.725000X0*%
%ADD31RoundRect,0.075000X0.075000X-0.662500X0.075000X0.662500X-0.075000X0.662500X-0.075000X-0.662500X0*%
%ADD32RoundRect,0.075000X0.662500X-0.075000X0.662500X0.075000X-0.662500X0.075000X-0.662500X-0.075000X0*%
%ADD33R,0.400000X1.200000*%
%ADD34RoundRect,0.150000X0.150000X-0.512500X0.150000X0.512500X-0.150000X0.512500X-0.150000X-0.512500X0*%
G04 APERTURE END LIST*
D10*
%TO.C,C28*%
X96774000Y-100825000D03*
X96774000Y-102375000D03*
%TD*%
D11*
%TO.C,R12*%
X97473000Y-88646000D03*
X99123000Y-88646000D03*
%TD*%
D12*
%TO.C,R13*%
X112014000Y-100521000D03*
X112014000Y-102171000D03*
%TD*%
D13*
%TO.C,C9*%
X113030000Y-72403000D03*
X113030000Y-70853000D03*
%TD*%
D14*
%TO.C,R14*%
X112014000Y-105219000D03*
X112014000Y-103569000D03*
%TD*%
D10*
%TO.C,C13*%
X121158000Y-91427000D03*
X121158000Y-92977000D03*
%TD*%
D15*
%TO.C,U8*%
X108082500Y-101920000D03*
X108082500Y-102870000D03*
X108082500Y-103820000D03*
X110357500Y-103820000D03*
X110357500Y-102870000D03*
X110357500Y-101920000D03*
%TD*%
D16*
%TO.C,C54*%
X128537000Y-99822000D03*
X126987000Y-99822000D03*
%TD*%
D17*
%TO.C,U9*%
X100330000Y-128604000D03*
X100330000Y-131064000D03*
X98630000Y-131064000D03*
X98630000Y-128604000D03*
%TD*%
D18*
%TO.C,C23*%
X100637000Y-76962000D03*
X102187000Y-76962000D03*
%TD*%
%TO.C,C6*%
X123939000Y-81280000D03*
X125489000Y-81280000D03*
%TD*%
D10*
%TO.C,C4*%
X110490000Y-91427000D03*
X110490000Y-92977000D03*
%TD*%
D14*
%TO.C,R19*%
X107286500Y-116153000D03*
X107286500Y-114503000D03*
%TD*%
D13*
%TO.C,C14*%
X121666000Y-73673000D03*
X121666000Y-72123000D03*
%TD*%
%TO.C,C7*%
X123190000Y-73673000D03*
X123190000Y-72123000D03*
%TD*%
D19*
%TO.C,FB5*%
X121065500Y-116852000D03*
X119415500Y-116852000D03*
%TD*%
D18*
%TO.C,C55*%
X100317000Y-108458000D03*
X101867000Y-108458000D03*
%TD*%
D14*
%TO.C,R18*%
X107286500Y-119201000D03*
X107286500Y-117551000D03*
%TD*%
D19*
%TO.C,R3*%
X129095000Y-75184000D03*
X127445000Y-75184000D03*
%TD*%
D18*
%TO.C,C31*%
X104635000Y-90678000D03*
X106185000Y-90678000D03*
%TD*%
D20*
%TO.C,U5*%
X111375000Y-68267500D03*
X112025000Y-68267500D03*
X112675000Y-68267500D03*
X113325000Y-68267500D03*
X113975000Y-68267500D03*
X114625000Y-68267500D03*
X115275000Y-68267500D03*
X115925000Y-68267500D03*
X116575000Y-68267500D03*
X117225000Y-68267500D03*
X117225000Y-62542500D03*
X116575000Y-62542500D03*
X115925000Y-62542500D03*
X115275000Y-62542500D03*
X114625000Y-62542500D03*
X113975000Y-62542500D03*
X113325000Y-62542500D03*
X112675000Y-62542500D03*
X112025000Y-62542500D03*
X111375000Y-62542500D03*
%TD*%
D16*
%TO.C,C49*%
X118885000Y-123698000D03*
X117335000Y-123698000D03*
%TD*%
D13*
%TO.C,C47*%
X96737000Y-131215500D03*
X96737000Y-129665500D03*
%TD*%
%TO.C,C22*%
X109728000Y-72403000D03*
X109728000Y-70853000D03*
%TD*%
D18*
%TO.C,C16*%
X123939000Y-82804000D03*
X125489000Y-82804000D03*
%TD*%
D16*
%TO.C,C20*%
X104661000Y-81280000D03*
X103111000Y-81280000D03*
%TD*%
D18*
%TO.C,C41*%
X119465500Y-119900000D03*
X121015500Y-119900000D03*
%TD*%
D19*
%TO.C,R10*%
X96837000Y-106934000D03*
X95187000Y-106934000D03*
%TD*%
%TO.C,R21*%
X131635000Y-93218000D03*
X129985000Y-93218000D03*
%TD*%
D15*
%TO.C,U2*%
X126370500Y-89474000D03*
X126370500Y-91374000D03*
X128645500Y-90424000D03*
%TD*%
D10*
%TO.C,C48*%
X120396000Y-126733000D03*
X120396000Y-128283000D03*
%TD*%
D13*
%TO.C,C50*%
X120396000Y-131331000D03*
X120396000Y-129781000D03*
%TD*%
D19*
%TO.C,R2*%
X129095000Y-73660000D03*
X127445000Y-73660000D03*
%TD*%
D21*
%TO.C,Y1*%
X118452000Y-103195000D03*
X118452000Y-100995000D03*
X116752000Y-100995000D03*
X116752000Y-103195000D03*
%TD*%
D11*
%TO.C,R8*%
X92139000Y-94742000D03*
X93789000Y-94742000D03*
%TD*%
%TO.C,R7*%
X103061000Y-85852000D03*
X104711000Y-85852000D03*
%TD*%
D18*
%TO.C,C15*%
X123939000Y-79756000D03*
X125489000Y-79756000D03*
%TD*%
D13*
%TO.C,C8*%
X117348000Y-72403000D03*
X117348000Y-70853000D03*
%TD*%
D22*
%TO.C,J9*%
X133480000Y-100990000D03*
X133480000Y-100190000D03*
D23*
X133480000Y-99040000D03*
X133480000Y-98040000D03*
X133480000Y-97540000D03*
X133480000Y-96540000D03*
D22*
X133480000Y-95390000D03*
X133480000Y-94590000D03*
X133480000Y-94590000D03*
X133480000Y-95390000D03*
D23*
X133480000Y-96040000D03*
X133480000Y-97040000D03*
X133480000Y-98540000D03*
X133480000Y-99540000D03*
D22*
X133480000Y-100190000D03*
X133480000Y-100990000D03*
D24*
X134055000Y-102110000D03*
D25*
X138235000Y-102110000D03*
D24*
X134055000Y-93470000D03*
D25*
X138235000Y-93470000D03*
%TD*%
D10*
%TO.C,C46*%
X102274000Y-129665500D03*
X102274000Y-131215500D03*
%TD*%
D16*
%TO.C,C45*%
X112789000Y-123698000D03*
X111239000Y-123698000D03*
%TD*%
D20*
%TO.C,U6*%
X121535000Y-68267500D03*
X122185000Y-68267500D03*
X122835000Y-68267500D03*
X123485000Y-68267500D03*
X124135000Y-68267500D03*
X124785000Y-68267500D03*
X125435000Y-68267500D03*
X126085000Y-68267500D03*
X126735000Y-68267500D03*
X127385000Y-68267500D03*
X127385000Y-62542500D03*
X126735000Y-62542500D03*
X126085000Y-62542500D03*
X125435000Y-62542500D03*
X124785000Y-62542500D03*
X124135000Y-62542500D03*
X123485000Y-62542500D03*
X122835000Y-62542500D03*
X122185000Y-62542500D03*
X121535000Y-62542500D03*
%TD*%
D18*
%TO.C,C24*%
X100637000Y-70866000D03*
X102187000Y-70866000D03*
%TD*%
D11*
%TO.C,R1*%
X103061000Y-87376000D03*
X104711000Y-87376000D03*
%TD*%
D16*
%TO.C,C34*%
X93739000Y-91694000D03*
X92189000Y-91694000D03*
%TD*%
D10*
%TO.C,C17*%
X112776000Y-91427000D03*
X112776000Y-92977000D03*
%TD*%
D16*
%TO.C,C42*%
X108217000Y-131572000D03*
X106667000Y-131572000D03*
%TD*%
D11*
%TO.C,R11*%
X104585000Y-89154000D03*
X106235000Y-89154000D03*
%TD*%
D18*
%TO.C,C43*%
X114287000Y-123698000D03*
X115837000Y-123698000D03*
%TD*%
D13*
%TO.C,C1*%
X128016000Y-86119000D03*
X128016000Y-84569000D03*
%TD*%
D26*
%TO.C,D1*%
X105892500Y-121158000D03*
X107467500Y-121158000D03*
%TD*%
D18*
%TO.C,C39*%
X119465500Y-121424000D03*
X121015500Y-121424000D03*
%TD*%
D27*
%TO.C,U1*%
X106637500Y-75915000D03*
X106637500Y-76415000D03*
X106637500Y-76915000D03*
X106637500Y-77415000D03*
X106637500Y-77915000D03*
X106637500Y-78415000D03*
X106637500Y-78915000D03*
X106637500Y-79415000D03*
X106637500Y-79915000D03*
X106637500Y-80415000D03*
X106637500Y-80915000D03*
X106637500Y-81415000D03*
X106637500Y-81915000D03*
X106637500Y-82415000D03*
X106637500Y-82915000D03*
X106637500Y-83415000D03*
X106637500Y-83915000D03*
X106637500Y-84415000D03*
X106637500Y-84915000D03*
X106637500Y-85415000D03*
X106637500Y-85915000D03*
X106637500Y-86415000D03*
X106637500Y-86915000D03*
X106637500Y-87415000D03*
X106637500Y-87915000D03*
D28*
X108300000Y-89577500D03*
X108800000Y-89577500D03*
X109300000Y-89577500D03*
X109800000Y-89577500D03*
X110300000Y-89577500D03*
X110800000Y-89577500D03*
X111300000Y-89577500D03*
X111800000Y-89577500D03*
X112300000Y-89577500D03*
X112800000Y-89577500D03*
X113300000Y-89577500D03*
X113800000Y-89577500D03*
X114300000Y-89577500D03*
X114800000Y-89577500D03*
X115300000Y-89577500D03*
X115800000Y-89577500D03*
X116300000Y-89577500D03*
X116800000Y-89577500D03*
X117300000Y-89577500D03*
X117800000Y-89577500D03*
X118300000Y-89577500D03*
X118800000Y-89577500D03*
X119300000Y-89577500D03*
X119800000Y-89577500D03*
X120300000Y-89577500D03*
D27*
X121962500Y-87915000D03*
X121962500Y-87415000D03*
X121962500Y-86915000D03*
X121962500Y-86415000D03*
X121962500Y-85915000D03*
X121962500Y-85415000D03*
X121962500Y-84915000D03*
X121962500Y-84415000D03*
X121962500Y-83915000D03*
X121962500Y-83415000D03*
X121962500Y-82915000D03*
X121962500Y-82415000D03*
X121962500Y-81915000D03*
X121962500Y-81415000D03*
X121962500Y-80915000D03*
X121962500Y-80415000D03*
X121962500Y-79915000D03*
X121962500Y-79415000D03*
X121962500Y-78915000D03*
X121962500Y-78415000D03*
X121962500Y-77915000D03*
X121962500Y-77415000D03*
X121962500Y-76915000D03*
X121962500Y-76415000D03*
X121962500Y-75915000D03*
D28*
X120300000Y-74252500D03*
X119800000Y-74252500D03*
X119300000Y-74252500D03*
X118800000Y-74252500D03*
X118300000Y-74252500D03*
X117800000Y-74252500D03*
X117300000Y-74252500D03*
X116800000Y-74252500D03*
X116300000Y-74252500D03*
X115800000Y-74252500D03*
X115300000Y-74252500D03*
X114800000Y-74252500D03*
X114300000Y-74252500D03*
X113800000Y-74252500D03*
X113300000Y-74252500D03*
X112800000Y-74252500D03*
X112300000Y-74252500D03*
X111800000Y-74252500D03*
X111300000Y-74252500D03*
X110800000Y-74252500D03*
X110300000Y-74252500D03*
X109800000Y-74252500D03*
X109300000Y-74252500D03*
X108800000Y-74252500D03*
X108300000Y-74252500D03*
%TD*%
D19*
%TO.C,R5*%
X129095000Y-78232000D03*
X127445000Y-78232000D03*
%TD*%
D18*
%TO.C,C2*%
X95237000Y-108458000D03*
X96787000Y-108458000D03*
%TD*%
%TO.C,C30*%
X103873000Y-99314000D03*
X105423000Y-99314000D03*
%TD*%
D29*
%TO.C,X1*%
X126201000Y-86269000D03*
X126201000Y-84419000D03*
X124751000Y-84419000D03*
X124751000Y-86269000D03*
%TD*%
D16*
%TO.C,C44*%
X108217000Y-130048000D03*
X106667000Y-130048000D03*
%TD*%
D30*
%TO.C,U11*%
X109855000Y-130845000D03*
X111125000Y-130845000D03*
X112395000Y-130845000D03*
X113665000Y-130845000D03*
X114935000Y-130845000D03*
X116205000Y-130845000D03*
X117475000Y-130845000D03*
X118745000Y-130845000D03*
X118745000Y-125695000D03*
X117475000Y-125695000D03*
X116205000Y-125695000D03*
X114935000Y-125695000D03*
X113665000Y-125695000D03*
X112395000Y-125695000D03*
X111125000Y-125695000D03*
X109855000Y-125695000D03*
%TD*%
D16*
%TO.C,C33*%
X93739000Y-93218000D03*
X92189000Y-93218000D03*
%TD*%
%TO.C,C3*%
X104661000Y-82804000D03*
X103111000Y-82804000D03*
%TD*%
D13*
%TO.C,C53*%
X118618000Y-98793000D03*
X118618000Y-97243000D03*
%TD*%
%TO.C,C36*%
X117954500Y-113055000D03*
X117954500Y-111505000D03*
%TD*%
D10*
%TO.C,C5*%
X118110000Y-91427000D03*
X118110000Y-92977000D03*
%TD*%
D12*
%TO.C,R9*%
X104140000Y-74613000D03*
X104140000Y-76263000D03*
%TD*%
D31*
%TO.C,U7*%
X97072000Y-98904500D03*
X97572000Y-98904500D03*
X98072000Y-98904500D03*
X98572000Y-98904500D03*
X99072000Y-98904500D03*
X99572000Y-98904500D03*
X100072000Y-98904500D03*
X100572000Y-98904500D03*
X101072000Y-98904500D03*
X101572000Y-98904500D03*
X102072000Y-98904500D03*
X102572000Y-98904500D03*
D32*
X103984500Y-97492000D03*
X103984500Y-96992000D03*
X103984500Y-96492000D03*
X103984500Y-95992000D03*
X103984500Y-95492000D03*
X103984500Y-94992000D03*
X103984500Y-94492000D03*
X103984500Y-93992000D03*
X103984500Y-93492000D03*
X103984500Y-92992000D03*
X103984500Y-92492000D03*
X103984500Y-91992000D03*
D31*
X102572000Y-90579500D03*
X102072000Y-90579500D03*
X101572000Y-90579500D03*
X101072000Y-90579500D03*
X100572000Y-90579500D03*
X100072000Y-90579500D03*
X99572000Y-90579500D03*
X99072000Y-90579500D03*
X98572000Y-90579500D03*
X98072000Y-90579500D03*
X97572000Y-90579500D03*
X97072000Y-90579500D03*
D32*
X95659500Y-91992000D03*
X95659500Y-92492000D03*
X95659500Y-92992000D03*
X95659500Y-93492000D03*
X95659500Y-93992000D03*
X95659500Y-94492000D03*
X95659500Y-94992000D03*
X95659500Y-95492000D03*
X95659500Y-95992000D03*
X95659500Y-96492000D03*
X95659500Y-96992000D03*
X95659500Y-97492000D03*
%TD*%
D18*
%TO.C,C38*%
X119465500Y-115328000D03*
X121015500Y-115328000D03*
%TD*%
D14*
%TO.C,FB2*%
X95250000Y-102425000D03*
X95250000Y-100775000D03*
%TD*%
D18*
%TO.C,C40*%
X119465500Y-118376000D03*
X121015500Y-118376000D03*
%TD*%
D10*
%TO.C,C18*%
X116586000Y-91414000D03*
X116586000Y-92964000D03*
%TD*%
D14*
%TO.C,R6*%
X108204000Y-93027000D03*
X108204000Y-91377000D03*
%TD*%
D19*
%TO.C,R20*%
X131635000Y-102362000D03*
X129985000Y-102362000D03*
%TD*%
D13*
%TO.C,C26*%
X109855000Y-63640000D03*
X109855000Y-62090000D03*
%TD*%
D19*
%TO.C,R4*%
X129095000Y-76708000D03*
X127445000Y-76708000D03*
%TD*%
D18*
%TO.C,C37*%
X119465500Y-113804000D03*
X121015500Y-113804000D03*
%TD*%
D13*
%TO.C,C51*%
X121666000Y-98806000D03*
X121666000Y-97256000D03*
%TD*%
%TO.C,C11*%
X124460000Y-91199000D03*
X124460000Y-89649000D03*
%TD*%
D33*
%TO.C,U13*%
X119951500Y-105978000D03*
X120586500Y-105978000D03*
X121221500Y-105978000D03*
X121856500Y-105978000D03*
X122491500Y-105978000D03*
X123126500Y-105978000D03*
X123761500Y-105978000D03*
X124396500Y-105978000D03*
X124396500Y-100778000D03*
X123761500Y-100778000D03*
X123126500Y-100778000D03*
X122491500Y-100778000D03*
X121856500Y-100778000D03*
X121221500Y-100778000D03*
X120586500Y-100778000D03*
X119951500Y-100778000D03*
%TD*%
D16*
%TO.C,C35*%
X110503000Y-100330000D03*
X108953000Y-100330000D03*
%TD*%
D34*
%TO.C,U3*%
X100462000Y-75051500D03*
X101412000Y-75051500D03*
X102362000Y-75051500D03*
X102362000Y-72776500D03*
X100462000Y-72776500D03*
%TD*%
D14*
%TO.C,FB3*%
X102870000Y-102425000D03*
X102870000Y-100775000D03*
%TD*%
D20*
%TO.C,U4*%
X101215000Y-68267500D03*
X101865000Y-68267500D03*
X102515000Y-68267500D03*
X103165000Y-68267500D03*
X103815000Y-68267500D03*
X104465000Y-68267500D03*
X105115000Y-68267500D03*
X105765000Y-68267500D03*
X106415000Y-68267500D03*
X107065000Y-68267500D03*
X107065000Y-62542500D03*
X106415000Y-62542500D03*
X105765000Y-62542500D03*
X105115000Y-62542500D03*
X104465000Y-62542500D03*
X103815000Y-62542500D03*
X103165000Y-62542500D03*
X102515000Y-62542500D03*
X101865000Y-62542500D03*
X101215000Y-62542500D03*
%TD*%
D10*
%TO.C,C12*%
X119634000Y-91427000D03*
X119634000Y-92977000D03*
%TD*%
D19*
%TO.C,R15*%
X110553000Y-105410000D03*
X108903000Y-105410000D03*
%TD*%
D13*
%TO.C,C25*%
X99695000Y-63640000D03*
X99695000Y-62090000D03*
%TD*%
%TO.C,C27*%
X120015000Y-63640000D03*
X120015000Y-62090000D03*
%TD*%
%TO.C,C10*%
X130556000Y-91199000D03*
X130556000Y-89649000D03*
%TD*%
D14*
%TO.C,R17*%
X106172000Y-103695000D03*
X106172000Y-102045000D03*
%TD*%
D27*
%TO.C,U10*%
X109121500Y-114344000D03*
X109121500Y-114844000D03*
X109121500Y-115344000D03*
X109121500Y-115844000D03*
X109121500Y-116344000D03*
X109121500Y-116844000D03*
X109121500Y-117344000D03*
X109121500Y-117844000D03*
X109121500Y-118344000D03*
X109121500Y-118844000D03*
X109121500Y-119344000D03*
X109121500Y-119844000D03*
D28*
X110534000Y-121256500D03*
X111034000Y-121256500D03*
X111534000Y-121256500D03*
X112034000Y-121256500D03*
X112534000Y-121256500D03*
X113034000Y-121256500D03*
X113534000Y-121256500D03*
X114034000Y-121256500D03*
X114534000Y-121256500D03*
X115034000Y-121256500D03*
X115534000Y-121256500D03*
X116034000Y-121256500D03*
D27*
X117446500Y-119844000D03*
X117446500Y-119344000D03*
X117446500Y-118844000D03*
X117446500Y-118344000D03*
X117446500Y-117844000D03*
X117446500Y-117344000D03*
X117446500Y-116844000D03*
X117446500Y-116344000D03*
X117446500Y-115844000D03*
X117446500Y-115344000D03*
X117446500Y-114844000D03*
X117446500Y-114344000D03*
D28*
X116034000Y-112931500D03*
X115534000Y-112931500D03*
X115034000Y-112931500D03*
X114534000Y-112931500D03*
X114034000Y-112931500D03*
X113534000Y-112931500D03*
X113034000Y-112931500D03*
X112534000Y-112931500D03*
X112034000Y-112931500D03*
X111534000Y-112931500D03*
X111034000Y-112931500D03*
X110534000Y-112931500D03*
%TD*%
D14*
%TO.C,FB1*%
X122682000Y-93027000D03*
X122682000Y-91377000D03*
%TD*%
D10*
%TO.C,C29*%
X101346000Y-100825000D03*
X101346000Y-102375000D03*
%TD*%
D13*
%TO.C,C52*%
X120142000Y-98793000D03*
X120142000Y-97243000D03*
%TD*%
D15*
%TO.C,U12*%
X127386500Y-96332000D03*
X127386500Y-97282000D03*
X127386500Y-98232000D03*
X129661500Y-98232000D03*
X129661500Y-97282000D03*
X129661500Y-96332000D03*
%TD*%
D16*
%TO.C,C32*%
X93739000Y-97028000D03*
X92189000Y-97028000D03*
%TD*%
D12*
%TO.C,R16*%
X98298000Y-100775000D03*
X98298000Y-102425000D03*
%TD*%
D16*
%TO.C,C21*%
X104661000Y-84328000D03*
X103111000Y-84328000D03*
%TD*%
D19*
%TO.C,FB4*%
X121065500Y-112280000D03*
X119415500Y-112280000D03*
%TD*%
M02*
