%TF.GenerationSoftware,KiCad,Pcbnew,7.0.10*%
%TF.CreationDate,2024-02-11T20:06:44-06:00*%
%TF.ProjectId,HUB75-FPGA-Card,48554237-352d-4465-9047-412d43617264,rev?*%
%TF.SameCoordinates,Original*%
%TF.FileFunction,Soldermask,Bot*%
%TF.FilePolarity,Negative*%
%FSLAX46Y46*%
G04 Gerber Fmt 4.6, Leading zero omitted, Abs format (unit mm)*
G04 Created by KiCad (PCBNEW 7.0.10) date 2024-02-11 20:06:44*
%MOMM*%
%LPD*%
G01*
G04 APERTURE LIST*
G04 Aperture macros list*
%AMRoundRect*
0 Rectangle with rounded corners*
0 $1 Rounding radius*
0 $2 $3 $4 $5 $6 $7 $8 $9 X,Y pos of 4 corners*
0 Add a 4 corners polygon primitive as box body*
4,1,4,$2,$3,$4,$5,$6,$7,$8,$9,$2,$3,0*
0 Add four circle primitives for the rounded corners*
1,1,$1+$1,$2,$3*
1,1,$1+$1,$4,$5*
1,1,$1+$1,$6,$7*
1,1,$1+$1,$8,$9*
0 Add four rect primitives between the rounded corners*
20,1,$1+$1,$2,$3,$4,$5,0*
20,1,$1+$1,$4,$5,$6,$7,0*
20,1,$1+$1,$6,$7,$8,$9,0*
20,1,$1+$1,$8,$9,$2,$3,0*%
G04 Aperture macros list end*
%ADD10C,3.200000*%
%ADD11RoundRect,0.250000X-0.600000X-0.600000X0.600000X-0.600000X0.600000X0.600000X-0.600000X0.600000X0*%
%ADD12C,1.700000*%
%ADD13R,1.700000X1.700000*%
%ADD14O,1.700000X1.700000*%
%ADD15RoundRect,0.250002X-1.699998X-1.699998X1.699998X-1.699998X1.699998X1.699998X-1.699998X1.699998X0*%
%ADD16C,0.710000*%
%ADD17O,1.304000X1.804000*%
%ADD18C,1.524000*%
%ADD19C,3.500000*%
G04 APERTURE END LIST*
D10*
%TO.C,H2*%
X137160000Y-51435000D03*
%TD*%
%TO.C,H3*%
X91440000Y-128905000D03*
%TD*%
D11*
%TO.C,J3*%
X133985000Y-62230000D03*
D12*
X136525000Y-62230000D03*
X133985000Y-64770000D03*
X136525000Y-64770000D03*
X133985000Y-67310000D03*
X136525000Y-67310000D03*
X133985000Y-69850000D03*
X136525000Y-69850000D03*
X133985000Y-72390000D03*
X136525000Y-72390000D03*
X133985000Y-74930000D03*
X136525000Y-74930000D03*
X133985000Y-77470000D03*
X136525000Y-77470000D03*
X133985000Y-80010000D03*
X136525000Y-80010000D03*
%TD*%
D13*
%TO.C,J6*%
X104775000Y-50800000D03*
D14*
X104775000Y-53340000D03*
X104775000Y-55880000D03*
%TD*%
D13*
%TO.C,J9*%
X123825000Y-50800000D03*
D14*
X123825000Y-53340000D03*
X123825000Y-55880000D03*
%TD*%
D15*
%TO.C,J4*%
X98425000Y-51435000D03*
%TD*%
D13*
%TO.C,J13*%
X99187000Y-122052000D03*
D14*
X99187000Y-119512000D03*
%TD*%
D15*
%TO.C,J5*%
X130175000Y-51435000D03*
%TD*%
D13*
%TO.C,J8*%
X117475000Y-50815000D03*
D14*
X117475000Y-53355000D03*
X117475000Y-55895000D03*
%TD*%
D13*
%TO.C,J7*%
X111125000Y-50815000D03*
D14*
X111125000Y-53355000D03*
X111125000Y-55895000D03*
%TD*%
D16*
%TO.C,J10*%
X137418500Y-101282000D03*
X137418500Y-93282000D03*
D17*
X135988500Y-101282000D03*
X138848500Y-101282000D03*
X135988500Y-93282000D03*
X138848500Y-93282000D03*
%TD*%
D13*
%TO.C,J12*%
X108458000Y-130556000D03*
D14*
X108458000Y-128016000D03*
X110998000Y-130556000D03*
X110998000Y-128016000D03*
X113538000Y-130556000D03*
X113538000Y-128016000D03*
X116078000Y-130556000D03*
X116078000Y-128016000D03*
X118618000Y-130556000D03*
X118618000Y-128016000D03*
X121158000Y-130556000D03*
X121158000Y-128016000D03*
%TD*%
D10*
%TO.C,H1*%
X91440000Y-51435000D03*
%TD*%
D18*
%TO.C,J11*%
X135805000Y-116784000D03*
X135805000Y-114284000D03*
X135805000Y-112284000D03*
X135805000Y-109784000D03*
D19*
X138515000Y-119854000D03*
X138515000Y-106714000D03*
%TD*%
D13*
%TO.C,J1*%
X89911000Y-99832000D03*
D14*
X92451000Y-99832000D03*
X89911000Y-102372000D03*
X92451000Y-102372000D03*
X89911000Y-104912000D03*
X92451000Y-104912000D03*
X89911000Y-107452000D03*
X92451000Y-107452000D03*
%TD*%
D10*
%TO.C,H4*%
X137160000Y-128905000D03*
%TD*%
D11*
%TO.C,J2*%
X92075000Y-62230000D03*
D12*
X94615000Y-62230000D03*
X92075000Y-64770000D03*
X94615000Y-64770000D03*
X92075000Y-67310000D03*
X94615000Y-67310000D03*
X92075000Y-69850000D03*
X94615000Y-69850000D03*
X92075000Y-72390000D03*
X94615000Y-72390000D03*
X92075000Y-74930000D03*
X94615000Y-74930000D03*
X92075000Y-77470000D03*
X94615000Y-77470000D03*
X92075000Y-80010000D03*
X94615000Y-80010000D03*
%TD*%
D13*
%TO.C,J14*%
X103124000Y-122095500D03*
D14*
X103124000Y-119555500D03*
%TD*%
M02*
