M48
; DRILL file {KiCad 7.0.10} date Wed Jan 24 17:50:34 2024
; FORMAT={-:-/ absolute / inch / decimal}
; #@! TF.CreationDate,2024-01-24T17:50:34-06:00
; #@! TF.GenerationSoftware,Kicad,Pcbnew,7.0.10
; #@! TF.FileFunction,Plated,1,4,PTH
FMAT,2
INCH
; #@! TA.AperFunction,Plated,PTH,ViaDrill
T1C0.0157
; #@! TA.AperFunction,Plated,PTH,ViaDrill
T2C0.0197
; #@! TA.AperFunction,Plated,PTH,ComponentDrill
T3C0.0236
; #@! TA.AperFunction,Plated,PTH,ComponentDrill
T4C0.0362
; #@! TA.AperFunction,Plated,PTH,ComponentDrill
T5C0.0394
; #@! TA.AperFunction,Plated,PTH,ComponentDrill
T6C0.0512
; #@! TA.AperFunction,Plated,PTH,ComponentDrill
T7C0.0906
; #@! TA.AperFunction,Plated,PTH,ComponentDrill
T8C0.0984
%
G90
G05
T1
X3.58Y-3.61
X3.7036Y-3.7779
X3.73Y-3.92
X3.78Y-4.07
X3.792Y-3.8679
X3.83Y-3.77
X3.84Y-4.1
X3.85Y-3.69
X3.85Y-5.2
X3.86Y-3.81
X3.88Y-2.5
X3.8806Y-2.4506
X3.89Y-3.84
X3.9Y-3.0
X3.9Y-3.62
X3.91Y-3.7122
X3.94Y-3.09
X3.97Y-2.74
X3.9983Y-3.8317
X4.0Y-3.68
X4.01Y-3.21
X4.02Y-4.08
X4.04Y-3.64
X4.06Y-3.05
X4.07Y-5.09
X4.07Y-5.15
X4.08Y-3.54
X4.0813Y-2.8435
X4.0903Y-3.4702
X4.1Y-3.05
X4.15Y-3.96
X4.16Y-5.08
X4.1983Y-2.9583
X4.21Y-3.67
X4.21Y-5.07
X4.22Y-3.94
X4.25Y-2.69
X4.26Y-3.09
X4.2696Y-3.4072
X4.2721Y-3.3658
X4.2775Y-3.1466
X4.28Y-2.45
X4.28Y-2.4973
X4.2804Y-2.8199
X4.29Y-2.7506
X4.29Y-3.3051
X4.2924Y-3.1852
X4.31Y-3.2676
X4.32Y-2.99
X4.3269Y-3.47
X4.3351Y-3.7121
X4.35Y-3.04
X4.3724Y-3.2124
X4.38Y-3.45
X4.38Y-5.05
X4.3969Y-3.33
X4.4Y-2.98
X4.41Y-2.4
X4.41Y-4.83
X4.4126Y-2.525
X4.42Y-3.91
X4.4362Y-3.7062
X4.45Y-2.55
X4.45Y-2.75
X4.45Y-3.23
X4.4575Y-3.8975
X4.47Y-3.45
X4.47Y-4.83
X4.5Y-2.575
X4.5Y-5.2
X4.5261Y-3.4761
X4.54Y-4.39
X4.55Y-2.6
X4.55Y-3.73
X4.57Y-4.62
X4.57Y-4.66
X4.57Y-4.7
X4.5867Y-2.821
X4.6Y-2.625
X4.6Y-4.12
X4.6Y-4.42
X4.6313Y-4.7478
X4.64Y-3.46
X4.65Y-2.98
X4.66Y-2.69
X4.67Y-2.77
X4.67Y-3.21
X4.68Y-2.45
X4.68Y-2.4945
X4.69Y-3.02
X4.69Y-3.11
X4.6937Y-3.27
X4.74Y-3.0
X4.7477Y-3.34
X4.7491Y-3.2901
X4.77Y-4.02
X4.8Y-5.0369
X4.8084Y-2.4
X4.82Y-4.02
X4.82Y-4.4
X4.82Y-4.54
X4.82Y-4.82
X4.83Y-4.44
X4.84Y-3.53
X4.85Y-3.83
X4.86Y-3.43
X4.8602Y-3.3114
X4.89Y-3.03
X4.89Y-3.08
X4.9Y-2.84
X4.9Y-3.64
X4.91Y-4.36
X4.94Y-2.96
X4.97Y-3.98
X4.983Y-2.9279
X5.0Y-3.14
X5.02Y-2.75
X5.06Y-3.98
X5.07Y-3.74
X5.08Y-3.46
X5.1Y-3.13
X5.15Y-4.24
X5.18Y-3.75
X5.18Y-3.95
X5.19Y-3.59
X5.2Y-3.72
X5.2Y-3.98
X5.31Y-3.79
X5.31Y-3.91
X5.34Y-3.76
X5.34Y-3.94
T2
X4.32Y-5.01
X4.32Y-5.09
X4.43Y-5.01
X4.43Y-5.09
T4
X3.9231Y-4.5222
X3.9231Y-4.6206
X3.9231Y-4.6994
X3.9231Y-4.7978
X4.0262Y-4.5222
X4.0262Y-4.6206
X4.0262Y-4.6994
X4.0262Y-4.7978
T5
X3.5398Y-3.9304
X3.5398Y-4.0304
X3.5398Y-4.1304
X3.5398Y-4.2304
X3.625Y-2.45
X3.625Y-2.55
X3.625Y-2.65
X3.625Y-2.75
X3.625Y-2.85
X3.625Y-2.95
X3.625Y-3.05
X3.625Y-3.15
X3.6398Y-3.9304
X3.6398Y-4.0304
X3.6398Y-4.1304
X3.6398Y-4.2304
X3.725Y-2.45
X3.725Y-2.55
X3.725Y-2.65
X3.725Y-2.75
X3.725Y-2.85
X3.725Y-2.95
X3.725Y-3.05
X3.725Y-3.15
X4.125Y-2.0
X4.125Y-2.1
X4.125Y-2.2
X4.375Y-2.0006
X4.375Y-2.1006
X4.375Y-2.2006
X4.625Y-2.0006
X4.625Y-2.1006
X4.625Y-2.2006
X4.875Y-2.0
X4.875Y-2.1
X4.875Y-2.2
X5.275Y-2.45
X5.275Y-2.55
X5.275Y-2.65
X5.275Y-2.75
X5.275Y-2.85
X5.275Y-2.95
X5.275Y-3.05
X5.275Y-3.15
X5.375Y-2.45
X5.375Y-2.55
X5.375Y-2.65
X5.375Y-2.75
X5.375Y-2.85
X5.375Y-2.95
X5.375Y-3.05
X5.375Y-3.15
T6
X5.325Y-4.2297
X5.325Y-4.4266
X5.325Y-4.6234
X5.325Y-4.8203
T7
X3.8164Y-4.4013
X3.8164Y-4.9187
X4.04Y-4.4013
X4.04Y-4.9187
T8
X3.875Y-2.025
X5.125Y-2.025
T3
G00X5.2561Y-3.6799
M15
G01X5.2994Y-3.6799
M16
G05
G00X5.2561Y-4.0201
M15
G01X5.2994Y-4.0201
M16
G05
G00X5.4266Y-3.6799
M15
G01X5.4581Y-3.6799
M16
G05
G00X5.4266Y-4.0201
M15
G01X5.4581Y-4.0201
M16
G05
M30
