%TF.GenerationSoftware,KiCad,Pcbnew,7.0.10*%
%TF.CreationDate,2024-01-24T17:50:34-06:00*%
%TF.ProjectId,HUB75-FPGA-Card,48554237-352d-4465-9047-412d43617264,rev?*%
%TF.SameCoordinates,Original*%
%TF.FileFunction,Copper,L4,Bot*%
%TF.FilePolarity,Positive*%
%FSLAX46Y46*%
G04 Gerber Fmt 4.6, Leading zero omitted, Abs format (unit mm)*
G04 Created by KiCad (PCBNEW 7.0.10) date 2024-01-24 17:50:34*
%MOMM*%
%LPD*%
G01*
G04 APERTURE LIST*
G04 Aperture macros list*
%AMRoundRect*
0 Rectangle with rounded corners*
0 $1 Rounding radius*
0 $2 $3 $4 $5 $6 $7 $8 $9 X,Y pos of 4 corners*
0 Add a 4 corners polygon primitive as box body*
4,1,4,$2,$3,$4,$5,$6,$7,$8,$9,$2,$3,0*
0 Add four circle primitives for the rounded corners*
1,1,$1+$1,$2,$3*
1,1,$1+$1,$4,$5*
1,1,$1+$1,$6,$7*
1,1,$1+$1,$8,$9*
0 Add four rect primitives between the rounded corners*
20,1,$1+$1,$2,$3,$4,$5,0*
20,1,$1+$1,$4,$5,$6,$7,0*
20,1,$1+$1,$6,$7,$8,$9,0*
20,1,$1+$1,$8,$9,$2,$3,0*%
G04 Aperture macros list end*
%TA.AperFunction,ComponentPad*%
%ADD10RoundRect,0.250000X-0.600000X-0.600000X0.600000X-0.600000X0.600000X0.600000X-0.600000X0.600000X0*%
%TD*%
%TA.AperFunction,ComponentPad*%
%ADD11C,1.700000*%
%TD*%
%TA.AperFunction,ComponentPad*%
%ADD12R,1.700000X1.700000*%
%TD*%
%TA.AperFunction,ComponentPad*%
%ADD13O,1.700000X1.700000*%
%TD*%
%TA.AperFunction,ComponentPad*%
%ADD14RoundRect,0.250002X-1.699998X-1.699998X1.699998X-1.699998X1.699998X1.699998X-1.699998X1.699998X0*%
%TD*%
%TA.AperFunction,ComponentPad*%
%ADD15O,2.100000X1.000000*%
%TD*%
%TA.AperFunction,ComponentPad*%
%ADD16O,1.800000X1.000000*%
%TD*%
%TA.AperFunction,ComponentPad*%
%ADD17R,2.600000X2.600000*%
%TD*%
%TA.AperFunction,ComponentPad*%
%ADD18C,2.600000*%
%TD*%
%TA.AperFunction,ComponentPad*%
%ADD19R,1.500000X1.500000*%
%TD*%
%TA.AperFunction,ComponentPad*%
%ADD20C,1.500000*%
%TD*%
%TA.AperFunction,ComponentPad*%
%ADD21C,3.500000*%
%TD*%
%TA.AperFunction,SMDPad,CuDef*%
%ADD22RoundRect,0.250000X0.250000X0.750000X-0.250000X0.750000X-0.250000X-0.750000X0.250000X-0.750000X0*%
%TD*%
%TA.AperFunction,ViaPad*%
%ADD23C,0.800000*%
%TD*%
%TA.AperFunction,ViaPad*%
%ADD24C,1.200000*%
%TD*%
%TA.AperFunction,Conductor*%
%ADD25C,0.406400*%
%TD*%
%TA.AperFunction,Conductor*%
%ADD26C,0.203200*%
%TD*%
%TA.AperFunction,Conductor*%
%ADD27C,1.500000*%
%TD*%
G04 APERTURE END LIST*
D10*
%TO.P,J6,1,Pin_1*%
%TO.N,/Level Shifters/B3_out*%
X133985000Y-62230000D03*
D11*
%TO.P,J6,2,Pin_2*%
%TO.N,/Level Shifters/G3_out*%
X136525000Y-62230000D03*
%TO.P,J6,3,Pin_3*%
%TO.N,/Level Shifters/R3_out*%
X133985000Y-64770000D03*
%TO.P,J6,4,Pin_4*%
%TO.N,GND*%
X136525000Y-64770000D03*
%TO.P,J6,5,Pin_5*%
%TO.N,/Level Shifters/B4_out*%
X133985000Y-67310000D03*
%TO.P,J6,6,Pin_6*%
%TO.N,/Level Shifters/G4_out*%
X136525000Y-67310000D03*
%TO.P,J6,7,Pin_7*%
%TO.N,/Level Shifters/R4_out*%
X133985000Y-69850000D03*
%TO.P,J6,8,Pin_8*%
%TO.N,GND*%
X136525000Y-69850000D03*
%TO.P,J6,9,Pin_9*%
%TO.N,/Level Shifters/RCLK_out*%
X133985000Y-72390000D03*
%TO.P,J6,10,Pin_10*%
%TO.N,GND*%
X136525000Y-72390000D03*
%TO.P,J6,11,Pin_11*%
%TO.N,/Level Shifters/RDAT_out*%
X133985000Y-74930000D03*
%TO.P,J6,12,Pin_12*%
%TO.N,GND*%
X136525000Y-74930000D03*
%TO.P,J6,13,Pin_13*%
%TO.N,/Level Shifters/CLK_out*%
X133985000Y-77470000D03*
%TO.P,J6,14,Pin_14*%
%TO.N,/Level Shifters/LAT_out*%
X136525000Y-77470000D03*
%TO.P,J6,15,Pin_15*%
%TO.N,/Level Shifters/BLNK_out*%
X133985000Y-80010000D03*
%TO.P,J6,16,Pin_16*%
%TO.N,GND*%
X136525000Y-80010000D03*
%TD*%
D12*
%TO.P,J2,1,Pin_1*%
%TO.N,+5V*%
X104775000Y-50800000D03*
D13*
%TO.P,J2,2,Pin_2*%
%TO.N,/Level Shifters/LED1_out*%
X104775000Y-53340000D03*
%TO.P,J2,3,Pin_3*%
%TO.N,GND*%
X104775000Y-55880000D03*
%TD*%
D12*
%TO.P,J7,1,Pin_1*%
%TO.N,+5V*%
X123825000Y-50800000D03*
D13*
%TO.P,J7,2,Pin_2*%
%TO.N,/Level Shifters/LED4_out*%
X123825000Y-53340000D03*
%TO.P,J7,3,Pin_3*%
%TO.N,GND*%
X123825000Y-55880000D03*
%TD*%
D14*
%TO.P,J11,1,Pin_1*%
%TO.N,+5V*%
X98425000Y-51435000D03*
%TD*%
D15*
%TO.P,J9,S1,SHIELD*%
%TO.N,GND*%
X134055000Y-102110000D03*
D16*
X138235000Y-102110000D03*
D15*
X134055000Y-93470000D03*
D16*
X138235000Y-93470000D03*
%TD*%
D14*
%TO.P,J12,1,Pin_1*%
%TO.N,GND*%
X130175000Y-51435000D03*
%TD*%
D12*
%TO.P,J5,1,Pin_1*%
%TO.N,+5V*%
X117475000Y-50815000D03*
D13*
%TO.P,J5,2,Pin_2*%
%TO.N,/Level Shifters/LED3_out*%
X117475000Y-53355000D03*
%TO.P,J5,3,Pin_3*%
%TO.N,GND*%
X117475000Y-55895000D03*
%TD*%
D12*
%TO.P,J4,1,Pin_1*%
%TO.N,+5V*%
X111125000Y-50815000D03*
D13*
%TO.P,J4,2,Pin_2*%
%TO.N,/Level Shifters/LED2_out*%
X111125000Y-53355000D03*
%TO.P,J4,3,Pin_3*%
%TO.N,GND*%
X111125000Y-55895000D03*
%TD*%
D17*
%TO.P,J8,1,Pin_1*%
%TO.N,/USB Audio/L+*%
X135255000Y-122435000D03*
D18*
%TO.P,J8,2,Pin_2*%
%TO.N,/USB Audio/L-*%
X135255000Y-117435000D03*
%TO.P,J8,3,Pin_3*%
%TO.N,/USB Audio/R-*%
X135255000Y-112435000D03*
%TO.P,J8,4,Pin_4*%
%TO.N,/USB Audio/R+*%
X135255000Y-107435000D03*
%TD*%
D19*
%TO.P,J10,1,VBUS1*%
%TO.N,+5V*%
X99646000Y-114863998D03*
D20*
%TO.P,J10,2,D1-*%
%TO.N,/USB Hub/USB4_D-*%
X99646000Y-117363998D03*
%TO.P,J10,3,D1+*%
%TO.N,/USB Hub/USB4_D+*%
X99646000Y-119363998D03*
%TO.P,J10,4,GND1*%
%TO.N,GND*%
X99646000Y-121863998D03*
%TO.P,J10,5,VBUS2*%
%TO.N,+5V*%
X102266000Y-114863998D03*
%TO.P,J10,6,D2-*%
%TO.N,/USB Hub/USB3_D-*%
X102266000Y-117363998D03*
%TO.P,J10,7,D2+*%
%TO.N,/USB Hub/USB3_D+*%
X102266000Y-119363998D03*
%TO.P,J10,8,GND2*%
%TO.N,GND*%
X102266000Y-121863998D03*
D21*
%TO.P,J10,9,Shield*%
X96936000Y-111793998D03*
X96936000Y-124933998D03*
X102616000Y-111793998D03*
X102616000Y-124933998D03*
%TD*%
D12*
%TO.P,J1,1,Pin_1*%
%TO.N,/FPGA/TDO*%
X89911000Y-99832000D03*
D13*
%TO.P,J1,2,Pin_2*%
%TO.N,+3V3*%
X92451000Y-99832000D03*
%TO.P,J1,3,Pin_3*%
%TO.N,/FPGA/TCK*%
X89911000Y-102372000D03*
%TO.P,J1,4,Pin_4*%
%TO.N,/FPGA/TDI*%
X92451000Y-102372000D03*
%TO.P,J1,5,Pin_5*%
%TO.N,/FPGA/TMS*%
X89911000Y-104912000D03*
%TO.P,J1,6,Pin_6*%
%TO.N,/FPGA/CRESET_N*%
X92451000Y-104912000D03*
%TO.P,J1,7,Pin_7*%
%TO.N,GND*%
X89911000Y-107452000D03*
%TO.P,J1,8,Pin_8*%
X92451000Y-107452000D03*
%TD*%
D10*
%TO.P,J3,1,Pin_1*%
%TO.N,/Level Shifters/B1_out*%
X92075000Y-62230000D03*
D11*
%TO.P,J3,2,Pin_2*%
%TO.N,/Level Shifters/G1_out*%
X94615000Y-62230000D03*
%TO.P,J3,3,Pin_3*%
%TO.N,/Level Shifters/R1_out*%
X92075000Y-64770000D03*
%TO.P,J3,4,Pin_4*%
%TO.N,GND*%
X94615000Y-64770000D03*
%TO.P,J3,5,Pin_5*%
%TO.N,/Level Shifters/B2_out*%
X92075000Y-67310000D03*
%TO.P,J3,6,Pin_6*%
%TO.N,/Level Shifters/G2_out*%
X94615000Y-67310000D03*
%TO.P,J3,7,Pin_7*%
%TO.N,/Level Shifters/R2_out*%
X92075000Y-69850000D03*
%TO.P,J3,8,Pin_8*%
%TO.N,GND*%
X94615000Y-69850000D03*
%TO.P,J3,9,Pin_9*%
%TO.N,/Level Shifters/RCLK_out*%
X92075000Y-72390000D03*
%TO.P,J3,10,Pin_10*%
%TO.N,GND*%
X94615000Y-72390000D03*
%TO.P,J3,11,Pin_11*%
%TO.N,/Level Shifters/RDAT_out*%
X92075000Y-74930000D03*
%TO.P,J3,12,Pin_12*%
%TO.N,GND*%
X94615000Y-74930000D03*
%TO.P,J3,13,Pin_13*%
%TO.N,/Level Shifters/CLK_out*%
X92075000Y-77470000D03*
%TO.P,J3,14,Pin_14*%
%TO.N,/Level Shifters/LAT_out*%
X94615000Y-77470000D03*
%TO.P,J3,15,Pin_15*%
%TO.N,/Level Shifters/BLNK_out*%
X92075000Y-80010000D03*
%TO.P,J3,16,Pin_16*%
%TO.N,GND*%
X94615000Y-80010000D03*
%TD*%
D22*
%TO.P,J15,1,Pin_1*%
%TO.N,+5V*%
X123444000Y-108204000D03*
%TD*%
%TO.P,J13,1,Pin_1*%
%TO.N,+5V*%
X128016000Y-108204000D03*
%TD*%
%TO.P,J14,1,Pin_1*%
%TO.N,GND*%
X125984000Y-108204000D03*
%TD*%
%TO.P,J16,1,Pin_1*%
%TO.N,GND*%
X121412000Y-108204000D03*
%TD*%
D23*
%TO.N,+3.3VP*%
X107188000Y-100076000D03*
X101600000Y-93472000D03*
X96012000Y-103378000D03*
X101556096Y-97325904D03*
%TO.N,GND*%
X105664000Y-129032000D03*
X102616000Y-92456000D03*
X107950000Y-68326000D03*
X121158000Y-102108000D03*
X98552000Y-63500000D03*
X124460000Y-72136000D03*
X128778000Y-94996000D03*
X122133400Y-60960000D03*
X122428000Y-122428000D03*
X124714000Y-110744000D03*
X110112351Y-94287898D03*
X108966000Y-69865800D03*
X115316000Y-111506000D03*
X99060000Y-91948000D03*
X118364000Y-68326000D03*
X101854000Y-81533994D03*
X118110000Y-75692000D03*
X111252000Y-128270000D03*
X118618000Y-70358000D03*
X112679144Y-94137144D03*
X126238000Y-101092000D03*
X90932000Y-91694000D03*
X109902000Y-88138000D03*
X121920000Y-127936000D03*
X97536000Y-104140000D03*
X122936000Y-89662000D03*
X103378000Y-130810000D03*
X113030000Y-69850000D03*
X99314000Y-94290400D03*
X105410000Y-100584000D03*
X116840000Y-104648000D03*
X127000000Y-79756000D03*
X123190000Y-97282000D03*
X106637500Y-75141500D03*
X108712000Y-63430700D03*
X98806000Y-97536000D03*
X94742000Y-99568000D03*
X122682000Y-112776000D03*
X103124000Y-77470000D03*
X115570000Y-94742000D03*
X119220934Y-83058000D03*
X113538000Y-122682000D03*
X109728000Y-75946000D03*
X114962422Y-88292423D03*
X112014000Y-60960000D03*
X102108000Y-103632000D03*
X127508000Y-69850000D03*
X118872000Y-63360900D03*
%TO.N,Net-(U1B-GPIOL_00_SS_N)*%
X108204000Y-78486000D03*
X103892718Y-88142931D03*
%TO.N,Net-(U1B-GPIOL_09_CDI1)*%
X104140000Y-77470000D03*
X111680000Y-84582000D03*
%TO.N,Net-(U1B-GPIOL_08_CDI0)*%
X108511720Y-85490705D03*
X94072346Y-95959222D03*
%TO.N,Net-(U1C-GPIOR_158_TEST_N)*%
X123444000Y-87122000D03*
X124206000Y-78232000D03*
%TO.N,Net-(U1C-GPIOR_151_CBUS0)*%
X124206000Y-76962000D03*
X123450097Y-84108636D03*
%TO.N,Net-(U1C-GPIOR_150_CBUS1)*%
X120592300Y-84836000D03*
X125476000Y-75183988D03*
%TO.N,Net-(U1C-GPIOR_149_CBUS2)*%
X126568300Y-74368520D03*
X120627334Y-83567741D03*
%TO.N,+5V*%
X118872000Y-62230000D03*
X130810000Y-107696000D03*
X122428000Y-115316000D03*
X131572000Y-100330000D03*
X131572000Y-95250000D03*
X132080000Y-101092000D03*
X122428000Y-111760000D03*
X100838000Y-69596000D03*
X112014000Y-122682000D03*
X135636000Y-95504000D03*
X108712000Y-62230000D03*
X122428000Y-102108000D03*
X134874000Y-99314000D03*
X98568222Y-62246222D03*
X135636000Y-100076000D03*
X114300000Y-132080000D03*
X116840000Y-112268000D03*
X128524000Y-101092000D03*
X106934000Y-128778000D03*
X97790000Y-93726000D03*
X134874000Y-96266000D03*
X131826000Y-91186000D03*
X132080000Y-94488000D03*
%TO.N,/FPGA/CLK_12MHZ*%
X98044000Y-96774000D03*
X111058400Y-81594400D03*
%TO.N,+3V3*%
X103665200Y-72225467D03*
X100076000Y-78486000D03*
X110490000Y-77216000D03*
X113538000Y-87630000D03*
X124460000Y-92456000D03*
X119126000Y-78994000D03*
X119126000Y-76708000D03*
X106934000Y-93218000D03*
X103632000Y-89916000D03*
X129540000Y-79502000D03*
X108722116Y-71624628D03*
X129032000Y-87884000D03*
%TO.N,/FPGA/TCK*%
X109026400Y-80904494D03*
%TO.N,Net-(U7-EECS)*%
X96317266Y-98244700D03*
X112268000Y-99314000D03*
%TO.N,Net-(U7-EECLK)*%
X97282000Y-95758000D03*
X113219247Y-98996918D03*
%TO.N,+1V2*%
X117856000Y-87884000D03*
X120396000Y-76200000D03*
X116501600Y-71653184D03*
X118618000Y-81534000D03*
X111252000Y-87630000D03*
X113030000Y-82042000D03*
X99060000Y-76200000D03*
X111760000Y-75692000D03*
%TO.N,Net-(U10-VBIAS)*%
X103378000Y-129286000D03*
X116078000Y-119380000D03*
%TO.N,Net-(U10-MICIN)*%
X116078000Y-118364000D03*
X97790000Y-132080000D03*
%TO.N,Net-(U10-LOL)*%
X116078000Y-117348000D03*
X117634826Y-120593999D03*
%TO.N,/Level Shifters/BLNK_out*%
X116840000Y-66675000D03*
%TO.N,/Level Shifters/LAT_out*%
X115570000Y-66040000D03*
%TO.N,/Level Shifters/CLK_out*%
X114300000Y-65405000D03*
%TO.N,/Level Shifters/RDAT_out*%
X113030000Y-64770000D03*
%TO.N,/Level Shifters/RCLK_out*%
X112079300Y-64135000D03*
D24*
%TO.N,/USB Audio/L+*%
X109728000Y-129286000D03*
%TO.N,/USB Audio/L-*%
X112522000Y-129286000D03*
%TO.N,/USB Audio/R+*%
X109728000Y-127254000D03*
%TO.N,/USB Audio/R-*%
X112522000Y-127254000D03*
D23*
%TO.N,/FPGA/TMS*%
X109474000Y-82997600D03*
%TO.N,/FPGA/TDI*%
X108966000Y-83950000D03*
%TO.N,/FPGA/TDO*%
X108649709Y-79923923D03*
%TO.N,/FPGA/CRESET_N*%
X108446710Y-86542700D03*
%TD*%
D25*
%TO.N,GND*%
X124460000Y-109728000D02*
X125984000Y-108204000D01*
X121412000Y-108204000D02*
X121412000Y-108712000D01*
X122428000Y-109728000D02*
X124460000Y-109728000D01*
X121412000Y-108712000D02*
X122428000Y-109728000D01*
X124714000Y-109982000D02*
X124460000Y-109728000D01*
X124714000Y-110744000D02*
X124714000Y-109982000D01*
D26*
%TO.N,Net-(U1B-GPIOL_00_SS_N)*%
X103892718Y-88142931D02*
X107851129Y-88142931D01*
X108712000Y-78486000D02*
X108204000Y-78486000D01*
X107851129Y-88142931D02*
X110236000Y-85758060D01*
X110236000Y-80010000D02*
X108712000Y-78486000D01*
X110236000Y-85758060D02*
X110236000Y-80010000D01*
%TO.N,Net-(U1B-GPIOL_09_CDI1)*%
X111760000Y-81049787D02*
X108180213Y-77470000D01*
X111760000Y-84502000D02*
X111760000Y-81049787D01*
X111680000Y-84582000D02*
X111760000Y-84502000D01*
X108180213Y-77470000D02*
X104140000Y-77470000D01*
%TO.N,Net-(U1B-GPIOL_08_CDI0)*%
X94072346Y-95411654D02*
X103993295Y-85490705D01*
X94072346Y-95959222D02*
X94072346Y-95411654D01*
X103993295Y-85490705D02*
X108511720Y-85490705D01*
%TO.N,Net-(U1C-GPIOR_158_TEST_N)*%
X124206000Y-86360000D02*
X123444000Y-87122000D01*
X124206000Y-78232000D02*
X124206000Y-86360000D01*
%TO.N,Net-(U1C-GPIOR_151_CBUS0)*%
X123450097Y-77717903D02*
X124206000Y-76962000D01*
X123450097Y-84108636D02*
X123450097Y-77717903D01*
%TO.N,Net-(U1C-GPIOR_150_CBUS1)*%
X119922534Y-84166234D02*
X119922534Y-79721476D01*
X124460022Y-75183988D02*
X125476000Y-75183988D01*
X119922534Y-79721476D02*
X124460022Y-75183988D01*
X120592300Y-84836000D02*
X119922534Y-84166234D01*
%TO.N,Net-(U1C-GPIOR_149_CBUS2)*%
X120627334Y-79543928D02*
X124028462Y-76142800D01*
X120627334Y-83567741D02*
X120627334Y-79543928D01*
X126021938Y-76142800D02*
X126568300Y-75596438D01*
X124028462Y-76142800D02*
X126021938Y-76142800D01*
X126568300Y-75596438D02*
X126568300Y-74368520D01*
D25*
%TO.N,+5V*%
X130302000Y-108204000D02*
X130810000Y-107696000D01*
X124968000Y-106680000D02*
X126746000Y-106680000D01*
X128016000Y-107950000D02*
X128016000Y-108204000D01*
X128016000Y-108204000D02*
X130302000Y-108204000D01*
X126746000Y-106680000D02*
X128016000Y-107950000D01*
X123444000Y-108204000D02*
X124968000Y-106680000D01*
D26*
%TO.N,/FPGA/CLK_12MHZ*%
X111058400Y-81594400D02*
X110978400Y-81674400D01*
X110978400Y-81674400D02*
X110978400Y-85482633D01*
X110978400Y-85482633D02*
X99687033Y-96774000D01*
X99687033Y-96774000D02*
X98044000Y-96774000D01*
%TO.N,+3V3*%
X106213026Y-81788000D02*
X109135107Y-81788000D01*
D27*
X104262667Y-71628000D02*
X103665200Y-72225467D01*
D26*
X108905599Y-79187600D02*
X100777600Y-79187600D01*
D27*
X114982000Y-86186000D02*
X118669189Y-86186000D01*
D26*
X109135107Y-81788000D02*
X109728000Y-81195107D01*
D27*
X129032000Y-87884000D02*
X124460000Y-92456000D01*
D26*
X92451000Y-99832000D02*
X92451000Y-95255000D01*
D27*
X108718744Y-71628000D02*
X104262667Y-71628000D01*
D26*
X100584000Y-87122000D02*
X100879026Y-87122000D01*
D27*
X118669189Y-86186000D02*
X121586000Y-89102811D01*
X129540000Y-87376000D02*
X129540000Y-79502000D01*
D26*
X109728000Y-80010001D02*
X108905599Y-79187600D01*
D27*
X108722116Y-71624628D02*
X108718744Y-71628000D01*
X121586000Y-90221189D02*
X123820811Y-92456000D01*
D26*
X100879026Y-87122000D02*
X106213026Y-81788000D01*
X92451000Y-95255000D02*
X100584000Y-87122000D01*
X109728000Y-81195107D02*
X109728000Y-80010001D01*
D27*
X123820811Y-92456000D02*
X124460000Y-92456000D01*
X121586000Y-89102811D02*
X121586000Y-90221189D01*
D26*
X100777600Y-79187600D02*
X100076000Y-78486000D01*
D27*
X129032000Y-87884000D02*
X129540000Y-87376000D01*
X113538000Y-87630000D02*
X114982000Y-86186000D01*
D26*
%TO.N,/FPGA/TCK*%
X104117125Y-83080875D02*
X91299400Y-95898600D01*
X104208675Y-83080875D02*
X104117125Y-83080875D01*
X91299400Y-100983600D02*
X89911000Y-102372000D01*
X106252480Y-80904494D02*
X104813089Y-82343885D01*
X109026400Y-80904494D02*
X106252480Y-80904494D01*
X104813089Y-82476462D02*
X104208675Y-83080875D01*
X104813089Y-82343885D02*
X104813089Y-82476462D01*
X91299400Y-95898600D02*
X91299400Y-100983600D01*
%TO.N,Net-(U7-EECS)*%
X97132566Y-99060000D02*
X96317266Y-98244700D01*
X112014000Y-99060000D02*
X97132566Y-99060000D01*
X112268000Y-99314000D02*
X112014000Y-99060000D01*
%TO.N,Net-(U7-EECLK)*%
X97282000Y-95758000D02*
X97282000Y-97790000D01*
X98044000Y-98552000D02*
X112774329Y-98552000D01*
X112774329Y-98552000D02*
X113219247Y-98996918D01*
X97282000Y-97790000D02*
X98044000Y-98552000D01*
D27*
%TO.N,+1V2*%
X113030000Y-76962000D02*
X111760000Y-75692000D01*
X115798816Y-71653184D02*
X111760000Y-75692000D01*
X113030000Y-82042000D02*
X113030000Y-85344000D01*
X111252000Y-87630000D02*
X111252000Y-88138000D01*
X113030000Y-85344000D02*
X111252000Y-87122000D01*
X99060000Y-76200000D02*
X102484811Y-76200000D01*
X118110000Y-82042000D02*
X118618000Y-81534000D01*
X104893311Y-73791500D02*
X109859500Y-73791500D01*
X111252000Y-88138000D02*
X113030000Y-89916000D01*
X113030000Y-89916000D02*
X115824000Y-89916000D01*
X113030000Y-82042000D02*
X113030000Y-76962000D01*
X111252000Y-87122000D02*
X111252000Y-87630000D01*
X116501600Y-71653184D02*
X120396000Y-75547584D01*
X115824000Y-89916000D02*
X117856000Y-87884000D01*
X116501600Y-71653184D02*
X115798816Y-71653184D01*
X120396000Y-75547584D02*
X120396000Y-76200000D01*
X113030000Y-82042000D02*
X118110000Y-82042000D01*
X109859500Y-73791500D02*
X111760000Y-75692000D01*
X102484811Y-76200000D02*
X104893311Y-73791500D01*
D26*
%TO.N,Net-(U10-VBIAS)*%
X103378000Y-129286000D02*
X103886000Y-129286000D01*
X103886000Y-129286000D02*
X113792000Y-119380000D01*
X113792000Y-119380000D02*
X116078000Y-119380000D01*
%TO.N,Net-(U10-MICIN)*%
X113538000Y-118364000D02*
X116078000Y-118364000D01*
X97790000Y-132080000D02*
X101854000Y-128016000D01*
X101854000Y-128016000D02*
X103886000Y-128016000D01*
X103886000Y-128016000D02*
X113538000Y-118364000D01*
%TO.N,Net-(U10-LOL)*%
X117634826Y-118904826D02*
X116078000Y-117348000D01*
X117634826Y-120593999D02*
X117634826Y-118904826D01*
%TO.N,/Level Shifters/BLNK_out*%
X97790000Y-75438000D02*
X106483200Y-66744800D01*
X95250000Y-78740000D02*
X97790000Y-76200000D01*
X97790000Y-76200000D02*
X97790000Y-75438000D01*
X116770200Y-66744800D02*
X116840000Y-66675000D01*
X133350000Y-80010000D02*
X133867500Y-80010000D01*
X93345000Y-78740000D02*
X95250000Y-78740000D01*
X116840000Y-66675000D02*
X120015000Y-66675000D01*
X106483200Y-66744800D02*
X116770200Y-66744800D01*
X92075000Y-80010000D02*
X93345000Y-78740000D01*
X120015000Y-66675000D02*
X133350000Y-80010000D01*
%TO.N,/Level Shifters/LAT_out*%
X115500200Y-66109800D02*
X106492700Y-66109800D01*
X94615000Y-77470000D02*
X95132500Y-77470000D01*
X115570000Y-66040000D02*
X115500200Y-66109800D01*
X115639800Y-65970200D02*
X120326200Y-65970200D01*
X106492700Y-66109800D02*
X95132500Y-77470000D01*
X94615000Y-77470000D02*
X95250000Y-77470000D01*
X135255000Y-78740000D02*
X136525000Y-77470000D01*
X115570000Y-66040000D02*
X115639800Y-65970200D01*
X120326200Y-65970200D02*
X133096000Y-78740000D01*
X133096000Y-78740000D02*
X135255000Y-78740000D01*
%TO.N,/Level Shifters/CLK_out*%
X114230200Y-65474800D02*
X106292700Y-65474800D01*
X114369800Y-65335200D02*
X121732700Y-65335200D01*
X133867500Y-77470000D02*
X133985000Y-77470000D01*
X106292700Y-65474800D02*
X95567500Y-76200000D01*
X93345000Y-76200000D02*
X92075000Y-77470000D01*
X114300000Y-65405000D02*
X114230200Y-65474800D01*
X95567500Y-76200000D02*
X93345000Y-76200000D01*
X114300000Y-65405000D02*
X114369800Y-65335200D01*
X121732700Y-65335200D02*
X133867500Y-77470000D01*
%TO.N,/Level Shifters/RDAT_out*%
X123637700Y-64700200D02*
X133867500Y-74930000D01*
X101600000Y-67549460D02*
X101600000Y-66040000D01*
X102800200Y-64839800D02*
X112960200Y-64839800D01*
X95489460Y-73660000D02*
X101600000Y-67549460D01*
X92075000Y-74930000D02*
X93345000Y-73660000D01*
X113099800Y-64700200D02*
X123637700Y-64700200D01*
X101600000Y-66040000D02*
X102800200Y-64839800D01*
X112960200Y-64839800D02*
X113030000Y-64770000D01*
X93345000Y-73660000D02*
X95489460Y-73660000D01*
X113030000Y-64770000D02*
X113099800Y-64700200D01*
X133867500Y-74930000D02*
X133985000Y-74930000D01*
%TO.N,/Level Shifters/RCLK_out*%
X112079300Y-64135000D02*
X112149100Y-64065200D01*
X102474460Y-64135000D02*
X112079300Y-64135000D01*
X93345000Y-71120000D02*
X95489460Y-71120000D01*
X92075000Y-72390000D02*
X93345000Y-71120000D01*
X95489460Y-71120000D02*
X102474460Y-64135000D01*
X112149100Y-64065200D02*
X125660200Y-64065200D01*
X133867500Y-72272500D02*
X133867500Y-72390000D01*
X125660200Y-64065200D02*
X133867500Y-72272500D01*
D27*
%TO.N,/USB Audio/L+*%
X111355000Y-130913000D02*
X126777000Y-130913000D01*
X126777000Y-130913000D02*
X135255000Y-122435000D01*
X109728000Y-129286000D02*
X111355000Y-130913000D01*
%TO.N,/USB Audio/L-*%
X123404000Y-129286000D02*
X135255000Y-117435000D01*
X112522000Y-129286000D02*
X123404000Y-129286000D01*
%TO.N,/USB Audio/R+*%
X111355000Y-125627000D02*
X117063000Y-125627000D01*
X109728000Y-127254000D02*
X111355000Y-125627000D01*
X117063000Y-125627000D02*
X135255000Y-107435000D01*
%TO.N,/USB Audio/R-*%
X120436000Y-127254000D02*
X135255000Y-112435000D01*
X112522000Y-127254000D02*
X120436000Y-127254000D01*
D26*
%TO.N,/FPGA/TMS*%
X105564566Y-82903434D02*
X92964000Y-95504000D01*
X93135626Y-101220400D02*
X91973991Y-101220400D01*
X93602600Y-97666600D02*
X93602600Y-100753426D01*
X91973991Y-101220400D02*
X91062600Y-102131791D01*
X92964000Y-97028000D02*
X93602600Y-97666600D01*
X92964000Y-95504000D02*
X92964000Y-97028000D01*
X93602600Y-100753426D02*
X93135626Y-101220400D01*
X109379834Y-82903434D02*
X105564566Y-82903434D01*
X109474000Y-82997600D02*
X109379834Y-82903434D01*
X91062600Y-102131791D02*
X91062600Y-103760400D01*
X91062600Y-103760400D02*
X89911000Y-104912000D01*
%TO.N,/FPGA/TDI*%
X108843505Y-83827505D02*
X105107469Y-83827505D01*
X93932800Y-100890199D02*
X92451000Y-102372000D01*
X93294200Y-95640774D02*
X93294200Y-96891226D01*
X93294200Y-96891226D02*
X93932800Y-97529826D01*
X105107469Y-83827505D02*
X93294200Y-95640774D01*
X108966000Y-83950000D02*
X108843505Y-83827505D01*
X93932800Y-97529826D02*
X93932800Y-100890199D01*
%TO.N,/FPGA/TDO*%
X108649709Y-79923923D02*
X106766077Y-79923923D01*
X104482889Y-82207111D02*
X104482889Y-82339688D01*
X104482889Y-82339688D02*
X104071902Y-82750675D01*
X103431325Y-82750675D02*
X89911000Y-96271000D01*
X104071902Y-82750675D02*
X103431325Y-82750675D01*
X89911000Y-96271000D02*
X89911000Y-99832000D01*
X106766077Y-79923923D02*
X104482889Y-82207111D01*
%TO.N,/FPGA/CRESET_N*%
X95612466Y-101750534D02*
X95612466Y-94379534D01*
X103449300Y-86542700D02*
X108446710Y-86542700D01*
X92451000Y-104912000D02*
X95612466Y-101750534D01*
X95612466Y-94379534D02*
X103449300Y-86542700D01*
%TD*%
M02*
