%TF.GenerationSoftware,KiCad,Pcbnew,7.0.10*%
%TF.CreationDate,2024-01-24T17:50:34-06:00*%
%TF.ProjectId,HUB75-FPGA-Card,48554237-352d-4465-9047-412d43617264,rev?*%
%TF.SameCoordinates,Original*%
%TF.FileFunction,Soldermask,Bot*%
%TF.FilePolarity,Negative*%
%FSLAX46Y46*%
G04 Gerber Fmt 4.6, Leading zero omitted, Abs format (unit mm)*
G04 Created by KiCad (PCBNEW 7.0.10) date 2024-01-24 17:50:34*
%MOMM*%
%LPD*%
G01*
G04 APERTURE LIST*
G04 Aperture macros list*
%AMRoundRect*
0 Rectangle with rounded corners*
0 $1 Rounding radius*
0 $2 $3 $4 $5 $6 $7 $8 $9 X,Y pos of 4 corners*
0 Add a 4 corners polygon primitive as box body*
4,1,4,$2,$3,$4,$5,$6,$7,$8,$9,$2,$3,0*
0 Add four circle primitives for the rounded corners*
1,1,$1+$1,$2,$3*
1,1,$1+$1,$4,$5*
1,1,$1+$1,$6,$7*
1,1,$1+$1,$8,$9*
0 Add four rect primitives between the rounded corners*
20,1,$1+$1,$2,$3,$4,$5,0*
20,1,$1+$1,$4,$5,$6,$7,0*
20,1,$1+$1,$6,$7,$8,$9,0*
20,1,$1+$1,$8,$9,$2,$3,0*%
G04 Aperture macros list end*
%ADD10C,3.200000*%
%ADD11RoundRect,0.250000X-0.600000X-0.600000X0.600000X-0.600000X0.600000X0.600000X-0.600000X0.600000X0*%
%ADD12C,1.700000*%
%ADD13R,1.700000X1.700000*%
%ADD14O,1.700000X1.700000*%
%ADD15RoundRect,0.250002X-1.699998X-1.699998X1.699998X-1.699998X1.699998X1.699998X-1.699998X1.699998X0*%
%ADD16C,0.650000*%
%ADD17O,2.100000X1.000000*%
%ADD18O,1.800000X1.000000*%
%ADD19R,2.600000X2.600000*%
%ADD20C,2.600000*%
%ADD21R,1.500000X1.500000*%
%ADD22C,1.500000*%
%ADD23C,3.500000*%
%ADD24RoundRect,0.250000X0.250000X0.750000X-0.250000X0.750000X-0.250000X-0.750000X0.250000X-0.750000X0*%
G04 APERTURE END LIST*
D10*
%TO.C,H3*%
X137160000Y-51435000D03*
%TD*%
%TO.C,H2*%
X91440000Y-128905000D03*
%TD*%
D11*
%TO.C,J6*%
X133985000Y-62230000D03*
D12*
X136525000Y-62230000D03*
X133985000Y-64770000D03*
X136525000Y-64770000D03*
X133985000Y-67310000D03*
X136525000Y-67310000D03*
X133985000Y-69850000D03*
X136525000Y-69850000D03*
X133985000Y-72390000D03*
X136525000Y-72390000D03*
X133985000Y-74930000D03*
X136525000Y-74930000D03*
X133985000Y-77470000D03*
X136525000Y-77470000D03*
X133985000Y-80010000D03*
X136525000Y-80010000D03*
%TD*%
D13*
%TO.C,J2*%
X104775000Y-50800000D03*
D14*
X104775000Y-53340000D03*
X104775000Y-55880000D03*
%TD*%
D13*
%TO.C,J7*%
X123825000Y-50800000D03*
D14*
X123825000Y-53340000D03*
X123825000Y-55880000D03*
%TD*%
D15*
%TO.C,J11*%
X98425000Y-51435000D03*
%TD*%
D16*
%TO.C,J9*%
X134555000Y-100680000D03*
X134555000Y-94900000D03*
D17*
X134055000Y-102110000D03*
D18*
X138235000Y-102110000D03*
D17*
X134055000Y-93470000D03*
D18*
X138235000Y-93470000D03*
%TD*%
D15*
%TO.C,J12*%
X130175000Y-51435000D03*
%TD*%
D13*
%TO.C,J5*%
X117475000Y-50815000D03*
D14*
X117475000Y-53355000D03*
X117475000Y-55895000D03*
%TD*%
D13*
%TO.C,J4*%
X111125000Y-50815000D03*
D14*
X111125000Y-53355000D03*
X111125000Y-55895000D03*
%TD*%
D19*
%TO.C,J8*%
X135255000Y-122435000D03*
D20*
X135255000Y-117435000D03*
X135255000Y-112435000D03*
X135255000Y-107435000D03*
%TD*%
D10*
%TO.C,H1*%
X91440000Y-51435000D03*
%TD*%
D21*
%TO.C,J10*%
X99646000Y-114863998D03*
D22*
X99646000Y-117363998D03*
X99646000Y-119363998D03*
X99646000Y-121863998D03*
X102266000Y-114863998D03*
X102266000Y-117363998D03*
X102266000Y-119363998D03*
X102266000Y-121863998D03*
D23*
X96936000Y-111793998D03*
X96936000Y-124933998D03*
X102616000Y-111793998D03*
X102616000Y-124933998D03*
%TD*%
D13*
%TO.C,J1*%
X89911000Y-99832000D03*
D14*
X92451000Y-99832000D03*
X89911000Y-102372000D03*
X92451000Y-102372000D03*
X89911000Y-104912000D03*
X92451000Y-104912000D03*
X89911000Y-107452000D03*
X92451000Y-107452000D03*
%TD*%
D10*
%TO.C,H4*%
X137160000Y-128905000D03*
%TD*%
D11*
%TO.C,J3*%
X92075000Y-62230000D03*
D12*
X94615000Y-62230000D03*
X92075000Y-64770000D03*
X94615000Y-64770000D03*
X92075000Y-67310000D03*
X94615000Y-67310000D03*
X92075000Y-69850000D03*
X94615000Y-69850000D03*
X92075000Y-72390000D03*
X94615000Y-72390000D03*
X92075000Y-74930000D03*
X94615000Y-74930000D03*
X92075000Y-77470000D03*
X94615000Y-77470000D03*
X92075000Y-80010000D03*
X94615000Y-80010000D03*
%TD*%
D24*
%TO.C,J15*%
X123444000Y-108204000D03*
%TD*%
%TO.C,J13*%
X128016000Y-108204000D03*
%TD*%
%TO.C,J14*%
X125984000Y-108204000D03*
%TD*%
%TO.C,J16*%
X121412000Y-108204000D03*
%TD*%
M02*
