%TF.GenerationSoftware,KiCad,Pcbnew,7.0.10*%
%TF.CreationDate,2024-02-21T00:47:17-06:00*%
%TF.ProjectId,Power-Module,506f7765-722d-44d6-9f64-756c652e6b69,rev?*%
%TF.SameCoordinates,Original*%
%TF.FileFunction,Legend,Top*%
%TF.FilePolarity,Positive*%
%FSLAX46Y46*%
G04 Gerber Fmt 4.6, Leading zero omitted, Abs format (unit mm)*
G04 Created by KiCad (PCBNEW 7.0.10) date 2024-02-21 00:47:17*
%MOMM*%
%LPD*%
G01*
G04 APERTURE LIST*
G04 Aperture macros list*
%AMRoundRect*
0 Rectangle with rounded corners*
0 $1 Rounding radius*
0 $2 $3 $4 $5 $6 $7 $8 $9 X,Y pos of 4 corners*
0 Add a 4 corners polygon primitive as box body*
4,1,4,$2,$3,$4,$5,$6,$7,$8,$9,$2,$3,0*
0 Add four circle primitives for the rounded corners*
1,1,$1+$1,$2,$3*
1,1,$1+$1,$4,$5*
1,1,$1+$1,$6,$7*
1,1,$1+$1,$8,$9*
0 Add four rect primitives between the rounded corners*
20,1,$1+$1,$2,$3,$4,$5,0*
20,1,$1+$1,$4,$5,$6,$7,0*
20,1,$1+$1,$6,$7,$8,$9,0*
20,1,$1+$1,$8,$9,$2,$3,0*%
%AMFreePoly0*
4,1,7,1.730000,-0.250000,0.800000,-0.250000,0.800000,-0.550000,-0.220000,-0.550000,-0.220000,0.150000,1.730000,0.150000,1.730000,-0.250000,1.730000,-0.250000,$1*%
%AMFreePoly1*
4,1,9,0.465000,0.195000,0.465000,-0.045000,0.165000,-0.345000,-0.325000,-0.345000,-0.635000,-0.045000,-0.635000,0.195000,-0.325000,0.505000,0.165000,0.505000,0.465000,0.195000,0.465000,0.195000,$1*%
%AMFreePoly2*
4,1,7,0.370000,0.275000,1.300000,0.275000,1.300000,-0.175000,-0.650000,-0.175000,-0.650000,0.575000,0.370000,0.575000,0.370000,0.275000,0.370000,0.275000,$1*%
G04 Aperture macros list end*
%ADD10C,0.150000*%
%ADD11C,0.120000*%
%ADD12C,0.250000*%
%ADD13C,0.100000*%
%ADD14C,4.000000*%
%ADD15R,3.800000X3.800000*%
%ADD16R,3.300000X2.100000*%
%ADD17R,0.600000X1.500000*%
%ADD18C,3.200000*%
%ADD19R,1.000000X1.500000*%
%ADD20RoundRect,0.200000X0.200000X0.275000X-0.200000X0.275000X-0.200000X-0.275000X0.200000X-0.275000X0*%
%ADD21R,2.400000X3.200000*%
%ADD22RoundRect,0.250000X0.475000X-0.250000X0.475000X0.250000X-0.475000X0.250000X-0.475000X-0.250000X0*%
%ADD23RoundRect,0.225000X-0.225000X-0.250000X0.225000X-0.250000X0.225000X0.250000X-0.225000X0.250000X0*%
%ADD24RoundRect,0.225000X0.250000X-0.225000X0.250000X0.225000X-0.250000X0.225000X-0.250000X-0.225000X0*%
%ADD25O,1.800000X1.000000*%
%ADD26O,2.100000X1.000000*%
%ADD27RoundRect,0.150000X-0.425000X0.150000X-0.425000X-0.150000X0.425000X-0.150000X0.425000X0.150000X0*%
%ADD28RoundRect,0.075000X-0.500000X0.075000X-0.500000X-0.075000X0.500000X-0.075000X0.500000X0.075000X0*%
%ADD29C,0.650000*%
%ADD30FreePoly0,90.000000*%
%ADD31FreePoly1,90.000000*%
%ADD32FreePoly2,90.000000*%
%ADD33R,0.750000X1.100000*%
%ADD34R,0.260000X1.100000*%
%ADD35R,0.600000X0.250000*%
%ADD36RoundRect,0.150000X0.425000X-0.150000X0.425000X0.150000X-0.425000X0.150000X-0.425000X-0.150000X0*%
%ADD37RoundRect,0.075000X0.500000X-0.075000X0.500000X0.075000X-0.500000X0.075000X-0.500000X-0.075000X0*%
%ADD38RoundRect,0.200000X0.275000X-0.200000X0.275000X0.200000X-0.275000X0.200000X-0.275000X-0.200000X0*%
%ADD39RoundRect,0.200000X-0.200000X-0.275000X0.200000X-0.275000X0.200000X0.275000X-0.200000X0.275000X0*%
G04 APERTURE END LIST*
D10*
X141398666Y-80290819D02*
X141398666Y-81005104D01*
X141398666Y-81005104D02*
X141351047Y-81147961D01*
X141351047Y-81147961D02*
X141255809Y-81243200D01*
X141255809Y-81243200D02*
X141112952Y-81290819D01*
X141112952Y-81290819D02*
X141017714Y-81290819D01*
X142351047Y-80290819D02*
X141874857Y-80290819D01*
X141874857Y-80290819D02*
X141827238Y-80767009D01*
X141827238Y-80767009D02*
X141874857Y-80719390D01*
X141874857Y-80719390D02*
X141970095Y-80671771D01*
X141970095Y-80671771D02*
X142208190Y-80671771D01*
X142208190Y-80671771D02*
X142303428Y-80719390D01*
X142303428Y-80719390D02*
X142351047Y-80767009D01*
X142351047Y-80767009D02*
X142398666Y-80862247D01*
X142398666Y-80862247D02*
X142398666Y-81100342D01*
X142398666Y-81100342D02*
X142351047Y-81195580D01*
X142351047Y-81195580D02*
X142303428Y-81243200D01*
X142303428Y-81243200D02*
X142208190Y-81290819D01*
X142208190Y-81290819D02*
X141970095Y-81290819D01*
X141970095Y-81290819D02*
X141874857Y-81243200D01*
X141874857Y-81243200D02*
X141827238Y-81195580D01*
X134660571Y-84950700D02*
X135803429Y-84950700D01*
X147660571Y-84950700D02*
X148803429Y-84950700D01*
X148232000Y-85522128D02*
X148232000Y-84379271D01*
X135090819Y-101599904D02*
X135900342Y-101599904D01*
X135900342Y-101599904D02*
X135995580Y-101552285D01*
X135995580Y-101552285D02*
X136043200Y-101504666D01*
X136043200Y-101504666D02*
X136090819Y-101409428D01*
X136090819Y-101409428D02*
X136090819Y-101218952D01*
X136090819Y-101218952D02*
X136043200Y-101123714D01*
X136043200Y-101123714D02*
X135995580Y-101076095D01*
X135995580Y-101076095D02*
X135900342Y-101028476D01*
X135900342Y-101028476D02*
X135090819Y-101028476D01*
X136090819Y-100028476D02*
X136090819Y-100599904D01*
X136090819Y-100314190D02*
X135090819Y-100314190D01*
X135090819Y-100314190D02*
X135233676Y-100409428D01*
X135233676Y-100409428D02*
X135328914Y-100504666D01*
X135328914Y-100504666D02*
X135376533Y-100599904D01*
X156392666Y-76416819D02*
X156392666Y-77131104D01*
X156392666Y-77131104D02*
X156345047Y-77273961D01*
X156345047Y-77273961D02*
X156249809Y-77369200D01*
X156249809Y-77369200D02*
X156106952Y-77416819D01*
X156106952Y-77416819D02*
X156011714Y-77416819D01*
X156868857Y-77416819D02*
X156868857Y-76416819D01*
X156868857Y-76416819D02*
X157249809Y-76416819D01*
X157249809Y-76416819D02*
X157345047Y-76464438D01*
X157345047Y-76464438D02*
X157392666Y-76512057D01*
X157392666Y-76512057D02*
X157440285Y-76607295D01*
X157440285Y-76607295D02*
X157440285Y-76750152D01*
X157440285Y-76750152D02*
X157392666Y-76845390D01*
X157392666Y-76845390D02*
X157345047Y-76893009D01*
X157345047Y-76893009D02*
X157249809Y-76940628D01*
X157249809Y-76940628D02*
X156868857Y-76940628D01*
X158392666Y-77416819D02*
X157821238Y-77416819D01*
X158106952Y-77416819D02*
X158106952Y-76416819D01*
X158106952Y-76416819D02*
X158011714Y-76559676D01*
X158011714Y-76559676D02*
X157916476Y-76654914D01*
X157916476Y-76654914D02*
X157821238Y-76702533D01*
X136739333Y-92910819D02*
X136406000Y-92434628D01*
X136167905Y-92910819D02*
X136167905Y-91910819D01*
X136167905Y-91910819D02*
X136548857Y-91910819D01*
X136548857Y-91910819D02*
X136644095Y-91958438D01*
X136644095Y-91958438D02*
X136691714Y-92006057D01*
X136691714Y-92006057D02*
X136739333Y-92101295D01*
X136739333Y-92101295D02*
X136739333Y-92244152D01*
X136739333Y-92244152D02*
X136691714Y-92339390D01*
X136691714Y-92339390D02*
X136644095Y-92387009D01*
X136644095Y-92387009D02*
X136548857Y-92434628D01*
X136548857Y-92434628D02*
X136167905Y-92434628D01*
X137691714Y-92910819D02*
X137120286Y-92910819D01*
X137406000Y-92910819D02*
X137406000Y-91910819D01*
X137406000Y-91910819D02*
X137310762Y-92053676D01*
X137310762Y-92053676D02*
X137215524Y-92148914D01*
X137215524Y-92148914D02*
X137120286Y-92196533D01*
X147266819Y-103671666D02*
X147266819Y-104147856D01*
X147266819Y-104147856D02*
X146266819Y-104147856D01*
X147266819Y-102814523D02*
X147266819Y-103385951D01*
X147266819Y-103100237D02*
X146266819Y-103100237D01*
X146266819Y-103100237D02*
X146409676Y-103195475D01*
X146409676Y-103195475D02*
X146504914Y-103290713D01*
X146504914Y-103290713D02*
X146552533Y-103385951D01*
X151997580Y-92622666D02*
X152045200Y-92670285D01*
X152045200Y-92670285D02*
X152092819Y-92813142D01*
X152092819Y-92813142D02*
X152092819Y-92908380D01*
X152092819Y-92908380D02*
X152045200Y-93051237D01*
X152045200Y-93051237D02*
X151949961Y-93146475D01*
X151949961Y-93146475D02*
X151854723Y-93194094D01*
X151854723Y-93194094D02*
X151664247Y-93241713D01*
X151664247Y-93241713D02*
X151521390Y-93241713D01*
X151521390Y-93241713D02*
X151330914Y-93194094D01*
X151330914Y-93194094D02*
X151235676Y-93146475D01*
X151235676Y-93146475D02*
X151140438Y-93051237D01*
X151140438Y-93051237D02*
X151092819Y-92908380D01*
X151092819Y-92908380D02*
X151092819Y-92813142D01*
X151092819Y-92813142D02*
X151140438Y-92670285D01*
X151140438Y-92670285D02*
X151188057Y-92622666D01*
X151092819Y-92289332D02*
X151092819Y-91622666D01*
X151092819Y-91622666D02*
X152092819Y-92051237D01*
X145629333Y-101578580D02*
X145581714Y-101626200D01*
X145581714Y-101626200D02*
X145438857Y-101673819D01*
X145438857Y-101673819D02*
X145343619Y-101673819D01*
X145343619Y-101673819D02*
X145200762Y-101626200D01*
X145200762Y-101626200D02*
X145105524Y-101530961D01*
X145105524Y-101530961D02*
X145057905Y-101435723D01*
X145057905Y-101435723D02*
X145010286Y-101245247D01*
X145010286Y-101245247D02*
X145010286Y-101102390D01*
X145010286Y-101102390D02*
X145057905Y-100911914D01*
X145057905Y-100911914D02*
X145105524Y-100816676D01*
X145105524Y-100816676D02*
X145200762Y-100721438D01*
X145200762Y-100721438D02*
X145343619Y-100673819D01*
X145343619Y-100673819D02*
X145438857Y-100673819D01*
X145438857Y-100673819D02*
X145581714Y-100721438D01*
X145581714Y-100721438D02*
X145629333Y-100769057D01*
X146534095Y-100673819D02*
X146057905Y-100673819D01*
X146057905Y-100673819D02*
X146010286Y-101150009D01*
X146010286Y-101150009D02*
X146057905Y-101102390D01*
X146057905Y-101102390D02*
X146153143Y-101054771D01*
X146153143Y-101054771D02*
X146391238Y-101054771D01*
X146391238Y-101054771D02*
X146486476Y-101102390D01*
X146486476Y-101102390D02*
X146534095Y-101150009D01*
X146534095Y-101150009D02*
X146581714Y-101245247D01*
X146581714Y-101245247D02*
X146581714Y-101483342D01*
X146581714Y-101483342D02*
X146534095Y-101578580D01*
X146534095Y-101578580D02*
X146486476Y-101626200D01*
X146486476Y-101626200D02*
X146391238Y-101673819D01*
X146391238Y-101673819D02*
X146153143Y-101673819D01*
X146153143Y-101673819D02*
X146057905Y-101626200D01*
X146057905Y-101626200D02*
X146010286Y-101578580D01*
X148187580Y-89320666D02*
X148235200Y-89368285D01*
X148235200Y-89368285D02*
X148282819Y-89511142D01*
X148282819Y-89511142D02*
X148282819Y-89606380D01*
X148282819Y-89606380D02*
X148235200Y-89749237D01*
X148235200Y-89749237D02*
X148139961Y-89844475D01*
X148139961Y-89844475D02*
X148044723Y-89892094D01*
X148044723Y-89892094D02*
X147854247Y-89939713D01*
X147854247Y-89939713D02*
X147711390Y-89939713D01*
X147711390Y-89939713D02*
X147520914Y-89892094D01*
X147520914Y-89892094D02*
X147425676Y-89844475D01*
X147425676Y-89844475D02*
X147330438Y-89749237D01*
X147330438Y-89749237D02*
X147282819Y-89606380D01*
X147282819Y-89606380D02*
X147282819Y-89511142D01*
X147282819Y-89511142D02*
X147330438Y-89368285D01*
X147330438Y-89368285D02*
X147378057Y-89320666D01*
X147378057Y-88939713D02*
X147330438Y-88892094D01*
X147330438Y-88892094D02*
X147282819Y-88796856D01*
X147282819Y-88796856D02*
X147282819Y-88558761D01*
X147282819Y-88558761D02*
X147330438Y-88463523D01*
X147330438Y-88463523D02*
X147378057Y-88415904D01*
X147378057Y-88415904D02*
X147473295Y-88368285D01*
X147473295Y-88368285D02*
X147568533Y-88368285D01*
X147568533Y-88368285D02*
X147711390Y-88415904D01*
X147711390Y-88415904D02*
X148282819Y-88987332D01*
X148282819Y-88987332D02*
X148282819Y-88368285D01*
X134074819Y-77295333D02*
X134789104Y-77295333D01*
X134789104Y-77295333D02*
X134931961Y-77342952D01*
X134931961Y-77342952D02*
X135027200Y-77438190D01*
X135027200Y-77438190D02*
X135074819Y-77581047D01*
X135074819Y-77581047D02*
X135074819Y-77676285D01*
X134170057Y-76866761D02*
X134122438Y-76819142D01*
X134122438Y-76819142D02*
X134074819Y-76723904D01*
X134074819Y-76723904D02*
X134074819Y-76485809D01*
X134074819Y-76485809D02*
X134122438Y-76390571D01*
X134122438Y-76390571D02*
X134170057Y-76342952D01*
X134170057Y-76342952D02*
X134265295Y-76295333D01*
X134265295Y-76295333D02*
X134360533Y-76295333D01*
X134360533Y-76295333D02*
X134503390Y-76342952D01*
X134503390Y-76342952D02*
X135074819Y-76914380D01*
X135074819Y-76914380D02*
X135074819Y-76295333D01*
X146266819Y-98805904D02*
X147076342Y-98805904D01*
X147076342Y-98805904D02*
X147171580Y-98758285D01*
X147171580Y-98758285D02*
X147219200Y-98710666D01*
X147219200Y-98710666D02*
X147266819Y-98615428D01*
X147266819Y-98615428D02*
X147266819Y-98424952D01*
X147266819Y-98424952D02*
X147219200Y-98329714D01*
X147219200Y-98329714D02*
X147171580Y-98282095D01*
X147171580Y-98282095D02*
X147076342Y-98234476D01*
X147076342Y-98234476D02*
X146266819Y-98234476D01*
X146362057Y-97805904D02*
X146314438Y-97758285D01*
X146314438Y-97758285D02*
X146266819Y-97663047D01*
X146266819Y-97663047D02*
X146266819Y-97424952D01*
X146266819Y-97424952D02*
X146314438Y-97329714D01*
X146314438Y-97329714D02*
X146362057Y-97282095D01*
X146362057Y-97282095D02*
X146457295Y-97234476D01*
X146457295Y-97234476D02*
X146552533Y-97234476D01*
X146552533Y-97234476D02*
X146695390Y-97282095D01*
X146695390Y-97282095D02*
X147266819Y-97853523D01*
X147266819Y-97853523D02*
X147266819Y-97234476D01*
X157784819Y-85931333D02*
X158499104Y-85931333D01*
X158499104Y-85931333D02*
X158641961Y-85978952D01*
X158641961Y-85978952D02*
X158737200Y-86074190D01*
X158737200Y-86074190D02*
X158784819Y-86217047D01*
X158784819Y-86217047D02*
X158784819Y-86312285D01*
X157784819Y-85550380D02*
X157784819Y-84931333D01*
X157784819Y-84931333D02*
X158165771Y-85264666D01*
X158165771Y-85264666D02*
X158165771Y-85121809D01*
X158165771Y-85121809D02*
X158213390Y-85026571D01*
X158213390Y-85026571D02*
X158261009Y-84978952D01*
X158261009Y-84978952D02*
X158356247Y-84931333D01*
X158356247Y-84931333D02*
X158594342Y-84931333D01*
X158594342Y-84931333D02*
X158689580Y-84978952D01*
X158689580Y-84978952D02*
X158737200Y-85026571D01*
X158737200Y-85026571D02*
X158784819Y-85121809D01*
X158784819Y-85121809D02*
X158784819Y-85407523D01*
X158784819Y-85407523D02*
X158737200Y-85502761D01*
X158737200Y-85502761D02*
X158689580Y-85550380D01*
X146790580Y-89333666D02*
X146838200Y-89381285D01*
X146838200Y-89381285D02*
X146885819Y-89524142D01*
X146885819Y-89524142D02*
X146885819Y-89619380D01*
X146885819Y-89619380D02*
X146838200Y-89762237D01*
X146838200Y-89762237D02*
X146742961Y-89857475D01*
X146742961Y-89857475D02*
X146647723Y-89905094D01*
X146647723Y-89905094D02*
X146457247Y-89952713D01*
X146457247Y-89952713D02*
X146314390Y-89952713D01*
X146314390Y-89952713D02*
X146123914Y-89905094D01*
X146123914Y-89905094D02*
X146028676Y-89857475D01*
X146028676Y-89857475D02*
X145933438Y-89762237D01*
X145933438Y-89762237D02*
X145885819Y-89619380D01*
X145885819Y-89619380D02*
X145885819Y-89524142D01*
X145885819Y-89524142D02*
X145933438Y-89381285D01*
X145933438Y-89381285D02*
X145981057Y-89333666D01*
X145885819Y-89000332D02*
X145885819Y-88381285D01*
X145885819Y-88381285D02*
X146266771Y-88714618D01*
X146266771Y-88714618D02*
X146266771Y-88571761D01*
X146266771Y-88571761D02*
X146314390Y-88476523D01*
X146314390Y-88476523D02*
X146362009Y-88428904D01*
X146362009Y-88428904D02*
X146457247Y-88381285D01*
X146457247Y-88381285D02*
X146695342Y-88381285D01*
X146695342Y-88381285D02*
X146790580Y-88428904D01*
X146790580Y-88428904D02*
X146838200Y-88476523D01*
X146838200Y-88476523D02*
X146885819Y-88571761D01*
X146885819Y-88571761D02*
X146885819Y-88857475D01*
X146885819Y-88857475D02*
X146838200Y-88952713D01*
X146838200Y-88952713D02*
X146790580Y-89000332D01*
X153775580Y-92622666D02*
X153823200Y-92670285D01*
X153823200Y-92670285D02*
X153870819Y-92813142D01*
X153870819Y-92813142D02*
X153870819Y-92908380D01*
X153870819Y-92908380D02*
X153823200Y-93051237D01*
X153823200Y-93051237D02*
X153727961Y-93146475D01*
X153727961Y-93146475D02*
X153632723Y-93194094D01*
X153632723Y-93194094D02*
X153442247Y-93241713D01*
X153442247Y-93241713D02*
X153299390Y-93241713D01*
X153299390Y-93241713D02*
X153108914Y-93194094D01*
X153108914Y-93194094D02*
X153013676Y-93146475D01*
X153013676Y-93146475D02*
X152918438Y-93051237D01*
X152918438Y-93051237D02*
X152870819Y-92908380D01*
X152870819Y-92908380D02*
X152870819Y-92813142D01*
X152870819Y-92813142D02*
X152918438Y-92670285D01*
X152918438Y-92670285D02*
X152966057Y-92622666D01*
X153299390Y-92051237D02*
X153251771Y-92146475D01*
X153251771Y-92146475D02*
X153204152Y-92194094D01*
X153204152Y-92194094D02*
X153108914Y-92241713D01*
X153108914Y-92241713D02*
X153061295Y-92241713D01*
X153061295Y-92241713D02*
X152966057Y-92194094D01*
X152966057Y-92194094D02*
X152918438Y-92146475D01*
X152918438Y-92146475D02*
X152870819Y-92051237D01*
X152870819Y-92051237D02*
X152870819Y-91860761D01*
X152870819Y-91860761D02*
X152918438Y-91765523D01*
X152918438Y-91765523D02*
X152966057Y-91717904D01*
X152966057Y-91717904D02*
X153061295Y-91670285D01*
X153061295Y-91670285D02*
X153108914Y-91670285D01*
X153108914Y-91670285D02*
X153204152Y-91717904D01*
X153204152Y-91717904D02*
X153251771Y-91765523D01*
X153251771Y-91765523D02*
X153299390Y-91860761D01*
X153299390Y-91860761D02*
X153299390Y-92051237D01*
X153299390Y-92051237D02*
X153347009Y-92146475D01*
X153347009Y-92146475D02*
X153394628Y-92194094D01*
X153394628Y-92194094D02*
X153489866Y-92241713D01*
X153489866Y-92241713D02*
X153680342Y-92241713D01*
X153680342Y-92241713D02*
X153775580Y-92194094D01*
X153775580Y-92194094D02*
X153823200Y-92146475D01*
X153823200Y-92146475D02*
X153870819Y-92051237D01*
X153870819Y-92051237D02*
X153870819Y-91860761D01*
X153870819Y-91860761D02*
X153823200Y-91765523D01*
X153823200Y-91765523D02*
X153775580Y-91717904D01*
X153775580Y-91717904D02*
X153680342Y-91670285D01*
X153680342Y-91670285D02*
X153489866Y-91670285D01*
X153489866Y-91670285D02*
X153394628Y-91717904D01*
X153394628Y-91717904D02*
X153347009Y-91765523D01*
X153347009Y-91765523D02*
X153299390Y-91860761D01*
X143708819Y-89320666D02*
X143232628Y-89653999D01*
X143708819Y-89892094D02*
X142708819Y-89892094D01*
X142708819Y-89892094D02*
X142708819Y-89511142D01*
X142708819Y-89511142D02*
X142756438Y-89415904D01*
X142756438Y-89415904D02*
X142804057Y-89368285D01*
X142804057Y-89368285D02*
X142899295Y-89320666D01*
X142899295Y-89320666D02*
X143042152Y-89320666D01*
X143042152Y-89320666D02*
X143137390Y-89368285D01*
X143137390Y-89368285D02*
X143185009Y-89415904D01*
X143185009Y-89415904D02*
X143232628Y-89511142D01*
X143232628Y-89511142D02*
X143232628Y-89892094D01*
X142708819Y-88987332D02*
X142708819Y-88320666D01*
X142708819Y-88320666D02*
X143708819Y-88749237D01*
X157784819Y-103203333D02*
X158499104Y-103203333D01*
X158499104Y-103203333D02*
X158641961Y-103250952D01*
X158641961Y-103250952D02*
X158737200Y-103346190D01*
X158737200Y-103346190D02*
X158784819Y-103489047D01*
X158784819Y-103489047D02*
X158784819Y-103584285D01*
X158118152Y-102298571D02*
X158784819Y-102298571D01*
X157737200Y-102536666D02*
X158451485Y-102774761D01*
X158451485Y-102774761D02*
X158451485Y-102155714D01*
X142440819Y-95670666D02*
X141964628Y-96003999D01*
X142440819Y-96242094D02*
X141440819Y-96242094D01*
X141440819Y-96242094D02*
X141440819Y-95861142D01*
X141440819Y-95861142D02*
X141488438Y-95765904D01*
X141488438Y-95765904D02*
X141536057Y-95718285D01*
X141536057Y-95718285D02*
X141631295Y-95670666D01*
X141631295Y-95670666D02*
X141774152Y-95670666D01*
X141774152Y-95670666D02*
X141869390Y-95718285D01*
X141869390Y-95718285D02*
X141917009Y-95765904D01*
X141917009Y-95765904D02*
X141964628Y-95861142D01*
X141964628Y-95861142D02*
X141964628Y-96242094D01*
X141440819Y-94813523D02*
X141440819Y-95003999D01*
X141440819Y-95003999D02*
X141488438Y-95099237D01*
X141488438Y-95099237D02*
X141536057Y-95146856D01*
X141536057Y-95146856D02*
X141678914Y-95242094D01*
X141678914Y-95242094D02*
X141869390Y-95289713D01*
X141869390Y-95289713D02*
X142250342Y-95289713D01*
X142250342Y-95289713D02*
X142345580Y-95242094D01*
X142345580Y-95242094D02*
X142393200Y-95194475D01*
X142393200Y-95194475D02*
X142440819Y-95099237D01*
X142440819Y-95099237D02*
X142440819Y-94908761D01*
X142440819Y-94908761D02*
X142393200Y-94813523D01*
X142393200Y-94813523D02*
X142345580Y-94765904D01*
X142345580Y-94765904D02*
X142250342Y-94718285D01*
X142250342Y-94718285D02*
X142012247Y-94718285D01*
X142012247Y-94718285D02*
X141917009Y-94765904D01*
X141917009Y-94765904D02*
X141869390Y-94813523D01*
X141869390Y-94813523D02*
X141821771Y-94908761D01*
X141821771Y-94908761D02*
X141821771Y-95099237D01*
X141821771Y-95099237D02*
X141869390Y-95194475D01*
X141869390Y-95194475D02*
X141917009Y-95242094D01*
X141917009Y-95242094D02*
X142012247Y-95289713D01*
X145139580Y-89320666D02*
X145187200Y-89368285D01*
X145187200Y-89368285D02*
X145234819Y-89511142D01*
X145234819Y-89511142D02*
X145234819Y-89606380D01*
X145234819Y-89606380D02*
X145187200Y-89749237D01*
X145187200Y-89749237D02*
X145091961Y-89844475D01*
X145091961Y-89844475D02*
X144996723Y-89892094D01*
X144996723Y-89892094D02*
X144806247Y-89939713D01*
X144806247Y-89939713D02*
X144663390Y-89939713D01*
X144663390Y-89939713D02*
X144472914Y-89892094D01*
X144472914Y-89892094D02*
X144377676Y-89844475D01*
X144377676Y-89844475D02*
X144282438Y-89749237D01*
X144282438Y-89749237D02*
X144234819Y-89606380D01*
X144234819Y-89606380D02*
X144234819Y-89511142D01*
X144234819Y-89511142D02*
X144282438Y-89368285D01*
X144282438Y-89368285D02*
X144330057Y-89320666D01*
X144568152Y-88463523D02*
X145234819Y-88463523D01*
X144187200Y-88701618D02*
X144901485Y-88939713D01*
X144901485Y-88939713D02*
X144901485Y-88320666D01*
X155934580Y-92622666D02*
X155982200Y-92670285D01*
X155982200Y-92670285D02*
X156029819Y-92813142D01*
X156029819Y-92813142D02*
X156029819Y-92908380D01*
X156029819Y-92908380D02*
X155982200Y-93051237D01*
X155982200Y-93051237D02*
X155886961Y-93146475D01*
X155886961Y-93146475D02*
X155791723Y-93194094D01*
X155791723Y-93194094D02*
X155601247Y-93241713D01*
X155601247Y-93241713D02*
X155458390Y-93241713D01*
X155458390Y-93241713D02*
X155267914Y-93194094D01*
X155267914Y-93194094D02*
X155172676Y-93146475D01*
X155172676Y-93146475D02*
X155077438Y-93051237D01*
X155077438Y-93051237D02*
X155029819Y-92908380D01*
X155029819Y-92908380D02*
X155029819Y-92813142D01*
X155029819Y-92813142D02*
X155077438Y-92670285D01*
X155077438Y-92670285D02*
X155125057Y-92622666D01*
X156029819Y-92146475D02*
X156029819Y-91955999D01*
X156029819Y-91955999D02*
X155982200Y-91860761D01*
X155982200Y-91860761D02*
X155934580Y-91813142D01*
X155934580Y-91813142D02*
X155791723Y-91717904D01*
X155791723Y-91717904D02*
X155601247Y-91670285D01*
X155601247Y-91670285D02*
X155220295Y-91670285D01*
X155220295Y-91670285D02*
X155125057Y-91717904D01*
X155125057Y-91717904D02*
X155077438Y-91765523D01*
X155077438Y-91765523D02*
X155029819Y-91860761D01*
X155029819Y-91860761D02*
X155029819Y-92051237D01*
X155029819Y-92051237D02*
X155077438Y-92146475D01*
X155077438Y-92146475D02*
X155125057Y-92194094D01*
X155125057Y-92194094D02*
X155220295Y-92241713D01*
X155220295Y-92241713D02*
X155458390Y-92241713D01*
X155458390Y-92241713D02*
X155553628Y-92194094D01*
X155553628Y-92194094D02*
X155601247Y-92146475D01*
X155601247Y-92146475D02*
X155648866Y-92051237D01*
X155648866Y-92051237D02*
X155648866Y-91860761D01*
X155648866Y-91860761D02*
X155601247Y-91765523D01*
X155601247Y-91765523D02*
X155553628Y-91717904D01*
X155553628Y-91717904D02*
X155458390Y-91670285D01*
X139787333Y-92910819D02*
X139454000Y-92434628D01*
X139215905Y-92910819D02*
X139215905Y-91910819D01*
X139215905Y-91910819D02*
X139596857Y-91910819D01*
X139596857Y-91910819D02*
X139692095Y-91958438D01*
X139692095Y-91958438D02*
X139739714Y-92006057D01*
X139739714Y-92006057D02*
X139787333Y-92101295D01*
X139787333Y-92101295D02*
X139787333Y-92244152D01*
X139787333Y-92244152D02*
X139739714Y-92339390D01*
X139739714Y-92339390D02*
X139692095Y-92387009D01*
X139692095Y-92387009D02*
X139596857Y-92434628D01*
X139596857Y-92434628D02*
X139215905Y-92434628D01*
X140120667Y-91910819D02*
X140739714Y-91910819D01*
X140739714Y-91910819D02*
X140406381Y-92291771D01*
X140406381Y-92291771D02*
X140549238Y-92291771D01*
X140549238Y-92291771D02*
X140644476Y-92339390D01*
X140644476Y-92339390D02*
X140692095Y-92387009D01*
X140692095Y-92387009D02*
X140739714Y-92482247D01*
X140739714Y-92482247D02*
X140739714Y-92720342D01*
X140739714Y-92720342D02*
X140692095Y-92815580D01*
X140692095Y-92815580D02*
X140644476Y-92863200D01*
X140644476Y-92863200D02*
X140549238Y-92910819D01*
X140549238Y-92910819D02*
X140263524Y-92910819D01*
X140263524Y-92910819D02*
X140168286Y-92863200D01*
X140168286Y-92863200D02*
X140120667Y-92815580D01*
X149838580Y-92622666D02*
X149886200Y-92670285D01*
X149886200Y-92670285D02*
X149933819Y-92813142D01*
X149933819Y-92813142D02*
X149933819Y-92908380D01*
X149933819Y-92908380D02*
X149886200Y-93051237D01*
X149886200Y-93051237D02*
X149790961Y-93146475D01*
X149790961Y-93146475D02*
X149695723Y-93194094D01*
X149695723Y-93194094D02*
X149505247Y-93241713D01*
X149505247Y-93241713D02*
X149362390Y-93241713D01*
X149362390Y-93241713D02*
X149171914Y-93194094D01*
X149171914Y-93194094D02*
X149076676Y-93146475D01*
X149076676Y-93146475D02*
X148981438Y-93051237D01*
X148981438Y-93051237D02*
X148933819Y-92908380D01*
X148933819Y-92908380D02*
X148933819Y-92813142D01*
X148933819Y-92813142D02*
X148981438Y-92670285D01*
X148981438Y-92670285D02*
X149029057Y-92622666D01*
X148933819Y-91765523D02*
X148933819Y-91955999D01*
X148933819Y-91955999D02*
X148981438Y-92051237D01*
X148981438Y-92051237D02*
X149029057Y-92098856D01*
X149029057Y-92098856D02*
X149171914Y-92194094D01*
X149171914Y-92194094D02*
X149362390Y-92241713D01*
X149362390Y-92241713D02*
X149743342Y-92241713D01*
X149743342Y-92241713D02*
X149838580Y-92194094D01*
X149838580Y-92194094D02*
X149886200Y-92146475D01*
X149886200Y-92146475D02*
X149933819Y-92051237D01*
X149933819Y-92051237D02*
X149933819Y-91860761D01*
X149933819Y-91860761D02*
X149886200Y-91765523D01*
X149886200Y-91765523D02*
X149838580Y-91717904D01*
X149838580Y-91717904D02*
X149743342Y-91670285D01*
X149743342Y-91670285D02*
X149505247Y-91670285D01*
X149505247Y-91670285D02*
X149410009Y-91717904D01*
X149410009Y-91717904D02*
X149362390Y-91765523D01*
X149362390Y-91765523D02*
X149314771Y-91860761D01*
X149314771Y-91860761D02*
X149314771Y-92051237D01*
X149314771Y-92051237D02*
X149362390Y-92146475D01*
X149362390Y-92146475D02*
X149410009Y-92194094D01*
X149410009Y-92194094D02*
X149505247Y-92241713D01*
X134074819Y-94567333D02*
X134789104Y-94567333D01*
X134789104Y-94567333D02*
X134931961Y-94614952D01*
X134931961Y-94614952D02*
X135027200Y-94710190D01*
X135027200Y-94710190D02*
X135074819Y-94853047D01*
X135074819Y-94853047D02*
X135074819Y-94948285D01*
X135074819Y-93567333D02*
X135074819Y-94138761D01*
X135074819Y-93853047D02*
X134074819Y-93853047D01*
X134074819Y-93853047D02*
X134217676Y-93948285D01*
X134217676Y-93948285D02*
X134312914Y-94043523D01*
X134312914Y-94043523D02*
X134360533Y-94138761D01*
X134453333Y-103832819D02*
X134120000Y-103356628D01*
X133881905Y-103832819D02*
X133881905Y-102832819D01*
X133881905Y-102832819D02*
X134262857Y-102832819D01*
X134262857Y-102832819D02*
X134358095Y-102880438D01*
X134358095Y-102880438D02*
X134405714Y-102928057D01*
X134405714Y-102928057D02*
X134453333Y-103023295D01*
X134453333Y-103023295D02*
X134453333Y-103166152D01*
X134453333Y-103166152D02*
X134405714Y-103261390D01*
X134405714Y-103261390D02*
X134358095Y-103309009D01*
X134358095Y-103309009D02*
X134262857Y-103356628D01*
X134262857Y-103356628D02*
X133881905Y-103356628D01*
X134834286Y-102928057D02*
X134881905Y-102880438D01*
X134881905Y-102880438D02*
X134977143Y-102832819D01*
X134977143Y-102832819D02*
X135215238Y-102832819D01*
X135215238Y-102832819D02*
X135310476Y-102880438D01*
X135310476Y-102880438D02*
X135358095Y-102928057D01*
X135358095Y-102928057D02*
X135405714Y-103023295D01*
X135405714Y-103023295D02*
X135405714Y-103118533D01*
X135405714Y-103118533D02*
X135358095Y-103261390D01*
X135358095Y-103261390D02*
X134786667Y-103832819D01*
X134786667Y-103832819D02*
X135405714Y-103832819D01*
X142853580Y-103544666D02*
X142901200Y-103592285D01*
X142901200Y-103592285D02*
X142948819Y-103735142D01*
X142948819Y-103735142D02*
X142948819Y-103830380D01*
X142948819Y-103830380D02*
X142901200Y-103973237D01*
X142901200Y-103973237D02*
X142805961Y-104068475D01*
X142805961Y-104068475D02*
X142710723Y-104116094D01*
X142710723Y-104116094D02*
X142520247Y-104163713D01*
X142520247Y-104163713D02*
X142377390Y-104163713D01*
X142377390Y-104163713D02*
X142186914Y-104116094D01*
X142186914Y-104116094D02*
X142091676Y-104068475D01*
X142091676Y-104068475D02*
X141996438Y-103973237D01*
X141996438Y-103973237D02*
X141948819Y-103830380D01*
X141948819Y-103830380D02*
X141948819Y-103735142D01*
X141948819Y-103735142D02*
X141996438Y-103592285D01*
X141996438Y-103592285D02*
X142044057Y-103544666D01*
X142948819Y-102592285D02*
X142948819Y-103163713D01*
X142948819Y-102877999D02*
X141948819Y-102877999D01*
X141948819Y-102877999D02*
X142091676Y-102973237D01*
X142091676Y-102973237D02*
X142186914Y-103068475D01*
X142186914Y-103068475D02*
X142234533Y-103163713D01*
D11*
%TO.C,J5*%
X138222000Y-82126000D02*
X146942000Y-82126000D01*
X138222000Y-87546000D02*
X146942000Y-87546000D01*
X146942000Y-82126000D02*
X146942000Y-87546000D01*
X136522000Y-83426000D02*
X136522000Y-86246000D01*
X136522000Y-86246000D02*
X138222000Y-87546000D01*
X136522000Y-83426000D02*
X138222000Y-82126000D01*
D10*
%TO.C,U1*%
X137298000Y-99812000D02*
G75*
G03*
X136738000Y-99812000I-280000J0D01*
G01*
X136738000Y-99812000D02*
G75*
G03*
X137298000Y-99812000I280000J0D01*
G01*
X136538000Y-99032000D02*
G75*
G03*
X137018000Y-98552000I-1J480001D01*
G01*
X137017684Y-98555770D02*
G75*
G03*
X136478000Y-98012000I-499684J43770D01*
G01*
X141438000Y-100502000D02*
X141438000Y-96602000D01*
X136478000Y-98012000D02*
X136438000Y-97972000D01*
X136438000Y-100502000D02*
X141438000Y-100502000D01*
X136438000Y-100502000D02*
X136438000Y-99032000D01*
X136438000Y-99032000D02*
X136538000Y-99032000D01*
X136438000Y-97972000D02*
X136438000Y-97732000D01*
X136438000Y-97732000D02*
X136438000Y-96602000D01*
X136438000Y-96602000D02*
X141438000Y-96602000D01*
D11*
%TO.C,JP1*%
X158753000Y-79867000D02*
X155953000Y-79867000D01*
X155953000Y-79867000D02*
X155953000Y-77867000D01*
X155953000Y-77867000D02*
X158753000Y-77867000D01*
X158753000Y-77867000D02*
X158753000Y-79867000D01*
%TO.C,R1*%
X137143258Y-93330500D02*
X136668742Y-93330500D01*
X137143258Y-94375500D02*
X136668742Y-94375500D01*
D12*
%TO.C,L1*%
X147757000Y-97538000D02*
X154737000Y-97538000D01*
X147757000Y-98748000D02*
X147757000Y-97538000D01*
X147757000Y-104138000D02*
X147757000Y-102918000D01*
X147767000Y-104138000D02*
X147757000Y-104138000D01*
X154737000Y-97538000D02*
X154757000Y-97558000D01*
X154757000Y-97538000D02*
X154757000Y-98748000D01*
X154757000Y-102918000D02*
X154757000Y-104138000D01*
X154757000Y-104138000D02*
X147767000Y-104138000D01*
D11*
%TO.C,C7*%
X150776000Y-95638252D02*
X150776000Y-95115748D01*
X152246000Y-95638252D02*
X152246000Y-95115748D01*
%TO.C,C5*%
X145655420Y-100332000D02*
X145936580Y-100332000D01*
X145655420Y-99312000D02*
X145936580Y-99312000D01*
%TO.C,C2*%
X147318000Y-91453580D02*
X147318000Y-91172420D01*
X148338000Y-91453580D02*
X148338000Y-91172420D01*
%TO.C,J2*%
X129132000Y-85950000D02*
X130832000Y-85950000D01*
X129132000Y-76610000D02*
X130832000Y-76610000D01*
D13*
%TO.C,U2*%
X144516000Y-96884000D02*
X144516000Y-96794000D01*
X145036000Y-96884000D02*
X144516000Y-96884000D01*
X146486000Y-96884000D02*
X146046000Y-96884000D01*
X144516000Y-93984000D02*
X144516000Y-93884000D01*
X144516000Y-93884000D02*
X145056000Y-93884000D01*
X146076000Y-93884000D02*
X146516000Y-93884000D01*
X147516000Y-93884000D02*
X147516000Y-96884000D01*
X145016000Y-97094000D02*
G75*
G03*
X144816000Y-97094000I-100000J0D01*
G01*
X144816000Y-97094000D02*
G75*
G03*
X145016000Y-97094000I100000J0D01*
G01*
D11*
%TO.C,J3*%
X163730000Y-85950000D02*
X162030000Y-85950000D01*
X163730000Y-76610000D02*
X162030000Y-76610000D01*
%TO.C,C3*%
X145794000Y-91466580D02*
X145794000Y-91185420D01*
X146814000Y-91466580D02*
X146814000Y-91185420D01*
%TO.C,C8*%
X152808000Y-95638252D02*
X152808000Y-95115748D01*
X154278000Y-95638252D02*
X154278000Y-95115748D01*
%TO.C,R7*%
X143778500Y-91550258D02*
X143778500Y-91075742D01*
X142733500Y-91550258D02*
X142733500Y-91075742D01*
%TO.C,J4*%
X163730000Y-103730000D02*
X162030000Y-103730000D01*
X163730000Y-94390000D02*
X162030000Y-94390000D01*
%TO.C,R6*%
X142733500Y-96249258D02*
X142733500Y-95774742D01*
X143778500Y-96249258D02*
X143778500Y-95774742D01*
%TO.C,C4*%
X144270000Y-91453580D02*
X144270000Y-91172420D01*
X145290000Y-91453580D02*
X145290000Y-91172420D01*
%TO.C,C9*%
X154840000Y-95638252D02*
X154840000Y-95115748D01*
X156310000Y-95638252D02*
X156310000Y-95115748D01*
%TO.C,R3*%
X140191258Y-94375500D02*
X139716742Y-94375500D01*
X140191258Y-93330500D02*
X139716742Y-93330500D01*
%TO.C,C6*%
X148744000Y-95638252D02*
X148744000Y-95115748D01*
X150214000Y-95638252D02*
X150214000Y-95115748D01*
%TO.C,J1*%
X129132000Y-94390000D02*
X130832000Y-94390000D01*
X129132000Y-103730000D02*
X130832000Y-103730000D01*
%TO.C,R2*%
X136668742Y-102728500D02*
X137143258Y-102728500D01*
X136668742Y-103773500D02*
X137143258Y-103773500D01*
%TO.C,C1*%
X139813420Y-102741000D02*
X140094580Y-102741000D01*
X139813420Y-103761000D02*
X140094580Y-103761000D01*
%TD*%
%LPC*%
D14*
%TO.C,J5*%
X144232000Y-84836000D03*
D15*
X139232000Y-84836000D03*
%TD*%
D16*
%TO.C,U1*%
X138938000Y-98552000D03*
D17*
X136938000Y-95552000D03*
X137938000Y-95552000D03*
X138938000Y-95552000D03*
X139938000Y-95552000D03*
X140938000Y-95552000D03*
X140938000Y-101552000D03*
X139938000Y-101552000D03*
X138938000Y-101552000D03*
X137938000Y-101552000D03*
X136938000Y-101552000D03*
%TD*%
D18*
%TO.C,H2*%
X163830000Y-90170000D03*
%TD*%
%TO.C,H1*%
X129032000Y-90170000D03*
%TD*%
D19*
%TO.C,JP1*%
X156703000Y-78867000D03*
X158003000Y-78867000D03*
%TD*%
D20*
%TO.C,R1*%
X137731000Y-93853000D03*
X136081000Y-93853000D03*
%TD*%
D21*
%TO.C,L1*%
X148257000Y-100838000D03*
X154257000Y-100838000D03*
%TD*%
D22*
%TO.C,C7*%
X151511000Y-96327000D03*
X151511000Y-94427000D03*
%TD*%
D23*
%TO.C,C5*%
X146571000Y-99822000D03*
X145021000Y-99822000D03*
%TD*%
D24*
%TO.C,C2*%
X147828000Y-92088000D03*
X147828000Y-90538000D03*
%TD*%
D25*
%TO.C,J2*%
X127957000Y-85600000D03*
D26*
X132137000Y-85600000D03*
D25*
X127957000Y-76960000D03*
D26*
X132137000Y-76960000D03*
D27*
X132712000Y-78080000D03*
X132712000Y-78880000D03*
D28*
X132712000Y-79530000D03*
X132712000Y-80530000D03*
X132712000Y-82030000D03*
X132712000Y-83030000D03*
D27*
X132712000Y-83680000D03*
X132712000Y-84480000D03*
X132712000Y-84480000D03*
X132712000Y-83680000D03*
D28*
X132712000Y-82530000D03*
X132712000Y-81530000D03*
X132712000Y-81030000D03*
X132712000Y-80030000D03*
D27*
X132712000Y-78880000D03*
X132712000Y-78080000D03*
D29*
X131637000Y-84170000D03*
X131637000Y-78390000D03*
%TD*%
D30*
%TO.C,U2*%
X145346000Y-96874000D03*
D31*
X146371000Y-95299000D03*
D32*
X147221000Y-96424000D03*
D33*
X147046000Y-94234000D03*
D34*
X145796000Y-94234000D03*
X145346000Y-94234000D03*
D35*
X144646000Y-94264000D03*
X144646000Y-94714000D03*
X144646000Y-95164000D03*
X144646000Y-95614000D03*
X144646000Y-96064000D03*
X144646000Y-96514000D03*
%TD*%
D29*
%TO.C,J3*%
X161225000Y-84170000D03*
X161225000Y-78390000D03*
D36*
X160150000Y-84480000D03*
X160150000Y-83680000D03*
D37*
X160150000Y-82530000D03*
X160150000Y-81530000D03*
X160150000Y-81030000D03*
X160150000Y-80030000D03*
D36*
X160150000Y-78880000D03*
X160150000Y-78080000D03*
X160150000Y-78080000D03*
X160150000Y-78880000D03*
D37*
X160150000Y-79530000D03*
X160150000Y-80530000D03*
X160150000Y-82030000D03*
X160150000Y-83030000D03*
D36*
X160150000Y-83680000D03*
X160150000Y-84480000D03*
D26*
X160725000Y-85600000D03*
D25*
X164905000Y-85600000D03*
D26*
X160725000Y-76960000D03*
D25*
X164905000Y-76960000D03*
%TD*%
D24*
%TO.C,C3*%
X146304000Y-92101000D03*
X146304000Y-90551000D03*
%TD*%
D22*
%TO.C,C8*%
X153543000Y-96327000D03*
X153543000Y-94427000D03*
%TD*%
D38*
%TO.C,R7*%
X143256000Y-90488000D03*
X143256000Y-92138000D03*
%TD*%
D29*
%TO.C,J4*%
X161225000Y-101950000D03*
X161225000Y-96170000D03*
D36*
X160150000Y-102260000D03*
X160150000Y-101460000D03*
D37*
X160150000Y-100310000D03*
X160150000Y-99310000D03*
X160150000Y-98810000D03*
X160150000Y-97810000D03*
D36*
X160150000Y-96660000D03*
X160150000Y-95860000D03*
X160150000Y-95860000D03*
X160150000Y-96660000D03*
D37*
X160150000Y-97310000D03*
X160150000Y-98310000D03*
X160150000Y-99810000D03*
X160150000Y-100810000D03*
D36*
X160150000Y-101460000D03*
X160150000Y-102260000D03*
D26*
X160725000Y-103380000D03*
D25*
X164905000Y-103380000D03*
D26*
X160725000Y-94740000D03*
D25*
X164905000Y-94740000D03*
%TD*%
D38*
%TO.C,R6*%
X143256000Y-96837000D03*
X143256000Y-95187000D03*
%TD*%
D24*
%TO.C,C4*%
X144780000Y-92088000D03*
X144780000Y-90538000D03*
%TD*%
D22*
%TO.C,C9*%
X155575000Y-96327000D03*
X155575000Y-94427000D03*
%TD*%
D20*
%TO.C,R3*%
X140779000Y-93853000D03*
X139129000Y-93853000D03*
%TD*%
D22*
%TO.C,C6*%
X149479000Y-96327000D03*
X149479000Y-94427000D03*
%TD*%
D29*
%TO.C,J1*%
X131637000Y-96170000D03*
X131637000Y-101950000D03*
D27*
X132712000Y-95860000D03*
X132712000Y-96660000D03*
D28*
X132712000Y-97810000D03*
X132712000Y-98810000D03*
X132712000Y-99310000D03*
X132712000Y-100310000D03*
D27*
X132712000Y-101460000D03*
X132712000Y-102260000D03*
X132712000Y-102260000D03*
X132712000Y-101460000D03*
D28*
X132712000Y-100810000D03*
X132712000Y-99810000D03*
X132712000Y-98310000D03*
X132712000Y-97310000D03*
D27*
X132712000Y-96660000D03*
X132712000Y-95860000D03*
D26*
X132137000Y-94740000D03*
D25*
X127957000Y-94740000D03*
D26*
X132137000Y-103380000D03*
D25*
X127957000Y-103380000D03*
%TD*%
D39*
%TO.C,R2*%
X136081000Y-103251000D03*
X137731000Y-103251000D03*
%TD*%
D23*
%TO.C,C1*%
X139179000Y-103251000D03*
X140729000Y-103251000D03*
%TD*%
%LPD*%
M02*
