%TF.GenerationSoftware,KiCad,Pcbnew,7.0.10*%
%TF.CreationDate,2024-02-21T00:47:17-06:00*%
%TF.ProjectId,Power-Module,506f7765-722d-44d6-9f64-756c652e6b69,rev?*%
%TF.SameCoordinates,Original*%
%TF.FileFunction,Copper,L2,Bot*%
%TF.FilePolarity,Positive*%
%FSLAX46Y46*%
G04 Gerber Fmt 4.6, Leading zero omitted, Abs format (unit mm)*
G04 Created by KiCad (PCBNEW 7.0.10) date 2024-02-21 00:47:17*
%MOMM*%
%LPD*%
G01*
G04 APERTURE LIST*
%TA.AperFunction,ComponentPad*%
%ADD10C,4.000000*%
%TD*%
%TA.AperFunction,ComponentPad*%
%ADD11R,3.800000X3.800000*%
%TD*%
%TA.AperFunction,ComponentPad*%
%ADD12O,1.800000X1.000000*%
%TD*%
%TA.AperFunction,ComponentPad*%
%ADD13O,2.100000X1.000000*%
%TD*%
%TA.AperFunction,ViaPad*%
%ADD14C,0.600000*%
%TD*%
%TA.AperFunction,ViaPad*%
%ADD15C,0.800000*%
%TD*%
%TA.AperFunction,Conductor*%
%ADD16C,2.000000*%
%TD*%
%TA.AperFunction,Conductor*%
%ADD17C,1.500000*%
%TD*%
%TA.AperFunction,Conductor*%
%ADD18C,0.250000*%
%TD*%
%TA.AperFunction,Conductor*%
%ADD19C,0.241300*%
%TD*%
%TA.AperFunction,Conductor*%
%ADD20C,0.500000*%
%TD*%
G04 APERTURE END LIST*
D10*
%TO.P,J5,2,Pin_2*%
%TO.N,/Buck/Vin*%
X144232000Y-84836000D03*
D11*
%TO.P,J5,1,Pin_1*%
%TO.N,GND*%
X139232000Y-84836000D03*
%TD*%
D12*
%TO.P,J2,S1,SHIELD*%
%TO.N,GND*%
X127957000Y-85600000D03*
D13*
X132137000Y-85600000D03*
D12*
X127957000Y-76960000D03*
D13*
X132137000Y-76960000D03*
%TD*%
%TO.P,J3,S1,SHIELD*%
%TO.N,GND*%
X160725000Y-85600000D03*
D12*
X164905000Y-85600000D03*
D13*
X160725000Y-76960000D03*
D12*
X164905000Y-76960000D03*
%TD*%
D13*
%TO.P,J4,S1,SHIELD*%
%TO.N,GND*%
X160725000Y-103380000D03*
D12*
X164905000Y-103380000D03*
D13*
X160725000Y-94740000D03*
D12*
X164905000Y-94740000D03*
%TD*%
D13*
%TO.P,J1,S1,SHIELD*%
%TO.N,GND*%
X132137000Y-94740000D03*
D12*
X127957000Y-94740000D03*
D13*
X132137000Y-103380000D03*
D12*
X127957000Y-103380000D03*
%TD*%
D14*
%TO.N,/Buck/Vin*%
X135064500Y-92519500D03*
%TO.N,+5V*%
X134874000Y-82931000D03*
X134112000Y-82931000D03*
X134112000Y-83693000D03*
X134874000Y-83693000D03*
X134874000Y-79629000D03*
X134112000Y-79629000D03*
X134874000Y-78867000D03*
X134112000Y-78867000D03*
X152400000Y-102235000D03*
X151638000Y-97663000D03*
X142494000Y-98044000D03*
%TO.N,/Buck/Vin*%
X149606000Y-91948000D03*
X149606000Y-91186000D03*
X149606000Y-90424000D03*
X149606000Y-89662000D03*
X149606000Y-88900000D03*
%TO.N,+5V*%
X152273000Y-78994000D03*
X153035000Y-78994000D03*
X153797000Y-78994000D03*
X154559000Y-78994000D03*
X151638000Y-98425000D03*
X151638000Y-99187000D03*
X151638000Y-99949000D03*
X151638000Y-100711000D03*
X151638000Y-101473000D03*
X151638000Y-102235000D03*
%TO.N,/Buck/Vin*%
X134366000Y-101346000D03*
X134366000Y-100584000D03*
X134366000Y-96774000D03*
%TO.N,+5V*%
X158496000Y-101346000D03*
X158496000Y-100584000D03*
X158496000Y-97536000D03*
X158496000Y-96774000D03*
%TO.N,/USB_D+*%
X131572000Y-82296000D03*
X131572000Y-81026000D03*
D15*
%TO.N,Net-(J1-CC2)*%
X131445000Y-100838000D03*
X136318034Y-97298534D03*
%TO.N,GND*%
X142494000Y-89535000D03*
X144018000Y-89535000D03*
X145542000Y-89535000D03*
X147066000Y-89535000D03*
X155575000Y-93152000D03*
X153543000Y-93152000D03*
X154559000Y-93152000D03*
X156591000Y-93152000D03*
X145669000Y-98679000D03*
X145661570Y-97814162D03*
%TO.N,/Buck/Vin*%
X144806000Y-98171000D03*
%TO.N,Net-(U2-BS)*%
X143982000Y-99515000D03*
X144542534Y-93742534D03*
%TD*%
D16*
%TO.N,+5V*%
X134366000Y-78994000D02*
X152273000Y-78994000D01*
X134366000Y-83566000D02*
X134366000Y-78994000D01*
D17*
%TO.N,/Buck/Vin*%
X144232000Y-85514000D02*
X144232000Y-84836000D01*
X140592000Y-89154000D02*
X144232000Y-85514000D01*
X138430000Y-89154000D02*
X140592000Y-89154000D01*
X135064500Y-92519500D02*
X138430000Y-89154000D01*
X147066000Y-84836000D02*
X144232000Y-84836000D01*
X149606000Y-87376000D02*
X147066000Y-84836000D01*
X149606000Y-88900000D02*
X149606000Y-87376000D01*
D16*
%TO.N,+5V*%
X152273000Y-78994000D02*
X154559000Y-78994000D01*
X151638000Y-79629000D02*
X152273000Y-78994000D01*
X151638000Y-97663000D02*
X151638000Y-79629000D01*
D17*
%TO.N,/Buck/Vin*%
X135064500Y-92519500D02*
X134366000Y-93218000D01*
X134366000Y-93218000D02*
X134366000Y-96774000D01*
D18*
X148463000Y-93091000D02*
X149606000Y-91948000D01*
X144272000Y-93091000D02*
X148463000Y-93091000D01*
X143527000Y-98755932D02*
X143527000Y-93836000D01*
X143527000Y-93836000D02*
X144272000Y-93091000D01*
X143256000Y-99711068D02*
X143256000Y-99026932D01*
X143256000Y-99026932D02*
X143527000Y-98755932D01*
X143747932Y-100203000D02*
X143256000Y-99711068D01*
X144288068Y-100203000D02*
X143747932Y-100203000D01*
X144806000Y-98171000D02*
X144806000Y-99685068D01*
X144806000Y-99685068D02*
X144288068Y-100203000D01*
D16*
%TO.N,+5V*%
X152400000Y-102235000D02*
X151638000Y-102235000D01*
X157607000Y-102235000D02*
X152400000Y-102235000D01*
X158496000Y-101346000D02*
X157607000Y-102235000D01*
X158496000Y-96774000D02*
X158496000Y-101346000D01*
D18*
X144145000Y-102235000D02*
X151638000Y-102235000D01*
X142494000Y-100584000D02*
X144145000Y-102235000D01*
X142494000Y-98044000D02*
X142494000Y-100584000D01*
%TO.N,Net-(J1-CC2)*%
X136318034Y-101679966D02*
X136318034Y-97298534D01*
X133858000Y-102616000D02*
X135382000Y-102616000D01*
X132080000Y-100838000D02*
X133858000Y-102616000D01*
X131445000Y-100838000D02*
X132080000Y-100838000D01*
X135382000Y-102616000D02*
X136318034Y-101679966D01*
D17*
%TO.N,/Buck/Vin*%
X134366000Y-96774000D02*
X134366000Y-101346000D01*
X149606000Y-91948000D02*
X149606000Y-88900000D01*
D16*
%TO.N,+5V*%
X151638000Y-102235000D02*
X151638000Y-97663000D01*
D19*
%TO.N,/USB_D+*%
X131572000Y-82296000D02*
X131572000Y-81026000D01*
D20*
%TO.N,Net-(U2-BS)*%
X144029000Y-94256068D02*
X144542534Y-93742534D01*
X143982000Y-99515000D02*
X144029000Y-99468000D01*
X144029000Y-99468000D02*
X144029000Y-94256068D01*
%TD*%
%TA.AperFunction,Conductor*%
%TO.N,GND*%
G36*
X148590000Y-91948000D02*
G01*
X148705500Y-91948000D01*
X148705500Y-91995192D01*
X148720326Y-92136256D01*
X148720326Y-92136258D01*
X148720327Y-92136260D01*
X148778821Y-92316285D01*
X148779480Y-92317765D01*
X148779528Y-92318461D01*
X148780019Y-92319971D01*
X148779642Y-92320093D01*
X148783005Y-92368262D01*
X148764200Y-92400182D01*
X148370558Y-92793826D01*
X148324682Y-92815218D01*
X148318232Y-92815500D01*
X144306420Y-92815500D01*
X144291983Y-92814078D01*
X144272000Y-92810103D01*
X144271999Y-92810103D01*
X144244868Y-92815500D01*
X144244867Y-92815500D01*
X144228883Y-92818679D01*
X144164506Y-92831484D01*
X144164504Y-92831485D01*
X144122535Y-92859525D01*
X144122536Y-92859526D01*
X144096379Y-92877005D01*
X144096378Y-92877006D01*
X144096376Y-92877007D01*
X144088674Y-92882153D01*
X144073375Y-92892376D01*
X144073374Y-92892377D01*
X144062053Y-92909319D01*
X144052853Y-92920529D01*
X143356529Y-93616853D01*
X143345319Y-93626053D01*
X143328377Y-93637374D01*
X143328375Y-93637376D01*
X143267485Y-93728505D01*
X143252077Y-93805967D01*
X143246103Y-93836000D01*
X143250078Y-93855983D01*
X143251500Y-93870420D01*
X143251500Y-98611163D01*
X143234187Y-98658729D01*
X143229826Y-98663489D01*
X143085529Y-98807785D01*
X143074319Y-98816985D01*
X143057377Y-98828306D01*
X143057376Y-98828307D01*
X143047198Y-98843538D01*
X143042007Y-98851308D01*
X143042006Y-98851310D01*
X143042004Y-98851313D01*
X143042003Y-98851312D01*
X143033911Y-98863425D01*
X143033910Y-98863427D01*
X142996485Y-98919437D01*
X142984703Y-98978670D01*
X142975103Y-99026932D01*
X142979078Y-99046915D01*
X142980500Y-99061352D01*
X142980500Y-99676647D01*
X142979078Y-99691083D01*
X142975103Y-99711068D01*
X142980500Y-99738200D01*
X142980500Y-99738201D01*
X142996485Y-99818563D01*
X143053716Y-99904215D01*
X143057377Y-99909693D01*
X143074314Y-99921010D01*
X143085529Y-99930213D01*
X143528786Y-100373470D01*
X143537988Y-100384683D01*
X143549307Y-100401623D01*
X143549308Y-100401624D01*
X143569283Y-100414971D01*
X143569287Y-100414974D01*
X143569288Y-100414974D01*
X143572308Y-100416992D01*
X143572310Y-100416994D01*
X143598466Y-100434471D01*
X143640437Y-100462515D01*
X143720799Y-100478500D01*
X143720800Y-100478500D01*
X143747931Y-100483897D01*
X143747932Y-100483897D01*
X143767915Y-100479921D01*
X143782352Y-100478500D01*
X144253648Y-100478500D01*
X144268084Y-100479921D01*
X144288068Y-100483897D01*
X144288069Y-100483897D01*
X144292690Y-100482977D01*
X144315200Y-100478500D01*
X144315201Y-100478500D01*
X144395563Y-100462515D01*
X144437533Y-100434471D01*
X144463690Y-100416994D01*
X144463691Y-100416992D01*
X144486692Y-100401624D01*
X144498016Y-100384674D01*
X144507209Y-100373473D01*
X144976472Y-99904210D01*
X144987676Y-99895015D01*
X145004624Y-99883692D01*
X145024701Y-99853646D01*
X145065515Y-99792563D01*
X145076328Y-99738201D01*
X145081500Y-99712201D01*
X145081500Y-99712196D01*
X145086896Y-99685068D01*
X145082922Y-99665088D01*
X145081500Y-99650652D01*
X145081500Y-98689984D01*
X145098813Y-98642418D01*
X145110447Y-98631278D01*
X145198621Y-98563621D01*
X145286861Y-98448625D01*
X145342330Y-98314709D01*
X145361250Y-98171000D01*
X145342330Y-98027291D01*
X145286861Y-97893375D01*
X145198621Y-97778379D01*
X145083625Y-97690139D01*
X145080180Y-97688712D01*
X144949708Y-97634669D01*
X144806000Y-97615750D01*
X144662291Y-97634669D01*
X144531818Y-97688712D01*
X144481247Y-97690920D01*
X144441089Y-97660104D01*
X144429500Y-97620345D01*
X144429500Y-94452612D01*
X144446813Y-94405046D01*
X144451164Y-94400295D01*
X144537605Y-94313854D01*
X144580268Y-94292815D01*
X144686243Y-94278864D01*
X144820159Y-94223395D01*
X144935155Y-94135155D01*
X145023395Y-94020159D01*
X145078864Y-93886243D01*
X145097784Y-93742534D01*
X145078864Y-93598825D01*
X145025013Y-93468817D01*
X145022806Y-93418247D01*
X145053621Y-93378089D01*
X145093381Y-93366500D01*
X148428580Y-93366500D01*
X148443016Y-93367921D01*
X148463000Y-93371897D01*
X148463001Y-93371897D01*
X148467622Y-93370977D01*
X148490132Y-93366500D01*
X148490133Y-93366500D01*
X148570495Y-93350515D01*
X148612465Y-93322471D01*
X148638622Y-93304994D01*
X148638623Y-93304992D01*
X148646637Y-93299638D01*
X148646638Y-93299636D01*
X148661624Y-93289624D01*
X148672944Y-93272681D01*
X148682141Y-93261474D01*
X149157575Y-92786040D01*
X149203449Y-92764649D01*
X149239996Y-92770764D01*
X149326197Y-92809144D01*
X149511354Y-92848500D01*
X149511355Y-92848500D01*
X149700645Y-92848500D01*
X149700646Y-92848500D01*
X149885803Y-92809144D01*
X150058730Y-92732151D01*
X150211871Y-92620888D01*
X150338533Y-92480216D01*
X150349414Y-92461368D01*
X150388189Y-92428832D01*
X150438808Y-92428831D01*
X150477585Y-92461368D01*
X150487500Y-92498369D01*
X150487500Y-101885500D01*
X150470187Y-101933066D01*
X150426350Y-101958376D01*
X150413500Y-101959500D01*
X144289768Y-101959500D01*
X144242202Y-101942187D01*
X144237442Y-101937826D01*
X142791174Y-100491558D01*
X142769782Y-100445682D01*
X142769500Y-100439232D01*
X142769500Y-98441300D01*
X142786813Y-98393734D01*
X142788801Y-98391714D01*
X142792046Y-98387968D01*
X142792049Y-98387967D01*
X142876882Y-98290063D01*
X142930697Y-98172226D01*
X142949133Y-98044000D01*
X142930697Y-97915774D01*
X142876882Y-97797937D01*
X142792049Y-97700033D01*
X142690342Y-97634670D01*
X142683068Y-97629995D01*
X142558772Y-97593500D01*
X142429228Y-97593500D01*
X142304931Y-97629995D01*
X142195954Y-97700031D01*
X142195950Y-97700034D01*
X142111119Y-97797935D01*
X142057302Y-97915776D01*
X142038867Y-98044000D01*
X142057302Y-98172223D01*
X142057302Y-98172224D01*
X142057303Y-98172226D01*
X142111118Y-98290063D01*
X142195951Y-98387967D01*
X142195952Y-98387968D01*
X142199417Y-98391966D01*
X142197532Y-98393598D01*
X142217568Y-98429595D01*
X142218500Y-98441300D01*
X142218500Y-100549579D01*
X142217078Y-100564015D01*
X142213103Y-100583999D01*
X142213103Y-100584000D01*
X142218500Y-100611132D01*
X142234485Y-100691495D01*
X142295377Y-100782625D01*
X142312314Y-100793942D01*
X142323529Y-100803145D01*
X143925854Y-102405470D01*
X143935056Y-102416683D01*
X143946375Y-102433623D01*
X143946376Y-102433624D01*
X143966351Y-102446971D01*
X143966355Y-102446974D01*
X144037506Y-102494516D01*
X144144999Y-102515897D01*
X144145000Y-102515897D01*
X144145001Y-102515897D01*
X144164985Y-102511922D01*
X144179421Y-102510500D01*
X150460221Y-102510500D01*
X150507787Y-102527813D01*
X150529224Y-102557769D01*
X150544739Y-102597820D01*
X150546911Y-102604298D01*
X150555890Y-102635856D01*
X150560595Y-102652389D01*
X150582881Y-102697146D01*
X150585636Y-102703385D01*
X150603702Y-102750019D01*
X150630021Y-102792525D01*
X150633347Y-102798496D01*
X150655634Y-102843256D01*
X150655636Y-102843258D01*
X150685763Y-102883152D01*
X150689625Y-102888790D01*
X150715948Y-102931302D01*
X150732058Y-102948974D01*
X150749638Y-102968259D01*
X150753996Y-102973507D01*
X150784128Y-103013407D01*
X150802039Y-103029735D01*
X150821076Y-103047090D01*
X150825904Y-103051918D01*
X150859593Y-103088872D01*
X150899494Y-103119004D01*
X150904737Y-103123357D01*
X150941698Y-103157052D01*
X150941702Y-103157054D01*
X150941705Y-103157057D01*
X150984206Y-103183372D01*
X150989830Y-103187223D01*
X151029745Y-103217366D01*
X151074510Y-103239656D01*
X151080463Y-103242971D01*
X151122981Y-103269298D01*
X151169606Y-103287360D01*
X151175851Y-103290117D01*
X151220611Y-103312405D01*
X151253016Y-103321625D01*
X151268695Y-103326086D01*
X151275169Y-103328255D01*
X151321802Y-103346321D01*
X151370968Y-103355511D01*
X151377572Y-103357064D01*
X151425690Y-103370756D01*
X151425701Y-103370757D01*
X151475473Y-103375369D01*
X151482245Y-103376313D01*
X151531390Y-103385500D01*
X151584806Y-103385500D01*
X152346806Y-103385500D01*
X157099000Y-103385500D01*
X157099000Y-104267000D01*
X141986000Y-104267000D01*
X141986000Y-89033499D01*
X142119499Y-88900000D01*
X148590000Y-88900000D01*
X148590000Y-91948000D01*
G37*
%TD.AperFunction*%
%TA.AperFunction,Conductor*%
G36*
X157099000Y-101084500D02*
G01*
X152862500Y-101084500D01*
X152814934Y-101067187D01*
X152789624Y-101023350D01*
X152788500Y-101010500D01*
X152788500Y-91948000D01*
X157099000Y-91948000D01*
X157099000Y-101084500D01*
G37*
%TD.AperFunction*%
%TD*%
%TA.AperFunction,Conductor*%
%TO.N,GND*%
G36*
X131985669Y-101138129D02*
G01*
X132003826Y-101151442D01*
X133215823Y-102363439D01*
X133237215Y-102409315D01*
X133224114Y-102458210D01*
X133182650Y-102487244D01*
X133134315Y-102483768D01*
X132987911Y-102420941D01*
X132987901Y-102420938D01*
X132788696Y-102380000D01*
X132387000Y-102380000D01*
X132387000Y-103080000D01*
X131887000Y-103080000D01*
X131887000Y-102451909D01*
X131904313Y-102404343D01*
X131914295Y-102394510D01*
X132020467Y-102308134D01*
X132102871Y-102191395D01*
X132150722Y-102056753D01*
X132154675Y-101998975D01*
X132160474Y-101914193D01*
X132135729Y-101795117D01*
X132131401Y-101774290D01*
X132065662Y-101647418D01*
X132065661Y-101647416D01*
X132005279Y-101582764D01*
X131968130Y-101542987D01*
X131846040Y-101468742D01*
X131787917Y-101452456D01*
X131754995Y-101443232D01*
X131713864Y-101413727D01*
X131701321Y-101364687D01*
X131723235Y-101319057D01*
X131729906Y-101313274D01*
X131837621Y-101230621D01*
X131892793Y-101158718D01*
X131935483Y-101131522D01*
X131985669Y-101138129D01*
G37*
%TD.AperFunction*%
%TA.AperFunction,Conductor*%
G36*
X146709915Y-85753813D02*
G01*
X146714675Y-85758174D01*
X148683826Y-87727325D01*
X148705218Y-87773201D01*
X148705500Y-87779651D01*
X148705500Y-88852808D01*
X148705500Y-91948000D01*
X148590000Y-91948000D01*
X148590000Y-88900000D01*
X142119497Y-88900000D01*
X144013281Y-87006216D01*
X144059156Y-86984825D01*
X144075683Y-86985232D01*
X144084902Y-86986500D01*
X144084909Y-86986500D01*
X144379091Y-86986500D01*
X144379098Y-86986500D01*
X144670555Y-86946440D01*
X144953841Y-86867067D01*
X145223682Y-86749859D01*
X145475049Y-86596999D01*
X145703260Y-86411335D01*
X145904065Y-86196326D01*
X146073722Y-85955976D01*
X146166743Y-85776455D01*
X146203998Y-85742187D01*
X146232446Y-85736500D01*
X146662349Y-85736500D01*
X146709915Y-85753813D01*
G37*
%TD.AperFunction*%
%TA.AperFunction,Conductor*%
G36*
X166084851Y-75692502D02*
G01*
X166113364Y-75692502D01*
X166118642Y-75692690D01*
X166185625Y-75697481D01*
X166185740Y-75697490D01*
X166335426Y-75709271D01*
X166345332Y-75710731D01*
X166439787Y-75731278D01*
X166441213Y-75731605D01*
X166558621Y-75759792D01*
X166567184Y-75762406D01*
X166662929Y-75798118D01*
X166665387Y-75799085D01*
X166771711Y-75843126D01*
X166778856Y-75846544D01*
X166870463Y-75896565D01*
X166873624Y-75898395D01*
X166969986Y-75957446D01*
X166975642Y-75961283D01*
X167059929Y-76024380D01*
X167063625Y-76027337D01*
X167148958Y-76100219D01*
X167153225Y-76104163D01*
X167227843Y-76178781D01*
X167231787Y-76183048D01*
X167304648Y-76268358D01*
X167307618Y-76272070D01*
X167370712Y-76356352D01*
X167374568Y-76362035D01*
X167433595Y-76458360D01*
X167435447Y-76461559D01*
X167485456Y-76553143D01*
X167488875Y-76560290D01*
X167532899Y-76666575D01*
X167533866Y-76669032D01*
X167569594Y-76764819D01*
X167572215Y-76773405D01*
X167600360Y-76890639D01*
X167600714Y-76892184D01*
X167621269Y-76986674D01*
X167622732Y-76996598D01*
X167634483Y-77145909D01*
X167634522Y-77146435D01*
X167638501Y-77202074D01*
X167639207Y-77211940D01*
X167639311Y-77213386D01*
X167639500Y-77218666D01*
X167639500Y-103121363D01*
X167639311Y-103126643D01*
X167634538Y-103193368D01*
X167634499Y-103193894D01*
X167622733Y-103343404D01*
X167621270Y-103353327D01*
X167600717Y-103447810D01*
X167600363Y-103449356D01*
X167572215Y-103566600D01*
X167569594Y-103575186D01*
X167533867Y-103670973D01*
X167532900Y-103673430D01*
X167488882Y-103779700D01*
X167485463Y-103786846D01*
X167435439Y-103878459D01*
X167433586Y-103881660D01*
X167374573Y-103977959D01*
X167370718Y-103983641D01*
X167307605Y-104067948D01*
X167304635Y-104071660D01*
X167231805Y-104156934D01*
X167227861Y-104161201D01*
X167153201Y-104235861D01*
X167148934Y-104239805D01*
X167063665Y-104312631D01*
X167059954Y-104315600D01*
X166975640Y-104378719D01*
X166969956Y-104382576D01*
X166873667Y-104441581D01*
X166870467Y-104443433D01*
X166778849Y-104493460D01*
X166771704Y-104496879D01*
X166665397Y-104540913D01*
X166662938Y-104541880D01*
X166567193Y-104577591D01*
X166558608Y-104580212D01*
X166441275Y-104608381D01*
X166439729Y-104608735D01*
X166345341Y-104629267D01*
X166335418Y-104630730D01*
X166185906Y-104642497D01*
X166185379Y-104642536D01*
X166118642Y-104647309D01*
X166113363Y-104647498D01*
X126748636Y-104647498D01*
X126743358Y-104647309D01*
X126733357Y-104646593D01*
X126676630Y-104642536D01*
X126676104Y-104642497D01*
X126526593Y-104630731D01*
X126516669Y-104629268D01*
X126422192Y-104608716D01*
X126420647Y-104608362D01*
X126303404Y-104580215D01*
X126294818Y-104577594D01*
X126199025Y-104541864D01*
X126196567Y-104540897D01*
X126090296Y-104496878D01*
X126083151Y-104493459D01*
X125991538Y-104443435D01*
X125988337Y-104441582D01*
X125892038Y-104382570D01*
X125886356Y-104378715D01*
X125802050Y-104315603D01*
X125798338Y-104312633D01*
X125713064Y-104239803D01*
X125708797Y-104235859D01*
X125634138Y-104161200D01*
X125630194Y-104156933D01*
X125557364Y-104071659D01*
X125554394Y-104067947D01*
X125530812Y-104036446D01*
X125491272Y-103983627D01*
X125487443Y-103977984D01*
X125428391Y-103881620D01*
X125426566Y-103878465D01*
X125376539Y-103786847D01*
X125373124Y-103779711D01*
X125329076Y-103673370D01*
X125328134Y-103670973D01*
X125312852Y-103630000D01*
X126583633Y-103630000D01*
X126583930Y-103631940D01*
X126583931Y-103631945D01*
X126654565Y-103822665D01*
X126762144Y-103995260D01*
X126902268Y-104142671D01*
X127069198Y-104258857D01*
X127256088Y-104339058D01*
X127256098Y-104339061D01*
X127455303Y-104379999D01*
X127455311Y-104380000D01*
X127707000Y-104380000D01*
X127707000Y-103680000D01*
X128207000Y-103680000D01*
X128207000Y-104380000D01*
X128407711Y-104380000D01*
X128407719Y-104379999D01*
X128559333Y-104364582D01*
X128559338Y-104364580D01*
X128753384Y-104303699D01*
X128753385Y-104303698D01*
X128931217Y-104204993D01*
X128931222Y-104204989D01*
X129085528Y-104072522D01*
X129085531Y-104072520D01*
X129210017Y-103911696D01*
X129210019Y-103911694D01*
X129299586Y-103729097D01*
X129299588Y-103729092D01*
X129325246Y-103630000D01*
X130613633Y-103630000D01*
X130613930Y-103631940D01*
X130613931Y-103631945D01*
X130684565Y-103822665D01*
X130792144Y-103995260D01*
X130932268Y-104142671D01*
X131099198Y-104258857D01*
X131286088Y-104339058D01*
X131286098Y-104339061D01*
X131485303Y-104379999D01*
X131485311Y-104380000D01*
X131887000Y-104380000D01*
X131887000Y-103680000D01*
X132387000Y-103680000D01*
X132387000Y-104380000D01*
X132737711Y-104380000D01*
X132737719Y-104379999D01*
X132889333Y-104364582D01*
X132889338Y-104364580D01*
X133083384Y-104303699D01*
X133083385Y-104303698D01*
X133261217Y-104204993D01*
X133261222Y-104204989D01*
X133415528Y-104072522D01*
X133415531Y-104072520D01*
X133540017Y-103911696D01*
X133540019Y-103911694D01*
X133629586Y-103729097D01*
X133629588Y-103729092D01*
X133655246Y-103630000D01*
X132853111Y-103630000D01*
X132892610Y-103605543D01*
X132960201Y-103516038D01*
X132990895Y-103408160D01*
X132980546Y-103296479D01*
X132930552Y-103196078D01*
X132858069Y-103130000D01*
X133660367Y-103130000D01*
X133660069Y-103128059D01*
X133660068Y-103128054D01*
X133589433Y-102937332D01*
X133587782Y-102933965D01*
X133589058Y-102933338D01*
X133579668Y-102888952D01*
X133603475Y-102844281D01*
X133650426Y-102825364D01*
X133694046Y-102837790D01*
X133702223Y-102843253D01*
X133702224Y-102843255D01*
X133702225Y-102843255D01*
X133750505Y-102875515D01*
X133830867Y-102891500D01*
X133830868Y-102891500D01*
X133857999Y-102896897D01*
X133858000Y-102896897D01*
X133877984Y-102892921D01*
X133892420Y-102891500D01*
X135347580Y-102891500D01*
X135362016Y-102892921D01*
X135382000Y-102896897D01*
X135382001Y-102896897D01*
X135386622Y-102895977D01*
X135409132Y-102891500D01*
X135409133Y-102891500D01*
X135489495Y-102875515D01*
X135537775Y-102843255D01*
X135557622Y-102829994D01*
X135557623Y-102829992D01*
X135580624Y-102814624D01*
X135591948Y-102797674D01*
X135601141Y-102786473D01*
X136488507Y-101899107D01*
X136499710Y-101889913D01*
X136516658Y-101878590D01*
X136577549Y-101787461D01*
X136593534Y-101707099D01*
X136593534Y-101707098D01*
X136598931Y-101679966D01*
X136594956Y-101659981D01*
X136593534Y-101645545D01*
X136593534Y-97817518D01*
X136610847Y-97769952D01*
X136622481Y-97758812D01*
X136710655Y-97691155D01*
X136798895Y-97576159D01*
X136854364Y-97442243D01*
X136873284Y-97298534D01*
X136854364Y-97154825D01*
X136798895Y-97020909D01*
X136710655Y-96905913D01*
X136595659Y-96817673D01*
X136595657Y-96817672D01*
X136461742Y-96762203D01*
X136318034Y-96743284D01*
X136174325Y-96762203D01*
X136040410Y-96817672D01*
X135925413Y-96905913D01*
X135837172Y-97020910D01*
X135781703Y-97154825D01*
X135762784Y-97298534D01*
X135781703Y-97442242D01*
X135837172Y-97576157D01*
X135837173Y-97576159D01*
X135925413Y-97691155D01*
X136013583Y-97758811D01*
X136040780Y-97801502D01*
X136042534Y-97817518D01*
X136042534Y-101535198D01*
X136025221Y-101582764D01*
X136020860Y-101587524D01*
X135289558Y-102318826D01*
X135243682Y-102340218D01*
X135237232Y-102340500D01*
X134694424Y-102340500D01*
X134646858Y-102323187D01*
X134621548Y-102279350D01*
X134630338Y-102229500D01*
X134664325Y-102198898D01*
X134818728Y-102130152D01*
X134818733Y-102130149D01*
X134914528Y-102060550D01*
X134971871Y-102018888D01*
X135098533Y-101878216D01*
X135193179Y-101714284D01*
X135251674Y-101534256D01*
X135266500Y-101393192D01*
X135266500Y-96726808D01*
X135266500Y-93621651D01*
X135283813Y-93574085D01*
X135288174Y-93569325D01*
X135506985Y-93350514D01*
X135734619Y-93122880D01*
X135734618Y-93122880D01*
X138781326Y-90076174D01*
X138827203Y-90054782D01*
X138833652Y-90054500D01*
X140515306Y-90054500D01*
X140526882Y-90055410D01*
X140544612Y-90058219D01*
X140613654Y-90054601D01*
X140617527Y-90054500D01*
X140639187Y-90054500D01*
X140639192Y-90054500D01*
X140660765Y-90052232D01*
X140664588Y-90051931D01*
X140733646Y-90048313D01*
X140750988Y-90043665D01*
X140762410Y-90041549D01*
X140763935Y-90041388D01*
X140780256Y-90039674D01*
X140846024Y-90018304D01*
X140849687Y-90017219D01*
X140916488Y-89999320D01*
X140932486Y-89991167D01*
X140943203Y-89986727D01*
X140960284Y-89981179D01*
X141020193Y-89946588D01*
X141023505Y-89944790D01*
X141085149Y-89913383D01*
X141099095Y-89902088D01*
X141108671Y-89895507D01*
X141109187Y-89895208D01*
X141124216Y-89886533D01*
X141175608Y-89840258D01*
X141178541Y-89837755D01*
X141182801Y-89834304D01*
X141195380Y-89824119D01*
X141210733Y-89808764D01*
X141213486Y-89806152D01*
X141264888Y-89759871D01*
X141275444Y-89745340D01*
X141282975Y-89736522D01*
X141986000Y-89033497D01*
X141986000Y-104267000D01*
X157099000Y-104267000D01*
X157099000Y-103630000D01*
X159201633Y-103630000D01*
X159201930Y-103631940D01*
X159201931Y-103631945D01*
X159272565Y-103822665D01*
X159380144Y-103995260D01*
X159520268Y-104142671D01*
X159687198Y-104258857D01*
X159874088Y-104339058D01*
X159874098Y-104339061D01*
X160073303Y-104379999D01*
X160073311Y-104380000D01*
X160475000Y-104380000D01*
X160475000Y-103680000D01*
X160975000Y-103680000D01*
X160975000Y-104380000D01*
X161325711Y-104380000D01*
X161325719Y-104379999D01*
X161477333Y-104364582D01*
X161477338Y-104364580D01*
X161671384Y-104303699D01*
X161671385Y-104303698D01*
X161849217Y-104204993D01*
X161849222Y-104204989D01*
X162003528Y-104072522D01*
X162003531Y-104072520D01*
X162128017Y-103911696D01*
X162128019Y-103911694D01*
X162217586Y-103729097D01*
X162217588Y-103729092D01*
X162243246Y-103630000D01*
X163531633Y-103630000D01*
X163531930Y-103631940D01*
X163531931Y-103631945D01*
X163602565Y-103822665D01*
X163710144Y-103995260D01*
X163850268Y-104142671D01*
X164017198Y-104258857D01*
X164204088Y-104339058D01*
X164204098Y-104339061D01*
X164403303Y-104379999D01*
X164403311Y-104380000D01*
X164655000Y-104380000D01*
X164655000Y-103680000D01*
X165155000Y-103680000D01*
X165155000Y-104380000D01*
X165355711Y-104380000D01*
X165355719Y-104379999D01*
X165507333Y-104364582D01*
X165507338Y-104364580D01*
X165701384Y-104303699D01*
X165701385Y-104303698D01*
X165879217Y-104204993D01*
X165879222Y-104204989D01*
X166033528Y-104072522D01*
X166033531Y-104072520D01*
X166158017Y-103911696D01*
X166158019Y-103911694D01*
X166247586Y-103729097D01*
X166247588Y-103729092D01*
X166273246Y-103630000D01*
X165471111Y-103630000D01*
X165510610Y-103605543D01*
X165578201Y-103516038D01*
X165608895Y-103408160D01*
X165598546Y-103296479D01*
X165548552Y-103196078D01*
X165476069Y-103130000D01*
X166278367Y-103130000D01*
X166278069Y-103128059D01*
X166278068Y-103128054D01*
X166207434Y-102937334D01*
X166099855Y-102764739D01*
X165959731Y-102617328D01*
X165792801Y-102501142D01*
X165605911Y-102420941D01*
X165605901Y-102420938D01*
X165406696Y-102380000D01*
X165155000Y-102380000D01*
X165155000Y-103080000D01*
X164655000Y-103080000D01*
X164655000Y-102380000D01*
X164454280Y-102380000D01*
X164302666Y-102395417D01*
X164302661Y-102395419D01*
X164108615Y-102456300D01*
X164108614Y-102456301D01*
X163930782Y-102555006D01*
X163930777Y-102555010D01*
X163776471Y-102687477D01*
X163776468Y-102687479D01*
X163651982Y-102848303D01*
X163651980Y-102848305D01*
X163562413Y-103030902D01*
X163562411Y-103030907D01*
X163536754Y-103130000D01*
X164338889Y-103130000D01*
X164299390Y-103154457D01*
X164231799Y-103243962D01*
X164201105Y-103351840D01*
X164211454Y-103463521D01*
X164261448Y-103563922D01*
X164333931Y-103630000D01*
X163531633Y-103630000D01*
X162243246Y-103630000D01*
X161441111Y-103630000D01*
X161480610Y-103605543D01*
X161548201Y-103516038D01*
X161578895Y-103408160D01*
X161568546Y-103296479D01*
X161518552Y-103196078D01*
X161446069Y-103130000D01*
X162248367Y-103130000D01*
X162248069Y-103128059D01*
X162248068Y-103128054D01*
X162177434Y-102937334D01*
X162069855Y-102764739D01*
X161929731Y-102617328D01*
X161762803Y-102501143D01*
X161618830Y-102439359D01*
X161581946Y-102404691D01*
X161575976Y-102354425D01*
X161601315Y-102313952D01*
X161608467Y-102308134D01*
X161690871Y-102191395D01*
X161738722Y-102056753D01*
X161742675Y-101998975D01*
X161748474Y-101914193D01*
X161723729Y-101795117D01*
X161719401Y-101774290D01*
X161653662Y-101647418D01*
X161653661Y-101647416D01*
X161593279Y-101582764D01*
X161556130Y-101542987D01*
X161434040Y-101468742D01*
X161296447Y-101430190D01*
X161296446Y-101430190D01*
X161189444Y-101430190D01*
X161189438Y-101430190D01*
X161083441Y-101444759D01*
X161083439Y-101444759D01*
X161083438Y-101444760D01*
X161078408Y-101446945D01*
X160952375Y-101501689D01*
X160841531Y-101591867D01*
X160759132Y-101708600D01*
X160759127Y-101708608D01*
X160711279Y-101843243D01*
X160711276Y-101843255D01*
X160701525Y-101985805D01*
X160730598Y-102125708D01*
X160796337Y-102252581D01*
X160796338Y-102252583D01*
X160878448Y-102340500D01*
X160893870Y-102357013D01*
X160939449Y-102384730D01*
X160971095Y-102424237D01*
X160975000Y-102447957D01*
X160975000Y-103080000D01*
X160475000Y-103080000D01*
X160475000Y-102380000D01*
X160124280Y-102380000D01*
X159972666Y-102395417D01*
X159972661Y-102395419D01*
X159778615Y-102456300D01*
X159778614Y-102456301D01*
X159600782Y-102555006D01*
X159600777Y-102555010D01*
X159446471Y-102687477D01*
X159446468Y-102687479D01*
X159321982Y-102848303D01*
X159321980Y-102848305D01*
X159232413Y-103030902D01*
X159232411Y-103030907D01*
X159206754Y-103130000D01*
X160008889Y-103130000D01*
X159969390Y-103154457D01*
X159901799Y-103243962D01*
X159871105Y-103351840D01*
X159881454Y-103463521D01*
X159931448Y-103563922D01*
X160003931Y-103630000D01*
X159201633Y-103630000D01*
X157099000Y-103630000D01*
X157099000Y-103385500D01*
X157578708Y-103385500D01*
X157582125Y-103385579D01*
X157660361Y-103389196D01*
X157660361Y-103389195D01*
X157660362Y-103389196D01*
X157737932Y-103378375D01*
X157741317Y-103377982D01*
X157819310Y-103370756D01*
X157840095Y-103364841D01*
X157850121Y-103362725D01*
X157871536Y-103359739D01*
X157945812Y-103334843D01*
X157949079Y-103333832D01*
X158024383Y-103312407D01*
X158024384Y-103312406D01*
X158024389Y-103312405D01*
X158043747Y-103302764D01*
X158053196Y-103298850D01*
X158073702Y-103291979D01*
X158142171Y-103253841D01*
X158145097Y-103252299D01*
X158215255Y-103217366D01*
X158232504Y-103204338D01*
X158241080Y-103198750D01*
X158259975Y-103188227D01*
X158320270Y-103138157D01*
X158322905Y-103136071D01*
X158385407Y-103088872D01*
X158438203Y-103030956D01*
X158440500Y-103028551D01*
X159289541Y-102179509D01*
X159291967Y-102177192D01*
X159349872Y-102124407D01*
X159397067Y-102061910D01*
X159399174Y-102059249D01*
X159449227Y-101998975D01*
X159459750Y-101980080D01*
X159465338Y-101971504D01*
X159478366Y-101954255D01*
X159513299Y-101884097D01*
X159514841Y-101881171D01*
X159552979Y-101812702D01*
X159559850Y-101792196D01*
X159563764Y-101782747D01*
X159573405Y-101763389D01*
X159589421Y-101707099D01*
X159594832Y-101688079D01*
X159595843Y-101684812D01*
X159604166Y-101659981D01*
X159620739Y-101610536D01*
X159623725Y-101589121D01*
X159625842Y-101579091D01*
X159629610Y-101565850D01*
X159631756Y-101558310D01*
X159638982Y-101480317D01*
X159639376Y-101476925D01*
X159640518Y-101468743D01*
X159650196Y-101399362D01*
X159649911Y-101393192D01*
X159646579Y-101321124D01*
X159646500Y-101317707D01*
X159646500Y-96720808D01*
X159646499Y-96720799D01*
X159631757Y-96561696D01*
X159631756Y-96561690D01*
X159606402Y-96472581D01*
X159573405Y-96356611D01*
X159533642Y-96276756D01*
X159478367Y-96165747D01*
X159478363Y-96165741D01*
X159400959Y-96063243D01*
X159349872Y-95995593D01*
X159192302Y-95851948D01*
X159011019Y-95739702D01*
X158854250Y-95678970D01*
X158812201Y-95662680D01*
X158812200Y-95662679D01*
X158812198Y-95662679D01*
X158720150Y-95645472D01*
X158602613Y-95623500D01*
X158602610Y-95623500D01*
X158389390Y-95623500D01*
X158389386Y-95623500D01*
X158246612Y-95650190D01*
X158179802Y-95662679D01*
X158179800Y-95662679D01*
X158179798Y-95662680D01*
X158017659Y-95725493D01*
X157980981Y-95739702D01*
X157980976Y-95739704D01*
X157980976Y-95739705D01*
X157799700Y-95851946D01*
X157642130Y-95995590D01*
X157513636Y-96165741D01*
X157513632Y-96165747D01*
X157418596Y-96356606D01*
X157418593Y-96356616D01*
X157360243Y-96561690D01*
X157360242Y-96561696D01*
X157345500Y-96720799D01*
X157345500Y-100838795D01*
X157328187Y-100886361D01*
X157323826Y-100891121D01*
X157152121Y-101062826D01*
X157106245Y-101084218D01*
X157099795Y-101084500D01*
X157099000Y-101084500D01*
X157099000Y-94990000D01*
X159201633Y-94990000D01*
X159201930Y-94991940D01*
X159201931Y-94991945D01*
X159272565Y-95182665D01*
X159380144Y-95355260D01*
X159520268Y-95502671D01*
X159687198Y-95618857D01*
X159874088Y-95699058D01*
X159874098Y-95699061D01*
X160073303Y-95739999D01*
X160073311Y-95740000D01*
X160475000Y-95740000D01*
X160475000Y-95040000D01*
X160975000Y-95040000D01*
X160975000Y-95668090D01*
X160957687Y-95715656D01*
X160947700Y-95725493D01*
X160841531Y-95811867D01*
X160759132Y-95928600D01*
X160759127Y-95928608D01*
X160711279Y-96063243D01*
X160711276Y-96063255D01*
X160701525Y-96205805D01*
X160730598Y-96345708D01*
X160796337Y-96472581D01*
X160796338Y-96472583D01*
X160843438Y-96523014D01*
X160893870Y-96577013D01*
X161015960Y-96651258D01*
X161101553Y-96675240D01*
X161153553Y-96689810D01*
X161153554Y-96689810D01*
X161260549Y-96689810D01*
X161260556Y-96689810D01*
X161366562Y-96675240D01*
X161497624Y-96618311D01*
X161608467Y-96528134D01*
X161690871Y-96411395D01*
X161738722Y-96276753D01*
X161748474Y-96134193D01*
X161719401Y-95994290D01*
X161653662Y-95867418D01*
X161653661Y-95867416D01*
X161590778Y-95800086D01*
X161570964Y-95753506D01*
X161585727Y-95705088D01*
X161622708Y-95678970D01*
X161671389Y-95663696D01*
X161849217Y-95564993D01*
X161849222Y-95564989D01*
X162003528Y-95432522D01*
X162003531Y-95432520D01*
X162128017Y-95271696D01*
X162128019Y-95271694D01*
X162217586Y-95089097D01*
X162217588Y-95089092D01*
X162243246Y-94990000D01*
X163531633Y-94990000D01*
X163531930Y-94991940D01*
X163531931Y-94991945D01*
X163602565Y-95182665D01*
X163710144Y-95355260D01*
X163850268Y-95502671D01*
X164017198Y-95618857D01*
X164204088Y-95699058D01*
X164204098Y-95699061D01*
X164403303Y-95739999D01*
X164403311Y-95740000D01*
X164655000Y-95740000D01*
X164655000Y-95040000D01*
X165155000Y-95040000D01*
X165155000Y-95740000D01*
X165355711Y-95740000D01*
X165355719Y-95739999D01*
X165507333Y-95724582D01*
X165507338Y-95724580D01*
X165701384Y-95663699D01*
X165701385Y-95663698D01*
X165879217Y-95564993D01*
X165879222Y-95564989D01*
X166033528Y-95432522D01*
X166033531Y-95432520D01*
X166158017Y-95271696D01*
X166158019Y-95271694D01*
X166247586Y-95089097D01*
X166247588Y-95089092D01*
X166273246Y-94990000D01*
X165471111Y-94990000D01*
X165510610Y-94965543D01*
X165578201Y-94876038D01*
X165608895Y-94768160D01*
X165598546Y-94656479D01*
X165548552Y-94556078D01*
X165476069Y-94490000D01*
X166278367Y-94490000D01*
X166278069Y-94488059D01*
X166278068Y-94488054D01*
X166207434Y-94297334D01*
X166099855Y-94124739D01*
X165959731Y-93977328D01*
X165792801Y-93861142D01*
X165605911Y-93780941D01*
X165605901Y-93780938D01*
X165406696Y-93740000D01*
X165155000Y-93740000D01*
X165155000Y-94440000D01*
X164655000Y-94440000D01*
X164655000Y-93740000D01*
X164454280Y-93740000D01*
X164302666Y-93755417D01*
X164302661Y-93755419D01*
X164108615Y-93816300D01*
X164108614Y-93816301D01*
X163930782Y-93915006D01*
X163930777Y-93915010D01*
X163776471Y-94047477D01*
X163776468Y-94047479D01*
X163651982Y-94208303D01*
X163651980Y-94208305D01*
X163562413Y-94390902D01*
X163562411Y-94390907D01*
X163536754Y-94490000D01*
X164338889Y-94490000D01*
X164299390Y-94514457D01*
X164231799Y-94603962D01*
X164201105Y-94711840D01*
X164211454Y-94823521D01*
X164261448Y-94923922D01*
X164333931Y-94990000D01*
X163531633Y-94990000D01*
X162243246Y-94990000D01*
X161441111Y-94990000D01*
X161480610Y-94965543D01*
X161548201Y-94876038D01*
X161578895Y-94768160D01*
X161568546Y-94656479D01*
X161518552Y-94556078D01*
X161446069Y-94490000D01*
X162248367Y-94490000D01*
X162248069Y-94488059D01*
X162248068Y-94488054D01*
X162177434Y-94297334D01*
X162069855Y-94124739D01*
X161929731Y-93977328D01*
X161762801Y-93861142D01*
X161575911Y-93780941D01*
X161575901Y-93780938D01*
X161376696Y-93740000D01*
X160975000Y-93740000D01*
X160975000Y-94440000D01*
X160475000Y-94440000D01*
X160475000Y-93740000D01*
X160124280Y-93740000D01*
X159972666Y-93755417D01*
X159972661Y-93755419D01*
X159778615Y-93816300D01*
X159778614Y-93816301D01*
X159600782Y-93915006D01*
X159600777Y-93915010D01*
X159446471Y-94047477D01*
X159446468Y-94047479D01*
X159321982Y-94208303D01*
X159321980Y-94208305D01*
X159232413Y-94390902D01*
X159232411Y-94390907D01*
X159206754Y-94490000D01*
X160008889Y-94490000D01*
X159969390Y-94514457D01*
X159901799Y-94603962D01*
X159871105Y-94711840D01*
X159881454Y-94823521D01*
X159931448Y-94923922D01*
X160003931Y-94990000D01*
X159201633Y-94990000D01*
X157099000Y-94990000D01*
X157099000Y-91948000D01*
X152788500Y-91948000D01*
X152788500Y-90304502D01*
X162035190Y-90304502D01*
X162072553Y-90552393D01*
X162075284Y-90570510D01*
X162154570Y-90827547D01*
X162154573Y-90827556D01*
X162271290Y-91069921D01*
X162422826Y-91292184D01*
X162605796Y-91489378D01*
X162605799Y-91489381D01*
X162816100Y-91657092D01*
X162816106Y-91657095D01*
X162816112Y-91657100D01*
X163049077Y-91791603D01*
X163299487Y-91889881D01*
X163299490Y-91889882D01*
X163375552Y-91907242D01*
X163561747Y-91949740D01*
X163727218Y-91962140D01*
X163762824Y-91964809D01*
X163762840Y-91964810D01*
X163897160Y-91964810D01*
X163897175Y-91964809D01*
X163919374Y-91963145D01*
X164098253Y-91949740D01*
X164360513Y-91889881D01*
X164610923Y-91791603D01*
X164843888Y-91657100D01*
X164843895Y-91657093D01*
X164843899Y-91657092D01*
X165054200Y-91489381D01*
X165054199Y-91489381D01*
X165054204Y-91489378D01*
X165237174Y-91292184D01*
X165388710Y-91069922D01*
X165505427Y-90827556D01*
X165584717Y-90570503D01*
X165624810Y-90304502D01*
X165624810Y-90035498D01*
X165584717Y-89769497D01*
X165577268Y-89745349D01*
X165505429Y-89512452D01*
X165505427Y-89512444D01*
X165388710Y-89270079D01*
X165237174Y-89047816D01*
X165054204Y-88850622D01*
X165054202Y-88850621D01*
X165054200Y-88850618D01*
X164843899Y-88682907D01*
X164843892Y-88682903D01*
X164843891Y-88682902D01*
X164843888Y-88682900D01*
X164610923Y-88548397D01*
X164610922Y-88548396D01*
X164610921Y-88548396D01*
X164360509Y-88450117D01*
X164098253Y-88390260D01*
X163897175Y-88375190D01*
X163897160Y-88375190D01*
X163762840Y-88375190D01*
X163762824Y-88375190D01*
X163561746Y-88390260D01*
X163299490Y-88450117D01*
X163049078Y-88548396D01*
X162816107Y-88682903D01*
X162816100Y-88682907D01*
X162605799Y-88850618D01*
X162422824Y-89047818D01*
X162271289Y-89270080D01*
X162154575Y-89512438D01*
X162154570Y-89512452D01*
X162075284Y-89769489D01*
X162075283Y-89769497D01*
X162035190Y-90035498D01*
X162035190Y-90304502D01*
X152788500Y-90304502D01*
X152788500Y-85850000D01*
X159201633Y-85850000D01*
X159201930Y-85851940D01*
X159201931Y-85851945D01*
X159272565Y-86042665D01*
X159380144Y-86215260D01*
X159520268Y-86362671D01*
X159687198Y-86478857D01*
X159874088Y-86559058D01*
X159874098Y-86559061D01*
X160073303Y-86599999D01*
X160073311Y-86600000D01*
X160475000Y-86600000D01*
X160475000Y-85900000D01*
X160975000Y-85900000D01*
X160975000Y-86600000D01*
X161325711Y-86600000D01*
X161325719Y-86599999D01*
X161477333Y-86584582D01*
X161477338Y-86584580D01*
X161671384Y-86523699D01*
X161671385Y-86523698D01*
X161849217Y-86424993D01*
X161849222Y-86424989D01*
X162003528Y-86292522D01*
X162003531Y-86292520D01*
X162128017Y-86131696D01*
X162128019Y-86131694D01*
X162217586Y-85949097D01*
X162217588Y-85949092D01*
X162243246Y-85850000D01*
X163531633Y-85850000D01*
X163531930Y-85851940D01*
X163531931Y-85851945D01*
X163602565Y-86042665D01*
X163710144Y-86215260D01*
X163850268Y-86362671D01*
X164017198Y-86478857D01*
X164204088Y-86559058D01*
X164204098Y-86559061D01*
X164403303Y-86599999D01*
X164403311Y-86600000D01*
X164655000Y-86600000D01*
X164655000Y-85900000D01*
X165155000Y-85900000D01*
X165155000Y-86600000D01*
X165355711Y-86600000D01*
X165355719Y-86599999D01*
X165507333Y-86584582D01*
X165507338Y-86584580D01*
X165701384Y-86523699D01*
X165701385Y-86523698D01*
X165879217Y-86424993D01*
X165879222Y-86424989D01*
X166033528Y-86292522D01*
X166033531Y-86292520D01*
X166158017Y-86131696D01*
X166158019Y-86131694D01*
X166247586Y-85949097D01*
X166247588Y-85949092D01*
X166273246Y-85850000D01*
X165471111Y-85850000D01*
X165510610Y-85825543D01*
X165578201Y-85736038D01*
X165608895Y-85628160D01*
X165598546Y-85516479D01*
X165548552Y-85416078D01*
X165476069Y-85350000D01*
X166278367Y-85350000D01*
X166278069Y-85348059D01*
X166278068Y-85348054D01*
X166207434Y-85157334D01*
X166099855Y-84984739D01*
X165959731Y-84837328D01*
X165792801Y-84721142D01*
X165605911Y-84640941D01*
X165605901Y-84640938D01*
X165406696Y-84600000D01*
X165155000Y-84600000D01*
X165155000Y-85300000D01*
X164655000Y-85300000D01*
X164655000Y-84600000D01*
X164454280Y-84600000D01*
X164302666Y-84615417D01*
X164302661Y-84615419D01*
X164108615Y-84676300D01*
X164108614Y-84676301D01*
X163930782Y-84775006D01*
X163930777Y-84775010D01*
X163776471Y-84907477D01*
X163776468Y-84907479D01*
X163651982Y-85068303D01*
X163651980Y-85068305D01*
X163562413Y-85250902D01*
X163562411Y-85250907D01*
X163536754Y-85350000D01*
X164338889Y-85350000D01*
X164299390Y-85374457D01*
X164231799Y-85463962D01*
X164201105Y-85571840D01*
X164211454Y-85683521D01*
X164261448Y-85783922D01*
X164333931Y-85850000D01*
X163531633Y-85850000D01*
X162243246Y-85850000D01*
X161441111Y-85850000D01*
X161480610Y-85825543D01*
X161548201Y-85736038D01*
X161578895Y-85628160D01*
X161568546Y-85516479D01*
X161518552Y-85416078D01*
X161446069Y-85350000D01*
X162248367Y-85350000D01*
X162248069Y-85348059D01*
X162248068Y-85348054D01*
X162177434Y-85157334D01*
X162069855Y-84984739D01*
X161929731Y-84837328D01*
X161762803Y-84721143D01*
X161618830Y-84659359D01*
X161581946Y-84624691D01*
X161575976Y-84574425D01*
X161601315Y-84533952D01*
X161608467Y-84528134D01*
X161690871Y-84411395D01*
X161738722Y-84276753D01*
X161740248Y-84254454D01*
X161748474Y-84134193D01*
X161733730Y-84063243D01*
X161719401Y-83994290D01*
X161653662Y-83867418D01*
X161653661Y-83867416D01*
X161588727Y-83797890D01*
X161556130Y-83762987D01*
X161434040Y-83688742D01*
X161296447Y-83650190D01*
X161296446Y-83650190D01*
X161189444Y-83650190D01*
X161189438Y-83650190D01*
X161083441Y-83664759D01*
X161083439Y-83664759D01*
X161083438Y-83664760D01*
X161029572Y-83688157D01*
X160952375Y-83721689D01*
X160841531Y-83811867D01*
X160759132Y-83928600D01*
X160759127Y-83928608D01*
X160711279Y-84063243D01*
X160711276Y-84063255D01*
X160701525Y-84205805D01*
X160730598Y-84345708D01*
X160796337Y-84472581D01*
X160796338Y-84472583D01*
X160861634Y-84542497D01*
X160893870Y-84577013D01*
X160939449Y-84604730D01*
X160971095Y-84644237D01*
X160975000Y-84667957D01*
X160975000Y-85300000D01*
X160475000Y-85300000D01*
X160475000Y-84600000D01*
X160124280Y-84600000D01*
X159972666Y-84615417D01*
X159972661Y-84615419D01*
X159778615Y-84676300D01*
X159778614Y-84676301D01*
X159600782Y-84775006D01*
X159600777Y-84775010D01*
X159446471Y-84907477D01*
X159446468Y-84907479D01*
X159321982Y-85068303D01*
X159321980Y-85068305D01*
X159232413Y-85250902D01*
X159232411Y-85250907D01*
X159206754Y-85350000D01*
X160008889Y-85350000D01*
X159969390Y-85374457D01*
X159901799Y-85463962D01*
X159871105Y-85571840D01*
X159881454Y-85683521D01*
X159931448Y-85783922D01*
X160003931Y-85850000D01*
X159201633Y-85850000D01*
X152788500Y-85850000D01*
X152788500Y-80218500D01*
X152805813Y-80170934D01*
X152849650Y-80145624D01*
X152862500Y-80144500D01*
X154612192Y-80144500D01*
X154612194Y-80144500D01*
X154701019Y-80136269D01*
X154771303Y-80129757D01*
X154771307Y-80129756D01*
X154771310Y-80129756D01*
X154976389Y-80071405D01*
X155167255Y-79976366D01*
X155337407Y-79847872D01*
X155481052Y-79690302D01*
X155593298Y-79509019D01*
X155670321Y-79310198D01*
X155709500Y-79100610D01*
X155709500Y-78887390D01*
X155670321Y-78677802D01*
X155593298Y-78478981D01*
X155481052Y-78297698D01*
X155337407Y-78140128D01*
X155178447Y-78020086D01*
X155167258Y-78011636D01*
X155167252Y-78011632D01*
X154976393Y-77916596D01*
X154976383Y-77916593D01*
X154771309Y-77858243D01*
X154771303Y-77858242D01*
X154612200Y-77843500D01*
X154612194Y-77843500D01*
X152326194Y-77843500D01*
X152301292Y-77843500D01*
X152297875Y-77843421D01*
X152219638Y-77839803D01*
X152219635Y-77839804D01*
X152198232Y-77842790D01*
X152188008Y-77843500D01*
X134259381Y-77843500D01*
X134210247Y-77852685D01*
X134203480Y-77853629D01*
X134153700Y-77858242D01*
X134153684Y-77858245D01*
X134105597Y-77871927D01*
X134098946Y-77873492D01*
X134049801Y-77882679D01*
X134003181Y-77900739D01*
X133996704Y-77902910D01*
X133948610Y-77916595D01*
X133903859Y-77938877D01*
X133897611Y-77941636D01*
X133850988Y-77959698D01*
X133850973Y-77959706D01*
X133808475Y-77986019D01*
X133802508Y-77989343D01*
X133757748Y-78011632D01*
X133757739Y-78011638D01*
X133717840Y-78041767D01*
X133712211Y-78045623D01*
X133669698Y-78071948D01*
X133669695Y-78071950D01*
X133632744Y-78105635D01*
X133627497Y-78109992D01*
X133609913Y-78123271D01*
X133587589Y-78140130D01*
X133553907Y-78177077D01*
X133549077Y-78181907D01*
X133512130Y-78215589D01*
X133495271Y-78237913D01*
X133481992Y-78255497D01*
X133477635Y-78260744D01*
X133443950Y-78297695D01*
X133443948Y-78297697D01*
X133443948Y-78297698D01*
X133417623Y-78340211D01*
X133413767Y-78345840D01*
X133383638Y-78385739D01*
X133383632Y-78385748D01*
X133361343Y-78430508D01*
X133358019Y-78436475D01*
X133331706Y-78478973D01*
X133331698Y-78478988D01*
X133313636Y-78525611D01*
X133310877Y-78531859D01*
X133288595Y-78576610D01*
X133274910Y-78624704D01*
X133272739Y-78631181D01*
X133254679Y-78677801D01*
X133245492Y-78726946D01*
X133243927Y-78733597D01*
X133230245Y-78781684D01*
X133230242Y-78781700D01*
X133225629Y-78831480D01*
X133224685Y-78838247D01*
X133215500Y-78887381D01*
X133215500Y-83619200D01*
X133230242Y-83778303D01*
X133230243Y-83778309D01*
X133288593Y-83983383D01*
X133288596Y-83983393D01*
X133383632Y-84174252D01*
X133383634Y-84174255D01*
X133512128Y-84344407D01*
X133669698Y-84488052D01*
X133850981Y-84600298D01*
X134049802Y-84677321D01*
X134259390Y-84716500D01*
X134472610Y-84716500D01*
X134682198Y-84677321D01*
X134881019Y-84600298D01*
X135062302Y-84488052D01*
X135219872Y-84344407D01*
X135348366Y-84174255D01*
X135443405Y-83983389D01*
X135501756Y-83778310D01*
X135516500Y-83619194D01*
X135516500Y-80218500D01*
X135533813Y-80170934D01*
X135577650Y-80145624D01*
X135590500Y-80144500D01*
X150413500Y-80144500D01*
X150461066Y-80161813D01*
X150486376Y-80205650D01*
X150487500Y-80218500D01*
X150487500Y-86824683D01*
X150470187Y-86872249D01*
X150426350Y-86897559D01*
X150376500Y-86888769D01*
X150356008Y-86871273D01*
X150354102Y-86868921D01*
X150347511Y-86859335D01*
X150338533Y-86843784D01*
X150338532Y-86843782D01*
X150292276Y-86792410D01*
X150289761Y-86789466D01*
X150285195Y-86783828D01*
X150276119Y-86772620D01*
X150260799Y-86757300D01*
X150258132Y-86754490D01*
X150211869Y-86703110D01*
X150197349Y-86692561D01*
X150188518Y-86685019D01*
X147756979Y-84253480D01*
X147749437Y-84244649D01*
X147738887Y-84230128D01*
X147687508Y-84183866D01*
X147684698Y-84181199D01*
X147669377Y-84165878D01*
X147652543Y-84152246D01*
X147649598Y-84149731D01*
X147598221Y-84103471D01*
X147598218Y-84103469D01*
X147598216Y-84103467D01*
X147598211Y-84103464D01*
X147598208Y-84103462D01*
X147582670Y-84094491D01*
X147573103Y-84087916D01*
X147559148Y-84076616D01*
X147559147Y-84076615D01*
X147497549Y-84045229D01*
X147494146Y-84043381D01*
X147434285Y-84008821D01*
X147417210Y-84003273D01*
X147406483Y-83998830D01*
X147390490Y-83990681D01*
X147390483Y-83990678D01*
X147323709Y-83972785D01*
X147319997Y-83971685D01*
X147254263Y-83950327D01*
X147254252Y-83950325D01*
X147236404Y-83948449D01*
X147224990Y-83946334D01*
X147207645Y-83941686D01*
X147138599Y-83938068D01*
X147134741Y-83937764D01*
X147123973Y-83936632D01*
X147113192Y-83935500D01*
X147113190Y-83935500D01*
X147091527Y-83935500D01*
X147087654Y-83935399D01*
X147018612Y-83931780D01*
X147018610Y-83931781D01*
X147000883Y-83934589D01*
X146989306Y-83935500D01*
X146232446Y-83935500D01*
X146184880Y-83918187D01*
X146166743Y-83895545D01*
X146073722Y-83716024D01*
X146073717Y-83716017D01*
X145904069Y-83475679D01*
X145904067Y-83475676D01*
X145904065Y-83475674D01*
X145703260Y-83260665D01*
X145548671Y-83134897D01*
X145475057Y-83075007D01*
X145475040Y-83074995D01*
X145358345Y-83004031D01*
X145223682Y-82922141D01*
X145223679Y-82922139D01*
X145223678Y-82922139D01*
X144953839Y-82804932D01*
X144670553Y-82725559D01*
X144379102Y-82685500D01*
X144379098Y-82685500D01*
X144084902Y-82685500D01*
X144084897Y-82685500D01*
X143793446Y-82725559D01*
X143510160Y-82804932D01*
X143240321Y-82922139D01*
X143240318Y-82922141D01*
X142988959Y-83074995D01*
X142988942Y-83075007D01*
X142760744Y-83260662D01*
X142760741Y-83260664D01*
X142559930Y-83475679D01*
X142390282Y-83716017D01*
X142390277Y-83716024D01*
X142254926Y-83977238D01*
X142254924Y-83977243D01*
X142156410Y-84254436D01*
X142156405Y-84254454D01*
X142096553Y-84542477D01*
X142096550Y-84542497D01*
X142076475Y-84835992D01*
X142076475Y-84836007D01*
X142096550Y-85129502D01*
X142096553Y-85129522D01*
X142156405Y-85417545D01*
X142156410Y-85417563D01*
X142254924Y-85694756D01*
X142254926Y-85694761D01*
X142390277Y-85955975D01*
X142390284Y-85955985D01*
X142406570Y-85979057D01*
X142419857Y-86027901D01*
X142398639Y-86073859D01*
X142398441Y-86074058D01*
X141758326Y-86714173D01*
X141712450Y-86735565D01*
X141663555Y-86722464D01*
X141634521Y-86681000D01*
X141632000Y-86661847D01*
X141632000Y-85086000D01*
X140562636Y-85086000D01*
X140566569Y-85071321D01*
X140587157Y-84836000D01*
X140566569Y-84600679D01*
X140562636Y-84586000D01*
X141632000Y-84586000D01*
X141632000Y-82888171D01*
X141625597Y-82828624D01*
X141625596Y-82828619D01*
X141575354Y-82693912D01*
X141575353Y-82693911D01*
X141489188Y-82578811D01*
X141374088Y-82492646D01*
X141374087Y-82492645D01*
X141239380Y-82442403D01*
X141239375Y-82442402D01*
X141179829Y-82436000D01*
X139482000Y-82436000D01*
X139482000Y-83505364D01*
X139467321Y-83501431D01*
X139290945Y-83486000D01*
X139173055Y-83486000D01*
X138996679Y-83501431D01*
X138982000Y-83505364D01*
X138982000Y-82436000D01*
X137284171Y-82436000D01*
X137224624Y-82442402D01*
X137224619Y-82442403D01*
X137089912Y-82492645D01*
X137089911Y-82492646D01*
X136974811Y-82578811D01*
X136888646Y-82693911D01*
X136888645Y-82693912D01*
X136838403Y-82828619D01*
X136838402Y-82828624D01*
X136832000Y-82888171D01*
X136832000Y-84586000D01*
X137901364Y-84586000D01*
X137897431Y-84600679D01*
X137876843Y-84836000D01*
X137897431Y-85071321D01*
X137901364Y-85086000D01*
X136832000Y-85086000D01*
X136832000Y-86783828D01*
X136838402Y-86843375D01*
X136838403Y-86843380D01*
X136888645Y-86978087D01*
X136888646Y-86978088D01*
X136974811Y-87093188D01*
X137089911Y-87179353D01*
X137089912Y-87179354D01*
X137224619Y-87229596D01*
X137224624Y-87229597D01*
X137284171Y-87236000D01*
X138982000Y-87236000D01*
X138982000Y-86166635D01*
X138996679Y-86170569D01*
X139173055Y-86186000D01*
X139290945Y-86186000D01*
X139467321Y-86170569D01*
X139482000Y-86166635D01*
X139482000Y-87236000D01*
X141057848Y-87236000D01*
X141105414Y-87253313D01*
X141130724Y-87297150D01*
X141121934Y-87347000D01*
X141110174Y-87362326D01*
X140240675Y-88231826D01*
X140194799Y-88253218D01*
X140188349Y-88253500D01*
X138506694Y-88253500D01*
X138495117Y-88252589D01*
X138477389Y-88249781D01*
X138477387Y-88249780D01*
X138408347Y-88253399D01*
X138404474Y-88253500D01*
X138382806Y-88253500D01*
X138361256Y-88255763D01*
X138357402Y-88256067D01*
X138288353Y-88259687D01*
X138271007Y-88264334D01*
X138259598Y-88266448D01*
X138241742Y-88268325D01*
X138175996Y-88289688D01*
X138172282Y-88290788D01*
X138105515Y-88308678D01*
X138105514Y-88308678D01*
X138089510Y-88316832D01*
X138078789Y-88321273D01*
X138061715Y-88326821D01*
X138001845Y-88361386D01*
X137998442Y-88363234D01*
X137936849Y-88394617D01*
X137936844Y-88394621D01*
X137922896Y-88405915D01*
X137913334Y-88412488D01*
X137897783Y-88421467D01*
X137846419Y-88467714D01*
X137843480Y-88470225D01*
X137826613Y-88483885D01*
X137811288Y-88499210D01*
X137808480Y-88501875D01*
X137757117Y-88548123D01*
X137757108Y-88548133D01*
X137746560Y-88562650D01*
X137739021Y-88571477D01*
X134461120Y-91849381D01*
X133783477Y-92527022D01*
X133774650Y-92534561D01*
X133760128Y-92545112D01*
X133760123Y-92545116D01*
X133713866Y-92596490D01*
X133711201Y-92599298D01*
X133695886Y-92614613D01*
X133695878Y-92614622D01*
X133682248Y-92631453D01*
X133679735Y-92634395D01*
X133633466Y-92685784D01*
X133624489Y-92701333D01*
X133617914Y-92710899D01*
X133606619Y-92724847D01*
X133606613Y-92724856D01*
X133575234Y-92786442D01*
X133573386Y-92789845D01*
X133538821Y-92849715D01*
X133533273Y-92866789D01*
X133528831Y-92877512D01*
X133520684Y-92893503D01*
X133520680Y-92893512D01*
X133502784Y-92960295D01*
X133501684Y-92964006D01*
X133480327Y-93029736D01*
X133480325Y-93029746D01*
X133478448Y-93047599D01*
X133476334Y-93059006D01*
X133471687Y-93076353D01*
X133471686Y-93076355D01*
X133468067Y-93145402D01*
X133467763Y-93149256D01*
X133465500Y-93170806D01*
X133465500Y-93192473D01*
X133465399Y-93196346D01*
X133461780Y-93265387D01*
X133461781Y-93265388D01*
X133464589Y-93283116D01*
X133465500Y-93294693D01*
X133465500Y-93922525D01*
X133448187Y-93970091D01*
X133404350Y-93995401D01*
X133354500Y-93986611D01*
X133343301Y-93978675D01*
X133341738Y-93977333D01*
X133174801Y-93861142D01*
X132987911Y-93780941D01*
X132987901Y-93780938D01*
X132788696Y-93740000D01*
X132387000Y-93740000D01*
X132387000Y-94440000D01*
X131887000Y-94440000D01*
X131887000Y-93740000D01*
X131536280Y-93740000D01*
X131384666Y-93755417D01*
X131384661Y-93755419D01*
X131190615Y-93816300D01*
X131190614Y-93816301D01*
X131012782Y-93915006D01*
X131012777Y-93915010D01*
X130858471Y-94047477D01*
X130858468Y-94047479D01*
X130733982Y-94208303D01*
X130733980Y-94208305D01*
X130644413Y-94390902D01*
X130644411Y-94390907D01*
X130618754Y-94490000D01*
X131420889Y-94490000D01*
X131381390Y-94514457D01*
X131313799Y-94603962D01*
X131283105Y-94711840D01*
X131293454Y-94823521D01*
X131343448Y-94923922D01*
X131415931Y-94990000D01*
X130613633Y-94990000D01*
X130613930Y-94991940D01*
X130613931Y-94991945D01*
X130684565Y-95182665D01*
X130792144Y-95355260D01*
X130932268Y-95502671D01*
X131099197Y-95618857D01*
X131243169Y-95680639D01*
X131280053Y-95715306D01*
X131286024Y-95765572D01*
X131260690Y-95806042D01*
X131253535Y-95811863D01*
X131253531Y-95811867D01*
X131171132Y-95928600D01*
X131171127Y-95928608D01*
X131123279Y-96063243D01*
X131123276Y-96063255D01*
X131113525Y-96205805D01*
X131142598Y-96345708D01*
X131208337Y-96472581D01*
X131208338Y-96472583D01*
X131255438Y-96523014D01*
X131305870Y-96577013D01*
X131427960Y-96651258D01*
X131513553Y-96675240D01*
X131565553Y-96689810D01*
X131565554Y-96689810D01*
X131672549Y-96689810D01*
X131672556Y-96689810D01*
X131778562Y-96675240D01*
X131909624Y-96618311D01*
X132020467Y-96528134D01*
X132102871Y-96411395D01*
X132150722Y-96276753D01*
X132160474Y-96134193D01*
X132131401Y-95994290D01*
X132065662Y-95867418D01*
X132065661Y-95867416D01*
X131968129Y-95762986D01*
X131922549Y-95735267D01*
X131890904Y-95695759D01*
X131887000Y-95672041D01*
X131887000Y-95040000D01*
X132387000Y-95040000D01*
X132387000Y-95740000D01*
X132737711Y-95740000D01*
X132737719Y-95739999D01*
X132889333Y-95724582D01*
X132889338Y-95724580D01*
X133083384Y-95663699D01*
X133083385Y-95663698D01*
X133261217Y-95564993D01*
X133343298Y-95494529D01*
X133390667Y-95476682D01*
X133438425Y-95493458D01*
X133464226Y-95537007D01*
X133465500Y-95550677D01*
X133465500Y-96726808D01*
X133465500Y-101393192D01*
X133477522Y-101507576D01*
X133480327Y-101534261D01*
X133536425Y-101706912D01*
X133534659Y-101757500D01*
X133500788Y-101795117D01*
X133450662Y-101802162D01*
X133413721Y-101782105D01*
X132299145Y-100667529D01*
X132289942Y-100656314D01*
X132278626Y-100639378D01*
X132278624Y-100639376D01*
X132258644Y-100626025D01*
X132258641Y-100626023D01*
X132224250Y-100603044D01*
X132187495Y-100578485D01*
X132107133Y-100562500D01*
X132107132Y-100562500D01*
X132107130Y-100562499D01*
X132080001Y-100557103D01*
X132080000Y-100557103D01*
X132060017Y-100561078D01*
X132045580Y-100562500D01*
X131963984Y-100562500D01*
X131916418Y-100545187D01*
X131905278Y-100533552D01*
X131837621Y-100445379D01*
X131722625Y-100357139D01*
X131722623Y-100357138D01*
X131588708Y-100301669D01*
X131445000Y-100282750D01*
X131301291Y-100301669D01*
X131167376Y-100357138D01*
X131052379Y-100445379D01*
X130964138Y-100560376D01*
X130908669Y-100694291D01*
X130889750Y-100838000D01*
X130908669Y-100981708D01*
X130951130Y-101084218D01*
X130964139Y-101115625D01*
X131052379Y-101230621D01*
X131167375Y-101318861D01*
X131301291Y-101374330D01*
X131320098Y-101376806D01*
X131364997Y-101400179D01*
X131384369Y-101446945D01*
X131369147Y-101495221D01*
X131357140Y-101507575D01*
X131253533Y-101591866D01*
X131253532Y-101591867D01*
X131253530Y-101591869D01*
X131171132Y-101708600D01*
X131171127Y-101708608D01*
X131123279Y-101843243D01*
X131123276Y-101843255D01*
X131113525Y-101985805D01*
X131142598Y-102125708D01*
X131208337Y-102252581D01*
X131208338Y-102252583D01*
X131271221Y-102319913D01*
X131291035Y-102366493D01*
X131276272Y-102414911D01*
X131239292Y-102441028D01*
X131190615Y-102456300D01*
X131190614Y-102456301D01*
X131012782Y-102555006D01*
X131012777Y-102555010D01*
X130858471Y-102687477D01*
X130858468Y-102687479D01*
X130733982Y-102848303D01*
X130733980Y-102848305D01*
X130644413Y-103030902D01*
X130644411Y-103030907D01*
X130618754Y-103130000D01*
X131420889Y-103130000D01*
X131381390Y-103154457D01*
X131313799Y-103243962D01*
X131283105Y-103351840D01*
X131293454Y-103463521D01*
X131343448Y-103563922D01*
X131415931Y-103630000D01*
X130613633Y-103630000D01*
X129325246Y-103630000D01*
X128523111Y-103630000D01*
X128562610Y-103605543D01*
X128630201Y-103516038D01*
X128660895Y-103408160D01*
X128650546Y-103296479D01*
X128600552Y-103196078D01*
X128528069Y-103130000D01*
X129330367Y-103130000D01*
X129330069Y-103128059D01*
X129330068Y-103128054D01*
X129259434Y-102937334D01*
X129151855Y-102764739D01*
X129011731Y-102617328D01*
X128844801Y-102501142D01*
X128657911Y-102420941D01*
X128657901Y-102420938D01*
X128458696Y-102380000D01*
X128207000Y-102380000D01*
X128207000Y-103080000D01*
X127707000Y-103080000D01*
X127707000Y-102380000D01*
X127506280Y-102380000D01*
X127354666Y-102395417D01*
X127354661Y-102395419D01*
X127160615Y-102456300D01*
X127160614Y-102456301D01*
X126982782Y-102555006D01*
X126982777Y-102555010D01*
X126828471Y-102687477D01*
X126828468Y-102687479D01*
X126703982Y-102848303D01*
X126703980Y-102848305D01*
X126614413Y-103030902D01*
X126614411Y-103030907D01*
X126588754Y-103130000D01*
X127390889Y-103130000D01*
X127351390Y-103154457D01*
X127283799Y-103243962D01*
X127253105Y-103351840D01*
X127263454Y-103463521D01*
X127313448Y-103563922D01*
X127385931Y-103630000D01*
X126583633Y-103630000D01*
X125312852Y-103630000D01*
X125292400Y-103575164D01*
X125289789Y-103566614D01*
X125261615Y-103449261D01*
X125261306Y-103447911D01*
X125240726Y-103353307D01*
X125239268Y-103343419D01*
X125227500Y-103193892D01*
X125222687Y-103126596D01*
X125222500Y-103121323D01*
X125222500Y-96651257D01*
X125222500Y-94990000D01*
X126583633Y-94990000D01*
X126583930Y-94991940D01*
X126583931Y-94991945D01*
X126654565Y-95182665D01*
X126762144Y-95355260D01*
X126902268Y-95502671D01*
X127069198Y-95618857D01*
X127256088Y-95699058D01*
X127256098Y-95699061D01*
X127455303Y-95739999D01*
X127455311Y-95740000D01*
X127707000Y-95740000D01*
X127707000Y-95040000D01*
X128207000Y-95040000D01*
X128207000Y-95740000D01*
X128407711Y-95740000D01*
X128407719Y-95739999D01*
X128559333Y-95724582D01*
X128559338Y-95724580D01*
X128753384Y-95663699D01*
X128753385Y-95663698D01*
X128931217Y-95564993D01*
X128931222Y-95564989D01*
X129085528Y-95432522D01*
X129085531Y-95432520D01*
X129210017Y-95271696D01*
X129210019Y-95271694D01*
X129299586Y-95089097D01*
X129299588Y-95089092D01*
X129325246Y-94990000D01*
X128523111Y-94990000D01*
X128562610Y-94965543D01*
X128630201Y-94876038D01*
X128660895Y-94768160D01*
X128650546Y-94656479D01*
X128600552Y-94556078D01*
X128528069Y-94490000D01*
X129330367Y-94490000D01*
X129330069Y-94488059D01*
X129330068Y-94488054D01*
X129259434Y-94297334D01*
X129151855Y-94124739D01*
X129011731Y-93977328D01*
X128844801Y-93861142D01*
X128657911Y-93780941D01*
X128657901Y-93780938D01*
X128458696Y-93740000D01*
X128207000Y-93740000D01*
X128207000Y-94440000D01*
X127707000Y-94440000D01*
X127707000Y-93740000D01*
X127506280Y-93740000D01*
X127354666Y-93755417D01*
X127354661Y-93755419D01*
X127160615Y-93816300D01*
X127160614Y-93816301D01*
X126982782Y-93915006D01*
X126982777Y-93915010D01*
X126828471Y-94047477D01*
X126828468Y-94047479D01*
X126703982Y-94208303D01*
X126703980Y-94208305D01*
X126614413Y-94390902D01*
X126614411Y-94390907D01*
X126588754Y-94490000D01*
X127390889Y-94490000D01*
X127351390Y-94514457D01*
X127283799Y-94603962D01*
X127253105Y-94711840D01*
X127263454Y-94823521D01*
X127313448Y-94923922D01*
X127385931Y-94990000D01*
X126583633Y-94990000D01*
X125222500Y-94990000D01*
X125222501Y-90304502D01*
X127237190Y-90304502D01*
X127274553Y-90552393D01*
X127277284Y-90570510D01*
X127356570Y-90827547D01*
X127356573Y-90827556D01*
X127473290Y-91069921D01*
X127624826Y-91292184D01*
X127807796Y-91489378D01*
X127807799Y-91489381D01*
X128018100Y-91657092D01*
X128018106Y-91657095D01*
X128018112Y-91657100D01*
X128251077Y-91791603D01*
X128501487Y-91889881D01*
X128501490Y-91889882D01*
X128577552Y-91907242D01*
X128763747Y-91949740D01*
X128929218Y-91962140D01*
X128964824Y-91964809D01*
X128964840Y-91964810D01*
X129099160Y-91964810D01*
X129099175Y-91964809D01*
X129121374Y-91963145D01*
X129300253Y-91949740D01*
X129562513Y-91889881D01*
X129812923Y-91791603D01*
X130045888Y-91657100D01*
X130045895Y-91657093D01*
X130045899Y-91657092D01*
X130256200Y-91489381D01*
X130256199Y-91489381D01*
X130256204Y-91489378D01*
X130439174Y-91292184D01*
X130590710Y-91069922D01*
X130707427Y-90827556D01*
X130786717Y-90570503D01*
X130826810Y-90304502D01*
X130826810Y-90035498D01*
X130786717Y-89769497D01*
X130779268Y-89745349D01*
X130707429Y-89512452D01*
X130707427Y-89512444D01*
X130590710Y-89270079D01*
X130439174Y-89047816D01*
X130256204Y-88850622D01*
X130256202Y-88850621D01*
X130256200Y-88850618D01*
X130045899Y-88682907D01*
X130045892Y-88682903D01*
X130045891Y-88682902D01*
X130045888Y-88682900D01*
X129812923Y-88548397D01*
X129812922Y-88548396D01*
X129812921Y-88548396D01*
X129562509Y-88450117D01*
X129300253Y-88390260D01*
X129099175Y-88375190D01*
X129099160Y-88375190D01*
X128964840Y-88375190D01*
X128964824Y-88375190D01*
X128763746Y-88390260D01*
X128501490Y-88450117D01*
X128251078Y-88548396D01*
X128018107Y-88682903D01*
X128018100Y-88682907D01*
X127807799Y-88850618D01*
X127624824Y-89047818D01*
X127473289Y-89270080D01*
X127356575Y-89512438D01*
X127356570Y-89512452D01*
X127277284Y-89769489D01*
X127277283Y-89769497D01*
X127237190Y-90035498D01*
X127237190Y-90304502D01*
X125222501Y-90304502D01*
X125222501Y-85850000D01*
X126583633Y-85850000D01*
X126583930Y-85851940D01*
X126583931Y-85851945D01*
X126654565Y-86042665D01*
X126762144Y-86215260D01*
X126902268Y-86362671D01*
X127069198Y-86478857D01*
X127256088Y-86559058D01*
X127256098Y-86559061D01*
X127455303Y-86599999D01*
X127455311Y-86600000D01*
X127707000Y-86600000D01*
X127707000Y-85900000D01*
X128207000Y-85900000D01*
X128207000Y-86600000D01*
X128407711Y-86600000D01*
X128407719Y-86599999D01*
X128559333Y-86584582D01*
X128559338Y-86584580D01*
X128753384Y-86523699D01*
X128753385Y-86523698D01*
X128931217Y-86424993D01*
X128931222Y-86424989D01*
X129085528Y-86292522D01*
X129085531Y-86292520D01*
X129210017Y-86131696D01*
X129210019Y-86131694D01*
X129299586Y-85949097D01*
X129299588Y-85949092D01*
X129325246Y-85850000D01*
X130613633Y-85850000D01*
X130613930Y-85851940D01*
X130613931Y-85851945D01*
X130684565Y-86042665D01*
X130792144Y-86215260D01*
X130932268Y-86362671D01*
X131099198Y-86478857D01*
X131286088Y-86559058D01*
X131286098Y-86559061D01*
X131485303Y-86599999D01*
X131485311Y-86600000D01*
X131887000Y-86600000D01*
X131887000Y-85900000D01*
X132387000Y-85900000D01*
X132387000Y-86600000D01*
X132737711Y-86600000D01*
X132737719Y-86599999D01*
X132889333Y-86584582D01*
X132889338Y-86584580D01*
X133083384Y-86523699D01*
X133083385Y-86523698D01*
X133261217Y-86424993D01*
X133261222Y-86424989D01*
X133415528Y-86292522D01*
X133415531Y-86292520D01*
X133540017Y-86131696D01*
X133540019Y-86131694D01*
X133629586Y-85949097D01*
X133629588Y-85949092D01*
X133655246Y-85850000D01*
X132853111Y-85850000D01*
X132892610Y-85825543D01*
X132960201Y-85736038D01*
X132990895Y-85628160D01*
X132980546Y-85516479D01*
X132930552Y-85416078D01*
X132858069Y-85350000D01*
X133660367Y-85350000D01*
X133660069Y-85348059D01*
X133660068Y-85348054D01*
X133589434Y-85157334D01*
X133481855Y-84984739D01*
X133341731Y-84837328D01*
X133174801Y-84721142D01*
X132987911Y-84640941D01*
X132987901Y-84640938D01*
X132788696Y-84600000D01*
X132387000Y-84600000D01*
X132387000Y-85300000D01*
X131887000Y-85300000D01*
X131887000Y-84671909D01*
X131904313Y-84624343D01*
X131914295Y-84614510D01*
X132020467Y-84528134D01*
X132102871Y-84411395D01*
X132150722Y-84276753D01*
X132152248Y-84254454D01*
X132160474Y-84134193D01*
X132145730Y-84063243D01*
X132131401Y-83994290D01*
X132065662Y-83867418D01*
X132065661Y-83867416D01*
X132000727Y-83797890D01*
X131968130Y-83762987D01*
X131846040Y-83688742D01*
X131708447Y-83650190D01*
X131708446Y-83650190D01*
X131601444Y-83650190D01*
X131601438Y-83650190D01*
X131495441Y-83664759D01*
X131495439Y-83664759D01*
X131495438Y-83664760D01*
X131441572Y-83688157D01*
X131364375Y-83721689D01*
X131253531Y-83811867D01*
X131171132Y-83928600D01*
X131171127Y-83928608D01*
X131123279Y-84063243D01*
X131123276Y-84063255D01*
X131113525Y-84205805D01*
X131142598Y-84345708D01*
X131208337Y-84472581D01*
X131208338Y-84472583D01*
X131271221Y-84539913D01*
X131291035Y-84586493D01*
X131276272Y-84634911D01*
X131239292Y-84661028D01*
X131190615Y-84676300D01*
X131190614Y-84676301D01*
X131012782Y-84775006D01*
X131012777Y-84775010D01*
X130858471Y-84907477D01*
X130858468Y-84907479D01*
X130733982Y-85068303D01*
X130733980Y-85068305D01*
X130644413Y-85250902D01*
X130644411Y-85250907D01*
X130618754Y-85350000D01*
X131420889Y-85350000D01*
X131381390Y-85374457D01*
X131313799Y-85463962D01*
X131283105Y-85571840D01*
X131293454Y-85683521D01*
X131343448Y-85783922D01*
X131415931Y-85850000D01*
X130613633Y-85850000D01*
X129325246Y-85850000D01*
X128523111Y-85850000D01*
X128562610Y-85825543D01*
X128630201Y-85736038D01*
X128660895Y-85628160D01*
X128650546Y-85516479D01*
X128600552Y-85416078D01*
X128528069Y-85350000D01*
X129330367Y-85350000D01*
X129330069Y-85348059D01*
X129330068Y-85348054D01*
X129259434Y-85157334D01*
X129151855Y-84984739D01*
X129011731Y-84837328D01*
X128844801Y-84721142D01*
X128657911Y-84640941D01*
X128657901Y-84640938D01*
X128458696Y-84600000D01*
X128207000Y-84600000D01*
X128207000Y-85300000D01*
X127707000Y-85300000D01*
X127707000Y-84600000D01*
X127506280Y-84600000D01*
X127354666Y-84615417D01*
X127354661Y-84615419D01*
X127160615Y-84676300D01*
X127160614Y-84676301D01*
X126982782Y-84775006D01*
X126982777Y-84775010D01*
X126828471Y-84907477D01*
X126828468Y-84907479D01*
X126703982Y-85068303D01*
X126703980Y-85068305D01*
X126614413Y-85250902D01*
X126614411Y-85250907D01*
X126588754Y-85350000D01*
X127390889Y-85350000D01*
X127351390Y-85374457D01*
X127283799Y-85463962D01*
X127253105Y-85571840D01*
X127263454Y-85683521D01*
X127313448Y-85783922D01*
X127385931Y-85850000D01*
X126583633Y-85850000D01*
X125222501Y-85850000D01*
X125222501Y-82296000D01*
X131116867Y-82296000D01*
X131135302Y-82424223D01*
X131135302Y-82424224D01*
X131135303Y-82424226D01*
X131189118Y-82542063D01*
X131273951Y-82639967D01*
X131382931Y-82710004D01*
X131507228Y-82746500D01*
X131636772Y-82746500D01*
X131761069Y-82710004D01*
X131870049Y-82639967D01*
X131954882Y-82542063D01*
X132008697Y-82424226D01*
X132027133Y-82296000D01*
X132008697Y-82167774D01*
X131954882Y-82049937D01*
X131870049Y-81952033D01*
X131870047Y-81952031D01*
X131870043Y-81952027D01*
X131868688Y-81950853D01*
X131868082Y-81949764D01*
X131866583Y-81948034D01*
X131866945Y-81947720D01*
X131844079Y-81906619D01*
X131843150Y-81894930D01*
X131843150Y-81427069D01*
X131860463Y-81379503D01*
X131868700Y-81371135D01*
X131870046Y-81369968D01*
X131870049Y-81369967D01*
X131870051Y-81369964D01*
X131870054Y-81369962D01*
X131954879Y-81272067D01*
X131954880Y-81272065D01*
X131954879Y-81272065D01*
X131954882Y-81272063D01*
X132008697Y-81154226D01*
X132027133Y-81026000D01*
X132008697Y-80897774D01*
X131954882Y-80779937D01*
X131870049Y-80682033D01*
X131803032Y-80638964D01*
X131761068Y-80611995D01*
X131636772Y-80575500D01*
X131507228Y-80575500D01*
X131382931Y-80611995D01*
X131273954Y-80682031D01*
X131273950Y-80682034D01*
X131189119Y-80779935D01*
X131135302Y-80897776D01*
X131116867Y-81026000D01*
X131135302Y-81154223D01*
X131189119Y-81272065D01*
X131189120Y-81272067D01*
X131273945Y-81369962D01*
X131275300Y-81371135D01*
X131275906Y-81372224D01*
X131277417Y-81373968D01*
X131277052Y-81374283D01*
X131299918Y-81415364D01*
X131300850Y-81427069D01*
X131300850Y-81894930D01*
X131283537Y-81942496D01*
X131275312Y-81950853D01*
X131273956Y-81952027D01*
X131189119Y-82049935D01*
X131135302Y-82167776D01*
X131116867Y-82296000D01*
X125222501Y-82296000D01*
X125222501Y-77218608D01*
X125222688Y-77213386D01*
X125222930Y-77210000D01*
X126583633Y-77210000D01*
X126583930Y-77211940D01*
X126583931Y-77211945D01*
X126654565Y-77402665D01*
X126762144Y-77575260D01*
X126902268Y-77722671D01*
X127069198Y-77838857D01*
X127256088Y-77919058D01*
X127256098Y-77919061D01*
X127455303Y-77959999D01*
X127455311Y-77960000D01*
X127707000Y-77960000D01*
X127707000Y-77260000D01*
X128207000Y-77260000D01*
X128207000Y-77960000D01*
X128407711Y-77960000D01*
X128407719Y-77959999D01*
X128559333Y-77944582D01*
X128559338Y-77944580D01*
X128753384Y-77883699D01*
X128753385Y-77883698D01*
X128931217Y-77784993D01*
X128931222Y-77784989D01*
X129085528Y-77652522D01*
X129085531Y-77652520D01*
X129210017Y-77491696D01*
X129210019Y-77491694D01*
X129299586Y-77309097D01*
X129299588Y-77309092D01*
X129325246Y-77210000D01*
X130613633Y-77210000D01*
X130613930Y-77211940D01*
X130613931Y-77211945D01*
X130684565Y-77402665D01*
X130792144Y-77575260D01*
X130932268Y-77722671D01*
X131099197Y-77838857D01*
X131243169Y-77900639D01*
X131280053Y-77935306D01*
X131286024Y-77985572D01*
X131260690Y-78026042D01*
X131253535Y-78031863D01*
X131253531Y-78031867D01*
X131171132Y-78148600D01*
X131171127Y-78148608D01*
X131123279Y-78283243D01*
X131123276Y-78283255D01*
X131113525Y-78425805D01*
X131142598Y-78565708D01*
X131208337Y-78692581D01*
X131208338Y-78692583D01*
X131240432Y-78726946D01*
X131305870Y-78797013D01*
X131427960Y-78871258D01*
X131513553Y-78895240D01*
X131565553Y-78909810D01*
X131565554Y-78909810D01*
X131672549Y-78909810D01*
X131672556Y-78909810D01*
X131778562Y-78895240D01*
X131909624Y-78838311D01*
X132020467Y-78748134D01*
X132102871Y-78631395D01*
X132150722Y-78496753D01*
X132151938Y-78478988D01*
X132160474Y-78354193D01*
X132145730Y-78283243D01*
X132131401Y-78214290D01*
X132065662Y-78087418D01*
X132065661Y-78087416D01*
X131974066Y-77989343D01*
X131968130Y-77982987D01*
X131968129Y-77982986D01*
X131922549Y-77955267D01*
X131890904Y-77915759D01*
X131887000Y-77892041D01*
X131887000Y-77260000D01*
X132387000Y-77260000D01*
X132387000Y-77960000D01*
X132737711Y-77960000D01*
X132737719Y-77959999D01*
X132889333Y-77944582D01*
X132889338Y-77944580D01*
X133083384Y-77883699D01*
X133083385Y-77883698D01*
X133261217Y-77784993D01*
X133261222Y-77784989D01*
X133415528Y-77652522D01*
X133415531Y-77652520D01*
X133540017Y-77491696D01*
X133540019Y-77491694D01*
X133629586Y-77309097D01*
X133629588Y-77309092D01*
X133655246Y-77210000D01*
X159201633Y-77210000D01*
X159201930Y-77211940D01*
X159201931Y-77211945D01*
X159272565Y-77402665D01*
X159380144Y-77575260D01*
X159520268Y-77722671D01*
X159687198Y-77838857D01*
X159874088Y-77919058D01*
X159874098Y-77919061D01*
X160073303Y-77959999D01*
X160073311Y-77960000D01*
X160475000Y-77960000D01*
X160475000Y-77260000D01*
X160975000Y-77260000D01*
X160975000Y-77888090D01*
X160957687Y-77935656D01*
X160947700Y-77945493D01*
X160841531Y-78031867D01*
X160759132Y-78148600D01*
X160759127Y-78148608D01*
X160711279Y-78283243D01*
X160711276Y-78283255D01*
X160701525Y-78425805D01*
X160730598Y-78565708D01*
X160796337Y-78692581D01*
X160796338Y-78692583D01*
X160828432Y-78726946D01*
X160893870Y-78797013D01*
X161015960Y-78871258D01*
X161101553Y-78895240D01*
X161153553Y-78909810D01*
X161153554Y-78909810D01*
X161260549Y-78909810D01*
X161260556Y-78909810D01*
X161366562Y-78895240D01*
X161497624Y-78838311D01*
X161608467Y-78748134D01*
X161690871Y-78631395D01*
X161738722Y-78496753D01*
X161739938Y-78478988D01*
X161748474Y-78354193D01*
X161733730Y-78283243D01*
X161719401Y-78214290D01*
X161653662Y-78087418D01*
X161653661Y-78087416D01*
X161590778Y-78020086D01*
X161570964Y-77973506D01*
X161585727Y-77925088D01*
X161622708Y-77898970D01*
X161671389Y-77883696D01*
X161849217Y-77784993D01*
X161849222Y-77784989D01*
X162003528Y-77652522D01*
X162003531Y-77652520D01*
X162128017Y-77491696D01*
X162128019Y-77491694D01*
X162217586Y-77309097D01*
X162217588Y-77309092D01*
X162243246Y-77210000D01*
X163531633Y-77210000D01*
X163531930Y-77211940D01*
X163531931Y-77211945D01*
X163602565Y-77402665D01*
X163710144Y-77575260D01*
X163850268Y-77722671D01*
X164017198Y-77838857D01*
X164204088Y-77919058D01*
X164204098Y-77919061D01*
X164403303Y-77959999D01*
X164403311Y-77960000D01*
X164655000Y-77960000D01*
X164655000Y-77260000D01*
X165155000Y-77260000D01*
X165155000Y-77960000D01*
X165355711Y-77960000D01*
X165355719Y-77959999D01*
X165507333Y-77944582D01*
X165507338Y-77944580D01*
X165701384Y-77883699D01*
X165701385Y-77883698D01*
X165879217Y-77784993D01*
X165879222Y-77784989D01*
X166033528Y-77652522D01*
X166033531Y-77652520D01*
X166158017Y-77491696D01*
X166158019Y-77491694D01*
X166247586Y-77309097D01*
X166247588Y-77309092D01*
X166273246Y-77210000D01*
X165471111Y-77210000D01*
X165510610Y-77185543D01*
X165578201Y-77096038D01*
X165608895Y-76988160D01*
X165598546Y-76876479D01*
X165548552Y-76776078D01*
X165476069Y-76710000D01*
X166278367Y-76710000D01*
X166278069Y-76708059D01*
X166278068Y-76708054D01*
X166207434Y-76517334D01*
X166099855Y-76344739D01*
X165959731Y-76197328D01*
X165792801Y-76081142D01*
X165605911Y-76000941D01*
X165605901Y-76000938D01*
X165406696Y-75960000D01*
X165155000Y-75960000D01*
X165155000Y-76660000D01*
X164655000Y-76660000D01*
X164655000Y-75960000D01*
X164454280Y-75960000D01*
X164302666Y-75975417D01*
X164302661Y-75975419D01*
X164108615Y-76036300D01*
X164108614Y-76036301D01*
X163930782Y-76135006D01*
X163930777Y-76135010D01*
X163776471Y-76267477D01*
X163776468Y-76267479D01*
X163651982Y-76428303D01*
X163651980Y-76428305D01*
X163562413Y-76610902D01*
X163562411Y-76610907D01*
X163536754Y-76710000D01*
X164338889Y-76710000D01*
X164299390Y-76734457D01*
X164231799Y-76823962D01*
X164201105Y-76931840D01*
X164211454Y-77043521D01*
X164261448Y-77143922D01*
X164333931Y-77210000D01*
X163531633Y-77210000D01*
X162243246Y-77210000D01*
X161441111Y-77210000D01*
X161480610Y-77185543D01*
X161548201Y-77096038D01*
X161578895Y-76988160D01*
X161568546Y-76876479D01*
X161518552Y-76776078D01*
X161446069Y-76710000D01*
X162248367Y-76710000D01*
X162248069Y-76708059D01*
X162248068Y-76708054D01*
X162177434Y-76517334D01*
X162069855Y-76344739D01*
X161929731Y-76197328D01*
X161762801Y-76081142D01*
X161575911Y-76000941D01*
X161575901Y-76000938D01*
X161376696Y-75960000D01*
X160975000Y-75960000D01*
X160975000Y-76660000D01*
X160475000Y-76660000D01*
X160475000Y-75960000D01*
X160124280Y-75960000D01*
X159972666Y-75975417D01*
X159972661Y-75975419D01*
X159778615Y-76036300D01*
X159778614Y-76036301D01*
X159600782Y-76135006D01*
X159600777Y-76135010D01*
X159446471Y-76267477D01*
X159446468Y-76267479D01*
X159321982Y-76428303D01*
X159321980Y-76428305D01*
X159232413Y-76610902D01*
X159232411Y-76610907D01*
X159206754Y-76710000D01*
X160008889Y-76710000D01*
X159969390Y-76734457D01*
X159901799Y-76823962D01*
X159871105Y-76931840D01*
X159881454Y-77043521D01*
X159931448Y-77143922D01*
X160003931Y-77210000D01*
X159201633Y-77210000D01*
X133655246Y-77210000D01*
X132853111Y-77210000D01*
X132892610Y-77185543D01*
X132960201Y-77096038D01*
X132990895Y-76988160D01*
X132980546Y-76876479D01*
X132930552Y-76776078D01*
X132858069Y-76710000D01*
X133660367Y-76710000D01*
X133660069Y-76708059D01*
X133660068Y-76708054D01*
X133589434Y-76517334D01*
X133481855Y-76344739D01*
X133341731Y-76197328D01*
X133174801Y-76081142D01*
X132987911Y-76000941D01*
X132987901Y-76000938D01*
X132788696Y-75960000D01*
X132387000Y-75960000D01*
X132387000Y-76660000D01*
X131887000Y-76660000D01*
X131887000Y-75960000D01*
X131536280Y-75960000D01*
X131384666Y-75975417D01*
X131384661Y-75975419D01*
X131190615Y-76036300D01*
X131190614Y-76036301D01*
X131012782Y-76135006D01*
X131012777Y-76135010D01*
X130858471Y-76267477D01*
X130858468Y-76267479D01*
X130733982Y-76428303D01*
X130733980Y-76428305D01*
X130644413Y-76610902D01*
X130644411Y-76610907D01*
X130618754Y-76710000D01*
X131420889Y-76710000D01*
X131381390Y-76734457D01*
X131313799Y-76823962D01*
X131283105Y-76931840D01*
X131293454Y-77043521D01*
X131343448Y-77143922D01*
X131415931Y-77210000D01*
X130613633Y-77210000D01*
X129325246Y-77210000D01*
X128523111Y-77210000D01*
X128562610Y-77185543D01*
X128630201Y-77096038D01*
X128660895Y-76988160D01*
X128650546Y-76876479D01*
X128600552Y-76776078D01*
X128528069Y-76710000D01*
X129330367Y-76710000D01*
X129330069Y-76708059D01*
X129330068Y-76708054D01*
X129259434Y-76517334D01*
X129151855Y-76344739D01*
X129011731Y-76197328D01*
X128844801Y-76081142D01*
X128657911Y-76000941D01*
X128657901Y-76000938D01*
X128458696Y-75960000D01*
X128207000Y-75960000D01*
X128207000Y-76660000D01*
X127707000Y-76660000D01*
X127707000Y-75960000D01*
X127506280Y-75960000D01*
X127354666Y-75975417D01*
X127354661Y-75975419D01*
X127160615Y-76036300D01*
X127160614Y-76036301D01*
X126982782Y-76135006D01*
X126982777Y-76135010D01*
X126828471Y-76267477D01*
X126828468Y-76267479D01*
X126703982Y-76428303D01*
X126703980Y-76428305D01*
X126614413Y-76610902D01*
X126614411Y-76610907D01*
X126588754Y-76710000D01*
X127390889Y-76710000D01*
X127351390Y-76734457D01*
X127283799Y-76823962D01*
X127253105Y-76931840D01*
X127263454Y-77043521D01*
X127313448Y-77143922D01*
X127385931Y-77210000D01*
X126583633Y-77210000D01*
X125222930Y-77210000D01*
X125227472Y-77146499D01*
X125227496Y-77146186D01*
X125239269Y-76996598D01*
X125239271Y-76996568D01*
X125240730Y-76986671D01*
X125261288Y-76892169D01*
X125261595Y-76890827D01*
X125289795Y-76773368D01*
X125292405Y-76764819D01*
X125328133Y-76669028D01*
X125329069Y-76666651D01*
X125373131Y-76560275D01*
X125376544Y-76553143D01*
X125426584Y-76461500D01*
X125428374Y-76458409D01*
X125487459Y-76361992D01*
X125491269Y-76356377D01*
X125554410Y-76272030D01*
X125557317Y-76268397D01*
X125630232Y-76183025D01*
X125634138Y-76178799D01*
X125708807Y-76104130D01*
X125713021Y-76100235D01*
X125798374Y-76027337D01*
X125802053Y-76024392D01*
X125886383Y-75961264D01*
X125891997Y-75957455D01*
X125988401Y-75898378D01*
X125991513Y-75896577D01*
X126083172Y-75846527D01*
X126090269Y-75843132D01*
X126196602Y-75799088D01*
X126199004Y-75798142D01*
X126294849Y-75762394D01*
X126303374Y-75759792D01*
X126420780Y-75731605D01*
X126422046Y-75731315D01*
X126516696Y-75710725D01*
X126526576Y-75709269D01*
X126676012Y-75697507D01*
X126743405Y-75692687D01*
X126748674Y-75692500D01*
X166084848Y-75692500D01*
X166084851Y-75692502D01*
G37*
%TD.AperFunction*%
%TD*%
M02*
