M48
; DRILL file {KiCad 7.0.10} date Wed Feb 21 00:47:17 2024
; FORMAT={-:-/ absolute / inch / decimal}
; #@! TF.CreationDate,2024-02-21T00:47:17-06:00
; #@! TF.GenerationSoftware,Kicad,Pcbnew,7.0.10
; #@! TF.FileFunction,Plated,1,2,PTH
FMAT,2
INCH
; #@! TA.AperFunction,Plated,PTH,ViaDrill
T1C0.0118
; #@! TA.AperFunction,Plated,PTH,ViaDrill
T2C0.0157
; #@! TA.AperFunction,Plated,PTH,ComponentDrill
T3C0.0236
; #@! TA.AperFunction,Plated,PTH,ComponentDrill
T4C0.1063
%
G90
G05
T1
X5.18Y-3.19
X5.18Y-3.24
X5.28Y-3.105
X5.28Y-3.135
X5.28Y-3.265
X5.28Y-3.295
X5.29Y-3.81
X5.29Y-3.96
X5.29Y-3.99
X5.31Y-3.105
X5.31Y-3.135
X5.31Y-3.265
X5.31Y-3.295
X5.3175Y-3.6425
X5.61Y-3.86
X5.89Y-3.5
X5.89Y-3.53
X5.89Y-3.56
X5.89Y-3.59
X5.89Y-3.62
X5.97Y-3.845
X5.97Y-3.875
X5.97Y-3.905
X5.97Y-3.935
X5.97Y-3.965
X5.97Y-3.995
X5.97Y-4.025
X5.995Y-3.11
X6.0Y-4.025
X6.025Y-3.11
X6.055Y-3.11
X6.085Y-3.11
X6.24Y-3.81
X6.24Y-3.84
X6.24Y-3.96
X6.24Y-3.99
T2
X5.175Y-3.97
X5.3669Y-3.8307
X5.61Y-3.525
X5.6686Y-3.9179
X5.67Y-3.525
X5.6907Y-3.6907
X5.701Y-3.865
X5.73Y-3.525
X5.7347Y-3.851
X5.735Y-3.885
X5.79Y-3.525
X6.045Y-3.6674
X6.085Y-3.6674
X6.125Y-3.6674
X6.165Y-3.6674
T4
X5.4816Y-3.34
X5.6784Y-3.34
T3
G00X5.0534Y-3.0299
M15
G01X5.0219Y-3.0299
M16
G05
G00X5.0534Y-3.3701
M15
G01X5.0219Y-3.3701
M16
G05
G00X5.0534Y-3.7299
M15
G01X5.0219Y-3.7299
M16
G05
G00X5.0534Y-4.0701
M15
G01X5.0219Y-4.0701
M16
G05
G00X5.2239Y-3.0299
M15
G01X5.1806Y-3.0299
M16
G05
G00X5.2239Y-3.3701
M15
G01X5.1806Y-3.3701
M16
G05
G00X5.2239Y-3.7299
M15
G01X5.1806Y-3.7299
M16
G05
G00X5.2239Y-4.0701
M15
G01X5.1806Y-4.0701
M16
G05
G00X6.3061Y-3.0299
M15
G01X6.3494Y-3.0299
M16
G05
G00X6.3061Y-3.3701
M15
G01X6.3494Y-3.3701
M16
G05
G00X6.3061Y-3.7299
M15
G01X6.3494Y-3.7299
M16
G05
G00X6.3061Y-4.0701
M15
G01X6.3494Y-4.0701
M16
G05
G00X6.4766Y-3.0299
M15
G01X6.5081Y-3.0299
M16
G05
G00X6.4766Y-3.3701
M15
G01X6.5081Y-3.3701
M16
G05
G00X6.4766Y-3.7299
M15
G01X6.5081Y-3.7299
M16
G05
G00X6.4766Y-4.0701
M15
G01X6.5081Y-4.0701
M16
G05
M30
