%TF.GenerationSoftware,KiCad,Pcbnew,7.0.10*%
%TF.CreationDate,2024-02-21T00:47:17-06:00*%
%TF.ProjectId,Power-Module,506f7765-722d-44d6-9f64-756c652e6b69,rev?*%
%TF.SameCoordinates,Original*%
%TF.FileFunction,Copper,L1,Top*%
%TF.FilePolarity,Positive*%
%FSLAX46Y46*%
G04 Gerber Fmt 4.6, Leading zero omitted, Abs format (unit mm)*
G04 Created by KiCad (PCBNEW 7.0.10) date 2024-02-21 00:47:17*
%MOMM*%
%LPD*%
G01*
G04 APERTURE LIST*
G04 Aperture macros list*
%AMRoundRect*
0 Rectangle with rounded corners*
0 $1 Rounding radius*
0 $2 $3 $4 $5 $6 $7 $8 $9 X,Y pos of 4 corners*
0 Add a 4 corners polygon primitive as box body*
4,1,4,$2,$3,$4,$5,$6,$7,$8,$9,$2,$3,0*
0 Add four circle primitives for the rounded corners*
1,1,$1+$1,$2,$3*
1,1,$1+$1,$4,$5*
1,1,$1+$1,$6,$7*
1,1,$1+$1,$8,$9*
0 Add four rect primitives between the rounded corners*
20,1,$1+$1,$2,$3,$4,$5,0*
20,1,$1+$1,$4,$5,$6,$7,0*
20,1,$1+$1,$6,$7,$8,$9,0*
20,1,$1+$1,$8,$9,$2,$3,0*%
%AMFreePoly0*
4,1,7,1.730000,-0.250000,0.800000,-0.250000,0.800000,-0.550000,-0.220000,-0.550000,-0.220000,0.150000,1.730000,0.150000,1.730000,-0.250000,1.730000,-0.250000,$1*%
%AMFreePoly1*
4,1,9,0.465000,0.195000,0.465000,-0.045000,0.165000,-0.345000,-0.325000,-0.345000,-0.635000,-0.045000,-0.635000,0.195000,-0.325000,0.505000,0.165000,0.505000,0.465000,0.195000,0.465000,0.195000,$1*%
%AMFreePoly2*
4,1,7,0.370000,0.275000,1.300000,0.275000,1.300000,-0.175000,-0.650000,-0.175000,-0.650000,0.575000,0.370000,0.575000,0.370000,0.275000,0.370000,0.275000,$1*%
G04 Aperture macros list end*
%TA.AperFunction,ComponentPad*%
%ADD10C,4.000000*%
%TD*%
%TA.AperFunction,ComponentPad*%
%ADD11R,3.800000X3.800000*%
%TD*%
%TA.AperFunction,SMDPad,CuDef*%
%ADD12R,3.300000X2.100000*%
%TD*%
%TA.AperFunction,SMDPad,CuDef*%
%ADD13R,0.600000X1.500000*%
%TD*%
%TA.AperFunction,SMDPad,CuDef*%
%ADD14R,1.000000X1.500000*%
%TD*%
%TA.AperFunction,SMDPad,CuDef*%
%ADD15RoundRect,0.200000X0.200000X0.275000X-0.200000X0.275000X-0.200000X-0.275000X0.200000X-0.275000X0*%
%TD*%
%TA.AperFunction,SMDPad,CuDef*%
%ADD16R,2.400000X3.200000*%
%TD*%
%TA.AperFunction,SMDPad,CuDef*%
%ADD17RoundRect,0.250000X0.475000X-0.250000X0.475000X0.250000X-0.475000X0.250000X-0.475000X-0.250000X0*%
%TD*%
%TA.AperFunction,SMDPad,CuDef*%
%ADD18RoundRect,0.225000X-0.225000X-0.250000X0.225000X-0.250000X0.225000X0.250000X-0.225000X0.250000X0*%
%TD*%
%TA.AperFunction,SMDPad,CuDef*%
%ADD19RoundRect,0.225000X0.250000X-0.225000X0.250000X0.225000X-0.250000X0.225000X-0.250000X-0.225000X0*%
%TD*%
%TA.AperFunction,ComponentPad*%
%ADD20O,1.800000X1.000000*%
%TD*%
%TA.AperFunction,ComponentPad*%
%ADD21O,2.100000X1.000000*%
%TD*%
%TA.AperFunction,SMDPad,CuDef*%
%ADD22RoundRect,0.150000X-0.425000X0.150000X-0.425000X-0.150000X0.425000X-0.150000X0.425000X0.150000X0*%
%TD*%
%TA.AperFunction,SMDPad,CuDef*%
%ADD23RoundRect,0.075000X-0.500000X0.075000X-0.500000X-0.075000X0.500000X-0.075000X0.500000X0.075000X0*%
%TD*%
%TA.AperFunction,SMDPad,CuDef*%
%ADD24FreePoly0,90.000000*%
%TD*%
%TA.AperFunction,SMDPad,CuDef*%
%ADD25FreePoly1,90.000000*%
%TD*%
%TA.AperFunction,SMDPad,CuDef*%
%ADD26FreePoly2,90.000000*%
%TD*%
%TA.AperFunction,SMDPad,CuDef*%
%ADD27R,0.750000X1.100000*%
%TD*%
%TA.AperFunction,SMDPad,CuDef*%
%ADD28R,0.260000X1.100000*%
%TD*%
%TA.AperFunction,SMDPad,CuDef*%
%ADD29R,0.600000X0.250000*%
%TD*%
%TA.AperFunction,SMDPad,CuDef*%
%ADD30RoundRect,0.150000X0.425000X-0.150000X0.425000X0.150000X-0.425000X0.150000X-0.425000X-0.150000X0*%
%TD*%
%TA.AperFunction,SMDPad,CuDef*%
%ADD31RoundRect,0.075000X0.500000X-0.075000X0.500000X0.075000X-0.500000X0.075000X-0.500000X-0.075000X0*%
%TD*%
%TA.AperFunction,SMDPad,CuDef*%
%ADD32RoundRect,0.200000X0.275000X-0.200000X0.275000X0.200000X-0.275000X0.200000X-0.275000X-0.200000X0*%
%TD*%
%TA.AperFunction,SMDPad,CuDef*%
%ADD33RoundRect,0.200000X-0.200000X-0.275000X0.200000X-0.275000X0.200000X0.275000X-0.200000X0.275000X0*%
%TD*%
%TA.AperFunction,ViaPad*%
%ADD34C,0.600000*%
%TD*%
%TA.AperFunction,ViaPad*%
%ADD35C,0.800000*%
%TD*%
%TA.AperFunction,Conductor*%
%ADD36C,0.250000*%
%TD*%
%TA.AperFunction,Conductor*%
%ADD37C,0.500000*%
%TD*%
%TA.AperFunction,Conductor*%
%ADD38C,0.241300*%
%TD*%
%TA.AperFunction,Conductor*%
%ADD39C,1.000000*%
%TD*%
G04 APERTURE END LIST*
D10*
%TO.P,J5,2,Pin_2*%
%TO.N,/Buck/Vin*%
X144232000Y-84836000D03*
D11*
%TO.P,J5,1,Pin_1*%
%TO.N,GND*%
X139232000Y-84836000D03*
%TD*%
D12*
%TO.P,U1,11,GND*%
%TO.N,GND*%
X138938000Y-98552000D03*
D13*
%TO.P,U1,10,PG*%
%TO.N,unconnected-(U1-PG-Pad10)*%
X136938000Y-95552000D03*
%TO.P,U1,9,CFG1*%
%TO.N,Net-(U1-CFG1)*%
X137938000Y-95552000D03*
%TO.P,U1,8,VBUS*%
%TO.N,Net-(U1-VBUS)*%
X138938000Y-95552000D03*
%TO.P,U1,7,CC1*%
%TO.N,Net-(J1-CC1)*%
X139938000Y-95552000D03*
%TO.P,U1,6,CC2*%
%TO.N,Net-(J1-CC2)*%
X140938000Y-95552000D03*
%TO.P,U1,5,DM*%
%TO.N,/PD_D-*%
X140938000Y-101552000D03*
%TO.P,U1,4,DP*%
%TO.N,/PD_D+*%
X139938000Y-101552000D03*
%TO.P,U1,3,CFG3*%
%TO.N,unconnected-(U1-CFG3-Pad3)*%
X138938000Y-101552000D03*
%TO.P,U1,2,CFG2*%
%TO.N,unconnected-(U1-CFG2-Pad2)*%
X137938000Y-101552000D03*
%TO.P,U1,1,VDD*%
%TO.N,Net-(U1-VDD)*%
X136938000Y-101552000D03*
%TD*%
D14*
%TO.P,JP1,1,A*%
%TO.N,+5V*%
X156703000Y-78867000D03*
%TO.P,JP1,2,B*%
%TO.N,/OPT_PWR*%
X158003000Y-78867000D03*
%TD*%
D15*
%TO.P,R1,1*%
%TO.N,Net-(U1-CFG1)*%
X137731000Y-93853000D03*
%TO.P,R1,2*%
%TO.N,GND*%
X136081000Y-93853000D03*
%TD*%
D16*
%TO.P,L1,1,1*%
%TO.N,/Buck/LX*%
X148257000Y-100838000D03*
%TO.P,L1,2,2*%
%TO.N,+5V*%
X154257000Y-100838000D03*
%TD*%
D17*
%TO.P,C7,1*%
%TO.N,+5V*%
X151511000Y-96327000D03*
%TO.P,C7,2*%
%TO.N,GND*%
X151511000Y-94427000D03*
%TD*%
D18*
%TO.P,C5,2*%
%TO.N,/Buck/LX*%
X146571000Y-99822000D03*
%TO.P,C5,1*%
%TO.N,Net-(U2-BS)*%
X145021000Y-99822000D03*
%TD*%
D19*
%TO.P,C2,1*%
%TO.N,/Buck/Vin*%
X147828000Y-92088000D03*
%TO.P,C2,2*%
%TO.N,GND*%
X147828000Y-90538000D03*
%TD*%
D20*
%TO.P,J2,S1,SHIELD*%
%TO.N,GND*%
X127957000Y-85600000D03*
D21*
X132137000Y-85600000D03*
D20*
X127957000Y-76960000D03*
D21*
X132137000Y-76960000D03*
D22*
%TO.P,J2,B12,GND*%
X132712000Y-78080000D03*
%TO.P,J2,B9,VBUS*%
%TO.N,+5V*%
X132712000Y-78880000D03*
D23*
%TO.P,J2,B8*%
%TO.N,N/C*%
X132712000Y-79530000D03*
%TO.P,J2,B7,D-*%
%TO.N,/USB_D-*%
X132712000Y-80530000D03*
%TO.P,J2,B6,D+*%
%TO.N,/USB_D+*%
X132712000Y-82030000D03*
%TO.P,J2,B5,CC2*%
%TO.N,unconnected-(J2-CC2-PadB5)*%
X132712000Y-83030000D03*
D22*
%TO.P,J2,B4,VBUS*%
%TO.N,+5V*%
X132712000Y-83680000D03*
%TO.P,J2,B1,GND*%
%TO.N,GND*%
X132712000Y-84480000D03*
%TO.P,J2,A12,GND*%
X132712000Y-84480000D03*
%TO.P,J2,A9,VBUS*%
%TO.N,+5V*%
X132712000Y-83680000D03*
D23*
%TO.P,J2,A8*%
%TO.N,N/C*%
X132712000Y-82530000D03*
%TO.P,J2,A7,D-*%
%TO.N,/USB_D-*%
X132712000Y-81530000D03*
%TO.P,J2,A6,D+*%
%TO.N,/USB_D+*%
X132712000Y-81030000D03*
%TO.P,J2,A5,CC1*%
%TO.N,unconnected-(J2-CC1-PadA5)*%
X132712000Y-80030000D03*
D22*
%TO.P,J2,A4,VBUS*%
%TO.N,+5V*%
X132712000Y-78880000D03*
%TO.P,J2,A1,GND*%
%TO.N,GND*%
X132712000Y-78080000D03*
%TD*%
D24*
%TO.P,U2,1,GND*%
%TO.N,GND*%
X145346000Y-96874000D03*
D25*
%TO.P,U2,2,LX*%
%TO.N,/Buck/LX*%
X146371000Y-95299000D03*
D26*
%TO.P,U2,3,GND*%
%TO.N,GND*%
X147221000Y-96424000D03*
D27*
%TO.P,U2,4,IN*%
%TO.N,/Buck/Vin*%
X147046000Y-94234000D03*
D28*
%TO.P,U2,5,IN*%
X145796000Y-94234000D03*
%TO.P,U2,6,IN*%
X145346000Y-94234000D03*
D29*
%TO.P,U2,7,BS*%
%TO.N,Net-(U2-BS)*%
X144646000Y-94264000D03*
%TO.P,U2,8,VCC*%
%TO.N,Net-(U2-VCC)*%
X144646000Y-94714000D03*
%TO.P,U2,9,FB*%
%TO.N,Net-(U2-FB)*%
X144646000Y-95164000D03*
%TO.P,U2,10,ILMT*%
%TO.N,unconnected-(U2-ILMT-Pad10)*%
X144646000Y-95614000D03*
%TO.P,U2,11,PG*%
%TO.N,unconnected-(U2-PG-Pad11)*%
X144646000Y-96064000D03*
%TO.P,U2,12,EN*%
%TO.N,/Buck/Vin*%
X144646000Y-96514000D03*
%TD*%
D30*
%TO.P,J3,A1,GND*%
%TO.N,GND*%
X160150000Y-84480000D03*
%TO.P,J3,A4,VBUS*%
%TO.N,/OPT_PWR*%
X160150000Y-83680000D03*
D31*
%TO.P,J3,A5,CC1*%
%TO.N,unconnected-(J3-CC1-PadA5)*%
X160150000Y-82530000D03*
%TO.P,J3,A6,D+*%
%TO.N,/USB_D+*%
X160150000Y-81530000D03*
%TO.P,J3,A7,D-*%
%TO.N,/USB_D-*%
X160150000Y-81030000D03*
%TO.P,J3,A8*%
%TO.N,N/C*%
X160150000Y-80030000D03*
D30*
%TO.P,J3,A9,VBUS*%
%TO.N,/OPT_PWR*%
X160150000Y-78880000D03*
%TO.P,J3,A12,GND*%
%TO.N,GND*%
X160150000Y-78080000D03*
%TO.P,J3,B1,GND*%
X160150000Y-78080000D03*
%TO.P,J3,B4,VBUS*%
%TO.N,/OPT_PWR*%
X160150000Y-78880000D03*
D31*
%TO.P,J3,B5,CC2*%
%TO.N,unconnected-(J3-CC2-PadB5)*%
X160150000Y-79530000D03*
%TO.P,J3,B6,D+*%
%TO.N,/USB_D+*%
X160150000Y-80530000D03*
%TO.P,J3,B7,D-*%
%TO.N,/USB_D-*%
X160150000Y-82030000D03*
%TO.P,J3,B8*%
%TO.N,N/C*%
X160150000Y-83030000D03*
D30*
%TO.P,J3,B9,VBUS*%
%TO.N,/OPT_PWR*%
X160150000Y-83680000D03*
%TO.P,J3,B12,GND*%
%TO.N,GND*%
X160150000Y-84480000D03*
D21*
%TO.P,J3,S1,SHIELD*%
X160725000Y-85600000D03*
D20*
X164905000Y-85600000D03*
D21*
X160725000Y-76960000D03*
D20*
X164905000Y-76960000D03*
%TD*%
D19*
%TO.P,C3,1*%
%TO.N,/Buck/Vin*%
X146304000Y-92101000D03*
%TO.P,C3,2*%
%TO.N,GND*%
X146304000Y-90551000D03*
%TD*%
D17*
%TO.P,C8,1*%
%TO.N,+5V*%
X153543000Y-96327000D03*
%TO.P,C8,2*%
%TO.N,GND*%
X153543000Y-94427000D03*
%TD*%
D32*
%TO.P,R7,2*%
%TO.N,GND*%
X143256000Y-90488000D03*
%TO.P,R7,1*%
%TO.N,Net-(U2-FB)*%
X143256000Y-92138000D03*
%TD*%
D30*
%TO.P,J4,A1,GND*%
%TO.N,GND*%
X160150000Y-102260000D03*
%TO.P,J4,A4,VBUS*%
%TO.N,+5V*%
X160150000Y-101460000D03*
D31*
%TO.P,J4,A5,CC1*%
%TO.N,unconnected-(J4-CC1-PadA5)*%
X160150000Y-100310000D03*
%TO.P,J4,A6,D+*%
%TO.N,unconnected-(J4-D+-PadA6)*%
X160150000Y-99310000D03*
%TO.P,J4,A7,D-*%
%TO.N,unconnected-(J4-D--PadA7)*%
X160150000Y-98810000D03*
%TO.P,J4,A8*%
%TO.N,N/C*%
X160150000Y-97810000D03*
D30*
%TO.P,J4,A9,VBUS*%
%TO.N,+5V*%
X160150000Y-96660000D03*
%TO.P,J4,A12,GND*%
%TO.N,GND*%
X160150000Y-95860000D03*
%TO.P,J4,B1,GND*%
X160150000Y-95860000D03*
%TO.P,J4,B4,VBUS*%
%TO.N,+5V*%
X160150000Y-96660000D03*
D31*
%TO.P,J4,B5,CC2*%
%TO.N,unconnected-(J4-CC2-PadB5)*%
X160150000Y-97310000D03*
%TO.P,J4,B6,D+*%
%TO.N,unconnected-(J4-D+-PadB6)*%
X160150000Y-98310000D03*
%TO.P,J4,B7,D-*%
%TO.N,unconnected-(J4-D--PadB7)*%
X160150000Y-99810000D03*
%TO.P,J4,B8*%
%TO.N,N/C*%
X160150000Y-100810000D03*
D30*
%TO.P,J4,B9,VBUS*%
%TO.N,+5V*%
X160150000Y-101460000D03*
%TO.P,J4,B12,GND*%
%TO.N,GND*%
X160150000Y-102260000D03*
D21*
%TO.P,J4,S1,SHIELD*%
X160725000Y-103380000D03*
D20*
X164905000Y-103380000D03*
D21*
X160725000Y-94740000D03*
D20*
X164905000Y-94740000D03*
%TD*%
D32*
%TO.P,R6,1*%
%TO.N,+5V*%
X143256000Y-96837000D03*
%TO.P,R6,2*%
%TO.N,Net-(U2-FB)*%
X143256000Y-95187000D03*
%TD*%
D19*
%TO.P,C4,1*%
%TO.N,Net-(U2-VCC)*%
X144780000Y-92088000D03*
%TO.P,C4,2*%
%TO.N,GND*%
X144780000Y-90538000D03*
%TD*%
D17*
%TO.P,C9,1*%
%TO.N,+5V*%
X155575000Y-96327000D03*
%TO.P,C9,2*%
%TO.N,GND*%
X155575000Y-94427000D03*
%TD*%
D15*
%TO.P,R3,1*%
%TO.N,/Buck/Vin*%
X140779000Y-93853000D03*
%TO.P,R3,2*%
%TO.N,Net-(U1-VBUS)*%
X139129000Y-93853000D03*
%TD*%
D17*
%TO.P,C6,1*%
%TO.N,+5V*%
X149479000Y-96327000D03*
%TO.P,C6,2*%
%TO.N,GND*%
X149479000Y-94427000D03*
%TD*%
D22*
%TO.P,J1,A1,GND*%
%TO.N,GND*%
X132712000Y-95860000D03*
%TO.P,J1,A4,VBUS*%
%TO.N,/Buck/Vin*%
X132712000Y-96660000D03*
D23*
%TO.P,J1,A5,CC1*%
%TO.N,Net-(J1-CC1)*%
X132712000Y-97810000D03*
%TO.P,J1,A6,D+*%
%TO.N,/PD_D+*%
X132712000Y-98810000D03*
%TO.P,J1,A7,D-*%
%TO.N,/PD_D-*%
X132712000Y-99310000D03*
%TO.P,J1,A8*%
%TO.N,N/C*%
X132712000Y-100310000D03*
D22*
%TO.P,J1,A9,VBUS*%
%TO.N,/Buck/Vin*%
X132712000Y-101460000D03*
%TO.P,J1,A12,GND*%
%TO.N,GND*%
X132712000Y-102260000D03*
%TO.P,J1,B1,GND*%
X132712000Y-102260000D03*
%TO.P,J1,B4,VBUS*%
%TO.N,/Buck/Vin*%
X132712000Y-101460000D03*
D23*
%TO.P,J1,B5,CC2*%
%TO.N,Net-(J1-CC2)*%
X132712000Y-100810000D03*
%TO.P,J1,B6,D+*%
%TO.N,/PD_D+*%
X132712000Y-99810000D03*
%TO.P,J1,B7,D-*%
%TO.N,/PD_D-*%
X132712000Y-98310000D03*
%TO.P,J1,B8*%
%TO.N,N/C*%
X132712000Y-97310000D03*
D22*
%TO.P,J1,B9,VBUS*%
%TO.N,/Buck/Vin*%
X132712000Y-96660000D03*
%TO.P,J1,B12,GND*%
%TO.N,GND*%
X132712000Y-95860000D03*
D21*
%TO.P,J1,S1,SHIELD*%
X132137000Y-94740000D03*
D20*
X127957000Y-94740000D03*
D21*
X132137000Y-103380000D03*
D20*
X127957000Y-103380000D03*
%TD*%
D33*
%TO.P,R2,1*%
%TO.N,/Buck/Vin*%
X136081000Y-103251000D03*
%TO.P,R2,2*%
%TO.N,Net-(U1-VDD)*%
X137731000Y-103251000D03*
%TD*%
D18*
%TO.P,C1,1*%
%TO.N,Net-(U1-VDD)*%
X139179000Y-103251000D03*
%TO.P,C1,2*%
%TO.N,GND*%
X140729000Y-103251000D03*
%TD*%
D34*
%TO.N,/Buck/Vin*%
X135064500Y-92519500D03*
%TO.N,+5V*%
X134874000Y-82931000D03*
X134112000Y-82931000D03*
X134112000Y-83693000D03*
X134874000Y-83693000D03*
X134874000Y-79629000D03*
X134112000Y-79629000D03*
X134874000Y-78867000D03*
X134112000Y-78867000D03*
X152400000Y-102235000D03*
X151638000Y-97663000D03*
X142494000Y-98044000D03*
%TO.N,/Buck/Vin*%
X149606000Y-91948000D03*
X149606000Y-91186000D03*
X149606000Y-90424000D03*
X149606000Y-89662000D03*
X149606000Y-88900000D03*
%TO.N,+5V*%
X152273000Y-78994000D03*
X153035000Y-78994000D03*
X153797000Y-78994000D03*
X154559000Y-78994000D03*
X151638000Y-98425000D03*
X151638000Y-99187000D03*
X151638000Y-99949000D03*
X151638000Y-100711000D03*
X151638000Y-101473000D03*
X151638000Y-102235000D03*
%TO.N,/Buck/Vin*%
X134366000Y-101346000D03*
X134366000Y-100584000D03*
X134366000Y-96774000D03*
%TO.N,+5V*%
X158496000Y-101346000D03*
X158496000Y-100584000D03*
X158496000Y-97536000D03*
X158496000Y-96774000D03*
%TO.N,/USB_D+*%
X131572000Y-82296000D03*
X131572000Y-81026000D03*
D35*
%TO.N,Net-(J1-CC2)*%
X131445000Y-100838000D03*
X136318034Y-97298534D03*
%TO.N,GND*%
X142494000Y-89535000D03*
X144018000Y-89535000D03*
X145542000Y-89535000D03*
X147066000Y-89535000D03*
X155575000Y-93152000D03*
X153543000Y-93152000D03*
X154559000Y-93152000D03*
X156591000Y-93152000D03*
X145669000Y-98679000D03*
X145661570Y-97814162D03*
%TO.N,/Buck/Vin*%
X144806000Y-98171000D03*
%TO.N,Net-(U2-BS)*%
X143982000Y-99515000D03*
X144542534Y-93742534D03*
%TD*%
D36*
%TO.N,/Buck/Vin*%
X135064500Y-92519500D02*
X139445500Y-92519500D01*
X139445500Y-92519500D02*
X140779000Y-93853000D01*
D37*
%TO.N,Net-(U2-FB)*%
X143258000Y-92138000D02*
X143258000Y-95185000D01*
D36*
%TO.N,Net-(U2-VCC)*%
X143891000Y-93345000D02*
X144780000Y-92456000D01*
D38*
%TO.N,/USB_D+*%
X159221649Y-80595850D02*
X136307296Y-80595850D01*
%TO.N,/USB_D-*%
X159221649Y-80964150D02*
X136459850Y-80964150D01*
%TO.N,/USB_D+*%
X159287499Y-80530000D02*
X159221649Y-80595850D01*
X160150000Y-80530000D02*
X159287499Y-80530000D01*
D36*
%TO.N,/Buck/Vin*%
X136081000Y-103061000D02*
X134366000Y-101346000D01*
X136081000Y-103251000D02*
X136081000Y-103061000D01*
%TO.N,+5V*%
X143256000Y-97282000D02*
X142494000Y-98044000D01*
X143256000Y-96837000D02*
X143256000Y-97282000D01*
D38*
%TO.N,/USB_D-*%
X133574501Y-81530000D02*
X132712000Y-81530000D01*
X133640351Y-81464150D02*
X133574501Y-81530000D01*
X135959850Y-81464150D02*
X133640351Y-81464150D01*
X136459850Y-80964150D02*
X135959850Y-81464150D01*
X159287499Y-81030000D02*
X159221649Y-80964150D01*
%TO.N,/USB_D+*%
X133640351Y-81095850D02*
X133574501Y-81030000D01*
X133574501Y-81030000D02*
X132712000Y-81030000D01*
%TO.N,/USB_D-*%
X160150000Y-81030000D02*
X159287499Y-81030000D01*
%TO.N,/USB_D+*%
X135807296Y-81095850D02*
X133640351Y-81095850D01*
X136307296Y-80595850D02*
X135807296Y-81095850D01*
D39*
%TO.N,+5V*%
X156703000Y-78740000D02*
X156449000Y-78994000D01*
X156449000Y-78994000D02*
X154559000Y-78994000D01*
X152273000Y-78994000D02*
X153035000Y-78994000D01*
X153797000Y-78994000D02*
X153035000Y-78994000D01*
X154559000Y-78994000D02*
X153797000Y-78994000D01*
D36*
%TO.N,Net-(U2-VCC)*%
X144780000Y-92456000D02*
X144780000Y-92088000D01*
X143891000Y-94509000D02*
X143891000Y-93345000D01*
X144096000Y-94714000D02*
X143891000Y-94509000D01*
X144646000Y-94714000D02*
X144096000Y-94714000D01*
D37*
%TO.N,Net-(U2-FB)*%
X143258000Y-95185000D02*
X143256000Y-95187000D01*
D36*
%TO.N,Net-(J1-CC2)*%
X132172474Y-100810000D02*
X132712000Y-100810000D01*
X132144474Y-100838000D02*
X132172474Y-100810000D01*
X131445000Y-100838000D02*
X132144474Y-100838000D01*
%TO.N,Net-(J1-CC1)*%
X134884500Y-97810000D02*
X132712000Y-97810000D01*
X136047500Y-96647000D02*
X134884500Y-97810000D01*
X139293000Y-96647000D02*
X136047500Y-96647000D01*
X139938000Y-95552000D02*
X139938000Y-96002000D01*
X139938000Y-96002000D02*
X139293000Y-96647000D01*
D38*
%TO.N,/PD_D+*%
X133640351Y-98744150D02*
X133574501Y-98810000D01*
X133850000Y-98744150D02*
X133640351Y-98744150D01*
X133858000Y-98736150D02*
X133850000Y-98744150D01*
X140253850Y-100636278D02*
X139877723Y-100260150D01*
X136067724Y-100260150D02*
X134543724Y-98736150D01*
X133574501Y-98810000D02*
X132712000Y-98810000D01*
X134543724Y-98736150D02*
X133858000Y-98736150D01*
X140253850Y-100786150D02*
X140253850Y-100636278D01*
X139938000Y-101102000D02*
X140253850Y-100786150D01*
X139938000Y-101552000D02*
X139938000Y-101102000D01*
X139877723Y-100260150D02*
X136067724Y-100260150D01*
%TO.N,/PD_D-*%
X133574501Y-98310000D02*
X132712000Y-98310000D01*
X133640351Y-98375850D02*
X133574501Y-98310000D01*
X133709059Y-98375850D02*
X133640351Y-98375850D01*
X133717059Y-98367850D02*
X133709059Y-98375850D01*
X134696278Y-98367850D02*
X133717059Y-98367850D01*
X140030278Y-99891850D02*
X136220278Y-99891850D01*
X140622150Y-100483722D02*
X140030278Y-99891850D01*
X136220278Y-99891850D02*
X134696278Y-98367850D01*
X140622150Y-100786150D02*
X140622150Y-100483722D01*
X140938000Y-101102000D02*
X140622150Y-100786150D01*
X140938000Y-101552000D02*
X140938000Y-101102000D01*
%TO.N,/USB_D-*%
X131024350Y-81252845D02*
X131024350Y-80799155D01*
X131024350Y-80799155D02*
X131345155Y-80478350D01*
X131345155Y-80478350D02*
X132660350Y-80478350D01*
X132660350Y-80478350D02*
X132712000Y-80530000D01*
X132712000Y-81530000D02*
X132668350Y-81573650D01*
X132668350Y-81573650D02*
X131345155Y-81573650D01*
X131345155Y-81573650D02*
X131024350Y-81252845D01*
%TO.N,/USB_D+*%
X131838000Y-82030000D02*
X131572000Y-82296000D01*
X132712000Y-82030000D02*
X131838000Y-82030000D01*
X131576000Y-81030000D02*
X131572000Y-81026000D01*
X132712000Y-81030000D02*
X131576000Y-81030000D01*
%TO.N,/USB_D-*%
X159327350Y-81277651D02*
X159327350Y-81782349D01*
X159575001Y-82030000D02*
X160150000Y-82030000D01*
X160150000Y-81030000D02*
X159575001Y-81030000D01*
X159575001Y-81030000D02*
X159327350Y-81277651D01*
X159327350Y-81782349D02*
X159575001Y-82030000D01*
%TO.N,/USB_D+*%
X160972650Y-81282349D02*
X160724999Y-81530000D01*
X160724999Y-81530000D02*
X160150000Y-81530000D01*
X160724999Y-80530000D02*
X160972650Y-80777651D01*
X160972650Y-80777651D02*
X160972650Y-81282349D01*
X160150000Y-80530000D02*
X160724999Y-80530000D01*
D36*
%TO.N,/PD_D+*%
X133286999Y-99810000D02*
X132712000Y-99810000D01*
X133604000Y-99492999D02*
X133286999Y-99810000D01*
X133604000Y-99127001D02*
X133604000Y-99492999D01*
X133286999Y-98810000D02*
X133604000Y-99127001D01*
X132712000Y-98810000D02*
X133286999Y-98810000D01*
%TO.N,Net-(J1-CC2)*%
X140015750Y-97024000D02*
X136592568Y-97024000D01*
X136592568Y-97024000D02*
X136318034Y-97298534D01*
X140938000Y-95552000D02*
X140938000Y-96101750D01*
X140938000Y-96101750D02*
X140015750Y-97024000D01*
D37*
%TO.N,GND*%
X145661570Y-97814162D02*
X145661570Y-96558430D01*
D36*
%TO.N,Net-(U1-VDD)*%
X137731000Y-103251000D02*
X139179000Y-103251000D01*
X136938000Y-102458000D02*
X137731000Y-103251000D01*
X136938000Y-101552000D02*
X136938000Y-102458000D01*
%TO.N,Net-(U1-VBUS)*%
X138938000Y-94044000D02*
X138938000Y-95552000D01*
X139129000Y-93853000D02*
X138938000Y-94044000D01*
%TO.N,Net-(U1-CFG1)*%
X137731000Y-93853000D02*
X137938000Y-94060000D01*
X137938000Y-94060000D02*
X137938000Y-95552000D01*
%TO.N,Net-(J1-CC2)*%
X132740000Y-100838000D02*
X132712000Y-100810000D01*
%TO.N,/PD_D-*%
X132137001Y-99310000D02*
X132712000Y-99310000D01*
X131885000Y-99057999D02*
X132137001Y-99310000D01*
X131885000Y-98562001D02*
X131885000Y-99057999D01*
X132137001Y-98310000D02*
X131885000Y-98562001D01*
X132712000Y-98310000D02*
X132137001Y-98310000D01*
D37*
%TO.N,GND*%
X145669000Y-97821592D02*
X145661570Y-97814162D01*
X145669000Y-98679000D02*
X145669000Y-97821592D01*
D36*
%TO.N,/Buck/Vin*%
X144646000Y-98011000D02*
X144646000Y-96514000D01*
X144806000Y-98171000D02*
X144646000Y-98011000D01*
D37*
%TO.N,Net-(U2-BS)*%
X145021000Y-99822000D02*
X144289000Y-99822000D01*
X144289000Y-99822000D02*
X143982000Y-99515000D01*
D36*
X144646000Y-93846000D02*
X144542534Y-93742534D01*
X144646000Y-94264000D02*
X144646000Y-93846000D01*
%TO.N,Net-(U2-FB)*%
X143279000Y-95164000D02*
X143256000Y-95187000D01*
X144646000Y-95164000D02*
X143279000Y-95164000D01*
%TD*%
%TA.AperFunction,Conductor*%
%TO.N,/Buck/LX*%
G36*
X146605200Y-95000463D02*
G01*
X146617803Y-95005050D01*
X146645475Y-95015122D01*
X146698660Y-95024500D01*
X146722175Y-95024500D01*
X146769741Y-95041813D01*
X146795051Y-95085650D01*
X146794753Y-95112935D01*
X146792552Y-95124000D01*
X146792552Y-95124001D01*
X146792552Y-95826552D01*
X146775239Y-95874118D01*
X146731402Y-95899428D01*
X146718552Y-95900552D01*
X146646000Y-95900552D01*
X146616639Y-95906392D01*
X146587277Y-95912233D01*
X146537496Y-95945495D01*
X146537495Y-95945496D01*
X146504233Y-95995277D01*
X146492552Y-96054000D01*
X146492552Y-97074000D01*
X146496640Y-97094550D01*
X146504233Y-97132722D01*
X146530211Y-97171602D01*
X146537496Y-97182504D01*
X146587278Y-97215767D01*
X146646000Y-97227448D01*
X146646001Y-97227448D01*
X146738000Y-97227448D01*
X146785566Y-97244761D01*
X146800326Y-97270326D01*
X146812000Y-97282000D01*
X147910230Y-97282000D01*
X147935540Y-97286463D01*
X147975815Y-97301122D01*
X148029000Y-97310500D01*
X151027500Y-97310500D01*
X151075066Y-97327813D01*
X151100376Y-97371650D01*
X151101500Y-97384500D01*
X151101500Y-102669000D01*
X151084187Y-102716566D01*
X151040350Y-102741876D01*
X151027500Y-102743000D01*
X145870000Y-102743000D01*
X145822434Y-102725687D01*
X145797124Y-102681850D01*
X145796000Y-102669000D01*
X145796000Y-99271696D01*
X145813313Y-99224130D01*
X145841682Y-99203329D01*
X145946625Y-99159861D01*
X146061621Y-99071621D01*
X146149861Y-98956625D01*
X146205330Y-98822709D01*
X146224250Y-98679000D01*
X146205330Y-98535291D01*
X146149861Y-98401375D01*
X146149859Y-98401372D01*
X146084792Y-98316575D01*
X146069500Y-98271527D01*
X146069500Y-98211952D01*
X146084792Y-98166904D01*
X146142429Y-98091789D01*
X146142431Y-98091787D01*
X146197900Y-97957871D01*
X146216820Y-97814162D01*
X146197900Y-97670453D01*
X146142431Y-97536537D01*
X146142429Y-97536534D01*
X146077362Y-97451737D01*
X146062070Y-97406689D01*
X146062070Y-96526910D01*
X146050359Y-96452969D01*
X146049448Y-96441393D01*
X146049448Y-96074000D01*
X146037767Y-96015278D01*
X146004504Y-95965496D01*
X145954722Y-95932233D01*
X145896000Y-95920552D01*
X145895999Y-95920552D01*
X145870000Y-95920552D01*
X145822434Y-95903239D01*
X145797124Y-95859402D01*
X145796000Y-95846552D01*
X145796000Y-95098500D01*
X145813313Y-95050934D01*
X145857150Y-95025624D01*
X145870000Y-95024500D01*
X145889258Y-95024500D01*
X145893609Y-95024422D01*
X145894751Y-95024402D01*
X145899991Y-95024216D01*
X145957874Y-95010803D01*
X145968250Y-95006169D01*
X145976627Y-95002430D01*
X146006797Y-94996000D01*
X146579890Y-94996000D01*
X146605200Y-95000463D01*
G37*
%TD.AperFunction*%
%TD*%
%TA.AperFunction,Conductor*%
%TO.N,/Buck/Vin*%
G36*
X150341566Y-88409313D02*
G01*
X150366876Y-88453150D01*
X150368000Y-88466000D01*
X150368000Y-93525000D01*
X150350687Y-93572566D01*
X150306850Y-93597876D01*
X150294000Y-93599000D01*
X147828000Y-93599000D01*
X147828000Y-94795000D01*
X147810687Y-94842566D01*
X147766850Y-94867876D01*
X147754000Y-94869000D01*
X146698660Y-94869000D01*
X146651094Y-94851687D01*
X146646334Y-94847326D01*
X146524503Y-94725495D01*
X146499094Y-94708518D01*
X146474722Y-94692233D01*
X146416000Y-94680552D01*
X146176000Y-94680552D01*
X146175999Y-94680552D01*
X146119609Y-94691289D01*
X146069290Y-94723730D01*
X146069281Y-94723737D01*
X145940696Y-94848176D01*
X145894475Y-94868814D01*
X145889235Y-94869000D01*
X145170500Y-94869000D01*
X145122934Y-94851687D01*
X145097624Y-94807850D01*
X145096500Y-94795000D01*
X145096500Y-94574180D01*
X145087767Y-94530280D01*
X145087767Y-94530278D01*
X145087658Y-94530115D01*
X145087598Y-94529870D01*
X145084978Y-94523544D01*
X145085951Y-94523140D01*
X145075623Y-94480951D01*
X145085228Y-94454559D01*
X145084978Y-94454456D01*
X145087355Y-94448716D01*
X145087657Y-94447885D01*
X145087767Y-94447722D01*
X145096500Y-94403820D01*
X145096500Y-94124180D01*
X145087767Y-94080278D01*
X145054629Y-94030684D01*
X145042599Y-93981517D01*
X145047789Y-93961262D01*
X145078864Y-93886243D01*
X145097784Y-93742534D01*
X145078864Y-93598825D01*
X145068712Y-93574317D01*
X145066505Y-93523747D01*
X145097320Y-93483589D01*
X145137080Y-93472000D01*
X145542000Y-93472000D01*
X145542000Y-91387000D01*
X145559313Y-91339434D01*
X145603150Y-91314124D01*
X145616000Y-91313000D01*
X148844000Y-91313000D01*
X148844000Y-88466000D01*
X148861313Y-88418434D01*
X148905150Y-88393124D01*
X148918000Y-88392000D01*
X150294000Y-88392000D01*
X150341566Y-88409313D01*
G37*
%TD.AperFunction*%
%TD*%
%TA.AperFunction,Conductor*%
%TO.N,+5V*%
G36*
X156564566Y-95521313D02*
G01*
X156589876Y-95565150D01*
X156591000Y-95578000D01*
X156591000Y-102669000D01*
X156573687Y-102716566D01*
X156529850Y-102741876D01*
X156517000Y-102743000D01*
X151331000Y-102743000D01*
X151283434Y-102725687D01*
X151258124Y-102681850D01*
X151257000Y-102669000D01*
X151257000Y-97155000D01*
X148029000Y-97155000D01*
X147981434Y-97137687D01*
X147956124Y-97093850D01*
X147955000Y-97081000D01*
X147955000Y-95578000D01*
X147972313Y-95530434D01*
X148016150Y-95505124D01*
X148029000Y-95504000D01*
X156517000Y-95504000D01*
X156564566Y-95521313D01*
G37*
%TD.AperFunction*%
%TD*%
%TA.AperFunction,Conductor*%
%TO.N,GND*%
G36*
X148590000Y-91157500D02*
G01*
X145616000Y-91157500D01*
X145602450Y-91158091D01*
X145602445Y-91158091D01*
X145602432Y-91158092D01*
X145589602Y-91159214D01*
X145589597Y-91159215D01*
X145525396Y-91179458D01*
X145525394Y-91179459D01*
X145481564Y-91204765D01*
X145481550Y-91204774D01*
X145459360Y-91220312D01*
X145459359Y-91220313D01*
X145413193Y-91286245D01*
X145413189Y-91286252D01*
X145395877Y-91333815D01*
X145386500Y-91386996D01*
X145386500Y-91509811D01*
X145369187Y-91557377D01*
X145325350Y-91582687D01*
X145275500Y-91573897D01*
X145260174Y-91562137D01*
X145251210Y-91553173D01*
X145138626Y-91498134D01*
X145065640Y-91487500D01*
X145065636Y-91487500D01*
X144494364Y-91487500D01*
X144494359Y-91487500D01*
X144421374Y-91498134D01*
X144421373Y-91498134D01*
X144308789Y-91553173D01*
X144220173Y-91641789D01*
X144165134Y-91754373D01*
X144165134Y-91754374D01*
X144154500Y-91827359D01*
X144154500Y-92348640D01*
X144165134Y-92421625D01*
X144165134Y-92421626D01*
X144220172Y-92534207D01*
X144220174Y-92534211D01*
X144220176Y-92534213D01*
X144222078Y-92536877D01*
X144235628Y-92585649D01*
X144214657Y-92631720D01*
X144214179Y-92632203D01*
X143784826Y-93061557D01*
X143738950Y-93082949D01*
X143690055Y-93069848D01*
X143661022Y-93028384D01*
X143658500Y-93009231D01*
X143658500Y-92712003D01*
X143675813Y-92664437D01*
X143700000Y-92645522D01*
X143737483Y-92627198D01*
X143820198Y-92544483D01*
X143871573Y-92439393D01*
X143881500Y-92371260D01*
X143881500Y-91904740D01*
X143871573Y-91836607D01*
X143820198Y-91731517D01*
X143737483Y-91648802D01*
X143737482Y-91648801D01*
X143632394Y-91597427D01*
X143564264Y-91587500D01*
X143564260Y-91587500D01*
X142947740Y-91587500D01*
X142947735Y-91587500D01*
X142879606Y-91597427D01*
X142879605Y-91597427D01*
X142774517Y-91648801D01*
X142691801Y-91731517D01*
X142640427Y-91836605D01*
X142640427Y-91836606D01*
X142630500Y-91904735D01*
X142630500Y-92371264D01*
X142640427Y-92439393D01*
X142640427Y-92439394D01*
X142691801Y-92544482D01*
X142774517Y-92627198D01*
X142774519Y-92627199D01*
X142815999Y-92647477D01*
X142851129Y-92683920D01*
X142857500Y-92713958D01*
X142857500Y-94611040D01*
X142840187Y-94658606D01*
X142816002Y-94677520D01*
X142774518Y-94697801D01*
X142774517Y-94697801D01*
X142691801Y-94780517D01*
X142640427Y-94885605D01*
X142640427Y-94885606D01*
X142630500Y-94953735D01*
X142630500Y-95420264D01*
X142640427Y-95488393D01*
X142640427Y-95488394D01*
X142691801Y-95593482D01*
X142691802Y-95593483D01*
X142774517Y-95676198D01*
X142879607Y-95727573D01*
X142947740Y-95737500D01*
X142947746Y-95737500D01*
X143564254Y-95737500D01*
X143564260Y-95737500D01*
X143632393Y-95727573D01*
X143737483Y-95676198D01*
X143820198Y-95593483D01*
X143847672Y-95537281D01*
X143874097Y-95483231D01*
X143876181Y-95484250D01*
X143901140Y-95451324D01*
X143941267Y-95439500D01*
X144121500Y-95439500D01*
X144169066Y-95456813D01*
X144194376Y-95500650D01*
X144195500Y-95513500D01*
X144195500Y-95753819D01*
X144204232Y-95797720D01*
X144204234Y-95797724D01*
X144204347Y-95797893D01*
X144204408Y-95798145D01*
X144207022Y-95804454D01*
X144206050Y-95804856D01*
X144216374Y-95847062D01*
X144206772Y-95873442D01*
X144207022Y-95873546D01*
X144204656Y-95879256D01*
X144204347Y-95880107D01*
X144204234Y-95880275D01*
X144204232Y-95880279D01*
X144195500Y-95924180D01*
X144195500Y-96203819D01*
X144204232Y-96247720D01*
X144204234Y-96247724D01*
X144204347Y-96247893D01*
X144204408Y-96248145D01*
X144207022Y-96254454D01*
X144206050Y-96254856D01*
X144216374Y-96297062D01*
X144206772Y-96323442D01*
X144207022Y-96323546D01*
X144204656Y-96329256D01*
X144204347Y-96330107D01*
X144204234Y-96330275D01*
X144204232Y-96330279D01*
X144200747Y-96347801D01*
X144195500Y-96374180D01*
X144195500Y-96653820D01*
X144204233Y-96697722D01*
X144237496Y-96747504D01*
X144287278Y-96780767D01*
X144310937Y-96785473D01*
X144354212Y-96811733D01*
X144370500Y-96858051D01*
X144370500Y-97809139D01*
X144355209Y-97854187D01*
X144325138Y-97893376D01*
X144269669Y-98027291D01*
X144250750Y-98171000D01*
X144269669Y-98314708D01*
X144325138Y-98448623D01*
X144325139Y-98448625D01*
X144413379Y-98563621D01*
X144528375Y-98651861D01*
X144662291Y-98707330D01*
X144806000Y-98726250D01*
X144949709Y-98707330D01*
X145083625Y-98651861D01*
X145198621Y-98563621D01*
X145286861Y-98448625D01*
X145342330Y-98314709D01*
X145361250Y-98171000D01*
X145342330Y-98027291D01*
X145286861Y-97893375D01*
X145198621Y-97778379D01*
X145083625Y-97690139D01*
X145083623Y-97690138D01*
X144967182Y-97641907D01*
X144929861Y-97607710D01*
X144921500Y-97573540D01*
X144921500Y-96858051D01*
X144938813Y-96810485D01*
X144981062Y-96785473D01*
X145004722Y-96780767D01*
X145054504Y-96747504D01*
X145087767Y-96697722D01*
X145096500Y-96653820D01*
X145096500Y-96374180D01*
X145087767Y-96330278D01*
X145087658Y-96330115D01*
X145087598Y-96329870D01*
X145084978Y-96323544D01*
X145085951Y-96323140D01*
X145075623Y-96280951D01*
X145085228Y-96254559D01*
X145084978Y-96254456D01*
X145087355Y-96248716D01*
X145087657Y-96247885D01*
X145087767Y-96247722D01*
X145096500Y-96203820D01*
X145096500Y-95924180D01*
X145087767Y-95880278D01*
X145087658Y-95880115D01*
X145087598Y-95879870D01*
X145084978Y-95873544D01*
X145085951Y-95873140D01*
X145075623Y-95830951D01*
X145085228Y-95804559D01*
X145084978Y-95804456D01*
X145087355Y-95798716D01*
X145087657Y-95797885D01*
X145087767Y-95797722D01*
X145096500Y-95753820D01*
X145096500Y-95474180D01*
X145087767Y-95430278D01*
X145087658Y-95430115D01*
X145087598Y-95429870D01*
X145084978Y-95423544D01*
X145085951Y-95423140D01*
X145075623Y-95380951D01*
X145085228Y-95354559D01*
X145084978Y-95354456D01*
X145087355Y-95348716D01*
X145087657Y-95347885D01*
X145087767Y-95347722D01*
X145096500Y-95303820D01*
X145096500Y-95098500D01*
X145113813Y-95050934D01*
X145157650Y-95025624D01*
X145170500Y-95024500D01*
X145566500Y-95024500D01*
X145614066Y-95041813D01*
X145639376Y-95085650D01*
X145640500Y-95098500D01*
X145640500Y-95846552D01*
X145641091Y-95860102D01*
X145641092Y-95860119D01*
X145642214Y-95872949D01*
X145642215Y-95872954D01*
X145662458Y-95937155D01*
X145662459Y-95937157D01*
X145687765Y-95980987D01*
X145687774Y-95981001D01*
X145703312Y-96003191D01*
X145703313Y-96003192D01*
X145769249Y-96049361D01*
X145816815Y-96066674D01*
X145832797Y-96069492D01*
X145876635Y-96094801D01*
X145893948Y-96142367D01*
X145893948Y-96441393D01*
X145894426Y-96453591D01*
X145895337Y-96465167D01*
X145896773Y-96477294D01*
X145905659Y-96533397D01*
X145906570Y-96544973D01*
X145906570Y-97406691D01*
X145914821Y-97456666D01*
X145914822Y-97456670D01*
X145914823Y-97456674D01*
X145930115Y-97501722D01*
X145930117Y-97501727D01*
X145930117Y-97501728D01*
X145953994Y-97546396D01*
X145954001Y-97546406D01*
X146000668Y-97607224D01*
X146010327Y-97623954D01*
X146042672Y-97702042D01*
X146047672Y-97720701D01*
X146058705Y-97804503D01*
X146058705Y-97823821D01*
X146047673Y-97907618D01*
X146042673Y-97926277D01*
X146010328Y-98004365D01*
X146000670Y-98021094D01*
X145961426Y-98072240D01*
X145961425Y-98072242D01*
X145937545Y-98116919D01*
X145937545Y-98116920D01*
X145922252Y-98161970D01*
X145922251Y-98161974D01*
X145914000Y-98211949D01*
X145914000Y-98271529D01*
X145922251Y-98321504D01*
X145922252Y-98321508D01*
X145937547Y-98366565D01*
X145937547Y-98366566D01*
X145961424Y-98411234D01*
X145961431Y-98411244D01*
X146008098Y-98472062D01*
X146017757Y-98488792D01*
X146050102Y-98566880D01*
X146055102Y-98585539D01*
X146066135Y-98669341D01*
X146066135Y-98688659D01*
X146055103Y-98772456D01*
X146050103Y-98791115D01*
X146017758Y-98869204D01*
X146008099Y-98885935D01*
X145956647Y-98952988D01*
X145942988Y-98966647D01*
X145875935Y-99018099D01*
X145859205Y-99027758D01*
X145782171Y-99059667D01*
X145782164Y-99059670D01*
X145749736Y-99077924D01*
X145749734Y-99077926D01*
X145721363Y-99098728D01*
X145713358Y-99105010D01*
X145667193Y-99170941D01*
X145667189Y-99170948D01*
X145649878Y-99218510D01*
X145640636Y-99270922D01*
X145615326Y-99314759D01*
X145567759Y-99332071D01*
X145520193Y-99314758D01*
X145515434Y-99310397D01*
X145467210Y-99262173D01*
X145354626Y-99207134D01*
X145281640Y-99196500D01*
X145281636Y-99196500D01*
X144760364Y-99196500D01*
X144760359Y-99196500D01*
X144687374Y-99207134D01*
X144687373Y-99207134D01*
X144574785Y-99262175D01*
X144571994Y-99264168D01*
X144523220Y-99277711D01*
X144477152Y-99256734D01*
X144464916Y-99240935D01*
X144462861Y-99237376D01*
X144462861Y-99237375D01*
X144374621Y-99122379D01*
X144259625Y-99034139D01*
X144235222Y-99024031D01*
X144125708Y-98978669D01*
X143982000Y-98959750D01*
X143838291Y-98978669D01*
X143704376Y-99034138D01*
X143589379Y-99122379D01*
X143501138Y-99237376D01*
X143445669Y-99371291D01*
X143426750Y-99515000D01*
X143445669Y-99658708D01*
X143501138Y-99792623D01*
X143501139Y-99792625D01*
X143589379Y-99907621D01*
X143704375Y-99995861D01*
X143838291Y-100051330D01*
X143944262Y-100065281D01*
X143986929Y-100086322D01*
X144030670Y-100130063D01*
X144030680Y-100130072D01*
X144050658Y-100150050D01*
X144073902Y-100161893D01*
X144083797Y-100167957D01*
X144104911Y-100183297D01*
X144129730Y-100191361D01*
X144140449Y-100195800D01*
X144163696Y-100207646D01*
X144189464Y-100211727D01*
X144200753Y-100214437D01*
X144225567Y-100222500D01*
X144257481Y-100222500D01*
X144405412Y-100222500D01*
X144452978Y-100239813D01*
X144471893Y-100264000D01*
X144486172Y-100293209D01*
X144486174Y-100293211D01*
X144574789Y-100381826D01*
X144687375Y-100436866D01*
X144760364Y-100447500D01*
X144760370Y-100447500D01*
X145281630Y-100447500D01*
X145281636Y-100447500D01*
X145354625Y-100436866D01*
X145467211Y-100381826D01*
X145514174Y-100334863D01*
X145560050Y-100313471D01*
X145608945Y-100326572D01*
X145637979Y-100368036D01*
X145640500Y-100387189D01*
X145640500Y-102669000D01*
X145641091Y-102682550D01*
X145641092Y-102682567D01*
X145642214Y-102695397D01*
X145642215Y-102695402D01*
X145662458Y-102759603D01*
X145662459Y-102759605D01*
X145687765Y-102803435D01*
X145687774Y-102803449D01*
X145703312Y-102825639D01*
X145703313Y-102825640D01*
X145769249Y-102871809D01*
X145816815Y-102889122D01*
X145870000Y-102898500D01*
X145870004Y-102898500D01*
X151027491Y-102898500D01*
X151027500Y-102898500D01*
X151041050Y-102897909D01*
X151053900Y-102896785D01*
X151118102Y-102876542D01*
X151142444Y-102862487D01*
X151192291Y-102853696D01*
X151221888Y-102865954D01*
X151230249Y-102871809D01*
X151277815Y-102889122D01*
X151331000Y-102898500D01*
X151331004Y-102898500D01*
X156516991Y-102898500D01*
X156517000Y-102898500D01*
X156530550Y-102897909D01*
X156543400Y-102896785D01*
X156607602Y-102876542D01*
X156651439Y-102851232D01*
X156673640Y-102835687D01*
X156719809Y-102769751D01*
X156737122Y-102722185D01*
X156746500Y-102669000D01*
X156746500Y-95578000D01*
X156745909Y-95564450D01*
X156744785Y-95551600D01*
X156724542Y-95487398D01*
X156722724Y-95484250D01*
X156699234Y-95443564D01*
X156699225Y-95443550D01*
X156683687Y-95421360D01*
X156683686Y-95421359D01*
X156617754Y-95375193D01*
X156617753Y-95375192D01*
X156617751Y-95375191D01*
X156617749Y-95375190D01*
X156617747Y-95375189D01*
X156570184Y-95357877D01*
X156517003Y-95348500D01*
X156517000Y-95348500D01*
X148029000Y-95348500D01*
X148015450Y-95349091D01*
X148015445Y-95349091D01*
X148015432Y-95349092D01*
X148002602Y-95350214D01*
X148002597Y-95350215D01*
X147938396Y-95370458D01*
X147938394Y-95370459D01*
X147894564Y-95395765D01*
X147894550Y-95395774D01*
X147872360Y-95411312D01*
X147872359Y-95411313D01*
X147826193Y-95477245D01*
X147826189Y-95477252D01*
X147808877Y-95524815D01*
X147799500Y-95577996D01*
X147799500Y-97052500D01*
X147782187Y-97100066D01*
X147738350Y-97125376D01*
X147725500Y-97126500D01*
X146901872Y-97126500D01*
X146859428Y-97113117D01*
X146838757Y-97098643D01*
X146838755Y-97098642D01*
X146838751Y-97098639D01*
X146838746Y-97098637D01*
X146791184Y-97081325D01*
X146738003Y-97071948D01*
X146738000Y-97071948D01*
X146722052Y-97071948D01*
X146674486Y-97054635D01*
X146649176Y-97010798D01*
X146648052Y-96997948D01*
X146648052Y-96129969D01*
X146665365Y-96082403D01*
X146709202Y-96057093D01*
X146718815Y-96056040D01*
X146732102Y-96055461D01*
X146744952Y-96054337D01*
X146809154Y-96034094D01*
X146852991Y-96008784D01*
X146875192Y-95993239D01*
X146921361Y-95927303D01*
X146938674Y-95879737D01*
X146948052Y-95826552D01*
X146948052Y-95139546D01*
X146948449Y-95131892D01*
X146950244Y-95114633D01*
X146950429Y-95097690D01*
X146968261Y-95050317D01*
X147012373Y-95025488D01*
X147024425Y-95024500D01*
X147753991Y-95024500D01*
X147754000Y-95024500D01*
X147767550Y-95023909D01*
X147780400Y-95022785D01*
X147844602Y-95002542D01*
X147888439Y-94977232D01*
X147910640Y-94961687D01*
X147956809Y-94895751D01*
X147974122Y-94848185D01*
X147983500Y-94795000D01*
X147983500Y-93828500D01*
X148000813Y-93780934D01*
X148044650Y-93755624D01*
X148057500Y-93754500D01*
X150293991Y-93754500D01*
X150294000Y-93754500D01*
X150307550Y-93753909D01*
X150320400Y-93752785D01*
X150384602Y-93732542D01*
X150428439Y-93707232D01*
X150450640Y-93691687D01*
X150496809Y-93625751D01*
X150514122Y-93578185D01*
X150523500Y-93525000D01*
X150523500Y-91948000D01*
X157099000Y-91948000D01*
X157099000Y-104267000D01*
X141986000Y-104267000D01*
X141986000Y-98044000D01*
X142038867Y-98044000D01*
X142057302Y-98172223D01*
X142057302Y-98172224D01*
X142057303Y-98172226D01*
X142111118Y-98290063D01*
X142195951Y-98387967D01*
X142304931Y-98458004D01*
X142429228Y-98494500D01*
X142558772Y-98494500D01*
X142683069Y-98458004D01*
X142792049Y-98387967D01*
X142876882Y-98290063D01*
X142930697Y-98172226D01*
X142949133Y-98044000D01*
X142946168Y-98023381D01*
X142956535Y-97973837D01*
X142967085Y-97960529D01*
X143426473Y-97501141D01*
X143437676Y-97491947D01*
X143454624Y-97480624D01*
X143480458Y-97441960D01*
X143494874Y-97420387D01*
X143535695Y-97390456D01*
X143556402Y-97387500D01*
X143564254Y-97387500D01*
X143564260Y-97387500D01*
X143632393Y-97377573D01*
X143737483Y-97326198D01*
X143820198Y-97243483D01*
X143871573Y-97138393D01*
X143881500Y-97070260D01*
X143881500Y-96603740D01*
X143871573Y-96535607D01*
X143820198Y-96430517D01*
X143737483Y-96347802D01*
X143737482Y-96347801D01*
X143632394Y-96296427D01*
X143564264Y-96286500D01*
X143564260Y-96286500D01*
X142947740Y-96286500D01*
X142947735Y-96286500D01*
X142879606Y-96296427D01*
X142879605Y-96296427D01*
X142774517Y-96347801D01*
X142691801Y-96430517D01*
X142640427Y-96535605D01*
X142640427Y-96535606D01*
X142630500Y-96603735D01*
X142630500Y-97070264D01*
X142640427Y-97138393D01*
X142640427Y-97138394D01*
X142691801Y-97243482D01*
X142746025Y-97297706D01*
X142767417Y-97343582D01*
X142754316Y-97392477D01*
X142746025Y-97402358D01*
X142576558Y-97571826D01*
X142530682Y-97593218D01*
X142524232Y-97593500D01*
X142429228Y-97593500D01*
X142304931Y-97629995D01*
X142195954Y-97700031D01*
X142195950Y-97700034D01*
X142111119Y-97797935D01*
X142057302Y-97915776D01*
X142038867Y-98044000D01*
X141986000Y-98044000D01*
X141986000Y-88900000D01*
X148590000Y-88900000D01*
X148590000Y-91157500D01*
G37*
%TD.AperFunction*%
%TD*%
%TA.AperFunction,Conductor*%
%TO.N,GND*%
G36*
X166084851Y-75692502D02*
G01*
X166113364Y-75692502D01*
X166118642Y-75692690D01*
X166185625Y-75697481D01*
X166185740Y-75697490D01*
X166335426Y-75709271D01*
X166345332Y-75710731D01*
X166439787Y-75731278D01*
X166441213Y-75731605D01*
X166558621Y-75759792D01*
X166567184Y-75762406D01*
X166662929Y-75798118D01*
X166665387Y-75799085D01*
X166771711Y-75843126D01*
X166778856Y-75846544D01*
X166870463Y-75896565D01*
X166873624Y-75898395D01*
X166969986Y-75957446D01*
X166975642Y-75961283D01*
X167059929Y-76024380D01*
X167063625Y-76027337D01*
X167148958Y-76100219D01*
X167153225Y-76104163D01*
X167227843Y-76178781D01*
X167231787Y-76183048D01*
X167304648Y-76268358D01*
X167307618Y-76272070D01*
X167370712Y-76356352D01*
X167374568Y-76362035D01*
X167433595Y-76458360D01*
X167435447Y-76461559D01*
X167485456Y-76553143D01*
X167488875Y-76560290D01*
X167532899Y-76666575D01*
X167533866Y-76669032D01*
X167569594Y-76764819D01*
X167572215Y-76773405D01*
X167600360Y-76890639D01*
X167600714Y-76892184D01*
X167621269Y-76986674D01*
X167622732Y-76996598D01*
X167634483Y-77145909D01*
X167634522Y-77146435D01*
X167638501Y-77202074D01*
X167639207Y-77211940D01*
X167639311Y-77213386D01*
X167639500Y-77218666D01*
X167639500Y-103121363D01*
X167639311Y-103126643D01*
X167634538Y-103193368D01*
X167634499Y-103193894D01*
X167622733Y-103343404D01*
X167621270Y-103353327D01*
X167600717Y-103447810D01*
X167600363Y-103449356D01*
X167572215Y-103566600D01*
X167569594Y-103575186D01*
X167533867Y-103670973D01*
X167532900Y-103673430D01*
X167488882Y-103779700D01*
X167485463Y-103786846D01*
X167435439Y-103878459D01*
X167433586Y-103881660D01*
X167374573Y-103977959D01*
X167370718Y-103983641D01*
X167307605Y-104067948D01*
X167304635Y-104071660D01*
X167231805Y-104156934D01*
X167227861Y-104161201D01*
X167153201Y-104235861D01*
X167148934Y-104239805D01*
X167063665Y-104312631D01*
X167059954Y-104315600D01*
X166975640Y-104378719D01*
X166969956Y-104382576D01*
X166873667Y-104441581D01*
X166870467Y-104443433D01*
X166778849Y-104493460D01*
X166771704Y-104496879D01*
X166665397Y-104540913D01*
X166662938Y-104541880D01*
X166567193Y-104577591D01*
X166558608Y-104580212D01*
X166441275Y-104608381D01*
X166439729Y-104608735D01*
X166345341Y-104629267D01*
X166335418Y-104630730D01*
X166185906Y-104642497D01*
X166185379Y-104642536D01*
X166118642Y-104647309D01*
X166113363Y-104647498D01*
X126748636Y-104647498D01*
X126743358Y-104647309D01*
X126733357Y-104646593D01*
X126676630Y-104642536D01*
X126676104Y-104642497D01*
X126526593Y-104630731D01*
X126516669Y-104629268D01*
X126422192Y-104608716D01*
X126420647Y-104608362D01*
X126303404Y-104580215D01*
X126294818Y-104577594D01*
X126199025Y-104541864D01*
X126196567Y-104540897D01*
X126090296Y-104496878D01*
X126083151Y-104493459D01*
X125991538Y-104443435D01*
X125988337Y-104441582D01*
X125892038Y-104382570D01*
X125886356Y-104378715D01*
X125802050Y-104315603D01*
X125798338Y-104312633D01*
X125713064Y-104239803D01*
X125708797Y-104235859D01*
X125634138Y-104161200D01*
X125630194Y-104156933D01*
X125557364Y-104071659D01*
X125554394Y-104067947D01*
X125530812Y-104036446D01*
X125491272Y-103983627D01*
X125487443Y-103977984D01*
X125428391Y-103881620D01*
X125426566Y-103878465D01*
X125376539Y-103786847D01*
X125373124Y-103779711D01*
X125329076Y-103673370D01*
X125328134Y-103670973D01*
X125312852Y-103630000D01*
X126583633Y-103630000D01*
X126583930Y-103631940D01*
X126583931Y-103631945D01*
X126654565Y-103822665D01*
X126762144Y-103995260D01*
X126902268Y-104142671D01*
X127069198Y-104258857D01*
X127256088Y-104339058D01*
X127256098Y-104339061D01*
X127455303Y-104379999D01*
X127455311Y-104380000D01*
X127707000Y-104380000D01*
X127707000Y-103680000D01*
X128207000Y-103680000D01*
X128207000Y-104380000D01*
X128407711Y-104380000D01*
X128407719Y-104379999D01*
X128559333Y-104364582D01*
X128559338Y-104364580D01*
X128753384Y-104303699D01*
X128753385Y-104303698D01*
X128931217Y-104204993D01*
X128931222Y-104204989D01*
X129085528Y-104072522D01*
X129085531Y-104072520D01*
X129210017Y-103911696D01*
X129210019Y-103911694D01*
X129299586Y-103729097D01*
X129299588Y-103729092D01*
X129325246Y-103630000D01*
X128523111Y-103630000D01*
X128562610Y-103605543D01*
X128630201Y-103516038D01*
X128660895Y-103408160D01*
X128650546Y-103296479D01*
X128600552Y-103196078D01*
X128528069Y-103130000D01*
X129330367Y-103130000D01*
X129330069Y-103128059D01*
X129330068Y-103128054D01*
X129259434Y-102937334D01*
X129151855Y-102764739D01*
X129011731Y-102617328D01*
X128844801Y-102501142D01*
X128657911Y-102420941D01*
X128657901Y-102420938D01*
X128458696Y-102380000D01*
X128207000Y-102380000D01*
X128207000Y-103080000D01*
X127707000Y-103080000D01*
X127707000Y-102380000D01*
X127506280Y-102380000D01*
X127354666Y-102395417D01*
X127354661Y-102395419D01*
X127160615Y-102456300D01*
X127160614Y-102456301D01*
X126982782Y-102555006D01*
X126982777Y-102555010D01*
X126828471Y-102687477D01*
X126828468Y-102687479D01*
X126703982Y-102848303D01*
X126703980Y-102848305D01*
X126614413Y-103030902D01*
X126614411Y-103030907D01*
X126588754Y-103130000D01*
X127390889Y-103130000D01*
X127351390Y-103154457D01*
X127283799Y-103243962D01*
X127253105Y-103351840D01*
X127263454Y-103463521D01*
X127313448Y-103563922D01*
X127385931Y-103630000D01*
X126583633Y-103630000D01*
X125312852Y-103630000D01*
X125292400Y-103575164D01*
X125289789Y-103566614D01*
X125261615Y-103449261D01*
X125261306Y-103447911D01*
X125240726Y-103353307D01*
X125239268Y-103343419D01*
X125227500Y-103193892D01*
X125222687Y-103126596D01*
X125222500Y-103121323D01*
X125222500Y-101780000D01*
X129892500Y-101780000D01*
X129893091Y-101793550D01*
X129893092Y-101793567D01*
X129894214Y-101806397D01*
X129894215Y-101806402D01*
X129914458Y-101870603D01*
X129914459Y-101870605D01*
X129939765Y-101914435D01*
X129939774Y-101914449D01*
X129955312Y-101936639D01*
X129955313Y-101936640D01*
X130021249Y-101982809D01*
X130068815Y-102000122D01*
X130122000Y-102009500D01*
X130122004Y-102009500D01*
X131058247Y-102009500D01*
X131105813Y-102026813D01*
X131130699Y-102068444D01*
X131142598Y-102125708D01*
X131208337Y-102252581D01*
X131208338Y-102252583D01*
X131271221Y-102319913D01*
X131291035Y-102366493D01*
X131276272Y-102414911D01*
X131239292Y-102441028D01*
X131190615Y-102456300D01*
X131190614Y-102456301D01*
X131012782Y-102555006D01*
X131012777Y-102555010D01*
X130858471Y-102687477D01*
X130858468Y-102687479D01*
X130733982Y-102848303D01*
X130733980Y-102848305D01*
X130644413Y-103030902D01*
X130644411Y-103030907D01*
X130618754Y-103130000D01*
X131420889Y-103130000D01*
X131381390Y-103154457D01*
X131313799Y-103243962D01*
X131283105Y-103351840D01*
X131293454Y-103463521D01*
X131343448Y-103563922D01*
X131415931Y-103630000D01*
X130613633Y-103630000D01*
X130613930Y-103631940D01*
X130613931Y-103631945D01*
X130684565Y-103822665D01*
X130792144Y-103995260D01*
X130932268Y-104142671D01*
X131099198Y-104258857D01*
X131286088Y-104339058D01*
X131286098Y-104339061D01*
X131485303Y-104379999D01*
X131485311Y-104380000D01*
X131887000Y-104380000D01*
X131887000Y-103680000D01*
X132387000Y-103680000D01*
X132387000Y-104380000D01*
X132737711Y-104380000D01*
X132737719Y-104379999D01*
X132889333Y-104364582D01*
X132889338Y-104364580D01*
X133083384Y-104303699D01*
X133083385Y-104303698D01*
X133149502Y-104267000D01*
X141986000Y-104267000D01*
X157099000Y-104267000D01*
X157099000Y-101780000D01*
X157832500Y-101780000D01*
X157833091Y-101793550D01*
X157833092Y-101793567D01*
X157834214Y-101806397D01*
X157834215Y-101806402D01*
X157854458Y-101870603D01*
X157854459Y-101870605D01*
X157879765Y-101914435D01*
X157879774Y-101914449D01*
X157895312Y-101936639D01*
X157895313Y-101936640D01*
X157961249Y-101982809D01*
X158008815Y-102000122D01*
X158062000Y-102009500D01*
X158062004Y-102009500D01*
X159044888Y-102009500D01*
X159046262Y-102010000D01*
X159900000Y-102010000D01*
X159916595Y-101993404D01*
X159917313Y-101991434D01*
X159920277Y-101989722D01*
X159921674Y-101988326D01*
X159922048Y-101988700D01*
X159961150Y-101966124D01*
X159974000Y-101965000D01*
X160326000Y-101965000D01*
X160373566Y-101982313D01*
X160398876Y-102026150D01*
X160400000Y-102039000D01*
X160400000Y-102436000D01*
X160382687Y-102483566D01*
X160338850Y-102508876D01*
X160326000Y-102510000D01*
X159077704Y-102510000D01*
X159077900Y-102512493D01*
X159123718Y-102670199D01*
X159207317Y-102811556D01*
X159258926Y-102863165D01*
X159280318Y-102909041D01*
X159273038Y-102948079D01*
X159232414Y-103030898D01*
X159232411Y-103030907D01*
X159206754Y-103130000D01*
X160008889Y-103130000D01*
X159969390Y-103154457D01*
X159901799Y-103243962D01*
X159871105Y-103351840D01*
X159881454Y-103463521D01*
X159931448Y-103563922D01*
X160003931Y-103630000D01*
X159201633Y-103630000D01*
X159201930Y-103631940D01*
X159201931Y-103631945D01*
X159272565Y-103822665D01*
X159380144Y-103995260D01*
X159520268Y-104142671D01*
X159687198Y-104258857D01*
X159874088Y-104339058D01*
X159874098Y-104339061D01*
X160073303Y-104379999D01*
X160073311Y-104380000D01*
X160475000Y-104380000D01*
X160475000Y-103680000D01*
X160975000Y-103680000D01*
X160975000Y-104380000D01*
X161325711Y-104380000D01*
X161325719Y-104379999D01*
X161477333Y-104364582D01*
X161477338Y-104364580D01*
X161671384Y-104303699D01*
X161671385Y-104303698D01*
X161849217Y-104204993D01*
X161849222Y-104204989D01*
X162003528Y-104072522D01*
X162003531Y-104072520D01*
X162128017Y-103911696D01*
X162128019Y-103911694D01*
X162217586Y-103729097D01*
X162217588Y-103729092D01*
X162243246Y-103630000D01*
X163531633Y-103630000D01*
X163531930Y-103631940D01*
X163531931Y-103631945D01*
X163602565Y-103822665D01*
X163710144Y-103995260D01*
X163850268Y-104142671D01*
X164017198Y-104258857D01*
X164204088Y-104339058D01*
X164204098Y-104339061D01*
X164403303Y-104379999D01*
X164403311Y-104380000D01*
X164655000Y-104380000D01*
X164655000Y-103680000D01*
X165155000Y-103680000D01*
X165155000Y-104380000D01*
X165355711Y-104380000D01*
X165355719Y-104379999D01*
X165507333Y-104364582D01*
X165507338Y-104364580D01*
X165701384Y-104303699D01*
X165701385Y-104303698D01*
X165879217Y-104204993D01*
X165879222Y-104204989D01*
X166033528Y-104072522D01*
X166033531Y-104072520D01*
X166158017Y-103911696D01*
X166158019Y-103911694D01*
X166247586Y-103729097D01*
X166247588Y-103729092D01*
X166273246Y-103630000D01*
X165471111Y-103630000D01*
X165510610Y-103605543D01*
X165578201Y-103516038D01*
X165608895Y-103408160D01*
X165598546Y-103296479D01*
X165548552Y-103196078D01*
X165476069Y-103130000D01*
X166278367Y-103130000D01*
X166278069Y-103128059D01*
X166278068Y-103128054D01*
X166207434Y-102937334D01*
X166099855Y-102764739D01*
X165959731Y-102617328D01*
X165792801Y-102501142D01*
X165605911Y-102420941D01*
X165605901Y-102420938D01*
X165406696Y-102380000D01*
X165155000Y-102380000D01*
X165155000Y-103080000D01*
X164655000Y-103080000D01*
X164655000Y-102380000D01*
X164454280Y-102380000D01*
X164302666Y-102395417D01*
X164302661Y-102395419D01*
X164108615Y-102456300D01*
X164108614Y-102456301D01*
X163930782Y-102555006D01*
X163930777Y-102555010D01*
X163776471Y-102687477D01*
X163776468Y-102687479D01*
X163651982Y-102848303D01*
X163651980Y-102848305D01*
X163562413Y-103030902D01*
X163562411Y-103030907D01*
X163536754Y-103130000D01*
X164338889Y-103130000D01*
X164299390Y-103154457D01*
X164231799Y-103243962D01*
X164201105Y-103351840D01*
X164211454Y-103463521D01*
X164261448Y-103563922D01*
X164333931Y-103630000D01*
X163531633Y-103630000D01*
X162243246Y-103630000D01*
X161441111Y-103630000D01*
X161480610Y-103605543D01*
X161548201Y-103516038D01*
X161578895Y-103408160D01*
X161568546Y-103296479D01*
X161518552Y-103196078D01*
X161446069Y-103130000D01*
X162248367Y-103130000D01*
X162248069Y-103128059D01*
X162248068Y-103128054D01*
X162177434Y-102937334D01*
X162069855Y-102764739D01*
X161929731Y-102617328D01*
X161762803Y-102501143D01*
X161618830Y-102439359D01*
X161581946Y-102404691D01*
X161575976Y-102354425D01*
X161601315Y-102313952D01*
X161608467Y-102308134D01*
X161690871Y-102191395D01*
X161738023Y-102058718D01*
X161770264Y-102019697D01*
X161807750Y-102009500D01*
X162739991Y-102009500D01*
X162740000Y-102009500D01*
X162753550Y-102008909D01*
X162766400Y-102007785D01*
X162830602Y-101987542D01*
X162874439Y-101962232D01*
X162896640Y-101946687D01*
X162942809Y-101880751D01*
X162960122Y-101833185D01*
X162969500Y-101780000D01*
X162969500Y-96340000D01*
X162968909Y-96326450D01*
X162967785Y-96313600D01*
X162947542Y-96249398D01*
X162946575Y-96247724D01*
X162922234Y-96205564D01*
X162922225Y-96205550D01*
X162906687Y-96183360D01*
X162906686Y-96183359D01*
X162840754Y-96137193D01*
X162840753Y-96137192D01*
X162840751Y-96137191D01*
X162840749Y-96137190D01*
X162840747Y-96137189D01*
X162793184Y-96119877D01*
X162740003Y-96110500D01*
X162740000Y-96110500D01*
X161803753Y-96110500D01*
X161756187Y-96093187D01*
X161731301Y-96051556D01*
X161719401Y-95994291D01*
X161719401Y-95994290D01*
X161653662Y-95867418D01*
X161653661Y-95867416D01*
X161590778Y-95800086D01*
X161570964Y-95753506D01*
X161585727Y-95705088D01*
X161622708Y-95678970D01*
X161671389Y-95663696D01*
X161849217Y-95564993D01*
X161849222Y-95564989D01*
X162003528Y-95432522D01*
X162003531Y-95432520D01*
X162128017Y-95271696D01*
X162128019Y-95271694D01*
X162217586Y-95089097D01*
X162217588Y-95089092D01*
X162243246Y-94990000D01*
X163531633Y-94990000D01*
X163531930Y-94991940D01*
X163531931Y-94991945D01*
X163602565Y-95182665D01*
X163710144Y-95355260D01*
X163850268Y-95502671D01*
X164017198Y-95618857D01*
X164204088Y-95699058D01*
X164204098Y-95699061D01*
X164403303Y-95739999D01*
X164403311Y-95740000D01*
X164655000Y-95740000D01*
X164655000Y-95040000D01*
X165155000Y-95040000D01*
X165155000Y-95740000D01*
X165355711Y-95740000D01*
X165355719Y-95739999D01*
X165507333Y-95724582D01*
X165507338Y-95724580D01*
X165701384Y-95663699D01*
X165701385Y-95663698D01*
X165879217Y-95564993D01*
X165879222Y-95564989D01*
X166033528Y-95432522D01*
X166033531Y-95432520D01*
X166158017Y-95271696D01*
X166158019Y-95271694D01*
X166247586Y-95089097D01*
X166247588Y-95089092D01*
X166273246Y-94990000D01*
X165471111Y-94990000D01*
X165510610Y-94965543D01*
X165578201Y-94876038D01*
X165608895Y-94768160D01*
X165598546Y-94656479D01*
X165548552Y-94556078D01*
X165476069Y-94490000D01*
X166278367Y-94490000D01*
X166278069Y-94488059D01*
X166278068Y-94488054D01*
X166207434Y-94297334D01*
X166099855Y-94124739D01*
X165959731Y-93977328D01*
X165792801Y-93861142D01*
X165605911Y-93780941D01*
X165605901Y-93780938D01*
X165406696Y-93740000D01*
X165155000Y-93740000D01*
X165155000Y-94440000D01*
X164655000Y-94440000D01*
X164655000Y-93740000D01*
X164454280Y-93740000D01*
X164302666Y-93755417D01*
X164302661Y-93755419D01*
X164108615Y-93816300D01*
X164108614Y-93816301D01*
X163930782Y-93915006D01*
X163930777Y-93915010D01*
X163776471Y-94047477D01*
X163776468Y-94047479D01*
X163651982Y-94208303D01*
X163651980Y-94208305D01*
X163562413Y-94390902D01*
X163562411Y-94390907D01*
X163536754Y-94490000D01*
X164338889Y-94490000D01*
X164299390Y-94514457D01*
X164231799Y-94603962D01*
X164201105Y-94711840D01*
X164211454Y-94823521D01*
X164261448Y-94923922D01*
X164333931Y-94990000D01*
X163531633Y-94990000D01*
X162243246Y-94990000D01*
X161441111Y-94990000D01*
X161480610Y-94965543D01*
X161548201Y-94876038D01*
X161578895Y-94768160D01*
X161568546Y-94656479D01*
X161518552Y-94556078D01*
X161446069Y-94490000D01*
X162248367Y-94490000D01*
X162248069Y-94488059D01*
X162248068Y-94488054D01*
X162177434Y-94297334D01*
X162069855Y-94124739D01*
X161929731Y-93977328D01*
X161762801Y-93861142D01*
X161575911Y-93780941D01*
X161575901Y-93780938D01*
X161376696Y-93740000D01*
X160975000Y-93740000D01*
X160975000Y-94440000D01*
X160475000Y-94440000D01*
X160475000Y-93740000D01*
X160124280Y-93740000D01*
X159972666Y-93755417D01*
X159972661Y-93755419D01*
X159778615Y-93816300D01*
X159778614Y-93816301D01*
X159600782Y-93915006D01*
X159600777Y-93915010D01*
X159446471Y-94047477D01*
X159446468Y-94047479D01*
X159321982Y-94208303D01*
X159321980Y-94208305D01*
X159232413Y-94390902D01*
X159232411Y-94390907D01*
X159206754Y-94490000D01*
X160008889Y-94490000D01*
X159969390Y-94514457D01*
X159901799Y-94603962D01*
X159871105Y-94711840D01*
X159881454Y-94823521D01*
X159931448Y-94923922D01*
X160003931Y-94990000D01*
X159201633Y-94990000D01*
X159201930Y-94991940D01*
X159201931Y-94991945D01*
X159272449Y-95182352D01*
X159272733Y-95232970D01*
X159255382Y-95260377D01*
X159207317Y-95308443D01*
X159123718Y-95449800D01*
X159077900Y-95607506D01*
X159077704Y-95610000D01*
X159900000Y-95610000D01*
X159900000Y-95091000D01*
X159917313Y-95043434D01*
X159961150Y-95018124D01*
X159974000Y-95017000D01*
X160059549Y-95017000D01*
X160118920Y-95040000D01*
X160376849Y-95040000D01*
X160398876Y-95078150D01*
X160400000Y-95091000D01*
X160400000Y-96036000D01*
X160382687Y-96083566D01*
X160338850Y-96108876D01*
X160326000Y-96110000D01*
X159052829Y-96110000D01*
X159044888Y-96110500D01*
X158062000Y-96110500D01*
X158048450Y-96111091D01*
X158048445Y-96111091D01*
X158048432Y-96111092D01*
X158035602Y-96112214D01*
X158035597Y-96112215D01*
X157971396Y-96132458D01*
X157971394Y-96132459D01*
X157927564Y-96157765D01*
X157927550Y-96157774D01*
X157905360Y-96173312D01*
X157905359Y-96173313D01*
X157859193Y-96239245D01*
X157859189Y-96239252D01*
X157841877Y-96286815D01*
X157832500Y-96339996D01*
X157832500Y-96340000D01*
X157832500Y-97970000D01*
X157832957Y-97980468D01*
X157833092Y-97983567D01*
X157834214Y-97996397D01*
X157834215Y-97996402D01*
X157854458Y-98060603D01*
X157854459Y-98060605D01*
X157879765Y-98104435D01*
X157879774Y-98104449D01*
X157888506Y-98116919D01*
X157895313Y-98126640D01*
X157961249Y-98172809D01*
X158008815Y-98190122D01*
X158062000Y-98199500D01*
X158062004Y-98199500D01*
X159350500Y-98199500D01*
X159398066Y-98216813D01*
X159423376Y-98260650D01*
X159424500Y-98273499D01*
X159424500Y-98407205D01*
X159437583Y-98472987D01*
X159468253Y-98518889D01*
X159480284Y-98568057D01*
X159468253Y-98601111D01*
X159437583Y-98647012D01*
X159424500Y-98712789D01*
X159424500Y-98907205D01*
X159437583Y-98972987D01*
X159468253Y-99018889D01*
X159480284Y-99068057D01*
X159468253Y-99101111D01*
X159437583Y-99147012D01*
X159424500Y-99212789D01*
X159424500Y-99407205D01*
X159437583Y-99472987D01*
X159468253Y-99518889D01*
X159480284Y-99568057D01*
X159468253Y-99601111D01*
X159437583Y-99647012D01*
X159430776Y-99681234D01*
X159424500Y-99712789D01*
X159424500Y-99809500D01*
X159424501Y-99846499D01*
X159407189Y-99894066D01*
X159363351Y-99919376D01*
X159350501Y-99920500D01*
X158062000Y-99920500D01*
X158048450Y-99921091D01*
X158048445Y-99921091D01*
X158048432Y-99921092D01*
X158035602Y-99922214D01*
X158035597Y-99922215D01*
X157971396Y-99942458D01*
X157971394Y-99942459D01*
X157927564Y-99967765D01*
X157927550Y-99967774D01*
X157905360Y-99983312D01*
X157905359Y-99983313D01*
X157859193Y-100049245D01*
X157859189Y-100049252D01*
X157841877Y-100096815D01*
X157832500Y-100149996D01*
X157832500Y-100150000D01*
X157832500Y-101780000D01*
X157099000Y-101780000D01*
X157099000Y-91948000D01*
X150523500Y-91948000D01*
X150523500Y-90304502D01*
X162035190Y-90304502D01*
X162072553Y-90552393D01*
X162075284Y-90570510D01*
X162154570Y-90827547D01*
X162154573Y-90827556D01*
X162271290Y-91069921D01*
X162422826Y-91292184D01*
X162605796Y-91489378D01*
X162605799Y-91489381D01*
X162816100Y-91657092D01*
X162816106Y-91657095D01*
X162816112Y-91657100D01*
X163049077Y-91791603D01*
X163299487Y-91889881D01*
X163299490Y-91889882D01*
X163364615Y-91904746D01*
X163561747Y-91949740D01*
X163727218Y-91962140D01*
X163762824Y-91964809D01*
X163762840Y-91964810D01*
X163897160Y-91964810D01*
X163897175Y-91964809D01*
X163919374Y-91963145D01*
X164098253Y-91949740D01*
X164360513Y-91889881D01*
X164610923Y-91791603D01*
X164843888Y-91657100D01*
X164843895Y-91657093D01*
X164843899Y-91657092D01*
X165054200Y-91489381D01*
X165054199Y-91489381D01*
X165054204Y-91489378D01*
X165237174Y-91292184D01*
X165388710Y-91069922D01*
X165505427Y-90827556D01*
X165584717Y-90570503D01*
X165624810Y-90304502D01*
X165624810Y-90035498D01*
X165584717Y-89769497D01*
X165583980Y-89767109D01*
X165528733Y-89588000D01*
X165505427Y-89512444D01*
X165388710Y-89270079D01*
X165237174Y-89047816D01*
X165054204Y-88850622D01*
X165054202Y-88850621D01*
X165054200Y-88850618D01*
X164843899Y-88682907D01*
X164843892Y-88682903D01*
X164843891Y-88682902D01*
X164843888Y-88682900D01*
X164610923Y-88548397D01*
X164610922Y-88548396D01*
X164610921Y-88548396D01*
X164360509Y-88450117D01*
X164098253Y-88390260D01*
X163897175Y-88375190D01*
X163897160Y-88375190D01*
X163762840Y-88375190D01*
X163762824Y-88375190D01*
X163561746Y-88390260D01*
X163299490Y-88450117D01*
X163049078Y-88548396D01*
X162816107Y-88682903D01*
X162816100Y-88682907D01*
X162605799Y-88850618D01*
X162422824Y-89047818D01*
X162271289Y-89270080D01*
X162154575Y-89512438D01*
X162154570Y-89512452D01*
X162075284Y-89769489D01*
X162075283Y-89769497D01*
X162035190Y-90035498D01*
X162035190Y-90304502D01*
X150523500Y-90304502D01*
X150523500Y-88466008D01*
X150523500Y-88466000D01*
X150522909Y-88452450D01*
X150521785Y-88439600D01*
X150501542Y-88375398D01*
X150495682Y-88365249D01*
X150476234Y-88331564D01*
X150476225Y-88331550D01*
X150460687Y-88309360D01*
X150460686Y-88309359D01*
X150394754Y-88263193D01*
X150394753Y-88263192D01*
X150394751Y-88263191D01*
X150394749Y-88263190D01*
X150394747Y-88263189D01*
X150347184Y-88245877D01*
X150294003Y-88236500D01*
X150294000Y-88236500D01*
X148918000Y-88236500D01*
X148904450Y-88237091D01*
X148904445Y-88237091D01*
X148904432Y-88237092D01*
X148891602Y-88238214D01*
X148891597Y-88238215D01*
X148827396Y-88258458D01*
X148827394Y-88258459D01*
X148783564Y-88283765D01*
X148783550Y-88283774D01*
X148761360Y-88299312D01*
X148761359Y-88299313D01*
X148715193Y-88365245D01*
X148715189Y-88365252D01*
X148697877Y-88412815D01*
X148688500Y-88465996D01*
X148688500Y-89719543D01*
X148671187Y-89767109D01*
X148627350Y-89792419D01*
X148590000Y-89785833D01*
X148590000Y-88900000D01*
X141986000Y-88900000D01*
X141986000Y-104267000D01*
X133149502Y-104267000D01*
X133261217Y-104204993D01*
X133261222Y-104204989D01*
X133415528Y-104072522D01*
X133415531Y-104072520D01*
X133540017Y-103911696D01*
X133540019Y-103911694D01*
X133629586Y-103729097D01*
X133629588Y-103729092D01*
X133655246Y-103630000D01*
X132853111Y-103630000D01*
X132892610Y-103605543D01*
X132960201Y-103516038D01*
X132990895Y-103408160D01*
X132980546Y-103296479D01*
X132930552Y-103196078D01*
X132858069Y-103130000D01*
X133660367Y-103130000D01*
X133660069Y-103128059D01*
X133660069Y-103128057D01*
X133589549Y-102937647D01*
X133589264Y-102887028D01*
X133606618Y-102859619D01*
X133654683Y-102811554D01*
X133738281Y-102670199D01*
X133784099Y-102512493D01*
X133784296Y-102510000D01*
X131980556Y-102510000D01*
X131932990Y-102492687D01*
X131907680Y-102448850D01*
X131916470Y-102399000D01*
X131933856Y-102378597D01*
X131963567Y-102354425D01*
X132020467Y-102308134D01*
X132102871Y-102191395D01*
X132149846Y-102059215D01*
X132182086Y-102020197D01*
X132219572Y-102010000D01*
X132462000Y-102010000D01*
X132478595Y-101993404D01*
X132479313Y-101991434D01*
X132482277Y-101989722D01*
X132483674Y-101988326D01*
X132484048Y-101988700D01*
X132523150Y-101966124D01*
X132536000Y-101965000D01*
X132888000Y-101965000D01*
X132935566Y-101982313D01*
X132939509Y-101989142D01*
X132940326Y-101988326D01*
X132962000Y-102010000D01*
X133809171Y-102010000D01*
X133817112Y-102009500D01*
X134609232Y-102009500D01*
X134656798Y-102026813D01*
X134661558Y-102031174D01*
X135509666Y-102879282D01*
X135531058Y-102925158D01*
X135530631Y-102940065D01*
X135530694Y-102940070D01*
X135530591Y-102941491D01*
X135530569Y-102942261D01*
X135530501Y-102942723D01*
X135530500Y-102942747D01*
X135530500Y-103559264D01*
X135540427Y-103627393D01*
X135540427Y-103627394D01*
X135591801Y-103732482D01*
X135591802Y-103732483D01*
X135674517Y-103815198D01*
X135779607Y-103866573D01*
X135847740Y-103876500D01*
X135847746Y-103876500D01*
X136314254Y-103876500D01*
X136314260Y-103876500D01*
X136382393Y-103866573D01*
X136487483Y-103815198D01*
X136570198Y-103732483D01*
X136621573Y-103627393D01*
X136631500Y-103559260D01*
X136631500Y-102942740D01*
X136621573Y-102874607D01*
X136570198Y-102769517D01*
X136487483Y-102686802D01*
X136487482Y-102686801D01*
X136382394Y-102635427D01*
X136314264Y-102625500D01*
X136314260Y-102625500D01*
X136065768Y-102625500D01*
X136018202Y-102608187D01*
X136013442Y-102603826D01*
X135051174Y-101641558D01*
X135029782Y-101595682D01*
X135029500Y-101589232D01*
X135029500Y-100150008D01*
X135029500Y-100150000D01*
X135028909Y-100136450D01*
X135027785Y-100123600D01*
X135007542Y-100059398D01*
X135001682Y-100049249D01*
X134982234Y-100015564D01*
X134982225Y-100015550D01*
X134966687Y-99993360D01*
X134966686Y-99993359D01*
X134900754Y-99947193D01*
X134900753Y-99947192D01*
X134900751Y-99947191D01*
X134900749Y-99947190D01*
X134900747Y-99947189D01*
X134853184Y-99929877D01*
X134800003Y-99920500D01*
X134800000Y-99920500D01*
X133744766Y-99920500D01*
X133697200Y-99903187D01*
X133671890Y-99859350D01*
X133680680Y-99809500D01*
X133692440Y-99794174D01*
X133693991Y-99792623D01*
X133774473Y-99712140D01*
X133785676Y-99702946D01*
X133802624Y-99691623D01*
X133863515Y-99600494D01*
X133879500Y-99520132D01*
X133879500Y-99520131D01*
X133884897Y-99492999D01*
X133880922Y-99473014D01*
X133879500Y-99458578D01*
X133879500Y-99161421D01*
X133880922Y-99146984D01*
X133884897Y-99127001D01*
X133880523Y-99105010D01*
X133878678Y-99095736D01*
X133886378Y-99045707D01*
X133924435Y-99012332D01*
X133951256Y-99007300D01*
X134400758Y-99007300D01*
X134448324Y-99024613D01*
X134453084Y-99028974D01*
X135851955Y-100427845D01*
X135861157Y-100439058D01*
X135872235Y-100455637D01*
X135872236Y-100455638D01*
X135891849Y-100468743D01*
X135891853Y-100468746D01*
X135894875Y-100470765D01*
X135894876Y-100470766D01*
X135914266Y-100483722D01*
X135961927Y-100515568D01*
X136041018Y-100531300D01*
X136041019Y-100531300D01*
X136044573Y-100532007D01*
X136044581Y-100532007D01*
X136067724Y-100536611D01*
X136087276Y-100532721D01*
X136101712Y-100531300D01*
X136528294Y-100531300D01*
X136575860Y-100548613D01*
X136601170Y-100592450D01*
X136592380Y-100642300D01*
X136569406Y-100666829D01*
X136529496Y-100693495D01*
X136529495Y-100693496D01*
X136496233Y-100743277D01*
X136487500Y-100787180D01*
X136487500Y-102316819D01*
X136496233Y-102360722D01*
X136519416Y-102395419D01*
X136529496Y-102410504D01*
X136579278Y-102443767D01*
X136608866Y-102449652D01*
X136652140Y-102475911D01*
X136667007Y-102507793D01*
X136667446Y-102510000D01*
X136678485Y-102565495D01*
X136725212Y-102635427D01*
X136739377Y-102656625D01*
X136756314Y-102667942D01*
X136767529Y-102677145D01*
X137158826Y-103068442D01*
X137180218Y-103114318D01*
X137180500Y-103120768D01*
X137180500Y-103559264D01*
X137190427Y-103627393D01*
X137190427Y-103627394D01*
X137241801Y-103732482D01*
X137241802Y-103732483D01*
X137324517Y-103815198D01*
X137429607Y-103866573D01*
X137497740Y-103876500D01*
X137497746Y-103876500D01*
X137964254Y-103876500D01*
X137964260Y-103876500D01*
X138032393Y-103866573D01*
X138137483Y-103815198D01*
X138220198Y-103732483D01*
X138271573Y-103627393D01*
X138277046Y-103589830D01*
X138301037Y-103545257D01*
X138348065Y-103526533D01*
X138350273Y-103526500D01*
X138513023Y-103526500D01*
X138560589Y-103543813D01*
X138585899Y-103587650D01*
X138586250Y-103589830D01*
X138589134Y-103609625D01*
X138589134Y-103609626D01*
X138644173Y-103722210D01*
X138644174Y-103722211D01*
X138732789Y-103810826D01*
X138845375Y-103865866D01*
X138918364Y-103876500D01*
X138918370Y-103876500D01*
X139439630Y-103876500D01*
X139439636Y-103876500D01*
X139512625Y-103865866D01*
X139625211Y-103810826D01*
X139703885Y-103732151D01*
X139749760Y-103710760D01*
X139798654Y-103723860D01*
X139826454Y-103761202D01*
X139842452Y-103809482D01*
X139931426Y-103953731D01*
X140051268Y-104073573D01*
X140195517Y-104162547D01*
X140356391Y-104215855D01*
X140455689Y-104225999D01*
X140479000Y-104225999D01*
X140479000Y-103501000D01*
X140979000Y-103501000D01*
X140979000Y-104225999D01*
X141002307Y-104225999D01*
X141002312Y-104225998D01*
X141101608Y-104215855D01*
X141262482Y-104162547D01*
X141406731Y-104073573D01*
X141526573Y-103953731D01*
X141615547Y-103809482D01*
X141668855Y-103648608D01*
X141678999Y-103549311D01*
X141679000Y-103549309D01*
X141679000Y-103501000D01*
X140979000Y-103501000D01*
X140479000Y-103501000D01*
X140479000Y-103075000D01*
X140496313Y-103027434D01*
X140540150Y-103002124D01*
X140553000Y-103001000D01*
X141678999Y-103001000D01*
X141678999Y-102952693D01*
X141678998Y-102952687D01*
X141668855Y-102853391D01*
X141615547Y-102692517D01*
X141526573Y-102548268D01*
X141403684Y-102425380D01*
X141404585Y-102424478D01*
X141380730Y-102385782D01*
X141380627Y-102356398D01*
X141388500Y-102316820D01*
X141388500Y-100787180D01*
X141379767Y-100743278D01*
X141346504Y-100693496D01*
X141296722Y-100660233D01*
X141252820Y-100651500D01*
X141252819Y-100651500D01*
X140967300Y-100651500D01*
X140919734Y-100634187D01*
X140894424Y-100590350D01*
X140893300Y-100577500D01*
X140893300Y-100517710D01*
X140894722Y-100503273D01*
X140898611Y-100483722D01*
X140894007Y-100460579D01*
X140894007Y-100460571D01*
X140889292Y-100436866D01*
X140877568Y-100377925D01*
X140817638Y-100288234D01*
X140801054Y-100277153D01*
X140789846Y-100267954D01*
X140720069Y-100198177D01*
X140698677Y-100152301D01*
X140711778Y-100103406D01*
X140746535Y-100076517D01*
X140830087Y-100045354D01*
X140830088Y-100045353D01*
X140945188Y-99959188D01*
X141031353Y-99844088D01*
X141031354Y-99844087D01*
X141081596Y-99709380D01*
X141081597Y-99709375D01*
X141088000Y-99649828D01*
X141088000Y-98802000D01*
X136788000Y-98802000D01*
X136788000Y-99546700D01*
X136770687Y-99594266D01*
X136726850Y-99619576D01*
X136714000Y-99620700D01*
X136363244Y-99620700D01*
X136315678Y-99603387D01*
X136310918Y-99599026D01*
X134914240Y-98202348D01*
X134892848Y-98156472D01*
X134905949Y-98107577D01*
X134947413Y-98078543D01*
X134952111Y-98077448D01*
X134991995Y-98069515D01*
X135052250Y-98029254D01*
X135052252Y-98029253D01*
X135068130Y-98018644D01*
X135068137Y-98018636D01*
X135083124Y-98008624D01*
X135094448Y-97991674D01*
X135103641Y-97980473D01*
X135662438Y-97421676D01*
X135708313Y-97400285D01*
X135757208Y-97413386D01*
X135783129Y-97445684D01*
X135806341Y-97501722D01*
X135835625Y-97572423D01*
X135837173Y-97576159D01*
X135925413Y-97691155D01*
X136040409Y-97779395D01*
X136174325Y-97834864D01*
X136318034Y-97853784D01*
X136461743Y-97834864D01*
X136595659Y-97779395D01*
X136668954Y-97723152D01*
X136717227Y-97707932D01*
X136763993Y-97727303D01*
X136787367Y-97772202D01*
X136788000Y-97781862D01*
X136788000Y-98302000D01*
X141088000Y-98302000D01*
X141088000Y-97454171D01*
X141081597Y-97394624D01*
X141081596Y-97394619D01*
X141031354Y-97259912D01*
X141031353Y-97259911D01*
X140945188Y-97144811D01*
X140830088Y-97058646D01*
X140830087Y-97058645D01*
X140695380Y-97008403D01*
X140695375Y-97008402D01*
X140635829Y-97002000D01*
X140606018Y-97002000D01*
X140558452Y-96984687D01*
X140533142Y-96940850D01*
X140541932Y-96891000D01*
X140553692Y-96875674D01*
X140955192Y-96474174D01*
X141001068Y-96452782D01*
X141007518Y-96452500D01*
X141252819Y-96452500D01*
X141252820Y-96452500D01*
X141296722Y-96443767D01*
X141346504Y-96410504D01*
X141379767Y-96360722D01*
X141388500Y-96316820D01*
X141388500Y-94787180D01*
X141379767Y-94743278D01*
X141346504Y-94693496D01*
X141330906Y-94683074D01*
X141296722Y-94660233D01*
X141288543Y-94658606D01*
X141252820Y-94651500D01*
X140623180Y-94651500D01*
X140602941Y-94655526D01*
X140579277Y-94660233D01*
X140529496Y-94693495D01*
X140529495Y-94693496D01*
X140499529Y-94738345D01*
X140458708Y-94768277D01*
X140408197Y-94764966D01*
X140376471Y-94738345D01*
X140346504Y-94693496D01*
X140346503Y-94693495D01*
X140296722Y-94660233D01*
X140288543Y-94658606D01*
X140252820Y-94651500D01*
X139623180Y-94651500D01*
X139602941Y-94655526D01*
X139579277Y-94660233D01*
X139529496Y-94693495D01*
X139529495Y-94693496D01*
X139499529Y-94738345D01*
X139458708Y-94768277D01*
X139408197Y-94764966D01*
X139376471Y-94738345D01*
X139346504Y-94693496D01*
X139346503Y-94693495D01*
X139296722Y-94660233D01*
X139273061Y-94655526D01*
X139229787Y-94629264D01*
X139213500Y-94582948D01*
X139213500Y-94552500D01*
X139230813Y-94504934D01*
X139274650Y-94479624D01*
X139287500Y-94478500D01*
X139362254Y-94478500D01*
X139362260Y-94478500D01*
X139430393Y-94468573D01*
X139535483Y-94417198D01*
X139618198Y-94334483D01*
X139669573Y-94229393D01*
X139679500Y-94161260D01*
X139679500Y-93544740D01*
X139669573Y-93476607D01*
X139618198Y-93371517D01*
X139535483Y-93288802D01*
X139535482Y-93288801D01*
X139430394Y-93237427D01*
X139362264Y-93227500D01*
X139362260Y-93227500D01*
X138895740Y-93227500D01*
X138895735Y-93227500D01*
X138827606Y-93237427D01*
X138827605Y-93237427D01*
X138722517Y-93288801D01*
X138639801Y-93371517D01*
X138588427Y-93476605D01*
X138588427Y-93476606D01*
X138578500Y-93544735D01*
X138578500Y-94161264D01*
X138588427Y-94229393D01*
X138588427Y-94229394D01*
X138639801Y-94334482D01*
X138640826Y-94335507D01*
X138641377Y-94336690D01*
X138643366Y-94339475D01*
X138642848Y-94339844D01*
X138662218Y-94381383D01*
X138662500Y-94387833D01*
X138662500Y-94582948D01*
X138645187Y-94630514D01*
X138602939Y-94655526D01*
X138579277Y-94660233D01*
X138529496Y-94693495D01*
X138529495Y-94693496D01*
X138499529Y-94738345D01*
X138458708Y-94768277D01*
X138408197Y-94764966D01*
X138376471Y-94738345D01*
X138346504Y-94693496D01*
X138346503Y-94693495D01*
X138296722Y-94660233D01*
X138273061Y-94655526D01*
X138229787Y-94629264D01*
X138213500Y-94582948D01*
X138213500Y-94365303D01*
X138221019Y-94332803D01*
X138259001Y-94255109D01*
X138271573Y-94229393D01*
X138281500Y-94161260D01*
X138281500Y-93544740D01*
X138271573Y-93476607D01*
X138220198Y-93371517D01*
X138137483Y-93288802D01*
X138137482Y-93288801D01*
X138032394Y-93237427D01*
X137964264Y-93227500D01*
X137964260Y-93227500D01*
X137497740Y-93227500D01*
X137497735Y-93227500D01*
X137429606Y-93237427D01*
X137429605Y-93237427D01*
X137324517Y-93288801D01*
X137241801Y-93371517D01*
X137190427Y-93476605D01*
X137190427Y-93476606D01*
X137180500Y-93544735D01*
X137180500Y-94161264D01*
X137190427Y-94229393D01*
X137190427Y-94229394D01*
X137241801Y-94334482D01*
X137241802Y-94334483D01*
X137324517Y-94417198D01*
X137429607Y-94468573D01*
X137497740Y-94478500D01*
X137588500Y-94478500D01*
X137636066Y-94495813D01*
X137661376Y-94539650D01*
X137662500Y-94552500D01*
X137662500Y-94582948D01*
X137645187Y-94630514D01*
X137602939Y-94655526D01*
X137579277Y-94660233D01*
X137529496Y-94693495D01*
X137529495Y-94693496D01*
X137499529Y-94738345D01*
X137458708Y-94768277D01*
X137408197Y-94764966D01*
X137376471Y-94738345D01*
X137346504Y-94693496D01*
X137346503Y-94693495D01*
X137296722Y-94660233D01*
X137288543Y-94658606D01*
X137252820Y-94651500D01*
X136913704Y-94651500D01*
X136866138Y-94634187D01*
X136840828Y-94590350D01*
X136849618Y-94540500D01*
X136850376Y-94539217D01*
X136924020Y-94417393D01*
X136974589Y-94255109D01*
X136974591Y-94255099D01*
X136980999Y-94184582D01*
X136981000Y-94184573D01*
X136981000Y-94103000D01*
X136331000Y-94103000D01*
X136331000Y-94827999D01*
X136337571Y-94827999D01*
X136337582Y-94827998D01*
X136406804Y-94821709D01*
X136455742Y-94834646D01*
X136484914Y-94876013D01*
X136487500Y-94895405D01*
X136487500Y-96297500D01*
X136470187Y-96345066D01*
X136426350Y-96370376D01*
X136413500Y-96371500D01*
X136081916Y-96371500D01*
X136067480Y-96370078D01*
X136047501Y-96366104D01*
X136047497Y-96366104D01*
X136023937Y-96370790D01*
X136023932Y-96370790D01*
X136023933Y-96370791D01*
X136020369Y-96371500D01*
X136020367Y-96371500D01*
X135972071Y-96381106D01*
X135940004Y-96387485D01*
X135873805Y-96431718D01*
X135848876Y-96448375D01*
X135848874Y-96448377D01*
X135837553Y-96465319D01*
X135828353Y-96476529D01*
X135155826Y-97149057D01*
X135109950Y-97170449D01*
X135061055Y-97157348D01*
X135032022Y-97115884D01*
X135029500Y-97096731D01*
X135029500Y-96340008D01*
X135029500Y-96340000D01*
X135028909Y-96326450D01*
X135027785Y-96313600D01*
X135007542Y-96249398D01*
X135006575Y-96247724D01*
X134982234Y-96205564D01*
X134982225Y-96205550D01*
X134966687Y-96183360D01*
X134966686Y-96183359D01*
X134900754Y-96137193D01*
X134900753Y-96137192D01*
X134900751Y-96137191D01*
X134900749Y-96137190D01*
X134900747Y-96137189D01*
X134853184Y-96119877D01*
X134800003Y-96110500D01*
X134800000Y-96110500D01*
X133817112Y-96110500D01*
X133815738Y-96110000D01*
X132215649Y-96110000D01*
X132168083Y-96092687D01*
X132143197Y-96051056D01*
X132140068Y-96036000D01*
X132131401Y-95994290D01*
X132065662Y-95867418D01*
X132065661Y-95867416D01*
X132013777Y-95811863D01*
X131968130Y-95762987D01*
X131942214Y-95747227D01*
X131910568Y-95707720D01*
X131911720Y-95657114D01*
X131945131Y-95619088D01*
X131980663Y-95610000D01*
X132462000Y-95610000D01*
X132462000Y-95091000D01*
X132479313Y-95043434D01*
X132485261Y-95040000D01*
X132714802Y-95040000D01*
X132797250Y-95024588D01*
X132809505Y-95017000D01*
X132888000Y-95017000D01*
X132935566Y-95034313D01*
X132960876Y-95078150D01*
X132962000Y-95091000D01*
X132962000Y-95610000D01*
X133784296Y-95610000D01*
X133784099Y-95607506D01*
X133738281Y-95449800D01*
X133654682Y-95308443D01*
X133603072Y-95256833D01*
X133581680Y-95210957D01*
X133588961Y-95171917D01*
X133629587Y-95089095D01*
X133655246Y-94990000D01*
X132853111Y-94990000D01*
X132892610Y-94965543D01*
X132960201Y-94876038D01*
X132990895Y-94768160D01*
X132980546Y-94656479D01*
X132930552Y-94556078D01*
X132858069Y-94490000D01*
X133660367Y-94490000D01*
X133660069Y-94488059D01*
X133660068Y-94488054D01*
X133589434Y-94297334D01*
X133481855Y-94124739D01*
X133461191Y-94103000D01*
X135181001Y-94103000D01*
X135181001Y-94184583D01*
X135187408Y-94255102D01*
X135187409Y-94255106D01*
X135237979Y-94417393D01*
X135325925Y-94562874D01*
X135446125Y-94683074D01*
X135591606Y-94771020D01*
X135753890Y-94821589D01*
X135753901Y-94821591D01*
X135824421Y-94827999D01*
X135831000Y-94827998D01*
X135831000Y-94103000D01*
X135181001Y-94103000D01*
X133461191Y-94103000D01*
X133341731Y-93977328D01*
X133174801Y-93861142D01*
X132987911Y-93780941D01*
X132987901Y-93780938D01*
X132788696Y-93740000D01*
X132387000Y-93740000D01*
X132387000Y-94440000D01*
X131887000Y-94440000D01*
X131887000Y-93740000D01*
X131536280Y-93740000D01*
X131384666Y-93755417D01*
X131384661Y-93755419D01*
X131190615Y-93816300D01*
X131190614Y-93816301D01*
X131012782Y-93915006D01*
X131012777Y-93915010D01*
X130858471Y-94047477D01*
X130858468Y-94047479D01*
X130733982Y-94208303D01*
X130733980Y-94208305D01*
X130644413Y-94390902D01*
X130644411Y-94390907D01*
X130618754Y-94490000D01*
X131420889Y-94490000D01*
X131381390Y-94514457D01*
X131313799Y-94603962D01*
X131283105Y-94711840D01*
X131293454Y-94823521D01*
X131343448Y-94923922D01*
X131415931Y-94990000D01*
X130613633Y-94990000D01*
X130613930Y-94991940D01*
X130613931Y-94991945D01*
X130684565Y-95182665D01*
X130792144Y-95355260D01*
X130932268Y-95502671D01*
X131099197Y-95618857D01*
X131243169Y-95680639D01*
X131280053Y-95715306D01*
X131286024Y-95765572D01*
X131260690Y-95806042D01*
X131253535Y-95811863D01*
X131253531Y-95811867D01*
X131171132Y-95928600D01*
X131171127Y-95928608D01*
X131123977Y-96061281D01*
X131091736Y-96100303D01*
X131054250Y-96110500D01*
X130122000Y-96110500D01*
X130108450Y-96111091D01*
X130108445Y-96111091D01*
X130108432Y-96111092D01*
X130095602Y-96112214D01*
X130095597Y-96112215D01*
X130031396Y-96132458D01*
X130031394Y-96132459D01*
X129987564Y-96157765D01*
X129987550Y-96157774D01*
X129965360Y-96173312D01*
X129965359Y-96173313D01*
X129919193Y-96239245D01*
X129919189Y-96239252D01*
X129901877Y-96286815D01*
X129892500Y-96339996D01*
X129892500Y-96340000D01*
X129892500Y-101780000D01*
X125222500Y-101780000D01*
X125222500Y-96653819D01*
X125222500Y-94990000D01*
X126583633Y-94990000D01*
X126583930Y-94991940D01*
X126583931Y-94991945D01*
X126654565Y-95182665D01*
X126762144Y-95355260D01*
X126902268Y-95502671D01*
X127069198Y-95618857D01*
X127256088Y-95699058D01*
X127256098Y-95699061D01*
X127455303Y-95739999D01*
X127455311Y-95740000D01*
X127707000Y-95740000D01*
X127707000Y-95040000D01*
X128207000Y-95040000D01*
X128207000Y-95740000D01*
X128407711Y-95740000D01*
X128407719Y-95739999D01*
X128559333Y-95724582D01*
X128559338Y-95724580D01*
X128753384Y-95663699D01*
X128753385Y-95663698D01*
X128931217Y-95564993D01*
X128931222Y-95564989D01*
X129085528Y-95432522D01*
X129085531Y-95432520D01*
X129210017Y-95271696D01*
X129210019Y-95271694D01*
X129299586Y-95089097D01*
X129299588Y-95089092D01*
X129325246Y-94990000D01*
X128523111Y-94990000D01*
X128562610Y-94965543D01*
X128630201Y-94876038D01*
X128660895Y-94768160D01*
X128650546Y-94656479D01*
X128600552Y-94556078D01*
X128528069Y-94490000D01*
X129330367Y-94490000D01*
X129330069Y-94488059D01*
X129330068Y-94488054D01*
X129259434Y-94297334D01*
X129151855Y-94124739D01*
X129011731Y-93977328D01*
X128844801Y-93861142D01*
X128657911Y-93780941D01*
X128657901Y-93780938D01*
X128458696Y-93740000D01*
X128207000Y-93740000D01*
X128207000Y-94440000D01*
X127707000Y-94440000D01*
X127707000Y-93740000D01*
X127506280Y-93740000D01*
X127354666Y-93755417D01*
X127354661Y-93755419D01*
X127160615Y-93816300D01*
X127160614Y-93816301D01*
X126982782Y-93915006D01*
X126982777Y-93915010D01*
X126828471Y-94047477D01*
X126828468Y-94047479D01*
X126703982Y-94208303D01*
X126703980Y-94208305D01*
X126614413Y-94390902D01*
X126614411Y-94390907D01*
X126588754Y-94490000D01*
X127390889Y-94490000D01*
X127351390Y-94514457D01*
X127283799Y-94603962D01*
X127253105Y-94711840D01*
X127263454Y-94823521D01*
X127313448Y-94923922D01*
X127385931Y-94990000D01*
X126583633Y-94990000D01*
X125222500Y-94990000D01*
X125222501Y-92519500D01*
X134609367Y-92519500D01*
X134627802Y-92647723D01*
X134627802Y-92647724D01*
X134627803Y-92647726D01*
X134681618Y-92765563D01*
X134766451Y-92863467D01*
X134875431Y-92933504D01*
X134999728Y-92970000D01*
X135129272Y-92970000D01*
X135253569Y-92933504D01*
X135362549Y-92863467D01*
X135399744Y-92820541D01*
X135443977Y-92795930D01*
X135455670Y-92795000D01*
X135557902Y-92795000D01*
X135605468Y-92812313D01*
X135630778Y-92856150D01*
X135621988Y-92906000D01*
X135594393Y-92930949D01*
X135595432Y-92932667D01*
X135446125Y-93022925D01*
X135325925Y-93143125D01*
X135237979Y-93288606D01*
X135187410Y-93450890D01*
X135187408Y-93450900D01*
X135181000Y-93521417D01*
X135181000Y-93603000D01*
X136980999Y-93603000D01*
X136980999Y-93521429D01*
X136980998Y-93521416D01*
X136974591Y-93450897D01*
X136974590Y-93450893D01*
X136924020Y-93288606D01*
X136836074Y-93143125D01*
X136715874Y-93022925D01*
X136566568Y-92932667D01*
X136567768Y-92930681D01*
X136537453Y-92901164D01*
X136532371Y-92850801D01*
X136560850Y-92808953D01*
X136604098Y-92795000D01*
X139300732Y-92795000D01*
X139348298Y-92812313D01*
X139353058Y-92816674D01*
X140206826Y-93670442D01*
X140228218Y-93716318D01*
X140228500Y-93722768D01*
X140228500Y-94161264D01*
X140238427Y-94229393D01*
X140238427Y-94229394D01*
X140289801Y-94334482D01*
X140289802Y-94334483D01*
X140372517Y-94417198D01*
X140477607Y-94468573D01*
X140545740Y-94478500D01*
X140545746Y-94478500D01*
X141012254Y-94478500D01*
X141012260Y-94478500D01*
X141080393Y-94468573D01*
X141185483Y-94417198D01*
X141268198Y-94334483D01*
X141319573Y-94229393D01*
X141329500Y-94161260D01*
X141329500Y-93544740D01*
X141319573Y-93476607D01*
X141268198Y-93371517D01*
X141185483Y-93288802D01*
X141185482Y-93288801D01*
X141080394Y-93237427D01*
X141012264Y-93227500D01*
X141012260Y-93227500D01*
X140573768Y-93227500D01*
X140526202Y-93210187D01*
X140521442Y-93205826D01*
X139664645Y-92349029D01*
X139655442Y-92337814D01*
X139644126Y-92320878D01*
X139644124Y-92320876D01*
X139624144Y-92307525D01*
X139624141Y-92307523D01*
X139573127Y-92273437D01*
X139573126Y-92273436D01*
X139552996Y-92259985D01*
X139552997Y-92259985D01*
X139512814Y-92251992D01*
X139472633Y-92244000D01*
X139472632Y-92244000D01*
X139472630Y-92243999D01*
X139445501Y-92238603D01*
X139445500Y-92238603D01*
X139425517Y-92242578D01*
X139411080Y-92244000D01*
X135455670Y-92244000D01*
X135408104Y-92226687D01*
X135399744Y-92218459D01*
X135362552Y-92175536D01*
X135362550Y-92175535D01*
X135362549Y-92175533D01*
X135295532Y-92132464D01*
X135253568Y-92105495D01*
X135129272Y-92069000D01*
X134999728Y-92069000D01*
X134875431Y-92105495D01*
X134766454Y-92175531D01*
X134766450Y-92175534D01*
X134681619Y-92273435D01*
X134627802Y-92391276D01*
X134609367Y-92519500D01*
X125222501Y-92519500D01*
X125222501Y-90304502D01*
X127237190Y-90304502D01*
X127274553Y-90552393D01*
X127277284Y-90570510D01*
X127356570Y-90827547D01*
X127356573Y-90827556D01*
X127473290Y-91069921D01*
X127624826Y-91292184D01*
X127807796Y-91489378D01*
X127807799Y-91489381D01*
X128018100Y-91657092D01*
X128018106Y-91657095D01*
X128018112Y-91657100D01*
X128251077Y-91791603D01*
X128501487Y-91889881D01*
X128501490Y-91889882D01*
X128566615Y-91904746D01*
X128763747Y-91949740D01*
X128929218Y-91962140D01*
X128964824Y-91964809D01*
X128964840Y-91964810D01*
X129099160Y-91964810D01*
X129099175Y-91964809D01*
X129121374Y-91963145D01*
X129300253Y-91949740D01*
X129562513Y-91889881D01*
X129812923Y-91791603D01*
X130045888Y-91657100D01*
X130045895Y-91657093D01*
X130045899Y-91657092D01*
X130256200Y-91489381D01*
X130256199Y-91489381D01*
X130256204Y-91489378D01*
X130439174Y-91292184D01*
X130590710Y-91069922D01*
X130707427Y-90827556D01*
X130786717Y-90570503D01*
X130826810Y-90304502D01*
X130826810Y-90035498D01*
X130786717Y-89769497D01*
X130785980Y-89767109D01*
X130730733Y-89588000D01*
X130707427Y-89512444D01*
X130590710Y-89270079D01*
X130439174Y-89047816D01*
X130256204Y-88850622D01*
X130256202Y-88850621D01*
X130256200Y-88850618D01*
X130045899Y-88682907D01*
X130045892Y-88682903D01*
X130045891Y-88682902D01*
X130045888Y-88682900D01*
X129812923Y-88548397D01*
X129812922Y-88548396D01*
X129812921Y-88548396D01*
X129562509Y-88450117D01*
X129300253Y-88390260D01*
X129099175Y-88375190D01*
X129099160Y-88375190D01*
X128964840Y-88375190D01*
X128964824Y-88375190D01*
X128763746Y-88390260D01*
X128501490Y-88450117D01*
X128251078Y-88548396D01*
X128018107Y-88682903D01*
X128018100Y-88682907D01*
X127807799Y-88850618D01*
X127624824Y-89047818D01*
X127473289Y-89270080D01*
X127356575Y-89512438D01*
X127356570Y-89512452D01*
X127277284Y-89769489D01*
X127277283Y-89769497D01*
X127237190Y-90035498D01*
X127237190Y-90304502D01*
X125222501Y-90304502D01*
X125222501Y-86783828D01*
X136832000Y-86783828D01*
X136838402Y-86843375D01*
X136838403Y-86843380D01*
X136888645Y-86978087D01*
X136888646Y-86978088D01*
X136974811Y-87093188D01*
X137089911Y-87179353D01*
X137089912Y-87179354D01*
X137224619Y-87229596D01*
X137224624Y-87229597D01*
X137284171Y-87236000D01*
X138982000Y-87236000D01*
X138982000Y-86166635D01*
X138996679Y-86170569D01*
X139173055Y-86186000D01*
X139290945Y-86186000D01*
X139467321Y-86170569D01*
X139482000Y-86166635D01*
X139482000Y-87236000D01*
X141179829Y-87236000D01*
X141239375Y-87229597D01*
X141239380Y-87229596D01*
X141374087Y-87179354D01*
X141374088Y-87179353D01*
X141489188Y-87093188D01*
X141575353Y-86978088D01*
X141575354Y-86978087D01*
X141625596Y-86843380D01*
X141625597Y-86843375D01*
X141632000Y-86783828D01*
X141632000Y-85086000D01*
X140562636Y-85086000D01*
X140566569Y-85071321D01*
X140587156Y-84836007D01*
X142076475Y-84836007D01*
X142096550Y-85129502D01*
X142096553Y-85129522D01*
X142156405Y-85417545D01*
X142156410Y-85417563D01*
X142254924Y-85694756D01*
X142254926Y-85694761D01*
X142390277Y-85955975D01*
X142390282Y-85955982D01*
X142559930Y-86196320D01*
X142559933Y-86196323D01*
X142559935Y-86196326D01*
X142760740Y-86411335D01*
X142942315Y-86559058D01*
X142973688Y-86584582D01*
X142988951Y-86596999D01*
X143240318Y-86749859D01*
X143510159Y-86867067D01*
X143793445Y-86946440D01*
X144084902Y-86986500D01*
X144084909Y-86986500D01*
X144379091Y-86986500D01*
X144379098Y-86986500D01*
X144670555Y-86946440D01*
X144953841Y-86867067D01*
X145223682Y-86749859D01*
X145475049Y-86596999D01*
X145703260Y-86411335D01*
X145904065Y-86196326D01*
X146073722Y-85955976D01*
X146209072Y-85694764D01*
X146307592Y-85417554D01*
X146323601Y-85340516D01*
X146367446Y-85129522D01*
X146367449Y-85129502D01*
X146387525Y-84836007D01*
X146387525Y-84835992D01*
X146367449Y-84542497D01*
X146367446Y-84542477D01*
X146307594Y-84254454D01*
X146307589Y-84254436D01*
X146209075Y-83977243D01*
X146209073Y-83977238D01*
X146073722Y-83716024D01*
X146073717Y-83716017D01*
X145904069Y-83475679D01*
X145904067Y-83475676D01*
X145904065Y-83475674D01*
X145703260Y-83260665D01*
X145539217Y-83127206D01*
X145475057Y-83075007D01*
X145475040Y-83074995D01*
X145358345Y-83004031D01*
X145223682Y-82922141D01*
X145223679Y-82922139D01*
X145223678Y-82922139D01*
X144953839Y-82804932D01*
X144670553Y-82725559D01*
X144379102Y-82685500D01*
X144379098Y-82685500D01*
X144084902Y-82685500D01*
X144084897Y-82685500D01*
X143793446Y-82725559D01*
X143510160Y-82804932D01*
X143240321Y-82922139D01*
X143240318Y-82922141D01*
X142988959Y-83074995D01*
X142988942Y-83075007D01*
X142760744Y-83260662D01*
X142760741Y-83260664D01*
X142559930Y-83475679D01*
X142390282Y-83716017D01*
X142390277Y-83716024D01*
X142254926Y-83977238D01*
X142254924Y-83977243D01*
X142156410Y-84254436D01*
X142156405Y-84254454D01*
X142096553Y-84542477D01*
X142096550Y-84542497D01*
X142076475Y-84835992D01*
X142076475Y-84836007D01*
X140587156Y-84836007D01*
X140587157Y-84836000D01*
X140566569Y-84600679D01*
X140562636Y-84586000D01*
X141632000Y-84586000D01*
X141632000Y-82888171D01*
X141625597Y-82828624D01*
X141625596Y-82828619D01*
X141575354Y-82693912D01*
X141575353Y-82693911D01*
X141489188Y-82578811D01*
X141374088Y-82492646D01*
X141374087Y-82492645D01*
X141239380Y-82442403D01*
X141239375Y-82442402D01*
X141179829Y-82436000D01*
X139482000Y-82436000D01*
X139482000Y-83505364D01*
X139467321Y-83501431D01*
X139290945Y-83486000D01*
X139173055Y-83486000D01*
X138996679Y-83501431D01*
X138982000Y-83505364D01*
X138982000Y-82436000D01*
X137284171Y-82436000D01*
X137224624Y-82442402D01*
X137224619Y-82442403D01*
X137089912Y-82492645D01*
X137089911Y-82492646D01*
X136974811Y-82578811D01*
X136888646Y-82693911D01*
X136888645Y-82693912D01*
X136838403Y-82828619D01*
X136838402Y-82828624D01*
X136832000Y-82888171D01*
X136832000Y-84586000D01*
X137901364Y-84586000D01*
X137897431Y-84600679D01*
X137876843Y-84836000D01*
X137897431Y-85071321D01*
X137901364Y-85086000D01*
X136832000Y-85086000D01*
X136832000Y-86783828D01*
X125222501Y-86783828D01*
X125222501Y-85850000D01*
X126583633Y-85850000D01*
X126583930Y-85851940D01*
X126583931Y-85851945D01*
X126654565Y-86042665D01*
X126762144Y-86215260D01*
X126902268Y-86362671D01*
X127069198Y-86478857D01*
X127256088Y-86559058D01*
X127256098Y-86559061D01*
X127455303Y-86599999D01*
X127455311Y-86600000D01*
X127707000Y-86600000D01*
X127707000Y-85900000D01*
X128207000Y-85900000D01*
X128207000Y-86600000D01*
X128407711Y-86600000D01*
X128407719Y-86599999D01*
X128559333Y-86584582D01*
X128559338Y-86584580D01*
X128753384Y-86523699D01*
X128753385Y-86523698D01*
X128931217Y-86424993D01*
X128931222Y-86424989D01*
X129085528Y-86292522D01*
X129085531Y-86292520D01*
X129210017Y-86131696D01*
X129210019Y-86131694D01*
X129299586Y-85949097D01*
X129299588Y-85949092D01*
X129325246Y-85850000D01*
X128523111Y-85850000D01*
X128562610Y-85825543D01*
X128630201Y-85736038D01*
X128660895Y-85628160D01*
X128650546Y-85516479D01*
X128600552Y-85416078D01*
X128528069Y-85350000D01*
X129330367Y-85350000D01*
X129330069Y-85348059D01*
X129330068Y-85348054D01*
X129259434Y-85157334D01*
X129151855Y-84984739D01*
X129011731Y-84837328D01*
X128844801Y-84721142D01*
X128657911Y-84640941D01*
X128657901Y-84640938D01*
X128458696Y-84600000D01*
X128207000Y-84600000D01*
X128207000Y-85300000D01*
X127707000Y-85300000D01*
X127707000Y-84600000D01*
X127506280Y-84600000D01*
X127354666Y-84615417D01*
X127354661Y-84615419D01*
X127160615Y-84676300D01*
X127160614Y-84676301D01*
X126982782Y-84775006D01*
X126982777Y-84775010D01*
X126828471Y-84907477D01*
X126828468Y-84907479D01*
X126703982Y-85068303D01*
X126703980Y-85068305D01*
X126614413Y-85250902D01*
X126614411Y-85250907D01*
X126588754Y-85350000D01*
X127390889Y-85350000D01*
X127351390Y-85374457D01*
X127283799Y-85463962D01*
X127253105Y-85571840D01*
X127263454Y-85683521D01*
X127313448Y-85783922D01*
X127385931Y-85850000D01*
X126583633Y-85850000D01*
X125222501Y-85850000D01*
X125222501Y-84000000D01*
X129892500Y-84000000D01*
X129893091Y-84013550D01*
X129893092Y-84013567D01*
X129894214Y-84026397D01*
X129894215Y-84026402D01*
X129914458Y-84090603D01*
X129914459Y-84090605D01*
X129939765Y-84134435D01*
X129939774Y-84134449D01*
X129949753Y-84148700D01*
X129955313Y-84156640D01*
X130021249Y-84202809D01*
X130068815Y-84220122D01*
X130122000Y-84229500D01*
X130122004Y-84229500D01*
X131058247Y-84229500D01*
X131105813Y-84246813D01*
X131130699Y-84288444D01*
X131142598Y-84345708D01*
X131208337Y-84472581D01*
X131208338Y-84472583D01*
X131271221Y-84539913D01*
X131291035Y-84586493D01*
X131276272Y-84634911D01*
X131239292Y-84661028D01*
X131190615Y-84676300D01*
X131190614Y-84676301D01*
X131012782Y-84775006D01*
X131012777Y-84775010D01*
X130858471Y-84907477D01*
X130858468Y-84907479D01*
X130733982Y-85068303D01*
X130733980Y-85068305D01*
X130644413Y-85250902D01*
X130644411Y-85250907D01*
X130618754Y-85350000D01*
X131420889Y-85350000D01*
X131381390Y-85374457D01*
X131313799Y-85463962D01*
X131283105Y-85571840D01*
X131293454Y-85683521D01*
X131343448Y-85783922D01*
X131415931Y-85850000D01*
X130613633Y-85850000D01*
X130613930Y-85851940D01*
X130613931Y-85851945D01*
X130684565Y-86042665D01*
X130792144Y-86215260D01*
X130932268Y-86362671D01*
X131099198Y-86478857D01*
X131286088Y-86559058D01*
X131286098Y-86559061D01*
X131485303Y-86599999D01*
X131485311Y-86600000D01*
X131887000Y-86600000D01*
X131887000Y-85900000D01*
X132387000Y-85900000D01*
X132387000Y-86600000D01*
X132737711Y-86600000D01*
X132737719Y-86599999D01*
X132889333Y-86584582D01*
X132889338Y-86584580D01*
X133083384Y-86523699D01*
X133083385Y-86523698D01*
X133261217Y-86424993D01*
X133261222Y-86424989D01*
X133415528Y-86292522D01*
X133415531Y-86292520D01*
X133540017Y-86131696D01*
X133540019Y-86131694D01*
X133629586Y-85949097D01*
X133629588Y-85949092D01*
X133655246Y-85850000D01*
X132853111Y-85850000D01*
X132892610Y-85825543D01*
X132960201Y-85736038D01*
X132990895Y-85628160D01*
X132980546Y-85516479D01*
X132930552Y-85416078D01*
X132858069Y-85350000D01*
X133660367Y-85350000D01*
X133660069Y-85348059D01*
X133660069Y-85348057D01*
X133589549Y-85157647D01*
X133589264Y-85107028D01*
X133606618Y-85079619D01*
X133654683Y-85031554D01*
X133738281Y-84890199D01*
X133784099Y-84732493D01*
X133784296Y-84730000D01*
X131980556Y-84730000D01*
X131932990Y-84712687D01*
X131907680Y-84668850D01*
X131916470Y-84619000D01*
X131933856Y-84598597D01*
X131963567Y-84574425D01*
X132020467Y-84528134D01*
X132102871Y-84411395D01*
X132149846Y-84279215D01*
X132182086Y-84240197D01*
X132219572Y-84230000D01*
X132462000Y-84230000D01*
X132478595Y-84213404D01*
X132479313Y-84211434D01*
X132482277Y-84209722D01*
X132483674Y-84208326D01*
X132484048Y-84208700D01*
X132523150Y-84186124D01*
X132536000Y-84185000D01*
X132888000Y-84185000D01*
X132935566Y-84202313D01*
X132939509Y-84209142D01*
X132940326Y-84208326D01*
X132962000Y-84230000D01*
X133809171Y-84230000D01*
X133817112Y-84229500D01*
X135307991Y-84229500D01*
X135308000Y-84229500D01*
X135321550Y-84228909D01*
X135334400Y-84227785D01*
X135398602Y-84207542D01*
X135442439Y-84182232D01*
X135464640Y-84166687D01*
X135510809Y-84100751D01*
X135528122Y-84053185D01*
X135537500Y-84000000D01*
X135537500Y-82370000D01*
X135536909Y-82356450D01*
X135535785Y-82343600D01*
X135515542Y-82279398D01*
X135501387Y-82254882D01*
X135490234Y-82235564D01*
X135490225Y-82235550D01*
X135474687Y-82213360D01*
X135474686Y-82213359D01*
X135408754Y-82167193D01*
X135408753Y-82167192D01*
X135408751Y-82167191D01*
X135408749Y-82167190D01*
X135408747Y-82167189D01*
X135361184Y-82149877D01*
X135308003Y-82140500D01*
X135308000Y-82140500D01*
X133511500Y-82140500D01*
X133463934Y-82123187D01*
X133438624Y-82079350D01*
X133437500Y-82066501D01*
X133437499Y-81932793D01*
X133437499Y-81932790D01*
X133428906Y-81889584D01*
X133436609Y-81839554D01*
X133474668Y-81806180D01*
X133501485Y-81801150D01*
X133540508Y-81801150D01*
X133554943Y-81802571D01*
X133574501Y-81806462D01*
X133574502Y-81806462D01*
X133594058Y-81802572D01*
X133680299Y-81785418D01*
X133736639Y-81747771D01*
X133777752Y-81735300D01*
X135925857Y-81735300D01*
X135940292Y-81736721D01*
X135959850Y-81740612D01*
X135959851Y-81740612D01*
X135979407Y-81736722D01*
X136065648Y-81719568D01*
X136132698Y-81674766D01*
X136132698Y-81674765D01*
X136140712Y-81669411D01*
X136140714Y-81669408D01*
X136155338Y-81659638D01*
X136166417Y-81643057D01*
X136175613Y-81631850D01*
X136550490Y-81256974D01*
X136596367Y-81235582D01*
X136602816Y-81235300D01*
X158981734Y-81235300D01*
X159029300Y-81252613D01*
X159054312Y-81294869D01*
X159054780Y-81297215D01*
X159056200Y-81311644D01*
X159056200Y-81748355D01*
X159054778Y-81762791D01*
X159050888Y-81782349D01*
X159071932Y-81888147D01*
X159101762Y-81932790D01*
X159131862Y-81977837D01*
X159131863Y-81977837D01*
X159131864Y-81977839D01*
X159148438Y-81988913D01*
X159159653Y-81998116D01*
X159359232Y-82197695D01*
X159368434Y-82208908D01*
X159379512Y-82225487D01*
X159379515Y-82225490D01*
X159399124Y-82238592D01*
X159399128Y-82238595D01*
X159402151Y-82240614D01*
X159402153Y-82240616D01*
X159405089Y-82242577D01*
X159405094Y-82242584D01*
X159405096Y-82242582D01*
X159405097Y-82242583D01*
X159423506Y-82254883D01*
X159453437Y-82295703D01*
X159450128Y-82346214D01*
X159443925Y-82357521D01*
X159437583Y-82367013D01*
X159424500Y-82432789D01*
X159424500Y-82627205D01*
X159437583Y-82692987D01*
X159468253Y-82738889D01*
X159480284Y-82788057D01*
X159468253Y-82821111D01*
X159437583Y-82867012D01*
X159424500Y-82932789D01*
X159424500Y-83127206D01*
X159435480Y-83182413D01*
X159427777Y-83232443D01*
X159423519Y-83239291D01*
X159383192Y-83296884D01*
X159383189Y-83296889D01*
X159365877Y-83344452D01*
X159356500Y-83397633D01*
X159356500Y-83750559D01*
X159339187Y-83798125D01*
X159326603Y-83808802D01*
X159327119Y-83809467D01*
X159323442Y-83812318D01*
X159207317Y-83928443D01*
X159123718Y-84069800D01*
X159077900Y-84227506D01*
X159077704Y-84230000D01*
X159900000Y-84230000D01*
X159916595Y-84213404D01*
X159917313Y-84211434D01*
X159920277Y-84209722D01*
X159921674Y-84208326D01*
X159922048Y-84208700D01*
X159961150Y-84186124D01*
X159974000Y-84185000D01*
X160326000Y-84185000D01*
X160373566Y-84202313D01*
X160398876Y-84246150D01*
X160400000Y-84259000D01*
X160400000Y-84656000D01*
X160382687Y-84703566D01*
X160338850Y-84728876D01*
X160326000Y-84730000D01*
X159077704Y-84730000D01*
X159077900Y-84732493D01*
X159123718Y-84890199D01*
X159207317Y-85031556D01*
X159258926Y-85083165D01*
X159280318Y-85129041D01*
X159273038Y-85168079D01*
X159232414Y-85250898D01*
X159232411Y-85250907D01*
X159206754Y-85350000D01*
X160008889Y-85350000D01*
X159969390Y-85374457D01*
X159901799Y-85463962D01*
X159871105Y-85571840D01*
X159881454Y-85683521D01*
X159931448Y-85783922D01*
X160003931Y-85850000D01*
X159201633Y-85850000D01*
X159201930Y-85851940D01*
X159201931Y-85851945D01*
X159272565Y-86042665D01*
X159380144Y-86215260D01*
X159520268Y-86362671D01*
X159687198Y-86478857D01*
X159874088Y-86559058D01*
X159874098Y-86559061D01*
X160073303Y-86599999D01*
X160073311Y-86600000D01*
X160475000Y-86600000D01*
X160475000Y-85900000D01*
X160975000Y-85900000D01*
X160975000Y-86600000D01*
X161325711Y-86600000D01*
X161325719Y-86599999D01*
X161477333Y-86584582D01*
X161477338Y-86584580D01*
X161671384Y-86523699D01*
X161671385Y-86523698D01*
X161849217Y-86424993D01*
X161849222Y-86424989D01*
X162003528Y-86292522D01*
X162003531Y-86292520D01*
X162128017Y-86131696D01*
X162128019Y-86131694D01*
X162217586Y-85949097D01*
X162217588Y-85949092D01*
X162243246Y-85850000D01*
X163531633Y-85850000D01*
X163531930Y-85851940D01*
X163531931Y-85851945D01*
X163602565Y-86042665D01*
X163710144Y-86215260D01*
X163850268Y-86362671D01*
X164017198Y-86478857D01*
X164204088Y-86559058D01*
X164204098Y-86559061D01*
X164403303Y-86599999D01*
X164403311Y-86600000D01*
X164655000Y-86600000D01*
X164655000Y-85900000D01*
X165155000Y-85900000D01*
X165155000Y-86600000D01*
X165355711Y-86600000D01*
X165355719Y-86599999D01*
X165507333Y-86584582D01*
X165507338Y-86584580D01*
X165701384Y-86523699D01*
X165701385Y-86523698D01*
X165879217Y-86424993D01*
X165879222Y-86424989D01*
X166033528Y-86292522D01*
X166033531Y-86292520D01*
X166158017Y-86131696D01*
X166158019Y-86131694D01*
X166247586Y-85949097D01*
X166247588Y-85949092D01*
X166273246Y-85850000D01*
X165471111Y-85850000D01*
X165510610Y-85825543D01*
X165578201Y-85736038D01*
X165608895Y-85628160D01*
X165598546Y-85516479D01*
X165548552Y-85416078D01*
X165476069Y-85350000D01*
X166278367Y-85350000D01*
X166278069Y-85348059D01*
X166278068Y-85348054D01*
X166207434Y-85157334D01*
X166099855Y-84984739D01*
X165959731Y-84837328D01*
X165792801Y-84721142D01*
X165605911Y-84640941D01*
X165605901Y-84640938D01*
X165406696Y-84600000D01*
X165155000Y-84600000D01*
X165155000Y-85300000D01*
X164655000Y-85300000D01*
X164655000Y-84600000D01*
X164454280Y-84600000D01*
X164302666Y-84615417D01*
X164302661Y-84615419D01*
X164108615Y-84676300D01*
X164108614Y-84676301D01*
X163930782Y-84775006D01*
X163930777Y-84775010D01*
X163776471Y-84907477D01*
X163776468Y-84907479D01*
X163651982Y-85068303D01*
X163651980Y-85068305D01*
X163562413Y-85250902D01*
X163562411Y-85250907D01*
X163536754Y-85350000D01*
X164338889Y-85350000D01*
X164299390Y-85374457D01*
X164231799Y-85463962D01*
X164201105Y-85571840D01*
X164211454Y-85683521D01*
X164261448Y-85783922D01*
X164333931Y-85850000D01*
X163531633Y-85850000D01*
X162243246Y-85850000D01*
X161441111Y-85850000D01*
X161480610Y-85825543D01*
X161548201Y-85736038D01*
X161578895Y-85628160D01*
X161568546Y-85516479D01*
X161518552Y-85416078D01*
X161446069Y-85350000D01*
X162248367Y-85350000D01*
X162248069Y-85348059D01*
X162248068Y-85348054D01*
X162177434Y-85157334D01*
X162069855Y-84984739D01*
X161929731Y-84837328D01*
X161762803Y-84721143D01*
X161618830Y-84659359D01*
X161581946Y-84624691D01*
X161575976Y-84574425D01*
X161601315Y-84533952D01*
X161608467Y-84528134D01*
X161690871Y-84411395D01*
X161738023Y-84278718D01*
X161770264Y-84239697D01*
X161807750Y-84229500D01*
X162739991Y-84229500D01*
X162740000Y-84229500D01*
X162753550Y-84228909D01*
X162766400Y-84227785D01*
X162830602Y-84207542D01*
X162874439Y-84182232D01*
X162896640Y-84166687D01*
X162942809Y-84100751D01*
X162960122Y-84053185D01*
X162969500Y-84000000D01*
X162969500Y-78560000D01*
X162968909Y-78546450D01*
X162967785Y-78533600D01*
X162947542Y-78469398D01*
X162941682Y-78459249D01*
X162922234Y-78425564D01*
X162922225Y-78425550D01*
X162906687Y-78403360D01*
X162906686Y-78403359D01*
X162840754Y-78357193D01*
X162840753Y-78357192D01*
X162840751Y-78357191D01*
X162840749Y-78357190D01*
X162840747Y-78357189D01*
X162793184Y-78339877D01*
X162740003Y-78330500D01*
X162740000Y-78330500D01*
X161803753Y-78330500D01*
X161756187Y-78313187D01*
X161731301Y-78271556D01*
X161719401Y-78214291D01*
X161719401Y-78214290D01*
X161653662Y-78087418D01*
X161653661Y-78087416D01*
X161590778Y-78020086D01*
X161570964Y-77973506D01*
X161585727Y-77925088D01*
X161622708Y-77898970D01*
X161671389Y-77883696D01*
X161849217Y-77784993D01*
X161849222Y-77784989D01*
X162003528Y-77652522D01*
X162003531Y-77652520D01*
X162128017Y-77491696D01*
X162128019Y-77491694D01*
X162217586Y-77309097D01*
X162217588Y-77309092D01*
X162243246Y-77210000D01*
X163531633Y-77210000D01*
X163531930Y-77211940D01*
X163531931Y-77211945D01*
X163602565Y-77402665D01*
X163710144Y-77575260D01*
X163850268Y-77722671D01*
X164017198Y-77838857D01*
X164204088Y-77919058D01*
X164204098Y-77919061D01*
X164403303Y-77959999D01*
X164403311Y-77960000D01*
X164655000Y-77960000D01*
X164655000Y-77260000D01*
X165155000Y-77260000D01*
X165155000Y-77960000D01*
X165355711Y-77960000D01*
X165355719Y-77959999D01*
X165507333Y-77944582D01*
X165507338Y-77944580D01*
X165701384Y-77883699D01*
X165701385Y-77883698D01*
X165879217Y-77784993D01*
X165879222Y-77784989D01*
X166033528Y-77652522D01*
X166033531Y-77652520D01*
X166158017Y-77491696D01*
X166158019Y-77491694D01*
X166247586Y-77309097D01*
X166247588Y-77309092D01*
X166273246Y-77210000D01*
X165471111Y-77210000D01*
X165510610Y-77185543D01*
X165578201Y-77096038D01*
X165608895Y-76988160D01*
X165598546Y-76876479D01*
X165548552Y-76776078D01*
X165476069Y-76710000D01*
X166278367Y-76710000D01*
X166278069Y-76708059D01*
X166278068Y-76708054D01*
X166207434Y-76517334D01*
X166099855Y-76344739D01*
X165959731Y-76197328D01*
X165792801Y-76081142D01*
X165605911Y-76000941D01*
X165605901Y-76000938D01*
X165406696Y-75960000D01*
X165155000Y-75960000D01*
X165155000Y-76660000D01*
X164655000Y-76660000D01*
X164655000Y-75960000D01*
X164454280Y-75960000D01*
X164302666Y-75975417D01*
X164302661Y-75975419D01*
X164108615Y-76036300D01*
X164108614Y-76036301D01*
X163930782Y-76135006D01*
X163930777Y-76135010D01*
X163776471Y-76267477D01*
X163776468Y-76267479D01*
X163651982Y-76428303D01*
X163651980Y-76428305D01*
X163562413Y-76610902D01*
X163562411Y-76610907D01*
X163536754Y-76710000D01*
X164338889Y-76710000D01*
X164299390Y-76734457D01*
X164231799Y-76823962D01*
X164201105Y-76931840D01*
X164211454Y-77043521D01*
X164261448Y-77143922D01*
X164333931Y-77210000D01*
X163531633Y-77210000D01*
X162243246Y-77210000D01*
X161441111Y-77210000D01*
X161480610Y-77185543D01*
X161548201Y-77096038D01*
X161578895Y-76988160D01*
X161568546Y-76876479D01*
X161518552Y-76776078D01*
X161446069Y-76710000D01*
X162248367Y-76710000D01*
X162248069Y-76708059D01*
X162248068Y-76708054D01*
X162177434Y-76517334D01*
X162069855Y-76344739D01*
X161929731Y-76197328D01*
X161762801Y-76081142D01*
X161575911Y-76000941D01*
X161575901Y-76000938D01*
X161376696Y-75960000D01*
X160975000Y-75960000D01*
X160975000Y-76660000D01*
X160475000Y-76660000D01*
X160475000Y-75960000D01*
X160124280Y-75960000D01*
X159972666Y-75975417D01*
X159972661Y-75975419D01*
X159778615Y-76036300D01*
X159778614Y-76036301D01*
X159600782Y-76135006D01*
X159600777Y-76135010D01*
X159446471Y-76267477D01*
X159446468Y-76267479D01*
X159321982Y-76428303D01*
X159321980Y-76428305D01*
X159232413Y-76610902D01*
X159232411Y-76610907D01*
X159206754Y-76710000D01*
X160008889Y-76710000D01*
X159969390Y-76734457D01*
X159901799Y-76823962D01*
X159871105Y-76931840D01*
X159881454Y-77043521D01*
X159931448Y-77143922D01*
X160003931Y-77210000D01*
X159201633Y-77210000D01*
X159201930Y-77211940D01*
X159201931Y-77211945D01*
X159272449Y-77402352D01*
X159272733Y-77452970D01*
X159255382Y-77480377D01*
X159207317Y-77528443D01*
X159123718Y-77669800D01*
X159077900Y-77827506D01*
X159077704Y-77830000D01*
X159900000Y-77830000D01*
X159900000Y-77311000D01*
X159917313Y-77263434D01*
X159961150Y-77238124D01*
X159974000Y-77237000D01*
X160059549Y-77237000D01*
X160118920Y-77260000D01*
X160376849Y-77260000D01*
X160398876Y-77298150D01*
X160400000Y-77311000D01*
X160400000Y-78256000D01*
X160382687Y-78303566D01*
X160338850Y-78328876D01*
X160326000Y-78330000D01*
X159052829Y-78330000D01*
X159044888Y-78330500D01*
X158727500Y-78330500D01*
X158679934Y-78313187D01*
X158654624Y-78269350D01*
X158653500Y-78256500D01*
X158653500Y-78102180D01*
X158653000Y-78099666D01*
X158644767Y-78058278D01*
X158611504Y-78008496D01*
X158561722Y-77975233D01*
X158517820Y-77966500D01*
X157488180Y-77966500D01*
X157473546Y-77969411D01*
X157444276Y-77975233D01*
X157394111Y-78008752D01*
X157344943Y-78020783D01*
X157311889Y-78008752D01*
X157261723Y-77975233D01*
X157239771Y-77970866D01*
X157217820Y-77966500D01*
X156188180Y-77966500D01*
X156166229Y-77970866D01*
X156144277Y-77975233D01*
X156094496Y-78008495D01*
X156094495Y-78008496D01*
X156061233Y-78058277D01*
X156052500Y-78102180D01*
X156052500Y-78269500D01*
X156035187Y-78317066D01*
X155991350Y-78342376D01*
X155978500Y-78343500D01*
X152232067Y-78343500D01*
X152109947Y-78358927D01*
X151957131Y-78419431D01*
X151957130Y-78419431D01*
X151957129Y-78419432D01*
X151906059Y-78456536D01*
X151824162Y-78516037D01*
X151719402Y-78642669D01*
X151719397Y-78642678D01*
X151649421Y-78791384D01*
X151649419Y-78791391D01*
X151618624Y-78952826D01*
X151628943Y-79116856D01*
X151628944Y-79116862D01*
X151679729Y-79273165D01*
X151679733Y-79273173D01*
X151767794Y-79411935D01*
X151767796Y-79411937D01*
X151767798Y-79411940D01*
X151887607Y-79524448D01*
X152031632Y-79603627D01*
X152190823Y-79644500D01*
X152952823Y-79644500D01*
X153714823Y-79644500D01*
X154476823Y-79644500D01*
X156000817Y-79644500D01*
X156048383Y-79661813D01*
X156062346Y-79677388D01*
X156094496Y-79725504D01*
X156144278Y-79758767D01*
X156188180Y-79767500D01*
X156188181Y-79767500D01*
X157217819Y-79767500D01*
X157217820Y-79767500D01*
X157261722Y-79758767D01*
X157311504Y-79725504D01*
X157311504Y-79725503D01*
X157311888Y-79725247D01*
X157361056Y-79713216D01*
X157394112Y-79725247D01*
X157394495Y-79725503D01*
X157394496Y-79725504D01*
X157444278Y-79758767D01*
X157488180Y-79767500D01*
X157758500Y-79767500D01*
X157806066Y-79784813D01*
X157831376Y-79828650D01*
X157832500Y-79841500D01*
X157832500Y-80190000D01*
X157833044Y-80202471D01*
X157833092Y-80203567D01*
X157834214Y-80216397D01*
X157834215Y-80216400D01*
X157838013Y-80228448D01*
X157835807Y-80279017D01*
X157801610Y-80316338D01*
X157767439Y-80324700D01*
X136341289Y-80324700D01*
X136326853Y-80323278D01*
X136307296Y-80319388D01*
X136307295Y-80319388D01*
X136201498Y-80340431D01*
X136136378Y-80383944D01*
X136136375Y-80383946D01*
X136111809Y-80400361D01*
X136100728Y-80416943D01*
X136091527Y-80428153D01*
X135716656Y-80803026D01*
X135670780Y-80824418D01*
X135664330Y-80824700D01*
X133777753Y-80824700D01*
X133736641Y-80812229D01*
X133680298Y-80774581D01*
X133574502Y-80753538D01*
X133574501Y-80753538D01*
X133554943Y-80757428D01*
X133540508Y-80758850D01*
X133501485Y-80758850D01*
X133453919Y-80741537D01*
X133428609Y-80697700D01*
X133428907Y-80670414D01*
X133430664Y-80661578D01*
X133437500Y-80627211D01*
X133437499Y-80493500D01*
X133454811Y-80445934D01*
X133498649Y-80420624D01*
X133511499Y-80419500D01*
X135307991Y-80419500D01*
X135308000Y-80419500D01*
X135321550Y-80418909D01*
X135334400Y-80417785D01*
X135398602Y-80397542D01*
X135442439Y-80372232D01*
X135464640Y-80356687D01*
X135510809Y-80290751D01*
X135528122Y-80243185D01*
X135537500Y-80190000D01*
X135537500Y-78560000D01*
X135536909Y-78546450D01*
X135535785Y-78533600D01*
X135515542Y-78469398D01*
X135509682Y-78459249D01*
X135490234Y-78425564D01*
X135490225Y-78425550D01*
X135474687Y-78403360D01*
X135474686Y-78403359D01*
X135408754Y-78357193D01*
X135408753Y-78357192D01*
X135408751Y-78357191D01*
X135408749Y-78357190D01*
X135408747Y-78357189D01*
X135361184Y-78339877D01*
X135308003Y-78330500D01*
X135308000Y-78330500D01*
X133817112Y-78330500D01*
X133815738Y-78330000D01*
X132215649Y-78330000D01*
X132168083Y-78312687D01*
X132143197Y-78271056D01*
X132142842Y-78269350D01*
X132131401Y-78214290D01*
X132065662Y-78087418D01*
X132065661Y-78087416D01*
X132013777Y-78031863D01*
X131968130Y-77982987D01*
X131942214Y-77967227D01*
X131910568Y-77927720D01*
X131911720Y-77877114D01*
X131945131Y-77839088D01*
X131980663Y-77830000D01*
X132462000Y-77830000D01*
X132462000Y-77311000D01*
X132479313Y-77263434D01*
X132485261Y-77260000D01*
X132714802Y-77260000D01*
X132797250Y-77244588D01*
X132809505Y-77237000D01*
X132888000Y-77237000D01*
X132935566Y-77254313D01*
X132960876Y-77298150D01*
X132962000Y-77311000D01*
X132962000Y-77830000D01*
X133784296Y-77830000D01*
X133784099Y-77827506D01*
X133738281Y-77669800D01*
X133654682Y-77528443D01*
X133603072Y-77476833D01*
X133581680Y-77430957D01*
X133588961Y-77391917D01*
X133629587Y-77309095D01*
X133655246Y-77210000D01*
X132853111Y-77210000D01*
X132892610Y-77185543D01*
X132960201Y-77096038D01*
X132990895Y-76988160D01*
X132980546Y-76876479D01*
X132930552Y-76776078D01*
X132858069Y-76710000D01*
X133660367Y-76710000D01*
X133660069Y-76708059D01*
X133660068Y-76708054D01*
X133589434Y-76517334D01*
X133481855Y-76344739D01*
X133341731Y-76197328D01*
X133174801Y-76081142D01*
X132987911Y-76000941D01*
X132987901Y-76000938D01*
X132788696Y-75960000D01*
X132387000Y-75960000D01*
X132387000Y-76660000D01*
X131887000Y-76660000D01*
X131887000Y-75960000D01*
X131536280Y-75960000D01*
X131384666Y-75975417D01*
X131384661Y-75975419D01*
X131190615Y-76036300D01*
X131190614Y-76036301D01*
X131012782Y-76135006D01*
X131012777Y-76135010D01*
X130858471Y-76267477D01*
X130858468Y-76267479D01*
X130733982Y-76428303D01*
X130733980Y-76428305D01*
X130644413Y-76610902D01*
X130644411Y-76610907D01*
X130618754Y-76710000D01*
X131420889Y-76710000D01*
X131381390Y-76734457D01*
X131313799Y-76823962D01*
X131283105Y-76931840D01*
X131293454Y-77043521D01*
X131343448Y-77143922D01*
X131415931Y-77210000D01*
X130613633Y-77210000D01*
X130613930Y-77211940D01*
X130613931Y-77211945D01*
X130684565Y-77402665D01*
X130792144Y-77575260D01*
X130932268Y-77722671D01*
X131099197Y-77838857D01*
X131243169Y-77900639D01*
X131280053Y-77935306D01*
X131286024Y-77985572D01*
X131260690Y-78026042D01*
X131253535Y-78031863D01*
X131253531Y-78031867D01*
X131171132Y-78148600D01*
X131171127Y-78148608D01*
X131123977Y-78281281D01*
X131091736Y-78320303D01*
X131054250Y-78330500D01*
X130122000Y-78330500D01*
X130108450Y-78331091D01*
X130108445Y-78331091D01*
X130108432Y-78331092D01*
X130095602Y-78332214D01*
X130095597Y-78332215D01*
X130031396Y-78352458D01*
X130031394Y-78352459D01*
X129987564Y-78377765D01*
X129987550Y-78377774D01*
X129965360Y-78393312D01*
X129965359Y-78393313D01*
X129919193Y-78459245D01*
X129919189Y-78459252D01*
X129901877Y-78506815D01*
X129892500Y-78559996D01*
X129892500Y-78560000D01*
X129892500Y-84000000D01*
X125222501Y-84000000D01*
X125222501Y-77218608D01*
X125222688Y-77213386D01*
X125222930Y-77210000D01*
X126583633Y-77210000D01*
X126583930Y-77211940D01*
X126583931Y-77211945D01*
X126654565Y-77402665D01*
X126762144Y-77575260D01*
X126902268Y-77722671D01*
X127069198Y-77838857D01*
X127256088Y-77919058D01*
X127256098Y-77919061D01*
X127455303Y-77959999D01*
X127455311Y-77960000D01*
X127707000Y-77960000D01*
X127707000Y-77260000D01*
X128207000Y-77260000D01*
X128207000Y-77960000D01*
X128407711Y-77960000D01*
X128407719Y-77959999D01*
X128559333Y-77944582D01*
X128559338Y-77944580D01*
X128753384Y-77883699D01*
X128753385Y-77883698D01*
X128931217Y-77784993D01*
X128931222Y-77784989D01*
X129085528Y-77652522D01*
X129085531Y-77652520D01*
X129210017Y-77491696D01*
X129210019Y-77491694D01*
X129299586Y-77309097D01*
X129299588Y-77309092D01*
X129325246Y-77210000D01*
X128523111Y-77210000D01*
X128562610Y-77185543D01*
X128630201Y-77096038D01*
X128660895Y-76988160D01*
X128650546Y-76876479D01*
X128600552Y-76776078D01*
X128528069Y-76710000D01*
X129330367Y-76710000D01*
X129330069Y-76708059D01*
X129330068Y-76708054D01*
X129259434Y-76517334D01*
X129151855Y-76344739D01*
X129011731Y-76197328D01*
X128844801Y-76081142D01*
X128657911Y-76000941D01*
X128657901Y-76000938D01*
X128458696Y-75960000D01*
X128207000Y-75960000D01*
X128207000Y-76660000D01*
X127707000Y-76660000D01*
X127707000Y-75960000D01*
X127506280Y-75960000D01*
X127354666Y-75975417D01*
X127354661Y-75975419D01*
X127160615Y-76036300D01*
X127160614Y-76036301D01*
X126982782Y-76135006D01*
X126982777Y-76135010D01*
X126828471Y-76267477D01*
X126828468Y-76267479D01*
X126703982Y-76428303D01*
X126703980Y-76428305D01*
X126614413Y-76610902D01*
X126614411Y-76610907D01*
X126588754Y-76710000D01*
X127390889Y-76710000D01*
X127351390Y-76734457D01*
X127283799Y-76823962D01*
X127253105Y-76931840D01*
X127263454Y-77043521D01*
X127313448Y-77143922D01*
X127385931Y-77210000D01*
X126583633Y-77210000D01*
X125222930Y-77210000D01*
X125227472Y-77146499D01*
X125227496Y-77146186D01*
X125239269Y-76996598D01*
X125239271Y-76996568D01*
X125240730Y-76986671D01*
X125261288Y-76892169D01*
X125261595Y-76890827D01*
X125289795Y-76773368D01*
X125292405Y-76764819D01*
X125328133Y-76669028D01*
X125329069Y-76666651D01*
X125373131Y-76560275D01*
X125376544Y-76553143D01*
X125426584Y-76461500D01*
X125428374Y-76458409D01*
X125487459Y-76361992D01*
X125491269Y-76356377D01*
X125554410Y-76272030D01*
X125557317Y-76268397D01*
X125630232Y-76183025D01*
X125634138Y-76178799D01*
X125708807Y-76104130D01*
X125713021Y-76100235D01*
X125798374Y-76027337D01*
X125802053Y-76024392D01*
X125886383Y-75961264D01*
X125891997Y-75957455D01*
X125988401Y-75898378D01*
X125991513Y-75896577D01*
X126083172Y-75846527D01*
X126090269Y-75843132D01*
X126196602Y-75799088D01*
X126199004Y-75798142D01*
X126294849Y-75762394D01*
X126303374Y-75759792D01*
X126420780Y-75731605D01*
X126422046Y-75731315D01*
X126516696Y-75710725D01*
X126526576Y-75709269D01*
X126676012Y-75697507D01*
X126743405Y-75692687D01*
X126748674Y-75692500D01*
X166084848Y-75692500D01*
X166084851Y-75692502D01*
G37*
%TD.AperFunction*%
%TD*%
%TA.AperFunction,Conductor*%
%TO.N,+5V*%
G36*
X131113398Y-78503313D02*
G01*
X131138284Y-78544945D01*
X131142598Y-78565707D01*
X131142598Y-78565708D01*
X131208337Y-78692581D01*
X131208338Y-78692583D01*
X131255438Y-78743014D01*
X131305870Y-78797013D01*
X131427960Y-78871258D01*
X131513553Y-78895240D01*
X131565553Y-78909810D01*
X131565554Y-78909810D01*
X131672549Y-78909810D01*
X131672556Y-78909810D01*
X131778562Y-78895240D01*
X131909624Y-78838311D01*
X132020467Y-78748134D01*
X132102871Y-78631395D01*
X132123605Y-78573050D01*
X132155846Y-78534030D01*
X132205628Y-78524862D01*
X132212764Y-78526430D01*
X132217005Y-78527583D01*
X132217009Y-78527585D01*
X132242135Y-78530500D01*
X133181864Y-78530499D01*
X133206991Y-78527585D01*
X133286893Y-78492304D01*
X133316782Y-78486000D01*
X135308000Y-78486000D01*
X135355566Y-78503313D01*
X135380876Y-78547150D01*
X135382000Y-78560000D01*
X135382000Y-80190000D01*
X135364687Y-80237566D01*
X135320850Y-80262876D01*
X135308000Y-80264000D01*
X133500460Y-80264000D01*
X133452894Y-80246687D01*
X133427584Y-80202850D01*
X133427881Y-80175565D01*
X133437500Y-80127211D01*
X133437499Y-79932790D01*
X133424417Y-79867014D01*
X133393745Y-79821110D01*
X133381714Y-79771945D01*
X133393744Y-79738890D01*
X133424417Y-79692986D01*
X133437500Y-79627211D01*
X133437499Y-79432790D01*
X133424417Y-79367014D01*
X133374577Y-79292423D01*
X133371674Y-79289520D01*
X133354334Y-79252334D01*
X133350000Y-79248000D01*
X133327783Y-79248000D01*
X133307156Y-79243896D01*
X133307135Y-79244005D01*
X133299986Y-79242583D01*
X133234211Y-79229500D01*
X133234210Y-79229500D01*
X132189785Y-79229500D01*
X132116865Y-79244004D01*
X132116843Y-79243896D01*
X132096216Y-79248000D01*
X131572000Y-79248000D01*
X131572000Y-80133200D01*
X131554687Y-80180766D01*
X131510850Y-80206076D01*
X131498000Y-80207200D01*
X131379148Y-80207200D01*
X131364712Y-80205778D01*
X131345155Y-80201888D01*
X131345154Y-80201888D01*
X131239357Y-80222931D01*
X131174237Y-80266444D01*
X131174234Y-80266446D01*
X131149668Y-80282861D01*
X131138587Y-80299443D01*
X131129386Y-80310653D01*
X130856653Y-80583386D01*
X130845443Y-80592587D01*
X130828861Y-80603667D01*
X130813734Y-80626307D01*
X130768932Y-80693356D01*
X130747888Y-80799154D01*
X130747888Y-80799155D01*
X130751778Y-80818711D01*
X130753200Y-80833148D01*
X130753200Y-81218851D01*
X130751778Y-81233287D01*
X130747888Y-81252843D01*
X130747888Y-81252845D01*
X130768932Y-81358643D01*
X130813734Y-81425693D01*
X130828861Y-81448332D01*
X130828864Y-81448335D01*
X130845438Y-81459409D01*
X130856653Y-81468612D01*
X131129387Y-81741346D01*
X131138589Y-81752558D01*
X131149668Y-81769139D01*
X131169280Y-81782243D01*
X131169284Y-81782246D01*
X131169285Y-81782246D01*
X131172305Y-81784264D01*
X131172307Y-81784266D01*
X131239357Y-81829068D01*
X131239360Y-81829068D01*
X131239361Y-81829069D01*
X131246090Y-81831857D01*
X131245058Y-81834346D01*
X131278170Y-81854435D01*
X131294446Y-81902366D01*
X131276389Y-81949218D01*
X131189121Y-82049932D01*
X131189119Y-82049934D01*
X131135302Y-82167776D01*
X131116867Y-82296000D01*
X131135302Y-82424223D01*
X131135302Y-82424224D01*
X131135303Y-82424226D01*
X131189118Y-82542063D01*
X131273951Y-82639967D01*
X131382931Y-82710004D01*
X131507228Y-82746500D01*
X131507232Y-82746500D01*
X131508525Y-82746686D01*
X131509329Y-82747117D01*
X131512306Y-82747991D01*
X131512123Y-82748613D01*
X131553145Y-82770588D01*
X131571963Y-82817580D01*
X131572000Y-82819934D01*
X131572000Y-83312000D01*
X132096217Y-83312000D01*
X132116843Y-83316103D01*
X132116865Y-83315995D01*
X132124013Y-83317416D01*
X132124014Y-83317417D01*
X132189789Y-83330500D01*
X133234210Y-83330499D01*
X133234214Y-83330499D01*
X133307135Y-83315996D01*
X133307156Y-83316103D01*
X133327784Y-83312000D01*
X133350000Y-83312000D01*
X133356183Y-83305816D01*
X133367313Y-83275239D01*
X133371677Y-83270476D01*
X133374570Y-83267581D01*
X133374577Y-83267577D01*
X133424417Y-83192986D01*
X133437500Y-83127211D01*
X133437499Y-82932790D01*
X133424417Y-82867014D01*
X133393745Y-82821110D01*
X133381714Y-82771945D01*
X133393744Y-82738890D01*
X133424417Y-82692986D01*
X133437500Y-82627211D01*
X133437499Y-82432790D01*
X133427881Y-82384432D01*
X133435583Y-82334405D01*
X133473642Y-82301031D01*
X133500460Y-82296000D01*
X135308000Y-82296000D01*
X135355566Y-82313313D01*
X135380876Y-82357150D01*
X135382000Y-82370000D01*
X135382000Y-84000000D01*
X135364687Y-84047566D01*
X135320850Y-84072876D01*
X135308000Y-84074000D01*
X133316782Y-84074000D01*
X133286893Y-84067695D01*
X133206991Y-84032415D01*
X133206990Y-84032414D01*
X133206988Y-84032414D01*
X133185659Y-84029940D01*
X133181865Y-84029500D01*
X133181864Y-84029500D01*
X132242136Y-84029500D01*
X132217010Y-84032414D01*
X132216932Y-84032436D01*
X132216870Y-84032430D01*
X132211479Y-84033056D01*
X132211352Y-84031969D01*
X132166489Y-84028214D01*
X132131806Y-83995074D01*
X132131401Y-83994293D01*
X132131401Y-83994290D01*
X132085252Y-83905226D01*
X132065662Y-83867417D01*
X132065661Y-83867416D01*
X132013780Y-83811866D01*
X131968130Y-83762987D01*
X131846040Y-83688742D01*
X131708447Y-83650190D01*
X131708446Y-83650190D01*
X131601444Y-83650190D01*
X131601438Y-83650190D01*
X131495441Y-83664759D01*
X131495439Y-83664759D01*
X131495438Y-83664760D01*
X131441572Y-83688157D01*
X131364375Y-83721689D01*
X131253531Y-83811867D01*
X131171132Y-83928600D01*
X131171127Y-83928608D01*
X131136949Y-84024781D01*
X131104708Y-84063803D01*
X131067222Y-84074000D01*
X130122000Y-84074000D01*
X130074434Y-84056687D01*
X130049124Y-84012850D01*
X130048000Y-84000000D01*
X130048000Y-78560000D01*
X130065313Y-78512434D01*
X130109150Y-78487124D01*
X130122000Y-78486000D01*
X131065832Y-78486000D01*
X131113398Y-78503313D01*
G37*
%TD.AperFunction*%
%TD*%
%TA.AperFunction,Conductor*%
%TO.N,+5V*%
G36*
X159575106Y-96272304D02*
G01*
X159655009Y-96307585D01*
X159680135Y-96310500D01*
X160619864Y-96310499D01*
X160644991Y-96307585D01*
X160645002Y-96307579D01*
X160645048Y-96307568D01*
X160645101Y-96307572D01*
X160650522Y-96306944D01*
X160650648Y-96308035D01*
X160695492Y-96311777D01*
X160730193Y-96344925D01*
X160730598Y-96345707D01*
X160730599Y-96345710D01*
X160764632Y-96411391D01*
X160796337Y-96472581D01*
X160796338Y-96472583D01*
X160843438Y-96523014D01*
X160893870Y-96577013D01*
X161015960Y-96651258D01*
X161101553Y-96675240D01*
X161153553Y-96689810D01*
X161153554Y-96689810D01*
X161260549Y-96689810D01*
X161260556Y-96689810D01*
X161366562Y-96675240D01*
X161497624Y-96618311D01*
X161608467Y-96528134D01*
X161690871Y-96411395D01*
X161725051Y-96315218D01*
X161757292Y-96276197D01*
X161794778Y-96266000D01*
X162740000Y-96266000D01*
X162787566Y-96283313D01*
X162812876Y-96327150D01*
X162814000Y-96340000D01*
X162814000Y-101780000D01*
X162796687Y-101827566D01*
X162752850Y-101852876D01*
X162740000Y-101854000D01*
X161796168Y-101854000D01*
X161748602Y-101836687D01*
X161723716Y-101795055D01*
X161723258Y-101792850D01*
X161719401Y-101774290D01*
X161653662Y-101647418D01*
X161653661Y-101647416D01*
X161601780Y-101591866D01*
X161556130Y-101542987D01*
X161434040Y-101468742D01*
X161296447Y-101430190D01*
X161296446Y-101430190D01*
X161189444Y-101430190D01*
X161189438Y-101430190D01*
X161083441Y-101444759D01*
X161083439Y-101444759D01*
X161083438Y-101444760D01*
X161029572Y-101468157D01*
X160952375Y-101501689D01*
X160841531Y-101591867D01*
X160759129Y-101708604D01*
X160738393Y-101766948D01*
X160706150Y-101805970D01*
X160656368Y-101815137D01*
X160649237Y-101813570D01*
X160644989Y-101812414D01*
X160623161Y-101809882D01*
X160619865Y-101809500D01*
X160619864Y-101809500D01*
X159680136Y-101809500D01*
X159655013Y-101812414D01*
X159655008Y-101812415D01*
X159620695Y-101827566D01*
X159575106Y-101847695D01*
X159545218Y-101854000D01*
X158062000Y-101854000D01*
X158014434Y-101836687D01*
X157989124Y-101792850D01*
X157988000Y-101780000D01*
X157988000Y-100150000D01*
X158005313Y-100102434D01*
X158049150Y-100077124D01*
X158062000Y-100076000D01*
X159361540Y-100076000D01*
X159409106Y-100093313D01*
X159434416Y-100137150D01*
X159434118Y-100164434D01*
X159424500Y-100212789D01*
X159424500Y-100212790D01*
X159424500Y-100407205D01*
X159437583Y-100472987D01*
X159468253Y-100518889D01*
X159480284Y-100568057D01*
X159468253Y-100601111D01*
X159437583Y-100647012D01*
X159424500Y-100712789D01*
X159424500Y-100907205D01*
X159437582Y-100972985D01*
X159437583Y-100972986D01*
X159487423Y-101047577D01*
X159487426Y-101047579D01*
X159490323Y-101050476D01*
X159507668Y-101087668D01*
X159512000Y-101092000D01*
X159534217Y-101092000D01*
X159554843Y-101096103D01*
X159554865Y-101095995D01*
X159562013Y-101097416D01*
X159562014Y-101097417D01*
X159627789Y-101110500D01*
X160672210Y-101110499D01*
X160672214Y-101110499D01*
X160745135Y-101095996D01*
X160745156Y-101096103D01*
X160765784Y-101092000D01*
X161290000Y-101092000D01*
X161290000Y-97028000D01*
X160765783Y-97028000D01*
X160745156Y-97023896D01*
X160745135Y-97024005D01*
X160737986Y-97022583D01*
X160672211Y-97009500D01*
X160672210Y-97009500D01*
X159627785Y-97009500D01*
X159554865Y-97024004D01*
X159554843Y-97023896D01*
X159534216Y-97028000D01*
X159512000Y-97028000D01*
X159505816Y-97034183D01*
X159494687Y-97064760D01*
X159490326Y-97069520D01*
X159487422Y-97072423D01*
X159437582Y-97147014D01*
X159424500Y-97212789D01*
X159424500Y-97407205D01*
X159437583Y-97472987D01*
X159468253Y-97518889D01*
X159480284Y-97568057D01*
X159468253Y-97601111D01*
X159437583Y-97647012D01*
X159424500Y-97712789D01*
X159424500Y-97907204D01*
X159424500Y-97907209D01*
X159424501Y-97907210D01*
X159434118Y-97955567D01*
X159426417Y-98005595D01*
X159388358Y-98038969D01*
X159361540Y-98044000D01*
X158062000Y-98044000D01*
X158014434Y-98026687D01*
X157989124Y-97982850D01*
X157988000Y-97970000D01*
X157988000Y-96340000D01*
X158005313Y-96292434D01*
X158049150Y-96267124D01*
X158062000Y-96266000D01*
X159545218Y-96266000D01*
X159575106Y-96272304D01*
G37*
%TD.AperFunction*%
%TD*%
%TA.AperFunction,Conductor*%
%TO.N,/OPT_PWR*%
G36*
X159575106Y-78492304D02*
G01*
X159655009Y-78527585D01*
X159680135Y-78530500D01*
X160619864Y-78530499D01*
X160644991Y-78527585D01*
X160645002Y-78527579D01*
X160645048Y-78527568D01*
X160645101Y-78527572D01*
X160650522Y-78526944D01*
X160650648Y-78528035D01*
X160695492Y-78531777D01*
X160730193Y-78564925D01*
X160730598Y-78565707D01*
X160730599Y-78565710D01*
X160764632Y-78631391D01*
X160796337Y-78692581D01*
X160796338Y-78692583D01*
X160843438Y-78743014D01*
X160893870Y-78797013D01*
X161015960Y-78871258D01*
X161101553Y-78895240D01*
X161153553Y-78909810D01*
X161153554Y-78909810D01*
X161260549Y-78909810D01*
X161260556Y-78909810D01*
X161366562Y-78895240D01*
X161497624Y-78838311D01*
X161608467Y-78748134D01*
X161690871Y-78631395D01*
X161725051Y-78535218D01*
X161757292Y-78496197D01*
X161794778Y-78486000D01*
X162740000Y-78486000D01*
X162787566Y-78503313D01*
X162812876Y-78547150D01*
X162814000Y-78560000D01*
X162814000Y-84000000D01*
X162796687Y-84047566D01*
X162752850Y-84072876D01*
X162740000Y-84074000D01*
X161796168Y-84074000D01*
X161748602Y-84056687D01*
X161723716Y-84015055D01*
X161719401Y-83994290D01*
X161653662Y-83867418D01*
X161653661Y-83867416D01*
X161601780Y-83811866D01*
X161556130Y-83762987D01*
X161434040Y-83688742D01*
X161296447Y-83650190D01*
X161296446Y-83650190D01*
X161189444Y-83650190D01*
X161189438Y-83650190D01*
X161083441Y-83664759D01*
X161083439Y-83664759D01*
X161083438Y-83664760D01*
X161029572Y-83688157D01*
X160952375Y-83721689D01*
X160841531Y-83811867D01*
X160759129Y-83928604D01*
X160738393Y-83986948D01*
X160706150Y-84025970D01*
X160656368Y-84035137D01*
X160649237Y-84033570D01*
X160644989Y-84032414D01*
X160623161Y-84029882D01*
X160619865Y-84029500D01*
X160619864Y-84029500D01*
X159680136Y-84029500D01*
X159655013Y-84032414D01*
X159655004Y-84032416D01*
X159615889Y-84049687D01*
X159565382Y-84053062D01*
X159524523Y-84023182D01*
X159512000Y-83981992D01*
X159512000Y-83397637D01*
X159529313Y-83350071D01*
X159573150Y-83324761D01*
X159600434Y-83325058D01*
X159627789Y-83330500D01*
X160672210Y-83330499D01*
X160672214Y-83330499D01*
X160745135Y-83315996D01*
X160745156Y-83316103D01*
X160765784Y-83312000D01*
X161290000Y-83312000D01*
X161290000Y-79248000D01*
X160765783Y-79248000D01*
X160745156Y-79243896D01*
X160745135Y-79244005D01*
X160737986Y-79242583D01*
X160672211Y-79229500D01*
X160672210Y-79229500D01*
X159627785Y-79229500D01*
X159554865Y-79244004D01*
X159554843Y-79243896D01*
X159534216Y-79248000D01*
X159512000Y-79248000D01*
X159505816Y-79254183D01*
X159494687Y-79284760D01*
X159490326Y-79289520D01*
X159487422Y-79292423D01*
X159437582Y-79367014D01*
X159424500Y-79432789D01*
X159424500Y-79627205D01*
X159437583Y-79692987D01*
X159468253Y-79738889D01*
X159480284Y-79788057D01*
X159468253Y-79821111D01*
X159437583Y-79867012D01*
X159424500Y-79932789D01*
X159424500Y-80127206D01*
X159433094Y-80170416D01*
X159425391Y-80220446D01*
X159387332Y-80253820D01*
X159360515Y-80258850D01*
X159321492Y-80258850D01*
X159307056Y-80257428D01*
X159287499Y-80253538D01*
X159242049Y-80262578D01*
X159227615Y-80264000D01*
X158062000Y-80264000D01*
X158014434Y-80246687D01*
X157989124Y-80202850D01*
X157988000Y-80190000D01*
X157988000Y-78560000D01*
X158005313Y-78512434D01*
X158049150Y-78487124D01*
X158062000Y-78486000D01*
X159545218Y-78486000D01*
X159575106Y-78492304D01*
G37*
%TD.AperFunction*%
%TD*%
%TA.AperFunction,Conductor*%
%TO.N,/Buck/Vin*%
G36*
X131113398Y-96283313D02*
G01*
X131138284Y-96324945D01*
X131142598Y-96345707D01*
X131142598Y-96345708D01*
X131208337Y-96472581D01*
X131208338Y-96472583D01*
X131255438Y-96523014D01*
X131305870Y-96577013D01*
X131427960Y-96651258D01*
X131513553Y-96675240D01*
X131565553Y-96689810D01*
X131565554Y-96689810D01*
X131672549Y-96689810D01*
X131672556Y-96689810D01*
X131778562Y-96675240D01*
X131909624Y-96618311D01*
X132020467Y-96528134D01*
X132102871Y-96411395D01*
X132123605Y-96353050D01*
X132155846Y-96314030D01*
X132205628Y-96304862D01*
X132212764Y-96306430D01*
X132217005Y-96307583D01*
X132217009Y-96307585D01*
X132242135Y-96310500D01*
X133181864Y-96310499D01*
X133206991Y-96307585D01*
X133286893Y-96272304D01*
X133316782Y-96266000D01*
X134800000Y-96266000D01*
X134847566Y-96283313D01*
X134872876Y-96327150D01*
X134874000Y-96340000D01*
X134874000Y-97400232D01*
X134856687Y-97447798D01*
X134852326Y-97452558D01*
X134792058Y-97512826D01*
X134746182Y-97534218D01*
X134739732Y-97534500D01*
X133502350Y-97534500D01*
X133454784Y-97517187D01*
X133429474Y-97473350D01*
X133429772Y-97446064D01*
X133430197Y-97443922D01*
X133437500Y-97407211D01*
X133437499Y-97212790D01*
X133424417Y-97147014D01*
X133374577Y-97072423D01*
X133371674Y-97069520D01*
X133354334Y-97032334D01*
X133350000Y-97028000D01*
X133327783Y-97028000D01*
X133307156Y-97023896D01*
X133307135Y-97024005D01*
X133299986Y-97022583D01*
X133234211Y-97009500D01*
X133234210Y-97009500D01*
X132189785Y-97009500D01*
X132116865Y-97024004D01*
X132116843Y-97023896D01*
X132096216Y-97028000D01*
X131572000Y-97028000D01*
X131572000Y-100215089D01*
X131554687Y-100262655D01*
X131510850Y-100287965D01*
X131488341Y-100288456D01*
X131445000Y-100282750D01*
X131301291Y-100301669D01*
X131167376Y-100357138D01*
X131052379Y-100445379D01*
X130964138Y-100560376D01*
X130908669Y-100694291D01*
X130889750Y-100838000D01*
X130908669Y-100981708D01*
X130963552Y-101114209D01*
X130964139Y-101115625D01*
X131052379Y-101230621D01*
X131167375Y-101318861D01*
X131301291Y-101374330D01*
X131320098Y-101376806D01*
X131364997Y-101400179D01*
X131384369Y-101446945D01*
X131369147Y-101495221D01*
X131357140Y-101507575D01*
X131253533Y-101591866D01*
X131253532Y-101591867D01*
X131253530Y-101591869D01*
X131171132Y-101708600D01*
X131171127Y-101708608D01*
X131136949Y-101804781D01*
X131104708Y-101843803D01*
X131067222Y-101854000D01*
X130122000Y-101854000D01*
X130074434Y-101836687D01*
X130049124Y-101792850D01*
X130048000Y-101780000D01*
X130048000Y-96340000D01*
X130065313Y-96292434D01*
X130109150Y-96267124D01*
X130122000Y-96266000D01*
X131065832Y-96266000D01*
X131113398Y-96283313D01*
G37*
%TD.AperFunction*%
%TA.AperFunction,Conductor*%
G36*
X134847566Y-100093313D02*
G01*
X134872876Y-100137150D01*
X134874000Y-100150000D01*
X134874000Y-101780000D01*
X134856687Y-101827566D01*
X134812850Y-101852876D01*
X134800000Y-101854000D01*
X133316782Y-101854000D01*
X133286893Y-101847695D01*
X133206991Y-101812415D01*
X133206990Y-101812414D01*
X133206988Y-101812414D01*
X133185659Y-101809940D01*
X133181865Y-101809500D01*
X133181864Y-101809500D01*
X132242136Y-101809500D01*
X132217010Y-101812414D01*
X132216932Y-101812436D01*
X132216870Y-101812430D01*
X132211479Y-101813056D01*
X132211352Y-101811969D01*
X132166489Y-101808214D01*
X132131806Y-101775074D01*
X132131401Y-101774293D01*
X132131401Y-101774290D01*
X132085252Y-101685226D01*
X132065662Y-101647417D01*
X132065661Y-101647416D01*
X132013780Y-101591866D01*
X131968130Y-101542987D01*
X131846040Y-101468742D01*
X131787917Y-101452456D01*
X131754995Y-101443232D01*
X131713864Y-101413727D01*
X131701321Y-101364687D01*
X131723235Y-101319057D01*
X131729906Y-101313274D01*
X131837621Y-101230621D01*
X131905277Y-101142450D01*
X131947968Y-101115254D01*
X131963984Y-101113500D01*
X132110054Y-101113500D01*
X132124490Y-101114921D01*
X132144474Y-101118897D01*
X132171606Y-101113500D01*
X132171607Y-101113500D01*
X132179539Y-101111921D01*
X132193963Y-101110499D01*
X132690493Y-101110499D01*
X132704930Y-101111921D01*
X132739999Y-101118897D01*
X132739999Y-101118896D01*
X132740000Y-101118897D01*
X132775069Y-101111920D01*
X132789506Y-101110499D01*
X133234215Y-101110499D01*
X133307135Y-101095996D01*
X133307156Y-101096103D01*
X133327784Y-101092000D01*
X133350000Y-101092000D01*
X133356183Y-101085816D01*
X133367313Y-101055239D01*
X133371677Y-101050476D01*
X133374570Y-101047581D01*
X133374577Y-101047577D01*
X133424417Y-100972986D01*
X133437500Y-100907211D01*
X133437499Y-100712790D01*
X133424417Y-100647014D01*
X133393745Y-100601110D01*
X133381714Y-100551945D01*
X133393744Y-100518890D01*
X133424417Y-100472986D01*
X133437500Y-100407211D01*
X133437499Y-100212790D01*
X133427881Y-100164432D01*
X133435583Y-100114405D01*
X133473642Y-100081031D01*
X133500460Y-100076000D01*
X134800000Y-100076000D01*
X134847566Y-100093313D01*
G37*
%TD.AperFunction*%
%TD*%
M02*
